<svg viewBox="0 0 8000 8000" fill="none"
  xmlns="http://www.w3.org/2000/svg">
  <path fill-rule="evenodd" clip-rule="evenodd" d="M8000 0H0v8000h8000V0ZM3459.4 3734c-.7 11 7.1 23.4 17.3 27.5l97 62.2c16.8 10.7 20.3 9.8 27.2 8l2.6-.7c8.8-2 88.6-37.5 88.6-37.5 13.4-5.1 20.8-9.4 21.7-20.4l9-95c1-10.9-4.7-26.3-12.4-34.1L3588 3520.3a23 23 0 0 0-30-1.9l-73.4 57.9a51.5 51.5 0 0 0-17 32.3l-8.3 125.4Zm142 249.2c3-.3 4.5-.4 10.9 5.2l10.3 9.2 26 23.4c4 2.4 6.5 8.1 5.4 12.6l-11.9 52a22.1 22.1 0 0 1-9.3 12.4l-34.7 19.3a9.7 9.7 0 0 1-12.4-2.8l-42.8-60c-2.7-3.8-4-10.7-2.9-15.2l10.2-39.2c1-4.5 4.5-5.8 10.5-7 0 0 35.8-9.5 39.6-9.8h1.1ZM3393.8 4589c-4 .3-6.2.5-14.7-7.1l-50-44.6a17.2 17.2 0 0 1-7.4-17.3l16.4-71.1a30.4 30.4 0 0 1 12.8-17l47.5-26.5a13.5 13.5 0 0 1 17 3.9l58.7 82a28.5 28.5 0 0 1 4 20.9l-14 53.6c-1.6 6.2-6.2 8-14.4 9.7 0 0-49 13-54.3 13.3l-1.6.2Zm-330-532.3c.7-4.3 1-6.7 11.3-13.7l59.8-40.7c4.8-5 14-6.4 20.1-3.3l70.6 35.4c6.2 3 12.8 11 14.6 17.7l15.6 56.5c1.8 6.6-2 14.2-8.4 16.7l-101.5 40.4a31 31 0 0 1-22.8-1.2l-52.9-28.3c-6-3.1-6.8-8.5-6.5-17.5 0 0-1-54.6-.1-60.2l.3-1.8Zm42.5 153.6c3-7 4.5-10.6 24.6-18a59967 59967 0 0 1 116.5-42 32 32 0 0 1 34.8 3.1l102 88.8c8.9 7.9 16.3 24 16.5 35.8l1.7 100.2a24.8 24.8 0 0 1-21.1 24.3l-185.7 23.6a53.5 53.5 0 0 1-37.4-11.8l-75.4-69.5c-8.8-8-7.7-17-3.3-31.9 0 0 21.7-91.1 25.7-100l1.1-2.6Zm611 396.5c-5 1.3-7.7 2-20.1-6l-71.5-46.7a22.1 22.1 0 0 1-12.7-20.5l6.8-93c.6-8.1 6.4-19 12.8-24l54.9-42.4c6.4-5 16.4-4.3 22.1 1.5l90 92.4a36.6 36.6 0 0 1 9.1 25.5l-7.1 70.4c-.8 8.1-6.3 11.3-16.3 15 0 0-59.5 25.9-66 27.4l-2 .4Zm282.5-743.1c-2.7.6-4 1-10.6-3.2a7914 7914 0 0 1-37.7-24.6c-4-1.6-7-6.5-6.7-10.8l3.7-49c.3-4.2 3.4-9.9 6.7-12.5l29-22.4a9 9 0 0 1 11.6.8l47.4 48.6c3 3 5.2 9.1 4.8 13.4l-3.8 37c-.4 4.4-3.3 6-8.6 8 0 0-31.3 13.6-34.7 14.4-.4 0-.8.2-1.1.3ZM3957 3665c-7 1.3-10.5 2-26.5-9.7a33485 33485 0 0 1-64.2-47.7l-28-20.7a29.5 29.5 0 0 1-15.3-28.5l16.8-124a51.7 51.7 0 0 1 19.2-31l77-52.5a23 23 0 0 1 29.5 3.9l113.1 131a49 49 0 0 1 10 35l-15.3 93.7c-1.7 10.8-9.3 14.6-23 18.8 0 0-81.8 29.8-90.6 31.2l-2.7.5Zm190.9 789.7c2.8 1.6 4.3 2.4 6.5 11.4a6472 6472 0 0 1 12.3 52c2.1 4.7.7 11.4-3.1 14.9l-43.4 39.3a24 24 0 0 1-16.2 5.3l-43.4-4.3c-5-.5-9.3-5-9.4-10.2l-.9-80.9c0-5.1 3-12 7-15.4l33.7-29c3.9-3.4 7.7-2.4 13.9.2 0 0 38.3 13.9 41.8 16l1.2.7Zm-277.6-244.2c-4.2 1.4-6.4 2.2-17.4-3.9-7.6-4-30-16.4-46.1-25.2l-17.6-9.6c-6.6-2.2-12-9.6-12-16.5l-.3-79c0-7 4.2-16.5 9.4-21.2l43.6-39.4a14.4 14.4 0 0 1 18.8-.2l82.2 72.4c5.2 4.6 9.4 14 9.3 21l-1.5 60c0 7-4.5 9.9-12.7 13.7 0 0-48.7 25.7-54 27.3l-1.7.6Zm-425.6 59.3c-5.6-.5-8.5-.7-18.1-13.3-10.8-14-55.5-73-55.3-73-6.6-6-9-17.3-5.5-25.3l40.6-91.3a41 41 0 0 1 21.7-19.6l70.7-23.1a18.3 18.3 0 0 1 21.8 9.5l57.4 125.8c3.7 8 3.7 21 0 28.9l-32.8 68.5c-3.7 8-10.4 9.1-21.8 9.3 0 0-69.5 4.7-76.5 3.9l-2.2-.3Zm-314.8-451.3c2.4-5.2 3.6-8 19-13.2a21273.4 21273.4 0 0 1 89.3-29.8c7.9-4.3 19.7-3 26.3 3.2l75.7 69.4c6.7 6.1 12 18.5 12 27.4l-.8 76.2c-.1 9-7.5 17-16.5 18l-141.3 14.3c-9 .9-21.7-3.5-28.2-9.6l-56-54.2c-6.4-6.3-5.4-13.1-1.8-24.3 0 0 18.2-68.8 21.4-75.4l1-2Zm1143.8-346.6c6 1.8 9.2 2.8 17 18.9l44 93c5.8 8 5.8 21 0 29L4269 3704a46 46 0 0 1-28.3 16.6l-83.2 9.2c-9.9 1-19.7-6-21.8-15.5l-34.2-151.6c-2.1-9.6 1-23.9 6.9-31.8l51.8-67.9c5.9-7.9 13.5-7.7 26.2-5.2 0 0 77.4 10.8 85 13.4l2.3.7Zm-563.3 330.9c5.7-1.5 8.7-2.3 22.6 6.6l21.8 14 58.8 37.6a24.6 24.6 0 0 1 14.4 22.8l-7 104c-.5 9-6.9 21.2-14.1 26.8l-61 48c-7.2 5.6-18.3 5-24.8-1.6l-101.5-102.5a41 41 0 0 1-10.3-28.4l7.4-78.7c.8-9.1 7-12.7 18-17 0 0 66.3-29.4 73.6-31l2.1-.6ZM3520 4007c-5 2.7-7.6 4.2-23-.7l-88.8-29c-9-1-17.6-9.2-19.3-18l-19.3-100a41.6 41.6 0 0 1 6.7-28.9l45.7-60.5a18.7 18.7 0 0 1 23.8-4.7l121.5 72a40.3 40.3 0 0 1 16.8 24.3l12.6 76.2c1.5 8.9-3.4 13.7-12.9 20.5 0 0-55.3 44.3-61.8 47.7l-2 1Zm327.4-154.3c-5.5 1.4-8.4 2.2-21.8-6.4l-78-50a23.8 23.8 0 0 1-13.8-22l6.6-100.8c.6-8.8 6.8-20.5 13.7-26l59-46.5c7-5.4 17.8-4.8 24 1.5l98.3 99.3a39.9 39.9 0 0 1 10 27.5l-7.2 76.3c-.8 8.8-6.7 12.2-17.5 16.4 0 0-64.2 28.5-71.2 30.1l-2.1.6Zm-188.7 501.6c-6-.5-9.3-.7-20-14.2l-36.6-46-25.9-32.6a25.7 25.7 0 0 1-6.5-27.6l42.3-101a44.8 44.8 0 0 1 23.2-22l77-27c9.1-3.2 20 1.3 24.2 10l65.9 136.4c4.2 8.6 4.4 23 .5 31.7l-34.2 75.8c-3.9 8.8-11.2 10.3-23.7 10.7 0 0-76 6.8-83.8 6l-2.3-.2Zm51.3-956.7c5-1.4 7.7-2 20.2 5.9l71.9 46a22 22 0 0 1 12.8 20.5l-6.1 93c-.6 8-6.3 18.9-12.7 24l-54.5 42.8a17 17 0 0 1-22.1-1.3l-90.7-91.8a36.6 36.6 0 0 1-9.3-25.3l6.7-70.4c.7-8.1 6.2-11.3 16.1-15.1 0 0 59.2-26.3 65.8-27.8l1.9-.5ZM3320 3565.1c4.9-1.9 7.5-2.8 20.6 4 14.7 7.6 76 39.2 75.9 39.3a21.9 21.9 0 0 1 14.6 19l2.6 93.2a38 38 0 0 1-10.4 25l-50.2 47.8c-6 5.6-16 6-22.2.7l-98.8-82.9a36.8 36.8 0 0 1-11.5-24.4v-70.7c0-8.1 5.1-11.8 14.7-16.5 0 0 56.5-31.7 62.8-33.9l2-.6Zm602.9 275.7c5-1.4 7.7-2 20.1 5.9l72 46c7.6 3.1 13.3 12.3 12.8 20.5l-6.2 93c-.5 8.1-6.2 18.9-12.6 24l-54.5 42.9a17 17 0 0 1-22.1-1.4l-90.7-91.7a36.6 36.6 0 0 1-9.3-25.4l6.7-70.4c.7-8.1 6.1-11.3 16.1-15.1 0 0 59.2-26.3 65.7-27.8l2-.5ZM3539 4272.3c5.3-.2 8-.3 18.5 10l60.7 60.1a22 22 0 0 1 8.2 22.6l-25.5 89.6a38.6 38.6 0 0 1-17.4 20.8l-62.3 30.6c-7.4 3.6-17 1-21.3-6l-69.5-108.6c-4.4-6.8-6-18.9-3.7-26.7l21.3-67.4c2.3-7.8 8.4-9.8 19-11.5 0 0 63.3-13.3 70-13.4h2ZM3349.5 3991c3.4.6 5.3 1 10.7 9.3l31.4 48.6a15 15 0 0 1 2.1 16.2l-30 55.5a26 26 0 0 1-14.5 11.2l-45.7 11.2a11.6 11.6 0 0 1-13.3-7.1l-30-82a25 25 0 0 1 1.5-18.2l23.9-41.5c2.7-4.8 7-5.2 14.2-4.8a990.2 990.2 0 0 0 49.7 1.6ZM4499 4172.7c6.3 3.6 9.6 5.5 14 25.6 5 22.5 25.3 116.2 25.2 116.2a30.5 30.5 0 0 1-7.5 32.7l-97.8 85.5a53 53 0 0 1-36.2 11.3l-96-11.3a23.7 23.7 0 0 1-20.5-23.1l1.2-179.5a51.5 51.5 0 0 1 16-34.1l76-62.8c8.8-7.4 17.3-5.2 31 .9 0 0 84.2 32.3 92.1 37.2l2.4 1.4Zm-611.3 363.2c-7.7-.4-11.7-.6-25.9-17.2l-81.6-96.8a32.5 32.5 0 0 1-9.2-34.5l49.5-128.9a56.7 56.7 0 0 1 28.5-28.5l96-37c11.3-4.3 25.2 1 30.8 11.7l88.1 169.6a54.3 54.3 0 0 1 2 39.9l-40.3 96.8c-4.5 11.2-13.7 13.3-29.5 14.4 0 0-95.4 11.3-105.3 10.6l-3-.1Zm835.6-551.2c3 2 4.5 3 6.2 12.9l9.2 57.2c2 5.2-.1 12.3-4.5 15.7l-49.9 39a26.1 26.1 0 0 1-18 4.6l-46.5-8c-5.4-1-9.7-6.2-9.3-11.8l5.3-87.3c.4-5.6 4.3-12.8 8.7-16.2l38.7-28.6c4.4-3.4 8.6-2.1 15 1.2a991.7 991.7 0 0 0 45.1 21.3Zm-544 556.6c-.7-5.6-1.1-8.5 9-20.7l58.8-71a23.8 23.8 0 0 1 23.6-11l99 18.5c8.7 1.6 19.6 9 24.2 16.6l39 63.7a18.4 18.4 0 0 1-4.3 23.5l-110.2 85.2c-7 5.4-19.8 8.4-28.4 6.6l-74.8-16.2c-8.6-1.8-11.4-8-14.2-19.2 0 0-20.6-66.7-21.4-73.8 0-.8-.2-1.6-.3-2.2Zm-64-823.6c-.3 3-.5 4.5-7.4 9.4l-21.5 15.1a3278 3278 0 0 0-18.4 13 12.7 12.7 0 0 1-13.6 2.3l-47.8-23.2a22 22 0 0 1-10-12l-11-37.9a9.7 9.7 0 0 1 5.4-11.4l68.1-28a20.8 20.8 0 0 1 15.4.5l35.9 18.7c4.2 2 4.7 5.6 4.6 11.7a863.6 863.6 0 0 0 .4 41.8Zm-37.4 225.7c2.6-1.4 4-2 11.7.7l33.1 11.8 11.3 4c4.4.8 8.7 5 9.4 9.5l8.4 50.9c.7 4.4-1 11-3.9 14.5l-24 30a9.5 9.5 0 0 1-12 2l-60.5-38.2c-3.8-2.4-7.4-8-8-12.5l-5.3-38.9c-.6-4.4 2-6.8 6.8-10.2 0 0 28.7-21.5 32-23.1l1-.5Zm748.2 437c-2.8 2.3-4.2 3.4-14 2-11-1.5-57-8.3-57-8.3a15 15 0 0 1-13.5-9l-22.3-58.6c-2-5.1-1.5-13.4 1-18.3l21.5-41.4c2.4-5 8.8-7.3 13.9-5.4l81.3 31a25 25 0 0 1 12.7 13l15.6 45c1.9 5.2-.6 8.7-5.6 13.8 0 0-29 32.7-32.6 35.4l-1 .8Zm-157.8-249c4.9 1.4 7.4 2.1 13.8 14.7l37 72.6a21 21 0 0 1 .7 23l-50 73.7a36.8 36.8 0 0 1-22 13.7l-65.6 9.2a16.3 16.3 0 0 1-17.7-11.8l-30.5-119.2c-1.9-7.6.2-19 4.7-25.4l39.5-54.8c4.5-6.4 10.5-6.4 20.6-4.8 0 0 61.6 6.8 67.7 8.6l1.8.6Zm-323.9-167.3c5.3 3 8 4.7 11.8 21.4l21.1 97.3c3.7 8.8 1 21.1-6.3 27.4l-82 71.6a44.7 44.7 0 0 1-30.3 9.4l-80.4-9.4a19.9 19.9 0 0 1-17-19.4l.9-150.3a43 43 0 0 1 13.4-28.5l63.7-52.7c7.3-6.1 14.4-4.2 25.8.8 0 0 70.6 27.1 77.3 31.2l2 1.2Zm61 136c-5.4-3.4-8.2-5.3-11.2-22.9-3.5-19.8-17.5-102.3-17.5-102.3-3.5-9.3 0-22 7.8-28.2l88.7-70.7c7.8-6.3 22.2-10 32-8.4l83.3 13.6c9.8 1.6 17.5 11 17 21l-8.1 156.4a45 45 0 0 1-15.3 29.1l-68.8 51.8c-7.9 6-15.3 3.8-26.9-2 0 0-72.3-31.4-79-36l-2-1.4Zm-313 315.5c-4.7-2.7-7.2-4.2-10.5-19.2-3.7-16.8-19-87-18.8-87a22.8 22.8 0 0 1 5.6-24.5l73.2-64a40.2 40.2 0 0 1 27-8.3l72 8.4c8.4 1 15.3 8.8 15.3 17.3l-1 134.4c0 8.6-5.4 20-12 25.5l-56.9 47c-6.5 5.4-13 3.8-23-.7 0 0-63.2-24.2-69.1-27.9l-1.8-1Zm393 179.8c-5.5-3.2-8.4-4.9-12.2-22.6-2.4-10.4-8.4-38.4-13.7-62.4l-8.7-40a27 27 0 0 1 6.6-28.8l86.3-75.4c7.6-6.6 22-11 32-9.9l84.7 10a21 21 0 0 1 18 20.3l-1 158.3c0 10-6.4 23.6-14.1 30l-67.1 55.4c-7.7 6.5-15.2 4.5-27.2-.8 0 0-74.4-28.5-81.3-32.8l-2.2-1.3Zm-223-695.4c-5.2-3.2-8-4.8-11.5-21.8l-20.3-98.2a25.9 25.9 0 0 1 6.6-27.5l83.3-71.3c7.3-6.2 21-10.4 30.6-9.1l81 10.4a20 20 0 0 1 17 19.6l-2.6 151.5a43.2 43.2 0 0 1-13.8 28.5l-64.7 52.3c-7.4 6.2-14.6 4.2-26-1 0 0-70.9-28-77.5-32.2l-2-1.2Zm-46.4-119.8c3.5 3.1 5.3 4.8 5.3 18l.1 36.4.1 40c1.4 7.1-2.7 16-9.1 19.5l-73.1 40.6a34.8 34.8 0 0 1-24.3 2l-58.8-20a15.3 15.3 0 0 1-9.7-17.2l25.1-112.7a32.9 32.9 0 0 1 14.7-19.2l56.2-29.3c6.5-3.4 11.6-.9 19.3 4.8a1304.2 1304.2 0 0 0 54.3 37Zm721 392.1c.1 5.2.2 8-10.6 18l-40 37.3-22 20.6a21.9 21.9 0 0 1-23 7.4l-88.4-28.6a38.1 38.1 0 0 1-20.2-18l-28.3-63a17 17 0 0 1 6.7-21l111-65a37 37 0 0 1 26.8-2.7l66.5 23.6c7.7 2.7 9.5 8.7 10.7 19.3 0 0 11 63.5 10.9 70v2.1Zm-338.3-469.6c3.7 2.4 5.5 3.6 7.5 15.6 2.2 13.4 11.3 69.3 11.2 69.4 2.3 6.3-.2 14.9-5.4 19l-60.5 47.3a31.5 31.5 0 0 1-21.7 5.5l-56.3-9.8a14 14 0 0 1-11.3-14.2l6.4-105.8c.5-6.8 5.1-15.6 10.5-19.7l46.9-34.6c5.3-4 10.3-2.5 18.1 1.5 0 0 48.8 21.8 53.3 24.9l1.3.9Zm-558.4 347.5c6.1-2 7.4-2.4 19.3 6l63.4 45c6 4.4 11.6 11.7 10.8 19.1l-9.6 84.1c-.9 7.4-6.5 17-12.6 21.3l-51.3 36.6c-6 4.4-15 3.3-20-2.2l-78.5-87.2c-5-5.5-8.2-16-7.2-23.4l9-63.7c1-6.2 6-9.8 15.3-13.2l60.9-22.3.5-.1Z" fill="currentColor"/>
</svg>
