<svg xmlns="http://www.w3.org/2000/svg" width="24" height="24" fill="none" viewBox="0 0 24 24"><path fill="currentcolor" fill-rule="evenodd" d="M12 2a3.158 3.158 0 0 0-3.158 3.158v6.316a3.158 3.158 0 0 0 6.316 0V5.158A3.158 3.158 0 0 0 12 2ZM5.684 9.368c.582 0 1.053.472 1.053 1.053v1.053a5.263 5.263 0 0 0 10.526 0V10.42a1.053 1.053 0 1 1 2.105 0v1.053a7.37 7.37 0 0 1-6.315 7.293V21a1 1 0 0 1-1 1h-.106a1 1 0 0 1-1-1v-2.233a7.37 7.37 0 0 1-6.315-7.293V10.42c0-.581.47-1.053 1.052-1.053Z" clip-rule="evenodd"/></svg>