<svg viewBox="0 0 24 24"><path d="M19.354 18.035a.606.606 0 01-.605.605H4.528a.606.606 0 01-.605-.605V16.86a.604.604 0 01.206-.456l1.998-1.747a1.53 1.53 0 00.522-1.15V9.561a4.953 4.953 0 013.14-4.614c.576-.23.948-.782.948-1.407v-.793a.902.902 0 011.803 0v.793c0 .625.372 1.177.949 1.407a4.953 4.953 0 013.14 4.614v3.748c0 .414.17.816.47 1.102l2.069 1.984a.608.608 0 01.186.436v1.204zm.452-2.308c.3.288.471.69.471 1.103v1.205c0 .843-.685 1.528-1.528 1.528H4.528A1.529 1.529 0 013 18.035V16.86c0-.442.19-.86.521-1.151l1.998-1.746a.608.608 0 00.207-.456V9.561a5.87 5.87 0 013.72-5.47.59.59 0 00.368-.55v-.794c0-1.005.819-1.824 1.825-1.824 1.005 0 1.824.819 1.824 1.824v.793c0 .245.144.46.368.55a5.872 5.872 0 013.72 5.471v3.748c0 .163.068.322.187.436l2.068 1.983zm-5.442 4.276a.462.462 0 01.462.462 3.19 3.19 0 01-3.188 3.186 3.19 3.19 0 01-3.187-3.187.462.462 0 01.461-.461.461.461 0 01.462.462 2.266 2.266 0 002.264 2.263 2.266 2.266 0 002.265-2.263.462.462 0 01.461-.462z" fill-rule="evenodd"/></svg>