<svg viewBox="0 0 24 24"><g fill-rule="evenodd"><path d="M23 12H1v-1.5h22V12zm-2.917 11H3.917L2.099 13h19.802l-1.818 10zM23.5 9.5H.5a.5.5 0 00-.5.5v2.5a.5.5 0 00.5.5h.583l1.925 10.59A.5.5 0 003.5 24h17a.5.5 0 00.492-.41L22.917 13h.583a.5.5 0 00.5-.5V10a.5.5 0 00-.5-.5zM3.5 7a.502.502 0 00.354-.146l6-6a.502.502 0 000-.708.502.502 0 00-.708 0l-6 6a.502.502 0 000 .708A.502.502 0 003.5 7m16.646-.146A.498.498 0 0020.5 7a.497.497 0 00.353-.146.5.5 0 000-.707l-6-6a.5.5 0 00-.706 0 .5.5 0 000 .707l6 6z"/><path d="M13.768 20.993a.409.409 0 00.035.001.5.5 0 00.498-.465l.371-5.293a.502.502 0 00-.465-.534.503.503 0 00-.533.464l-.37 5.293a.501.501 0 00.464.534m3.836-.016a.5.5 0 00.557-.436l.647-5.266a.5.5 0 00-.435-.557.49.49 0 00-.558.436l-.646 5.266a.499.499 0 00.435.557m-7.432.017h.035a.502.502 0 00.465-.535l-.37-5.293a.508.508 0 00-.534-.464.502.502 0 00-.465.534l.371 5.293a.5.5 0 00.498.465m-3.861-.014a.5.5 0 00.497-.561l-.647-5.266a.49.49 0 00-.557-.436.5.5 0 00-.435.557l.646 5.268a.5.5 0 00.496.438"/></g></svg>