<svg viewBox="0 0 24 24"><g fill-rule="evenodd"><path d="M12 23C5.935 23 1 18.065 1 12S5.935 1 12 1s11 4.935 11 11-4.935 11-11 11M0 12c0 6.627 5.373 12 12 12s12-5.373 12-12S18.627 0 12 0 0 5.373 0 12z"/><path d="M12.526 15.696H9.664V12.26h2.862c.947 0 1.717.77 1.717 1.718a1.72 1.72 0 01-1.717 1.717zm-2.862-7.87h2.862c.947 0 1.717.77 1.717 1.718a1.72 1.72 0 01-1.717 1.717H9.664V7.826zm4.423 3.935a2.712 2.712 0 00-1.56-4.935h-.196V5.5a.5.5 0 10-1 0v1.326h-.702V5.5a.5.5 0 00-1 0v1.326H8.5a.5.5 0 100 1h.164v7.87H8.5a.5.5 0 100 1h1.13v1.326a.499.499 0 101 0v-1.326h.701v1.326a.5.5 0 101 0v-1.326h.195a2.72 2.72 0 002.717-2.717c0-.917-.459-1.725-1.156-2.218z"/></g></svg>