<svg viewBox="0 0 24 24"><g fill-rule="evenodd" fill="currentColor"><path d="M15.853 22.857H8.861A2.865 2.865 0 016 19.995v-9.053c2.082-.73 4.396-.698 6.888.117 1.412.461 2.665.692 3.753.692.779 0 1.467-.127 2.073-.365v8.61a2.865 2.865 0 01-2.861 2.861M7.052 6.6l2.385-1.949c.431-.353.677-.873.677-1.429v-2.05A.17.17 0 0110.286 1h4.142a.17.17 0 01.172.172v2.05c0 .556.247 1.076.677 1.43l2.387 1.95a2.845 2.845 0 011.05 2.215v1.468c-1.236.67-3.085.617-5.516-.177C10.622 9.266 8.207 9.2 6 9.888v-1.07c0-.865.383-1.673 1.052-2.218m11.244-.774l-2.385-1.948a.846.846 0 01-.311-.656v-2.05C15.6.526 15.074 0 14.428 0h-4.142C9.64 0 9.114.526 9.114 1.172v2.05a.848.848 0 01-.31.656L6.419 5.826A3.845 3.845 0 005 8.817v11.178a3.866 3.866 0 003.861 3.862h6.992a3.866 3.866 0 003.861-3.862V8.817a3.846 3.846 0 00-1.418-2.99"/><path d="M15.031 16.083c-.614 0-1.114-.486-1.114-1.084 0-.596.5-1.082 1.114-1.082.614 0 1.114.486 1.114 1.082 0 .598-.5 1.084-1.114 1.084m0-3.083c1.12 0 2.031.896 2.031 1.999 0 1.103-.91 2.001-2.03 2.001S13 16.102 13 14.999c0-1.103.911-1.999 2.031-1.999zm-3.104 4c.25-.002.5.084.69.26a.97.97 0 01.05 1.357.964.964 0 01-.676.302c-.5.02-.972-.419-.99-.92a.96.96 0 01.259-.688.97.97 0 01.667-.31z"/></g></svg>
