<svg viewBox="0 0 24 24"><path d="M20.586 2A3.414 3.414 0 0124 5.414v10.495a2.457 2.457 0 01-1.598 2.303c-.2.074-.31.213-.31.361v2.656c0 1.342-1.623 2.014-2.57 1.064l-3.809-3.808a.413.413 0 00-.291-.12H3.414A3.414 3.414 0 010 14.95V5.414A3.414 3.414 0 013.414 2h17.172zm0 1.091H3.414a2.322 2.322 0 00-2.323 2.323v9.536a2.323 2.323 0 002.323 2.323h12.008c.398 0 .781.158 1.063.44l3.808 3.809c.261.26.707.076.707-.292v-2.657c0-.634.418-1.161 1.022-1.384a1.365 1.365 0 00.887-1.28V5.414a2.322 2.322 0 00-2.323-2.323z"/></svg>