<svg viewBox="0 0 24 24"><path d="M16.808 10.772a.5.5 0 01.707.707l-7.04 7.039c-1.785 1.786-4.112 1.902-5.562.52-1.473-1.404-1.374-3.704.502-5.58l9.216-9.216c2.266-2.266 5.192-2.259 7.062-.363 1.862 1.887 1.862 4.826-.368 7.055l-4.483 4.483-3.254 3.254-1.48 1.479c-2.915 2.915-6.65 3.059-8.981.791-2.35-2.285-2.224-5.987.78-8.991l7.04-7.04a.5.5 0 01.706.707l-7.039 7.04c-2.622 2.622-2.727 5.684-.79 7.567 1.93 1.877 5.04 1.757 7.577-.781l1.48-1.48 3.254-3.253 4.483-4.483c1.84-1.84 1.84-4.149.363-5.646-1.48-1.5-3.769-1.506-5.643.368l-9.216 9.216c-1.495 1.496-1.566 3.151-.52 4.149 1.045.996 2.754.91 4.166-.503l7.04-7.04z"/></svg>