<svg viewBox="0 0 24 24"><path d="M9.534 13.571a.572.572 0 01-.572.572H1.714a.572.572 0 01-.571-.572V2.857c0-.314.256-.571.571-.571h7.248a.572.572 0 01.571.571v10.714zM8.962 1.143H1.714C.769 1.143 0 1.913 0 2.857v10.715c0 .945.769 1.714 1.714 1.714h7.248c.945 0 1.714-.77 1.714-1.714V2.857c0-.945-.769-1.714-1.714-1.714zm5.39 1.714c0-.314.257-.571.572-.571h6.752a.572.572 0 01.571.571v2.286a.572.572 0 01-.57.571h-6.753a.572.572 0 01-.571-.571V2.857zm.572 4h6.752c.945 0 1.714-.769 1.714-1.714V2.857c0-.945-.769-1.714-1.714-1.714h-6.752c-.945 0-1.714.769-1.714 1.714v2.286c0 .945.769 1.714 1.714 1.714zm7.571 14.714a.572.572 0 01-.57.572h-7.249a.572.572 0 01-.571-.572V10.857c0-.314.256-.571.571-.571h7.248a.572.572 0 01.571.571v10.714zm-.57-12.428h-7.249c-.945 0-1.714.77-1.714 1.714v10.715c0 .945.769 1.714 1.714 1.714h7.248c.945 0 1.714-.77 1.714-1.714V10.857c0-.945-.769-1.714-1.714-1.714zM9.284 21.571a.572.572 0 01-.57.572H1.961a.572.572 0 01-.571-.572v-2.285c0-.315.256-.572.571-.572h6.752a.572.572 0 01.572.572v2.285zm-.57-4H1.961c-.945 0-1.714.77-1.714 1.715v2.285c0 .946.77 1.715 1.714 1.715h6.752c.945 0 1.715-.77 1.715-1.715v-2.285c0-.945-.77-1.715-1.715-1.715z" fill-rule="evenodd"/></svg>