<svg viewBox="0 0 24 24"><g fill-rule="evenodd"><path d="M15.27 22.588c-3.759 0-6.022-.832-6.13-1.252v-1.373c1.492.767 4.261 1.007 6.13 1.007 1.869 0 4.64-.24 6.13-1.007v1.365c-.108.428-2.371 1.26-6.13 1.26zm-13.226-4.8v-1.372c1.471.756 4.184 1 6.052 1.005v1.617c-3.71-.013-5.945-.833-6.052-1.25zM8.174 3.23c3.757 0 6.021.832 6.13 1.246-.109.427-2.373 1.258-6.13 1.258-3.755 0-6.019-.83-6.13-1.244V4.49c.111-.428 2.375-1.259 6.13-1.259zM21.4 16.006c-.11.428-2.373 1.26-6.13 1.26-3.756 0-6.019-.83-6.13-1.245v-.001c.112-.428 2.375-1.259 6.13-1.259s6.02.832 6.13 1.245zM2.044 13.755c1.49.767 4.261 1.007 6.13 1.007.291 0 .608-.008.935-.02-.618.324-1.013.738-1.013 1.272v.363c-3.709-.013-5.944-.833-6.052-1.25v-1.372zm6.13-1.654c1.87 0 4.64-.24 6.13-1.007v1.365c-.109.427-2.371 1.26-6.13 1.26-3.758 0-6.022-.833-6.13-1.253v-1.372c1.49.767 4.261 1.007 6.13 1.007zm0-2.661c1.87 0 4.64-.24 6.13-1.007v1.366c-.109.427-2.373 1.258-6.13 1.258-3.757 0-6.02-.831-6.13-1.252V8.433c1.49.767 4.261 1.007 6.13 1.007zm6.13-3.668v1.366c-.109.427-2.373 1.258-6.13 1.258-3.757 0-6.02-.831-6.13-1.252V5.772c1.49.767 4.261 1.007 6.13 1.007 1.87 0 4.64-.24 6.13-1.007zM21.4 18.668c-.11.427-2.373 1.259-6.13 1.259-3.758 0-6.021-.832-6.13-1.252v-1.373c1.492.767 4.261 1.007 6.13 1.007 1.869 0 4.64-.24 6.13-1.007v1.366zm-6.053-4.949v-.951c0-.046-.016-.088-.027-.131.01-.056.028-.112.028-.171V4.483c0-1.812-4.51-2.295-7.174-2.295C5.51 2.188 1 2.67 1 4.483v13.305c0 1.795 4.423 2.286 7.096 2.294v1.253c0 1.813 4.509 2.296 7.174 2.296s7.174-.483 7.174-2.296v-5.321c0-1.796-4.423-2.287-7.097-2.295z"/><path d="M20.131 5.008c-.889-.297-1.282-.48-1.322-.985-.058-.747 1.026-.845 1.037-.845.754-.065 1.446.311 1.453.314a.521.521 0 00.708-.205.521.521 0 00-.203-.708 4.276 4.276 0 00-1.423-.424v-.59a.521.521 0 00-.522-.522.522.522 0 00-.522.522v.643c-.89.217-1.647.878-1.568 1.896.097 1.247 1.215 1.621 2.032 1.894.826.277 1.192.442 1.225.858.067.827-.601 1.005-1.005 1.038-1 .09-1.708-.577-1.712-.581a.522.522 0 00-.738.011.521.521 0 00.011.738c.034.033.707.67 1.755.84v.557c0 .289.234.522.522.522a.52.52 0 00.522-.522v-.57c1.102-.201 1.774-1.017 1.685-2.117-.092-1.146-1.113-1.488-1.934-1.764"/></g></svg>