<svg viewBox="0 0 24 24"><g fill-rule="evenodd"><path d="M12 23C5.935 23 1 18.065 1 12S5.935 1 12 1s11 4.935 11 11-4.935 11-11 11m0-23C5.373 0 0 5.373 0 12s5.373 12 12 12 12-5.373 12-12S18.627 0 12 0"/><path d="M12.085 8.498c1.125-.098 2.156.463 2.167.469.24.131.544.045.678-.197a.5.5 0 00-.195-.678 5.519 5.519 0 00-2.112-.592V6.469a.5.5 0 10-1 0V7.56c-1.224.234-2.305 1.091-2.2 2.449.125 1.593 1.547 2.07 2.69 2.452 1.123.377 1.814.646 1.875 1.404.117 1.447-1.211 1.67-1.62 1.703-1.516.122-2.571-.871-2.58-.88a.5.5 0 00-.707.011.5.5 0 00.01.707c.048.046 1.026.963 2.532 1.137v.988a.499.499 0 101 0v-.994c1.534-.199 2.48-1.28 2.362-2.752-.117-1.455-1.468-1.908-2.555-2.272-1.2-.402-1.94-.693-2.01-1.582-.08-1.019 1.055-1.383 1.665-1.433"/></g></svg>