<svg viewBox="0 0 24 24"><path d="M16.696 18.653a5.633 5.633 0 01-2.93 1.883c-.257.071-.295.119-.284.353.009.219.01.437.005.738l-.003.205a27.034 27.034 0 00-.006.499c0 .692-.429 1.142-1.12 1.159a38.7 38.7 0 01-1.555.004c-.716-.016-1.143-.484-1.15-1.193a73.258 73.258 0 01-.005-.524 72.528 72.528 0 00-.005-.518c-.006-.524.144-.346-.347-.424-1.155-.185-2.041-.427-2.867-.827-.89-.436-1.077-.846-.817-1.79.208-.755.32-1.146.46-1.595.284-.9.786-1.117 1.621-.684.856.445 1.797.72 2.857.852.629.079 1.2.009 1.722-.22.839-.368.962-1.278.248-1.868-.26-.22-.576-.4-1.007-.589-.255-.113-.488-.21-.918-.383l-.076-.03c-1.084-.437-1.573-.656-2.155-1.006-1.88-1.126-2.841-2.639-2.719-4.643.14-2.308 1.43-3.888 3.696-4.712.305-.11.374-.137.45-.174.072-.034.054.025.056-.513.002-.101.002-.183.001-.368-.001-.256 0-.37.004-.515C9.878.855 10.2.528 11.113.502c.118-.003.21-.003.415 0h.197c1.652 0 1.88.223 1.885 1.862.003.704-.085.544.232.6.076.014.15.026.323.052a9.104 9.104 0 012.27.678c.608.271.869.79.68 1.431a51.688 51.688 0 00-.154.532l-.033.114c-.163.57-.24.83-.343 1.152-.276.85-.781 1.068-1.587.677a6.357 6.357 0 00-3.153-.623c-.32.019-.54.06-.733.145-.689.302-.785.976-.209 1.436.362.288.79.521 1.358.756l.31.129.08.032c1.148.475 1.708.726 2.35 1.082 3.027 1.672 3.837 5.493 1.695 8.096zm-2.179-7.221c-.6-.332-1.135-.572-2.249-1.033l-.078-.032-.312-.13c-.646-.266-1.151-.542-1.598-.896-1.17-.934-.942-2.533.43-3.135.322-.14.65-.202 1.078-.227a7.36 7.36 0 013.644.72c.26.126.112.19.201-.084.1-.307.174-.56.334-1.119l.032-.114a52.507 52.507 0 01.157-.54c.043-.145.035-.162-.126-.233a8.104 8.104 0 00-2.02-.604c-.178-.028-.257-.04-.343-.056-.892-.158-1.052-.45-1.057-1.554-.004-1.112.22-.893-.885-.893l-.205-.001a11.75 11.75 0 00-.382 0c-.376.011-.276-.09-.286.298-.004.13-.005.237-.004.482v.382c-.005.891-.083 1.145-.623 1.404a5.226 5.226 0 01-.543.213c-1.906.693-2.925 1.94-3.039 3.833-.097 1.597.652 2.776 2.235 3.724.523.314.979.52 2.015.936l.075.03c.44.178.682.278.948.396.51.223.903.449 1.245.736 1.282 1.06 1.036 2.884-.487 3.551-.694.305-1.447.398-2.248.297-1.172-.145-2.227-.454-3.194-.956-.277-.144-.107-.218-.206.095a45.43 45.43 0 00-.45 1.56c-.132.48-.167.403.29.627.723.35 1.522.567 2.588.738.978.157 1.177.395 1.19 1.4l.004.524c.001.26.002.374.004.518.002.187.015.202.17.206a37.715 37.715 0 001.512-.005c.143-.003.144-.004.144-.16 0-.144.002-.258.006-.515l.003-.203c.004-.284.004-.487-.004-.68-.033-.713.323-1.168 1.018-1.36a4.636 4.636 0 002.422-1.553c1.74-2.113 1.082-5.212-1.406-6.587z"/></svg>