<svg viewBox="0 0 24 24"><path d="M17.655 10.116l-5.586-2.162a.572.572 0 00-.743.328.573.573 0 00.329.74l4.318 1.673-3.943 1.358a.793.793 0 01-.531-.003L2.001 8.64l9.73-3.445a.79.79 0 01.536 0l9.7 3.437-4.312 1.484zm6.307-1.711a.714.714 0 00-.436-.44L12.65 4.113a1.955 1.955 0 00-1.303 0L.462 7.969a.868.868 0 00-.403.364.876.876 0 00-.03.538c.07.205.227.364.432.437l2.812 1.009v4.106c0 .639.314 1.239.84 1.604 2.033 1.408 4.307 2.115 6.799 2.115 1.714 0 3.531-.334 5.443-1.004a.572.572 0 00.352-.73.573.573 0 00-.731-.352c-4.325 1.513-8.095 1.185-11.209-.972a.807.807 0 01-.347-.661v-3.694l6.69 2.402a1.958 1.958 0 001.295.007l5.228-1.8.853.33c.307.12.514.422.514.75v7.222a.574.574 0 101.148 0v-7.222c0-.681-.358-1.278-.917-1.631l4.296-1.48a.716.716 0 00.435-.902z" fill-rule="evenodd"/></svg>