<svg viewBox="0 0 24 24"><g fill-rule="evenodd"><path d="M12 23C5.935 23 1 18.065 1 12S5.935 1 12 1s11 4.935 11 11-4.935 11-11 11m0-23C5.373 0 0 5.373 0 12s5.373 12 12 12 12-5.373 12-12S18.627 0 12 0"/><path d="M16.612 15.816a.543.543 0 00-.765-.096 4.775 4.775 0 01-2.956 1.012 4.829 4.829 0 01-4.437-2.938h3.687a.545.545 0 00.545-.545.545.545 0 00-.545-.546h-3.99a4.734 4.734 0 01-.081-.792c0-.27.037-.532.08-.792h3.991a.544.544 0 00.545-.545.545.545 0 00-.545-.546H8.454A4.829 4.829 0 0112.89 7.09c1.073 0 2.088.345 2.936.999a.547.547 0 00.666-.865A5.854 5.854 0 0012.89 6c-2.6 0-4.81 1.69-5.598 4.028H5.545a.546.546 0 00-.545.546.545.545 0 00.545.545H7.04a5.95 5.95 0 00-.06.792c0 .27.025.533.06.792H5.545A.546.546 0 005 13.25c0 .3.244.545.545.545h1.747c.789 2.338 2.999 4.029 5.598 4.029 1.327 0 2.58-.43 3.626-1.242a.545.545 0 00.096-.765"/></g></svg>