<svg viewBox="0 0 24 24"><g fill-rule="evenodd"><path d="M22.983 22.09a.901.901 0 01-.902.898H1.919a.901.901 0 01-.902-.898V1.91a.9.9 0 01.902-.898h20.162a.9.9 0 01.902.898v20.18zM22.08 0H1.919C.86 0-.001.857-.001 1.91v20.18C0 23.144.86 24 1.92 24h20.162C23.14 24 24 23.143 24 22.09V1.91C24 .857 23.14 0 22.08 0z"/><path d="M9.014 16.584c-.286.269-.646.371-1.064.413a1.519 1.519 0 01-1.057-.432 1.397 1.397 0 01.02-2.037 1.523 1.523 0 011.05-.411h.013c.401.003.776.156 1.057.43a1.4 1.4 0 01-.019 2.037m10.1-1.471l-8.586-.073h-.004c-.042 0-.079.013-.118.022a2.347 2.347 0 00-.66-1.187 2.53 2.53 0 00-1.76-.718 2.459 2.459 0 00-1.775.687 2.343 2.343 0 00-.697 1.24c-.006 0-.01-.003-.017-.003l-1.085-.01h-.004a.49.49 0 00-.5.476.49.49 0 00.496.485l1.084.01h.005c.008 0 .015-.006.023-.006.095.45.32.866.664 1.202a2.534 2.534 0 001.761.719h.022c.66 0 1.281-.244 1.752-.689a2.347 2.347 0 00.703-1.29c.034.009.065.021.101.022l8.586.073h.005a.491.491 0 00.5-.475.49.49 0 00-.496-.485m-3.438-6.541c-.827 0-1.5-.646-1.5-1.44 0-.794.673-1.44 1.5-1.44s1.5.646 1.5 1.44c0 .794-.673 1.44-1.5 1.44m3.435-1.92h-.986c-.232-1.095-1.242-1.92-2.45-1.92-1.206 0-2.216.825-2.448 1.92h-8.82c-.275 0-.5.215-.5.48s.225.48.5.48h8.82c.232 1.094 1.242 1.92 2.449 1.92 1.207 0 2.217-.826 2.449-1.92h.986c.276 0 .5-.215.5-.48s-.224-.48-.5-.48"/></g></svg>