<svg viewBox="0 0 24 24"><g fill-rule="evenodd"><path d="M7.44 13.73h1.855l-.137 5.857H7.303l.138-5.857zm6.414 5.857h1.855v-2.712h-1.855v2.712zm6.046-9.463h1.855l-.146 9.463h-1.855l.146-9.463zm3.227 9.713h-.432l.16-10.25a.544.544 0 00-.158-.39.543.543 0 00-.388-.164h-2.946c-.297 0-.54.24-.545.538l-.16 10.266H16.8V16.33a.546.546 0 00-.546-.545H13.31a.546.546 0 00-.545.545v3.507h-2.522l.157-6.639a.55.55 0 00-.154-.395.546.546 0 00-.39-.164H6.907a.545.545 0 00-.545.533l-.157 6.665H.546a.545.545 0 00-.546.546c0 .3.244.545.545.545h22.582a.546.546 0 00.546-.545.545.545 0 00-.546-.546z"/><path d="M2.18 14.484a1.3 1.3 0 001.297-1.298c0-.09-.032-.167-.05-.251l4.305-3.94c.175.078.364.127.567.127.42 0 .782-.195 1.038-.49l4.129 1.298c.159.591.676 1.035 1.315 1.035.765 0 1.388-.621 1.388-1.387 0-.121-.04-.231-.07-.344L20.77 4.6c.172.078.36.129.561.129a1.365 1.365 0 10-1.364-1.364c0 .145.04.28.083.411L15.422 8.37a1.347 1.347 0 00-.64-.178c-.488 0-.897.269-1.145.65l-3.98-1.25c-.076-.695-.643-1.243-1.358-1.243-.764 0-1.386.621-1.386 1.386 0 .16.041.306.09.449L2.777 12.05a1.267 1.267 0 00-.598-.165 1.3 1.3 0 000 2.597"/></g></svg>