<svg viewBox="0 0 24 24"><path d="M9.5 10a.5.5 0 00.5-.5v-7a.5.5 0 00-.5-.5h-7a.5.5 0 00-.5.5v7a.5.5 0 00.5.5h7zm0 1h-7A1.5 1.5 0 011 9.5v-7A1.5 1.5 0 012.5 1h7A1.5 1.5 0 0111 2.5v7A1.5 1.5 0 019.5 11zm12-1a.5.5 0 00.5-.5v-7a.5.5 0 00-.5-.5h-7a.5.5 0 00-.5.5v7a.5.5 0 00.5.5h7zm0 1h-7A1.5 1.5 0 0113 9.5v-7A1.5 1.5 0 0114.5 1h7A1.5 1.5 0 0123 2.5v7a1.5 1.5 0 01-1.5 1.5zm-12 11a.5.5 0 00.5-.5v-7a.5.5 0 00-.5-.5h-7a.5.5 0 00-.5.5v7a.5.5 0 00.5.5h7zm0 1h-7A1.5 1.5 0 011 21.5v-7A1.5 1.5 0 012.5 13h7a1.5 1.5 0 011.5 1.5v7A1.5 1.5 0 019.5 23zm12-1a.5.5 0 00.5-.5v-7a.5.5 0 00-.5-.5h-7a.5.5 0 00-.5.5v7a.5.5 0 00.5.5h7zm0 1h-7a1.5 1.5 0 01-1.5-1.5v-7a1.5 1.5 0 011.5-1.5h7a1.5 1.5 0 011.5 1.5v7a1.5 1.5 0 01-1.5 1.5z"/></svg>