<svg viewBox="0 0 24 24"><path d="M19.75 22.058l.155-18.326h1.854l-.155 18.326H19.75zm-5.827 0l.15-12.156h1.856l-.151 12.156h-1.855zm-5.824 0l.144-7.603h1.855l-.145 7.603H8.1zm-5.818 0l.125-3.28h1.853l-.124 3.28H2.28zm20.846 0h-.432l.16-18.844a.515.515 0 00-.159-.372.557.557 0 00-.387-.154h-2.945a.534.534 0 00-.546.518l-.16 18.852h-1.79l.158-12.673a.508.508 0 00-.157-.372.558.558 0 00-.389-.155h-2.945a.535.535 0 00-.546.516l-.157 12.684h-1.788l.154-8.115a.506.506 0 00-.156-.375.558.558 0 00-.39-.156H7.708a.534.534 0 00-.545.512l-.154 8.134H5.226l.143-3.782a.508.508 0 00-.152-.381.556.556 0 00-.393-.16H1.88a.536.536 0 00-.546.503l-.145 3.82H.545A.534.534 0 000 22.58c0 .288.244.522.545.522h22.582a.534.534 0 00.546-.522.534.534 0 00-.546-.522zM1.637 15.13a.557.557 0 00.387-.154L14.485 2.914v1.073c0 .289.244.521.545.521a.533.533 0 00.546-.521V1.644a.486.486 0 00-.037-.177c-.002-.006.001-.01-.001-.016-.001-.001-.002-.001-.002-.003a.524.524 0 00-.172-.207.603.603 0 00-.054-.035.55.55 0 00-.238-.075c-.008-.001-.014-.008-.023-.008l-2.485-.079a.53.53 0 00-.564.504c-.01.288.227.53.527.538l1.24.04L1.248 14.241a.505.505 0 00.003.738.557.557 0 00.384.15" fill-rule="evenodd"/></svg>