<svg viewBox="0 0 24 24"><path d="M1.143 8.41c0 1.772.688 3.423 1.89 4.617l7.314 7.818.08.082a2.245 2.245 0 003.224-.077l7.331-7.84c1.187-1.178 1.875-2.83 1.875-4.6 0-3.47-2.622-6.267-5.836-6.267-1.796 0-3.46.875-4.563 2.356L12 5.114l-.458-.615c-1.103-1.48-2.767-2.356-4.563-2.356-3.215 0-5.836 2.797-5.836 6.266zM17.02 1C20.884 1 24 4.325 24 8.41c0 2.075-.81 4.018-2.197 5.396l-7.317 7.824a3.391 3.391 0 01-4.869.103l-.098-.101-7.306-7.81C.81 12.43 0 10.488 0 8.41 0 4.324 3.116 1 6.98 1c1.926 0 3.722.833 5.02 2.26C13.298 1.833 15.094 1 17.02 1z"/></svg>