<svg viewBox="0 0 24 24"><g fill-rule="evenodd"><path d="M7.6 22.303h1.78V18.61H7.6v3.693zm5.98 0h1.779V17.73h-1.78v4.573zm5.979 0h1.778V9.044H19.56v13.26zm3.298 0h-.429V8.499a.546.546 0 00-.545-.546h-2.87a.545.545 0 00-.545.546v13.804h-2.02v-5.119a.544.544 0 00-.545-.545h-2.869a.544.544 0 00-.545.545v5.119H10.47v-4.238a.546.546 0 00-.545-.546h-2.87a.545.545 0 00-.545.546v4.238h-.412a.545.545 0 00-.545.545.545.545 0 00.545.546h16.759a.546.546 0 00.545-.546.546.546 0 00-.545-.545z"/><path d="M4.197 5.774l-1.17 1.398c.285-2.847 2.558-5.081 5.345-5.081 2.978 0 5.402 2.545 5.402 5.672s-2.424 5.673-5.402 5.673a.545.545 0 00-.546.546c0 .302.244.545.546.545 3.58 0 6.493-3.034 6.493-6.763S11.952 1 8.372 1C5.055 1 2.316 3.605 1.93 6.952l-.925-1.45a.544.544 0 00-.753-.166.547.547 0 00-.167.754l1.879 2.945c.008.014.024.02.034.033a.517.517 0 00.11.107c.023.016.043.033.067.046a.549.549 0 00.157.048c.02.003.036.016.056.017l.036.001a.523.523 0 00.222-.05c.018-.007.03-.022.048-.031a.544.544 0 00.13-.1c.006-.006.012-.008.018-.014l2.192-2.618a.545.545 0 00-.07-.768.545.545 0 00-.767.068"/></g></svg>