<svg viewBox="0 0 24 24"><g fill-rule="evenodd"><path d="M3.026 15.313h10a.522.522 0 00.522-.522.522.522 0 00-.521-.522H3.026a.731.731 0 01-.73-.73V4.774c0-.402.327-.73.73-.73h15.026c.403 0 .73.328.73.73v.995c0 .29.234.522.522.522a.521.521 0 00.522-.522v-.995c0-.978-.796-1.774-1.774-1.774H3.026c-.978 0-1.774.796-1.774 1.774v8.765c0 .978.796 1.774 1.774 1.774m10.018 2.505a.522.522 0 00.521-.522.522.522 0 00-.521-.522H.772a.773.773 0 00-.772.771v1.002c0 .979.796 1.774 1.774 1.774h11.179a.521.521 0 00.521-.522.522.522 0 00-.521-.522H1.773a.731.731 0 01-.73-.73v-.73h12z"/><path d="M22.54 16.273h-6.47v-6.49c0-.402.327-.731.73-.731h5.009c.403 0 .73.329.73.73v6.49zm0 2.275c0 .401-.328.73-.731.73H16.8a.732.732 0 01-.73-.73v-1.232h6.47v1.231zm-.731-10.54H16.8c-.978 0-1.774.797-1.774 1.774v8.765c0 .978.796 1.774 1.774 1.774h5.009c.978 0 1.774-.796 1.774-1.774V9.782c0-.977-.796-1.774-1.774-1.774z"/></g></svg>