<svg viewBox="0 0 24 24"><path d="M22 10.241a.5.5 0 11.4.917l-10.35 4.5a.5.5 0 01-.4 0l-10.35-4.5a.5.5 0 11.4-.917l10.15 4.413L22 10.241z"/><path d="M11.85 17.355L22 12.94a.5.5 0 11.4.917l-10.35 4.5a.5.5 0 01-.4 0l-10.35-4.5a.5.5 0 11.4-.917l10.15 4.414z"/><path d="M11.85 20.055L22 15.642a.5.5 0 11.4.917l-10.35 4.5a.5.5 0 01-.4 0l-10.35-4.5a.5.5 0 11.4-.917l10.15 4.413zM20.946 8L11.85 4.046 2.754 8l9.096 3.955L20.946 8zm-9.295 4.959L1.3 8.459a.5.5 0 010-.917l10.35-4.5a.5.5 0 01.399 0l10.35 4.5a.5.5 0 010 .917l-10.35 4.5a.5.5 0 01-.4 0z"/></svg>