<svg viewBox="0 0 24 24"><path d="M11.667 11.409a2.742 2.742 0 10-.002-5.485 2.742 2.742 0 00.002 5.485zm0 1.037a3.779 3.779 0 11.001-7.558 3.779 3.779 0 010 7.558zm0-12.446a8.667 8.667 0 018.668 8.667c0 3.698-1.572 7.313-4.182 10.707a29.318 29.318 0 01-2.852 3.189 24.97 24.97 0 01-.943.868 12.48 12.48 0 01-.367.31l-.324.259-.324-.26a12.48 12.48 0 01-.367-.31 24.97 24.97 0 01-.942-.867 29.328 29.328 0 01-2.852-3.19C4.572 15.98 3 12.366 3 8.668A8.667 8.667 0 0111.667 0zm.913 21.817a28.295 28.295 0 002.75-3.076c2.484-3.228 3.968-6.64 3.968-10.074a7.63 7.63 0 00-7.63-7.63 7.63 7.63 0 00-7.63 7.63c0 3.433 1.483 6.846 3.966 10.074a28.313 28.313 0 002.75 3.076c.328.317.632.595.904.832.29-.237.594-.515.922-.832z"/></svg>