<svg viewBox="0 0 24 24"><g fill-rule="evenodd"><path d="M1.106 22.894h21.788V1.106H1.106v21.788zM23.447 0H.553A.552.552 0 000 .553v22.894c0 .305.248.553.553.553h22.894a.553.553 0 00.553-.553V.553A.552.552 0 0023.447 0z"/><path d="M4.2 19.55h15.3a.5.5 0 100-1H4.2a.5.5 0 000 1M5.85 7.927a.502.502 0 00.354-.146L7.75 6.233V16.8a.5.5 0 001 0V6.383l1.396 1.397a.5.5 0 00.707-.708L8.717 4.936A.495.495 0 008.25 4.6c-.018 0-.034.009-.05.01a.498.498 0 00-.379.136L5.496 7.072a.502.502 0 000 .708.502.502 0 00.354.146m7.703-.147l1.396-1.396V16.8a.5.5 0 101 0V6.232l1.547 1.547a.498.498 0 00.354.146.494.494 0 00.353-.146.498.498 0 000-.707l-2.325-2.325a.486.486 0 00-.39-.139c-.015 0-.025-.008-.039-.008a.496.496 0 00-.466.335l-2.137 2.137a.5.5 0 000 .707.5.5 0 00.707 0"/></g></svg>