<svg viewBox="0 0 24 24"><path d="M22.624 20.006a.504.504 0 01-.758.437l-4.241-2.45v1.094a2.542 2.542 0 01-2.539 2.538H3.539A2.542 2.542 0 011 19.087v-5.143c0-1.4 1.139-2.54 2.539-2.54h11.547c1.4 0 2.539 1.14 2.539 2.54v1.092l4.241-2.45a.499.499 0 01.506.002.498.498 0 01.252.438v6.98zM1.093 7.718A2.69 2.69 0 013.78 5.03a2.691 2.691 0 012.688 2.688 2.691 2.691 0 01-2.688 2.687 2.69 2.69 0 01-2.687-2.687zm8.468-1.015A3.708 3.708 0 0113.264 3a3.706 3.706 0 013.702 3.703 3.706 3.706 0 01-3.702 3.702 3.707 3.707 0 01-3.703-3.702zm13.311 5.019a1.49 1.49 0 00-1.506-.001l-2.794 1.613a3.539 3.539 0 00-2.597-2.802 4.69 4.69 0 001.991-3.83C17.966 4.11 15.857 2 13.264 2S8.561 4.11 8.561 6.703c0 1.51.729 2.842 1.838 3.702H6.288a3.668 3.668 0 001.18-2.687A3.693 3.693 0 003.78 4.03 3.692 3.692 0 00.093 7.718c0 1.327.71 2.48 1.765 3.132C.757 11.45 0 12.604 0 13.944v5.143a3.542 3.542 0 003.539 3.538h11.547a3.543 3.543 0 003.486-2.93l2.794 1.615a1.492 1.492 0 001.506-.001 1.49 1.49 0 00.752-1.303v-6.98a1.49 1.49 0 00-.752-1.304z" fill-rule="evenodd"/></svg>