<svg viewBox="0 0 24 24"><path d="M20.995 5.765L18.337 3.18l1.204-1.275 2.623 2.622-1.17 1.238zm1.882-1.883L20.22 1.225a.911.911 0 00-1.286 0l-1.275 1.276a.902.902 0 00-.266.643.9.9 0 00.266.643l2.657 2.657a.903.903 0 00.643.266.903.903 0 00.643-.266l1.275-1.275a.903.903 0 00.266-.643.903.903 0 00-.266-.643zM5.895 20.776l-3.76 1.359a.125.125 0 01-.135-.03.123.123 0 01-.031-.137l1.404-3.823L16.528 4.99 19.15 7.54 5.895 20.776zM17.171 4.274a.911.911 0 00-1.286 0L2.68 17.48a1.092 1.092 0 00-.256.401l-1.358 3.76a1.08 1.08 0 00.255 1.142 1.081 1.081 0 001.141.253l3.762-1.358a1.12 1.12 0 00.414-.27l13.19-13.19a.91.91 0 000-1.286L17.17 4.274z" fill-rule="evenodd"/></svg>