<svg viewBox="0 0 24 24"><path d="M12 4.96a2.351 2.351 0 012.348 2.348c0 1.295-1.053 2.348-2.348 2.348S9.652 8.603 9.652 7.308A2.351 2.351 0 0112 4.96m0 5.656c1.824 0 3.308-1.484 3.308-3.308S13.824 4 12 4a3.312 3.312 0 00-3.308 3.308A3.312 3.312 0 0012 10.616m7.426-2.597c.956 0 1.734.778 1.734 1.734a1.735 1.735 0 01-3.468 0c0-.956.778-1.734 1.734-1.734m0 4.427c1.485 0 2.694-1.208 2.694-2.693s-1.209-2.694-2.694-2.694a2.697 2.697 0 00-2.694 2.694 2.696 2.696 0 002.694 2.693M4.574 8.019c.956 0 1.734.778 1.734 1.734a1.735 1.735 0 01-3.468 0c0-.956.778-1.734 1.734-1.734m0 4.427c1.485 0 2.694-1.208 2.694-2.693S6.059 7.059 4.574 7.059A2.697 2.697 0 001.88 9.753a2.696 2.696 0 002.694 2.693m15.632.583h-1.334a3.91 3.91 0 00-1.616.348.48.48 0 00-.24.634.478.478 0 00.635.241 2.947 2.947 0 011.221-.263h1.333c1.563 0 2.835 1.194 2.835 2.661v2.232a.48.48 0 00.96 0V16.65c0-1.997-1.702-3.62-3.794-3.62m-13.223.982a.48.48 0 00-.24-.635 3.916 3.916 0 00-1.615-.347H3.794C1.702 13.03 0 14.654 0 16.65v2.232a.479.479 0 10.96 0V16.65c0-1.467 1.271-2.661 2.834-2.661h1.334c.422 0 .834.087 1.22.263a.477.477 0 00.635-.241m5.869-1.876h-1.704c-2.6 0-4.716 2.017-4.716 4.494v2.85a.48.48 0 10.96 0v-2.85c0-1.95 1.685-3.534 3.756-3.534h1.704c2.07 0 3.755 1.585 3.755 3.534v2.85a.479.479 0 10.96 0v-2.85c0-2.477-2.116-4.494-4.715-4.494" fill-rule="evenodd"/></svg>