<svg viewBox="0 0 24 24"><path d="M3.982 8.946a1.42 1.42 0 00-1.419 1.418 1.42 1.42 0 001.419 1.418A1.42 1.42 0 005.4 10.364a1.42 1.42 0 00-1.418-1.418m0 3.927a2.512 2.512 0 01-2.51-2.51c0-1.383 1.126-2.508 2.51-2.508S6.49 8.98 6.49 10.364a2.512 2.512 0 01-2.51 2.509m-.927 9.709H4.91v-3.43c0-.25.168-.467.41-.529 1.087-.28 1.5-1.254 1.55-3.786H1.095c.05 2.532.462 3.507 1.55 3.786a.545.545 0 01.408.528v3.431zm2.4 1.091H2.51a.546.546 0 01-.545-.545v-3.582C.157 18.81 0 16.643 0 14.291c0-.3.244-.545.545-.545h6.873c.301 0 .545.244.545.545 0 2.352-.158 4.519-1.963 5.255v3.581a.545.545 0 01-.546.546zM19.691 8.946a1.42 1.42 0 00-1.418 1.418 1.42 1.42 0 001.418 1.418 1.42 1.42 0 001.418-1.418 1.42 1.42 0 00-1.418-1.418m0 3.927a2.512 2.512 0 01-2.51-2.51 2.511 2.511 0 012.51-2.508 2.51 2.51 0 012.509 2.509 2.512 2.512 0 01-2.51 2.509m-.927 9.709h1.855v-3.43c0-.25.168-.467.41-.529 1.087-.28 1.5-1.253 1.55-3.786h-5.773c.05 2.532.462 3.507 1.55 3.786a.545.545 0 01.408.528v3.431zm2.4 1.091h-2.945a.546.546 0 01-.545-.545v-3.582c-1.806-.736-1.964-2.903-1.964-5.255 0-.3.244-.545.545-.545h6.873a.546.546 0 01.546.545c0 2.352-.159 4.519-1.964 5.255v3.581a.545.545 0 01-.546.546zM11.836 1.091a1.42 1.42 0 000 2.837 1.42 1.42 0 000-2.838m0 3.93a2.51 2.51 0 010-5.02 2.512 2.512 0 012.51 2.509 2.513 2.513 0 01-2.51 2.51m-.927 9.708h1.855v-3.43a.545.545 0 01.409-.529c1.087-.279 1.5-1.254 1.55-3.786H8.95c.049 2.532.463 3.507 1.55 3.786a.545.545 0 01.41.528v3.431zm2.4 1.091h-2.945a.546.546 0 01-.546-.545V11.69c-1.805-.736-1.964-2.903-1.964-5.255a.545.545 0 01.546-.545h6.873a.546.546 0 01.545.545c0 2.352-.158 4.519-1.963 5.255v3.582a.546.546 0 01-.546.545z" fill-rule="evenodd"/></svg>