<svg viewBox="0 0 24 24"><path d="M22.153 18.012l-4.377-2.585-.146-.072c-.067-.04-.19-.068-.37-.068-.25 0-.458.08-.621.223l-1.336 1.36a.852.852 0 01-.336.195.971.971 0 01-.412.052l-.291-.057c-.249-.05-.563-.176-.968-.383-.39-.198-.863-.502-1.43-.914-.569-.415-1.21-.988-1.92-1.712-.732-.718-1.301-1.355-1.709-1.917-.404-.559-.704-1.034-.899-1.424-.238-.46-.395-.877-.476-1.349 0-.108.022-.22.06-.333a.852.852 0 01.203-.347l1.14-1.14a.954.954 0 00.261-.495.64.64 0 00-.07-.48l-2.47-4.692a1.1 1.1 0 00-.275-.3.369.369 0 00-.236-.074.532.532 0 00-.391.179L1.967 4.795a1.25 1.25 0 00-.28.395c-.087.18-.141.35-.16.444 0 .042 0 .05-.024.494-.013.239.015.591.087 1.046.074.463.216 1.022.425 1.673.208.646.523 1.373.946 2.18.42.804.98 1.687 1.683 2.65.698.955 1.582 1.96 2.654 3.018 1.341 1.357 2.604 2.422 3.785 3.194 1.188.776 2.244 1.355 3.167 1.738.921.382 1.691.619 2.306.712.637.098 1.093.147 1.356.147a2.801 2.801 0 00.373-.02c.164-.022.336-.077.514-.162a1.31 1.31 0 00.415-.303l3.095-3.071c.152-.152.208-.304.187-.497-.037-.16-.145-.298-.343-.421zm-3.986-3.516l4.504 2.66c.438.273.718.643.809 1.096.072.546-.09 1.01-.465 1.386l-3.077 3.052a2.255 2.255 0 01-.703.514c-.271.13-.541.215-.88.258l-.09.01c-.096.01-.213.014-.353.014-.326 0-.824-.053-1.507-.158-.704-.107-1.548-.367-2.538-.778-.986-.408-2.094-1.016-3.332-1.824-1.244-.814-2.56-1.924-3.943-3.323-1.104-1.089-2.023-2.134-2.755-3.136-.73-1.002-1.317-1.925-1.762-2.776-.448-.854-.785-1.633-1.011-2.338a12.58 12.58 0 01-.461-1.822C.52 6.812.487 6.394.505 6.073l.028-.508a2.73 2.73 0 01.253-.81c.135-.281.305-.517.493-.685L4.378.97C4.686.665 5.06.5 5.476.5c.309 0 .593.093.833.274.205.152.378.34.54.598l2.485 4.715c.201.355.258.751.17 1.164-.08.389-.259.723-.53.996L7.87 9.35c.06.256.178.558.36.906.17.342.443.774.817 1.292.37.51.903 1.107 1.607 1.795.68.696 1.282 1.234 1.8 1.61.528.385.96.662 1.297.833.33.168.57.266.707.293l.193.048c-.018 0 .415-.447 1.3-1.342.37-.329.814-.498 1.309-.498.285 0 .535.044.75.14l.156.07z"/></svg>