<svg viewBox="0 0 24 24"><path d="M22.407 6.68c-.145.35-.417.623-.749.76l-4.612 1.718a.542.542 0 00-.297.269l-3.847 7.69-2.522 1.263 2.458-6.554a.545.545 0 00-.13-.582.545.545 0 00-.38-.156.546.546 0 00-.204.04l-7.03 2.81-3.593-3.593L3.965 9.29l2.718 1.36a.55.55 0 00.462.012l8.993-3.914h.007l4.414-1.922a1.421 1.421 0 011.848.77 1.406 1.406 0 010 1.084zM7.194 5.049l2.203-.913 5.138 2.12-2.156.94-5.185-2.147zm16.222.129a2.513 2.513 0 00-3.279-1.357.033.033 0 00-.008.004l-4.201 1.827-6.323-2.61a.541.541 0 00-.417 0L5.559 4.545a.545.545 0 000 1.008L10.99 7.8 6.944 9.56 4.225 8.202a.547.547 0 00-.458-.015L.331 9.66a.547.547 0 00-.172.888l4.419 4.418a.545.545 0 00.588.12l6.217-2.486-2.511 6.697a.547.547 0 00.146.598.544.544 0 00.364.14.54.54 0 00.244-.058l3.927-1.963a.546.546 0 00.244-.244l3.831-7.663 4.428-1.65a2.488 2.488 0 001.36-1.358 2.492 2.492 0 000-1.92z" fill-rule="evenodd"/></svg>