<svg viewBox="0 0 24 24"><path d="M15.629 21.412c-4.115 0-6.594-.873-6.714-1.315v-1.44c1.634.805 4.667 1.057 6.714 1.057 2.047 0 5.081-.252 6.714-1.057v1.434c-.12.448-2.599 1.32-6.714 1.32zM1.143 16.374v-1.44c1.612.794 4.583 1.049 6.629 1.055v1.697c-4.063-.014-6.511-.874-6.629-1.312zM7.858 1.095c4.113 0 6.593.873 6.714 1.308-.12.448-2.6 1.32-6.714 1.32-4.114 0-6.592-.871-6.715-1.306v-.001c.123-.45 2.603-1.321 6.715-1.321zm14.485 13.41c-.12.448-2.599 1.321-6.714 1.321-4.113 0-6.592-.872-6.714-1.307.122-.45 2.6-1.322 6.714-1.322 4.115 0 6.594.873 6.714 1.308zm-21.2-2.365c1.633.806 4.668 1.057 6.715 1.057.318 0 .665-.007 1.024-.02-.677.34-1.11.776-1.11 1.335v.38c-4.063-.011-6.511-.873-6.629-1.311v-1.44zm6.715-1.735c2.046 0 5.08-.252 6.714-1.057v1.433c-.12.448-2.6 1.321-6.714 1.321-4.116 0-6.595-.873-6.715-1.314v-1.44c1.633.805 4.668 1.057 6.715 1.057zm0-2.793c2.046 0 5.08-.252 6.714-1.057v1.433c-.12.448-2.598 1.321-6.714 1.321s-6.596-.873-6.715-1.314v-1.44c1.633.805 4.668 1.057 6.715 1.057zm6.714-3.85v1.434c-.12.448-2.6 1.32-6.714 1.32-4.116 0-6.595-.872-6.715-1.314v-1.44c1.633.805 4.668 1.057 6.715 1.057 2.046 0 5.08-.252 6.714-1.057zm7.771 13.536c-.119.448-2.598 1.32-6.714 1.32s-6.595-.872-6.714-1.313v-1.44c1.634.804 4.667 1.056 6.714 1.056 2.047 0 5.081-.252 6.714-1.057v1.434zm-6.63-5.195v-.999c0-.048-.015-.092-.028-.137.01-.06.03-.117.03-.18V2.41C15.715.508 10.775 0 7.857 0 4.94 0 0 .509 0 2.41v13.965c0 1.885 4.844 2.4 7.772 2.408v1.315c0 1.903 4.938 2.41 7.857 2.41 2.919 0 7.857-.507 7.857-2.41v-5.585c0-1.885-4.845-2.399-7.772-2.409z" fill-rule="evenodd"/></svg>