<svg viewBox="0 0 24 24"><g fill-rule="evenodd"><path d="M12 23C5.935 23 1 18.065 1 12S5.935 1 12 1s11 4.935 11 11-4.935 11-11 11m0-23C5.373 0 0 5.373 0 12s5.373 12 12 12 12-5.373 12-12S18.627 0 12 0"/><path d="M10.113 12.846H8.5a.5.5 0 010-1h1.325c-.517-2.105-.237-3.87.803-4.916.92-.925 2.335-1.174 3.88-.683a.5.5 0 01-.302.953c-1.194-.381-2.212-.225-2.869.435-.823.829-.992 2.348-.479 4.21h2.452a.5.5 0 010 1h-2.168c.384 1.802-.338 3.203-1.195 4.105h5.2a.5.5 0 010 1H8.5a.5.5 0 01-.236-.941c.108-.059 2.58-1.425 1.849-4.163z"/></g></svg>