<svg viewBox="0 0 24 24"><path d="M1.062 22.194c0 .41.334.744.743.744h15.096c.41 0 .743-.334.743-.744v-4.491c0-.409.444-.664.798-.46a2.997 2.997 0 101.498-5.594c-.535 0-1.047.14-1.499.4a.53.53 0 01-.796-.46V7.1a.745.745 0 00-.744-.745h-4.49a.53.53 0 01-.46-.797 2.998 2.998 0 10-5.195 0 .53.53 0 01-.46.797h-4.49a.745.745 0 00-.744.745v3.513a4.118 4.118 0 01.45-.025 4.058 4.058 0 110 8.118 4.118 4.118 0 01-.45-.024v3.513zm18.877-11.607a4.058 4.058 0 110 8.118 4.06 4.06 0 01-1.233-.19v3.679c0 .996-.809 1.806-1.805 1.806H1.805C.81 24 0 23.19 0 22.194v-4.158c0-.353.34-.608.679-.51a2.996 2.996 0 10.833-5.877c-.287 0-.566.04-.833.117a.53.53 0 01-.679-.51V7.1c0-.997.809-1.807 1.805-1.807h3.68a4.06 4.06 0 01-.191-1.232 4.06 4.06 0 117.929 1.233H16.9c.997 0 1.805.809 1.805 1.806v3.679a4.062 4.062 0 011.233-.19z"/></svg>