<svg viewBox="0 0 24 24"><path d="M23.112 5.084a1.295 1.295 0 01.452 2.198l-4.773 4.243-4.794 4.26a1.295 1.295 0 01-2.124-.686l-.53-2.365a.25.25 0 00-.356-.174c-3.264 1.647-6.648 5.27-8.288 10.32-.418 1.29-2.298 1.167-2.506-.18-.967-6.192 1.62-12.25 9.694-16.879a.258.258 0 00.13-.273l-.67-2.966a1.295 1.295 0 011.672-1.514l6.032 2.004 6.06 2.012zM10.689 2.058a.252.252 0 00-.325.294l.67 2.966a1.3 1.3 0 01-.628 1.408C2.723 11.13.321 16.758 1.223 22.54c.039.25.401.275.484.019 1.732-5.332 5.31-9.165 8.81-10.93a1.292 1.292 0 011.844.877l.53 2.366c.042.187.27.261.414.133l4.793-4.26 4.774-4.243a.252.252 0 00-.089-.428l-6.06-2.013-6.034-2.003z"/></svg>