<svg viewBox="0 0 24 24"><g fill-rule="evenodd"><path d="M11.823 23.04c-3.718 0-6.747-2.973-6.853-6.665.582.202 1.5.424 2.783.424.541 0 1.112-.144 1.716-.298.697-.176 1.486-.376 2.345-.376 1.041 0 1.856.192 2.574.363.626.146 1.214.287 1.825.263 1.133-.046 1.94-.226 2.464-.392-.098 3.7-3.132 6.681-6.854 6.681M10.112 9.528l.36-.093V2.18h2.702v7.255l.361.093c2.767.71 4.752 3.052 5.083 5.838-.398.15-1.188.375-2.444.425-.479.018-.98-.1-1.566-.238-.769-.182-1.64-.388-2.794-.388-.98 0-1.83.215-2.58.406-.569.143-1.06.268-1.481.268-1.4 0-2.301-.29-2.725-.467.329-2.788 2.315-5.134 5.084-5.844M9.992.96h3.662a.13.13 0 01.13.13.13.13 0 01-.13.13H9.992a.13.13 0 01-.13-.13.13.13 0 01.13-.13m4.142 7.74V2.069A1.09 1.09 0 0013.654 0H9.992a1.091 1.091 0 00-.48 2.069v6.63A7.818 7.818 0 004 16.178C4 20.49 7.51 24 11.823 24c4.314 0 7.823-3.51 7.823-7.823a7.82 7.82 0 00-5.512-7.478"/><path d="M10.931 20.366a.635.635 0 01-.9-.032.634.634 0 01-.17-.457.633.633 0 01.205-.444.63.63 0 01.432-.168.636.636 0 01.467.202.638.638 0 01-.034.9m-1.518-1.638a1.597 1.597 0 012.171 2.34 1.591 1.591 0 01-1.086.427 1.593 1.593 0 01-1.17-.51 1.583 1.583 0 01-.425-1.146 1.588 1.588 0 01.51-1.11zm4.82-1.398c.25-.002.499.083.689.26a.97.97 0 01.05 1.356.964.964 0 01-.675.303c-.501.019-.973-.419-.991-.92a.96.96 0 01.26-.688.97.97 0 01.666-.311z"/></g></svg>