<svg viewBox="0 0 24 24"><g fill-rule="evenodd"><path d="M23 12.594a.669.669 0 01-.458.636l-1.603.534a2.363 2.363 0 00-1.435 1.35 2.352 2.352 0 00.064 1.959l.756 1.51a.669.669 0 01-.126.775l-.84.84a.668.668 0 01-.774.125l-1.51-.754a2.357 2.357 0 00-1.975-.06 2.355 2.355 0 00-1.335 1.43l-.534 1.602a.67.67 0 01-.636.459h-1.188a.669.669 0 01-.636-.46l-.535-1.601a2.358 2.358 0 00-1.349-1.435 2.371 2.371 0 00-.912-.182c-.361 0-.72.082-1.048.247l-1.51.754a.667.667 0 01-.774-.125l-.841-.841a.667.667 0 01-.125-.773l.756-1.511a2.365 2.365 0 00.058-1.974 2.355 2.355 0 00-1.429-1.335l-1.603-.534A.669.669 0 011 12.594v-1.188c0-.29.185-.544.458-.636l1.603-.533a2.37 2.37 0 001.435-1.351 2.358 2.358 0 00-.064-1.96l-.756-1.511a.666.666 0 01.126-.773l.84-.84a.669.669 0 01.774-.126l1.51.756a2.371 2.371 0 001.975.058 2.353 2.353 0 001.334-1.43l.535-1.602A.67.67 0 0111.406 1h1.188a.67.67 0 01.636.458l.534 1.603a2.363 2.363 0 001.35 1.435c.636.263 1.35.24 1.96-.064l1.51-.756a.67.67 0 01.774.126l.84.84a.668.668 0 01.126.773l-.756 1.51a2.364 2.364 0 00-.058 1.976 2.362 2.362 0 001.429 1.336l1.602.532a.673.673 0 01.459.637v1.188zm-.143-2.773l-1.601-.533a1.37 1.37 0 01-.829-.787 1.355 1.355 0 01.036-1.128l.755-1.51a1.665 1.665 0 00-.313-1.928l-.84-.84a1.667 1.667 0 00-1.928-.314l-1.51.756c-.35.175-.763.19-1.145.029a1.357 1.357 0 01-.77-.822l-.534-1.602A1.667 1.667 0 0012.594 0h-1.188a1.67 1.67 0 00-1.585 1.142l-.534 1.602c-.123.37-.404.67-.785.829a1.358 1.358 0 01-1.128-.036L5.863 2.78a1.667 1.667 0 00-1.928.314l-.84.839a1.667 1.667 0 00-.313 1.929l.755 1.51c.175.35.188.762.029 1.145a1.356 1.356 0 01-.821.769l-1.603.535A1.667 1.667 0 000 11.406v1.188c0 .72.459 1.357 1.142 1.585l1.603.534c.37.123.67.403.828.785.152.367.139.778-.036 1.128l-.755 1.51a1.665 1.665 0 00.313 1.929l.839.84a1.67 1.67 0 001.929.313l1.511-.755a1.36 1.36 0 011.144-.03c.365.152.646.45.769.822l.534 1.603A1.671 1.671 0 0011.406 24h1.188c.72 0 1.357-.46 1.584-1.142l.534-1.603c.124-.371.405-.67.786-.827a1.347 1.347 0 011.128.035l1.511.755a1.668 1.668 0 001.928-.313l.84-.84c.51-.51.636-1.284.313-1.928l-.755-1.511a1.363 1.363 0 01-.029-1.144c.151-.366.451-.646.821-.77l1.603-.533A1.67 1.67 0 0024 12.594v-1.188a1.67 1.67 0 00-1.143-1.585z"/><path d="M12 15.719c-2.051 0-3.72-1.668-3.72-3.72S9.949 8.282 12 8.282 15.719 9.949 15.719 12 14.051 15.719 12 15.719m0-8.438A4.725 4.725 0 007.28 12 4.725 4.725 0 0012 16.719a4.724 4.724 0 004.719-4.72A4.724 4.724 0 0012 7.282"/></g></svg>