<svg viewBox="0 0 24 24"><g fill-rule="evenodd"><path d="M22.101 7.11c-.245.27-.687.273-.986.005l-5.488-4.929c-.299-.268-.343-.709-.099-.98a.622.622 0 01.44-.205h.037c.185 0 .364.07.508.2l5.488 4.928a.754.754 0 01.257.522.63.63 0 01-.157.458zm-8.854 7.947l-.02-.03c-.006.003-.54.348-1.69.295-.363-.013-.637-.097-.984-.202-.453-.138-1.016-.31-1.907-.336-.978-.019-1.47.126-1.86.252-.279.09-.479.154-.842.14a5.115 5.115 0 01-1.1-.154L15.371 3.3l4.67 4.194-6.794 7.563zm-5.774 6.43c-.56.624-1.33.992-2.167 1.037a3.123 3.123 0 01-2.265-.799 3.14 3.14 0 01-.237-4.43l1.304-1.455c.401.152.994.307 1.8.335.537.007.865-.087 1.182-.187.351-.112.715-.219 1.527-.204.756.021 1.208.16 1.644.293.367.111.746.226 1.238.245a5.643 5.643 0 00.622-.011l-4.648 5.176zM22.67 5.384L17.182.456a1.774 1.774 0 00-1.269-.454 1.618 1.618 0 00-1.129.536c-.513.57-.535 1.413-.115 2.047L2.06 16.626a4.111 4.111 0 00-1.053 2.986 4.11 4.11 0 001.367 2.857 4.107 4.107 0 002.987 1.054 4.117 4.117 0 002.857-1.368l12.61-14.04c.253.128.524.2.796.2a1.618 1.618 0 001.633-1.718 1.744 1.744 0 00-.587-1.213z"/><path d="M11.143 12.804a.664.664 0 01-.937-.035.655.655 0 01-.176-.476.657.657 0 01.211-.462.663.663 0 011.113.511.66.66 0 01-.21.462m-.39-2.148c-.45.003-.867.14-1.193.442a1.658 1.658 0 00-.53 1.157 1.66 1.66 0 002.793 1.281c.324-.3.513-.712.53-1.156a1.644 1.644 0 00-.443-1.193 1.648 1.648 0 00-1.157-.53m2.978-1.27a1.261 1.261 0 00-.065 1.765c.229.247.543.382.878.394.653.025 1.267-.545 1.29-1.198a1.258 1.258 0 00-.336-.896 1.263 1.263 0 00-.87-.405 1.297 1.297 0 00-.897.34"/></g></svg>