<svg viewBox="0 0 24 24"><path d="M20.687 5.402L19.23 3.947l2.454-1.704.782.78-1.78 2.38zM4.06 21.912a.883.883 0 01-.628.261H3.43a.88.88 0 01-.626-.26.88.88 0 01-.26-.627.88.88 0 01.26-.627l5.801-5.803.585.583c.013.018.019.038.035.054.015.015.035.02.052.034l.583.583-5.801 5.802zM23.523 2.604a.523.523 0 01.049.682l-2.41 3.224a.524.524 0 01-.38.208l-.038.001a.522.522 0 01-.37-.153l-.741-.742-9.292 9.29 1.622 1.623a.522.522 0 01-.37.89.517.517 0 01-.367-.153l-.627-.626-5.801 5.802a1.92 1.92 0 01-1.366.567H3.43a1.91 1.91 0 01-1.363-.568 1.91 1.91 0 01-.565-1.363c0-.514.2-1 .566-1.365l5.802-5.803-.626-.627a.52.52 0 010-.737.522.522 0 01.737 0l1.623 1.623 9.29-9.291-.843-.842a.52.52 0 01-.15-.415.52.52 0 01.22-.382l3.326-2.31a.522.522 0 01.667.059l1.409 1.408zM6.61 9.408a4.243 4.243 0 01-4.36-1.022 4.232 4.232 0 01-.913-4.658.52.52 0 01.376-.308.508.508 0 01.466.134l1.788 1.714h1.291V4.06L3.503 2.23a.519.519 0 01-.134-.465.524.524 0 01.308-.377C5.284.708 7.056 1.06 8.3 2.3a4.26 4.26 0 011.04 4.36l3.28 3.28-.738.737-3.517-3.515a.522.522 0 01-.112-.572 3.226 3.226 0 00-.69-3.552c-.742-.74-1.73-1.06-2.71-.91l1.304 1.36a.522.522 0 01.145.362v1.94a.521.521 0 01-.522.521H3.758a.53.53 0 01-.362-.144L2.08 4.906a3.213 3.213 0 004.457 3.416.52.52 0 01.572.11l3.518 3.512-.737.738-3.28-3.274zm11.276 5.808a4.26 4.26 0 014.366 1.038 4.262 4.262 0 01.913 4.693.52.52 0 01-.37.306.523.523 0 01-.465-.126l-1.872-1.728h-1.152v1.144l1.764 1.832a.521.521 0 01.135.467.52.52 0 01-.307.376 4.305 4.305 0 01-1.677.34 4.255 4.255 0 01-3.018-1.253 4.258 4.258 0 01-1.04-4.357l-3.134-3.075.73-.744 3.376 3.313a.521.521 0 01.115.575 3.223 3.223 0 00.69 3.55 3.226 3.226 0 002.778.909l-1.31-1.36a.517.517 0 01-.145-.36v-1.879a.52.52 0 01.521-.522h1.879c.13 0 .257.05.353.14l1.405 1.295a3.22 3.22 0 00-.908-2.799 3.226 3.226 0 00-3.549-.69.52.52 0 01-.566-.106l-3.369-3.259.725-.749 3.132 3.03z" fill-rule="evenodd"/></svg>