<svg viewBox="0 0 24 24"><g fill-rule="evenodd"><path d="M19.984 22.157c-.298.553-.851.883-1.48.883H5.646c-.628 0-1.18-.33-1.48-.884a1.658 1.658 0 01.077-1.721l2.14-3.247c.537-.078 2.065-.286 3.199-.286.855 0 1.752.224 2.619.44.878.22 1.786.446 2.672.446 1.176 0 2.383-.3 2.98-.471l2.055 3.118c.345.525.374 1.168.076 1.722zM10.395 11.1V2.4h3.36v8.7l3.541 5.373c-.599.155-1.536.355-2.424.355-.767 0-1.579-.203-2.439-.417-.924-.231-1.878-.47-2.851-.47-.808 0-1.773.098-2.5.186l3.313-5.027zM9.915.96h4.32a.24.24 0 010 .48h-4.32a.24.24 0 01-.24-.24.24.24 0 01.24-.24zm10.794 18.946l-5.994-9.093V2.296c.422-.186.72-.606.72-1.097a1.2 1.2 0 00-1.2-1.2h-4.32c-.661 0-1.2.538-1.2 1.2 0 .49.298.911.72 1.097v8.516l-5.993 9.093a2.605 2.605 0 00-.12 2.706A2.604 2.604 0 005.646 24h12.858c.988 0 1.857-.52 2.324-1.388.47-.87.425-1.88-.119-2.706z"/><path d="M14.153 21.07a.636.636 0 01-.9.034.638.638 0 01-.034-.9.634.634 0 01.468-.202.628.628 0 01.432.169.634.634 0 01.203.442.633.633 0 01-.169.457m-1.638-1.518a1.6 1.6 0 012.257-.085c.312.29.494.684.51 1.11a1.585 1.585 0 01-.425 1.146 1.595 1.595 0 01-1.171.51 1.596 1.596 0 01-1.085-.424 1.59 1.59 0 01-.51-1.112 1.587 1.587 0 01.424-1.145zm-2.457-1.886a.99.99 0 01.69.26.965.965 0 01.05 1.357.964.964 0 01-.675.302c-.502.02-.973-.42-.991-.92a.962.962 0 01.26-.689c.17-.182.408-.3.666-.31z"/></g></svg>