<svg viewBox="0 0 24 24"><g fill-rule="evenodd"><path d="M17.898 16.513c0 .517-.42.937-.937.937H7.938A.938.938 0 017 16.513V7.49c0-.517.42-.938.938-.938h9.023c.517 0 .937.42.937.938v9.023zM15.553 23H9.405a.944.944 0 01-.938-.958c-.076-1.892-.176-2.967-.29-3.592h8.596c-.09.594-.186 1.653-.283 3.613 0 .516-.42.937-.937.937zM9.343 1h6.15c.517 0 .937.42.938.958.076 1.894.176 2.97.29 3.594H8.125c.089-.594.186-1.652.282-3.614 0-.517.42-.938.937-.938zm8.19 4.649l.042-.102a.4.4 0 01.209.179c-.136-.31-.29-2.218-.354-3.788A1.94 1.94 0 0015.493 0h-6.15C8.277 0 7.408.869 7.408 1.913c-.08 1.616-.23 3.53-.334 3.852A1.934 1.934 0 006 7.49v9.023c0 .867.576 1.594 1.363 1.84l-.041.1a.4.4 0 01-.21-.177c.138.309.292 2.217.356 3.787A1.94 1.94 0 009.405 24h6.148c1.068 0 1.937-.87 1.937-1.913.079-1.613.229-3.525.334-3.85a1.932 1.932 0 001.074-1.724V7.49c0-.868-.577-1.595-1.364-1.841z"/><path d="M14.73 9.192a.498.498 0 00-.682.192l-1.772 3.17h-1.863a.5.5 0 000 1h2.156a.498.498 0 00.437-.256l1.916-3.425a.5.5 0 00-.192-.68"/></g></svg>