<svg xmlns="http://www.w3.org/2000/svg" width="24" height="24" fill="none" viewBox="0 0 24 24"><path fill="currentcolor" fill-rule="evenodd" d="M16 3.666h2.667c.737 0 1.333.747 1.333 1.667V6.5a.5.5 0 0 1-.5.5h-15a.5.5 0 0 1-.5-.5V5.333c0-.92.597-1.667 1.334-1.667H8A2.652 2.652 0 0 1 10.462 2h3.077A2.65 2.65 0 0 1 16 3.666ZM5.55 8a.5.5 0 0 0-.498.547L6 18.5S6 22 12 22s6-3.5 6-3.5l.948-9.953A.5.5 0 0 0 18.45 8H5.55ZM11 17.5v-6a.5.5 0 0 0-.5-.5h-1a.5.5 0 0 0-.5.5v6a.5.5 0 0 0 .5.5h1a.5.5 0 0 0 .5-.5Zm4-6v6a.5.5 0 0 1-.5.5h-1a.5.5 0 0 1-.5-.5v-6a.5.5 0 0 1 .5-.5h1a.5.5 0 0 1 .5.5Z" clip-rule="evenodd"/></svg>