<svg xmlns="http://www.w3.org/2000/svg" width="24" height="24" fill="none" viewBox="0 0 24 24"><path fill="currentcolor" fill-rule="evenodd" d="M4.974 3h5.447a.58.58 0 0 1 .579.575v1.85a.573.573 0 0 1-.579.575H4.58a.582.582 0 0 1-.563-.44.571.571 0 0 1-.003-.254l.394-1.85A.574.574 0 0 1 4.974 3Zm14.586.448.425 1.849a.566.566 0 0 1-.113.486.582.582 0 0 1-.456.217h-5.832a.589.589 0 0 1-.413-.169.57.57 0 0 1-.171-.406v-1.85a.57.57 0 0 1 .171-.406.589.589 0 0 1 .413-.169h5.406a.59.59 0 0 1 .365.126.574.574 0 0 1 .205.322ZM3.614 7.467l-.601 2.822a.588.588 0 0 0 .574.711h6.822a.592.592 0 0 0 .591-.59V7.59a.589.589 0 0 0-.591-.59H4.192a.59.59 0 0 0-.578.467Zm-1.6 8.644.677-3.527a.751.751 0 0 1 .231-.42.624.624 0 0 1 .419-.164h6.994c.176 0 .345.078.47.216a.78.78 0 0 1 .195.52v3.527a.78.78 0 0 1-.195.521.634.634 0 0 1-.47.216H2.66a.613.613 0 0 1-.284-.073.681.681 0 0 1-.229-.202.772.772 0 0 1-.129-.29.815.815 0 0 1-.004-.324ZM19.766 7h-6.174a.592.592 0 0 0-.592.59v2.82a.588.588 0 0 0 .592.59h6.816a.592.592 0 0 0 .577-.72l-.642-2.825A.59.59 0 0 0 19.766 7Zm-6.1 5h6.946c.15 0 .296.056.414.16a.75.75 0 0 1 .235.41l.723 3.53a.814.814 0 0 1 0 .328.774.774 0 0 1-.13.295.682.682 0 0 1-.231.204.613.613 0 0 1-.288.073h-7.67a.635.635 0 0 1-.47-.216.78.78 0 0 1-.195-.52v-3.527a.78.78 0 0 1 .195-.521.635.635 0 0 1 .47-.216ZM13 20h3.605c.221 0 .4.18.4.4a1.6 1.6 0 0 1-1.6 1.6H8.6A1.6 1.6 0 0 1 7 20.4c0-.22.18-.4.4-.4H11v-1.5a.5.5 0 0 1 .5-.5h1a.5.5 0 0 1 .5.5V20Z" clip-rule="evenodd"/></svg>