<svg viewBox="0 0 24 24"><g fill-rule="evenodd"><path d="M8.927 7.058c-3.418-1.323-6.128-1.582-6.78-.452-.653 1.131.927 3.349 3.78 5.646a32.345 32.345 0 012.672-1.92c.06-1.162.17-2.262.328-3.274m8.996 5.194a31.806 31.806 0 01-2.671 1.921 31.773 31.773 0 01-.328 3.273c3.418 1.323 6.128 1.584 6.781.453s-.927-3.349-3.782-5.647"/><path d="M17.923 12.252c2.855-2.298 4.435-4.515 3.782-5.646-.653-1.13-3.363-.87-6.781.453a31.82 31.82 0 01.328 3.273 32.01 32.01 0 012.67 1.92"/><path d="M15.252 10.332a37.002 37.002 0 00-1.637-1.006 37.308 37.308 0 00-1.69-.915c-.557.285-1.12.587-1.689.915-.568.328-1.111.665-1.637 1.006a37.788 37.788 0 00-.052 1.92c0 .657.02 1.296.052 1.921.526.34 1.069.678 1.637 1.006.569.328 1.132.63 1.69.915a37.308 37.308 0 001.69-.915 37.954 37.954 0 001.636-1.006c.033-.625.053-1.264.053-1.92 0-.657-.02-1.296-.053-1.92M5.928 12.252C3.074 14.55 1.493 16.768 2.146 17.9c.653 1.13 3.364.87 6.782-.453a32.053 32.053 0 01-.329-3.273 31.968 31.968 0 01-2.67-1.92"/><path d="M8.927 17.446c.563 3.621 1.693 6.1 2.999 6.1 1.305 0 2.436-2.479 2.998-6.1a32.241 32.241 0 01-2.998-1.352 32.305 32.305 0 01-2.999 1.352m5.997-10.388C14.362 3.438 13.231.96 11.925.96 10.62.96 9.49 3.438 8.927 7.058c.954.37 1.963.824 2.998 1.353a32.414 32.414 0 013-1.353"/></g></svg>