<svg viewBox="0 0 24 24"><path d="M18.636 21.065a.72.72 0 01-.724.615.676.676 0 01-.09-.006c-.4-.047-.685-.395-.636-.779l.675-5.267c.049-.383.41-.656.814-.609.4.047.684.396.635.78l-.674 5.266zm-4.026-.022a.718.718 0 01-.728.651.874.874 0 01-.051-.002c-.403-.027-.707-.36-.678-.747l.386-5.293c.028-.386.364-.673.78-.649.402.027.706.361.677.747l-.386 5.293zm-4.466.65a.874.874 0 01-.05.001.718.718 0 01-.73-.65L8.98 15.75c-.028-.386.275-.72.678-.747.402-.026.751.263.78.65l.386 5.292c.028.386-.276.72-.679.747zm-3.991-.019a.688.688 0 01-.09.006.72.72 0 01-.724-.615l-.675-5.267c-.05-.383.236-.732.636-.779a.717.717 0 01.814.61l.674 5.266a.705.705 0 01-.635.78zM.001 10.501h24v2.5h-1.045l-2.087 11H3.13l-2.087-11H.001v-2.5zM3.13 8c-.268 0-.535-.098-.738-.293a.97.97 0 010-1.414l6.26-6a1.075 1.075 0 011.476 0 .97.97 0 010 1.414l-6.261 6c-.203.195-.47.293-.738.293zm17-.293l-6.26-6c-.408-.391-.408-1.023 0-1.414s1.067-.391 1.475 0l6.261 6a.97.97 0 010 1.414c-.203.195-.47.293-.738.293-.267 0-.534-.098-.737-.293z" fill-rule="evenodd"/></svg>