<svg viewBox="0 0 24 24"><path d="M1.82 20.753a6.175 6.175 0 01-1.814-4.679c.08-1.937 1.013-3.851 2.698-5.536l7.455-7.455a1.06 1.06 0 011.498 0 1.059 1.059 0 010 1.498l-7.454 7.454c-2.8 2.8-2.461 5.644-.885 7.22 1.575 1.575 4.54 2.003 7.323-.78l9.759-9.76c1.198-1.2 1.705-2.565 1.387-3.748a2.443 2.443 0 00-1.745-1.758c-1.163-.313-2.524.203-3.734 1.414l-9.011 9.01c-1.331 1.332-1.518 2.325-1.417 2.7.03.111.085.221.289.275.543.145 1.601-.22 2.743-1.36l6.705-6.706a1.059 1.059 0 011.499 0 1.06 1.06 0 010 1.497l-6.707 6.707c-1.599 1.6-3.345 2.295-4.788 1.908-.898-.241-1.55-.887-1.787-1.773-.373-1.394.344-3.124 1.965-4.746l9.011-9.01c1.76-1.76 3.867-2.475 5.78-1.963a4.558 4.558 0 013.244 3.256c.518 1.934-.189 4.047-1.936 5.794l-9.76 9.76c-3.642 3.642-7.948 3.15-10.317.781" fill-rule="evenodd"/></svg>