<svg viewBox="0 0 24 24"><path d="M19.032 7.51a1.797 1.797 0 11-2.542-2.54 1.797 1.797 0 012.542 2.54zm-5.207 9.952a1.17 1.17 0 01-.832.345 1.17 1.17 0 01-.833-.345l-5.621-5.621a1.177 1.177 0 010-1.666 1.177 1.177 0 011.665 0l5.621 5.621c.46.46.46 1.207 0 1.666zm-3.261 3.262a1.175 1.175 0 01-.833.345 1.175 1.175 0 01-.833-.345l-5.621-5.621a1.177 1.177 0 111.666-1.666l5.62 5.621c.461.46.461 1.205 0 1.666zM23.342 2.406A1.951 1.951 0 0021.595.66L15.169.01a1.954 1.954 0 00-1.577.562L.572 13.592a1.952 1.952 0 000 2.761l7.075 7.076a1.956 1.956 0 002.762 0l13.02-13.02a1.955 1.955 0 00.562-1.578l-.65-6.425z" fill-rule="evenodd"/></svg>