<svg viewBox="0 0 24 24"><path d="M16.462 9.178H5.644a.5.5 0 110-1h10.818a.5.5 0 010 1zM5.144 11.741a.5.5 0 01.5-.5h5.863a.5.5 0 010 1H5.644a.499.499 0 01-.5-.5zm11.318 3.564H5.644a.5.5 0 110-1h10.818a.5.5 0 010 1zm-4.955 3.063H5.644a.499.499 0 01-.5-.5.5.5 0 01.5-.5h5.863a.5.5 0 010 1zM5.644 5.115h5.863a.5.5 0 110 1H5.644a.5.5 0 110-1zm13.474-1.164l1.956.103v18.311A1.64 1.64 0 0119.439 24H3.635C2.735 24 2 23.264 2 22.365V1.638c0-.9.735-1.636 1.635-1.636h13.536l-.088 1.69a2.156 2.156 0 002.035 2.26zM17.765 0l3.306 3.49-1.87-.096A1.616 1.616 0 0117.675 1.7l.09-1.7z" fill-rule="evenodd"/></svg>