<svg viewBox="0 0 24 24"><path d="M18.522 19.356h-2.41V10.57a.236.236 0 00-.154-.224L11.71 7.272l5.117.826a2.666 2.666 0 011.695 2.472v8.786zm-2.932-7.54v4.572c-1.084.2-2.3.315-3.59.315-4.492 0-8.134-1.359-8.134-3.034v-3.361l7.409 2.658c.31.11.648.113.96.006l3.356-1.157zm3.454-1.19l1.09-.376v3.419c0 .55-.4 1.066-1.09 1.512v-4.555zm4.86-2.498a.148.148 0 01.088.09.146.146 0 01-.09.183l-4.896 1.687a3.19 3.19 0 00-1.99-2.477.452.452 0 00-.105-.027l-5.117-.827a.463.463 0 00-.085-.007.521.521 0 00-.305.944l4.187 3.03v.54l-3.357 1.157a1.446 1.446 0 01-.96-.006L.096 8.403a.141.141 0 01-.086-.088.144.144 0 01.087-.184L11.52 4.083a1.448 1.448 0 01.967 0l11.416 4.045z" fill-rule="evenodd"/></svg>