<svg viewBox="0 0 24 24"><path d="M22.455 22.274h.992c.305 0 .553.248.553.553a.553.553 0 01-.553.553H.553A.552.552 0 010 22.827c0-.305.247-.553.553-.553h2.533a.6.6 0 010-.059l.122-3.401a.59.59 0 01.59-.569h1.806a.59.59 0 01.59.612l-.124 3.402a.601.601 0 01-.001.015H8.53a.599.599 0 01-.001-.047l.145-7.985a.59.59 0 01.59-.579h1.805c.33 0 .596.271.59.6l-.144 7.985a.603.603 0 01-.001.026h2.483a.597.597 0 01-.001-.044l.151-12.81a.59.59 0 01.59-.584h1.806c.328 0 .594.27.59.598l-.152 12.81a.597.597 0 01-.001.03h2.49a.597.597 0 01-.001-.041l.157-19.35a.589.589 0 01.59-.586h1.806a.59.59 0 01.59.595l-.157 19.35a.6.6 0 01-.001.032zm-6.7-21.82a.533.533 0 01.036.183v2.484a.552.552 0 01-.553.553.553.553 0 01-.553-.553V1.983L2.052 14.766a.548.548 0 01-.393.165.551.551 0 01-.39-.16.553.553 0 01-.004-.783l12.69-12.84-1.255-.041a.553.553 0 01-.534-.57c.01-.305.235-.564.57-.535l2.521.083c.009 0 .016.007.024.008a.542.542 0 01.24.08.609.609 0 01.056.037c.074.059.136.13.172.218.001.002.004.002.004.004.002.007 0 .015.002.021z" fill-rule="evenodd"/></svg>