<svg viewBox="0 0 24 24"><path d="M22.856 22.303h-.973V8.863a.364.364 0 00-.364-.364h-2.141a.364.364 0 00-.365.364v13.44h-3.109v-4.755a.363.363 0 00-.364-.363h-2.142a.364.364 0 00-.364.363v4.755h-3.11V18.43a.364.364 0 00-.364-.364H7.42a.364.364 0 00-.363.364v3.874h-.957a.545.545 0 00-.546.546.545.545 0 00.546.545h16.757a.546.546 0 00.546-.545.546.546 0 00-.546-.546M4.197 5.773l-1.17 1.399c.285-2.847 2.559-5.08 5.345-5.08 2.979 0 5.402 2.545 5.402 5.672 0 3.128-2.423 5.672-5.402 5.672a.546.546 0 00-.546.545.545.545 0 00.546.546c3.58 0 6.493-3.034 6.493-6.763 0-3.73-2.913-6.763-6.493-6.763C5.055 1 2.316 3.605 1.93 6.953l-.924-1.45a.545.545 0 00-.753-.166.544.544 0 00-.168.753l1.879 2.945c.009.014.025.02.035.034a.528.528 0 00.109.106c.023.016.044.033.069.046.048.025.1.038.156.048.02.003.036.016.056.017a.535.535 0 00.257-.048c.018-.009.033-.023.05-.034a.537.537 0 00.129-.098c.005-.006.013-.009.018-.014l2.192-2.618a.547.547 0 00-.069-.768.548.548 0 00-.769.067" fill-rule="evenodd"/></svg>