<svg viewBox="0 0 24 24"><path d="M0 15.38c0-.382.204-.734.535-.926l4.113-2.375a1.072 1.072 0 011.07 0l4.114 2.375c.33.192.535.544.535.927v4.75a1.07 1.07 0 01-.535.926l-4.114 2.376a1.072 1.072 0 01-1.07 0L.535 21.057A1.07 1.07 0 010 20.132V15.38zm13.633 0c0-.382.204-.734.534-.926l4.114-2.375a1.07 1.07 0 011.07 0l4.114 2.375c.33.192.535.544.535.927v4.75c0 .381-.204.736-.535.926l-4.115 2.376a1.07 1.07 0 01-1.069 0l-4.114-2.376a1.072 1.072 0 01-.534-.925V15.38zM6.816 3.445c0-.381.204-.735.535-.925L11.465.143a1.072 1.072 0 011.07 0l4.113 2.376c.331.19.535.544.535.925v4.751c0 .382-.204.735-.535.927l-4.113 2.375a1.072 1.072 0 01-1.07 0L7.35 9.122a1.072 1.072 0 01-.535-.927v-4.75z" fill-rule="evenodd"/></svg>