<svg viewBox="0 0 24 24"><path d="M16.287 16.818S21.6 13.933 22.593 14s1.407.115 1.407.115-8.192 7.259-9.928 7.537c-1.739.277-8.65-.965-8.65-.965l-2.709 2.048L0 18.542s4.556-3.48 6.872-3.728c2.317-.249 6.992 1.448 6.992 1.448s.185.992-.507 1.324c-.692.331-4.451.656-4.451.656 2.658.551 5.146.244 7.38-1.424M13.53 8.104a1.705 1.705 0 01-.888.57c-.154.042-.224.124-.216.284.006.156-.001.315-.001.472 0 .14-.071.215-.21.219-.169.004-.34.004-.509.001-.149-.003-.218-.088-.22-.232l-.002-.346c-.004-.253-.011-.263-.256-.303a3.202 3.202 0 01-.905-.26c-.225-.11-.249-.165-.184-.4.049-.176.097-.35.15-.525.064-.2.119-.225.304-.129.317.164.654.256 1.005.3.228.029.45.006.66-.086.392-.172.452-.626.121-.899a1.539 1.539 0 00-.374-.22c-.344-.152-.703-.267-1.027-.462-.527-.315-.862-.748-.822-1.39.043-.723.454-1.176 1.118-1.417.274-.1.276-.095.277-.382.001-.098-.001-.195.001-.291.007-.216.043-.254.257-.26h.2c.458 0 .458 0 .459.457.002.325.002.326.324.376.248.04.484.112.713.213.125.056.173.143.134.276-.059.198-.111.397-.175.593-.06.185-.119.212-.297.126a2.283 2.283 0 00-1.128-.223.866.866 0 00-.3.062c-.342.15-.397.527-.106.759a2 2 0 00.49.275c.302.124.606.246.893.404.914.505 1.16 1.653.514 2.438M12 0a6 6 0 100 12 6 6 0 000-12" fill-rule="evenodd"/></svg>