<svg viewBox="0 0 24 24"><path d="M20.31 19.973a.627.627 0 01-.626-.627.628.628 0 011.254 0 .627.627 0 01-.627.627m2.46-10.227c.679 0 1.229.55 1.229 1.23v8.609c0 .68-.55 1.228-1.23 1.228h-4.92c-.678 0-1.229-.549-1.229-1.228v-8.61c0-.678.55-1.229 1.23-1.229h4.92zm-6.72.765v5.208H2.522c-.49 0-.892-.4-.892-.89V4.89c0-.49.401-.891.892-.891h16.447c.49 0 .89.4.89.89V9.21h-2.504c-.72 0-1.302.582-1.302 1.302zm0 9.114c0 .068.03.127.04.193H1.772A1.777 1.777 0 010 18.046v-1.165a.053.053 0 01.052-.053h16v2.797z" fill-rule="evenodd"/></svg>