<svg viewBox="0 0 24 24"><path d="M16.934 7.287a6.938 6.938 0 00-4.73 2.42h-7.25c-.88 0-1.61-.73-1.61-1.61 0-.89.73-1.62 1.61-1.62h10.6c.59 0 1.11.33 1.38.81zm-4.93 2.67c-.73.92-1.23 2.02-1.41 3.23h-7.07c-.88 0-1.61-.73-1.61-1.61 0-.89.73-1.62 1.61-1.62h8.48zm-1.06 6.71h-7.42c-.88 0-1.61-.73-1.61-1.61 0-.89.73-1.61 1.61-1.61h7.03c-.03.27-.05.54-.05.82 0 .84.15 1.65.44 2.4zm2.78 3.48h-10.2c-.88 0-1.61-.73-1.61-1.61 0-.89.73-1.61 1.61-1.61h7.51a7.001 7.001 0 002.69 3.22zm.095-15.535a1.62 1.62 0 01-1.612 1.612H1.612A1.62 1.62 0 010 4.612 1.62 1.62 0 011.612 3h10.595a1.62 1.62 0 011.612 1.612zm5.525 11.83a1.776 1.776 0 01-.925.593c-.16.044-.233.13-.225.296.006.163-.002.328-.002.492 0 .146-.074.224-.218.228-.176.005-.354.005-.53.001-.155-.003-.228-.091-.229-.242l-.003-.36c-.003-.264-.011-.274-.266-.316a3.332 3.332 0 01-.943-.27c-.234-.114-.259-.173-.192-.418.051-.182.101-.364.157-.545.067-.21.123-.236.317-.135.33.171.68.267 1.046.312.238.03.469.007.687-.09.409-.178.471-.652.127-.936a1.6 1.6 0 00-.39-.23c-.358-.158-.732-.277-1.07-.48-.548-.328-.897-.78-.856-1.447.046-.755.473-1.226 1.165-1.478.285-.103.287-.099.289-.397 0-.103-.002-.203 0-.304.007-.224.045-.264.268-.27h.208c.477 0 .477 0 .479.476.002.338.002.34.338.392.258.04.503.116.741.221.13.059.181.15.14.288-.06.206-.116.413-.182.617-.063.194-.124.222-.31.132a2.38 2.38 0 00-1.175-.232.902.902 0 00-.313.064c-.355.156-.413.549-.11.79.154.123.329.211.51.287.315.13.633.256.931.421.953.526 1.209 1.723.536 2.54M17.75 8a6.25 6.25 0 100 12.5 6.25 6.25 0 000-12.5" fill-rule="evenodd"/></svg>