<svg viewBox="0 0 24 24"><path d="M3.724 13.242a2.365 2.365 0 11.002-4.731 2.365 2.365 0 01-.002 4.73zm17.025 0a2.365 2.365 0 11.001-4.731 2.365 2.365 0 01-.001 4.73zm-8.513-7.153h3.724c0 2.833-.266 4.788-2.128 5.267v4.31H10.64v-4.31c-1.862-.479-2.128-2.434-2.128-5.267h3.724zm0-1.36a2.365 2.365 0 110-4.73 2.365 2.365 0 010 4.73zm8.04 9.459H24c0 2.832-.266 4.788-2.128 5.267v4.309H18.68v-4.31c-1.862-.478-2.128-2.434-2.128-5.266h3.724zm-16.552 0h3.724c0 2.832-.266 4.788-2.128 5.267v4.309H2.128v-4.31C.266 18.977 0 17.02 0 14.189h3.724z" fill-rule="evenodd"/></svg>