<svg viewBox="0 0 24 24"><path d="M15.19 7.191a3.19 3.19 0 11-6.38 0 3.19 3.19 0 016.38 0zm6.89 1.962a2.497 2.497 0 11-4.995 0 2.497 2.497 0 014.994 0zm-15.165 0a2.497 2.497 0 11-4.994 0 2.497 2.497 0 014.994 0zM5.69 15.78v2.831H.001v-2.476c0-1.925 1.646-3.486 3.677-3.486h1.48c.563 0 1.095.124 1.573.34a4.296 4.296 0 00-1.04 2.791zm11.954 3.495H6.355v-3.163c0-2.46 2.104-4.454 4.7-4.454h1.89c2.596 0 4.7 1.994 4.7 4.454v3.163zm2.677-6.626c2.031 0 3.678 1.561 3.678 3.486v2.476h-5.69v-2.83a4.291 4.291 0 00-1.042-2.793 3.832 3.832 0 011.575-.339h1.48z" fill-rule="evenodd"/></svg>