<svg viewBox="0 0 24 24"><path d="M22.99 18.35c.046.358-.063.668-.327.933l-3.097 3.073c-.14.156-.322.287-.547.397a2.276 2.276 0 01-.664.209c-.015 0-.062.004-.14.012a3.197 3.197 0 01-.303.012c-.294 0-.772-.051-1.432-.152-.66-.1-1.467-.35-2.422-.746-.955-.396-2.038-.99-3.249-1.78-1.21-.793-2.5-1.88-3.866-3.261-1.087-1.072-1.988-2.097-2.702-3.075-.714-.978-1.289-1.882-1.723-2.713-.435-.83-.761-1.583-.979-2.259a12.1 12.1 0 01-.442-1.747C1.019 6.764.989 6.38 1.004 6.1s.024-.435.024-.466c.03-.217.1-.438.21-.662.107-.226.24-.409.394-.549L4.73 1.325A1.03 1.03 0 015.476 1c.201 0 .38.058.535.175.156.116.287.26.396.43L8.9 6.335c.14.247.179.519.117.815a1.452 1.452 0 01-.396.745l-1.141 1.14a.387.387 0 00-.082.152.561.561 0 00-.035.175c.062.325.202.698.42 1.118.185.372.473.827.86 1.362.389.536.94 1.153 1.654 1.852.699.714 1.32 1.27 1.864 1.665.543.395.997.687 1.363.873.364.186.644.3.838.338l.29.058c.031 0 .083-.01.152-.035a.39.39 0 00.152-.081l1.327-1.352c.28-.247.606-.372.978-.372.264 0 .473.046.628.14h.024l4.495 2.654c.326.203.52.46.582.77z" fill-rule="evenodd"/></svg>