<svg viewBox="0 0 24 24"><path d="M3.673 18.065a1.888 1.888 0 01.114.648 1.894 1.894 0 11-1.894-1.894 1.886 1.886 0 011.243.466l5.09-3.465a.476.476 0 01.032-.02 3.282 3.282 0 01-.32-1.418c0-.59.156-1.145.428-1.625l-4.865-3.13a1.887 1.887 0 01-1.286.504 1.894 1.894 0 111.798-1.3l4.874 3.135a.479.479 0 01.059.045 3.286 3.286 0 012.289-.924 3.28 3.28 0 011.818.547l3.538-5.46a1.886 1.886 0 01-.498-1.28 1.894 1.894 0 111.893 1.893 1.89 1.89 0 01-.6-.098l-3.56 5.493a.478.478 0 01-.067.082 3.281 3.281 0 01.737 1.646.48.48 0 01.033-.001h5.744a1.893 1.893 0 110 .947H14.53a.48.48 0 01-.033-.002 3.299 3.299 0 01-1.907 2.533l1.972 3.6a1.895 1.895 0 01.465-.058 1.894 1.894 0 11-1.893 1.893 1.888 1.888 0 01.599-1.38l-2.007-3.666a.472.472 0 01-.048-.128 3.325 3.325 0 01-.442.03 3.288 3.288 0 01-2.451-1.092.479.479 0 01-.024.017l-5.087 3.462z" fill-rule="evenodd"/></svg>