<svg viewBox="0 0 24 24"><path d="M4.837 10.936c-.358.233-.724.467-1.11.707l4.072 7.055a51.802 51.802 0 00-1.35.754l-.878.507a3.038 3.038 0 01-4.15-1.113L.408 17.092a3.037 3.037 0 011.112-4.15l.877-.508c.463-.267.904-.53 1.33-.792l-.23-.398a.658.658 0 111.137-.658l.202.349C10.729 7.092 12.76 3.849 15.284.315l8.102 14.036c-4.33.42-8.148.559-14.418 3.737a45.396 45.396 0 00-1.168.61l.014.026a7.945 7.945 0 007.396 3.98.657.657 0 00.617-.696.652.652 0 00-.695-.617c-2.544.137-4.889-1.116-6.164-3.304z" fill-rule="evenodd"/></svg>