<svg viewBox="0 0 24 24"><g fill-rule="evenodd"><path d="M21.156 7.785a.603.603 0 01-.44.196c-.179.007-.363-.062-.545-.226l-.356-.315-7.753 8.63a25.936 25.936 0 01-.992-.025c-.926-.038-1.349-.48-2.77-.528-1.55-.052-1.625.404-2.598.365-.646-.026-1.037-.173-1.28-.321L15.014 3.768l.285-.389-.356-.32c-.287-.258-.33-.681-.097-.942a.61.61 0 01.458-.197c.17 0 .346.063.488.191l5.269 4.732c.288.257.33.68.096.942m.545-1.657l-5.269-4.731c-.68-.612-1.713-.577-2.3.079-.486.54-.52 1.337-.112 1.962L2.015 16.805a3.978 3.978 0 00.302 5.61 3.942 3.942 0 002.867 1.012 3.95 3.95 0 002.742-1.313l12-13.362c.25.13.517.186.815.19.44-.012.84-.195 1.129-.516.588-.656.513-1.686-.17-2.298"/><path d="M9.543 11.851a1.116 1.116 0 101.517 1.637 1.116 1.116 0 00-1.517-1.636m4.404-1.523a.894.894 0 00-.62.233.872.872 0 00-.044 1.219c.158.17.374.264.606.272.45.016.873-.376.89-.826a.873.873 0 00-.832-.898"/></g></svg>