<svg viewBox="0 0 24 24"><path d="M19.526 3.547l.714.715L9.257 15.245l1.776 1.776-1.776-1.776.686.686-6.758 6.76a1.542 1.542 0 11-2.182-2.18l6.758-6.76.687.687.001-.001-1.777-1.778 1.777 1.778L19.432 3.454l.094.094 1.528 1.526 2.64-3.531L22.15 0 18.508 2.53l1.018 1.018zm-7.774 6.031L9.57 11.772 5.717 7.926c-1.497.633-3.293.363-4.513-.858a4.053 4.053 0 01-.878-4.477l2.123 2.037h2.216V2.504L2.585.334C4.083-.3 5.8-.008 7.022 1.212a4.113 4.113 0 01.877 4.515l3.853 3.851zm.157 4.59l2.188-2.123 3.69 3.57a4.111 4.111 0 015.392 5.39l-2.214-2.044h-2.058v2.058L21 23.19a4.121 4.121 0 01-4.515-.877 4.114 4.114 0 01-.88-4.515L11.91 14.17z" fill-rule="evenodd"/></svg>