<svg viewBox="0 0 24 24"><path d="M10.395 11.056V1.44h-.48a.24.24 0 01-.24-.24.24.24 0 01.24-.24h4.32a.24.24 0 01.24.24.24.24 0 01-.24.24h-.48v9.616l3.817 5.792c-.6.166-1.672.415-2.713.415-1.68 0-3.491-.885-5.29-.885-.94 0-2.118.135-2.833.23l3.66-5.552zm2.982 8.63a1.332 1.332 0 111.95 1.813 1.332 1.332 0 01-1.95-1.813zm-3.684-.93a.988.988 0 01.266-.707.995.995 0 01.685-.32c.258-.001.512.086.708.268a.995.995 0 01.051 1.393.983.983 0 01-.692.31c-.515.02-1-.428-1.018-.944zm11.017 1.106l-5.995-9.095V2.3a1.202 1.202 0 00-.48-2.3h-4.32a1.202 1.202 0 00-.48 2.3v8.467l-5.993 9.095a2.601 2.601 0 00-.12 2.704 2.602 2.602 0 002.324 1.39h12.858c.988 0 1.856-.52 2.324-1.39a2.601 2.601 0 00-.118-2.704z" fill-rule="evenodd"/></svg>