<svg viewBox="0 0 24 24"><path d="M23.258 13.153H18.04a.484.484 0 01-.484-.484v-2.438c0-.267.217-.484.484-.484h2.714c.163 0 .315.082.404.218l2.1 3.185-.001.003zm-5.161 3.285H11.47a1.795 1.795 0 01-3.55 0H5.59a.9.9 0 01-.9-.9V6.901A.9.9 0 015.59 6h10.85a.9.9 0 01.902.901v2.231h3.762a.55.55 0 01.458.246l2.38 3.609c0 .001 0 .003-.002.003h.004v2.901a.546.546 0 01-.547.547h-1.75a1.795 1.795 0 01-3.55 0zM3.59 14.164h-.003l-1.528-.01a.534.534 0 01-.532-.537.536.536 0 01.535-.533h.004l1.527.009a.535.535 0 01.532.539.536.536 0 01-.535.532zm0-2.714h-.001l-3.054-.008A.537.537 0 010 10.904a.536.536 0 01.536-.533l3.055.008a.535.535 0 01.534.537.535.535 0 01-.535.534z" fill-rule="evenodd"/></svg>