<svg viewBox="0 0 24 24"><path d="M14.421 9.872l-1.917 3.426a.5.5 0 01-.436.256H9.912a.5.5 0 010-1h1.863l1.773-3.17a.5.5 0 11.873.488m2.04-3.82c.793 0 1.437.642 1.437 1.436v9.024c0 .794-.644 1.437-1.438 1.437H7.437A1.437 1.437 0 016 16.512V7.488c0-.794.643-1.436 1.437-1.436h9.023zM7.466 22.563s-.16-3.953-.459-4.073h9.882c-.21.21-.4 4.073-.4 4.073 0 .793-.643 1.437-1.438 1.437H8.904a1.437 1.437 0 01-1.437-1.437zM16.43 1.437s.16 3.953.46 4.073H7.006c.21-.21.4-4.073.4-4.073C7.407.643 8.05 0 8.844 0h6.15c.792 0 1.436.643 1.436 1.437z" fill-rule="evenodd"/></svg>