<svg viewBox="0 0 24 24" fill="none" xmlns="http://www.w3.org/2000/svg"><path fill-rule="evenodd" clip-rule="evenodd" d="M12 22.5c-.8293 0-1.5366-.2976-2.122-.8929-.3344-.34-.5732-.715-.7166-1.125-.1823-.5213.2863-.9821.8386-.9821h4c.5523 0 1.0209.4608.8386.9821-.1434.41-.3822.785-.7166 1.125-.5854.5953-1.2927.8929-2.122.8929Zm6.5199-9.1286a4.1007 4.1007 0 0 0 1.2156 2.914l.5595.5538a.6917.6917 0 0 1-.4866 1.1832H4.1916a.6917.6917 0 0 1-.4866-1.1832l.5595-.5538a4.1007 4.1007 0 0 0 1.2156-2.914V9.7612c0-1.4625.475-2.7615 1.4247-3.8973.7987-.955 1.7739-1.6295 2.9255-2.0234.3882-.1328.6725-.4834.6725-.8936 0-.4045.1369-.7468.4106-1.0268C11.187 1.64 11.5492 1.5 12 1.5s.813.14 1.0866.42c.2737.2801.4106.6224.4106 1.0269 0 .4103.2843.7608.6725.8936 1.1516.394 2.1268 1.0684 2.9255 2.0234.9498 1.1358 1.4247 2.4348 1.4247 3.8973v3.6102Z" fill="currentcolor"/></svg>