<svg viewBox="0 0 24 24" fill="none" xmlns="http://www.w3.org/2000/svg"><path fill-rule="evenodd" clip-rule="evenodd" d="M4 5.92c0-.672 0-1.008.1308-1.2648a1.2 1.2 0 0 1 .5244-.5244C4.912 4 5.248 4 5.92 4h12.16c.6721 0 1.0081 0 1.2648.1308.2258.115.4094.2986.5244.5244C20 4.912 20 5.248 20 5.92v12.16c0 .6721 0 1.0081-.1308 1.2648a1.1994 1.1994 0 0 1-.5244.5244C19.0881 20 18.7521 20 18.08 20H5.92c-.672 0-1.008 0-1.2648-.1308a1.1997 1.1997 0 0 1-.5244-.5244C4 19.0881 4 18.7521 4 18.08V5.92Z" fill="currentcolor"/></svg>