<svg viewBox="0 0 8000 8000" fill="none"
  xmlns="http://www.w3.org/2000/svg">
  <path fill-rule="evenodd" clip-rule="evenodd" d="M8000 0H0V8000H8000V0ZM4399.15 4918.93C4422 4932.98 4447.1 4948.4 4474.65 4948.4C4512.6 4948.4 4532.51 4914.28 4542.38 4882C4545.83 4870.7 4548.38 4859.15 4550.93 4847.61C4552.75 4839.36 4554.57 4831.11 4556.72 4822.95C4561.01 4806.71 4568.12 4793.37 4575.62 4779.31C4577.7 4775.41 4579.81 4771.45 4581.9 4767.36C4606.76 4718.69 4542.89 4674.93 4507.46 4653.76C4506.65 4653.28 4505.78 4652.75 4504.86 4652.2C4490.24 4643.37 4462.26 4626.48 4448.19 4640.02C4439.64 4648.26 4441.64 4663.92 4443.21 4676.22C4443.57 4678.97 4443.9 4681.55 4444.08 4683.84C4445.39 4699.98 4445.89 4716.23 4440.55 4731.75C4433.78 4751.45 4412.19 4766.54 4390.48 4781.7C4358.87 4803.78 4327.03 4826.02 4340.44 4862.91C4349.45 4887.72 4375.9 4904.66 4397.28 4917.78L4399.15 4918.93ZM3920.76 4721.38C3922.98 4752.99 3902.95 4778.05 3882.97 4800.19C3877.64 4806.1 3872.35 4812.21 3867.02 4818.37C3833.29 4857.36 3798.09 4898.05 3742.48 4898.05C3690.49 4898.05 3633.41 4865.22 3647.65 4805.37C3657.54 4763.79 3694.25 4734.34 3727.3 4710.48C3766.49 4682.19 3826.01 4647.05 3876.12 4664.19C3900.96 4672.69 3918.91 4695.07 3920.76 4721.38ZM3685.42 4735.06C3665.51 4750.83 3644.91 4778.86 3641 4797.82H3641.01C3640.13 4802.08 3639.35 4806.28 3638.59 4810.38C3632.88 4841.14 3628.25 4866.1 3591.15 4866.1C3566.4 4866.1 3541 4854.62 3517.47 4843.98C3511.46 4841.26 3505.57 4838.6 3499.84 4836.19C3465.61 4821.84 3466.38 4799.39 3480.75 4768.43C3488.21 4752.37 3493.32 4734.17 3498.48 4715.76C3508.2 4681.14 3518.13 4645.76 3544.35 4622.39C3585.91 4585.35 3652.78 4602.39 3694.45 4630.93C3715.47 4645.32 3730.72 4664.19 3718.35 4688.78C3716.91 4691.64 3715.62 4694.34 3714.38 4696.93C3707.75 4710.78 3702.68 4721.38 3685.42 4735.06ZM4385.52 4760.92C4367.98 4771.37 4348.57 4782.93 4337.88 4799.46H4337.87C4333.68 4805.94 4330.53 4813.06 4327.46 4820.02C4319.08 4839.01 4311.23 4856.78 4284.26 4856.78C4245.94 4856.78 4223.1 4834.21 4204.26 4815.59C4198.94 4810.33 4193.94 4805.39 4188.99 4801.35C4183.47 4796.85 4175.53 4792.32 4167.39 4787.68C4146.47 4775.75 4124.28 4763.09 4138.79 4748.36C4156.52 4730.35 4198.1 4702.73 4237.35 4683.54C4272.01 4666.6 4312.14 4663.57 4350.12 4661.75L4351.54 4661.68C4376.08 4660.5 4419.49 4658.41 4431.49 4685.62C4444.06 4714.12 4417.52 4741.22 4395.87 4754.67C4392.56 4756.73 4389.08 4758.8 4385.52 4760.92ZM4056.94 4780.91C4043.33 4794.81 4036.04 4806.93 4029.91 4826.83H4029.93C4026.02 4839.53 4016.15 4849.04 3996.43 4854.45C3973.62 4860.71 3962.35 4860.54 3948.59 4856.79C3934.22 4852.87 3919.54 4837.37 3916.43 4832.52C3900.54 4807.7 3912.68 4779.18 3923.52 4758.49C3933.96 4738.54 3930.96 4722.61 3928.12 4707.6C3925.77 4695.13 3923.54 4683.29 3929.24 4670.31C3940.5 4644.68 3969.98 4637.08 3995.32 4630.55C3997.63 4629.95 3999.92 4629.36 4002.15 4628.77C4004.2 4628.23 4006.26 4627.68 4008.32 4627.13C4063.18 4612.52 4123.21 4596.53 4176.82 4624.4C4197.96 4635.39 4222.27 4656 4208.06 4681.62C4196.25 4702.92 4169.21 4716.18 4147.36 4726.9C4145.45 4727.84 4143.57 4728.76 4141.75 4729.66C4136.43 4732.3 4131.1 4734.84 4125.78 4737.37C4101 4749.17 4076.69 4760.74 4056.94 4780.91ZM3449.66 4667.81C3479.58 4673.26 3502.25 4696.35 3488.45 4728.82H3488.43L3487.3 4731.49C3468.25 4776.35 3439.71 4843.56 3383.89 4843.56C3351.16 4843.56 3315.82 4833.44 3283.72 4824.24C3280.19 4823.23 3276.69 4822.23 3273.24 4821.25C3240.72 4812.05 3215.09 4794.55 3224.04 4757.16C3226.1 4748.54 3228.55 4740.01 3231.01 4731.47C3233.7 4722.1 3236.39 4712.73 3238.58 4703.2C3238.77 4702.37 3238.96 4701.53 3239.16 4700.68C3241.58 4689.98 3244.12 4678.8 3250.18 4669.54C3267.15 4643.61 3305.33 4641.99 3333 4644.37C3357.37 4646.47 3381.46 4652.27 3405.49 4658.05C3420.21 4661.59 3434.92 4665.13 3449.66 4667.81ZM4735.8 4607.72C4722.12 4661.58 4672.6 4710.08 4614.91 4710.08C4591.3 4710.08 4572.94 4693.95 4555.2 4678.37C4550.95 4674.64 4546.74 4670.95 4542.51 4667.51C4536.58 4662.7 4530.25 4658.23 4523.91 4653.75C4507.86 4642.42 4491.8 4631.07 4482.27 4614.19C4451.66 4559.93 4503.42 4495.2 4555.97 4477C4579.08 4469.01 4596.31 4472.87 4617.75 4477.68C4622.42 4478.73 4627.29 4479.82 4632.46 4480.84C4647.15 4483.76 4662.14 4486.54 4677.17 4486.57C4687.53 4486.59 4696.73 4483.74 4706.1 4480.84C4710.97 4479.33 4715.89 4477.81 4721.03 4476.67C4752.05 4469.81 4760.37 4497.75 4755.54 4523.73C4750.98 4548.24 4744.5 4573.64 4738.25 4598.1C4737.43 4601.32 4736.61 4604.53 4735.8 4607.72ZM4466.01 4541.25C4461.12 4575.87 4437.64 4596.97 4411.42 4617.29V4617.3C4384.3 4638.32 4350.74 4658.74 4314.83 4658.74C4246.56 4658.74 4240.43 4607.9 4239.67 4561.97C4239.29 4539.62 4245.77 4518.31 4251.99 4497.85C4255.15 4487.46 4258.24 4477.29 4260.34 4467.31C4261.43 4462.1 4261.81 4456.8 4262.18 4451.55C4263.2 4437.27 4264.19 4423.31 4279.58 4412.06C4289.59 4404.74 4301.79 4402.34 4317.07 4399.33C4333.19 4396.16 4352.73 4392.32 4376.71 4381.31C4380.4 4379.62 4383.33 4377.52 4386.07 4375.55C4393.16 4370.48 4399 4366.29 4413.59 4372.31C4427.99 4378.24 4430.29 4385.9 4433.47 4407.79C4436.04 4425.5 4442.76 4442.92 4449.51 4460.4C4459.71 4486.81 4469.95 4513.35 4466.01 4541.25ZM3812.39 4479.46C3826.95 4495.05 3831.35 4517.52 3834.19 4537.92C3834.73 4541.8 3835.38 4546 3836.06 4550.41C3842.87 4594.53 3853.03 4660.36 3793.99 4660.36C3735.24 4660.36 3674.71 4618.52 3645.67 4568.8C3607.52 4503.53 3675.75 4466.61 3733.22 4460.76C3759.77 4458.06 3792.8 4458.48 3812.39 4479.46ZM3440.48 4605.04C3418.14 4624.91 3389.01 4631.26 3359.93 4633.13V4633.15C3352.58 4633.62 3345.16 4634.15 3337.7 4634.68C3313.44 4636.41 3288.77 4638.16 3264.93 4638.16C3208.01 4638.16 3225.19 4585.56 3237.87 4546.73C3240.89 4537.49 3243.65 4529.04 3245.1 4522.25C3245.94 4518.34 3246.75 4514.39 3247.57 4510.42C3257.41 4462.8 3267.84 4412.35 3320.47 4395.26C3426 4361.01 3522.31 4532.25 3440.48 4605.04ZM3957.23 4390.59C4024.47 4388.29 4053.85 4472.87 4053.69 4528.1C4053.49 4595.72 3991.44 4634.57 3927.99 4634.57C3857.1 4634.57 3839.61 4566.37 3844.17 4506.47C3848.6 4448.31 3895.94 4392.68 3957.23 4390.59ZM3558.47 4379.47C3605.27 4412.97 3635.72 4486.43 3611.02 4540.73C3594.89 4576.15 3546.39 4621.1 3505 4621.1C3485.3 4621.1 3482.11 4609.42 3478.93 4596.49C3474.95 4580.34 3476.09 4567.26 3477.33 4552.89C3477.51 4550.82 3477.69 4548.73 3477.86 4546.6C3479.62 4524.44 3476.74 4507.55 3474.06 4491.91C3471.45 4476.62 3469.04 4462.53 3471.38 4445.88C3477.4 4403.17 3510.04 4344.8 3558.47 4379.47ZM4239.16 4504.08C4233.82 4521.63 4228.37 4539.52 4228.27 4555.63V4555.64C4228.25 4558.04 4228.32 4560.81 4228.4 4563.83C4228.94 4584.72 4229.78 4617.21 4204.08 4617.21C4188.92 4617.21 4173.49 4610.68 4158.11 4604.17C4146.49 4599.26 4134.9 4594.35 4123.48 4592.29C4118.33 4591.36 4111.19 4591.93 4103.61 4592.53C4087.36 4593.83 4069.03 4595.29 4063.62 4582.53C4059.8 4573.5 4061.65 4562.54 4063.39 4552.3C4064.09 4548.13 4064.78 4544.08 4065.05 4540.32C4066.16 4525.08 4065.22 4509.67 4062.84 4494.6C4061.76 4487.73 4060 4481.35 4058.29 4475.17C4054.17 4460.24 4050.37 4446.49 4057.23 4429.82C4074.62 4387.6 4117.39 4372.88 4160.18 4374.91C4211.79 4377.36 4251.32 4399.12 4249.43 4457.87C4248.97 4471.87 4244.11 4487.83 4239.16 4504.08ZM4590.19 4462.63C4579.08 4463.53 4568.09 4464.42 4554.98 4467.95L4554.99 4467.96C4549.81 4469.36 4544.44 4472.46 4538.88 4475.67C4530.55 4480.48 4521.78 4485.55 4512.5 4485.55H4511.55C4484.84 4485.55 4467.4 4485.56 4445.56 4432.42C4437.14 4411.93 4437.07 4384.79 4438.27 4362.97L4438.42 4360.17C4439.8 4334.77 4441.3 4307.16 4448.33 4282.72C4455.82 4256.61 4474.82 4244.52 4501.79 4250.61C4507.13 4251.81 4512.35 4253.39 4517.57 4254.98C4523.33 4256.73 4529.1 4258.48 4535.05 4259.72C4539.38 4260.63 4543.94 4261.33 4548.55 4262.03C4559.41 4263.68 4570.59 4265.38 4580.02 4270.06C4612.31 4286.1 4616.11 4328.65 4619.33 4364.67C4620.25 4375.03 4621.13 4384.84 4622.62 4393.33C4623.64 4399.14 4625.37 4405.23 4627.1 4411.28C4633.64 4434.26 4640.02 4456.69 4606.58 4461.03C4600.92 4461.76 4595.55 4462.2 4590.19 4462.63ZM4763.99 4198.54C4843.2 4203.1 4817.7 4311.84 4805.62 4361.06H4805.63C4793.76 4409.42 4754.47 4469.99 4697.5 4469.99C4632.71 4469.99 4619.01 4359.33 4623.4 4312.04C4626.69 4276.66 4637.84 4248.97 4669.99 4231.53C4671.82 4230.53 4673.67 4229.52 4675.55 4228.49C4702.2 4213.94 4733.61 4196.79 4763.99 4198.54ZM3740.95 4454.71C3729.92 4455.6 3718.69 4456.51 3706.82 4458.26H3706.83C3700.74 4459.16 3694.69 4460.79 3688.65 4462.42C3679.89 4464.78 3671.13 4467.14 3662.16 4467.3C3637.82 4467.3 3624.84 4449.13 3613.47 4430.09C3607.9 4420.76 3601.93 4411.5 3595.96 4402.23C3585.73 4386.35 3575.46 4370.41 3567.02 4353.89C3554.29 4328.97 3545.78 4296.58 3559.91 4269.19C3571.18 4247.33 3579.76 4243.92 3592.96 4238.68C3594.24 4238.17 3595.57 4237.64 3596.95 4237.08C3606.66 4233.11 3614.89 4228.16 3622.11 4223.81C3636.1 4215.4 3646.37 4209.22 3656.53 4216.66C3662.91 4221.33 3664.64 4227.45 3666.44 4233.82C3667.91 4239 3669.42 4244.34 3673.51 4249.19C3681.51 4258.68 3690.02 4262.47 3698.27 4266.14C3712.69 4272.56 3726.31 4278.63 3735 4314.17C3741.88 4342.25 3761.7 4364.25 3778.84 4383.29C3791.61 4397.47 3802.9 4410 3806.26 4422.17C3813.44 4448.23 3781.26 4451.13 3760.74 4452.98C3759.3 4453.11 3757.93 4453.23 3756.62 4453.36C3751.41 4453.87 3746.2 4454.29 3740.95 4454.71ZM3920.67 4257.66C3941.81 4269.3 3963.23 4281.1 3960.09 4311.78L3960.07 4311.8C3959.25 4319.87 3958.96 4326.64 3958.71 4332.46C3957.53 4360.48 3957.26 4366.71 3902.52 4391.95C3895.2 4395.33 3888.94 4399.17 3883.14 4402.72C3865.65 4413.44 3852.4 4421.56 3827.31 4406.52C3807.2 4394.46 3782.61 4372.07 3765.14 4347.75C3747.74 4323.54 3744.63 4308.69 3744.75 4284.71C3744.81 4273.52 3745.96 4265.32 3763.77 4254.22C3772.18 4248.97 3785.98 4243.12 3800.66 4236.88C3814.39 4231.05 3828.9 4224.89 3840.51 4218.59C3844.38 4216.49 3848.06 4214.12 3851.53 4211.88C3866.23 4202.4 3877.26 4195.28 3883.34 4221.33C3887.57 4239.42 3904.03 4248.49 3920.67 4257.66ZM4014.97 4390.12C3987.93 4376.29 3970.35 4344.68 3969.76 4315.6C3968.76 4266.91 3995.52 4237.8 4022.06 4208.93C4027.49 4203.03 4032.9 4197.14 4038.07 4191.1C4062.39 4162.64 4108.92 4112.85 4145.07 4152.57C4171.04 4181.1 4181.92 4235.33 4182.04 4273.47C4182.21 4325.53 4145.34 4358.1 4102.06 4380.45C4075.86 4393.98 4043.08 4404.49 4014.97 4390.12ZM3512.42 4340.61C3509.62 4344.77 3506.88 4348.85 3504.34 4352.85L3504.35 4352.84C3502.65 4355.52 3500.91 4358.39 3499.12 4361.35C3487 4381.37 3472.2 4405.83 3446.97 4405.74C3429.9 4405.74 3413.19 4399.75 3396.39 4393.72C3381.8 4388.48 3367.15 4383.23 3352.14 4381.85L3352.09 4381.84C3333.11 4380.09 3313.36 4378.27 3301.49 4361.28C3262.86 4305.98 3320.77 4221.4 3371.91 4202.14C3403.21 4190.35 3439.19 4199.56 3468.44 4212.98C3472.23 4214.72 3476.47 4216.5 3480.96 4218.37C3507.9 4229.62 3543.46 4244.48 3540.91 4277.9C3539.17 4300.77 3525.2 4321.57 3512.42 4340.61ZM4333.79 4384.9C4328.51 4386.04 4323.24 4387.18 4318.12 4388.56H4318.11C4313.75 4389.74 4309.31 4391.06 4304.83 4392.4C4289.69 4396.91 4273.94 4401.6 4258.51 4401.6C4230.87 4401.6 4202.1 4361.71 4193.65 4339.73C4184.31 4315.44 4184.29 4288.61 4188.62 4263.24C4192.39 4241.17 4198.01 4208.82 4216.02 4192.97C4238.14 4173.51 4269.81 4182.98 4295.83 4190.75C4299.1 4191.73 4302.28 4192.68 4305.34 4193.54C4315.5 4196.41 4325.61 4199.44 4335.72 4202.48C4357.6 4209.05 4379.48 4215.63 4401.82 4220.43C4432.29 4226.99 4453.74 4241.52 4443.22 4276.01C4439.2 4289.18 4432.13 4301.8 4425.18 4313.57C4411.42 4336.88 4393.61 4360.9 4369.2 4373.83C4358.27 4379.62 4345.98 4382.27 4333.79 4384.9ZM4036.22 4176.8C4029.34 4184.28 4022.59 4191.62 4015.14 4199.01C4012.16 4201.97 4008.96 4205.38 4005.57 4209.01C3991.73 4223.81 3974.55 4242.18 3954.78 4247.72C3923.38 4256.51 3889.64 4223.43 3890.92 4200.15C3892 4180.51 3906.35 4167.53 3920.96 4154.33C3943.51 4133.94 3966.65 4113.03 3942.33 4066.23C3928.86 4040.31 3995.5 4035.29 4025.12 4038.19C4053.03 4040.92 4075.2 4067.09 4087.36 4091.13C4101.03 4118.17 4084.46 4131.84 4067.69 4145.69C4063.1 4149.48 4058.49 4153.28 4054.49 4157.37C4047.97 4164.03 4042.05 4170.46 4036.22 4176.8ZM4724.42 4144.92C4721.39 4156.98 4716.65 4169.14 4692.49 4197.18H4692.51C4655.49 4240.13 4582 4246.85 4529.56 4246.85C4505.53 4246.85 4470.66 4242.23 4463.99 4212.87C4460.76 4198.66 4462.76 4186.22 4467.75 4173.18C4475.06 4154.12 4482.27 4128.07 4487.68 4108.38C4504.52 4047.02 4522.31 4039.85 4565.28 4025.6C4566.96 4025.04 4568.84 4024.4 4570.87 4023.71C4589.74 4017.3 4622.01 4006.33 4637.28 4011.5C4649.69 4015.69 4662.25 4021.34 4671.21 4030.62C4679.67 4039.38 4687.17 4046.27 4694.68 4053.16C4699.72 4057.79 4704.76 4062.42 4710.09 4067.62C4718.47 4075.78 4729.24 4090.45 4729.24 4103.78C4729.24 4117.1 4726 4138.64 4724.42 4144.92ZM4464.94 4030.32C4492.58 4040.33 4484.89 4074.36 4479.75 4096.34L4479.76 4096.33C4478.49 4101.76 4477.27 4108.19 4475.94 4115.19C4468.3 4155.32 4457.04 4214.46 4412.96 4214.46C4399.41 4214.46 4386.22 4209.96 4373.27 4205.54C4368.5 4203.91 4363.76 4202.3 4359.06 4200.92C4351.57 4198.73 4344.05 4196.69 4336.52 4194.65C4325.77 4191.73 4315.01 4188.82 4304.39 4185.47C4282.96 4178.72 4248.35 4166.7 4272.83 4140.91C4281.37 4131.92 4290.98 4124.33 4300.58 4116.76C4313.67 4106.42 4326.75 4096.09 4337.09 4082.21C4340.65 4077.43 4343.84 4072.38 4346.99 4067.38C4356.28 4052.68 4365.34 4038.33 4383.24 4031.85C4403.21 4024.62 4444.85 4023.06 4464.94 4030.32ZM4740.17 3982.86C4800.67 3970.62 4885.96 3966.81 4908.6 4039.76H4908.59C4923.49 4087.78 4943.29 4208.77 4860.57 4208.77C4849.45 4208.77 4839.37 4204.57 4829.27 4200.38C4823.12 4197.82 4816.96 4195.26 4810.57 4193.65C4803.05 4191.74 4794.85 4191.24 4786.62 4190.73C4775.28 4190.02 4763.85 4189.32 4753.98 4184.94C4729.5 4174.12 4733.01 4146.69 4736.02 4123.14C4736.42 4120.01 4736.81 4116.94 4737.13 4113.99C4740.36 4083.89 4723.73 4068.93 4706.1 4053.08C4700.42 4047.97 4694.64 4042.77 4689.39 4036.94C4658.66 4002.85 4716.08 3987.73 4740.17 3982.86ZM3211.59 3982.14C3272.72 3969.86 3356.92 3969.07 3377.3 4042.96H3377.31C3390.55 4090.94 3410.69 4208.76 3328.4 4208.76C3317.28 4208.76 3307.19 4204.57 3297.09 4200.37C3290.94 4197.82 3284.79 4195.26 3278.4 4193.65C3271.01 4191.78 3262.93 4191.36 3254.82 4190.94C3243.28 4190.33 3231.65 4189.73 3221.81 4184.94C3197.14 4172.95 3200.37 4150.1 3203.48 4128.14C3204.41 4121.57 3205.33 4115.07 3205.49 4108.97C3206.16 4082.81 3189.8 4067.79 3173.13 4052.5C3167.66 4047.48 3162.15 4042.43 3157.21 4036.94C3125.24 4001.49 3187.6 3986.97 3211.59 3982.14ZM4283.96 4120.5C4270.08 4132.23 4257.48 4144.1 4245.67 4157.89L4245.69 4157.9C4236.47 4168.68 4226.36 4176.37 4211.44 4176.63C4191.31 4176.63 4184.07 4162.64 4176.8 4148.56C4171.26 4137.86 4165.7 4127.1 4154.42 4122.42C4148.24 4119.87 4141.99 4119.19 4135.87 4118.52C4126.15 4117.46 4116.75 4116.44 4108.52 4107.98C4098.96 4098.17 4095.47 4083.5 4093.89 4070.36C4089.63 4034.93 4105.07 4001.94 4129.87 3976.84C4144.06 3962.47 4189.92 3934.46 4208.13 3942.36C4217.11 3946.26 4216.71 3954.21 4216.29 3962.53C4216.06 3967.29 4215.81 3972.18 4217.32 3976.5C4221.74 3989.11 4232.04 3997.08 4243.5 4003.09C4252.14 4007.61 4262.27 4010.85 4272.57 4014.14C4292.86 4020.61 4313.77 4027.29 4325.14 4044.44C4343.3 4071.86 4311.19 4098.15 4290.17 4115.37C4287.95 4117.19 4285.85 4118.9 4283.96 4120.5ZM4481.91 3968.99C4484.6 3977.72 4486.97 3985.4 4486.97 3994.77C4486.96 4016.19 4480.8 4023.48 4454.42 4022.18C4424.26 4020.68 4392.53 4016.85 4362.75 4012.23C4350.95 4010.4 4338.82 4009.27 4326.65 4008.13C4307.34 4006.33 4287.93 4004.51 4269.59 3999.88C4247.19 3994.21 4228.78 3980.88 4233.4 3955.39C4234.28 3950.52 4236.18 3946.34 4238.09 3942.14C4239.67 3938.68 4241.25 3935.2 4242.27 3931.32C4243.42 3926.9 4244.09 3922.66 4244.74 3918.57C4246.29 3908.77 4247.71 3899.76 4255.33 3890.92C4267.39 3876.92 4284.43 3871.84 4301.46 3866.76C4310.07 3864.19 4318.68 3861.62 4326.64 3857.9C4337.03 3853.05 4345.76 3845.43 4354.47 3837.83C4365.09 3828.56 4375.68 3819.32 4389.18 3815.17C4408.65 3809.18 4447.9 3811.46 4469.33 3823.2C4483.56 3830.99 4484.34 3844.03 4478.41 3866.55C4473.44 3885.38 4473.01 3894.98 4474.4 3929.14C4475.12 3946.91 4478.74 3958.68 4481.91 3968.99ZM4486.97 3994.77C4486.97 3994.77 4486.97 3994.78 4486.97 3994.78V3994.76C4486.97 3994.76 4486.97 3994.77 4486.97 3994.77ZM4689.54 3946.7C4706.67 3978.3 4673.35 3988.88 4648.09 3993.81H4648.08C4638.61 3995.66 4629.21 3997.94 4619.82 4000.22C4597.59 4005.62 4575.39 4011.02 4552.28 4010.63C4528.5 4010.24 4513.73 4004.16 4504.55 3995.76C4483.75 3976.7 4478.25 3913.57 4483.75 3879.51C4486.73 3861.03 4493.6 3849.8 4499.86 3839.57C4503.39 3833.79 4506.73 3828.33 4509.07 3822.06C4513.44 3810.33 4518.09 3800.84 4522.04 3792.78C4522.53 3791.79 4523.01 3790.81 4523.47 3789.86C4530.82 3774.78 4543.71 3753.48 4563.62 3762.39C4584.89 3771.91 4596.14 3805.23 4602.14 3824.96C4610.01 3850.87 4618.53 3874.6 4638.03 3894.36C4643.65 3900.05 4649.87 3905.29 4656.12 3910.56C4668.8 3921.24 4681.57 3932.01 4689.54 3946.7ZM3324.76 3916.12C3322.43 3921.36 3320.04 3926.77 3318.01 3932.51L3317.99 3932.52C3309.47 3956.69 3284.12 3960.63 3258.48 3964.62C3256.73 3964.89 3254.98 3965.16 3253.24 3965.44C3251.51 3965.72 3249.64 3966.02 3247.64 3966.35C3236.12 3968.24 3220.58 3970.78 3206.85 3971.64C3197.79 3972.22 3191.3 3970.15 3182.66 3965.83C3174.94 3961.97 3168.66 3950 3163.09 3939.39C3160.05 3933.59 3157.22 3928.2 3154.49 3924.75C3147.19 3915.56 3138.27 3908.16 3129.4 3900.8C3117.29 3890.75 3105.25 3880.76 3097.5 3866.34C3086.37 3845.63 3076.03 3813.63 3078.32 3790.06C3083.28 3739.13 3165.04 3729.48 3204.68 3732.26C3233.9 3734.31 3246.32 3751.77 3260.99 3772.38C3263.01 3775.21 3265.06 3778.1 3267.21 3781.02C3276.18 3793.19 3285.77 3804.9 3295.37 3816.62C3304.25 3827.46 3313.14 3838.3 3321.54 3849.53C3342.12 3877.03 3333.99 3895.33 3324.76 3916.12ZM4853.71 3849.55C4873.14 3873.87 4867.91 3902.05 4855.74 3930.3V3930.31C4843.54 3958.67 4830.39 3960.8 4798.88 3965.9C4796.96 3966.21 4794.98 3966.53 4792.92 3966.87C4785.33 3968.12 4778.44 3968.75 4770.24 3969.5C4761.94 3970.25 4752.29 3971.13 4739.21 3972.9C4730.21 3974.12 4726.85 3973.41 4718.73 3969C4711.13 3964.87 4705.13 3954.36 4699.34 3944.25C4695.68 3937.84 4692.1 3931.58 4688.27 3927.22C4681.24 3919.21 4673.11 3912.43 4665.02 3905.68C4652.82 3895.51 4640.7 3885.41 4632.6 3871.31C4620.88 3850.95 4610.9 3819.34 4611.82 3795.84C4613.9 3742.59 4694.61 3733.05 4735.12 3734.62C4766.81 3735.85 4780.34 3753.59 4797.01 3777.76C4809.07 3795.24 4822.6 3811.63 4836.14 3828.03C4842.03 3835.17 4847.93 3842.31 4853.71 3849.55ZM4193.57 3800.15C4197.23 3804.44 4200.89 3808.73 4204.28 3813.19C4255.16 3880.26 4189.51 3956.64 4117.01 3956.64C4085.79 3956.63 4059.11 3937.06 4042.78 3911.55C4032.7 3895.81 4027.45 3879.6 4025.81 3861.06C4025.54 3858.04 4025.38 3854.93 4025.21 3851.78C4024.57 3839.79 4023.9 3827.29 4017.43 3817.07C4014.49 3812.42 4009.59 3808.36 4004.61 3804.22C3996.14 3797.2 3987.42 3789.96 3987.6 3779.3C3987.76 3769.35 3997.75 3760.79 4006.05 3753.67C4008.13 3751.89 4010.1 3750.2 4011.79 3748.59C4030.16 3731.15 4050.91 3714.96 4074.53 3705.32C4104.83 3692.95 4139.62 3696.04 4156.05 3727.4C4159.88 3734.7 4162.43 3742.53 4164.99 3750.36C4167.65 3758.53 4170.31 3766.7 4174.42 3774.26C4179.57 3783.75 4186.57 3791.95 4193.57 3800.15ZM4344.94 3744.99C4350.2 3762.41 4355.46 3779.81 4349.53 3808.69V3808.7C4349.25 3810.08 4348.98 3811.44 4348.71 3812.79C4344.21 3835.28 4340.92 3851.73 4305.9 3854.47C4254.86 3854.47 4206.32 3811.04 4185.05 3767.89C4172 3741.41 4165.02 3712.48 4159.75 3683.57C4158.86 3678.67 4158.16 3673.69 4157.45 3668.71C4156.41 3661.31 4155.36 3653.89 4153.68 3646.68C4152.89 3643.29 4151.78 3639.98 4150.66 3636.67C4148.77 3631.08 4146.88 3625.49 4146.58 3619.47C4144.78 3584.01 4177.86 3588.78 4201.38 3595.5C4209.17 3597.72 4216.23 3600.5 4223.02 3603.16C4240.1 3609.87 4255.42 3615.88 4276.13 3610.72C4277.07 3610.49 4278.01 3610.25 4278.95 3610.01C4290.85 3606.98 4302.93 3603.9 4312.92 3613.13C4321.18 3620.77 4327.34 3633.4 4330.58 3643.91C4334.24 3655.81 4335.18 3671.94 4336.13 3688.41C4336.72 3698.56 4337.31 3708.85 4338.56 3718.37C4339.84 3728.11 4342.39 3736.55 4344.94 3744.99ZM3468.64 3706.44C3481.54 3738.56 3472.85 3764.73 3446.42 3786H3446.43C3425.92 3802.51 3393.7 3822.38 3366.2 3822.38C3337.17 3822.38 3312.81 3800.82 3293.76 3781.22C3290.39 3777.76 3286.89 3774.26 3283.34 3770.72C3267.4 3754.81 3250.52 3737.97 3240.46 3718.45C3223.2 3684.95 3241.92 3641.22 3257.8 3610.37C3279.84 3567.59 3336.29 3561.58 3375.88 3584.79C3393.14 3594.91 3404.9 3611.39 3416.35 3627.43C3417.8 3629.46 3419.24 3631.47 3420.69 3633.47C3424.69 3639.01 3428.86 3644.48 3433.05 3649.96C3446.62 3667.73 3460.3 3685.66 3468.64 3706.44ZM4415.96 3430.08C4428.94 3448.86 4443.94 3470.57 4429.36 3501.05V3501.04C4418.73 3523.24 4402.21 3524.15 4384.48 3525.13C4370.7 3525.89 4356.19 3526.69 4343.14 3537.56C4334.32 3544.91 4327.74 3553.81 4321.28 3562.56C4311.04 3576.42 4301.09 3589.89 4283.01 3596.16C4255.44 3605.73 4246.12 3601.91 4222.02 3592.06C4221 3591.64 4219.95 3591.21 4218.88 3590.78C4213.88 3588.74 4197.72 3583.17 4183.77 3578.36C4174.42 3575.14 4166.07 3572.26 4162.74 3571.02C4144.72 3564.29 4133.09 3542.19 4131.58 3529.65C4129.84 3515.13 4129.91 3499.87 4137.85 3487.71C4147.63 3472.71 4162.72 3462.67 4177.78 3452.65C4188.48 3445.54 4199.17 3438.43 4207.94 3429.55C4226.16 3411.12 4241.02 3394 4257.47 3375.05C4260.58 3371.46 4263.74 3367.81 4267 3364.08C4303.37 3322.38 4381.59 3376.16 4409.51 3420.47C4411.49 3423.61 4413.7 3426.8 4415.96 3430.08ZM4344.15 3671.33C4343.29 3654.22 4342.43 3637.15 4339.26 3620.35C4338.74 3617.6 4338.11 3614.64 4337.46 3611.53C4332.77 3589.38 4326.46 3559.59 4345.9 3545.12C4363.14 3532.3 4382.42 3543.78 4399.49 3553.94C4404.89 3557.15 4410.07 3560.23 4414.89 3562.37C4427.67 3568.05 4441.35 3570.27 4455.07 3572.5C4470 3574.93 4484.97 3577.36 4498.9 3584.27C4550.49 3609.87 4559.62 3666.93 4549.6 3718.02C4538.59 3774.13 4500.6 3806.66 4446.47 3807.51C4426.49 3807.83 4402.12 3805.16 4384.52 3793.71C4365.49 3781.32 4355.66 3750.84 4350.99 3731.57C4346.19 3711.7 4345.17 3691.49 4344.15 3671.33ZM4104.3 3671.03C4069.92 3685.12 4044.54 3698.25 4019.04 3726.01L4019.03 3726C4015.73 3729.61 4012.39 3733.43 4008.99 3737.32C3989.17 3760.01 3967.17 3785.2 3935.43 3785.2C3906.83 3785.19 3881.65 3764.98 3871.15 3739.31C3862.87 3719.06 3865.03 3690.85 3869.04 3670.01C3870.14 3664.27 3871.12 3657.64 3872.16 3650.54C3878.05 3610.49 3886.13 3555.51 3931.93 3562.58C3933.54 3562.83 3935.1 3563.08 3936.62 3563.32C3951.35 3565.66 3962.5 3567.43 3978.2 3563.44C3988.71 3560.77 3998.86 3555.17 4008.77 3549.71C4013.59 3547.05 4018.36 3544.42 4023.08 3542.18C4040.68 3533.83 4086.17 3513.56 4104.15 3535.84C4112.87 3546.65 4113.47 3562.64 4111.79 3575.86C4109.49 3594.01 4110.94 3601.63 4118.59 3617.91C4129.2 3640.49 4128.39 3661.15 4104.3 3671.03ZM4756.13 3665.71C4755.56 3684.71 4754.96 3704.36 4736.63 3714.16C4710.87 3727.94 4676.08 3731.13 4647.34 3732C4591.54 3733.67 4540.41 3705.27 4562.31 3645.7C4578 3603.06 4624.24 3568.01 4665.62 3552.36C4692.33 3542.27 4723.77 3540.71 4742.58 3565.7C4759.81 3588.57 4760.52 3621.73 4757.15 3648.89C4756.48 3654.24 4756.31 3659.95 4756.13 3665.71ZM3450.07 3516.71C3505.41 3514.85 3574.6 3547.94 3597.9 3600.46C3614.89 3638.77 3598.7 3727.26 3544.39 3727.26C3517.76 3727.26 3500.54 3705.03 3485.47 3685.59C3483.56 3683.13 3481.69 3680.72 3479.84 3678.4C3471.8 3668.33 3463.33 3658.63 3454.87 3648.94C3442.7 3635.01 3430.53 3621.09 3419.66 3606.06L3419.08 3605.25C3408.83 3591.09 3388.29 3562.71 3394.09 3544.69C3400.56 3524.55 3432.22 3517.31 3450.07 3516.71ZM3839.88 3707.22C3821.21 3721.54 3795.66 3721.03 3773.37 3720.27V3720.28C3751.78 3719.54 3730.43 3720.62 3709.06 3721.71C3692.55 3722.55 3676.03 3723.39 3659.4 3723.39L3658.33 3723.39C3636.63 3723.4 3599.8 3723.41 3601.46 3693.42C3602.08 3682.12 3607.16 3670.11 3611.95 3658.79C3613.84 3654.32 3615.69 3649.96 3617.2 3645.79L3617.6 3644.67C3622.63 3630.76 3627.99 3615.91 3637.6 3604.37C3652.03 3587.03 3675.65 3587.29 3698.57 3587.54C3707.51 3587.64 3716.34 3587.73 3724.48 3586.79C3738.06 3585.21 3750.9 3580.1 3763.53 3575.06C3779.15 3568.84 3794.47 3562.74 3810.56 3563.58C3874.19 3566.86 3884.14 3673.28 3839.88 3707.22ZM4677.11 3490.6C4683.33 3520.42 4667.17 3534.47 4644.44 3551.58C4615.88 3573.09 4581.38 3592.09 4544.68 3592.09C4496.74 3590.76 4415.48 3534.27 4444.79 3481.78C4458.71 3456.85 4477.59 3441.38 4498.42 3424.3C4502.54 3420.92 4506.74 3417.48 4511 3413.89C4517.2 3408.64 4523.12 3401.22 4529.21 3393.58C4542.36 3377.08 4556.36 3359.52 4575.95 3360.54C4649.03 3364.33 4664.69 3431.12 4677.11 3490.6ZM3791.74 3555.36C3789.35 3555.89 3786.65 3556.5 3783.58 3557.21L3783.59 3557.22C3776.06 3558.96 3769.09 3561.58 3761.81 3564.33C3748.98 3569.16 3735.17 3574.37 3715.61 3575.72C3653.17 3580.05 3628.94 3573.4 3616.1 3569.87C3614.52 3569.44 3613.12 3569.05 3611.83 3568.74C3588.16 3562.97 3560.94 3546.43 3602.74 3498.25C3619.01 3479.49 3620.78 3463.01 3622.49 3447.1C3623.67 3436.07 3624.83 3425.31 3630.76 3414.25C3644.57 3388.54 3667.86 3371.54 3697.11 3368.54C3766.21 3361.45 3806.55 3413.7 3825.82 3473.54C3833.85 3498.49 3836.99 3528.98 3817.25 3545.04C3809.42 3551.4 3805.6 3552.26 3791.74 3555.36ZM3610.1 3420.35C3617.28 3483.89 3571.81 3510.43 3515.05 3510.43H3515.07C3475.68 3510.43 3379.2 3499.49 3380.17 3443.42C3380.44 3428.09 3389.53 3415.77 3398.31 3403.88C3400.5 3400.92 3402.67 3397.99 3404.67 3395.04C3412.77 3383.14 3416.64 3370.51 3420.75 3357.08C3421.15 3355.78 3421.55 3354.47 3421.96 3353.15C3430.91 3324.18 3446 3308.62 3477.96 3311.33C3537.29 3316.37 3602.99 3357.42 3610.1 3420.35ZM4297.84 3286.64C4273.46 3303.73 4257.64 3315.99 4246.84 3345.4L4246.83 3345.41C4246.54 3346.2 4246.24 3347.01 4245.93 3347.85C4236.8 3372.86 4219.19 3421.04 4186.97 3421.04C4183.24 3421.04 4179.57 3421.12 4175.99 3421.21C4150.19 3421.83 4129.05 3422.33 4124.57 3389.17C4119.16 3349.09 4111.81 3335.59 4098.55 3321.3C4093.33 3315.68 4086.21 3313.12 4078.78 3310.45C4068.87 3306.9 4058.41 3303.14 4051.17 3291.69C4036.27 3268.11 4081.19 3246.06 4101.91 3235.89C4104.18 3234.78 4106.15 3233.81 4107.73 3233C4127.92 3222.58 4143.42 3211.04 4158.26 3199.99C4173.61 3188.56 4188.26 3177.66 4206.63 3169.09C4241.91 3152.65 4289.6 3151.57 4328.08 3151.64C4353.82 3151.69 4395.37 3154.89 4396.03 3188.97C4396.74 3225.24 4353.56 3251.81 4319.99 3272.46C4311.77 3277.52 4304.12 3282.23 4297.84 3286.64ZM4540.95 3310.06C4538.41 3321.57 4535.87 3333.09 4532.42 3344.37V3344.38C4522.56 3376.66 4502.65 3410.76 4464.71 3410.76C4437.2 3410.76 4412.14 3395.38 4389.31 3381.36L4387.32 3380.14C4365.93 3367.01 4339.49 3350.09 4330.47 3325.28C4317.07 3288.38 4348.9 3266.14 4380.52 3244.05C4402.24 3228.88 4423.86 3213.78 4430.62 3194.05C4435.93 3178.53 4435.42 3162.31 4434.12 3146.19C4433.93 3143.89 4433.6 3141.3 4433.25 3138.54C4431.68 3126.25 4429.69 3110.61 4438.24 3102.38C4452.31 3088.84 4480.33 3105.76 4494.93 3114.58C4495.84 3115.14 4496.7 3115.66 4497.5 3116.13C4532.94 3137.3 4596.8 3181.05 4571.95 3229.72C4569.87 3233.79 4567.77 3237.72 4565.7 3241.6C4558.19 3255.69 4551.06 3269.04 4546.77 3285.31C4544.6 3293.5 4542.78 3301.78 4540.95 3310.06ZM3924.29 3175.54C3928 3206.86 3909.06 3232.48 3889.4 3254.57C3884.24 3260.37 3879.08 3266.4 3873.87 3272.48C3839.48 3312.65 3802.85 3355.43 3746.21 3355.43C3695.68 3355.43 3638.96 3324.29 3650.65 3265.82C3659.08 3223.63 3695.76 3193.7 3728.68 3169.56C3767.85 3140.85 3826.33 3105.76 3876.92 3120.71C3901.94 3128.1 3921.17 3149.34 3924.29 3175.54ZM3647.66 3223.58C3640.17 3231.57 3633.1 3244.19 3633.17 3263.8L3633.16 3263.82C3633.28 3295 3624.99 3328.48 3586.17 3328.48C3555.72 3328.48 3519.95 3311.08 3492.11 3297.55C3490.93 3296.98 3489.77 3296.41 3488.63 3295.86C3455.03 3279.56 3465.59 3252.57 3478.66 3224.67C3485.95 3209.11 3490.8 3191.47 3495.71 3173.65C3505.73 3137.23 3515.96 3100.06 3547.58 3078.3C3591.74 3047.92 3665.6 3068.01 3701.98 3103.24C3722.3 3122.92 3723.14 3138.43 3704.62 3162.79C3702.45 3165.65 3700.43 3168.38 3698.48 3171.02C3690.3 3182.09 3683.31 3191.55 3670.81 3202.24C3666.56 3205.86 3654.32 3216.48 3647.66 3223.58ZM4039.48 3270.76C4036.38 3279.23 4029.02 3297.54 4007.96 3299.44H4007.95C3993.44 3300.75 3982.53 3303.48 3973.03 3305.85C3963.79 3308.16 3955.9 3310.14 3947.34 3310.14C3912.39 3310.13 3890.32 3290.85 3905.25 3255.28C3909.61 3244.9 3915.22 3235.79 3920.66 3226.94C3931.91 3208.67 3942.47 3191.52 3939.89 3166.59C3936.67 3135.51 3935.19 3104.38 3966.65 3087.54C3986.15 3077.09 4009.4 3071.39 4031.62 3065.94C4037.78 3064.43 4043.86 3062.93 4049.75 3061.37C4082.03 3052.79 4116.68 3048.58 4149.83 3054.07C4175.11 3058.25 4209.1 3071.72 4222.9 3096.11C4236.4 3119.98 4210.74 3148.12 4181 3169.49C4155.33 3187.95 4126.77 3204.91 4113.31 3212.43C4102.22 3218.62 4092.8 3222.92 4084.68 3226.63C4062.32 3236.84 4049.81 3242.55 4039.48 3270.76ZM3979.6 3316.99C3999.1 3310.85 4017.32 3305.11 4049.38 3311.37H4049.37C4098.49 3320.97 4102.65 3342 4109.97 3378.9C4112.95 3393.95 4116.46 3411.64 4123.75 3432.27C4147.46 3499.31 4090.36 3512.13 4036.05 3524.32C4032.67 3525.08 4029.3 3525.83 4025.96 3526.6C4020.2 3527.93 4013.9 3529.54 4007.23 3531.26C3965.66 3541.93 3909.58 3556.33 3878.51 3527.89C3858.94 3509.94 3823.86 3453.17 3817.13 3432.27C3816.63 3430.7 3816.12 3429.17 3815.62 3427.65C3809.48 3408.93 3804.39 3393.42 3812.2 3368.27C3822.88 3333.96 3843.36 3312.76 3872.54 3319.57C3929.33 3332.84 3955.44 3324.61 3979.6 3316.99ZM3664.94 4120.04C3660.23 4147.33 3653.66 4176.39 3634.07 4197.11L3634.09 4197.1C3613.81 4218.55 3584.35 4227.28 3555.47 4227.28C3499.34 4227.28 3432.38 4200.05 3408.01 4146.13C3400.63 4129.81 3397.93 4111.71 3395.3 4094.07C3395.12 4092.8 3394.93 4091.54 3394.74 4090.28L3394.73 4090.24C3390.88 4064.68 3385.79 4030.83 3402.14 4008.2C3419.32 3984.43 3448.6 3988.69 3474.15 3992.41C3476.79 3992.8 3479.4 3993.18 3481.95 3993.52C3498.86 3995.78 3515.92 3995.97 3532.97 3996.15C3552.33 3996.35 3571.68 3996.56 3590.81 3999.81C3619.55 4004.7 3648.2 4016.96 3660.66 4044.98C3671.01 4068.28 3669.16 4095.55 3664.94 4120.04ZM3917.41 4141.6C3846.14 4217.77 3695.85 4290.44 3680.47 4222.96C3668.35 4169.78 3671.28 4134.8 3672.87 4115.78C3673.09 4113.12 3673.29 4110.78 3673.41 4108.74C3674.44 4092.1 3677.14 4075.52 3680.55 4059.1C3687.13 4027.38 3701.58 3987.85 3740.96 3977.39C3781.03 3966.74 3829.51 3990.43 3857.05 4006.74C3859.18 4008 3861.56 4009.37 3864.12 4010.85C3901.18 4032.21 3978.22 4076.61 3917.41 4141.6ZM4054.13 3946.39C4077.68 3963.27 4096.49 3988.77 4072.55 4011.45L4072.54 4011.44C4054.07 4028.94 4017.91 4032.33 3994.4 4032.33C3941.81 4032.33 3876.92 4014.33 3832.52 3984C3806.86 3966.46 3795.45 3944.86 3798.3 3916.77C3801.53 3884.82 3814.94 3870.2 3834.98 3849.42C3845.28 3838.74 3850.12 3825.44 3854.27 3814.04C3859.07 3800.86 3862.94 3790.22 3873.26 3789.11C3880.74 3788.3 3885.43 3790.93 3890.95 3794.01C3894.06 3795.75 3897.44 3797.65 3901.74 3799.15C3911.01 3802.39 3929.03 3804.87 3946.26 3802.91C3948.73 3802.63 3951.17 3802.3 3953.57 3801.97C3964.42 3800.49 3974.72 3799.08 3985.99 3802.7C4005.61 3809.03 4009.87 3841.13 4012.66 3862.19C4013.08 3865.35 4013.47 3868.26 4013.87 3870.79C4019.17 3904.4 4025.86 3926.13 4054.13 3946.39ZM3530.94 3777.42C3562.32 3784.96 3587.47 3809.89 3599.13 3839.44H3599.14C3622.1 3897.6 3588.11 3984.48 3517.43 3984.48C3495.94 3984.48 3475.69 3977.75 3455.41 3971.01C3438.39 3965.36 3421.35 3959.7 3403.56 3958.01C3397.28 3957.42 3389.57 3958.43 3381.5 3959.49C3362.08 3962.03 3340.65 3964.84 3332.4 3946.17C3319.67 3917.33 3341.26 3887.69 3361.52 3869.38C3384.91 3848.22 3410.68 3828.27 3435.66 3809.05C3462.86 3788.14 3495.35 3768.88 3530.94 3777.42ZM3776.43 3908.94C3773.55 3914.74 3770.66 3920.54 3767.4 3926.14V3926.13C3752.81 3951.17 3724.04 3976 3693.54 3976C3646.38 3975.99 3632.57 3920.03 3622.69 3880C3621.16 3873.82 3619.73 3868.02 3618.29 3862.87C3609.57 3831.77 3593.83 3810.17 3575.84 3786.23C3556.29 3760.23 3583.62 3746.18 3607.22 3739.54C3637.42 3731.07 3668.72 3732.77 3699.63 3734.84C3708.18 3735.41 3716.77 3735.75 3725.36 3736.09C3743.76 3736.81 3762.19 3737.53 3780.34 3740.6C3803.85 3744.57 3831.35 3753 3840.7 3777.42C3850.6 3803.23 3837.87 3830.57 3820.84 3849.84C3817.34 3853.8 3813.65 3857.6 3809.97 3861.39C3803.36 3868.2 3796.75 3875.01 3791.2 3882.79C3785.36 3891 3780.89 3899.97 3776.43 3908.94Z" fill="black"/>
</svg>
