<svg viewBox="0 0 24 24" fill="none" xmlns="http://www.w3.org/2000/svg"><path fill-rule="evenodd" clip-rule="evenodd" d="M10.9424 5.8328c-.127.4233-.2416.895-.3411 1.4076.4572.1932.9249.4068 1.3988.6395.474-.2327.9416-.4463 1.3989-.6395-.0995-.5126-.2142-.9843-.3412-1.4076-.2325-.7752-.4914-1.3364-.7376-1.6834-.1693-.2387-.2799-.3073-.3201-.326-.0401.0187-.1507.0873-.32.326-.2462.347-.5051.9082-.7377 1.6834Zm4.1803.7589c-.0961-.4555-.2042-.8842-.3234-1.2813-.2609-.8698-.5897-1.64-.9961-2.213C13.4135 2.5482 12.8174 2 12.0001 2c-.8172 0-1.4134.5481-1.803 1.0975-.4064.573-.7352 1.343-.9962 2.2129-.1191.3971-.2273.8258-.3233 1.2813-.4424-.1445-.8676-.2652-1.271-.3605-.8838-.209-1.7152-.3094-2.4146-.2439C4.5214 6.05 3.7485 6.2922 3.3398 7c-.4086.7078-.2319 1.4982.049 2.1103.2931.6385.7957 1.3083 1.4186 1.9692.2843.3017.6014.6097.9478.9206-.3464.3108-.6634.6187-.9477.9204-.6228.6609-1.1255 1.3307-1.4185 1.9692-.281.6121-.4577 1.4025-.049 2.1103.4086.7078 1.1815.95 1.8521 1.0127.6994.0654 1.5308-.0349 2.4146-.2439.4034-.0953.8286-.216 1.271-.3605.096.4554.2041.884.3232 1.281.261.8699.5897 1.64.9961 2.2131.3897.5493.9858 1.0976 1.8031 1.0976.8174 0 1.4135-.5483 1.8031-1.0976.4064-.5731.7352-1.3432.9961-2.2131.1192-.397.2273-.8256.3233-1.2809.4425.1445.8678.2652 1.2713.3606.8837.2089 1.715.3092 2.4145.2437.6705-.0627 1.4433-.3049 1.8519-1.0127.4087-.7078.232-1.4981-.0489-2.1102-.293-.6385-.7955-1.3083-1.4183-1.9692-.2844-.3017-.6015-.6097-.9479-.9205.3465-.311.6636-.619.948-.9207.6228-.6609 1.1254-1.3307 1.4183-1.9692.281-.6121.4576-1.4024.049-2.1102-.4087-.7078-1.1814-.95-1.852-1.0127-.6994-.0655-1.5308.0348-2.4145.2437-.4035.0954-.8288.216-1.2713.3607Zm-4.9226 4.3691a29.7704 29.7704 0 0 1 1.8-1.0392 29.561 29.561 0 0 1 1.8001 1.0392 29.7332 29.7332 0 0 1-.0001 2.0785 29.631 29.631 0 0 1-1.8 1.0392 29.7635 29.7635 0 0 1-1.8-1.0392A29.4997 29.4997 0 0 1 10.182 12c0-.3523.0061-.6991.0181-1.0392Zm-3.0213 2.2077c-.394.3423-.7451.6774-1.0481.9989-.5552.5891-.9117 1.094-1.0893 1.4807-.122.266-.1262.3961-.1223.4402.0363.0254.151.0869.4424.1141.4237.0397 1.0391-.0167 1.8269-.203.43-.1016.8957-.2382 1.3892-.4082a27.262 27.262 0 0 1-.1456-1.5311 27.2938 27.2938 0 0 1-1.2532-.8916Zm9.6428-2.3369a27.3488 27.3488 0 0 0-1.2533-.8917 27.2651 27.2651 0 0 0-.1456-1.5311c.4936-.1701.9595-.3067 1.3896-.4084.7877-.1862 1.4031-.2426 1.8267-.2029.2914.0273.4061.0888.4423.1142.004.044-.0002.1742-.1222.4402-.1775.3867-.534.8915-1.0891 1.4805-.3031.3216-.6543.6568-1.0484.9992Zm-1.2533 3.2285a27.31 27.31 0 0 0 1.2533-.8916c.394.3424.7452.6775 1.0482.9991.5551.589.9117 1.0938 1.0891 1.4805.1221.266.1262.3961.1223.4402-.0362.0254-.1509.0869-.4423.1142-.4237.0396-1.0391-.0167-1.8268-.2029-.43-.1017-.8958-.2383-1.3894-.4083a27.3596 27.3596 0 0 0 .1456-1.5312Zm-4.9669 2.6995a27.2028 27.2028 0 0 0 1.3987-.6394c.474.2327.9416.4462 1.3988.6395-.0995.5123-.2141.984-.3411 1.4072-.2325.7753-.4915 1.3365-.7376 1.6836-.1693.2387-.2799.3074-.3201.326-.0401-.0186-.1507-.0873-.32-.326-.2462-.3471-.5051-.9083-.7377-1.6836-.1269-.4232-.2416-.8949-.341-1.4073ZM8.432 9.94a27.3063 27.3063 0 0 0-1.2532.8916c-.394-.3423-.7452-.6775-1.0482-.999-.5552-.5891-.9118-1.094-1.0893-1.4807-.122-.266-.1262-.396-.1223-.4402.0362-.0254.151-.0869.4423-.1141.4237-.0397 1.0392.0167 1.827.203.43.1016.8957.2382 1.3892.4082A27.2647 27.2647 0 0 0 8.432 9.94Z" fill="currentcolor"/></svg>