<svg viewBox="0 0 24 24" fill="none" xmlns="http://www.w3.org/2000/svg"><path d="M21.9014 15.5009s.2056-1.9471.023-3.4972c-.188-1.596-.9932-4.4978-.9932-4.4978-.4966-1.999-2.0855-3.2397-4.2681-2.969-1.0477.1354-1.9644.6768-2.5755 1.4438H9.9843c-.6111-.767-1.5278-1.3084-2.5755-1.4438-2.1826-.2707-3.8588.97-4.3555 2.969 0 0-.7304 2.0818-.9932 4.4978-.1476 1.3577.0231 3.4972.0231 3.4972.0977 1.3084 1.135 3.7449 3.0557 3.9705 1.7024.2256 3.3176-.9024 3.754-2.6621l.5239-2.0754h5.1073l.5238 2.0754c.4366 1.7146 2.0517 2.8425 3.7541 2.6621 2.1292-.4712 3.0994-2.9699 3.0994-3.9705ZM6.4484 8.7781c-.611 0-1.135-.4963-1.135-1.173 0-.6769.4803-1.1732 1.135-1.1732.6548 0 1.135.4963 1.135 1.1731 0 .6768-.4802 1.1731-1.135 1.1731Zm10.7822-2.8876c.4365 0 .7857.361.7857.8121 0 .4512-.3492.8122-.7857.8122-.4366 0-.7858-.361-.7858-.8121 0-.4512.3492-.8122.7858-.8122Zm-1.5279 3.2486c-.4365 0-.7857-.361-.7857-.8122 0-.4512.3492-.8121.7857-.8121.4366 0 .7858.361.7858.8121.0436.4512-.3056.8122-.7858.8122Zm1.5279 1.5792c-.4366 0-.7858-.361-.7858-.8122 0-.4512.3492-.8121.7858-.8121.4365 0 .7857.361.7857.8121.0437.4512-.3492.8122-.7857.8122Zm1.5278-1.5792c-.4365 0-.7857-.361-.7857-.8122 0-.4512.3492-.8121.7857-.8121.4365 0 .7857.361.7857.8121.0437.4512-.3492.8122-.7857.8122Z" fill="currentcolor"/></svg>