<svg viewBox="0 0 8000 8000" fill="none"
  xmlns="http://www.w3.org/2000/svg">
  <path fill-rule="evenodd" clip-rule="evenodd" d="M8000 0H0v8000h8000V0ZM4938 4138.4c0 7.7-6.1 15.5-13.6 17.3l-34.9 8.2a58.8 58.8 0 0 0-23.5 13.2l-98.5 98.3c-5.5 5.5-4.4 13 2.4 16.7l24 13.1c6.8 3.8 12.3 13.1 12.3 20.8v93.7c0 7.7-6.3 13.3-14 12.5l-137.4-15a16 16 0 0 1-14-15.6v-53.5a24 24 0 0 1 12.7-20l85-40a96 96 0 0 0 22.5-15.8l98.4-98.2c5.5-5.4 5-13.8-1.1-18.5l-23.1-18.3c-6-4.7-16.2-5-22.6-.7l-54.8 37.5a29.9 29.9 0 0 0-11.6 22v65.5a24 24 0 0 1-12.7 20L4700 4297c-7 3.3-18 2.4-24.4-1.8l-148.8-99.2c-6.4-4.3-15-2.4-19.2 4l-29.7 46.9a26.8 26.8 0 0 0-1 24.2l13.6 25.7a32 32 0 0 0 20.4 14.6l106.5 17.5a17.2 17.2 0 0 1 13.8 16.4v58.4c0 7.7-6.3 15-13.8 16.3l-72.8 11.9a22 22 0 0 0-16.8 16l-8.2 39a15.6 15.6 0 0 0 10.5 17.9l89.7 27.3a20.2 20.2 0 0 1 13.4 18.1v151.5c0 7.7-6.2 13-13.8 11.7l-196.4-33.5a17.3 17.3 0 0 1-13.9-16.3V4579c0-7.8 5.4-17.4 12-21.3l75.6-45.5c6.6-4 13.4-13.4 15-21l9.6-46.6c1.6-7.5-1.9-17.8-7.7-23l-23-20c-5.9-5-15.5-5.1-21.5-.3l-49.3 40.7a33.8 33.8 0 0 0-10.8 23v79.6c0 7.7-6 16-13.3 18.5l-151.4 51c-7.4 2.4-12.6-1.9-11.7-9.5l12.2-101c1-7.6-3.8-17-10.4-21l-49.7-29.5c-6.6-3.9-13.3-1-14.8 6.6l-6.6 33.4a25.6 25.6 0 0 1-16.2 17.7l-142.2 42c-7.5 2.1-13.5-2.4-13.5-10.1v-121.4c0-7.8 6.3-14.1 14-14.2l33.5-.3c7.7 0 11-5.6 7.1-12.4l-37-66.4a23.7 23.7 0 0 0-20.9-11l-22.8 1.8c-7.6.7-14.5-5-15.4-12.7l-16.9-164.7c-.8-7.7 4.8-13.1 12.4-12l167.5 23c7.6 1 15-4.3 16.5-11.9l10.7-57.4c1.5-7.5-1.9-18.2-7.4-23.5l-16.4-16.1c-5.5-5.4-16.1-8.1-23.5-6l-40 11.3a26.4 26.4 0 0 0-16.7 17.4l-12.7 53.5a15.7 15.7 0 0 1-17.1 11.7l-61-8.8c-7.7-1-17-7.5-20.8-14.2l-47.3-83c-3.8-6.8-12.3-9-19-5l-25.5 15.5c-6.6 4-12 13.5-12 21.2v74.7c0 7.7-6 15.9-13.4 18.2l-59.3 18.5a21.8 21.8 0 0 0-14.3 18.1l-1.4 24a13 13 0 0 0 13.2 14h40.5a14 14 0 0 1 14 14v89.4a14 14 0 0 1-14 14h-148.8c-7.7 0-15.5-6-17.3-13.5l-8.4-35a59 59 0 0 0-13.2-23.6l-98.2-98.5c-5.5-5.5-13-4.4-16.7 2.4l-13.2 24a26 26 0 0 1-20.8 12.3h-93.6c-7.7 0-13.3-6.3-12.5-14l15-137.5a16 16 0 0 1 15.6-13.9h53.5a24 24 0 0 1 20 12.7l39.9 84.9c3.3 7 10.4 17.2 15.9 22.6l98 98.4c5.5 5.5 13.9 5 18.6-1l18.3-23.2c4.7-6 5-16.2.7-22.6l-37.5-54.8a29.9 29.9 0 0 0-22-11.6h-65.5a24 24 0 0 1-19.9-12.7l-15.5-33.5c-3.2-7-2.4-18 1.9-24.4l99.2-149c4.2-6.3 2.4-15-4.1-19.1l-46.8-29.8a26.8 26.8 0 0 0-24.3-1l-25.6 13.6a32 32 0 0 0-14.7 20.4l-17.5 106.5a17.2 17.2 0 0 1-16.3 13.9h-58.4a17 17 0 0 1-16.3-13.9l-11.8-72.8a22 22 0 0 0-16-16.7l-39.1-8.2a15.6 15.6 0 0 0-17.8 10.5l-27.4 89.7a20.2 20.2 0 0 1-18.1 13.4h-151.4c-7.8 0-13-6.2-11.7-13.8l33.5-196.5a17.3 17.3 0 0 1 16.3-13.8h84.6c7.7 0 17.3 5.4 21.2 12l45.5 75.6c4 6.7 13.4 13.4 21 15l46.5 9.7c7.6 1.5 18-2 23-7.8l20-23c5-5.9 5.2-15.5.3-21.4l-40.6-49.4a33.8 33.8 0 0 0-23-10.8H3231c-7.7 0-16-6-18.5-13.3l-50.9-151.5c-2.5-7.4 1.8-12.6 9.5-11.6l100.8 12.2c7.7 1 17.1-3.8 21-10.4l29.6-49.8c3.9-6.6 1-13.3-6.6-14.7l-33.4-6.7a25.5 25.5 0 0 1-17.7-16.2l-42-142.2c-2-7.4 2.4-13.5 10.2-13.5h121.4c7.7 0 14 6.3 14.1 14l.3 33.5c.1 7.7 5.7 11 12.4 7.2l66.4-37.1a23.7 23.7 0 0 0 11-20.9l-1.8-22.7c-.7-7.7 5-13.8 12.8-13.6l164.4 4.2a12 12 0 0 1 11.8 14.2l-22.5 142.8c-1.1 7.7 4 15 11.7 16.5l57.3 10.8c7.6 1.4 18.2-2 23.6-7.4l16-16.5c5.5-5.5 8.2-16 6-23.5l-11.2-40a30.3 30.3 0 0 0-17.1-18.1l-25.2-8.8a27.1 27.1 0 0 1-15.9-18.4l-21.5-111.2c-1.4-7.6 3.7-13.8 11.4-13.8h147.2c7.7 0 13.3 6.3 12.3 14l-11 92.8c-1 7.6-7.3 16.7-14.2 20.2l-48 24.5a17.8 17.8 0 0 0-8.8 19.9l11.1 39.6c2 7.4 9.9 15 17.4 16.8l24.8 6a18.9 18.9 0 0 1 13.6 17.4v80.9a14 14 0 0 1-14 14h-58.5c-7.7 0-17.4 5.3-21.6 11.8l-32.5 50.7c-4.2 6.5-4 17 .6 23.2l21.4 29.7a14.4 14.4 0 0 0 19.7 3.4l28.8-20a67.1 67.1 0 0 0 18-20.4l17.7-34.6a33 33 0 0 1 20.2-15.2l121.5-24.3c7.5-1.6 13.7 3.5 13.7 11.2v125.7c0 7.7 6.2 15.2 13.8 16.6l71.8 13.5c7.6 1.4 19-.9 25.5-5.2l9.4-6.2c6.5-4.3 8.2-13 3.8-19.3l-77.8-113.5c-4.3-6.4-8-17.9-8-25.6v-76a14 14 0 0 1 14.1-14.1h121a14 14 0 0 1 14 14v125.4c0 7.7-6 16-13.3 18.5l-60 20.2c-7.3 2.5-9.7 9.7-5.4 16l24 35.2a63.5 63.5 0 0 0 20.5 17.7l19.5 9.7c7 3.4 16.4 3.6 21 .5 4.5-3.2 8.3-12 8.3-19.8v-117.2a14 14 0 0 1 14-14h125.2c7.8 0 16 6 18.5 13.3l20.2 60c2.5 7.3 9.8 9.7 16.1 5.4l35-24a63.6 63.6 0 0 0 17.8-20.5l12.4-25a24.8 24.8 0 0 1 20.2-12.6h57.8a14 14 0 0 1 14 14v77.2c0 7.7-6.2 13.3-13.9 12.5l-54.9-6c-7.6-.9-15 4.6-16.5 12.3l-12.6 67.3c-1.4 7.6 1.5 13.8 6.5 13.8s8.6 6.3 8 14l-10 121a27.5 27.5 0 0 1-13.8 20.1l-42.2 20.5c-7 3.4-9 11.4-4.7 17.7l18.3 26.6a29.9 29.9 0 0 0 21.9 11.6H4485c7.7 0 15 6.2 16 13.8l12.4 83.4a35.2 35.2 0 0 0 13.8 21.4l17.9 11.5a13.2 13.2 0 0 0 18.7-4.5l44.8-78.6a26.8 26.8 0 0 1 21-12.2h102.3a14 14 0 0 1 14 14v41.6c0 7.8 5.3 10.5 11.6 6.2l52.3-35.9a29.9 29.9 0 0 0 11.6-22v-41.7c0-7.6-6.3-14.4-14-15l-22-1.5a24.4 24.4 0 0 0-20.9 11.3l-12 21.3a26.7 26.7 0 0 1-21 12.3l-96.6.6c-7.7.1-13.5-6.2-12.8-13.8l10-112.6c.6-7.7 7.5-14 15.2-14h86.7c7.7 0 15.5 6.2 17.3 13.7l14 58.8c1.9 7.5 9.6 14 17.3 14.5l24 1.4a13 13 0 0 0 14-13.2v-40.5a14 14 0 0 1 14-14h89.4a14 14 0 0 1 14 14v148.8Zm-1435.8-264.5c6.8-3.6 13-13 13.7-20.6l15-152.4c.8-7.7-4.8-15-12.5-16.1l-95.3-15a19.7 19.7 0 0 1-15.6-16.1l-6-48.4c-1-7.7-7.9-15-15.5-16.4l-36-6.4c-7.6-1.4-17 3-20.9 9.6l-28.7 49c-4 6.7-.9 13 6.7 14.3l45 7.1a13.1 13.1 0 0 1 10.8 16L3336 3799c-1.6 7.6 1 18.6 6 24.5l38.2 46c4.9 6 15.1 12 22.7 13.5l46.2 9c7.6 1.5 19.3-.2 26.1-3.8l27-14.5Zm-14.7-215.5a20.4 20.4 0 0 0 16 16l144.2 22.5c7.6 1.2 17.5-3 21.9-9.3l32.7-47.2a44.2 44.2 0 0 0 6.5-25.5l-5-47.8a19.9 19.9 0 0 0-15.3-16.5l-55.5-10.2a15 15 0 0 0-17 11.2l-11.8 49.7a15.9 15.9 0 0 1-17.1 11.8l-93.4-12.3c-7.7-1-14.5-8.2-15.3-15.9l-14.9-153.6c-.7-7.7-6.8-10.9-13.6-7.2l-68.7 38.1a26.4 26.4 0 0 0-12.3 20.9l-.2 80.6c0 7.7 6.2 15.2 13.8 16.6l82.3 15.5a21.1 21.1 0 0 1 15.9 16.5l6.8 46Zm370.6 353.8a42 42 0 0 0 16-20.8l4.5-15a42.6 42.6 0 0 0-2-26.2l-6-13a28.2 28.2 0 0 0-20-14.3l-78.4-9.3c-7.7-1-14-8-13.9-15.8l.2-20c0-7.8-6.2-15.3-13.8-16.7l-24.6-4.6a11.2 11.2 0 0 0-13.8 11.4v21.2c0 7.8-6.3 15-13.9 16.1l-83.3 12.3a35.2 35.2 0 0 0-21.4 13.9l-11.5 17.8a13.2 13.2 0 0 0 4.6 18.8l78.5 44.8a26.8 26.8 0 0 1 12.2 21v102.4a14 14 0 0 1-14 14h-41.7c-7.7 0-10.4 5.2-6.1 11.6l35.8 52.3a29.9 29.9 0 0 0 22 11.5h41.7c7.7 0 14.4-6.3 15-14l1.5-22c.5-7.6-4.5-17-11.3-20.9l-21.2-12a26.7 26.7 0 0 1-12.3-21l-.7-96.6c0-7.7 6.2-13.5 13.8-12.8l109.2 9.7c7.6.6 19.3-2 25.9-6.1l29-17.8Zm258.1-25.8a18.8 18.8 0 0 1 17.4-13.7h80.8a14 14 0 0 1 14 14v58.5c0 7.7 5.4 17.4 11.9 21.6l50.6 32.6c6.5 4.1 17 3.9 23.2-.7l29.6-21.4a14.4 14.4 0 0 0 3.4-19.7l-19.9-28.8a67 67 0 0 0-20.4-18l-34.6-17.8a33 33 0 0 1-15.2-20.1l-24.3-121.6a11 11 0 0 1 11.3-13.7h125.6c7.7 0 15.2-6.2 16.6-13.8l13.5-71.9c1.4-7.6-.9-19-5.1-25.4l-6.3-9.4c-4.2-6.5-12.9-8.2-19.3-3.8l-113.4 77.8c-6.4 4.3-17.9 8-25.6 8h-69.3a48 48 0 0 0-23 6.1c-5 3.4-9 12.5-9 20.2v56a14 14 0 0 1-14 14h-77.2c-7.7 0-13.3-6.3-12.5-14l6-54.9c.9-7.6-4.6-15-12.2-16.5l-67.4-12.6a11.2 11.2 0 0 0-13.8 11.4v1.5c0 7.7-6.2 13-13.8 11.8l-121.3-19.2c-7.6-1.2-16.6-8-20-14.8l-20.5-42.3c-3.3-7-11.3-9-17.7-4.7l-26.6 18.3a29.9 29.9 0 0 0-11.5 22v51.3c0 7.8 6.1 15.2 13.8 16.7l24.6 4.6a25 25 0 0 0 22.3-8.5l18.9-24.7c4.6-6.1 14.7-10.1 22.3-8.8l47.3 8a17.3 17.3 0 0 1 13.8 16.4v68.2c0 7.7 2.7 19.8 5.9 26.8l5.7 12.3c3.2 7 12.1 13.3 19.8 14l139.2 11.5c7.7.7 12.8 7.4 11.4 15l-8.4 45.5c-1.4 7.6 3.5 12 11 10l39.5-11.1c7.5-2 15-9.9 16.9-17.4l6-24.8Zm-58 408.2a26.4 26.4 0 0 0 21 12.3l80.5.1c7.7 0 15.2-6.1 16.6-13.7l15.5-82.4a21.2 21.2 0 0 1 16.5-15.8l46-7a20.4 20.4 0 0 0 16-15.9L4293 4128c1.2-7.6-3-17.4-9.4-21.8l-47.1-32.7a44.1 44.1 0 0 0-25.5-6.6l-47.8 5c-7.7.8-15.1 7.7-16.5 15.3l-10.2 55.5a15 15 0 0 0 11.2 17l49.7 11.9a15.9 15.9 0 0 1 11.8 17.1l-12.3 93.4c-1 7.7-8.2 14.5-15.9 15.3l-153.5 14.9c-7.7.7-11 6.9-7.2 13.6l38 68.8Zm429.8-68c1.5-7.6-.3-19.4-3.9-26.2l-14.4-27a29.2 29.2 0 0 0-20.5-13.7l-152.4-15c-7.7-.7-15 4.9-16.1 12.5l-15 95.4a19.7 19.7 0 0 1-16.1 15.6l-48.4 6c-7.6.9-15 7.9-16.3 15.5l-6.5 36c-1.3 7.6 3 17 9.7 20.9l49 28.7c6.6 4 13 1 14.2-6.7l7.1-45a13 13 0 0 1 16-10.8l120.6 26.8c7.6 1.7 18.6-1 24.5-5.9l46-38.2c6-4.9 12-15.2 13.5-22.7l9-46.2Z" fill="currentColor"/>
</svg>
