<svg viewBox="0 0 24 24" fill="none" xmlns="http://www.w3.org/2000/svg"><path fill-rule="evenodd" clip-rule="evenodd" d="M11.5268 21.7041a.9998.9998 0 0 0 1.0122-.0022l2.8744-1.6952c1.3976-.825 2.5543-1.9905 3.358-3.3834.8036-1.3929 1.2268-2.966 1.2286-4.5667V5.3877a.7644.7644 0 0 0-.1416-.4436.787.787 0 0 0-.375-.284l-7.1699-2.605a.7785.7785 0 0 0-.5758 0l-7.2408 2.965a.7863.7863 0 0 0-.36.2833A.7641.7641 0 0 0 4 5.7361v6.3205c.0052 1.6013.432 3.174 1.2392 4.5656.807 1.3916 1.967 2.5548 3.3672 3.3767l2.9204 1.7052Zm-.0726-7.1126a1.022 1.022 0 0 1 .5547-.1649 1.0302 1.0302 0 0 1 .3836.0731c.1216.0486.2322.1199.3254.2098a.9706.9706 0 0 1 .2178.3144.9448.9448 0 0 1 .0769.3712.9464.9464 0 0 1-.1683.5377.9935.9935 0 0 1-.4483.3568 1.0305 1.0305 0 0 1-.5774.0557 1.0108 1.0108 0 0 1-.5121-.2641.9599.9599 0 0 1-.2746-.4951.9397.9397 0 0 1 .0555-.5593.9758.9758 0 0 1 .3668-.4353Zm-2.5417-6.37a8.2864 8.2864 0 0 1 3.0964-.585 8.2858 8.2858 0 0 1 3.0868.5883c.979.3906 1.8689.9643 2.6188 1.6882a.9302.9302 0 0 1 .2113.3037.9065.9065 0 0 1 0 .718.9309.9309 0 0 1-.2113.3036c-.1834.1763-.4312.2752-.6896.2752-.2584 0-.5063-.0989-.6896-.2752-1.1423-1.125-2.6973-1.7674-4.3264-1.7872-1.6353.0152-3.1976.658-4.3442 1.7872-.183.1767-.431.2759-.6896.2759-.2585 0-.5065-.0992-.6896-.2759a.9314.9314 0 0 1-.2113-.3036.9064.9064 0 0 1 0-.718.9307.9307 0 0 1 .2113-.3037c.752-.726 1.6448-1.3009 2.627-1.6916Zm1.3392 3.1533a4.6006 4.6006 0 0 1 1.7572-.3485 4.5981 4.5981 0 0 1 1.7571.3476 4.4783 4.4783 0 0 1 1.4748.988.919.919 0 0 1 .2681.6463.919.919 0 0 1-.2681.6463.8904.8904 0 0 1-.2947.1996.9157.9157 0 0 1-.7045 0 .889.889 0 0 1-.2946-.1996 2.6156 2.6156 0 0 0-.8779-.6138 2.6883 2.6883 0 0 0-1.0593-.217c-.3649 0-.7257.0739-1.0593.217a2.6146 2.6146 0 0 0-.8779.6138.891.891 0 0 1-.295.2003.9147.9147 0 0 1-.3528.0706.9147.9147 0 0 1-.3528-.0706.8912.8912 0 0 1-.295-.2003.917.917 0 0 1-.268-.6454c0-.2406.096-.4718.268-.6454a4.4799 4.4799 0 0 1 1.4747-.9889Z" fill="currentcolor"/></svg>