<svg viewBox="0 0 24 24" fill="none" xmlns="http://www.w3.org/2000/svg"><path d="M21.8793 6.2301c-.0093-.0783-.0581-.154-.1037-.2301h-.1796c-.0449.0822-.0914.164-.1189.2494-.2365.7352-1.5542 4.3808-3.226 5.5674-.8364-1.6148-3.2605-2.783-6.1221-2.783-.0433 0-.0858.0027-.1289.0034-.0431-.0005-.0856-.0034-.1289-.0034-2.8615 0-5.2857 1.1682-6.122 2.783-1.6719-1.1863-2.9896-4.832-3.226-5.5674-.0275-.0853-.074-.1672-.119-.2494h-.1795c-.0456.076-.0944.1516-.1037.2301-.0534.4533-.145.9104-.1151 1.362.143 2.1512.2503 6.3034.5649 8.4478.2183 1.4863 1.0379 2.7119 2.4716 3.731 1.4802 1.0522 3.2292 1.749 5.1631 2.2047.5913.1393 1.1911.2226 1.7946.2199.6035.003 1.2034-.0806 1.7946-.2199 1.9339-.4557 3.6829-1.1525 5.1631-2.2047 1.4338-1.0191 2.2533-2.2449 2.4714-3.7313.3146-2.1443.4222-6.2966.5649-8.4477.03-.4514-.0617-.9085-.1148-1.3618Zm-5.8445 8.3263c-.4834.5475-1.0658.6317-1.7905.2642-.1593-.0808-.3107-.1711-.4598-.2628-.2864-.1759-.5613-.3625-.8538-.5322-.2983-.1732-.6149-.2542-.9306-.2472-.3157-.007-.6323.074-.9305.2472-.2926.1697-.5674.3565-.8539.5322-.1491.0915-.3002.1818-.4598.2628-.7247.3677-1.307.2833-1.7905-.2642-.2633-.2982-.412-.6234-.2914-.985.082-.2453.1543-.4972.2894-.7269.2592-.441.7408-.6453 1.3822-.6977.3472-.0284 1.569-.0749 2.6545-.0912 1.0853.0163 2.3071.0628 2.6546.0912.6413.0524 1.123.2567 1.3821.6977.1351.2297.2075.4816.2894.7269.1205.3616-.0281.6868-.2914.985Z" fill="currentcolor"/></svg>