<svg width="800" height="140" viewBox="0 0 800 140" fill="none" xmlns="http://www.w3.org/2000/svg">
  <!-- Background with rounded corners and shadow -->
  <defs>
    <filter id="shadow" x="-10%" y="-10%" width="120%" height="130%">
      <feGaussianBlur in="SourceAlpha" stdDeviation="3"/>
      <feOffset dx="0" dy="2" result="offsetblur"/>
      <feComponentTransfer>
        <feFuncA type="linear" slope="0.2"/>
      </feComponentTransfer>
      <feMerge>
        <feMergeNode/>
        <feMergeNode in="SourceGraphic"/>
      </feMerge>
    </filter>
  </defs>
  
  <!-- Main background -->
  <rect x="10" y="10" width="780" height="120" rx="14" fill="#FFC832" filter="url(#shadow)"/>
  
  <!-- Icon container (left side) -->
  <g transform="translate(44, 10)">
    <svg width="87" height="120" viewBox="0 0 87 120" fill="none" xmlns="http://www.w3.org/2000/svg">
      <g clip-path="url(#clip0_2110_761)">
        <g filter="url(#filter0_dd_2110_761)">
          <rect y="21.6289" width="77.7818" height="77.7818" rx="15.1769" fill="#0A3B61"/>
        </g>
        <g clip-path="url(#clip1_2110_761)">
          <path d="M26.7259 36.5447C41.3637 29.0316 68.111 46.3078 66.8252 62.4716C65.5393 78.6353 36.8228 91.9208 23.4585 83.2889C10.0878 74.6258 12.0758 44.0766 26.7259 36.5447Z" fill="#2DBECD"/>
          <path d="M19.9078 54.196C23.737 43.4707 45.4198 39.5211 52.4269 48.2882C59.434 57.0553 51.2332 77.3625 40.3995 79.336C29.5478 81.2968 16.0812 64.9366 19.9078 54.196Z" fill="#FFC832"/>
          <path d="M32.0329 51.2137C35.7219 46.1042 47.8544 47.3488 50.2264 53.0886C52.5984 58.8285 45.1085 68.3563 39.0466 67.7344C32.977 67.1031 28.343 56.3317 32.0329 51.2137Z" fill="#0F69AF"/>
        </g>
        <path fill-rule="evenodd" clip-rule="evenodd" d="M73.9439 38.2276C81.2781 38.2276 87.2237 32.282 87.2237 24.9478C87.2237 17.6135 81.2781 11.668 73.9439 11.668C66.6096 11.668 60.6641 17.6135 60.6641 24.9478C60.6641 32.282 66.6096 38.2276 73.9439 38.2276Z" fill="#E61E50"/>
        <path d="M69.5161 20.5225L78.3693 29.3757" stroke="white" stroke-width="2.84568" stroke-linecap="round" stroke-linejoin="round"/>
        <path d="M69.5161 29.3721L78.3693 20.5189" stroke="white" stroke-width="2.84568" stroke-linecap="round" stroke-linejoin="round"/>
      </g>
      <defs>
        <filter id="filter0_dd_2110_761" x="-7.58847" y="15.9376" width="92.9587" height="92.9587" filterUnits="userSpaceOnUse" color-interpolation-filters="sRGB">
          <feFlood flood-opacity="0" result="BackgroundImageFix"/>
          <feColorMatrix in="SourceAlpha" type="matrix" values="0 0 0 0 0 0 0 0 0 0 0 0 0 0 0 0 0 0 127 0" result="hardAlpha"/>
          <feOffset dy="1.89712"/>
          <feGaussianBlur stdDeviation="3.79424"/>
          <feColorMatrix type="matrix" values="0 0 0 0 0.0588235 0 0 0 0 0.101961 0 0 0 0 0.180392 0 0 0 0.15 0"/>
          <feBlend mode="normal" in2="BackgroundImageFix" result="effect1_dropShadow_2110_761"/>
          <feColorMatrix in="SourceAlpha" type="matrix" values="0 0 0 0 0 0 0 0 0 0 0 0 0 0 0 0 0 0 127 0" result="hardAlpha"/>
          <feOffset/>
          <feGaussianBlur stdDeviation="0.948559"/>
          <feColorMatrix type="matrix" values="0 0 0 0 0.0588235 0 0 0 0 0.101961 0 0 0 0 0.180392 0 0 0 0.15 0"/>
          <feBlend mode="normal" in2="effect1_dropShadow_2110_761" result="effect2_dropShadow_2110_761"/>
          <feBlend mode="normal" in="SourceGraphic" in2="effect2_dropShadow_2110_761" result="shape"/>
        </filter>
        <clipPath id="clip0_2110_761">
          <rect width="87" height="120" fill="white"/>
        </clipPath>
        <clipPath id="clip1_2110_761">
          <rect width="58.8106" height="58.8106" fill="white" transform="translate(11.2852 31.0312)"/>
        </clipPath>
      </defs>
    </svg>
  </g>
  
  <!-- Text content -->
  <g transform="translate(160, 50)">
    <!-- Main text -->
    <text x="0" y="0" font-family="'Noto Sans', 'Segoe UI', Arial, sans-serif" font-size="16" font-weight="400" fill="#0E0E11" opacity="0.8">
      <tspan x="0" dy="0">Liquid Oxygen will shortly be deprecated. Please use Liquid Carbon</tspan>
      <tspan x="0" dy="22">from now on.</tspan>
    </text>
    
    <!-- Link text -->
    <a href="https://carbon.merck.design/" target="_blank">
      <text x="0" y="56" font-family="'Noto Sans', 'Segoe UI', Arial, sans-serif" font-size="16" font-weight="700" fill="#0E0E11" text-decoration="underline">
        Go to Liquid Carbon
      </text>
    </a>
  </g>
</svg>
