<svg viewBox="0 0 8000 8000" fill="none"
  xmlns="http://www.w3.org/2000/svg">
  <path fill-rule="evenodd" clip-rule="evenodd" d="M8000 0H0v8000h8000V0ZM4199.28 3575.28c-35.88 9.72-35.36 68.76-35.36 68.76l5.48 75.72c.52 59.04 37.04 59.28 37.04 59.28l100.68 18.44c9 1.64 18.36-.88 18.36-.88 26.56-7.2 26.04-66.24 26.04-66.24l-1.24-136.88c-.52-59.04-36.44-49.28-36.44-49.28l-114.56 31.08Zm-166.36 70.04c3.72-13.36-9.12-21.28-23.88-27.36-4.9-2-15.1-6.1-23.49-9.47l-.02-.01h-.01l-.04-.02c-7.2-2.89-13.04-5.24-13.04-5.26-20.72-8.32-27.52-8.84-39.6 3.84-8.16 8.56-32.52 34.4-32.52 34.4-8 8.24-6.12 20.8 17.96 30.88 18.44 7.72 66.32 27.08 66.32 27.08 22.52 8.28 32.92 1.8 35.64-8.68 3.72-14.36 12.68-45.4 12.68-45.4Zm-20.8 473.4c3.72-13.36-9.12-21.28-23.88-27.36-4.9-2-15.11-6.1-23.5-9.47l-.02-.01-.08-.03-.1-.04-.08-.03-.11-.05c-7.04-2.83-12.71-5.11-12.71-5.13-20.72-8.32-27.52-8.84-39.6 3.84-8.16 8.56-32.52 34.4-32.52 34.4-8 8.24-6.12 20.8 17.96 30.88 18.44 7.72 66.32 27.08 66.32 27.08 22.52 8.28 32.92 1.8 35.64-8.68 3.72-14.36 12.68-45.4 12.68-45.4Zm-33.32-303.4c12.6-9.8 25.88-17 35.6-7.12 0 0 22.48 23.24 33.08 33.56 7.76 7.56 8.16 19.84-10.2 35.24 0 0-40.6 31.92-56.44 44.08-20.72 15.88-32.56 11.24-35.72.24 0 0-10.32-33.96-13.68-45.32-5-16.8-1.16-22.44 16.4-36.28 0 0 23.2-18.36 30.96-24.4Zm-325.36 19.76c4.88-16.88 23.92-16.92 43.84-13.64 12.32 2 49.12 8.4 49.12 8.4 27.84 4.76 35.44 8.68 40.08 30.36 3.12 14.64 12.2 58.56 12.2 58.56 3.12 14.16-7.2 26.44-39.8 21.32-24.92-3.92-89.28-14.8-89.28-14.8-29.68-6-36.64-19.88-32.6-32.96 5.52-17.88 16.44-57.24 16.44-57.24Zm520.44 127.32c-19.92-3.28-38.96-3.24-43.84 13.64 0 0-10.92 39.36-16.44 57.24-4.04 13.08 2.92 26.96 32.6 32.96 0 0 64.36 10.88 89.28 14.8 32.6 5.12 42.92-7.16 39.8-21.32 0 0-9.08-43.92-12.2-58.56-4.64-21.68-12.24-25.6-40.08-30.36 0 0-36.84-6.4-49.12-8.4Zm-587.8-254.64c.12 17.56-18.12 22.96-38.16 25.48a5694.02 5694.02 0 0 1-49.48 5.84c-28.04 3.32-36.48 1.72-47.04-17.76-7.16-13.16-28.28-52.72-28.28-52.72-7.04-12.68-.56-27.4 32.12-31.72 25-3.32 89.8-11.08 89.8-11.08 30.2-2.64 40.76 8.72 40.6 22.4-.24 18.72.44 59.56.44 59.56Zm-122.28 292.32c-15.88 2.68-30.92 3.28-34.12-7.2 0 0-7.16-24.48-10.84-35.56-2.68-8.12 3.32-17.08 27-21.84 0 0 51.28-8.92 71.12-12.2 25.96-4.28 33.64 3.16 30.64 12.16 0 0-8.84 28-11.84 37.32-4.48 13.8-10.64 16.52-32.84 20.44.04 0-29.32 5.2-39.12 6.88Zm-34.76 225.88c-1.6 10.84 12.28 16.76 27.76 21.12 9.56 2.68 38.32 10.56 38.32 10.56 21.72 5.96 28.48 6.16 38.44-4.4 6.72-7.12 26.68-28.64 26.68-28.64 6.6-6.84 2.8-16.84-22.48-24.12-19.32-5.52-69.48-19.44-69.48-19.44-23.44-5.84-32.72-.32-33.76 8.16-1.44 11.6-5.48 36.76-5.48 36.76Zm93.72-207.36c-27.84-4.56-54.48-4.48-61.24 19.08 0 0-15.24 55.04-22.96 80.08-5.64 18.28 4.08 37.68 45.56 46.08 0 0 89.92 15.2 124.76 20.68 45.56 7.12 60-10.04 55.6-29.84 0 0-12.68-61.44-17.04-81.88-6.44-30.28-17.12-35.8-56.04-42.44 0-.04-51.48-8.96-68.64-11.76Zm616.52-204.64c7.08-24.56 34.84-24.64 63.84-19.88 14.56 2.41 52.71 8.99 66.52 11.37h.01l.05.01 5.02.86c40.56 6.88 51.68 12.64 58.4 44.2 4.52 21.32 17.76 85.32 17.76 85.32 4.56 20.64-10.48 38.52-57.96 31.08-36.32-5.68-130.08-21.52-130.08-21.52-43.24-8.8-53.36-29-47.48-48.04 8.04-26.08 23.92-83.4 23.92-83.4Zm-599.72-59.16c26.92-5 52.84-5.6 60.44 16.36 0 0 17.16 51.24 25.72 74.52 6.24 17-2.36 35.44-42.44 44.4 0 0-86.92 16.52-120.6 22.52-44.04 7.88-58.84-7.88-55.4-26.56 0 0 9.76-57.96 13.16-77.24 5-28.6 15.16-34.04 52.76-41.24 0 0 49.76-9.68 66.36-12.76Zm453.08 314.56c17.52 23.44 52.88 1.08 52.88 1.08l43.76-32.28c35.32-22.36 23.6-49.96 23.6-49.96l-21.64-82.76c-1.92-7.4-6.48-13.48-6.48-13.48-12.96-17.36-48.32 5-48.32 5l-81.96 51.84c-35.36 22.36-17.8 45.8-17.8 45.8l55.96 74.76Zm-194.4-246.48s-48.44-20.8-42.12-54.12l20.16-106.4s6.32-33.36 54.76-12.56l112.32 48.2s48.44 20.8 43.76 45.44c0 0-1.64 8.68-6.56 15.56l-55.12 77.08s-14.72 30.28-63.12 9.48l-64.08-22.68Zm-61.32 490.88c15.76-26.28-19.48-55.44-19.48-55.44l-48.04-34.56c-35.2-29.16-57.24-7.52-57.24-7.52l-71.28 50.84c-6.36 4.56-10.48 11.4-10.48 11.4-11.68 19.48 23.56 48.64 23.56 48.64l81.68 67.64c35.24 29.16 51 2.88 51 2.88l50.28-83.88Zm582.88-22.32s-57.24-11.12-61.32-46.56l-13-113.16s-4.08-35.48 53.16-24.36l132.72 25.76s57.24 11.12 60.24 37.32c0 0 1.04 9.24-1.88 17.32l-32.88 90.48s-5.68 34.08-62.92 22.96l-74.12-9.76Zm-291.04-173.52c6.72-33.28 59.4-34.28 59.4-34.28l67.88 3.16c52.72-.96 54.92 32.6 54.92 32.6l22 92.16c1.96 8.24.2 16.88.2 16.88-5 24.6-57.68 25.6-57.68 25.6l-122.2 2.32c-52.68 1-45.96-32.28-45.96-32.28l21.44-106.16Zm-233.84 188.36s-48.44-20.8-42.12-54.12l20.16-106.4s6.32-33.36 54.76-12.56l112.32 48.2s48.44 20.8 43.76 45.44c0 0-1.64 8.68-6.56 15.56l-55.12 77.08s-14.72 30.28-63.12 9.48l-64.08-22.68Zm568.68-370.68c7.52 40.4 66.52 35 66.52 35l75.96-12.52c58.96-5.4 61.44-47.32 61.44-47.32l24.6-117.08c2.2-10.44.24-20.96.24-20.96-5.56-29.88-64.56-24.48-64.56-24.48L4391 3760.8c-58.96 5.44-51.44 45.84-51.44 45.84l24.04 128.96Zm-128.96 340.04s66.48 2.24 81.36 37.08l47.52 111.08s14.92 34.84-51.56 32.56l-154.16-5.2s-66.48-2.24-77.52-28c0 0-3.88-9.08-3-17.6l9.8-95.52s-3.72-34.92 62.76-32.68l84.8-1.72ZM3723.6 4112.6s-34.68 12.68-45.64-10.56l-34.92-74.08s-10.96-23.24 23.76-35.88l80.48-29.36s34.68-12.68 42.8 4.52c0 0 2.84 6.04 3.16 12.72l3.72 74.64s5.16 25.72-29.56 38.4l-43.8 19.6Zm740.32-16.88c-.88 24.52-45.28 20.76-45.28 20.76l-57.84-8.16c-44.4-3.76-51.12-29.28-51.12-29.28l-31.88-71.4c-2.84-6.36-2.6-12.76-2.6-12.76.68-18.16 45.08-14.4 45.08-14.4l102.96 8.72c44.4 3.76 43.52 28.28 43.52 28.28l-2.84 78.24Zm-431.08-393.12s16.36-33.12 40.32-23.88l76.4 29.48s23.96 9.24 7.6 42.36l-37.92 76.8s-16.36 33.12-34.08 26.28c0 0-6.24-2.4-11.08-7l-54.24-51.44s-21.48-15.04-5.12-48.16l18.12-44.44Zm-407.36-36.6c-25.2 4.88-21.48 41.64-21.48 41.64l8.2 47.28c3.92 33.64 29.92 38.08 29.92 38.08l73.28 14.8c6.56 1.32 13.12.04 13.12.04 18.64-3.6 14.92-40.36 14.92-40.36l-8.64-85.2c-3.72-36.76-28.92-31.88-28.92-31.88l-80.4 15.6Zm236.68 326.32s24.84-14.44 35.52-.72l33.96 43.84s10.64 13.72-14.2 28.2l-57.64 33.52s-24.84 14.44-32.72 4.28c0 0-2.76-3.56-3.72-8l-10.52-49.56s-6.56-16.4 18.32-30.88l31-20.68Zm46.48-29.4c19.32-3.8 16.4-31.96 16.4-31.96l-6.48-36.2c-2.92-28.2-23-29.16-23-29.16l-56.2-11.2c-5-1-10.04 0-10.04 0-14.28 2.8-11.36 30.96-11.36 30.96l6.8 65.32c2.92 28.16 22.24 24.36 22.24 24.36l61.64-12.12Zm-59.8 436.08s-2.96 25.48-23.24 24.16l-64.68-4.16s-20.28-1.28-17.28-26.76l6.92-59.08s3-25.48 17.96-24.52c0 0 5.28.32 10.12 2.44l54.32 23.32s20.04 5.68 17.08 31.16l-1.2 33.44Zm201.28-18.2c19.68.2 22.48-28 22.48-28l1-36.76c2.8-28.2-16.68-33.2-16.68-33.2l-52.8-22.28c-4.72-2-9.84-2.04-9.84-2.04-14.56-.16-17.36 28.04-17.36 28.04l-6.48 65.36c-2.8 28.2 16.88 28.36 16.88 28.36l62.8.52Zm-379.44-205.24s-6.64 23.32 7.72 29.88l45.72 20.92s14.32 6.56 20.96-16.76l15.4-54.08s6.64-23.32-3.96-28.16c0 0-3.72-1.72-7.76-1.72l-45.16-.28s-15.68-2.64-22.32 20.68l-10.6 29.52Zm288.28 231.36c-1.8 15.68-26.04 16.56-26.04 16.56l-31.32-.96c-24.24.88-26.56-14.84-26.56-14.84l-13.68-43.04c-1.24-3.84-.76-7.92-.76-7.92 1.32-11.6 25.56-12.48 25.56-12.48l56.2-2.04c24.2-.88 22.4 14.76 22.4 14.76l-5.8 49.96Zm-312.56-438.24s10.8-21.72-2.12-30.8l-41.16-28.92s-12.88-9.08-23.68 12.64l-25 50.36s-10.8 21.72-1.24 28.44c0 0 3.36 2.36 7.32 3.12l44.36 8.52s14.92 5.48 25.72-16.24l15.8-27.12Z" fill="currentColor"/>
</svg>
