<svg xmlns="http://www.w3.org/2000/svg" width="24" height="24" fill="none" viewBox="0 0 24 24"><path fill="currentcolor" fill-rule="evenodd" d="M7 2.714V5.5S9 5 12 5s5 .5 5 .5V2.714A.715.715 0 0 0 16.286 2H7.714A.714.714 0 0 0 7 2.714Zm9.065 12.71a.5.5 0 0 0-.494-.424H8.429a.5.5 0 0 0-.494.424l-.866 5.625a.476.476 0 0 0 .376.546C8.194 21.74 9.837 22 12 22s3.806-.26 4.555-.405a.476.476 0 0 0 .376-.546l-.866-5.625Zm5.935.147V9.143A2.143 2.143 0 0 0 19.857 7s-2.28-.5-7.857-.5-7.857.5-7.857.5A2.143 2.143 0 0 0 2 9.143v6.428a2.143 2.143 0 0 0 2.143 2.143h1.385a.5.5 0 0 0 .479-.356l.764-2.55a.714.714 0 0 1-.485-.665.714.714 0 0 1 .714-.714h10a.714.714 0 0 1 .714.714.714.714 0 0 1-.485.664l.764 2.55a.5.5 0 0 0 .48.357h1.384A2.143 2.143 0 0 0 22 15.571ZM6 9a1 1 0 1 0 0 2 1 1 0 0 0 0-2Z" clip-rule="evenodd"/></svg>