<svg xmlns="http://www.w3.org/2000/svg" width="24" height="24" fill="none" viewBox="0 0 24 24"><path fill="currentcolor" fill-rule="evenodd" d="M21.478 8.802A2.496 2.496 0 0 1 18.5 8a2.5 2.5 0 0 1-2.292-3.5 2.492 2.492 0 0 1-.127-1.632A9.964 9.964 0 0 0 12 2C6.477 2 2 6.477 2 12s4.477 10 10 10 10-4.477 10-10a9.988 9.988 0 0 0-.522-3.198Zm-9.124-4.156a.5.5 0 0 1 .707 0l1.293 1.293a.5.5 0 0 1-.708.707l-1.292-1.292a.5.5 0 0 1 0-.708ZM15 12a3 3 0 1 1-6 0 3 3 0 0 1 6 0Zm-2 6.882a.5.5 0 1 0 .447.894l1.106-.552a.5.5 0 1 0-.447-.895L13 18.882Zm-8.707-6.59a1 1 0 0 1 0-1.413l.586-.586a1 1 0 1 1 1.414 1.414l-.586.586a1 1 0 0 1-1.414 0Zm13.768 2.354a.5.5 0 0 0-.707.708l1.292 1.292a.5.5 0 0 0 .708-.707l-1.293-1.293Zm.594-4.83a1 1 0 0 1 .571 1.293l-.211.546a1 1 0 1 1-1.865-.723l.211-.546a1 1 0 0 1 1.294-.57ZM7.99 7.568a.5.5 0 1 0 .26-.966l-1.767-.474a.5.5 0 0 0-.259.966l1.766.474Zm1.303 9.31a1 1 0 0 1 1.414 0l.414.414a1 1 0 0 1-1.414 1.414l-.414-.414a1 1 0 0 1 0-1.414ZM6 16.5a.5.5 0 0 0 1 0v-1a.5.5 0 0 0-1 0v1Z" clip-rule="evenodd"/></svg>