<svg viewBox="0 0 24 24" fill="none" xmlns="http://www.w3.org/2000/svg"><path fill-rule="evenodd" clip-rule="evenodd" d="M15.876 12C18.3354 10.6353 20 8.012 20 5V4c0-.5523-.4477-1-1-1h-.5a.5.5 0 0 0-.5.5V5a5.9904 5.9904 0 0 1-.3414 2H10c-.5523 0-1 .4477-1 1s.4477 1 1 1h6.4722C15.3736 10.2275 13.777 11 12 11c-3.3137 0-6-2.6863-6-6h7c.5523 0 1-.4477 1-1s-.4477-1-1-1H5c-.5523 0-1 .4477-1 1v1c0 3.012 1.6646 5.6353 4.124 7C5.6646 13.3647 4 15.988 4 19v1c0 .5523.4477 1 1 1h.5a.5.5 0 0 0 .5-.5V19c0-.7013.1203-1.3744.3414-2H14c.5523 0 1-.4477 1-1s-.4477-1-1-1H7.5278C8.6264 13.7725 10.223 13 12 13c3.3137 0 6 2.6863 6 6h-7c-.5523 0-1 .4477-1 1s.4477 1 1 1h8c.5523 0 1-.4477 1-1v-1c0-3.012-1.6646-5.6353-4.124-7Z" fill="currentcolor"/></svg>