<svg xmlns="http://www.w3.org/2000/svg" width="24" height="24" fill="none" viewBox="0 0 24 24"><path fill="currentcolor" fill-rule="evenodd" d="M3 5.25A2.25 2.25 0 0 1 5.25 3h2.252c1.795 0 3.262 1.4 3.37 3.168a677.156 677.156 0 0 0 8.341-.038 2.01 2.01 0 0 1 2.035 2.01V17c-.152 1.834-1.356 3.395-3.172 3.69-1.446.235-3.429.44-5.952.44-2.896 0-5.14-.239-6.677-.483C3.975 20.412 3 19.113 3 17.622V5.251Zm15.847 9.977c.29-.105.513-.252.671-.442v-1.702H17.84v.647h.8v.736c-.141.14-.377.21-.707.21-.328 0-.577-.114-.747-.342-.17-.229-.255-.566-.255-1.014v-.272c.002-.444.081-.777.238-1.002.156-.225.383-.337.682-.337.235 0 .418.057.551.17.135.113.222.292.26.536h.856c-.053-.46-.221-.811-.507-1.052-.285-.242-.68-.363-1.186-.363-.363 0-.68.083-.952.249-.27.164-.477.402-.621.715-.143.31-.214.679-.214 1.104v.29c.004.415.08.775.231 1.082.153.306.367.54.645.703.28.16.603.24.972.24.352 0 .672-.052.961-.155ZM7.862 11.06h-.879v2.953c0 .213-.05.377-.149.492a.504.504 0 0 1-.401.173c-.19 0-.329-.05-.416-.15-.088-.1-.132-.254-.132-.462H5c0 .42.126.745.378.975.252.229.603.343 1.055.343.275 0 .522-.057.74-.17.22-.113.389-.273.508-.48.12-.21.181-.45.181-.721V11.06Zm1.725 4.265v-1.503h.771c.506 0 .901-.12 1.186-.36.288-.242.431-.572.431-.99 0-.276-.065-.52-.196-.736a1.291 1.291 0 0 0-.563-.5 1.916 1.916 0 0 0-.843-.176H8.709v4.265h.878Zm.786-2.215h-.786v-1.338h.806c.217.003.387.07.51.199a.704.704 0 0 1 .184.507c0 .203-.061.359-.184.468-.121.11-.298.164-.53.164Zm4.868.367h-1.687v1.142h1.98v.706h-2.86V11.06h2.854v.712h-1.974v1.016h1.687v.689Z" clip-rule="evenodd"/></svg>