<svg viewBox="0 0 24 24" fill="none" xmlns="http://www.w3.org/2000/svg"><path fill-rule="evenodd" clip-rule="evenodd" d="m19.2506 4.093.6589.658c1.454 1.4537 1.454 3.8188 0 5.2725l-4.2844 4.2838c-1.453 1.4547-3.8185 1.4547-5.2724-.0009-.3644-.3644-.3635-.9533.0009-1.3177.3635-.3643.9534-.3643 1.3179 0 .7036.7045 1.9311.7045 2.6357 0l4.2845-4.2829c.726-.7268.726-1.9094 0-2.6362l-.659-.658c-.7055-.7054-1.932-.7044-2.6357 0l-1.8528 1.849a.9294.9294 0 0 1-1.3179 0c-.3644-.3635-.3644-.9534 0-1.3178l1.8528-1.8506C14.6828 3.3895 15.6186 3 16.6139 3c.9964 0 1.9321.3877 2.6367 1.093Zm-5.6023 5.6016.658.6579a.9326.9326 0 0 1-.001 1.3186.9311.9311 0 0 1-1.3178 0l-.659-.6589c-.7036-.7045-1.9311-.7045-2.6357 0l-4.2845 4.2829c-.726.7269-.726 1.9085 0 2.6363l.659.6579c.7055.7054 1.932.7044 2.6357 0l2.0253-2.0222a.9293.9293 0 0 1 1.3178 0c.3645.3634.3645.9533 0 1.3177l-2.0252 2.0231C9.3172 20.6114 8.3814 21 7.3861 21c-.9964 0-1.9321-.3877-2.6367-1.0931l-.659-.6579c-1.4539-1.4537-1.4539-3.8179 0-5.2716L8.375 9.6936c1.454-1.4546 3.8194-1.4528 5.2734.001Z" fill="currentcolor"/></svg>