<svg viewBox="0 0 24 24" fill="none" xmlns="http://www.w3.org/2000/svg"><path fill-rule="evenodd" clip-rule="evenodd" d="M4 4c0-.5523.4477-1 1-1h1c.5523 0 1 .4477 1 1s-.4477 1-1 1v4.0188C6 10.5537 7.4484 12 9.5002 12 11.5518 12 13 10.5538 13 9.0188V5c-.5523 0-1-.4477-1-1s.4477-1 1-1h1c.5523 0 1 .4477 1 1v5.0188c0 2.7242-2.3371 4.7744-5.0787 4.9665v1.9865c0 2.2733 1.8309 4.1068 4.0787 4.1068 2.2478 0 4.0786-1.8335 4.0786-4.1068v-2.1159C16.8725 13.467 16 12.3354 16 11c0-1.6569 1.3431-3 3-3s3 1.3431 3 3c0 1.3354-.8726 2.4671-2.0787 2.8559v2.1159c0 3.2812-2.6461 5.9496-5.9213 5.9496-3.2752 0-5.9214-2.6684-5.9214-5.9496v-2.1421C5.7922 13.2729 4 11.4043 4 9.0188V4Zm16 7c0 .5523-.4477 1-1 1s-1-.4477-1-1 .4477-1 1-1 1 .4477 1 1Z" fill="currentcolor"/></svg>