<svg viewBox="0 0 24 24" fill="none" xmlns="http://www.w3.org/2000/svg"><path fill-rule="evenodd" clip-rule="evenodd" d="M2.8193 5.2613c.0986-1.3122 1.0576-2.3906 2.356-2.6037C6.998 2.3586 9.6689 2 12 2s5.0019.3585 6.8247.6576c1.2984.2132 2.2574 1.2916 2.356 2.6037.1432 1.9055.3193 4.6742.3193 6.7665 0 2.0834-.1746 4.8376-.3174 6.7423-.0993 1.3239-1.074 2.4078-2.3859 2.6112C16.9746 21.6638 14.3192 22 12 22c-2.3192 0-4.9746-.3362-6.7967-.6187-1.312-.2034-2.2866-1.2873-2.3858-2.6112-.1429-1.9047-.3175-4.6589-.3175-6.7423 0-2.0922.176-4.861.3193-6.7665ZM12.95 8H17.5a.5.5 0 0 1 0 1h-4.5499c-.2316 1.1411-1.2405 2-2.4499 2-1.2095 0-2.2184-.8589-2.45-2H6.5a.5.5 0 0 1 0-1h1.5502c.2316-1.1411 1.2405-2 2.45-2 1.2094 0 2.2183.8589 2.4499 2ZM17.5 15h-1.5499c-.2316-1.1411-1.2405-2-2.4499-2-1.2095 0-2.2184.8589-2.45 2H6.5a.5.5 0 0 0 0 1h4.5502c.2316 1.1411 1.2405 2 2.45 2 1.2094 0 2.2183-.8589 2.4499-2H17.5a.5.5 0 0 0 0-1Z" fill="currentcolor"/></svg>