<svg xmlns="http://www.w3.org/2000/svg" width="24" height="24" fill="none" viewBox="0 0 24 24"><path fill="currentcolor" fill-rule="evenodd" d="M11.943 4C2.203 4 2 7.317 2 10.432v2.135C2 15.785 2.304 19 12.045 19c.818 0 1.569-.023 2.258-.068.213.414.577.948 1.197 1.568.614.614 1.144.977 1.556 1.19.49.255.944-.138.944-.69v-2.647c3.88-1.116 3.988-3.505 3.988-5.785v-2.136C22.089 7.317 21.785 4 11.943 4ZM12 13a1 1 0 1 0 0-2 1 1 0 0 0 0 2Zm6-1a1 1 0 1 1-2 0 1 1 0 0 1 2 0ZM7 13a1 1 0 1 0 0-2 1 1 0 0 0 0 2Z" clip-rule="evenodd"/></svg>