<svg viewBox="0 0 8000 8000" fill="none"
  xmlns="http://www.w3.org/2000/svg">
  <path fill-rule="evenodd" clip-rule="evenodd" d="M8000 0H0V8000H8000V0ZM4435.5 3578.97L4371.35 3579.64C4363.83 3579.68 4361.7 3584.44 4366.59 3590.16L4388.32 3615.55C4393.21 3621.28 4401.73 3621.82 4407.29 3616.77L4439.05 3587.99C4444.61 3582.93 4443.02 3578.88 4435.5 3578.97ZM4333.91 4221.7L4375.03 4237.28C4382.05 4239.95 4385.85 4247.93 4383.43 4255.03L4360.86 4322.44C4358.48 4329.58 4354.76 4329.5 4352.63 4322.32L4325.05 4229.93C4322.92 4222.75 4326.89 4219.03 4333.91 4221.7ZM4375.07 4337.06C4368.39 4340.44 4364.71 4337.35 4366.88 4330.17L4389.32 4256.53C4391.49 4249.35 4398.18 4247.22 4404.11 4251.82L4448.66 4286.15C4454.59 4290.74 4453.97 4297.26 4447.28 4300.64L4375.07 4337.06ZM3598.85 3968.6L3555.9 3939.11C3539.05 3925 3544.24 3910.38 3554.89 3896.64L3622.8 3824.47C3627.94 3819 3631.32 3820.62 3630.32 3828.06L3611.93 3962.8C3610.93 3970.23 3605.04 3972.86 3598.85 3968.6ZM3619.62 3816.07L3553.81 3888.7C3548.75 3894.26 3544.61 3892.67 3544.65 3885.15V3820.71C3544.65 3813.19 3550.8 3806.97 3558.32 3806.88L3615.15 3806.13C3622.63 3806.05 3624.68 3810.52 3619.62 3816.07ZM3559.36 4156.76L3602.28 4139.26C3609.22 4136.42 3617.32 4139.72 3620.33 4146.61L3663.08 4245.22C3666.09 4252.11 3663.46 4254.24 3657.32 4249.94L3557.94 4180.77C3539.43 4167.53 3546.74 4162.73 3559.36 4156.76ZM4350.33 3874.29C4355.81 3879.47 4354.8 3886.57 4348.16 3890.04L4127.68 4005.65C4121.04 4009.11 4117.66 4006.19 4120.16 3999.13L4207.04 3755.39C4209.55 3748.29 4216.07 3746.74 4221.5 3751.92L4350.33 3874.29ZM4133.16 4012.16L4250.38 3956.45C4257.15 3953.19 4262.28 3956.7 4261.78 3964.22L4253.89 4080.32C4253.38 4087.8 4247.66 4090.89 4241.14 4087.13L4132.66 4024.82C4126.14 4021.1 4126.39 4015.38 4133.16 4012.16ZM4052.47 4108.64C4055.52 4115.53 4051.88 4120.5 4044.4 4119.75L3732.53 4087.97C3725.05 4087.17 3723.63 4082.58 3729.32 4077.69L3943.52 3894.34C3949.21 3889.45 3956.35 3891.08 3959.4 3897.93L4052.47 4108.64ZM4144.61 3871.75L4060.28 3786.92C4055.77 3780.95 4058.02 3774.77 4065.38 3773.18L4190.2 3737.13C4197.55 3735.59 4201.57 3740.1 4199.14 3747.2L4157.27 3869.7C4154.85 3876.8 4149.16 3877.72 4144.61 3871.75ZM3940.51 3757.52L4025.43 3776.02C4032.91 3776.56 4035.04 3781.62 4030.15 3787.34L3964 3863.1C3959.15 3868.82 3953.72 3867.53 3951.92 3860.22L3930.11 3769.84C3928.35 3762.57 3933.03 3757.02 3940.51 3757.52ZM3904.74 3765.62C3911.56 3762.4 3918.53 3765.74 3920.33 3773.05L3941.56 3860.05C3943.36 3867.36 3939.09 3870.99 3932.16 3868.15L3813.35 3819.71C3806.42 3816.91 3806.25 3811.94 3813.06 3808.76L3904.74 3765.62ZM4068.55 4099.91C4065.8 4106.89 4061.03 4106.97 4057.98 4100.12L3968.05 3897.97C3965 3891.13 3968.55 3886.41 3975.99 3887.53L4130.07 3908.5C4137.46 3909.59 4141.31 3916.23 4138.55 3923.2L4068.55 4099.91ZM4275.87 3792.1L4223.42 3741.85C4217.99 3736.68 4219.7 3732.42 4227.22 3732.46H4328.85C4336.33 3732.46 4338.59 3737.18 4333.83 3742.98L4294.38 3791.01C4289.61 3796.78 4281.3 3797.28 4275.87 3792.1ZM4274.4 4086.76C4268.01 4090.68 4263.2 4087.76 4263.71 4080.28L4271.6 3964.13C4272.1 3956.66 4277.66 3953.94 4283.89 3958.08L4368.76 4014.54C4374.99 4018.68 4374.86 4025.28 4368.47 4029.2L4274.4 4086.76ZM4307.33 4191.34L4268.18 4118.12C4264.67 4111.52 4267.59 4108.06 4274.7 4110.44L4344.32 4133.87C4351.42 4136.25 4353.84 4143.35 4349.66 4149.57L4321.33 4192.01C4317.19 4198.27 4310.88 4197.94 4307.33 4191.34ZM4379.29 4042.03L4364 4118.33C4362.49 4125.68 4355.47 4129.82 4348.37 4127.52L4277.62 4104.63C4270.48 4102.34 4269.89 4097.24 4276.28 4093.31L4370.35 4035.76C4376.74 4031.88 4380.75 4034.67 4379.29 4042.03ZM4373.65 3900.44L4380.84 4000.05C4381.38 4007.53 4376.79 4010.12 4370.68 4005.73L4286.4 3946.76C4280.21 3942.46 4280.63 3936.07 4287.23 3932.52L4360.65 3893.26C4367.26 3889.75 4373.11 3892.96 4373.65 3900.44ZM4349.08 3747.91L4365.63 3859.3C4366.71 3866.73 4362.91 3868.86 4357.19 3864.02L4301.32 3816.99C4295.59 3812.19 4294.59 3803.33 4299.14 3797.36L4338.8 3745.28C4343.35 3739.31 4347.99 3740.48 4349.08 3747.91ZM4386.15 3645.63L4355.26 3707.86C4351.92 3714.58 4345.28 3715.33 4340.55 3709.57L4271.02 3625.58C4266.21 3619.81 4268.39 3615.93 4275.82 3616.97L4378.71 3631.51C4386.15 3632.55 4389.49 3638.9 4386.15 3645.63ZM4250.29 3628.71C4253.17 3621.78 4259.48 3620.86 4264.25 3626.62L4333.78 3710.57C4338.59 3716.38 4336.38 3721.26 4328.85 3721.43L4224.01 3723.98C4216.48 3724.19 4212.72 3718.67 4215.61 3711.74L4250.29 3628.71ZM4131.61 3649.51L4232.87 3619.94C4240.1 3617.85 4243.69 3621.82 4240.93 3628.79L4209.05 3708.48C4206.25 3715.46 4199.18 3717.34 4193.29 3712.66L4129.19 3661.83C4123.34 3657.15 4124.43 3651.6 4131.61 3649.51ZM4106.96 3669.22C4110.43 3662.58 4118.07 3660.95 4123.97 3665.63L4188.07 3716.46C4193.96 3721.14 4192.79 3726.32 4185.48 3728.03L4068.55 3764.41C4061.24 3766.08 4058.11 3762.03 4061.58 3755.39L4106.96 3669.22ZM3984.31 3643.2L4090.45 3654.86C4097.93 3655.69 4101.19 3661.79 4097.68 3668.47L4052.3 3754.63C4048.83 3761.28 4042.44 3761.69 4038.09 3755.59L3978.63 3652.85C3974.28 3646.71 3976.83 3642.37 3984.31 3643.2ZM3960.32 3656.44C3962.7 3649.34 3968.22 3648.51 3972.57 3654.65L4031.95 3757.35C4036.29 3763.49 4033.74 3767.96 4026.26 3767.33L3943.23 3749.2C3935.75 3748.58 3931.57 3742.23 3933.95 3735.13L3960.32 3656.44ZM3865.13 3658.7L3944.07 3643.83C3951.46 3642.45 3955.52 3647.09 3953.05 3654.19L3925.64 3734.71C3923.21 3741.81 3917.41 3742.86 3912.68 3737.01L3860.28 3671.85C3855.56 3666.01 3857.77 3660.08 3865.13 3658.7ZM3842.9 3678.33C3845.24 3671.19 3851 3670.14 3855.73 3675.99L3908.13 3741.1C3912.81 3746.95 3911.14 3754.38 3904.33 3757.56L3813.14 3800.45C3806.37 3803.67 3802.74 3800.45 3805.08 3793.31L3842.9 3678.33ZM3787.69 3833.03C3789.78 3825.85 3797.22 3822.21 3804.2 3825.01L3932.12 3876.05C3939.05 3878.8 3940.14 3885.15 3934.5 3890.08L3724.64 4073.56C3718.99 4078.53 3716.07 4076.65 3718.2 4069.47L3787.69 3833.03ZM3655.06 3807.68L3772.73 3817.41C3780.21 3818.03 3784.27 3824.34 3781.8 3831.4L3753.64 3911.8C3751.17 3918.9 3744.99 3920.15 3739.93 3914.6L3650.63 3816.66C3645.61 3811.1 3647.58 3807.05 3655.06 3807.68ZM3631.07 3981.09L3734.46 3943.75C3741.48 3941.2 3745.66 3945.04 3743.78 3952.27L3712.48 4067.88C3710.51 4075.15 3704.7 4076.61 3699.52 4071.18L3627.65 3995.62C3622.46 3990.15 3624.01 3983.64 3631.07 3981.09ZM3621.34 4116.08L3618.58 4009.07C3618.41 4001.55 3622.25 4000.09 3627.1 4005.81L3783.56 4187.79C3788.45 4193.47 3786.78 4195.85 3779.8 4193.05L3634.37 4134.79C3627.39 4131.99 3621.54 4123.59 3621.34 4116.08ZM3546.45 4268.77L3544.99 4193.43C3544.82 4185.91 3549.75 4183.28 3555.9 4187.58L3655.27 4256.7C3661.41 4261 3660.41 4265.39 3652.97 4266.52L3560.2 4280.38C3552.8 4281.51 3546.62 4276.29 3546.45 4268.77ZM3599.02 4327.45L3551.88 4297.84C3545.53 4293.87 3546.37 4289.53 3553.76 4288.24L3655.1 4270.61C3662.5 4269.32 3664.5 4272.91 3659.57 4278.55L3619.54 4324.45C3614.61 4330.08 3605.37 4331.46 3599.02 4327.45ZM3693.5 4344.91L3630.45 4336.89C3623.01 4335.93 3620.96 4330.54 3625.97 4324.91L3666.01 4279.63C3670.98 4273.99 3677.37 4275.08 3680.26 4282.01L3701.82 4334.01C3704.7 4340.94 3700.94 4345.87 3693.5 4344.91ZM3719.91 4331.84C3716.03 4338.27 3710.43 4337.85 3707.46 4330.96L3630.4 4150.87C3627.48 4143.98 3630.7 4140.72 3637.59 4143.68L3781.38 4205.2C3788.28 4208.13 3790.75 4215.81 3786.82 4222.2L3719.91 4331.84ZM3815.78 4189.21C3809.8 4193.76 3801.07 4192.67 3796.34 4186.83L3730.61 4105.22C3725.89 4099.41 3728.15 4095.36 3735.58 4096.24L3897.26 4115.62C3904.7 4116.49 3905.91 4120.96 3899.94 4125.47L3815.78 4189.21ZM4045.24 4243.92C4044.36 4251.4 4039.72 4252.78 4034.91 4247.01L3935.08 4127.4C3930.28 4121.63 3932.45 4117.54 3939.93 4118.33L4044.9 4129.32C4052.38 4130.07 4057.77 4136.83 4056.9 4144.27L4045.24 4243.92ZM4152.55 4210.05L4063.66 4251.48C4056.85 4254.66 4052.09 4251.15 4053.05 4243.71L4065.42 4149.78C4066.42 4142.35 4072.27 4139.76 4078.42 4144.06L4153.72 4196.48C4159.86 4200.78 4159.36 4206.88 4152.55 4210.05ZM4114.19 4039.9L4158.52 4181.48C4160.78 4188.62 4157.73 4190.75 4151.8 4186.2L4080.71 4131.57C4074.78 4126.98 4072.27 4117.58 4075.16 4110.65L4104.87 4039.48C4107.75 4032.54 4111.93 4032.75 4114.19 4039.9ZM4179.25 4183.44C4174.32 4189.08 4168.51 4187.87 4166.3 4180.69L4123.13 4039.94C4120.92 4032.75 4124.43 4029.96 4130.94 4033.67L4238.13 4095.24C4244.65 4098.95 4245.95 4106.64 4241.01 4112.32L4179.25 4183.44ZM4295.67 4205.83L4188.86 4198.73C4181.38 4198.23 4179.29 4193.22 4184.27 4187.62L4245.19 4118.62C4250.17 4112.99 4257.23 4113.74 4260.91 4120.29L4302.61 4194.85C4306.29 4201.36 4303.15 4206.33 4295.67 4205.83ZM4256.02 4302.39C4249.04 4299.64 4247.41 4292.83 4252.38 4287.23L4306.04 4227.09C4311.05 4221.49 4316.78 4222.83 4318.78 4230.06L4345.28 4325.49C4347.28 4332.72 4343.19 4336.39 4336.21 4333.68L4256.02 4302.39ZM4366.09 4157.42L4382.47 4221.37C4384.35 4228.64 4380.17 4232.23 4373.23 4229.39L4333.74 4212.97C4326.81 4210.09 4324.51 4202.57 4328.6 4196.31L4355.22 4155.63C4359.36 4149.36 4364.21 4150.16 4366.09 4157.42ZM4450.58 4123.43L4381.21 4130.61C4373.73 4131.4 4368.76 4125.97 4370.14 4118.58L4385.27 4038.43C4386.65 4031.08 4391.58 4029.87 4396.22 4035.76L4455.72 4111.31C4460.36 4117.2 4458.06 4122.68 4450.58 4123.43ZM4444.31 3835.53L4388.95 3864.02C4382.3 3867.49 4375.87 3864.23 4374.7 3856.79L4357.4 3747.87C4356.23 3740.48 4359.99 3738.3 4365.79 3743.07L4445.9 3808.85C4464.07 3824.09 4454.99 3829.35 4444.83 3835.24L4444.31 3835.53ZM4456.56 3699.55L4457.39 3797.61C4457.48 3805.13 4452.76 3807.34 4446.91 3802.54L4366.8 3736.76C4361.03 3732 4361.95 3725.73 4368.85 3722.81L4443.85 3691.19C4450.79 3688.31 4456.48 3692.03 4456.56 3699.55ZM4411.34 3642.16L4445.28 3665.88C4459.53 3675.95 4459.94 3676.99 4443.9 3684.18L4367.8 3716.71C4360.91 3719.68 4358.06 3716.63 4361.49 3709.94L4393.96 3646.5C4394.41 3645.7 4394.82 3644.93 4395.22 3644.19C4399.02 3637.13 4400.9 3633.65 4411.34 3642.16ZM4271.85 3602.19L4295.34 3587.15C4301.65 3583.06 4312.93 3579.76 4320.45 3579.72H4334.7C4342.23 3579.72 4352.55 3584.19 4357.65 3589.7L4382.89 3616.85C4388.03 3622.36 4386.1 3626.04 4378.67 3625.08L4273.9 3611.34C4266.46 3610.38 4265.54 3606.24 4271.85 3602.19ZM4241.43 3601.35L4216.9 3586.03C4210.55 3582.06 4211.47 3578.8 4218.99 3578.8H4285.77C4293.29 3578.8 4294.25 3582.1 4287.94 3586.15L4264.5 3601.23C4258.15 3605.28 4247.78 3605.32 4241.43 3601.35ZM4127.23 3637.4L4165.25 3591.37C4180.96 3572.99 4203.53 3584.15 4209.88 3588.11L4234.41 3603.44C4240.76 3607.41 4240.05 3612.42 4232.87 3614.51L4131.61 3644.08C4124.43 3646.21 4122.46 3643.16 4127.23 3637.4ZM3855.39 3642.74L3873.95 3593.92C3876.62 3586.9 3884.14 3581.18 3890.7 3581.18C3897.22 3581.18 3906.88 3585.52 3912.14 3590.91L3946.7 3625.87C3952.01 3631.22 3950.29 3636.73 3942.9 3638.11L3863.96 3652.98C3856.56 3654.35 3852.72 3649.76 3855.39 3642.74ZM3790.08 3788.13L3755.1 3594.59C3753.76 3587.2 3758.78 3581.18 3766.3 3581.18H3856.31C3863.79 3581.18 3867.93 3586.99 3865.42 3594.04L3797.01 3788.67C3794.55 3795.77 3791.41 3795.52 3790.08 3788.13ZM3645.45 3788.46L3735.88 3592.46C3739.01 3585.65 3742.73 3586.11 3744.15 3593.46L3782.47 3795.94C3783.89 3803.33 3778.88 3809.01 3771.4 3808.55L3653.35 3801.66C3645.87 3801.2 3642.31 3795.27 3645.45 3788.46ZM3652.43 3638.94L3716.57 3593.96C3722.71 3589.66 3725.3 3591.75 3722.3 3598.6L3646.95 3770.51C3643.9 3777.4 3641.44 3776.9 3641.44 3769.38L3641.27 3660.41C3641.27 3652.93 3646.28 3643.24 3652.43 3638.94ZM3617.7 3964.3L3635.5 3823.63C3636.42 3816.2 3641.27 3814.69 3646.24 3820.33L3735.84 3921.2C3740.81 3926.79 3739.09 3933.48 3732.03 3936.02L3628.82 3973.2C3621.75 3975.74 3616.74 3971.73 3617.7 3964.3ZM3622.55 3782.28L3554.27 3713.7C3542.69 3700.92 3539.64 3689.6 3557.19 3681.59L3619.62 3655.02C3626.52 3652.1 3632.16 3655.82 3632.16 3663.33V3778.32C3632.16 3785.83 3627.85 3787.59 3622.55 3782.28ZM3544.4 3783.41L3543.4 3722.14C3543.27 3714.62 3547.37 3712.99 3552.55 3718.42L3617.45 3787.42C3622.59 3792.89 3620.67 3797.36 3613.15 3797.32L3558.28 3797.11C3550.75 3797.07 3544.53 3790.93 3544.4 3783.41ZM3551.63 4025.82C3545.41 4030 3540.56 4027.28 3540.81 4019.81L3543.15 3953.82C3543.4 3946.34 3548.67 3943.71 3554.85 3947.97L3599.15 3978.62C3605.29 3982.88 3605.25 3989.82 3599.02 3993.99L3551.63 4025.82ZM3703.74 4367.84L3693.71 4405.93C3688.24 4423.85 3682.26 4419.76 3670.35 4406.31L3626.43 4351.26C3621.75 4345.37 3624.01 4341.53 3631.41 4342.7L3693.71 4352.51C3701.15 4353.68 3705.66 4360.57 3703.74 4367.84ZM3727.39 4363.25L3794.88 4411.78C3800.98 4416.16 3799.81 4419.76 3792.33 4419.76H3713.02C3705.5 4419.76 3700.9 4413.83 3702.82 4406.56L3712.85 4368.47C3714.77 4361.2 3721.29 4358.86 3727.39 4363.25ZM3733.62 4351.01L3820.46 4356.9C3827.94 4357.4 3833.41 4363.92 3832.66 4371.43L3828.98 4406.22C3825.61 4425.09 3816.57 4419.52 3805.68 4412.8C3804.29 4411.95 3802.88 4411.08 3801.44 4410.23L3730.99 4358.19C3724.93 4353.72 3726.14 4350.51 3733.62 4351.01ZM3803.32 4225.04L3833.54 4339.57C3835.42 4346.79 3830.86 4352.35 3823.42 4351.84L3732.37 4345.71C3724.89 4345.2 3721.92 4339.52 3725.85 4333.13L3792.75 4223.5C3796.64 4217.11 3801.4 4217.78 3803.32 4225.04ZM4051.17 4280.63L4093.96 4404.43C4096.43 4411.53 4093.04 4414.41 4086.4 4410.78L3989.16 4357.98C3982.6 4354.39 3981.09 4346.75 3985.9 4340.99L4038.01 4278.25C4042.81 4272.45 4048.7 4273.53 4051.17 4280.63ZM4161.12 4224.38L4110.43 4398.33C4108.34 4405.56 4104.53 4405.64 4101.94 4398.54L4057.69 4276.17C4055.14 4269.11 4058.61 4260.75 4065.42 4257.58L4152.55 4217.02C4159.36 4213.85 4163.2 4217.19 4161.12 4224.38ZM4300.44 4223.79L4127.89 4401.63C4122.67 4407.02 4120 4405.51 4121.92 4398.25L4168.51 4222.16C4170.43 4214.89 4178.17 4209.17 4185.65 4209.46L4296.3 4213.52C4303.78 4213.77 4305.66 4218.4 4300.44 4223.79ZM4337 4350.8L4139.72 4413.2C4132.57 4415.45 4131.03 4412.95 4136.25 4407.6L4228.39 4313.63C4233.66 4308.24 4243.69 4306.07 4250.71 4308.74L4337.25 4341.82C4344.27 4344.49 4344.15 4348.54 4337 4350.8ZM4238.3 4405.05L4240.81 4409.19C4244.73 4415.58 4241.81 4420.8 4234.33 4420.8H4150.21C4142.69 4420.8 4142.44 4419.09 4149.67 4417L4218.07 4397.2C4225.26 4395.11 4234.37 4398.66 4238.3 4405.05ZM4339.13 4360.74L4281.72 4410.07C4280.39 4410.84 4279.01 4411.77 4277.59 4412.72C4268.91 4418.53 4258.52 4425.49 4248.04 4407.48L4245.65 4403.01C4242.18 4396.37 4245.11 4388.89 4252.17 4386.38L4336.63 4356.4C4343.69 4353.89 4344.82 4355.85 4339.13 4360.74ZM4289.74 4410.57L4344.82 4362.45C4350.5 4357.52 4354.34 4359.57 4353.34 4367.01L4348.58 4404.89C4347.66 4412.32 4340.76 4418.5 4333.24 4418.63L4293.12 4419.3C4285.6 4419.42 4284.1 4415.5 4289.74 4410.57ZM4450.12 4165.99C4454.76 4160.1 4458.56 4161.39 4458.56 4168.91V4267.23C4458.56 4274.7 4453.55 4277.33 4447.41 4272.99L4406.16 4243.88C4400.02 4239.54 4398.81 4231.18 4403.45 4225.29L4450.12 4165.99ZM4383.81 4137.08L4448.12 4131.07C4455.6 4130.36 4460.24 4134.45 4458.4 4140.13C4456.6 4145.77 4451.34 4155.25 4446.7 4161.14L4400.02 4220.45C4395.38 4226.34 4390.2 4225.17 4388.53 4217.86L4373.27 4151.66C4371.6 4144.35 4376.33 4137.79 4383.81 4137.08ZM3817.32 4196.6L3905.45 4130.03C3909.05 4127.31 3914.19 4129.98 3914.02 4134.5L3909.59 4256.28C3909.42 4260.96 3904.16 4263.72 3900.19 4261.21L3817.87 4209.17C3813.31 4206.29 3813.06 4199.82 3817.32 4196.6ZM3915.53 4259.75L3920.04 4135.21C3920.21 4131.03 3925.39 4129.19 3928.1 4132.36L4030.57 4250.98C4033.91 4254.82 4031.32 4260.84 4026.22 4261.09L3921.92 4266.1C3918.37 4266.27 3915.4 4263.34 3915.53 4259.75ZM3964 4341.53L3923.92 4283.77C3920.5 4278.84 3923.84 4272.07 3929.82 4271.78L4027.85 4266.93C4033.2 4266.68 4036.29 4272.87 4032.87 4276.96L3978.58 4342.15C3974.74 4346.83 3967.47 4346.5 3964 4341.53ZM3839.51 4340.94L3810.76 4224.83C3809.47 4219.53 3815.28 4215.27 3819.96 4218.19L3897.05 4266.22C3902.53 4269.65 3903.78 4277.04 3899.73 4282.05L3850.21 4343.32C3847.03 4347.25 3840.72 4345.83 3839.51 4340.94ZM3853.85 4348.38L3906.21 4282.64C3908.76 4279.42 3913.69 4279.59 3916.03 4282.93L3956.65 4340.78C3960.16 4345.75 3956.69 4352.6 3950.63 4352.81L3857.61 4355.81C3853.68 4355.94 3851.42 4351.43 3853.85 4348.38ZM3983.01 3879.26C3967.76 3876.55 3967.55 3870.28 3978.17 3858.51L4033.91 3794.19C4041.81 3785 4046.41 3784.08 4054.3 3791.97L4144.11 3884.23C4151 3891.96 4148.33 3901.07 4136.33 3899.77L3983.01 3879.26Z" fill="black"/>
</svg>
