<svg xmlns="http://www.w3.org/2000/svg" fill="none" width="24" height="24" viewBox="0 0 16 24">
  <g clip-path="url(#a)">
    <path fill="#0ACF83" d="M4 24a4 4 0 0 0 4-4v-4H4a4 4 0 0 0 0 8Z"/>
    <path fill="#A259FF" d="M0 12a4 4 0 0 1 4-4h4v8H4a4 4 0 0 1-4-4Z"/>
    <path fill="#F24E1E" d="M0 4a4 4 0 0 1 4-4h4v8H4a4 4 0 0 1-4-4Z"/>
    <path fill="#FF7262" d="M8 0h4a4 4 0 0 1 0 8H8V0Z"/>
    <path fill="#1ABCFE" d="M16 12a4 4 0 1 1-8 0 4 4 0 0 1 8 0Z"/>
  </g>
  <defs>
    <clipPath id="a">
      <path fill="#fff" d="M0 0h16v24H0z"/>
    </clipPath>
  </defs>
</svg>
