<svg viewBox="0 0 24 24" fill="none" xmlns="http://www.w3.org/2000/svg"><path fill-rule="evenodd" clip-rule="evenodd" d="M7.4623 3.9014c1.3045-1.3045 3.3815-1.8048 6.0624-1.5116a.7357.7357 0 0 1 .6514.6513c.2932 2.681-.2071 4.758-1.5116 6.0624-.75.75-1.8568 1.333-3.389 1.8094l-.0137.0035v.2201c-.0222.8553-.2719 1.572-.7633 2.1258l-.1177.1249c-.9744.9742-2.1595.542-2.8042-.594-.2313-.4078-.3776-.8618-.4193-1.3031l-.0057-.0696-.0666-.0048c-.3983-.0367-.8076-.1595-1.1844-.3538l-.1244-.0673c-1.1374-.647-1.5727-1.8345-.5978-2.8093.6072-.607 1.4338-.8944 2.4491-.8813l.0209.0001.0946-.295c.4286-1.2944.9422-2.267 1.5806-2.9628l.1387-.1449Zm5.7501 6.5357c1.4836-1.4836 3.8457-2.0526 6.8948-1.7192a.8365.8365 0 0 1 .7407.7408c.3335 3.0491-.2355 5.4112-1.7192 6.8948-.8529.853-2.1117 1.516-3.8542 2.0579l-.0157.004.0002.2502c-.0254.9728-.3093 1.7878-.8682 2.4177l-.1339.142c-1.1082 1.108-2.456.6165-3.1891-.6755-.2632-.4638-.4296-.9801-.477-1.482l-.0065-.0791-.0757-.0056c-.4529-.0417-.9184-.1813-1.347-.4023l-.1415-.0766c-1.2936-.7358-1.7887-2.0864-.6799-3.1949.6905-.6904 1.6307-1.0174 2.7854-1.0024l.0237.0001.1076-.3355c.4875-1.4721 1.0716-2.5783 1.7977-3.3696l.1578-.1648Zm-2.6518-5.917a.7357.7357 0 1 0-1.0404 1.0404.7357.7357 0 0 0 1.0404-1.0405Zm6.2143 6.0714a.8366.8366 0 0 0-1.1833 0 .8365.8365 0 0 0 0 1.1832.8367.8367 0 0 0 1.1833-1.1832Z" fill="currentcolor"/></svg>