<svg viewBox="0 0 24 24"><path d="M21.595 17.894c-.262.454-1.368.746-3.68.196a20.58 20.58 0 01-2.406-.745c.129-.903.226-1.845.283-2.802a35.072 35.072 0 002.287-1.647c2.749 2.286 3.949 4.249 3.516 4.998m-9.754 5.632c-.865 0-1.964-2.018-2.57-5.535a34.931 34.931 0 002.57-1.162c.873.438 1.733.824 2.569 1.162-.605 3.517-1.704 5.535-2.57 5.535M5.768 18.09c-2.314.549-3.418.258-3.68-.196-.263-.454.038-1.557 1.67-3.285a20.732 20.732 0 011.842-1.705c.71.555 1.475 1.107 2.29 1.643.059.956.155 1.896.284 2.798a20.58 20.58 0 01-2.406.745m-2.01-8.174C2.125 8.188 1.824 7.085 2.087 6.63c.16-.278.638-.495 1.515-.495.555 0 1.269.086 2.165.299a21.17 21.17 0 012.406.745 34.73 34.73 0 00-.283 2.797 34.322 34.322 0 00-2.291 1.645 20.736 20.736 0 01-1.842-1.706M11.84 1c.866 0 1.966 2.02 2.57 5.543-.846.34-1.71.727-2.567 1.157a33.633 33.633 0 00-2.572-1.164C9.877 3.018 10.976 1 11.84 1m4.005 10.22c.51.35.997.7 1.442 1.042-.445.344-.931.692-1.442 1.043.009-.348.015-.695.015-1.042 0-.347-.006-.694-.015-1.042m-2.902-2.945a31.917 31.917 0 011.62-.726c.075.556.134 1.15.182 1.766-.297-.183-.595-.36-.895-.534a41.174 41.174 0 00-.907-.506M8.936 9.315c.049-.615.107-1.21.18-1.765.533.22 1.075.462 1.625.724a40.066 40.066 0 00-1.805 1.04m-1.1 3.99c-.5-.344-.98-.691-1.435-1.042a34.38 34.38 0 011.435-1.041c-.01.348-.015.695-.015 1.042 0 .347.006.694.015 1.04m2.905 2.948c-.55.263-1.092.505-1.624.724a32.624 32.624 0 01-.181-1.766c.295.18.592.36.895.535.303.174.607.342.91.507m4.005-1.042a32.624 32.624 0 01-.181 1.766 32.072 32.072 0 01-1.624-.724c.303-.165.607-.333.91-.507.3-.173.598-.353.895-.535m-1.395-.331a39.62 39.62 0 01-1.51.824 36.44 36.44 0 01-2.978-1.72 37.909 37.909 0 01-.042-1.72c0-.595.017-1.164.042-1.72a37.627 37.627 0 012.974-1.72c.503.26 1.008.533 1.514.825.516.298 1 .598 1.469.896.024.555.04 1.124.04 1.72 0 .596-.016 1.164-.04 1.72-.47.299-.953.598-1.47.895m6.754-8.737c.79 0 1.308.173 1.49.49.434.75-.766 2.713-3.515 4.998a34.7 34.7 0 00-2.287-1.647 34.664 34.664 0 00-.282-2.796c1.929-.711 3.52-1.045 4.594-1.045m-1.245 6.12c2.723-2.292 4.45-4.658 3.602-6.13-.85-1.47-3.763-1.158-7.111.054C14.726 2.68 13.54 0 11.84 0c-1.696 0-2.882 2.675-3.506 6.176a21.683 21.683 0 00-2.337-.714c-2.526-.6-4.178-.37-4.776.669-.6 1.037.027 2.583 1.809 4.472a21.37 21.37 0 001.779 1.659 21.544 21.544 0 00-1.78 1.66C1.249 15.81.623 17.357 1.222 18.394c.382.66 1.19.995 2.382.995.678 0 1.479-.108 2.394-.325a21.683 21.683 0 002.337-.714c.624 3.5 1.81 6.176 3.507 6.176s2.883-2.675 3.507-6.176c.816.295 1.602.54 2.336.714.916.217 1.717.325 2.394.325 1.192 0 2-.334 2.383-.995.849-1.472-.88-3.84-3.602-6.132" fill-rule="evenodd"/></svg>