<svg viewBox="0 0 24 24"><path d="M19.916 3.583c1.15 0 2.083.935 2.083 2.083a.5.5 0 11-1 0c0-.597-.485-1.083-1.083-1.083H14.92c-.526 0-1-.293-1.235-.764l-.304-.608A.38.38 0 0013.037 3h-2.076a.379.379 0 00-.341.211l-.305.608a1.374 1.374 0 01-1.235.764H4.084C3.486 4.583 3 5.069 3 5.666a.5.5 0 11-1 0c0-1.148.935-2.083 2.084-2.083H9.08a.38.38 0 00.34-.211l.305-.608A1.374 1.374 0 0110.962 2h2.077c.526 0 1 .293 1.235.764l.305.608a.38.38 0 00.34.211h4.998zm-.831 3.958a.5.5 0 01.5.5v11.033c0 1.797-1.496 3.259-3.334 3.259H7.749c-1.839 0-3.334-1.462-3.334-3.259V8.041a.5.5 0 111 0v11.033c0 1.245 1.046 2.259 2.334 2.259h8.502c1.287 0 2.334-1.014 2.334-2.259V8.041a.5.5 0 01.5-.5zM8.134 19.625a.5.5 0 01-.5-.5v-6.334a.5.5 0 011 0v6.334a.5.5 0 01-.5.5zm4.366-.5a.5.5 0 01-1 0v-6.334a.5.5 0 011 0v6.334zm3.866 0a.5.5 0 01-1 0v-6.334a.5.5 0 011 0v6.334z" fill-rule="evenodd"/></svg>