<svg viewBox="0 0 24 24"><path d="M15.239 7.634v-.001l.389.282-.39-.281zm-6.53 5.284v-.002l.287.387-.287-.385zm3.045 3.419l.39-.28-.39.28zm8.886-1.65a.404.404 0 01-.327.165h-2.022v3.866c0 1.008-.82 1.83-1.83 1.83h-2.95c-1.016 0-1.842.826-1.842 1.922a.61.61 0 01-.608.608h-.895V18.65l1.398-1.397c.065.014.126.045.192.045a.954.954 0 00.56-.18.954.954 0 00.387-.626.951.951 0 00-.17-.717.965.965 0 00-1.342-.218.957.957 0 00-.347 1.056l-1.64 1.64v4.825H5.304a.61.61 0 01-.608-.586l.457-4.106c0-1.005-.316-2.08-.826-2.81-1.027-1.469-1.725-2.873-2.084-4.155l4.132-.058 1.403 1.363a.95.95 0 00.16.765.952.952 0 00.631.378.956.956 0 00.716-.18.954.954 0 00.377-.63.96.96 0 00-.18-.715.956.956 0 00-1.06-.332L6.76 10.396l-4.72.067a6.103 6.103 0 01-.076-.98c.058-3.45 2.143-6.396 5.096-7.74v3.913a.95.95 0 00-.481.815.962.962 0 001.923 0 .951.951 0 00-.48-.815V1.368a8.666 8.666 0 012.61-.405h.143c.659.01 1.298.104 1.916.257v4.5l1.638 1.637a.946.946 0 00-.038.43.96.96 0 00.947.809.942.942 0 00.154-.013.96.96 0 00.627-.387.955.955 0 00.17-.716.957.957 0 00-.387-.626.953.953 0 00-.717-.169c-.018.003-.032.014-.05.018L13.65 5.322V1.52c3.288 1.237 5.651 4.418 5.651 8.111l1.4 4.695a.4.4 0 01-.062.36zM8.02 6.472h-.48V6.47h.48zm13.603 7.577l-1.36-4.488C20.224 4.367 15.99.086 10.79.002 5.463-.1 1.092 4.162 1.002 9.465c-.034 1.966.82 4.208 2.538 6.661.401.576.651 1.442.654 2.206l-.457 4.084-.003.054c0 .865.705 1.57 1.57 1.57h5.758c.865 0 1.57-.705 1.57-1.651a.88.88 0 01.88-.88h2.95a2.794 2.794 0 002.792-2.791v-2.904h1.06c.439 0 .839-.202 1.1-.554.261-.352.337-.794.21-1.212z" fill-rule="evenodd"/></svg>