<svg viewBox="0 0 24 24"><path d="M2.5 5C1.673 5 1 4.327 1 3.5S1.673 2 2.5 2 4 2.673 4 3.5 3.327 5 2.5 5m0-4C1.122 1 0 2.121 0 3.5S1.122 6 2.5 6 5 4.879 5 3.5 3.878 1 2.5 1m5.38 3a.5.5 0 010-1h14.552a.5.5 0 010 1H7.88zm14.552 7.404a.5.5 0 010 1H7.88a.5.5 0 010-1h14.553zm0 8.406a.5.5 0 010 1H7.88a.5.5 0 010-1h14.553zM2.5 13.404c-.827 0-1.5-.673-1.5-1.5s.673-1.5 1.5-1.5 1.5.673 1.5 1.5-.673 1.5-1.5 1.5m0-4c-1.378 0-2.5 1.121-2.5 2.5s1.122 2.5 2.5 2.5 2.5-1.12 2.5-2.5-1.122-2.5-2.5-2.5m0 12.406c-.827 0-1.5-.673-1.5-1.5s.673-1.5 1.5-1.5 1.5.673 1.5 1.5-.673 1.5-1.5 1.5m0-4c-1.378 0-2.5 1.12-2.5 2.5s1.122 2.5 2.5 2.5S5 21.689 5 20.31s-1.122-2.5-2.5-2.5" fill-rule="evenodd"/></svg>