<svg viewBox="0 0 24 24"><g fill-rule="evenodd"><path d="M23 18.605a.75.75 0 01-.75.749H1.749a.75.75 0 01-.749-.75V7.623a.75.75 0 01.749-.749H22.25a.75.75 0 01.75.75v10.981zm-.75-12.731H1.749A1.75 1.75 0 000 7.623v10.982a1.75 1.75 0 001.749 1.749H22.25c.965 0 1.75-.784 1.75-1.75V7.623c0-.965-.785-1.749-1.75-1.749zM3.38 5.479a.5.5 0 00.5-.5v-.98h2.59v.98a.5.5 0 001 0v-1.48a.5.5 0 00-.5-.5H3.38a.5.5 0 00-.5.5v1.48a.5.5 0 00.5.5"/><path d="M12 17.048a3.94 3.94 0 01-3.935-3.935c0-2.17 1.766-3.934 3.935-3.934s3.934 1.765 3.934 3.934A3.939 3.939 0 0112 17.048m0-8.87a4.94 4.94 0 00-4.935 4.935A4.94 4.94 0 0012 18.048a4.94 4.94 0 004.934-4.935A4.94 4.94 0 0012 8.179m9.04-.229h-2.821a.5.5 0 000 1h2.82a.5.5 0 000-1"/></g></svg>