<svg viewBox="0 0 24 24"><g fill-rule="evenodd"><path d="M17.543 15.782a.5.5 0 00-.5.5v.841c0 .507-.413.92-.92.92H6.18a.495.495 0 00-.353.146L2.42 21.596v-3.053a.5.5 0 00-.5-.5.921.921 0 01-.92-.92V8.601c0-.506.413-.92.92-.92h1.84a.499.499 0 100-1H1.92C.861 6.681 0 7.543 0 8.601v8.522a1.92 1.92 0 001.42 1.853v3.827a.499.499 0 00.853.354l4.114-4.114h9.735c1.06 0 1.92-.862 1.92-1.92v-.84a.5.5 0 00-.5-.5"/><path d="M22.723 11.442c0 .507-.413.92-.92.92a.5.5 0 00-.5.5v3.054l-3.407-3.408a.504.504 0 00-.354-.146h-9.94a.921.921 0 01-.92-.92v-8.52c0-.509.412-.922.92-.922h14.201c.507 0 .92.413.92.921v8.521zM21.803 1H7.601c-1.059 0-1.92.861-1.92 1.921v8.521c0 1.06.861 1.92 1.92 1.92h9.734l4.115 4.114a.497.497 0 00.544.11.501.501 0 00.31-.463v-3.827a1.923 1.923 0 001.42-1.854v-8.52c0-1.06-.862-1.922-1.92-1.922z"/></g></svg>