<svg viewBox="0 0 24 24"><path d="M20.162 18.275l.76 2.211c.42 1.227-.851 2.35-2.016 1.78l-4.755-2.32c-.062-.03-.39-.078-.718-.102-.169.016-.424.03-.747.04-.34.013-.678.02-.923.024C5.262 19.81 0 15.646 0 10.458 0 5.2 5.4 1 12 1s12 4.2 12 9.459c0 2.604-1.342 5.028-3.655 6.793-.228.346-.293.705-.183 1.023zm2.71-7.816c0-4.566-4.841-8.332-10.873-8.332-6.03 0-10.872 3.767-10.872 8.332 0 4.5 4.715 8.232 10.635 8.322.22-.003.553-.011.884-.023.302-.01.54-.023.766-.038.568.032.983.092 1.231.212l4.757 2.322a.328.328 0 00.455-.402l-.76-2.21c-.245-.711-.085-1.47.38-2.115l.12-.121c2.088-1.567 3.278-3.691 3.278-5.947z"/></svg>