<svg viewBox="0 0 24 24"><g fill-rule="evenodd"><path d="M20.656 11.029a8.083 8.083 0 00-7.849-6.03 8.144 8.144 0 00-6.929 3.885C2.612 9.046 0 11.76 0 15.06a6.17 6.17 0 002.216 4.742.471.471 0 00.31.113h5.142a.48.48 0 100-.96H2.703A5.217 5.217 0 01.96 15.06a5.235 5.235 0 015.198-5.224.48.48 0 00.416-.244 7.183 7.183 0 016.233-3.633 7.129 7.129 0 016.977 5.54.478.478 0 00.313.346 4.335 4.335 0 012.943 4.104 4.29 4.29 0 01-1.217 3.006H16.33a.48.48 0 100 .96h5.691a.484.484 0 00.331-.132A5.25 5.25 0 0024 15.95a5.295 5.295 0 00-3.344-4.921"/><path d="M12.34 13.138a.48.48 0 00-.34-.14.48.48 0 00-.34.14l-3.189 3.19a.481.481 0 00.68.678l2.37-2.37v4.997a.48.48 0 10.96 0v-4.997l2.368 2.37a.477.477 0 00.34.141.475.475 0 00.338-.14.48.48 0 000-.68l-3.188-3.189z"/></g></svg>