<svg viewBox="0 0 24 24"><g fill-rule="evenodd"><path d="M20.656 11.03A8.083 8.083 0 0012.807 5a8.144 8.144 0 00-6.929 3.884C2.612 9.046 0 11.761 0 15.062c0 1.833.807 3.562 2.216 4.741a.471.471 0 00.31.113h5.142a.48.48 0 000-.96H2.703A5.213 5.213 0 01.96 15.062a5.235 5.235 0 015.198-5.224.48.48 0 00.416-.244 7.181 7.181 0 016.233-3.634 7.128 7.128 0 016.977 5.541.48.48 0 00.313.345 4.336 4.336 0 012.943 4.105 4.29 4.29 0 01-1.216 3.005h-5.493a.48.48 0 000 .96h5.691a.481.481 0 00.331-.132A5.253 5.253 0 0024 15.951a5.296 5.296 0 00-3.344-4.922"/><path d="M14.85 16.174l-2.37 2.37v-4.997a.48.48 0 00-.96 0v4.997l-2.37-2.37a.48.48 0 00-.678 0 .48.48 0 000 .679l3.19 3.189c.088.09.21.14.338.14a.48.48 0 00.34-.14l3.188-3.19a.481.481 0 00-.679-.678"/></g></svg>