<svg viewBox="0 0 24 24"><g fill-rule="evenodd"><path d="M16.663 22.663c-3.308 0-6-2.692-6-6s2.692-6 6-6c3.31 0 6 2.692 6 6s-2.69 6-6 6m0-13.09c-3.91 0-7.09 3.18-7.09 7.09 0 3.91 3.18 7.091 7.09 7.091 3.91 0 7.091-3.18 7.091-7.09 0-3.91-3.18-7.091-7.09-7.091"/><path d="M12.491 1.862l3.32 3.32h-3.32v-3.32zM8.837 21.764H1.09V1.09h10.31v4.636c0 .301.244.546.545.546h4.636v1.142a.545.545 0 00.545.545.545.545 0 00.546-.545V5.727a.544.544 0 00-.043-.21.54.54 0 00-.117-.176L12.332.161a.54.54 0 00-.177-.118.544.544 0 00-.21-.043H.546A.545.545 0 000 .545V22.31a.545.545 0 00.546.545h8.29a.546.546 0 00.546-.545.545.545 0 00-.545-.545z"/><path d="M6.189 10.733l1.452 1.46a.546.546 0 00.47.155.543.543 0 00.402-.29l1.948-3.789a.545.545 0 00-.237-.734.547.547 0 00-.734.235l-1.605 3.123L6.461 9.46a.557.557 0 00-.456-.157.547.547 0 00-.403.267L4.2 11.99v-4.19a.546.546 0 00-.545-.545.545.545 0 00-.546.546v10.364a.545.545 0 00.546.545h3.803a.546.546 0 00.545-.545.546.546 0 00-.545-.546H4.2v-3.453l1.99-3.432zm12.493 3.934h-3.927a.546.546 0 00-.546.545c0 .302.245.546.546.546h3.927a.546.546 0 00.545-.545.546.546 0 00-.545-.546m0 2.815h-3.927a.546.546 0 00-.546.545c0 .301.245.546.546.546h3.927a.546.546 0 00.545-.546.546.546 0 00-.545-.545"/></g></svg>