<svg viewBox="0 0 24 24"><g fill-rule="evenodd"><path d="M21.036 10.985L9.982 22.04a1.16 1.16 0 01-1.637 0l-6.007-6.007a1.16 1.16 0 010-1.638L13.392 3.34a1.157 1.157 0 01.936-.333l5.454.552c.545.056.98.491 1.036 1.035l.55 5.456c.036.347-.085.688-.332.935zm.777-6.49a2.165 2.165 0 00-1.93-1.93l-5.455-.552h-.001a2.126 2.126 0 00-1.742.62L1.63 13.687a2.161 2.161 0 000 3.052l6.007 6.007c.42.421.973.631 1.525.631.553 0 1.106-.21 1.526-.63l11.055-11.055a2.153 2.153 0 00.62-1.742l-.551-5.456z"/><path d="M16.99 8.213a.6.6 0 01-.826 0 .581.581 0 01-.171-.413.581.581 0 01.584-.584.58.58 0 01.585.584.581.581 0 01-.171.413M15.456 6.68a1.58 1.58 0 00-.463 1.12c0 .424.165.82.463 1.12.3.3.698.464 1.12.464a1.57 1.57 0 001.12-.464c.3-.298.465-.696.466-1.12 0-.423-.165-.821-.464-1.12-.598-.601-1.643-.6-2.242 0m-8.07 5.538a.5.5 0 00-.706 0 .5.5 0 000 .707l4.772 4.772a.498.498 0 00.707 0 .5.5 0 000-.707l-4.772-4.772zm-2.045 2.046a.5.5 0 00-.707 0 .5.5 0 000 .707l4.772 4.772a.502.502 0 00.707 0 .502.502 0 000-.708l-4.772-4.771z"/></g></svg>