<svg viewBox="0 0 24 24"><g fill-rule="evenodd"><path d="M19.221 23.037H4.05a1.09 1.09 0 01-1.09-1.09V2.05c0-.601.489-1.09 1.09-1.09h13.058l-.059 1.123a2.03 2.03 0 001.918 2.13l1.344.07v17.665a1.09 1.09 0 01-1.09 1.09zm.393-19.75l-.597-.032a1.07 1.07 0 01-1.009-1.12l.027-.514.814.858.765.807zm-.175-1.581L17.963.147C17.96.143 17.954.143 17.95.14L17.818 0H4.05C2.92 0 2 .92 2 2.05v19.898c0 1.13.92 2.05 2.05 2.05H19.22c1.13 0 2.05-.92 2.05-2.05V3.633l-1.832-1.927z"/><path d="M5.978 6.348h5.628a.48.48 0 100-.96H5.978a.48.48 0 000 .96m10.386 1.98H5.978a.48.48 0 000 .96h10.386a.48.48 0 000-.96M5.978 12.23h5.628a.48.48 0 100-.96H5.978a.48.48 0 000 .96m5.628 4.922H5.979a.48.48 0 100 .96h5.628a.48.48 0 000-.96m4.758-2.941H5.978a.48.48 0 000 .96h10.386a.48.48 0 000-.96"/></g></svg>