<svg viewBox="0 0 24 24"><g fill-rule="evenodd"><path d="M18.93 21.067c0 .52-.291.959-.638.959h-1.118c-.347 0-.639-.44-.639-.959v-4.312c0-.52.292-.958.64-.958h1.117c.347 0 .639.439.639.958v4.313zm-.638-6.229h-1.118c-.88 0-1.597.86-1.597 1.917v4.312c0 1.057.717 1.917 1.597 1.917h1.118c.88 0 1.597-.86 1.597-1.917v-4.312c0-1.057-.717-1.917-1.597-1.917zm-10.53 6.23c0 .519-.293.958-.64.958H6.006c-.346 0-.64-.44-.64-.959v-4.312c0-.52.294-.958.64-.958h1.117c.347 0 .64.439.64.958v4.313zm-.64-6.23H6.006c-.88 0-1.598.86-1.598 1.917v4.312c0 1.057.717 1.917 1.598 1.917h1.117c.881 0 1.598-.86 1.598-1.917v-4.312c0-1.057-.717-1.917-1.598-1.917z"/><path d="M12.149.958C6 .958 1 5.688 1 11.5v8.24l2.39.026c.252-.034.482-.21.485-.475a.48.48 0 00-.474-.484l-1.442-.016V11.5c0-5.284 4.57-9.583 10.19-9.583s10.19 4.299 10.19 9.583v7.246l-1.458.061a.479.479 0 00-.458.5.479.479 0 00.478.459h.02l2.376-.101V11.5c0-5.812-5-10.542-11.148-10.542"/></g></svg>