<svg viewBox="0 0 24 24"><path d="M10.787 1.459c.655-.612 1.773-.612 2.426 0l10.332 9.682c1.02.956.197 2.443-1.213 2.443-.371 0-.636.217-.636.429v7.156c0 .827-.762 1.451-1.658 1.451h-5.054c-.896 0-1.659-.624-1.659-1.451v-4.143c0-.212-.264-.429-.635-.429h-1.38c-.371 0-.635.217-.635.429v4.143c0 .827-.763 1.451-1.659 1.451H3.962c-.896 0-1.658-.624-1.658-1.451v-7.156c0-.212-.265-.429-.636-.429-1.41 0-2.234-1.487-1.213-2.443l10.332-9.682zM1.155 11.887c-.277.259-.047.674.513.674.896 0 1.659.625 1.659 1.452v7.156c0 .212.264.429.635.429h5.054c.371 0 .636-.217.636-.43v-4.142c0-.827.762-1.452 1.658-1.452h1.38c.896 0 1.658.625 1.658 1.452v4.143c0 .212.265.429.636.429h5.054c.371 0 .636-.217.636-.43v-7.155c0-.827.762-1.452 1.658-1.452.56 0 .79-.415.513-.674L12.513 2.205c-.26-.243-.766-.243-1.026 0L1.154 11.888z"/></svg>