<svg viewBox="0 0 24 24"><path d="M1.978 14.812v4.119a.428.428 0 00.214.37l3.566 2.059a.429.429 0 00.428 0l3.566-2.06a.428.428 0 00.214-.369v-4.119a.428.428 0 00-.214-.37l-3.566-2.059a.429.429 0 00-.428 0l-3.565 2.058a.428.428 0 00-.215.371zm-1 0c0-.51.272-.98.714-1.236l3.566-2.059a1.43 1.43 0 011.428 0l3.567 2.06c.44.255.713.725.713 1.235v4.119c0 .509-.273.981-.714 1.236l-3.566 2.059a1.43 1.43 0 01-1.428 0l-3.566-2.06a1.428 1.428 0 01-.714-1.235v-4.119zm12.819 0v4.119a.429.429 0 00.213.37l3.567 2.059a.427.427 0 00.427 0l3.567-2.06a.428.428 0 00.213-.369v-4.119a.428.428 0 00-.213-.37l-3.567-2.059a.427.427 0 00-.427 0l-3.566 2.058a.43.43 0 00-.214.371zm-1 0c0-.51.271-.98.713-1.236l3.567-2.059a1.427 1.427 0 011.427 0l3.567 2.06c.442.255.713.725.713 1.235v4.119c0 .509-.272.981-.714 1.236l-3.567 2.059a1.427 1.427 0 01-1.426 0l-3.568-2.06a1.429 1.429 0 01-.712-1.235v-4.119zM7.887 4.464v4.119a.429.429 0 00.214.37l3.566 2.059a.429.429 0 00.428 0l3.565-2.058a.43.43 0 00.215-.371V4.464a.427.427 0 00-.214-.37l-3.566-2.059a.429.429 0 00-.428 0l-3.566 2.06a.427.427 0 00-.214.37zm-1 0c0-.51.273-.98.714-1.235l3.566-2.06a1.43 1.43 0 011.428 0l3.566 2.06c.441.254.714.726.714 1.235v4.119a1.43 1.43 0 01-.714 1.236l-3.566 2.06a1.43 1.43 0 01-1.428-.001L7.6 9.819a1.43 1.43 0 01-.713-1.236V4.464z"/></svg>