<svg viewBox="0 0 24 24"><g fill-rule="evenodd"><path d="M23.623 15.23a.481.481 0 00-.402-.334s-.398-.046-1.353-.111c-.993-.057-5.04 1.968-6.258 2.594a.48.48 0 00-.207.646c.12.234.41.327.646.207 2.345-1.206 5.184-2.49 5.737-2.49a.1.1 0 01.017 0c.07.006.135.01.199.014-2.993 2.602-7.3 6.107-8.297 6.266-1.282.208-6.22-.587-8.017-.91a.469.469 0 00-.374.09l-2.56 1.935a.481.481 0 00-.092.673.48.48 0 00.383.19.477.477 0 00.29-.097l2.39-1.809c1.154.202 6.577 1.128 8.131.876 1.695-.271 8.318-6.077 9.628-7.238a.479.479 0 00.14-.503"/><path d="M13.124 17.749c-.009.175-.057.39-.226.47-.355.17-2.349.364-4.07.452a.481.481 0 00-.455.505.484.484 0 00.505.454c.616-.031 3.729-.207 4.434-.545.779-.372.834-1.29.745-1.772a.483.483 0 00-.309-.364c-.184-.066-4.551-1.643-6.824-1.394-2.297.246-6.556 3.482-6.736 3.62a.48.48 0 00-.09.672.48.48 0 00.383.188.476.476 0 00.29-.097c1.169-.892 4.57-3.248 6.256-3.428 1.737-.183 5.085.893 6.097 1.239m-1.641-7.717v.544a.48.48 0 10.96 0v-.558c1.048-.185 1.689-.958 1.606-2-.087-1.081-1.055-1.406-1.832-1.666-.854-.286-1.233-.463-1.271-.953-.057-.729.992-.824 1.003-.824.722-.059 1.388.299 1.394.301a.48.48 0 00.651-.189.48.48 0 00-.188-.65 4 4 0 00-1.363-.407v-.575a.48.48 0 00-.96 0v.625c-.847.202-1.57.829-1.495 1.794.093 1.176 1.151 1.53 1.923 1.788.796.267 1.148.426 1.181.832.066.833-.659.983-.974 1.007-.948.08-1.64-.553-1.645-.558a.48.48 0 00-.679.01.48.48 0 00.011.679c.033.032.676.642 1.678.8"/><path d="M11.857.96a5.862 5.862 0 015.857 5.856 5.863 5.863 0 01-5.856 5.856A5.863 5.863 0 016 6.816 5.863 5.863 0 0111.857.96m0 12.672c3.759 0 6.817-3.058 6.817-6.816S15.616 0 11.858 0 5.04 3.058 5.04 6.816s3.058 6.816 6.816 6.816"/></g></svg>