<svg viewBox="0 0 24 24"><g fill-rule="evenodd"><path d="M6.857 5.714c-.63 0-1.143-.512-1.143-1.143A1.144 1.144 0 018 4.57c0 .63-.513 1.143-1.143 1.143M9.143 4.57a2.288 2.288 0 00-2.286-2.285A2.289 2.289 0 004.57 4.57a2.29 2.29 0 002.286 2.287A2.29 2.29 0 009.143 4.57"/><path d="M22.857 19.429H21.23l-1.048-.988a.575.575 0 00-.392-.155h-.934V17.17a.576.576 0 00-.158-.395l-.571-.598a.572.572 0 00-.414-.177H16.57v-1.142a.57.57 0 00-.192-.428l-1.228-1.091a.576.576 0 00-.658-.071 5.724 5.724 0 01-5.35.107v-.057a6.883 6.883 0 004.57-6.46 6.818 6.818 0 00-1.497-4.267 5.667 5.667 0 013.535 1.65 5.73 5.73 0 01.945 6.823.571.571 0 00.096.683l6.065 6.066v1.616zM8 21.478L6.857 22.62l-1.143-1.142V20a.572.572 0 00-.167-.404l-.74-.738.74-.74a.569.569 0 00.167-.404v-1.142a.575.575 0 00-.167-.405l-.74-.74.74-.737a.57.57 0 00.167-.404V12.9a.57.57 0 00-.416-.55 5.73 5.73 0 01-4.155-5.492 5.721 5.721 0 015.714-5.715 5.72 5.72 0 015.714 5.715 5.73 5.73 0 01-4.155 5.492.57.57 0 00-.416.55v8.578zm15.833-4.306l-5.938-5.937a6.884 6.884 0 00-1.336-7.802 6.822 6.822 0 00-5.481-1.97A6.817 6.817 0 006.857 0 6.865 6.865 0 000 6.858c0 2.903 1.859 5.5 4.57 6.46v.73l-.974.976a.57.57 0 00-.167.404c0 .15.06.297.167.403l.975.977v.67l-.975.975a.572.572 0 000 .808l.975.976v1.477a.57.57 0 00.168.404l1.714 1.715a.568.568 0 00.808 0l1.715-1.715a.569.569 0 00.167-.404v-7.08a6.883 6.883 0 005.543-.18l.743.66v1.458a.57.57 0 00.57.57h1.47l.245.257v1.459c0 .315.256.57.572.57h1.278l1.049.988a.57.57 0 00.39.156h2.426a.571.571 0 00.57-.572v-2.424a.572.572 0 00-.166-.404z"/></g></svg>