<svg viewBox="0 0 24 24"><path d="M15.391 17.687l2.227-5.731 2.305 5.73h-4.532zm7.465 4.722l-4.8-11.938a.479.479 0 00-.444-.301h-.003a.479.479 0 00-.445.306l-2.915 7.502-.002.006-1.723 4.43a.478.478 0 00.273.621.464.464 0 00.174.033.478.478 0 00.447-.307l1.6-4.114h5.291l1.657 4.12a.48.48 0 00.89-.358zm-10.19-5.79a.477.477 0 00.307.11.48.48 0 00.369-.171.48.48 0 00-.06-.677 42.666 42.666 0 01-3.15-2.952v-.001c.165-.147 3.928-3.554 4.83-7.878h3.183a.48.48 0 000-.96h-7.852V1.44a.48.48 0 00-.96 0v2.65H1.48a.48.48 0 000 .96h12.5c-.914 3.925-4.45 7.13-4.503 7.177l-.002.001C8 10.608 6.748 8.886 6.81 7.798a.479.479 0 00-.451-.507c-.258-.037-.492.186-.507.452-.082 1.434 1.353 3.423 2.932 5.162l-5.349 5.243a.48.48 0 00.336.822.485.485 0 00.336-.136l5.333-5.228a43.956 43.956 0 003.226 3.012" fill-rule="evenodd"/></svg>