<svg viewBox="0 0 24 24"><path d="M20.354 12.123c0-1.36-1.053-2.503-2.46-2.623a.911.911 0 00-.171-.008H5.61c-.1 0-.134.001-.164.007l-.067.01a2.63 2.63 0 00-2.4 2.615v8.004A2.636 2.636 0 005.61 22.75h12.112a2.636 2.636 0 002.631-2.622v-8.004zm1 0v8.005a3.636 3.636 0 01-3.631 3.622H5.61a3.636 3.636 0 01-3.631-3.622v-8.005c0-1.881 1.451-3.457 3.258-3.602a1.78 1.78 0 01.373-.03h12.112c.175 0 .256.005.314.02a3.63 3.63 0 013.317 3.612z"/><path d="M11.666 17.617a.682.682 0 00.68-.68v-1.633a.682.682 0 00-.68-.678.683.683 0 00-.679.678v1.633c0 .373.307.68.68.68zm0 1a1.683 1.683 0 01-1.679-1.68v-1.633c0-.923.755-1.678 1.68-1.678.924 0 1.678.754 1.678 1.678v1.633c0 .925-.754 1.68-1.679 1.68zM5.672 6.98a.5.5 0 01-1 0c0-3.863 3.133-7 6.99-7 3.865 0 7 3.135 7 7a.5.5 0 11-1 0c0-3.312-2.687-6-6-6-3.305 0-5.99 2.689-5.99 6z"/></svg>