<svg viewBox="0 0 24 24"><g fill-rule="evenodd"><path d="M10.76 21.236a2.034 2.034 0 01-2.667-1.064 2.022 2.022 0 01-.02-1.554c.202-.504.586-.9 1.085-1.113a2.022 2.022 0 011.554-.02c.504.2.899.586 1.113 1.084a2.032 2.032 0 01-1.065 2.667m.323-4.681a3.01 3.01 0 00-2.32.03 3.01 3.01 0 00-1.618 1.662 3.003 3.003 0 00.03 2.319 3.034 3.034 0 003.98 1.589 3.035 3.035 0 001.589-3.981 3.011 3.011 0 00-1.661-1.62"/><path d="M23.066 13.807a.497.497 0 00-.657-.262l-8.03 3.447a4.92 4.92 0 00-5.964-2.415L3.027 2.027a.501.501 0 00-.657-.263l-2.067.887a.5.5 0 00-.262.657c.108.253.401.37.656.263l1.608-.691 5.387 12.549a.503.503 0 00.677.253.628.628 0 00.09-.052c1.982-.853 4.289.069 5.146 2.074.004.017.033.11.039.126a.504.504 0 00.467.321.5.5 0 00.197-.041l8.496-3.647a.498.498 0 00.262-.656"/><path d="M14.991 14.347l-1.356-3.159 6.19-2.658 1.357 3.159-6.19 2.658zm4.9-6.933l-7.11 3.052a.499.499 0 00-.262.656l1.75 4.079a.5.5 0 00.657.261l7.11-3.052a.498.498 0 00.267-.274.503.503 0 00-.005-.383l-1.75-4.077a.497.497 0 00-.658-.262zm-8.148 1.397l-3.159 1.356-2.428-5.654 3.159-1.356 2.428 5.654zm-6.44-5.02A.5.5 0 005 4.25a.49.49 0 00.041.197l2.821 6.573a.5.5 0 00.656.263l4.079-1.751a.505.505 0 00.267-.274.498.498 0 00-.006-.383l-2.822-6.573a.498.498 0 00-.656-.262L5.303 3.79zm10.49-.633l1.356 3.158-2.636 1.132-1.356-3.16 2.636-1.13zm-2.001 5.144a.499.499 0 00.459.302.489.489 0 00.197-.04l3.555-1.525a.5.5 0 00.262-.657l-1.75-4.078a.498.498 0 00-.274-.267.49.49 0 00-.383.005l-3.555 1.526a.499.499 0 00-.262.656l1.75 4.078z"/></g></svg>