<svg viewBox="0 0 24 24"><g fill-rule="evenodd"><path d="M23.223 9.68a.5.5 0 00-.5.5v8.942c0 .507-.413.92-.92.92H1.92a.921.921 0 01-.92-.92V10.18a.5.5 0 00-1 0v8.94c0 1.06.861 1.92 1.92 1.92h19.883c1.06 0 1.92-.86 1.92-1.92v-8.94a.5.5 0 00-.5-.5"/><path d="M22.723 7.031l-10.86 5.431L1 7.032V5.92c0-.507.413-.92.92-.92h19.883c.507 0 .92.413.92.92v1.111zm-.92-3.03H1.92C.861 4 0 4.86 0 5.92v1.42a.5.5 0 00.276.446l11.362 5.681a.5.5 0 00.447 0l11.362-5.68a.5.5 0 00.276-.448V5.92c0-1.059-.86-1.92-1.92-1.92z"/></g></svg>