<svg viewBox="0 0 24 24"><g fill-rule="evenodd"><path d="M18.094 8.041a.5.5 0 00-.5.5v4.113c0 2.921-2.376 5.297-5.297 5.297S7 15.575 7 12.654V8.541a.5.5 0 10-1 0v4.113c0 3.303 2.558 6.016 5.797 6.272V23h-2.81a.5.5 0 000 1h6.62a.5.5 0 100-1h-2.81v-4.074c3.239-.256 5.797-2.969 5.797-6.272V8.541a.5.5 0 00-.5-.5"/><path d="M9.244 4.053A3.056 3.056 0 0112.297 1a3.056 3.056 0 013.052 3.053v8.602c0 1.683-1.369 3.053-3.052 3.053s-3.053-1.37-3.053-3.053V4.053zm3.053 12.655a4.057 4.057 0 004.052-4.053V4.053A4.057 4.057 0 0012.297 0a4.058 4.058 0 00-4.053 4.053v8.602a4.057 4.057 0 004.053 4.053z"/></g></svg>