<svg viewBox="0 0 24 24"><path d="M21.163 23H2.467a1.471 1.471 0 010-2.943h10.412l.184-.036c2.199-.869 3.677-3.056 3.677-5.442 0-2.737-1.942-5.146-4.618-5.729l-.338-.075-2.718 4.214-3.114-2.008 5.889-9.133a1.859 1.859 0 012.562-.553 1.858 1.858 0 01.553 2.56l-1.758 2.72.58.217c3.234 1.214 5.406 4.343 5.406 7.787a8.218 8.218 0 01-1.458 4.693l-.541.785h3.978a1.47 1.47 0 010 2.942zM9.405 14.395c.108.07.182.177.209.302a.487.487 0 01-.066.365.497.497 0 01-.67.146l-5.101-3.29a.485.485 0 01-.146-.667.488.488 0 01.41-.222c.089 0 .18.025.26.076l.269.174 4.795 3.093v-.002l.04.025zm11.758 4.661h-2.128a9.245 9.245 0 001.149-4.478c0-3.652-2.18-6.988-5.483-8.487l1.096-1.697a2.84 2.84 0 00.389-2.145A2.863 2.863 0 0014.945.455 2.855 2.855 0 0011 1.307L5.112 10.44l-.268-.172a1.487 1.487 0 00-2.053.443 1.487 1.487 0 00.444 2.05l5.102 3.29a1.484 1.484 0 001.609-2.493l-.038-.026 2.333-3.62c2.047.602 3.499 2.513 3.499 4.668 0 1.948-1.185 3.735-2.958 4.478H2.467a2.472 2.472 0 000 4.942h18.696a2.472 2.472 0 000-4.942z" fill-rule="evenodd"/></svg>