<svg viewBox="0 0 24 24"><g fill-rule="evenodd"><path d="M17.611 19.32a5.435 5.435 0 01-5.428-5.429 5.435 5.435 0 015.428-5.429 5.435 5.435 0 015.43 5.429 5.435 5.435 0 01-5.43 5.429zm-13.744-.883a1.068 1.068 0 010-2.135h7.752a6.45 6.45 0 001.436 2.135H3.867zM2.8 14.274c0-.59.479-1.068 1.067-1.068h7.299a6.665 6.665 0 00-.032.652c0 .493.06.99.178 1.484H3.867A1.069 1.069 0 012.8 14.274zm0-3.096c0-.588.479-1.067 1.067-1.067h8.464a6.437 6.437 0 00-.995 2.135H3.867A1.069 1.069 0 012.8 11.178zm9.398-4.163h3.21c.382 0 .721.205.91.517a6.431 6.431 0 00-3.147 1.619H5.247a1.069 1.069 0 01-1.068-1.068c0-.588.48-1.068 1.068-1.068h6.951zM.96 4.988a1.07 1.07 0 011.068-1.069h10.17a1.069 1.069 0 010 2.136H2.028c-.59 0-1.068-.478-1.068-1.067zm16.651 2.514c-.088 0-.173.01-.26.014a2.029 2.029 0 00-1.943-1.46h-1.494a2.01 2.01 0 00.311-1.068 2.03 2.03 0 00-2.027-2.029H2.028A2.03 2.03 0 000 4.989a2.03 2.03 0 002.028 2.027H3.53a2.002 2.002 0 00-.312 1.068c0 .406.123.782.33 1.1a2.025 2.025 0 00-1.71 1.995c0 .623.29 1.176.734 1.548a2.016 2.016 0 00-.733 1.548c0 .623.289 1.175.733 1.548a2.014 2.014 0 00-.733 1.547 2.03 2.03 0 002.027 2.028h10.17c.103 0 .201-.016.3-.03a6.345 6.345 0 003.274.913 6.396 6.396 0 006.39-6.389 6.397 6.397 0 00-6.39-6.389z"/><path d="M17.69 12.277c.518-.048 1.003.215 1.01.22a.483.483 0 00.651-.188.48.48 0 00-.186-.653 3.132 3.132 0 00-.993-.318v-.34a.48.48 0 00-.96 0v.4c-.662.187-1.21.695-1.15 1.469.077.977.932 1.264 1.556 1.472.608.204.814.311.833.545.04.495-.331.63-.648.655-.687.055-1.178-.396-1.18-.398a.48.48 0 00-.679.01.48.48 0 00.01.68 2.73 2.73 0 001.258.623v.33c0 .266.215.48.48.48a.479.479 0 00.48-.48v-.334c.813-.18 1.301-.81 1.236-1.643-.074-.904-.89-1.178-1.485-1.378-.658-.22-.88-.342-.903-.636-.035-.453.663-.516.67-.516"/></g></svg>