<svg viewBox="0 0 24 24"><path d="M22.469 4.259l-6.296 6.296a.481.481 0 000 .679.378.378 0 010 .536l-.53.53a.382.382 0 01-.536.002l-.788-.789-2.648-2.647a.381.381 0 01-.001-.537l.532-.53a.387.387 0 01.535 0 .483.483 0 00.34.14.483.483 0 00.34-.14l6.296-6.297c.736-.737 2.019-.737 2.756 0 .76.76.76 1.996 0 2.757zM6.021 20.648c-.55.55-1.37.708-2.089.41l-.296-.125-1.956 1.955a.432.432 0 01-.596 0 .42.42 0 01-.124-.3c0-.11.044-.217.123-.296l1.937-1.939-.131-.392-.009-.007a1.907 1.907 0 01.444-2.005l8.037-8.035.824.824 1.873 1.874-8.036 8.036zM23.148.824c-1.098-1.098-3.015-1.1-4.114 0l-6.02 6.018a1.37 1.37 0 00-1.49.278l-.533.53a1.33 1.33 0 00-.246 1.521l-8.1 8.1a2.863 2.863 0 00-.727 2.828L.405 21.613a1.372 1.372 0 00-.405.976c0 .368.143.716.404.977.262.262.61.405.979.405.368 0 .716-.143.976-.405l1.514-1.513c.997.29 2.08.023 2.827-.727l8.1-8.099c.182.088.375.144.574.144.342 0 .686-.13.947-.392l.531-.53c.402-.404.494-1 .277-1.492l6.019-6.02a2.913 2.913 0 000-4.113z" fill-rule="evenodd"/></svg>