<svg viewBox="0 0 24 24"><path d="M21.023 13.945a1.386 1.386 0 01-1.385-1.385c0-.763.622-1.385 1.385-1.385s1.385.622 1.385 1.385-.622 1.385-1.385 1.385m-9.921 1.367A2.754 2.754 0 018.35 12.56a2.754 2.754 0 012.752-2.751 2.755 2.755 0 012.752 2.751 2.755 2.755 0 01-2.752 2.752M2.308 7.03A1.386 1.386 0 01.923 5.646c0-.763.621-1.384 1.385-1.384.763 0 1.384.62 1.384 1.384 0 .764-.621 1.385-1.384 1.385m13.876 13.76c0 .763-.621 1.384-1.384 1.384a1.386 1.386 0 01-1.385-1.385c0-.763.621-1.384 1.385-1.384.763 0 1.384.62 1.384 1.384m-13.553-.673c-.764 0-1.385-.62-1.385-1.384a1.385 1.385 0 012.77 0c0 .764-.622 1.384-1.385 1.384M17.686 1.923a1.386 1.386 0 010 2.77 1.386 1.386 0 010-2.77m3.337 8.33a2.312 2.312 0 00-2.262 1.846h-4.03a3.633 3.633 0 00-.906-1.984l3.02-4.663c.261.102.544.164.841.164a2.31 2.31 0 002.308-2.308 2.31 2.31 0 00-2.308-2.307 2.31 2.31 0 00-2.308 2.307c0 .644.266 1.225.692 1.643l-2.944 4.546a3.663 3.663 0 00-4.621.465L4.347 6.705c.166-.317.268-.675.268-1.058A2.31 2.31 0 002.308 3.34 2.31 2.31 0 000 5.646a2.31 2.31 0 002.308 2.308c.555 0 1.058-.205 1.457-.533L7.95 10.7a3.645 3.645 0 00-.523 1.861c0 .6.159 1.159.414 1.66l-3.63 2.841a2.292 2.292 0 00-1.58-.635 2.31 2.31 0 00-2.308 2.307 2.31 2.31 0 002.308 2.307 2.31 2.31 0 002.307-2.307c0-.327-.07-.637-.193-.919l3.617-2.83a3.65 3.65 0 002.74 1.25c.22 0 .433-.027.642-.064l1.57 2.87a2.293 2.293 0 00-.822 1.75 2.31 2.31 0 002.308 2.308 2.31 2.31 0 002.307-2.308 2.31 2.31 0 00-2.307-2.307c-.238 0-.461.046-.676.112l-1.483-2.708a3.667 3.667 0 002.09-2.865h4.03a2.312 2.312 0 002.262 1.846 2.31 2.31 0 002.308-2.308 2.31 2.31 0 00-2.308-2.308" fill-rule="evenodd"/></svg>