<svg viewBox="0 0 24 24"><path d="M17.47 22.575a3.296 3.296 0 01-3.293-3.292 3.296 3.296 0 013.292-3.292 3.296 3.296 0 013.292 3.292 3.296 3.296 0 01-3.292 3.292M6.292 15.168A3.295 3.295 0 013 11.876a3.295 3.295 0 013.292-3.292 3.295 3.295 0 013.292 3.292 3.296 3.296 0 01-3.292 3.292M17.47 1a3.295 3.295 0 013.292 3.292 3.296 3.296 0 01-3.292 3.292 3.296 3.296 0 01-3.292-3.292A3.295 3.295 0 0117.47 1m0 13.991c-1.31 0-2.47.603-3.259 1.532l-4.104-2.72a4.233 4.233 0 00.478-1.927c0-.713-.19-1.376-.5-1.968l4.156-2.82c.787.908 1.935 1.496 3.23 1.496a4.297 4.297 0 004.291-4.292C21.761 1.926 19.836 0 17.47 0s-4.292 1.926-4.292 4.292c0 .713.191 1.376.5 1.968L9.522 9.08c-.788-.908-1.936-1.496-3.23-1.496A4.297 4.297 0 002 11.876a4.297 4.297 0 004.292 4.292c1.31 0 2.471-.604 3.26-1.532l4.103 2.72a4.253 4.253 0 00-.478 1.927c0 2.366 1.925 4.292 4.292 4.292s4.292-1.926 4.292-4.292a4.297 4.297 0 00-4.292-4.292" fill-rule="evenodd"/></svg>