<svg viewBox="0 0 24 24"><path d="M9.642 17.795l-3.384-5.861c4.838-3.28 6.87-6.134 8.99-9.127v-.002l6.795 11.769c-3.652.34-7.142.67-12.4 3.22m-3.137 1.667l-.843.486a2.274 2.274 0 01-1.734.228 2.27 2.27 0 01-1.388-1.065l-.973-1.684a2.288 2.288 0 01.838-3.122l.842-.487A51.97 51.97 0 005.2 12.63l3.312 5.734c-.644.336-1.307.695-2.006 1.098m17.123-4.666L15.852 1.32a.633.633 0 00-.517-.315c-.223-.035-.42.089-.544.263l-.574.808c-2.432 3.435-4.73 6.68-11.6 10.646l-.842.487a3.554 3.554 0 00-1.3 4.848l.973 1.683a3.538 3.538 0 002.155 1.655 3.627 3.627 0 00.926.121c.614 0 1.22-.161 1.767-.477l.843-.485c.703-.408 1.37-.767 2.016-1.103a7.612 7.612 0 007.004 3.677.631.631 0 00.592-.67c-.02-.347-.326-.632-.668-.59a6.384 6.384 0 01-5.79-2.984c5.016-2.41 8.366-2.728 11.87-3.054l.981-.091a.634.634 0 00.5-.34.631.631 0 00-.014-.605" fill-rule="evenodd"/></svg>