<svg viewBox="0 0 24 24"><path d="M21.082 16.21a1.997 1.997 0 00-1.725-1.016c-.697 0-1.312.364-1.672.915h-.77l-.003-2.252a.507.507 0 00.191.039H22.8v2.314h-1.718zm-1.725 2.034c-.533 0-.966-.45-.966-1.004 0-.553.433-1.003.966-1.003.531 0 .964.45.964 1.003 0 .554-.433 1.004-.964 1.004zM11.17 16.21a1.998 1.998 0 00-1.725-1.016c-.738 0-1.376.412-1.726 1.016H6V7.087h9.862l.003 2.512c0 .006-.003.01-.003.016 0 .007.003.01.003.016l.006 6.58h-4.702zm-1.725 2.034c-.533 0-.966-.45-.966-1.004 0-.553.433-1.003.966-1.003.531 0 .964.45.964 1.003 0 .554-.433 1.004-.964 1.004zm11.107-8.107l1.654 2.715h-5.102a.529.529 0 00-.192.039l-.003-2.754h3.643zm3.216 3.274l-2.478-4.067a.52.52 0 00-.446-.25h-3.936l-.002-2.53a.522.522 0 00-.522-.52H5.48a.521.521 0 00-.522.521c0 .023.01.044.014.066-.003.024-.015.045-.015.071v10.03a.522.522 0 00.522.522h1.959c.007 1.123.904 2.033 2.007 2.033 1.103 0 2-.91 2.008-2.033h4.942a.51.51 0 00.29-.101h.673c-.001.03-.01.058-.01.087 0 1.13.902 2.047 2.01 2.047 1.103 0 2-.91 2.008-2.033h1.956a.521.521 0 00.522-.522v-3.05a.52.52 0 00-.076-.271zM3.497 10.83l-2.974-.008H.521a.522.522 0 00-.521.52.522.522 0 00.52.523l2.974.008h.002a.522.522 0 00.522-.52.523.523 0 00-.52-.523m0 2.643l-1.487-.007H2.01a.522.522 0 00-.522.52.52.52 0 00.52.523l1.486.008h.003a.523.523 0 00.002-1.043" fill-rule="evenodd"/></svg>