<svg viewBox="0 0 24 24" fill="none" xmlns="http://www.w3.org/2000/svg"><path fill-rule="evenodd" clip-rule="evenodd" d="M7 19c-2.7614 0-5-2.2386-5-5s2.2386-5 5-5c.0334 0 .0666.0003.0998.001C7.5628 6.7183 9.5807 5 12 5s4.4373 1.7183 4.9002 4.001A5.0932 5.0932 0 0 1 17 9c2.7614 0 5 2.2386 5 5s-2.2386 5-5 5H7Zm1.298-5.9599a.8992.8992 0 0 1 1.264-.1405l1.434 1.1471V10c0-.5523.4477-1 1-1s1 .4477 1 1v4.0499l1.4379-1.1503a.8992.8992 0 0 1 1.264.1405.8993.8993 0 0 1-.1404 1.264l-2.9977 2.3981a.8992.8992 0 0 1-1.1236 0l-2.9977-2.3981a.8993.8993 0 0 1-.1404-1.264Z" fill="currentcolor"/></svg>