<svg viewBox="0 0 24 24"><path d="M22.59 14.024l-1.359-4.48c-.03-4.19-2.8-7.784-6.602-9.054v4.821l1.235 1.235c.056-.02.106-.053.166-.062.305-.052.609.022.858.202.25.18.415.446.464.75a1.153 1.153 0 01-1.14 1.335 1.148 1.148 0 01-.67-.215c-.437-.315-.566-.874-.378-1.353L13.669 5.71V.223a9.42 9.42 0 00-1.896-.221 9.45 9.45 0 00-2.55.307v5.12c.394.182.673.575.673 1.04 0 .634-.517 1.151-1.152 1.151a1.154 1.154 0 01-1.152-1.152c0-.464.278-.857.672-1.04V.608C4.67 1.951 2.07 5.39 2 9.448a6.93 6.93 0 00.065.997l5.682-.067 1.516 1.473a1.15 1.15 0 01.6-.095 1.147 1.147 0 01.757.453c.184.246.26.55.215.855a1.145 1.145 0 01-.453.755 1.145 1.145 0 01-.684.228 1.263 1.263 0 01-.17-.012 1.144 1.144 0 01-.758-.454 1.15 1.15 0 01-.215-.854c.01-.06.043-.11.06-.167l-1.25-1.216-5.12.06c.36 1.454 1.118 3.023 2.287 4.695.402.575.652 1.438.655 2.202l-.457 4.078-.003.053A1.57 1.57 0 006.296 24h3.895v-5.778l1.495-1.495c-.19-.479-.06-1.038.376-1.352a1.157 1.157 0 011.61.262 1.153 1.153 0 01-.934 1.825 1.139 1.139 0 01-.188-.016c-.06-.008-.109-.042-.164-.061l-1.235 1.234V24h.893c.864 0 1.568-.704 1.568-1.65 0-.483.393-.877.877-.877h2.947a2.791 2.791 0 002.787-2.787v-2.9h1.059c.436 0 .837-.2 1.097-.552.26-.35.337-.792.21-1.21" fill-rule="evenodd"/></svg>