<svg viewBox="0 0 24 24"><g fill-rule="evenodd"><path d="M13.409 12.94H9.965v2.504h3.443c.336 0 .65-.13.886-.368a1.243 1.243 0 00.367-.885c0-.335-.13-.649-.367-.886a1.247 1.247 0 00-.886-.366m0-4.383H9.966v2.505h3.443c.336 0 .65-.13.886-.366a1.247 1.247 0 00.367-.887 1.243 1.243 0 00-.367-.884 1.244 1.244 0 00-.886-.368"/><path d="M16.54 14.191c0 .836-.326 1.623-.917 2.215a3.113 3.113 0 01-2.11.915v.94h-1.878v-.94H10.8v.94H8.922v-.94H7.46v-1.878h.626V8.558h-.626V6.678h1.46V5.74H10.8v.94h.835v-.94h1.878v.941a3.113 3.113 0 012.11.915c.59.592.916 1.378.916 2.214a3.11 3.11 0 01-.895 2.19c.578.59.895 1.367.895 2.192M12 0C5.373 0 0 5.373 0 12s5.373 12 12 12 12-5.373 12-12S18.627 0 12 0"/></g></svg>