<svg viewBox="0 0 24 24"><path d="M18.714 10.958c-1.348.578-3.215.477-5.6-.303-2.517-.822-4.839-.88-6.971-.193V8.888c0-.84.374-1.627 1.024-2.16l2.385-1.949a1.909 1.909 0 00.705-1.484V1.243a.1.1 0 01.1-.1H14.5a.1.1 0 01.1.1v2.052c0 .578.257 1.119.705 1.484l2.385 1.95a2.78 2.78 0 011.025 2.16v2.069zm-1.62 4.722a1.716 1.716 0 01-1.58 1.026c-.947 0-1.714-.753-1.714-1.68 0-.465.192-.885.502-1.188.015-.015.033-.027.049-.04a1.718 1.718 0 011.163-.453c.947 0 1.715.752 1.715 1.681 0 .232-.048.453-.135.654zm-4.665 2.987a1.041 1.041 0 01-.39-.077.998.998 0 01-.319-.21.97.97 0 01-.276-.615c-.002-.028-.015-.05-.015-.078a.97.97 0 01.291-.693 1.014 1.014 0 01.709-.289c.551 0 1 .44 1 .982a.99.99 0 01-1 .98zM18.41 5.842l-2.385-1.948a.772.772 0 01-.284-.6v-2.05C15.742.557 15.184 0 14.499 0h-4.141c-.686 0-1.244.558-1.244 1.243v2.052a.772.772 0 01-.284.599L6.445 5.842A3.92 3.92 0 005 8.888v11.18A3.937 3.937 0 008.931 24h6.994a3.938 3.938 0 003.932-3.933V8.888a3.92 3.92 0 00-1.446-3.046z" fill-rule="evenodd"/></svg>