<svg viewBox="0 0 24 24"><g fill-rule="evenodd"><path d="M12.506.042V4.24c0 .372.3.674.669.674h4.166c-.957-1.7-3.514-4.15-4.835-4.872m6.646 16.197h-4.107a.57.57 0 01-.57-.57.57.57 0 01.57-.57h4.108a.57.57 0 01.57.57.57.57 0 01-.57.57m0 2.944h-4.108a.57.57 0 01-.57-.57.57.57 0 01.57-.571h4.108a.57.57 0 01.57.57.57.57 0 01-.57.57m-2.054-8.018a5.977 5.977 0 100 11.953 5.977 5.977 0 000-11.953"/><path d="M10.37 8.12l-2.037 3.963a.569.569 0 01-.42.302.566.566 0 01-.492-.16l-1.52-1.528-2.08 3.588v3.61H7.23a.57.57 0 01.57.571.57.57 0 01-.57.57H3.25a.57.57 0 01-.57-.57V7.628a.57.57 0 01.57-.57.57.57 0 01.57.57v4.38L5.289 9.48a.58.58 0 01.42-.28.561.561 0 01.478.164l1.49 1.5 1.678-3.266a.571.571 0 01.769-.246.571.571 0 01.246.768m6.73 2.418c.082 0 .161.01.242.012V5.887c0-.104-.03-.204-.06-.302h-4.718a.768.768 0 01-.768-.767V.102a.99.99 0 00-.3-.06H1.03C.46.041 0 .502 0 1.071v20.7c0 .569.46 1.03 1.03 1.03h12.684a6.59 6.59 0 01-3.218-5.661 6.603 6.603 0 016.603-6.603z"/></g></svg>