<svg viewBox="0 0 24 24"><path d="M8.641 16H1.177C.527 16 0 15.37 0 14.593V1.407C0 .629.527 0 1.177 0h7.464c.65 0 1.177.629 1.177 1.407v13.186c0 .777-.527 1.407-1.177 1.407zM22.758 5.714h-7.335c-.686 0-1.241-.64-1.241-1.428V1.429c0-.79.555-1.429 1.241-1.429h7.335C23.444 0 24 .639 24 1.429v2.857c0 .788-.556 1.428-1.242 1.428zM15.358 8h7.465C23.473 8 24 8.629 24 9.407v13.186C24 23.37 23.473 24 22.823 24h-7.464c-.65 0-1.177-.63-1.177-1.407V9.407c0-.778.527-1.407 1.177-1.407zM1.243 18.286h7.335c.685 0 1.241.638 1.241 1.428v2.857c0 .789-.556 1.429-1.241 1.429H1.242C.555 24 0 23.36 0 22.571v-2.857c0-.79.555-1.428 1.242-1.428z" fill-rule="evenodd"/></svg>