<svg viewBox="0 0 24 24"><path d="M15.06 16.207a3.41 3.41 0 01-1.777 1.14c-.307.085-.446.248-.43.568.011.313-.004.63-.004.945 0 .28-.142.43-.42.437-.337.01-.678.01-1.016.003-.299-.006-.438-.175-.44-.464-.004-.23-.004-.462-.006-.692-.006-.506-.022-.527-.51-.606-.625-.1-1.238-.241-1.81-.519-.45-.22-.498-.332-.37-.802.098-.35.194-.7.303-1.048.127-.4.235-.452.607-.259a5.892 5.892 0 002.009.6c.456.058.899.013 1.319-.172.784-.343.904-1.252.244-1.798a3.077 3.077 0 00-.749-.44c-.688-.305-1.406-.534-2.054-.924-1.053-.63-1.723-1.496-1.645-2.778.088-1.449.908-2.353 2.236-2.837.55-.199.552-.19.556-.763.002-.197-.004-.39.002-.583.012-.43.085-.507.513-.518.133-.003.266 0 .399 0 .917 0 .917 0 .919.914.004.649.004.652.649.751.496.078.966.223 1.424.426.25.112.348.287.269.552-.117.395-.223.794-.35 1.185-.121.372-.238.426-.595.254a4.567 4.567 0 00-2.256-.447c-.205.013-.408.04-.6.124-.682.299-.794 1.053-.212 1.518.296.235.63.404.98.55.604.249 1.214.491 1.787.808 1.829 1.01 2.32 3.307 1.029 4.875M12 0C5.373 0 0 5.373 0 12s5.373 12 12 12 12-5.373 12-12S18.627 0 12 0" fill-rule="evenodd"/></svg>