<svg viewBox="0 0 24 24"><path d="M14.76 10.994c-.864-.477-1.782-.84-2.69-1.218-.527-.218-1.032-.472-1.478-.826-.877-.7-.708-1.836.32-2.286.29-.127.594-.168.903-.186a6.859 6.859 0 013.4.672c.536.26.713.178.894-.382.19-.59.35-1.19.527-1.785.118-.4-.028-.664-.404-.832a8.607 8.607 0 00-2.146-.64c-.972-.15-.972-.155-.976-1.132-.005-1.377-.005-1.377-1.385-1.377-.201 0-.4-.005-.6 0-.646.018-.755.133-.773.782-.01.29 0 .582-.005.877-.004.863-.009.85-.836 1.149-1.999.727-3.235 2.09-3.367 4.272-.118 1.931.89 3.234 2.477 4.184.976.586 2.058.931 3.094 1.39.404.178.791.382 1.127.664.995.823.813 2.19-.369 2.708-.63.277-1.299.345-1.985.26-1.058-.132-2.072-.41-3.026-.905-.559-.29-.722-.213-.913.39a48.98 48.98 0 00-.455 1.577c-.195.71-.122.877.555 1.21.863.417 1.786.63 2.726.781.736.118.76.15.768.912.005.346.005.696.01 1.042.004.435.212.69.662.7a38.323 38.323 0 001.531-.005c.419-.01.632-.237.632-.66 0-.472.023-.949.005-1.422-.023-.482.186-.726.65-.854a5.135 5.135 0 002.676-1.717c1.944-2.362 1.203-5.821-1.55-7.343z" fill-rule="evenodd"/></svg>