<svg viewBox="0 0 24 24"><path d="M14.182 4.841c0 1.017-3.175 1.84-7.09 1.84C3.174 6.681 0 5.858 0 4.841c0-1.017 3.175-1.84 7.091-1.84 3.916 0 7.091.823 7.091 1.84zm-7.091 5.536c3.916 0 7.09-.824 7.09-1.84v2.59c0 1.017-3.174 1.841-7.09 1.841-3.917 0-7.091-.824-7.091-1.841v-2.59c0 1.016 3.175 1.84 7.091 1.84zm0-3.143c3.916 0 7.09-.825 7.09-1.84v2.59c0 1.016-3.174 1.841-7.09 1.841C3.174 9.825 0 9 0 7.984v-2.59c0 1.016 3.175 1.84 7.091 1.84zm9.136 13.788c3.917 0 7.091-.823 7.091-1.84v2.59c0 1.018-3.174 1.841-7.09 1.841-3.917 0-7.092-.823-7.092-1.841v-2.59c0 1.017 3.175 1.84 7.091 1.84zm0-3.142c3.917 0 7.091-.825 7.091-1.84v2.59c0 1.016-3.174 1.84-7.09 1.84-3.917 0-7.092-.824-7.092-1.84v-2.59c0 1.015 3.175 1.84 7.091 1.84zm-7.595-2.775v.961a26.045 26.045 0 01-1.541.045c-3.916 0-7.09-.824-7.09-1.84v-2.592c0 1.017 3.174 1.84 7.09 1.84s7.09-.823 7.09-1.84v1.575c-3.15.225-5.476.965-5.548 1.851zm-.002 1.514l-.003 2.59a26.859 26.859 0 01-1.536.045c-3.916 0-7.09-.824-7.09-1.84v-2.59c0 1.015 3.174 1.84 7.09 1.84.53 0 1.043-.017 1.54-.045zm14.689-1.133c0 1.017-3.176 1.84-7.091 1.84-3.917 0-7.091-.823-7.091-1.84 0-1.016 3.174-1.84 7.09-1.84s7.092.824 7.092 1.84zM8.625 21.862c0 .164.086.323.232.476-.565.038-1.155.06-1.766.06-3.917 0-7.091-.825-7.091-1.84v-2.592c0 1.016 3.174 1.84 7.09 1.84.53 0 1.041-.016 1.537-.044l-.003 2.1zm13.42-16.247c1.272.703 1.613 2.3.715 3.39a2.368 2.368 0 01-1.236.794c-.214.059-.31.172-.3.395.01.218-.002.438-.002.656 0 .196-.098.3-.291.305a19.089 19.089 0 01-.707.002c-.208-.005-.304-.122-.307-.324l-.004-.48c-.004-.353-.014-.368-.355-.421-.434-.07-.86-.17-1.258-.362-.313-.153-.346-.23-.257-.558.068-.243.135-.488.21-.729.088-.279.164-.314.422-.18.44.23.909.357 1.397.418.317.04.625.008.918-.12.545-.239.63-.87.169-1.25a2.109 2.109 0 00-.52-.306c-.478-.212-.978-.371-1.429-.642-.733-.44-1.198-1.042-1.143-1.933.06-1.007.63-1.636 1.555-1.972.382-.139.384-.132.385-.532.002-.136-.001-.27.002-.404.009-.3.059-.353.357-.361.092-.002.185 0 .277 0 .638 0 .638 0 .64.636.002.451.002.453.45.522.345.055.673.155.992.296.174.077.241.2.186.384-.08.275-.155.552-.243.824-.083.259-.166.296-.414.177a3.156 3.156 0 00-1.569-.31 1.2 1.2 0 00-.417.085c-.474.208-.552.732-.148 1.055.206.164.439.282.682.382.42.175.844.343 1.243.563z" fill-rule="evenodd"/></svg>