<svg viewBox="0 0 24 24"><path d="M15.596 17.502a6.571 6.571 0 01-1.013.368c-1.325.365-2.648.377-3.962-.048-1.59-.516-2.646-1.598-3.276-3.118-.119-.294-.2-.604-.293-.911H5.807a.376.376 0 01-.378-.378v-.839a.377.377 0 01.378-.378H6.84v-.683H5.807a.376.376 0 01-.378-.378v-.839a.377.377 0 01.378-.378h1.31l.044-.13c.352-1.125.96-2.082 1.896-2.806.742-.577 1.602-.893 2.522-1.041 1.31-.21 2.578-.03 3.807.45.08.03.157.066.23.109.296.173.372.395.242.71-.137.333-.276.665-.426.99-.13.285-.306.373-.61.304-.416-.094-.824-.22-1.239-.305-.878-.18-1.748-.19-2.6.148-.732.291-1.178.85-1.484 1.545-.005.005-.005.016-.005.026h2.55c.21 0 .378.17.378.378v.84a.376.376 0 01-.377.377H9.126c-.003.224 0 .449 0 .683h2.919c.209 0 .377.17.377.378v.839a.376.376 0 01-.377.378H9.38c.321.919.845 1.63 1.826 1.939.784.248 1.58.232 2.373.066.41-.084.814-.208 1.225-.303.323-.074.498.012.632.309.154.33.293.667.431 1.004.125.304.044.55-.272.694M12 0C5.373 0 0 5.372 0 12c0 6.627 5.373 12 12 12 6.628 0 12-5.373 12-12 0-6.628-5.372-12-12-12" fill-rule="evenodd"/></svg>