<svg viewBox="0 0 24 24"><path d="M19.767 8.17h-1.151c-.009 0-.015-.004-.022-.005a2.652 2.652 0 01-2.603 2.119 2.652 2.652 0 01-2.604-2.137c-.038.009-.074.023-.116.023h-9.12a.528.528 0 110-1.057h9.12c.042 0 .078.016.116.023a2.65 2.65 0 012.604-2.135 2.65 2.65 0 012.603 2.117c.007 0 .013-.004.022-.004h1.151a.53.53 0 110 1.057m0 8.716h-9.12c-.04 0-.077-.015-.115-.023A2.652 2.652 0 017.928 19a2.654 2.654 0 01-2.604-2.118c-.006 0-.012.005-.02.005H4.151a.528.528 0 110-1.057h1.151c.009 0 .015.004.022.005a2.653 2.653 0 012.603-2.118 2.65 2.65 0 012.604 2.136c.038-.008.075-.022.116-.022h9.12a.53.53 0 110 1.056M22.61 0H1.39C.621 0 0 .618 0 1.382v21.236C0 23.381.622 24 1.39 24h21.22c.768 0 1.39-.62 1.39-1.382V1.382C24 .618 23.378 0 22.61 0" fill-rule="evenodd"/></svg>