<svg viewBox="0 0 24 24"><path d="M2.34 14.843a1.114 1.114 0 110-2.229c.202 0 .381.069.544.162l4.723-4.547c-.026-.095-.059-.187-.059-.288 0-.615.498-1.115 1.115-1.115.493 0 .898.326 1.044.769l4.05 1.54c.193-.161.433-.27.704-.27.154 0 .3.03.432.087l5.002-5.522c-.031-.103-.064-.203-.064-.316a1.114 1.114 0 111.115 1.115c-.108 0-.206-.033-.305-.062l-5.1 5.631c.01.061.035.117.035.18 0 .615-.497 1.114-1.115 1.114a1.1 1.1 0 01-1.078-.941L9.49 8.67a1.101 1.101 0 01-.828.383c-.117 0-.221-.032-.327-.065l-4.887 4.706c0 .011.005.022.005.034 0 .614-.497 1.114-1.114 1.114zm20.787 5.575c.301 0 .546.245.546.546a.546.546 0 01-.546.545H.546A.545.545 0 010 20.964a.545.545 0 01.545-.546h7.65c0-.016-.009-.03-.008-.047l.143-7.875a.58.58 0 01.582-.572h1.781c.325 0 .588.268.581.593l-.142 7.876c0 .009-.005.016-.006.025h2.593c0-.02-.01-.037-.01-.058l.123-3.355a.581.581 0 01.581-.561h1.781c.329 0 .593.274.58.603l-.12 3.356-.003.015h2.564c0-.015-.008-.027-.008-.044l.15-12.636a.581.581 0 01.582-.574h1.781a.583.583 0 01.583.589l-.151 12.636c0 .01-.006.02-.006.03h.981z" fill-rule="evenodd"/></svg>