<svg viewBox="0 0 24 24"><path d="M20.422 22.124c0 .94-.762 1.702-1.702 1.702h-1.702c-.94 0-1.702-.763-1.702-1.702v-5.106c0-.94.762-1.7 1.702-1.7h1.702a1.7 1.7 0 011.702 1.7v5.106zM13.482.101c6.003.77 10.344 6.173 10.344 12.227v8.095h-3.404V18.72h1.702v-6.808h-.151c-.841 0-1.532-.619-1.674-1.447-.689-4.005-4.187-7.062-8.386-7.062-4.198 0-7.697 3.057-8.387 7.062-.142.828-.831 1.447-1.672 1.447H1.7v6.808h1.702v1.702H0v-8.51C0 4.828 6.216-.832 13.481.101zM3.402 17.019c0-.94.762-1.702 1.702-1.702h1.702c.94 0 1.702.761 1.702 1.702v5.106c0 .938-.762 1.7-1.702 1.7H5.105c-.94 0-1.702-.761-1.702-1.7v-5.106z" fill-rule="evenodd"/></svg>