<svg viewBox="0 0 24 24"><path d="M16.946 3.932H9.857V1.845a.922.922 0 00-.923-.923.923.923 0 00-.923.923v2.087H.923A.922.922 0 000 4.855c0 .51.413.923.923.923H12.34c-.824 2.696-2.885 4.957-3.706 5.777-1.25-1.426-2.17-2.785-2.125-3.571a.922.922 0 00-.869-.974.925.925 0 00-.973.869c-.082 1.43 1.178 3.299 2.641 4.97L2.48 17.58a.924.924 0 00.646 1.582.923.923 0 00.647-.264L8.566 14.2a42.319 42.319 0 002.817 2.596.916.916 0 00.59.214.923.923 0 00.71-.331.925.925 0 00-.117-1.301 38.68 38.68 0 01-2.672-2.47c.937-.919 3.513-3.693 4.366-7.13h2.686a.922.922 0 00.923-.922.922.922 0 00-.923-.923m-.05 13.074l1.475-3.795 1.525 3.795h-3zm6.932 4.83l-4.615-11.48a.924.924 0 00-.857-.578h-.005a.922.922 0 00-.855.589l-2.799 7.202v.001l-1.662 4.276a.922.922 0 00.526 1.194.904.904 0 00.334.063.924.924 0 00.86-.588l1.424-3.663h4.46l1.476 3.673a.923.923 0 101.713-.69z" fill-rule="evenodd"/></svg>