<svg viewBox="0 0 24 24"><path d="M20.026 8.786a.708.708 0 01.93.371l1.222 2.844a.708.708 0 01-.372.93l-5.927 2.545a.71.71 0 01-.93-.371l-1.22-2.845a.708.708 0 01.37-.93l5.927-2.544zm-7.37 1.792a.727.727 0 01-.38.954l-2.813 1.206a.725.725 0 01-.952-.38L6.215 7.008a.726.726 0 01.38-.953l2.812-1.207a.725.725 0 01.953.38l2.297 5.349zm2.084-5.52a.71.71 0 01.932.372l1.22 2.84a.712.712 0 01-.373.934l-2.31.99a.71.71 0 01-.931-.371l-1.22-2.84a.71.71 0 01.373-.933l2.309-.992zm-.437 14.092a.767.767 0 01-.415-.429 3.852 3.852 0 01-.048-.154 3.675 3.675 0 00-2.036-1.977 3.685 3.685 0 00-2.85.037.755.755 0 01-.687.071.76.76 0 01-.426-.41L2.464 3.765l-1.4.6a.762.762 0 01-1.002-.399.764.764 0 01.4-1.002l2.102-.902a.759.759 0 01.584-.007.765.765 0 01.417.406l5.387 12.547a5.24 5.24 0 013.419.165 5.206 5.206 0 012.616 2.28l7.95-3.415a.764.764 0 011.001.4.763.763 0 01-.4 1.002l-8.637 3.708a.77.77 0 01-.3.062.774.774 0 01-.298-.06zm-1.56.03a2.574 2.574 0 01-4.728 2.03 2.574 2.574 0 014.729-2.03z" fill-rule="evenodd"/></svg>