<svg viewBox="0 0 24 24"><path d="M5.238 22.113l-.018.018a.671.671 0 01-.243.154L.89 23.761a.662.662 0 01-.849-.849l1.476-4.086a.656.656 0 01.155-.244l.017-.017a.662.662 0 01.938 0l2.611 2.61a.664.664 0 010 .938zm16.039-16.04L6.379 20.972a.467.467 0 01-.66 0L2.83 18.083a.467.467 0 010-.66L17.73 2.525a.465.465 0 01.66 0l2.888 2.887a.467.467 0 010 .66zm2.388-2.388L22.28 5.07a.467.467 0 01-.66 0l-2.89-2.888a.467.467 0 010-.66L20.118.137a.467.467 0 01.66 0l2.888 2.887a.469.469 0 010 .66z" fill-rule="evenodd"/></svg>