<svg viewBox="0 0 24 24"><path d="M4.284 18.026c-.557.558-.594 1.423-.082 1.935.511.512 1.377.475 1.935-.082l7.458-7.458-1.853-1.853-7.458 7.458zm11.785-5.69c-.333.332-.85.355-1.157.049l-.027-.027-6.014 6.015-2.307 2.306c-.701.701-1.696.906-2.51.596l-1.718 1.714a.943.943 0 01-.618.28.788.788 0 01-.597-.227c-.321-.322-.298-.866.052-1.216l1.716-1.715c-.312-.813-.107-1.81.595-2.512l5.661-5.661 2.66-2.66-.027-.028c-.306-.305-.284-.824.05-1.157l.527-.528c.333-.333.852-.355 1.157-.05l6.256-6.255c.943-.941 2.408-1.004 3.274-.139.432.433.633 1.016.608 1.608a2.52 2.52 0 01-.748 1.665l-6.255 6.256c.306.306.284.825-.05 1.158l-.528.527z" fill-rule="evenodd"/></svg>