<svg viewBox="0 0 24 24"><path d="M14.182 3.841c0 1.017-3.175 1.84-7.09 1.84C3.174 5.681 0 4.858 0 3.841c0-1.017 3.175-1.84 7.091-1.84 3.916 0 7.091.823 7.091 1.84zM7.091 9.377c3.916 0 7.09-.824 7.09-1.84v2.59c0 1.017-3.174 1.841-7.09 1.841-3.917 0-7.091-.824-7.091-1.841v-2.59c0 1.016 3.175 1.84 7.091 1.84zm0-3.143c3.916 0 7.09-.824 7.09-1.84v2.59c0 1.016-3.174 1.841-7.09 1.841C3.174 8.825 0 8 0 6.984v-2.59c0 1.016 3.175 1.84 7.091 1.84zm9.136 13.789c3.917 0 7.091-.824 7.091-1.84v2.589c0 1.018-3.174 1.841-7.09 1.841-3.917 0-7.092-.823-7.092-1.841v-2.59c0 1.017 3.175 1.84 7.091 1.84zm0-3.143c3.917 0 7.091-.825 7.091-1.84v2.59c0 1.016-3.174 1.84-7.09 1.84-3.917 0-7.092-.824-7.092-1.84v-2.59c0 1.015 3.175 1.84 7.091 1.84zm-7.595-2.775v.961a26.045 26.045 0 01-1.541.045c-3.916 0-7.09-.824-7.09-1.84v-2.592c0 1.017 3.174 1.84 7.09 1.84s7.09-.823 7.09-1.84v1.575c-3.15.226-5.476.965-5.548 1.851zm-.002 1.514l-.003 2.59a26.859 26.859 0 01-1.536.045c-3.916 0-7.09-.824-7.09-1.84v-2.59c0 1.015 3.174 1.84 7.09 1.84.53 0 1.043-.017 1.54-.045zm14.689-1.133c0 1.017-3.176 1.84-7.091 1.84-3.917 0-7.091-.823-7.091-1.84 0-1.016 3.174-1.84 7.09-1.84s7.092.824 7.092 1.84zM8.625 20.862c0 .164.086.323.232.476-.565.038-1.155.06-1.766.06-3.917 0-7.091-.825-7.091-1.84v-2.592c0 1.016 3.174 1.84 7.09 1.84.53 0 1.041-.016 1.537-.044l-.003 2.1z" fill-rule="evenodd"/></svg>