<svg viewBox="0 0 24 24"><path d="M15.895 17.647h-7.79v-1.381c.905-.375 1.896-1.35 1.896-2.515 0-.237 0-.46-.033-.68H8.294v-1.777h1.369a6.901 6.901 0 01-.14-1.387c0-2.135 1.555-3.554 3.862-3.554.924 0 1.621.204 2.001.412l-.412 1.965c-.342-.188-.82-.31-1.452-.31-1.214 0-1.589.77-1.589 1.606 0 .447.07.839.171 1.268h2.34v1.777h-2.12a3.565 3.565 0 01-.15 1.21 2.942 2.942 0 01-.84 1.215v.036h4.561v2.115zM12 0C5.373 0 0 5.373 0 12s5.373 12 12 12c6.628 0 12-5.373 12-12S18.628 0 12 0z" fill-rule="evenodd"/></svg>