<svg viewBox="0 0 24 24"><path d="M10.127 9.493l.361-.093V1.224h-.48a.13.13 0 01-.13-.13.13.13 0 01.13-.131h3.67a.13.13 0 010 .26h-.48V9.4l.36.093c2.937.755 5 3.342 5.138 6.35-.466.16-1.273.362-2.48.41-1.195.049-2.373-.627-4.39-.627-1.664 0-2.989.676-4.07.676-1.343 0-2.256-.25-2.769-.444.132-3.014 2.198-5.61 5.14-6.365m3.196 8.519a.776.776 0 01.242-.53.8.8 0 01.551-.207.777.777 0 01.742.8.795.795 0 01-.793.736.762.762 0 01-.742-.8m-3.423.974a1.237 1.237 0 011.682 1.813A1.236 1.236 0 019.9 18.985m4.26-10.321v-6.59A1.092 1.092 0 0013.677 0h-3.67a1.094 1.094 0 00-.481 2.074v6.59A7.836 7.836 0 004 16.158C4 20.48 7.518 24 11.843 24c4.324 0 7.842-3.52 7.842-7.842a7.836 7.836 0 00-5.526-7.494" fill-rule="evenodd"/></svg>