<svg viewBox="0 0 24 24"><path d="M12 16.404a4.403 4.403 0 110-8.806 4.403 4.403 0 010 8.806m11.165-6.182l-1.671-.557a1.935 1.935 0 01-1.175-1.098l-.007-.016c-.217-.52-.2-1.107.052-1.61l.788-1.577a1.224 1.224 0 00-.228-1.411l-.877-.876a1.22 1.22 0 00-1.41-.228l-1.576.788a1.932 1.932 0 01-1.611.05c-.006-.001-.01-.002-.016-.005a1.94 1.94 0 01-1.099-1.173L13.78.836A1.223 1.223 0 0012.62 0H11.38a1.22 1.22 0 00-1.158.836l-.557 1.673a1.94 1.94 0 01-1.1 1.174l-.015.005a1.932 1.932 0 01-1.61-.052L5.361 2.85a1.22 1.22 0 00-1.41.228l-.876.876a1.224 1.224 0 00-.228 1.41l.788 1.577c.252.504.269 1.09.052 1.611l-.007.016c-.215.519-.641.92-1.174 1.098l-1.672.557A1.221 1.221 0 000 11.382v1.238c0 .526.336.992.835 1.158l1.673.558c.532.178.959.58 1.173 1.098l.007.016c.217.52.2 1.107-.053 1.612l-.787 1.577a1.22 1.22 0 00.228 1.408l.877.877a1.224 1.224 0 001.41.23l1.576-.79a1.94 1.94 0 011.611-.052.225.225 0 01.016.008c.52.215.92.64 1.099 1.174l.557 1.671A1.22 1.22 0 0011.38 24h1.24c.526 0 .992-.336 1.16-.835l.555-1.671c.179-.534.58-.96 1.1-1.174l.015-.008a1.94 1.94 0 011.61.052l1.578.79a1.224 1.224 0 001.41-.23l.876-.877a1.22 1.22 0 00.228-1.408l-.788-1.577a1.934 1.934 0 01-.052-1.612l.007-.016c.215-.519.641-.92 1.175-1.098l1.671-.558A1.22 1.22 0 0024 12.62V11.38c0-.526-.336-.993-.835-1.16" fill-rule="evenodd"/></svg>