<svg viewBox="0 0 24 24" fill="none" xmlns="http://www.w3.org/2000/svg"><path fill-rule="evenodd" clip-rule="evenodd" d="M11.7229 4c-3.089 0-8.1395.7776-8.6927 5.716-.0318.2832.1974.5222.4824.5222h16.4205c.2851 0 .5142-.239.4825-.5223C19.8623 4.7776 14.8118 4 11.7229 4Zm1.3536 2.7949a.5.5 0 0 1 .7071 0l1.2929 1.2929a.5.5 0 1 1-.7071.707L13.0765 7.502a.5001.5001 0 0 1 0-.7071Zm-5.1576.359a.5.5 0 0 0-.7934-.6088L6.0272 7.9765a.5.5 0 1 0 .7934.6087l1.0983-1.4314Zm10.1576.5728a.5.5 0 0 1 0 .7071l-.2929.293a.5.5 0 1 1-.7071-.7072l.2929-.2929a.5.5 0 0 1 .7071 0Zm-7.2372.4818a.5.5 0 0 0-.9172.3985l.1651.3799a.5.5 0 0 0 .9172-.3985l-.1651-.38Zm-1.1078-1.535a.5.5 0 0 1 .0883-.7016l1.5797-1.2266a.5.5 0 0 1 .6133.7899L10.433 6.7616a.5.5 0 0 1-.7015-.0883Zm11.0462 4.3397H2.6491c-.4159.019-.605.3025-.6427.5861-.019.1701 0 .3591.1134.5104a.2277.2277 0 0 0 .0945.0945h.019c.0566.0567.1512.0945.2457.1323h.0189c.794.2836 1.6446.2836 2.4197 0 .2457-.0945.5103-.1512.775-.189a4.1336 4.1336 0 0 1 .6805-.0567c.2269 0 .4726.0189.6995.0567.235.0335.4552.097.6869.1637l.0881.0253a3.4936 3.4936 0 0 0 2.4008 0l.0866-.0268c.2131-.0662.4151-.1289.6317-.1622.5293-.0945 1.0586-.0756 1.5879.0189.208.0378.4159.0945.6238.1701a3.4937 3.4937 0 0 0 2.4008 0c.1701-.0567.3214-.0945.4915-.1323.6238-.1512 1.2665-.1512 1.8904-.0189.189.0378.378.0945.5482.1512a3.4934 3.4934 0 0 0 2.4007 0l.0378-.0189c.4159-.1323.5104-.4915.4726-.7561-.0189-.1702-.1134-.3403-.2646-.4537-.0945-.0756-.2269-.1135-.3781-.1135v.0189ZM22 14.517c0-.789-.5672-1.2476-1.2477-1.2476h-3.9508l-2.3819-.0189H3s-1 .0189-1 1.2665C2 15.7647 3 16 3 16h17.809S22 16 22 14.517ZM3.9184 18.8221c-.0741-.1556-.2034-.4155-.4062-.789a.0613.0613 0 0 0-.0042-.0189c-.0042-.0126-.0084-.0252.0042-.0378-.0945-.1512-.1512-.3214-.189-.5104v-.0189l-.0096-.0374c-.0152-.0582-.0282-.1079-.0282-.1705-.019-.0568-.019-.1324-.019-.208v-.4726h3.9131l.9641.8318.1134.0567c.0119.0039.0229.0079.0334.0117.04.0143.073.0261.1179.0261.0378 0 .0756 0 .1134-.0189.0567-.0189.1134-.0378.1512-.0756l.775-.6805.1891-.1513h11.0965v.4726c0 1.0787-.6213 1.8395-.7203 1.9538a.2038.2038 0 0 1-.0284.0281C19.8377 19.1305 18.5275 20 12 20c-5.5895 0-7.3534-.6376-7.8373-.8946-.1142-.0606-.1886-.1666-.2443-.2833Z" fill="currentcolor"/></svg>