<svg xmlns="http://www.w3.org/2000/svg" width="24" height="24" fill="none" viewBox="0 0 24 24"><path fill="currentcolor" fill-rule="evenodd" d="M10 3a1 1 0 1 1 2 0v3a1 1 0 1 1-2 0V3Zm5 1a1 1 0 0 0-1 1v1a1 1 0 1 0 2 0V5a1 1 0 0 0-1-1Zm1.903 6.398c1.462-.19 2.222-.22 3.27.892.477.54 1.05 1.526.827 3.21-.35 2.86-2 3.94-4.796 4.193-.362.893-.7 1.516-.8 1.698a2.337 2.337 0 0 0-.026.05c-.678 1.162-2.575 1.59-4.72 1.59-2.145 0-4.095-.43-4.72-1.59a2.54 2.54 0 0 0-.017-.034C5.717 20.018 4 16.75 4 13.863c0-2.86.7-4.068.858-4.29A1.27 1.27 0 0 1 5.907 9h9.566c.826 0 1.176.636 1.43 1.398Zm.445 3.465c0 .953-.19 1.938-.445 2.86 3.623-.604 2.67-3.62 2.097-4.223-.54-.572-1-.5-1.715-.226a22 22 0 0 1 .063 1.589ZM7 4a1 1 0 0 0-1 1v1a1 1 0 0 0 2 0V5a1 1 0 0 0-1-1Z" clip-rule="evenodd"/></svg>