<svg xmlns="http://www.w3.org/2000/svg" width="24" height="24" fill="none" viewBox="0 0 24 24"><path fill="currentcolor" fill-rule="evenodd" d="M6.59 9.219a.438.438 0 0 0-.002.74l4.926 3.125c.144.091.326.091.47 0l4.929-3.125a.438.438 0 0 0-.003-.74l-4.93-3.075a.438.438 0 0 0-.463 0L6.59 9.22ZM6 16.264c0 .15.076.288.201.369l4.595 2.947a.438.438 0 0 0 .674-.368v-5.257c0-.15-.077-.289-.204-.37l-4.594-2.909a.438.438 0 0 0-.672.37v5.218Zm6.703 3.316a.438.438 0 0 1-.674-.368v-5.257c0-.15.077-.289.204-.37l4.594-2.909a.438.438 0 0 1 .672.37v5.218c0 .15-.076.288-.201.369l-4.595 2.947Z" clip-rule="evenodd"/><path stroke="currentcolor" stroke-linecap="round" stroke-width="1.5" d="M3 14v3.465a1 1 0 0 0 .445.832L6 20m14-6v3.465a1 1 0 0 1-.445.832L17 20M8.5 4.749l2.668-1.369a1 1 0 0 1 .9-.006l2.78 1.375"/></svg>