<svg viewBox="0 0 4610 4742" fill="none"
  xmlns="http://www.w3.org/2000/svg">
  <path d="M3491.63 4742C3420.87 4742 3356.59 4701.31 3298.21 4665.46C3244.74 4632.65 3178.62 4590.31 3156.09 4528.28C3099.57 4372.71 3364.8 4321.37 3406.38 4200.37C3419.72 4161.56 3418.47 4120.94 3415.21 4080.6C3412.66 4049.25 3399.3 3996.26 3425.48 3971.04C3462.86 3935.05 3539.56 3985.06 3573.65 4005.41C3662.23 4058.33 3821.9 4167.73 3759.75 4289.4C3735.71 4336.49 3710.5 4376.5 3696.81 4428.37C3683.89 4477.34 3675.76 4527.53 3660.94 4576.01C3636.29 4656.71 3586.49 4742 3491.63 4742ZM2012.44 4371.47C2062.37 4316.12 2112.45 4253.48 2106.9 4174.45C2102.27 4108.66 2057.41 4052.73 1995.29 4031.47C1870.04 3988.63 1721.21 4076.46 1623.24 4147.19C1540.64 4206.84 1448.85 4280.49 1424.13 4384.43C1388.52 4534.05 1531.23 4616.11 1661.21 4616.14C1822.19 4616.14 1914.77 4479.71 2012.44 4371.47ZM1407.5 4365.54C1417.26 4318.15 1468.78 4248.08 1518.55 4208.65C1569.76 4168.06 1578.06 4138.3 1600.88 4092.95C1631.81 4031.47 1593.68 3984.31 1541.13 3948.32C1436.95 3876.98 1269.78 3834.38 1165.86 3926.99C1065.47 4016.46 1060.63 4176.36 1006.88 4292.08C970.938 4369.47 969.033 4425.59 1054.61 4461.48C1124.96 4491 1205.19 4536.26 1282.88 4536.26C1387.98 4536.26 1388.85 4456.12 1407.53 4365.54H1407.5ZM3149.69 4369.66C3181.85 4319.96 3245.5 4288.23 3294.68 4257.67C3348.8 4224.06 3415.16 4156.29 3383.73 4085.05C3353.13 4015.68 3240.91 4022.48 3180.29 4025.37C3085.36 4029.91 2985.01 4037.49 2898.38 4079.85C2800.25 4127.83 2696.31 4196.87 2651.97 4241.89C2601.59 4293.05 2728.18 4334.19 2777.48 4374.38C2833.58 4420.13 2892.79 4512.95 3015.64 4512.95C3107.8 4512.95 3110.64 4429.99 3149.67 4369.66H3149.69ZM2379.78 4438.08C2395.09 4388.33 2413.32 4358.04 2447.35 4323.27C2507.31 4262.05 2584.09 4232.5 2659.38 4195.15C2715.88 4167.11 2793.03 4132.96 2825.16 4075.05C2860.68 4011 2799.9 3959.47 2747.05 3932C2607.98 3859.69 2451.61 3905.46 2310.36 3942.93C2243.82 3960.6 2158.81 3976.83 2128.09 4046.78C2096.69 4118.28 2161.61 4175.91 2113.79 4267.22C2086.69 4318.95 2056.35 4390.26 2096.08 4452.31C2103.84 4464.42 2140.56 4503.16 2176.48 4512.97C2210.87 4522.36 2239.05 4522.78 2296.09 4507.12C2345.36 4493.59 2370.06 4469.83 2379.82 4438.08H2379.78ZM1026.12 4193.06C1060.63 4111.89 1003.94 4054.14 929.14 4040.52C832.207 4022.91 735.791 3990.4 637.494 3981.93C568.316 3975.98 472.865 3980.03 430.455 4044.85C414.107 4069.83 408.015 4100.38 401.452 4129.01C390.985 4174.52 375.908 4218.7 365.088 4263.9C342.719 4357.38 406.792 4401.13 488.107 4424.13C575.02 4448.71 673.905 4479.9 764.723 4479.9C907.053 4479.9 978.442 4305.09 1026.07 4193.06H1026.12ZM3842.24 4146.2C3986.48 4146.2 4110.3 4024.95 4144.5 3890.29C4161.88 3821.89 4180.96 3749.68 4193.85 3680.32C4205.91 3615.37 4185.12 3545.52 4107.57 3562.69C4069.98 3571.01 4037.26 3587.5 3997.93 3587.43C3960.35 3587.36 3922.88 3580.4 3886.16 3573.11C3813.88 3558.81 3765.28 3539.17 3694.93 3563.51C3563.56 3609 3434.14 3770.83 3510.68 3906.47C3543.89 3965.35 3608.93 3997.29 3661.27 4039.77C3716.12 4084.27 3769.11 4146.2 3842.27 4146.2H3842.24ZM3333.54 3914.24C3399.09 3863.43 3457.8 3810.67 3470.03 3724.11C3486.41 3608.22 3404.81 3501.63 3388.67 3390.46C3380.72 3335.75 3374.98 3316.61 3338.97 3301.76C3288.4 3280.92 3279.88 3309.08 3246.77 3324.27C3130.03 3377.86 3055.39 3363.55 3003.95 3401.14C2951.33 3439.6 2966.03 3490.76 2955.85 3539.28C2940.3 3613.35 2902.76 3691.65 2904.17 3775.93C2906.08 3890.76 2921.39 4017.85 3092.06 4017.85C3181.85 4017.85 3265.75 3966.81 3333.54 3914.26V3914.24ZM1890.48 3715.79C1883.37 3664.79 1872.36 3608.62 1835.98 3569.65C1787 3517.2 1704.42 3516.14 1638.04 3522.89C1494.37 3537.52 1323.81 3629.82 1419.17 3793.01C1491.78 3917.29 1643.1 4021.89 1789.97 4021.89C1952.34 4021.89 1905.37 3822.76 1890.48 3715.79ZM704.813 3953.82C777.519 3949.14 850.342 3933.27 906.206 3883.59C1110.78 3701.63 870.006 3273.51 606.186 3359.16C463.62 3405.45 444.921 3549.61 417.753 3676.62C398.865 3764.95 291.206 3966.41 467.313 3966.41C545.265 3966.41 626.721 3958.9 704.813 3953.87V3953.82ZM2439.22 3691.25C2439.62 3553.18 2366.18 3341.73 2198.07 3347.47C2044.85 3352.69 1926.51 3491.77 1915.43 3637.18C1904.02 3786.92 1947.75 3957.42 2124.96 3957.42C2283.6 3957.42 2438.72 3860.3 2439.22 3691.25ZM1332.54 3722.82C1394.31 3587.08 1318.17 3403.42 1201.17 3319.66C1080.1 3232.99 998.506 3378.91 983.452 3485.7C971.597 3569.88 1008.36 3627.91 999.658 3737.5C996.295 3779.93 990.955 3816.06 1002.32 3862.23C1010.27 3894.55 1018.24 3923.74 1067.5 3923.74C1170.97 3923.74 1292.22 3811.38 1332.54 3722.82ZM2875.66 3760.08C2876.16 3682.53 2926.21 3588.47 2928.56 3515.67C2933.29 3368.8 2834.48 3314.4 2705.46 3308.28C2598.48 3303.2 2491.55 3340.01 2448.08 3445.55C2423.83 3504.45 2452.83 3548.81 2462.1 3607.49C2468.05 3645.18 2470.41 3683.7 2467.63 3721.81C2465.28 3754.2 2450.6 3795.55 2464.05 3827.33C2483.88 3874.13 2573.22 3844.4 2613.7 3851.72C2680.03 3863.71 2748.67 3914.02 2815.19 3914.02C2888.72 3914.02 2875.36 3807.64 2875.66 3760.1V3760.08ZM3692.46 3540.88C3741.01 3527.78 3777.96 3529.22 3821.45 3523.57C3927.06 3509.86 3873.79 3423.98 3861.55 3354.33C3844.85 3259.26 3858.97 3097.76 3755.05 3046.16C3721.46 3029.48 3678.95 3027.93 3642.61 3020.31C3614.29 3014.38 3587.55 3003.84 3559.49 2997.52C3492.05 2982.3 3444.56 3012.52 3425.81 3077.79C3407.61 3141.16 3404.24 3213.04 3400.67 3278.43C3397.68 3332.98 3397.85 3400.81 3418.9 3452.04C3474.15 3586.47 3518.14 3584.87 3586.26 3584.87C3624.95 3584.87 3660.09 3549.66 3692.48 3540.91L3692.46 3540.88ZM4319.05 3273.66C4349.26 3150.59 4413 2878.76 4214.97 2867.35C4133.68 2862.67 4049.42 2912.13 3979.96 2949.81C3899.59 2993.42 3871.72 3062.65 3863.51 3151.11C3852.52 3269.33 3886.77 3545.99 4048.74 3545.99C4191.17 3545.99 4289.39 3394.56 4319.08 3273.66H4319.05ZM1572.04 3516.66C1615.88 3510.19 1656.15 3508.33 1696.56 3504.4C1746.45 3499.56 1839.86 3496.12 1820.64 3426.43C1800.98 3355.13 1672.5 3278.9 1642.51 3156.43C1608.33 3016.76 1543.74 3059.16 1488.77 2993.96C1465.98 2966.94 1475.22 2933.8 1446.34 2912.65C1407.79 2884.42 1368.62 2934.57 1297.37 2963.69C1258.49 2979.59 1235.7 2984.01 1204.77 3043.97C1169.46 3112.44 1190.73 3193.42 1222.55 3255.73C1255.98 3321.17 1300.88 3382.94 1338.68 3446.23C1367.09 3493.82 1399.55 3539.26 1460.4 3539.26C1498.3 3538.58 1534.78 3522.16 1572.08 3516.66H1572.04ZM2205.22 3150.45C2219.24 3013.42 2037.35 3027.08 2013.35 2924.32C1994.56 2843.8 1956.83 2890.05 1906.28 2917.47C1846.23 2950.05 1755.13 2981.17 1714.42 3006.55C1669.89 3034.3 1667.02 3054.79 1666.88 3082.78C1666.57 3142.74 1674.36 3179.85 1717.85 3240.37C1761.53 3301.18 1822.99 3357.16 1873.28 3387.31C1956.81 3437.36 1987.86 3384.75 2061.29 3350.88C2226.6 3274.64 2193.2 3267.8 2205.17 3150.5L2205.22 3150.45ZM2229.4 3160C2230.88 3232.71 2274.82 3311.71 2342.42 3346.29C2412.71 3382.23 2494.66 3355.96 2560.14 3322.13C2668.34 3266.25 2760.52 3184.82 2760.1 3054.67C2759.79 2959.32 2732.6 2823.74 2667.68 2752.42C2577.29 2653.12 2460.97 2777.59 2400.17 2848.74C2324.03 2937.82 2226.39 3013.39 2229.4 3160ZM1065.85 3253.12C1101.25 3197.45 1151.96 3135.44 1157.28 3065.75C1164.71 2968.28 1042.52 2933.98 976.09 2903.45C902.984 2869.89 813.037 2846.88 734.78 2876.36C606.915 2924.51 462.139 3135.94 558.719 3274.2C588.427 3316.72 637.87 3321.24 685.36 3325.61C766.087 3333.05 842.745 3385.36 922.413 3385.36C994.86 3385.59 1032.89 3304.96 1065.87 3253.1L1065.85 3253.12ZM3100.3 3342.41C3142.66 3330.95 3188.83 3326.32 3228 3305.57C3289.03 3273.26 3333.54 3213.21 3367.95 3154.92C3385.33 3125.5 3403 3093.95 3413.04 3061.02C3439.36 2974.79 3385.73 2938.48 3309.55 2922.08C3227.88 2904.51 3148.7 2877.51 3068.35 2854.86C2999.79 2835.52 2907.3 2798.67 2845.06 2853.42C2800.02 2893.06 2785.97 2973.92 2776.54 3029.1C2765.72 3092.52 2765.77 3159.6 2789.13 3220.33C2810.25 3275.28 2882.18 3375.01 2951.28 3375.01C3001.29 3375.01 3052.62 3355.3 3100.27 3342.41H3100.3ZM2342.85 2868.52C2377.24 2834.42 2405.65 2800.74 2441.21 2764.42C2487.83 2716.81 2566.94 2684.92 2523.4 2598.83C2493.01 2538.73 2437.57 2473.3 2367.8 2466.47C2293.76 2459.23 2127.15 2471.77 2160.84 2536.57C2260.97 2729.33 2039.16 2746.43 2032.29 2871.37C2029.09 2929.59 2113.44 3012.29 2191.95 2990.29C2253.49 2973.05 2305.02 2906.04 2342.85 2868.52ZM4036.23 2863.94C4096.63 2793.84 4108.49 2763.45 4116.06 2733.3C4120.01 2717.59 4128.1 2663.75 4128.1 2630.44C4128.1 2597.14 4101.17 2560.44 4080.24 2540.05C4047.02 2507.68 4018.37 2484.14 3983.02 2447.54C3960.63 2424.35 3929.23 2410.23 3898.2 2399.74C3855.91 2385.42 3761.45 2420.63 3718.19 2435C3610.77 2470.64 3566.31 2488.56 3524.21 2641.94C3510.68 2691.17 3492.66 2756.3 3474.39 2803.96C3461.9 2836.56 3456.91 2867.65 3464.98 2903.17C3481.65 2976.58 3568.83 2988.13 3628.9 2988.13C3759.99 2988.13 3943.72 2971.34 4036.27 2863.94H4036.23ZM3504.38 2611.86C3517.22 2556.89 3536.46 2471.81 3467.35 2446.81C3417.13 2428.65 3313.03 2432.56 3263.09 2450.62C3203.13 2472.33 3182.83 2529.39 3147.72 2576.53C3102.93 2636.65 3037.56 2670.12 2987.09 2723.28C2925.88 2787.75 3012.39 2817.79 3065.98 2834.68C3111.12 2848.91 3157.22 2860.01 3202.64 2873.3C3246.41 2886.09 3291.08 2907.15 3337.39 2907.15C3466.84 2907.15 3483.07 2703.22 3504.4 2611.84L3504.38 2611.86ZM4576.5 2470.4C4519.91 2288.02 4306.68 2297.54 4155.41 2328.15C4095.2 2340.33 3951.64 2378.13 4028.47 2463.35C4082.38 2523.16 4158.49 2556.47 4147.81 2655.99C4141.09 2718.74 4120.6 2802.69 4189.94 2833.36C4232.54 2852.22 4286.69 2843.8 4331.43 2855.12C4373.65 2865.77 4411.71 2892.92 4456.42 2892.92C4663.22 2892.92 4613.73 2590.46 4576.48 2470.4H4576.5ZM748.258 2478.4C697.309 2293.69 486.789 2295.64 333.968 2326.36C273.988 2338.42 118.109 2374.72 198.012 2463.35C248.02 2518.83 320.937 2556.54 318.726 2643.43C317.033 2709.61 279.374 2794.41 359.513 2833.36C401.429 2853.73 456.235 2843.8 500.997 2855.12C543.218 2865.77 581.276 2892.89 625.991 2892.89C831.713 2892.89 781.376 2598.36 748.281 2478.4H748.258ZM2919.18 2765.74C2948.7 2731.25 2980.19 2701.57 3014.89 2672.26C3064.66 2630.21 3168.04 2557.88 3117.84 2482.09C3075.01 2417.46 2977.86 2412.33 2913.74 2378.72C2885.09 2363.71 2859.36 2343.79 2848.31 2312.24C2837.93 2282.63 2860.63 2242.24 2825.33 2226.91C2779.79 2207.15 2665.14 2277.17 2629.67 2313.09C2567.67 2375.85 2529.07 2458.31 2539.72 2546.89C2543.68 2579.75 2552.4 2616.42 2576.3 2640.96C2609.84 2675.41 2651.1 2660.5 2691.04 2677.06C2756.34 2704.13 2744.98 2812.57 2833.61 2812.57C2870.91 2811.93 2896.17 2792.69 2919.22 2765.76L2919.18 2765.74ZM3522.42 2357.95C3522.42 2306.83 3494.31 2275.88 3490.99 2193.86C3487.53 2108.46 3488.59 2084.44 3501.01 2037.37C3515.85 1981.06 3513.9 1948.49 3478.34 1929.01C3424.75 1899.66 3326.62 1893.94 3277.96 1908.92C3216.52 1927.81 3179.21 1988.85 3121.61 2015.76C3062.35 2043.44 2988.71 2045.61 2943.33 2098.29C2916.33 2129.65 2920.45 2161.78 2910.66 2199.29C2905.06 2220.75 2892.53 2237.23 2888.51 2259.46C2876.96 2323.21 2922.96 2356.54 2978.97 2370.7C3053.7 2389.58 3135.51 2389.72 3211.88 2401.58C3286.33 2413.13 3365.64 2422.7 3441.06 2426.44C3507.01 2429.71 3522.42 2411.46 3522.42 2357.9V2357.95ZM3925.23 2355.52C3988.38 2343.2 4071.67 2316.76 4028.84 2237.75C3999.11 2182.92 3942.61 2149.97 3900.08 2106.9C3851.32 2057.51 3830.04 1998.16 3810.35 1933.41C3795.34 1884.09 3767.23 1800.77 3714.05 1776.97C3664.28 1754.69 3632.05 1807.95 3613.68 1845.65C3603.12 1867.31 3589.95 1893.21 3577.67 1926.14C3561.49 1969.59 3526.04 1997.46 3514.37 2069.79C3500.64 2154.93 3514.37 2312.76 3566.38 2360.39C3589.31 2381.4 3626.24 2396.59 3685.71 2397.58C3767.87 2398.94 3845.44 2371.1 3925.2 2355.52H3925.23ZM600.023 2202.28C625.168 2130.94 673.27 2080.91 608.844 1994.82C565.117 1936.4 516.168 1882.11 473.029 1823.54C428.55 1763.14 399.782 1707.49 316.703 1701.65C217.606 1694.69 13.2018 1718.82 0.805803 1846.15C-4.93351 1905.07 20.9169 1985.09 48.7432 2036.86C82.3323 2099.28 148.052 2128.52 191.215 2182.88C210.573 2207.27 231.813 2270.66 261.639 2285.57C283.255 2296.37 299.485 2301.54 322.137 2300.11C362.406 2297.57 408.885 2289.26 438.099 2284.61C506.477 2273.69 577.231 2266.85 599.976 2202.31L600.023 2202.28ZM4444.35 2196.75C4474.77 2126.12 4487.85 2055.67 4439.27 1994.87C4391.64 1935.22 4340.81 1878.13 4297.53 1815.4C4255.85 1754.98 4222.03 1710.62 4142.8 1707.56C4041.52 1703.63 3839.75 1727.48 3834.55 1860.59C3832.25 1919.34 3857.2 1998.38 3886.49 2049.28C3920.22 2107.94 3981.66 2138.89 4025.67 2189.04C4050.36 2217.17 4070.78 2276.63 4101.83 2293.5C4122.13 2304.53 4130.53 2306.29 4153.01 2303.26C4218.07 2294.46 4249.15 2294.46 4287.3 2288.18C4376.96 2273.41 4411.99 2272 4444.35 2196.78V2196.75ZM2815.71 1903.98C2791.03 1871.48 2760.66 1842.78 2741.05 1806.65C2720.94 1769.63 2714.68 1726.77 2695.13 1689.49C2654.04 1611.1 2567.08 1603.38 2491.32 1634.31C2432.28 1658.4 2380.41 1698.88 2334.47 1742.49C2313.47 1762.43 2274.52 1788.14 2274 1819.26C2273.29 1861.6 2328.73 1882.32 2348.59 1913.68C2369 1945.92 2366.3 1987.25 2369.52 2023.66C2373.61 2070 2386.76 2110.53 2411.95 2149.88C2452.76 2213.64 2519.47 2262.57 2597.52 2262.59C2778.78 2262.59 2942.91 2071.64 2815.71 1903.98ZM3178.83 1892.72C3200.83 1785.55 3161.19 1741.57 3151.41 1666.91C3143.22 1604.53 3146.26 1528.89 3131.44 1480.76C3123.35 1454.49 3107.94 1422.93 3087.29 1403.83C3060.36 1378.92 3027.31 1389.85 2995.32 1397.81C2922.96 1415.82 2876.96 1379.32 2808.44 1359.75C2749.66 1342.95 2666.95 1331.03 2671.45 1419.68C2672.65 1443.62 2683.91 1464.89 2689.21 1487.7C2696.21 1517.83 2698.83 1549.45 2704.38 1579.93C2717.55 1652.19 2735 1724.52 2767.63 1790.73C2820.81 1898.6 2942.16 2007.17 3069.74 2007.17C3162.53 1999.9 3166.23 1954.18 3178.83 1892.74V1892.72ZM921.049 1836.01C987.121 1782.83 1008.86 1717.39 976.607 1637.09C949.322 1569.13 899.15 1513.34 856.717 1454.68C824.468 1410.13 793.302 1361.46 744.706 1332.98C645.726 1274.95 504.595 1289.98 449.507 1396.93C409.803 1474.04 362.994 1583.36 406.157 1667.12C436.9 1726.77 493.14 1776.45 539.408 1824.06C587.016 1873.05 647.914 1926.94 720.502 1926.94C789.256 1926.94 869.795 1877.26 921.072 1836.01H921.049ZM3378.39 1123.62C3421.23 1034.12 3362 974.868 3328.79 922.18C3258.97 811.394 3063.41 676.946 2972.5 781.193C2921.29 839.926 2879 890.097 2824.86 944.878C2772.03 998.318 2691.46 1026.14 2649.62 1090.26C2629.77 1120.68 2629.6 1158.83 2633.95 1195.12C2637.72 1226.48 2666.79 1281.73 2711.86 1298.55C2732.6 1306.28 2831.35 1339.45 2852.19 1347.94C2918.4 1374.92 2940.68 1386.33 3012.54 1361.39C3086.28 1335.83 3105.92 1262.35 3162.84 1214.9C3237.43 1152.74 3331.16 1222.27 3378.39 1123.59V1123.62ZM3153.15 1421.87C3170.41 1513.39 3160.28 1608.11 3182.48 1699.91C3194.15 1748.11 3218.73 1824.29 3266.31 1855.27C3310.3 1883.9 3371.22 1890.58 3421.18 1889.78C3556.5 1887.64 3651.48 1806.32 3679 1666.04C3704.05 1538.32 3681.24 1395.66 3552.24 1331.66C3485.46 1298.54 3409 1306.57 3342.22 1276.93C3292.04 1254.65 3226.47 1191.62 3169.76 1233.79C3114.31 1275.05 3142.61 1366.12 3153.15 1421.87ZM2352.61 1686.04C2416.35 1616.62 2479.79 1583.79 2565.74 1548.58C2625.98 1523.88 2628 1472.23 2601.47 1415.78C2582.35 1375.08 2578.72 1356.03 2584.49 1310.66C2588.67 1277.61 2587.17 1237.62 2565.36 1210.6C2520.44 1154.9 2406.71 1205.57 2362.7 1226.45C2326.69 1243.55 2289.57 1269.68 2250.5 1279.61C2207.2 1290.62 2177.72 1284.08 2134.82 1277.45C2000.04 1256.63 1995.92 1450.8 1977.6 1546.01C1967.58 1598.11 1962.17 1668.65 1982.87 1719.27C2009.12 1783.46 2072.09 1833.98 2143.57 1834.01C2236.53 1834.01 2296.09 1747.57 2352.58 1686.01L2352.61 1686.04ZM4146.57 1656.4C4206.31 1624.46 4190.72 1550.72 4197.87 1493.23C4206.29 1425.32 4204.53 1342.44 4161.46 1285.26C4114.44 1222.78 4035.83 1226.66 3969.05 1251.9C3865.6 1291.02 3749.99 1378.66 3710.78 1485.26C3656.02 1634.17 3783.86 1705.18 3923.35 1701C3995.21 1698.83 4082.17 1690.86 4146.57 1656.4ZM1299.75 1372.14C1241.51 1240.85 1068.53 1158.12 930.175 1162.78C885.554 1164.29 806.404 1182.37 790.221 1232.73C775.449 1278.65 829.079 1351.47 854.153 1386.14C900.255 1449.88 955.649 1505.65 1004.6 1566.99C1045.83 1618.65 1090.99 1689.14 1165.98 1689.14C1301.75 1689.14 1342.23 1467.92 1299.75 1372.14ZM1738.43 1671.66C1794.15 1673.57 1858.02 1674.84 1904.71 1639.04C2015.35 1554.2 1990.47 1288.15 1831.39 1279.94C1758.66 1276.18 1692.16 1329.12 1616.19 1337.97C1543.65 1346.41 1449.14 1321.69 1398.99 1381.93C1374.34 1411.54 1360.86 1449.88 1347.99 1485.47C1334.68 1522.28 1310.8 1565.14 1308.64 1604.56C1304.43 1680.77 1399.65 1679.47 1453.49 1679.47C1548.94 1679.47 1642.77 1668.42 1738.43 1671.69V1671.66ZM3916.1 1249.95C3972.93 1207.16 4013.32 1172.05 3997.77 1097.51C3966.72 948.806 3927.58 781.828 3744.89 772.349C3673.19 768.632 3631.51 864.317 3582.49 905.715C3518.14 960.049 3458.65 1000.79 3416.97 1075.44C3343.7 1206.67 3546.86 1347.89 3666.7 1351.23C3758.46 1351.23 3844.69 1303.72 3916.1 1249.95ZM1763.95 1264.02C1815.98 1251.97 1825.18 1252.25 1848.11 1233.6C1897.49 1193.45 1889.63 1117.22 1869.54 1054.84C1821.37 905.244 1720.53 774.63 1547.76 792.342C1474.66 799.845 1416.42 842.348 1381.91 906.632C1345.66 974.185 1380.74 1037.2 1311.84 1116.63C1207.36 1237.08 1275.4 1278.43 1334.59 1292.85C1363.94 1300 1418.79 1322.44 1594.03 1310.31C1670.66 1304.99 1711.97 1276.06 1763.98 1264.04L1763.95 1264.02ZM1092.62 1147.07C1234.52 1147.07 1348.2 1080.71 1330.26 921.874C1312.47 764.54 1148.22 661.916 999.894 649.332C919.99 642.558 882.285 681.439 859.892 753.885C848.366 791.142 838.887 825.954 816.683 858.602C791.514 895.577 756.255 931.682 755.432 979.548C753.009 1119.74 994.201 1147.07 1092.66 1147.07C1029.37 1147.07 1097.96 1147.07 1092.66 1147.07H1092.62ZM2922.09 734.503C2949.1 660.975 2988.66 630.327 3049.61 587.589C3129.39 531.631 3297.29 456.316 3295.08 343.413C3293.43 258.219 3189.56 250.222 3125.2 250.104C3029 249.916 2909.77 252.621 2821.59 293.736C2731.26 335.84 2677.04 400.476 2574.32 453.493C2534.34 474.145 2391.61 534.83 2432.94 600.22C2464.62 650.344 2520.98 641.499 2551.37 674.241C2584.53 709.97 2602.9 743.723 2616.43 843.924C2629.18 938.339 2695.96 923.591 2772.43 923.591C2855.69 923.591 2899.91 794.906 2922.07 734.526L2922.09 734.503ZM3636.05 731.916C3650.87 683.438 3658.98 633.244 3671.92 584.272C3685.61 532.407 3710.8 492.398 3734.87 445.308C3797.01 323.632 3637.34 214.258 3548.76 161.335C3514.7 140.989 3437.97 90.9823 3400.6 126.946C3374.42 152.138 3387.78 205.131 3390.3 236.485C3393.54 276.777 3394.84 317.328 3381.55 356.115C3340.05 477.226 3074.63 528.573 3131.18 684.191C3153.71 746.217 3219.83 788.531 3273.3 821.344C3331.7 857.167 3395.99 897.906 3466.76 897.906C3561.63 897.906 3611.4 812.641 3636.05 731.939V731.916ZM2028.5 507.428C2077.66 452.2 2125.01 388.151 2115.72 309.848C2107.93 244.342 2059.86 191.254 1997.31 172.766C1870.83 135.391 1724.62 223.125 1626.7 294.912C1544.4 355.245 1452.71 430.066 1431.61 535.559C1402.4 681.721 1544.21 759.577 1670.52 759.577C1833.55 759.577 1930.27 617.79 2028.5 507.428ZM1387.93 530.502C1387.74 481.484 1405.43 449.918 1424.16 429.948C1440.81 412.19 1471.41 385.658 1482.02 376.602C1520.74 343.508 1538.31 315.117 1566.56 277.977C1612.85 217.08 1610.75 178.294 1559.95 129.11C1468.99 41.023 1284.34 -9.1951 1173.95 66.7553C1056.23 147.763 1057.1 314.271 1001.66 432.677C968.986 502.418 942.571 569.901 1026.57 610.64C1097.3 644.957 1191.1 692.188 1270.42 692.188C1367.47 692.188 1388.19 608.499 1387.91 530.549L1387.93 530.502ZM2324.9 619.601C2377.54 614.85 2395.96 569.077 2403.7 547.908C2438.91 451.776 2484.21 460.15 2588.27 402.076C2621.93 383.282 2693.32 340.873 2757.51 294.724C2831.84 241.307 2896.01 170.955 2862.25 111.281C2827.75 50.2904 2742.76 16.6313 2679.58 6.16434C2596.69 -7.5486 2510.06 2.96544 2429.38 24.4169C2361.43 42.4813 2283.9 56.5 2221.62 89.8533C2142.98 131.957 2146.67 209.765 2154.72 287.48C2164.29 379.989 2101.51 429.643 2068.14 509.192C2030.81 598.126 2085.97 646.321 2173.35 646.345C2216.72 646.345 2253.3 626.046 2324.88 619.601H2324.9ZM2428.44 649.426C2248.99 614.356 2242.88 729.846 1986.35 669.937C1913.41 652.907 1862.2 705.901 1835.51 791.683C1814.38 859.637 1830.97 899.435 1847.83 951.676C1864.65 1003.92 1952.34 1145.84 2001.29 1190.72C2091.4 1273.24 2265.77 1211.52 2369.9 1187.5C2512.34 1154.78 2677.33 1129.71 2614.38 951.676C2551.44 773.642 2601.3 683.226 2428.42 649.426H2428.44ZM1390.17 2863.77C1439.14 2811.98 1455.58 2739.32 1467.34 2671.11C1477.9 2609.88 1482.51 2541.7 1456.64 2483.46C1425.5 2413.41 1353.87 2382.74 1282.04 2370.53C1192.04 2355.24 1100.12 2366.88 1009.87 2354.79C941.983 2345.69 857.752 2325.93 810.355 2391.49C769.451 2448.1 782.223 2532.78 791.844 2596.69C798.924 2643.73 805.251 2692.58 825.033 2736.33C885.954 2871.14 1053.36 2939.21 1193.67 2939.21C1265.88 2939.21 1339.52 2917.38 1390.21 2863.75L1390.17 2863.77ZM1506.18 2928.41C1544.63 3097.1 1920.35 2915.43 2098.53 2725C2261.08 2551.27 2029.58 2436.37 1947.63 2387.84C1878.79 2347.08 1757.58 2287.85 1657.4 2314.48C1558.96 2340.63 1522.83 2439.45 1506.36 2518.76C1497.85 2559.81 1491.1 2601.25 1488.54 2642.86C1485.97 2684.47 1471.65 2776.91 1506.18 2928.41ZM2486.38 2399.63C2546.22 2342.92 2499.2 2279.17 2440.32 2236.98C2369.64 2186.33 2352.91 2132 2339.67 2047.98C2332 1999.32 2326.38 1895.94 2269.98 1877.76C2235.56 1866.68 2204.73 1874.39 2170.64 1878.28C2127.58 1883.17 2082.53 1876.98 2059.34 1868.87C2029.61 1858.47 2017.42 1840.62 1988.16 1843.77C1940.04 1848.94 1947.99 1936.96 1892.45 1994.54C1842.35 2046.5 1808.83 2083.05 1800.74 2162.93C1793.64 2233.14 1822.14 2287.15 1886.29 2330.99C1997.29 2406.82 2159.52 2451.82 2291 2451.82C2349.79 2451.82 2440.18 2443.35 2486.35 2399.6L2486.38 2399.63ZM1302.83 1969.61C1273.66 1895.73 1210.79 1833.4 1132.34 1814.56C1043.39 1793.2 962.141 1841.35 894.14 1893.64C831.689 1941.67 767.287 1991.55 708.788 2044.45C658.146 2090.23 604.187 2164.32 636.012 2236.44C665.179 2302.51 760.442 2260.97 813.907 2266.03C911.358 2275.27 999.776 2332.19 1098.57 2332.19C1275.26 2332.19 1360.25 2114.99 1302.85 1969.61H1302.83ZM1723.49 2186.36C1744.26 2150.7 1758.94 2111.75 1783 2077.97C1804.57 2047.7 1832.59 2023.33 1857.1 1995.6C1899.67 1947.43 1931.5 1879.08 1906.75 1814.56C1883.37 1753.49 1814.62 1732.42 1755.86 1722.49C1689.27 1711.25 1621.25 1712.61 1554.07 1708.1C1476.8 1702.92 1398.54 1698.67 1323.06 1719.86C1264.04 1736.44 1195.74 1771.58 1244.59 1836.57C1289.56 1896.43 1328.92 1950.42 1350.72 2028.18C1377.75 2124.57 1402.75 2310.97 1538.85 2311C1615.11 2311 1687.04 2248.93 1723.49 2186.33V2186.36Z" fill="#0F69AF"/>
</svg>
