<svg viewBox="0 0 8000 8000" fill="none"
  xmlns="http://www.w3.org/2000/svg">
  <path fill-rule="evenodd" clip-rule="evenodd" d="M8000 0H0V8000H8000V0ZM3052.47 3041.42C3031.23 3027.97 2977.95 2994.2 2969.72 3032.51C2966.56 3045.05 2962.88 3057.91 2959.16 3070.95L2959.16 3070.95L2959.16 3070.95C2929.62 3174.28 2897.06 3288.2 3094.53 3335.03C3171.31 3353.24 3278.32 3355.75 3337.99 3308.66C3408.13 3253.34 3293.64 3180.76 3249.98 3158.94C3200.59 3134.27 3152.66 3104.14 3105.29 3074.37L3105.28 3074.37C3089.19 3064.25 3073.16 3054.18 3057.17 3044.38C3055.87 3043.58 3054.28 3042.58 3052.47 3041.42ZM5010.58 3428.42C4999.21 3555.73 4921.86 3697.12 4796.34 3740.96C4752.01 3756.44 4746.49 3694.78 4743.47 3660.93C4743.14 3657.24 4742.84 3653.88 4742.52 3650.99C4736.87 3599.65 4735.68 3546.56 4734.5 3494.42L4734.5 3494.25C4734.14 3478.34 4733.78 3462.52 4733.3 3446.86C4732.33 3414.98 4730.82 3382.57 4729.31 3350.06L4729.31 3350.04C4727.21 3304.83 4725.09 3259.41 4724.39 3214.89C4724.33 3211.47 4724.16 3206.95 4723.96 3201.6C4722.15 3152.72 4717.72 3033.9 4773.62 3035.06C4854.36 3036.75 4917.95 3126.4 4952.76 3187.57C4994.46 3260.88 5016.31 3341.63 5010.58 3428.41V3428.42ZM3680.62 3710.36C3696.83 3709.56 3790.8 3701.56 3809.16 3699.75C3852.01 3695.54 3864.32 3641.54 3854.28 3612.12C3845.33 3585.86 3837.72 3569.5 3808.04 3561.99C3642.1 3520.06 3621.14 3540.13 3584.16 3575.54C3581.38 3578.2 3578.5 3580.95 3575.47 3583.77C3553.29 3604.39 3450.9 3700.02 3538.6 3705.96C3541.32 3706.15 3544.06 3706.33 3546.81 3706.52C3589.74 3709.45 3635.66 3712.58 3680.62 3710.36ZM3352.62 4536.25C3347.81 4526.46 3330.21 4490.63 3317 4462.09V4462.08C3288.89 4401.36 3196.15 4384.86 3159.31 4421.66C3127.05 4453.9 3063.01 4527.43 3048.99 4551.57C3020.34 4600.9 3019.57 4655.08 3044.08 4708.54C3065.14 4754.48 3093.74 4798.13 3125.52 4837.98C3163.92 4886.15 3208.99 4933.69 3262.52 4965.65C3311.58 4994.95 3370.35 4996.31 3390.27 4933.46C3416.64 4850.23 3420.5 4756.27 3403.31 4671.47C3394.03 4625.69 3374.63 4581.7 3353.82 4538.71L3353.48 4538L3352.62 4536.25L3352.62 4536.25ZM4087.2 3658.11C4118.07 3655.21 4118.59 3631.71 4113.36 3594.12V3594.11C4103.45 3531.13 4054.87 3474.75 4011.9 3432.41C3984.17 3405.08 3949.95 3377.5 3913.57 3355.71C3886.66 3339.61 3795.08 3340.08 3813.29 3376.06C3815.5 3380.41 3819.19 3388.74 3824.14 3399.89L3824.15 3399.91C3854.91 3469.19 3934.06 3647.46 4004.24 3659.81C4019.27 3662.45 4073.7 3659.39 4087.2 3658.11ZM3933.28 3730.85C3949.16 3739.08 3958.95 3754.12 3963.99 3762.72C3967.52 3768.78 3985.46 3799.53 3986.71 3806.2C3992.72 3838.18 3963.32 3858.44 3934.67 3878.19L3934.67 3878.19L3934.66 3878.2C3929.01 3882.09 3923.4 3885.96 3918.08 3889.9C3900.03 3903.29 3867.77 3908.63 3833.71 3896.84C3795.02 3883.45 3762.9 3872.97 3736.27 3864.28C3638.33 3832.31 3614.82 3824.64 3613.04 3786.16C3612.89 3782.79 3612.92 3776.34 3612.97 3768.11L3612.97 3768.08L3612.97 3767.95C3612.99 3763.46 3613.02 3758.43 3613.02 3753.08C3613.02 3730.7 3648.71 3723.69 3678.4 3720.93C3717.57 3717.29 3776.99 3712 3808.35 3709.75C3860.84 3705.97 3898.32 3713.05 3933.29 3730.85H3933.28ZM4091.64 3496.9C4093.87 3499.11 4096.1 3501.32 4098.33 3503.53L4098.32 3503.51C4101.79 3506.82 4105.26 3510.15 4108.75 3513.48L4108.77 3513.5L4108.97 3513.69L4109.06 3513.78C4147.35 3550.42 4186.37 3587.76 4231.65 3615.32C4266.25 3636.39 4307.06 3646.72 4330.33 3605.55C4353.19 3565.08 4326.5 3507.38 4305.91 3473.1C4278.19 3426.94 4240.12 3383.52 4200.73 3346.3C4179.91 3326.64 3970.96 3169.2 3963.65 3257.6C3960.3 3298.22 3966.33 3337.76 3986.7 3373.22C4013.05 3419.09 4052.68 3458.33 4091.64 3496.9ZM2843.74 4578.11L2843.55 4578.11C2816.54 4578.26 2772.79 4578.51 2775.74 4541.28C2779.78 4490.33 2829.84 4374.74 2880.52 4341.19C2882.72 4339.74 2982.51 4274.93 2984.73 4273.53C3016.78 4253.47 3051.05 4240.5 3085.37 4241.46C3113.73 4242.25 3139.47 4260.03 3150.95 4285.9C3169.36 4327.43 3155.72 4374.7 3137.87 4412.72C3110.19 4471.68 3059.44 4517.74 2999.32 4542.73C2952.11 4562.35 2900.67 4575.33 2848.55 4578.09H2848.54C2847.02 4578.09 2845.41 4578.1 2843.74 4578.11ZM3685.14 3904.37C3662.04 3912.06 3623.53 3931.89 3630.42 3962.74C3646.2 3999.34 3671.44 4019.98 3704.05 4041.38C3739.1 4064.39 3780.74 4082.25 3821.21 4082.41C3830.56 4082.44 3882.95 4068.08 3894.13 4060.48C3920.84 4042.29 3928.49 4006.33 3920.87 3974.54C3912.47 3939.5 3867.08 3921.87 3837.52 3911.32C3787 3893.3 3733.82 3888.2 3685.14 3904.37ZM4031.75 4218.07C4016.44 4197.84 3981.12 4141.36 4007.96 4120.64C4015.98 4114.44 4026.2 4111.72 4037.25 4111.72C4147.71 4111.72 4206.29 4173.16 4234.64 4204.47C4248.85 4220.17 4263.12 4239.75 4276.13 4257.7C4292.43 4280.22 4297.22 4307.7 4265.85 4320.64C4245.37 4329.08 4218.97 4338.36 4197.73 4332.62C4167.17 4324.37 4136.1 4304.01 4107.5 4285.26L4107.49 4285.26C4105.03 4283.65 4102.6 4282.05 4100.18 4280.48C4099.16 4279.81 4098.14 4279.15 4097.13 4278.49C4072.25 4262.35 4049.53 4242.09 4031.74 4218.07H4031.75ZM3974.68 4096.65C4017.54 4135.02 4114.62 4075.51 4145.33 4010.05L4145.32 4010.06C4159.79 3979.22 4172.99 3963.67 4183.21 3951.63C4193.95 3938.98 4201.41 3930.2 4203.63 3911.62C4207.35 3880.5 4155.35 3830.28 4127.98 3839.97C4045.44 3869.2 3892.41 4001.6 3934.53 4061.25C3939.43 4068.21 3954.17 4080.01 3964.79 4088.53L3964.8 4088.53L3964.81 4088.54C3969.06 4091.94 3972.64 4094.82 3974.68 4096.65ZM4512.67 4019.05C4485.05 4048.18 4431.63 4066.62 4390.54 4054.77C4355.6 4044.68 4357.58 4002.31 4363.74 3974.05C4372.58 3933.44 4399.55 3897.06 4424.79 3863.01C4430.31 3855.57 4435.74 3848.24 4440.88 3841C4477.23 3789.86 4512.27 3735.64 4540.72 3680.82C4620.64 3526.85 4735.85 3783.69 4512.66 4019.05H4512.67ZM4330.52 4620.93C4376.1 4629.61 4435.7 4628.51 4467.27 4585.89C4520.63 4505.88 4506.45 4377.06 4417.2 4329.08C4383.33 4310.87 4336.88 4315.94 4301.48 4323.97C4266.87 4331.81 4231.25 4342.7 4199.54 4360.15C4141.54 4392.07 4126.44 4485.11 4176.71 4531.3C4220.49 4571.52 4272.47 4609.87 4330.52 4620.93ZM4167.23 3796.92C4153.46 3733.84 4182.13 3690.84 4231.68 3656.46C4280.71 3622.46 4343.51 3674.35 4365.08 3716.98C4390.63 3767.48 4377.67 3843.44 4326.65 3873.6C4254.41 3916.29 4180.46 3879.16 4167.22 3796.92L4167.23 3796.92ZM4285.41 4176.33C4313.89 4173.84 4338.09 4160.39 4358.46 4136.22H4358.45C4403.08 4083.3 4340.97 3999.04 4293.19 3968.53C4248.19 3939.8 4181.15 3940.09 4162.05 4009.04C4147.73 4060.73 4155.19 4128.16 4207.12 4158.92C4230.26 4172.62 4255.09 4178.99 4285.41 4176.33ZM4305.95 4196.24C4332.02 4168.7 4362.93 4156.63 4387.32 4156.63C4430.35 4156.63 4495.18 4177.87 4529.49 4189.11L4530.09 4189.3C4533.52 4190.43 4537.91 4191.71 4542.91 4193.17C4583.61 4205.04 4664.88 4228.75 4599.11 4276.13C4558.2 4305.6 4483.63 4308.39 4436 4309.84C4392.49 4311.15 4339.32 4307.07 4306.38 4270.51C4288.71 4250.9 4286.65 4216.65 4305.95 4196.24ZM3495.12 3172.9C3568.86 3170.04 3648.23 3226.83 3703.9 3267.01C3781.98 3323.34 3825.2 3402.48 3842.31 3491.74C3848.71 3525.13 3850.66 3561.95 3798.16 3546.47C3731.29 3526.76 3665.42 3505.84 3600 3485.06L3600 3485.05L3599.98 3485.05C3568.53 3475.06 3537.17 3465.1 3505.86 3455.32C3497.21 3452.62 3488.41 3450.02 3479.58 3447.41C3424.91 3431.24 3369.19 3414.76 3342.08 3372.73C3323.58 3344.04 3347.31 3317.49 3366.12 3296.45L3366.13 3296.44C3367.07 3295.39 3367.99 3294.35 3368.9 3293.33C3372.09 3289.74 3376.98 3283.72 3383.05 3276.25C3411.49 3241.21 3466.03 3174.03 3495.12 3172.91V3172.9ZM3998.78 3806.19C4014.11 3826.48 4096.02 3849.85 4127.18 3816.05V3816.04C4165.28 3774.72 4131.82 3669.59 4063.09 3669.75C4053.68 3669.78 4019.2 3669.95 4011.55 3670.85C3981.32 3674.43 3940.51 3705.45 3965.45 3752.35C3968.92 3758.89 3993.72 3799.5 3998.78 3806.19ZM3854.84 4088.68C3903.2 4068.72 3940.51 4070.08 3969.73 4110.19C3991.83 4140.54 4004.77 4186.21 3996.01 4221.83C3984.69 4267.87 3911.23 4242.45 3886.14 4228.24C3839.11 4201.63 3818.22 4139.43 3817.63 4126.56C3816.76 4107.14 3829.21 4099.26 3854.84 4088.68V4088.68ZM4482.56 4881.43C4504.08 4888.86 4535.32 4889.57 4536.76 4859.48L4536.75 4859.47C4539.21 4826.41 4530.37 4793.7 4519.73 4763.57C4505 4721.84 4478.15 4685.74 4444.46 4658.7C4407.97 4629.43 4334.46 4624.65 4294.29 4653.7C4234.56 4696.87 4315.93 4775.65 4348.74 4801.83C4387.69 4832.91 4434.26 4864.74 4482.56 4881.43ZM3595.29 4224.59C3577.87 4182.71 3575.67 4124.8 3613.38 4095.66C3642.49 4073.15 3677.2 4067.18 3715.6 4069.02C3757.58 4071.04 3788.68 4100.81 3804.8 4137.4C3807.25 4142.96 3816.23 4167.6 3817.97 4173.4C3830.26 4214.33 3805.89 4233.49 3773.22 4251.37C3738.61 4270.31 3690.8 4272.75 3651.57 4263.37C3627.68 4257.65 3604.55 4252.12 3595.29 4224.6V4224.59ZM4646.55 4819.13C4689.38 4834.65 4730.82 4838.33 4776.98 4831.38C4868.92 4811.84 4956.27 4773.86 5033.97 4724.26C5111.48 4674.78 5205.98 4600.87 5223 4502.91C5246.26 4369.1 4897.01 4425.72 4837.11 4435.45C4757.45 4448.38 4674.78 4462.76 4599.37 4493.94C4561.32 4509.67 4511.33 4533.81 4501.58 4578.11C4489.4 4633.45 4496.41 4683.71 4527.74 4729.85C4555.16 4770.23 4600.79 4802.54 4646.55 4819.13ZM2879.66 4320.55C2830.41 4337.9 2785.28 4280.23 2785.28 4219.88C2785.28 4138.09 2807.5 4100.36 2844.98 4063.1C2883.47 4024.84 3063.19 3998.96 3119.9 3993.46C3150.16 3990.52 3172.92 4009.37 3164.09 4040.78C3144.25 4111.39 3106.07 4170.69 3049.7 4215.83C3021.38 4238.51 2977.31 4263.93 2930.71 4290.8C2913.82 4300.55 2896.59 4310.48 2879.66 4320.55ZM4522.85 3668.44C4535.71 3618.62 4536.99 3550.76 4506.22 3505.04H4506.21C4485.82 3474.09 4446.99 3443.2 4407.44 3453.91C4365.81 3465.19 4354.89 3516.27 4352.38 3551.15C4349.1 3596.85 4362.15 3646.6 4374.49 3693.64L4374.49 3693.64C4377.43 3704.84 4380.32 3715.88 4382.95 3726.68L4383.02 3726.95C4389.12 3752.05 4405.33 3818.73 4446.86 3789.17C4487.42 3760.3 4511.1 3713.98 4522.85 3668.44ZM3566.54 4190.3L3566.54 4190.29C3566.7 4188.92 3566.86 4187.55 3567.02 4186.19C3567.14 4185.13 3567.26 4184.08 3567.38 4183.03C3573.2 4131.29 3587.38 4095.29 3599.38 4064.82C3612.3 4032.01 3622.7 4005.61 3617.38 3972.88C3612.59 3943.34 3569.76 3949.35 3555.75 3954.01C3549.94 3955.94 3544.5 3957.72 3539.4 3959.39L3539.39 3959.4C3484.47 3977.39 3469.08 3982.43 3444.56 4025.05C3404.02 4095.56 3374.79 4201.13 3356.66 4281.55C3350.4 4309.27 3375.38 4331.74 3398.2 4324.34C3438.31 4311.33 3473.21 4299.66 3508.39 4286.98C3535.35 4277.27 3561.71 4254.35 3563.58 4221.16V4221.17C3564.17 4210.79 3565.36 4200.51 3566.54 4190.3ZM3339.77 4482.92C3332.15 4459.57 3330.74 4433.63 3332.7 4407.1L3332.71 4407.11C3333.87 4391.37 3346.45 4357.9 3377.22 4346.78C3406.21 4336.3 3463.26 4316.76 3505.35 4303.02C3549.11 4288.74 3554.91 4333.14 3554.82 4349.59C3554.5 4405.23 3541.55 4459.76 3521.97 4510.74C3505.8 4547.49 3478.99 4601.35 3430.22 4593.47C3380.38 4585.4 3353.61 4525.39 3339.77 4482.92ZM3141.02 4142.59C3124.68 4222.57 3172.15 4314.5 3195.06 4339.67C3202.7 4348.06 3224.75 4357.52 3249.78 4345.42C3288.29 4326.8 3323.35 4278.49 3290.4 4224.82C3286.86 4219.05 3282.51 4211.82 3277.54 4203.57L3277.53 4203.55C3261.11 4176.28 3238.03 4137.95 3215.74 4104.92C3196.28 4076.06 3175.54 4062.96 3162 4089.2C3156.03 4100.76 3143.54 4130.23 3141.02 4142.59ZM3209.68 3988.76C3228.85 3965.9 3256.96 3954.05 3288.89 3942.27H3288.9C3478.07 3872.52 3417.24 4044.65 3387.54 4128.67C3384.14 4138.31 3381.14 4146.8 3378.97 4153.62C3372.79 4173.12 3367.24 4192.7 3361.8 4211.88L3361.8 4211.88C3359.75 4219.11 3357.71 4226.28 3355.66 4233.37C3345.47 4268.68 3326.53 4259.27 3307.52 4228.96C3294.25 4207.78 3279.88 4184.33 3265.5 4160.84L3265.47 4160.8L3265.47 4160.8L3265.47 4160.79L3265.46 4160.79C3245.46 4128.13 3225.43 4095.42 3208.25 4068.71C3188.31 4037.7 3196.45 4004.53 3209.68 3988.76ZM3170.25 3772.96C3069.38 3807.71 2975.45 3861.05 2954.43 3941.49C2945.7 3974.89 2939.62 4003.31 2967.64 3999.53C2977.36 3998.22 2987.05 3996.96 2996.73 3995.71C3039.57 3990.15 3081.98 3984.65 3123.61 3974.94C3178.83 3962.04 3193.67 3937.76 3195.97 3914.25C3198.56 3887.83 3210.6 3831.62 3220.54 3793.66C3229.04 3761.17 3190.14 3766.11 3170.25 3772.96ZM3470.52 3716.62C3517.17 3716.23 3601.17 3715.51 3601.17 3754.68H3601.17C3601.17 3760.91 3601.1 3771.61 3601.06 3778.41V3778.41C3601.04 3781.57 3601.02 3783.88 3601.02 3784.51C3601.02 3844.45 3504.93 3869.88 3394.19 3899.19L3394.19 3899.19C3356.41 3909.19 3316.93 3919.64 3278.97 3932.06C3233.86 3946.84 3213.65 3920.27 3212.81 3909.03C3210.62 3880.02 3226.38 3822.25 3237.2 3795.24C3257.94 3743.42 3338.76 3729.61 3364.44 3725.31C3394.31 3720.29 3425.47 3716.53 3456.39 3716.69C3460.51 3716.71 3465.27 3716.67 3470.5 3716.62H3470.52ZM3550.76 3940.29C3540.17 3943.09 3523.98 3949.47 3509.83 3955.05L3509.82 3955.05L3509.81 3955.06C3500.81 3958.6 3492.63 3961.83 3487.24 3963.6C3440.43 3978.96 3429.16 3963.74 3422.93 3944.77C3416.7 3925.79 3423.04 3908.63 3469.86 3893.26C3475.05 3891.56 3480.77 3889.53 3486.82 3887.39L3486.83 3887.39C3493.48 3885.03 3500.53 3882.54 3507.74 3880.16C3530.48 3872.66 3568.24 3872.64 3578.27 3880.19C3599.19 3895.96 3612.22 3924.02 3550.76 3940.3V3940.29ZM3064.39 3339.31C3099.03 3346.7 3138.04 3356.49 3177.84 3367.27L3177.83 3367.28C3210.02 3375.99 3272.45 3405.33 3265.53 3467.36C3264.87 3473.33 3264.17 3479.52 3263.46 3485.87C3262.83 3491.54 3262.17 3497.34 3261.51 3503.22L3261.51 3503.28L3261.51 3503.29L3261.5 3503.29L3261.5 3503.3L3261.5 3503.3L3261.5 3503.32C3254.9 3562.07 3247.35 3629.28 3244.69 3662.97C3242.52 3690.25 3233.74 3740.65 3167.55 3740.65C3053.06 3740.65 2942.44 3678.53 2868.88 3489.25C2837.18 3407.66 2875.08 3298.92 3064.39 3339.31ZM3448.83 3448.81L3447.49 3448.38L3447.48 3448.37L3447.42 3448.35C3431.33 3443.19 3408.1 3435.74 3380.31 3427.03C3355.17 3419.15 3296.9 3409.39 3288 3470.42C3282.26 3509.92 3272.89 3598.37 3266.52 3660.75C3262.52 3699.96 3274.07 3729.18 3330.61 3706.04C3418.7 3669.99 3500.05 3617 3556.22 3577.26C3575.76 3563.44 3618.8 3503.2 3455.85 3451.05V3451.06C3453.71 3450.37 3451.37 3449.62 3448.83 3448.81ZM4579.95 3969.55C4600.11 3949.61 4620.36 3929.59 4641.91 3910.92H4641.89C4683.92 3874.52 4699.6 3932.29 4703.42 3950.12C4703.86 3952.2 4704.36 3954.51 4704.92 3957.04L4705.02 3957.5C4709.32 3977.19 4716.32 4009.23 4718.92 4037.41C4723.05 4082.41 4699.89 4112.32 4672.46 4137.95C4644.53 4164.04 4598.39 4197.04 4509.93 4162.11C4429.28 4130.26 4518.56 4028.72 4546.42 4002.26C4557.71 3991.55 4568.81 3980.56 4579.94 3969.56L4579.95 3969.55ZM4756.08 3806.44C4700.65 3853.73 4712.82 3916.88 4720.14 3954.82L4720.4 3956.16C4740.1 4058.42 4810.23 4013.73 4831.63 3991.41C4835.98 3986.88 4840.59 3982.13 4845.39 3977.18C4898.03 3922.96 4973.97 3844.74 4976.3 3769.64C4980.83 3623.35 4795.46 3772.83 4756.07 3806.43L4756.08 3806.44ZM3728.78 4594.53C3755.28 4673.95 3779.82 4753.7 3800.03 4835.41H3800.04C3800.55 4837.47 3801.32 4840.25 3802.23 4843.58C3809.55 4870.07 3826.39 4931.03 3796.49 4937.96C3774.06 4943.15 3744.25 4907.81 3728.84 4889.55L3728.78 4889.47L3728.74 4889.43L3728.69 4889.37C3726.91 4887.25 3725.32 4885.37 3723.96 4883.82C3709.67 4867.43 3692.92 4849.27 3675.11 4829.96L3675.1 4829.96L3675.1 4829.95C3614.35 4764.1 3541.27 4684.87 3511.24 4617.01C3492.56 4574.82 3544.44 4538.16 3578.08 4529.76C3596.22 4525.23 3622.71 4520.73 3646.48 4517C3683.46 4511.19 3710.44 4539.54 3728.78 4594.53ZM3702.26 4434.33L3702.26 4434.33C3705.17 4401.76 3708.07 4369.19 3699.13 4342.62C3690.46 4316.84 3651.3 4253.69 3611.81 4272.86C3585.89 4285.44 3573.4 4351.87 3562.01 4412.5L3562.01 4412.5L3562.01 4412.51L3562 4412.53C3557.98 4433.94 3554.09 4454.63 3549.79 4471.96C3542.11 4502.98 3557.91 4518.94 3570 4516.76C3605.09 4510.42 3645.29 4503.61 3670.51 4500.05C3693.56 4496.8 3699.4 4472.03 3700.18 4459.97V4459.96C3700.73 4451.49 3701.5 4442.91 3702.26 4434.33ZM3742.12 4411.19C3742.79 4409.42 3743.45 4407.64 3744.12 4405.85C3751.97 4384.78 3768.35 4341.1 3813.01 4386.51C3842.88 4416.9 3899.39 4474.59 3949.86 4526.13L3949.98 4526.25C3962.03 4538.55 3973.73 4550.5 3984.65 4561.65C3992.78 4569.94 4000.47 4577.79 4007.53 4585.01C4040.72 4618.87 4040.86 4662.63 4032.99 4675.86C4022.87 4692.88 4009.36 4707.76 3987.88 4723.31C3959.74 4743.32 3926.18 4724.93 3903.21 4708.29C3896.72 4703.58 3889.22 4698.3 3881.06 4692.55C3829.76 4656.41 3752.09 4601.68 3732.51 4555.83C3708.8 4500.31 3724.44 4458.5 3742.12 4411.19ZM4136.3 4487.13C4114.9 4419.75 4093.54 4371.35 4031.69 4327.45C4022.63 4321.02 4013.62 4314.32 4004.58 4307.6C3962.33 4276.2 3919.22 4244.15 3865.26 4235.1C3812.26 4226.22 3782.59 4252.13 3771.24 4297.03C3768.99 4305.96 3774.74 4330.88 3799.65 4356.1C3848.3 4405.36 3969.57 4529.34 4026.6 4587.66C4045.35 4606.83 4072.41 4596.53 4082.66 4587.95C4087.94 4583.53 4093.48 4579.42 4098.96 4575.35L4098.96 4575.34C4126.2 4555.1 4151.83 4536.04 4136.3 4487.12V4487.13Z" fill="black"/>
</svg>
