<svg xmlns="http://www.w3.org/2000/svg" width="24" height="24" fill="none" viewBox="0 0 24 24"><path fill="currentcolor" fill-rule="evenodd" d="M2.069 6.705C2.024 6.91 2 7.124 2 7.342V16.5c0 1.48.986 2.762 2.45 2.983C6.137 19.74 8.676 20 12 20c3.323 0 5.863-.261 7.55-.517C21.014 19.262 22 17.98 22 16.5V7.342c0-.218-.024-.432-.069-.637l-8.314 6.046a2.75 2.75 0 0 1-3.235 0L2.07 6.705Zm.706-1.342 8.49 6.175a1.25 1.25 0 0 0 1.47 0l8.49-6.175a2.642 2.642 0 0 0-1.524-.796A51.253 51.253 0 0 0 12 4c-3.268 0-5.943.297-7.7.567a2.643 2.643 0 0 0-1.525.796Z" clip-rule="evenodd"/></svg>