<svg xmlns="http://www.w3.org/2000/svg" width="24" height="24" fill="none" viewBox="0 0 24 24"><path fill="currentcolor" fill-rule="evenodd" d="M10.942 5.833c-.127.423-.241.895-.34 1.407.457.194.924.407 1.398.64.474-.233.942-.446 1.399-.64-.1-.512-.214-.984-.341-1.407-.233-.775-.492-1.337-.738-1.684-.17-.238-.28-.307-.32-.326-.04.02-.15.088-.32.326-.246.347-.505.909-.738 1.684Zm4.18.759A15.86 15.86 0 0 0 14.8 5.31c-.26-.87-.59-1.64-.996-2.213C13.413 2.548 12.817 2 12 2s-1.413.548-1.803 1.097c-.406.573-.735 1.344-.996 2.213-.12.398-.227.826-.323 1.282a15.859 15.859 0 0 0-1.271-.36c-.884-.21-1.716-.31-2.415-.245-.67.063-1.444.305-1.852 1.013-.409.708-.232 1.498.049 2.11.293.639.796 1.309 1.418 1.97.285.301.602.61.948.92-.346.31-.663.619-.948.92-.622.661-1.125 1.331-1.418 1.97-.28.612-.458 1.402-.049 2.11.409.708 1.182.95 1.852 1.013.7.065 1.53-.035 2.415-.244.403-.095.828-.216 1.27-.36.097.455.205.883.324 1.28.26.87.59 1.64.996 2.213.39.55.986 1.098 1.803 1.098.818 0 1.414-.548 1.803-1.098.407-.573.735-1.343.996-2.213.12-.397.228-.825.324-1.28a15.9 15.9 0 0 0 1.27.36c.885.209 1.716.31 2.415.244.67-.063 1.444-.305 1.852-1.013.409-.708.232-1.498-.049-2.11-.293-.639-.795-1.309-1.418-1.97-.284-.301-.601-.61-.948-.92.347-.31.664-.619.948-.92.623-.662 1.126-1.331 1.418-1.97.281-.612.458-1.402.05-2.11-.41-.708-1.182-.95-1.853-1.013-.699-.065-1.53.035-2.414.244-.403.095-.829.216-1.271.36ZM10.2 10.96A29.77 29.77 0 0 1 12 9.92a29.48 29.48 0 0 1 1.8 1.04 29.733 29.733 0 0 1 0 2.078 29.631 29.631 0 0 1-1.8 1.04 29.515 29.515 0 0 1-1.8-1.04 29.5 29.5 0 0 1 0-2.078Zm-3.02 2.208a14.63 14.63 0 0 0-1.048 1c-.555.589-.912 1.093-1.09 1.48-.122.266-.126.396-.122.44.036.026.151.087.442.114.424.04 1.04-.016 1.827-.203.43-.101.896-.238 1.39-.408a27.262 27.262 0 0 1-.146-1.53 27.294 27.294 0 0 1-1.253-.893Zm9.643-2.336c-.396-.3-.815-.598-1.254-.892a27.265 27.265 0 0 0-.145-1.531c.493-.17.96-.307 1.39-.409.787-.186 1.402-.242 1.826-.202.291.027.406.088.442.114.004.044 0 .174-.122.44-.177.387-.534.891-1.089 1.48a14.64 14.64 0 0 1-1.048 1Zm-1.254 3.228a27.31 27.31 0 0 0 1.254-.892c.394.343.745.678 1.048 1 .555.589.912 1.093 1.089 1.48.122.266.126.396.122.44-.036.026-.15.087-.442.114-.424.04-1.04-.016-1.827-.202a14.67 14.67 0 0 1-1.39-.409c.062-.492.11-1.004.146-1.53Zm-4.967 2.7c.458-.194.925-.407 1.4-.64.473.233.94.446 1.398.64-.1.512-.214.984-.341 1.407-.233.775-.492 1.336-.738 1.683-.17.24-.28.308-.32.326-.04-.018-.15-.087-.32-.325-.246-.348-.505-.909-.738-1.684a14.626 14.626 0 0 1-.34-1.407Zm-2.17-6.82c-.439.294-.857.592-1.253.892a14.62 14.62 0 0 1-1.048-1c-.556-.589-.912-1.093-1.09-1.48-.122-.266-.126-.396-.122-.44.036-.026.151-.087.442-.114.424-.04 1.04.016 1.827.203.43.101.896.238 1.39.408-.062.492-.11 1.004-.146 1.531Z" clip-rule="evenodd"/></svg>