<svg viewBox="0 0 24 24" fill="none" xmlns="http://www.w3.org/2000/svg"><path fill-rule="evenodd" clip-rule="evenodd" d="M10 3c0-.5523.4477-1 1-1s1 .4477 1 1v3c0 .5523-.4477 1-1 1s-1-.4477-1-1V3Zm5 1c-.5523 0-1 .4477-1 1v1c0 .5523.4477 1 1 1s1-.4477 1-1V5c0-.5523-.4477-1-1-1Zm1.9033 6.3984c1.462-.1907 2.2216-.2207 3.2704.8917.4767.5402 1.0488 1.5255.8263 3.2099-.3496 2.8603-1.9991 3.9391-4.7959 4.1934-.3625.8924-.7006 1.5156-.7995 1.6979a2.3365 2.3365 0 0 0-.0268.0501c-.6779 1.162-2.5743 1.589-4.7196 1.589-2.1452 0-4.0948-.4289-4.7195-1.589a2.5401 2.5401 0 0 0-.0181-.0347C5.7166 20.0185 4 16.7514 4 13.8626c0-2.8604.6992-4.068.8581-4.2905C5.0806 9.2225 5.4937 9 5.9069 9h9.5662c.8264 0 1.176.6356 1.4302 1.3984Zm.445 3.4642c0 .9535-.1907 1.9387-.445 2.8603 3.6231-.6038 2.6688-3.619 2.0967-4.2229-.5403-.5721-1-.5-1.7153-.2265.0318.445.0636.9853.0636 1.5891ZM7 4c-.5523 0-1 .4477-1 1v1c0 .5523.4477 1 1 1s1-.4477 1-1V5c0-.5523-.4477-1-1-1Z" fill="currentcolor"/></svg>