<svg viewBox="0 0 8000 8000" fill="none"
  xmlns="http://www.w3.org/2000/svg">
  <path fill-rule="evenodd" clip-rule="evenodd" d="M8000 0H0v8000h8000V0ZM3052.5 3041.4c-21.3-13.4-74.6-47.2-82.8-8.9-3.1 12.6-6.8 25.4-10.5 38.4-29.6 103.4-62.1 217.3 135.3 264.1 76.8 18.2 183.8 20.8 243.5-26.3 70.1-55.4-44.4-128-88-149.8-49.4-24.6-97.3-54.8-144.7-84.5a4899.5 4899.5 0 0 0-52.8-33Zm1958 387c-11.3 127.3-88.6 268.7-214.2 312.6-44.3 15.4-49.8-46.2-52.8-80l-1-10c-5.6-51.3-6.8-104.4-8-156.6v-.2c-.4-15.9-.7-31.7-1.2-47.3-1-32-2.5-64.3-4-96.8-2-45.3-4.2-90.7-5-135.2l-.3-13.3c-1.9-48.9-6.3-167.7 49.6-166.5 80.8 1.7 144.3 91.3 179.2 152.5 41.7 73.3 63.5 154 57.8 240.8Zm-1329.9 282c16.2-.8 110.2-8.8 128.6-10.7 42.8-4.2 55.1-58.2 45-87.6-8.9-26.2-16.5-42.6-46.2-50.1-165.9-42-186.9-21.9-223.8 13.5l-8.7 8.3c-22.2 20.6-124.6 116.2-36.9 122.2l8.2.5c43 3 88.9 6 133.8 3.9Zm-328 825.8c-4.8-9.7-22.4-45.6-35.6-74.1-28.1-60.7-120.8-77.2-157.7-40.4-32.3 32.2-96.3 105.7-110.3 129.9-28.7 49.3-29.4 103.5-5 157 21.1 45.9 49.7 89.5 81.5 129.4 38.4 48.1 83.5 95.7 137 127.6 49 29.3 107.8 30.7 127.8-32.1a534.4 534.4 0 0 0 13-262c-9.3-45.8-28.7-89.8-49.5-132.8l-.3-.7-.9-1.8Zm734.6-878c30.9-3 31.4-26.5 26.2-64-10-63-58.5-119.4-101.5-161.8-27.7-27.3-62-54.9-98.3-76.7-27-16-118.5-15.6-100.3 20.4 2.2 4.3 5.9 12.6 10.8 23.8 30.8 69.3 110 247.6 180.1 260 15 2.5 69.5-.5 83-1.8Zm-154 72.7a81.3 81.3 0 0 1 30.8 31.8c3.5 6 21.5 36.8 22.7 43.5 6 32-23.4 52.2-52 72-5.7 3.9-11.3 7.8-16.6 11.7-18 13.4-50.3 18.7-84.4 7-38.7-13.5-70.8-24-97.4-32.6-98-32-121.5-39.7-123.3-78.1a476 476 0 0 1 0-18V3753c0-22.4 35.7-29.4 65.4-32.2 39.2-3.6 98.6-8.9 130-11.2 52.4-3.7 90 3.4 124.9 21.2Zm158.4-234 6.7 6.6 10.4 10 .3.2c38.4 36.7 77.4 74 122.6 101.6 34.6 21 75.5 31.4 98.7-9.8 22.9-40.4-3.8-98.1-24.4-132.4-27.7-46.2-65.8-89.6-105.2-126.8-20.8-19.7-229.7-177.1-237-88.7-3.4 40.6 2.6 80.2 23 115.6 26.4 45.9 66 85.1 105 123.7ZM2843.7 4578.1h-.1c-27 .2-70.8.4-67.9-36.8 4-51 54.1-166.6 104.8-200.1l104.2-67.7c32-20 66.4-33 100.7-32a74.9 74.9 0 0 1 65.5 44.4c18.5 41.5 4.8 88.8-13 126.8a265 265 0 0 1-138.6 130 459.1 459.1 0 0 1-150.8 35.4h-4.8Zm841.4-673.7c-23 7.7-61.6 27.5-54.7 58.3 15.8 36.6 41 57.3 73.7 78.7 35 23 76.6 40.8 117.1 41 9.4 0 61.8-14.3 73-22 26.6-18.1 34.3-54 26.7-85.9-8.4-35-53.8-52.6-83.4-63.2-50.5-18-103.7-23.1-152.4-7Zm346.7 313.7c-15.4-20.3-50.7-76.7-23.8-97.5 8-6.2 18.2-8.9 29.3-8.9 110.4 0 169 61.5 197.3 92.8a652 652 0 0 1 41.5 53.2c16.3 22.5 21.1 50-10.3 63-20.4 8.4-46.8 17.7-68 12-30.6-8.3-61.7-28.7-90.3-47.4l-7.3-4.8-3-2a251.3 251.3 0 0 1-65.5-60.4Zm-57.1-121.5c42.8 38.4 140-21 170.6-86.6 14.5-30.8 27.7-46.3 38-58.4 10.6-12.6 18.1-21.4 20.3-40 3.8-31.1-48.3-81.3-75.6-71.6-82.6 29.2-235.6 161.6-193.5 221.3 5 7 19.7 18.7 30.3 27.2l9.9 8.1Zm538-77.6c-27.6 29.2-81 47.6-122.2 35.8-34.9-10.1-33-52.5-26.8-80.8 8.9-40.6 35.9-77 61-111a1374.3 1374.3 0 0 0 116-182.2c80-154 195.2 102.9-28 338.3Zm-182.2 602c45.6 8.6 105.2 7.5 136.8-35.1 53.3-80 39.1-208.8-50.1-256.8-33.9-18.2-80.3-13.2-115.7-5.1a390.9 390.9 0 0 0-102 36.1c-58 32-73 125-22.8 171.2 43.8 40.2 95.8 78.6 153.8 89.6Zm-163.3-824c-13.7-63.2 15-106.2 64.5-140.5 49-34 111.8 17.8 133.4 60.5 25.5 50.5 12.6 126.4-38.5 156.6-72.2 42.7-146.1 5.6-159.4-76.7Zm118.2 379.3c28.5-2.5 52.7-16 73-40 44.7-53-17.4-137.3-65.2-167.8-45-28.7-112-28.4-131.1 40.5-14.4 51.7-7 119.2 45 150 23.2 13.6 48 20 78.3 17.3Zm20.6 20c26-27.6 57-39.7 81.3-39.7 43 0 107.9 21.3 142.2 32.5l.6.2 12.8 3.9c40.7 11.8 122 35.6 56.2 83-40.9 29.4-115.5 32.2-163.1 33.6-43.5 1.3-96.7-2.7-129.6-39.3-17.7-19.6-19.8-53.9-.4-74.3ZM3495 3172.8c73.8-2.9 153.1 54 208.8 94.1 78 56.3 121.3 135.5 138.4 224.7 6.4 33.4 8.4 70.3-44.1 54.8A9885.4 9885.4 0 0 1 3600 3485c-31.5-10-62.8-20-94.1-29.8l-26.3-7.9c-54.7-16.2-110.4-32.6-137.5-74.7-18.5-28.7 5.2-55.2 24-76.3l2.8-3c3.2-3.7 8-9.7 14.2-17.2 28.4-35 83-102.2 112-103.3Zm503.7 633.3c15.3 20.3 97.2 43.7 128.4 9.9 38-41.4 4.6-146.5-64.1-146.3-9.4 0-43.9.1-51.5 1-30.3 3.6-71 34.6-46.2 81.5a1050 1050 0 0 0 33.4 53.9Zm-144 282.5c48.4-20 85.7-18.6 115 21.5 22 30.3 35 76 26.2 111.6-11.3 46-84.8 20.6-109.9 6.4-47-26.6-67.9-88.8-68.5-101.6-.8-19.5 11.6-27.3 37.2-38Zm627.8 792.7c21.5 7.5 52.7 8.2 54.2-22 2.4-33-6.4-65.7-17-95.8a236.2 236.2 0 0 0-75.3-104.9c-36.5-29.3-110-34-150.2-5-59.7 43.2 21.6 122 54.4 148.1 39 31.1 85.6 63 133.9 79.6Zm-887.3-656.8c-17.4-41.9-19.6-99.8 18-129 29.2-22.4 63.9-28.4 102.3-26.6 42 2 73 31.8 89.2 68.4 2.4 5.6 11.4 30.2 13.2 36 12.3 41-12.1 60-44.8 78-34.6 19-82.4 21.4-121.6 12-24-5.8-47-11.3-56.3-38.8ZM4646.6 4819a256.4 256.4 0 0 0 130.4 12.3 784 784 0 0 0 257-107.1c77.5-49.5 172-123.4 189-221.4 23.3-133.8-326-77.2-385.9-67.4-79.7 12.9-162.3 27.3-237.7 58.4-38 15.8-88 40-97.8 84.2-12.2 55.3-5.2 105.6 26.1 151.8 27.5 40.3 73 72.6 118.9 89.2Zm-1767-498.6c-49.2 17.4-94.3-40.3-94.3-100.6 0-81.8 22.2-119.5 59.7-156.8 38.5-38.3 218.2-64.1 274.9-69.6 30.3-3 53 15.9 44.2 47.3-19.8 70.6-58 129.9-114.4 175-28.3 22.7-72.4 48.1-119 75-16.9 9.8-34.1 19.7-51 29.8Zm1643.3-652c12.8-49.9 14-117.7-16.7-163.5-20.4-31-59.2-61.8-98.8-51-41.6 11.2-52.5 62.3-55 97.2-3.3 45.7 9.8 95.4 22 142.4 3 11.2 6 22.3 8.6 33v.3c6.1 25.2 22.3 91.8 63.9 62.3 40.5-28.9 64.2-75.2 76-120.8Zm-956.4 521.8.5-4.1.4-3.2c5.8-51.7 20-87.7 32-118.2 12.9-32.8 23.3-59.2 18-92-4.8-29.5-47.6-23.5-61.7-18.8l-16.3 5.4c-55 18-70.3 23-94.8 65.7-40.6 70.5-69.8 176-88 256.5-6.2 27.7 18.8 50.1 41.6 42.7 40.1-13 75-24.6 110.2-37.3 27-9.7 53.3-32.6 55.2-65.8.6-10.4 1.8-20.7 3-30.9Zm-226.7 292.6c-7.7-23.3-9-49.3-7.1-75.8 1.2-15.7 13.8-49.2 44.5-60.3 29-10.5 86-30 128.2-43.8 43.7-14.3 49.5 30.1 49.4 46.6a459 459 0 0 1-32.8 161.1c-16.2 36.8-43 90.7-91.8 82.8-49.8-8.1-76.6-68.1-90.4-110.6ZM3141 4142.6c-16.3 80 31.2 171.9 54 197 7.7 8.5 29.8 18 54.8 5.8 38.5-18.6 73.5-67 40.6-120.6l-12.9-21.2a2350.2 2350.2 0 0 0-61.8-98.7c-19.4-28.8-40.2-42-53.7-15.7-6 11.6-18.5 41-21 53.4Zm68.7-153.8c19.2-22.9 47.3-34.8 79.2-46.5 189.2-69.8 128.3 102.3 98.6 186.4-3.4 9.6-6.4 18.1-8.5 25-6.2 19.4-11.8 39-17.2 58.2l-6.1 21.5c-10.2 35.3-29.2 25.9-48.2-4.4a7962.1 7962.1 0 0 1-42-68.2c-20-32.7-40-65.4-57.3-92-19.9-31.1-11.8-64.3 1.5-80Zm-39.4-215.8c-101 34.7-194.9 88-215.9 168.5-8.7 33.4-14.8 61.8 13.2 58l29.1-3.8c42.9-5.5 85.3-11 127-20.8 55.1-12.9 70-37.1 72.3-60.7 2.6-26.4 14.6-82.6 24.5-120.5 8.5-32.5-30.4-27.6-50.3-20.7Zm300.2-56.4c46.7-.4 130.7-1 130.7 38l-.1 23.8v6.1c0 60-96.2 85.4-207 114.7-37.7 10-77.2 20.4-115.1 32.9-45.1 14.7-65.3-11.8-66.2-23-2.2-29 13.6-86.8 24.4-113.9 20.7-51.8 101.6-65.6 127.2-69.9a542 542 0 0 1 106.1-8.7Zm80.3 223.7a446.2 446.2 0 0 0-41 14.8c-9 3.5-17.2 6.7-22.6 8.5-46.8 15.4-58 .1-64.3-18.8-6.2-19 .1-36.2 47-51.5 5.2-1.7 10.9-3.8 17-6a994 994 0 0 1 20.8-7.1c22.8-7.5 60.5-7.6 70.6 0 20.9 15.8 34 43.8-27.5 60.1Zm-486.4-601a2210 2210 0 0 1 113.4 28c32.2 8.7 94.6 38 87.7 100l-2 18.6-2 17.3v.1c-6.6 58.8-14.2 126-16.8 159.7-2.2 27.3-11 77.7-77.1 77.7-114.5 0-225.2-62.2-298.7-251.4-31.7-81.6 6.2-190.4 195.5-150Zm384.4 109.5-1.3-.4c-16.2-5.2-39.4-12.7-67.2-21.4-25.1-7.8-83.4-17.6-92.3 43.4-5.7 39.5-15.1 128-21.5 190.3-4 39.3 7.6 68.5 64.1 45.3 88.1-36 169.5-89 225.6-128.7 19.6-13.9 62.6-74.1-100.3-126.3l-7-2.2ZM4580 3969.6c20.2-20 40.5-40 62-58.7 42-36.4 57.7 21.4 61.5 39.2l1.5 7 .1.4c4.3 19.7 11.3 51.7 14 80 4 45-19.1 74.8-46.5 100.4-28 26.1-74.1 59.1-162.6 24.2-80.6-31.8 8.7-133.4 36.5-159.8 11.3-10.8 22.4-21.7 33.5-32.7Zm176.2-163.2c-55.5 47.3-43.3 110.5-36 148.4l.3 1.4c19.7 102.2 89.8 57.5 111.2 35.2l13.8-14.2c52.6-54.2 128.6-132.5 130.9-207.6 4.5-146.3-180.8 3.2-220.2 36.8Zm-1027.3 788.1c26.5 79.4 51 159.2 71.2 241l2.2 8c7.4 26.6 24.2 87.5-5.7 94.5-22.4 5.1-52.3-30.2-67.7-48.4v-.1l-.1-.1-4.7-5.6c-14.3-16.4-31-34.5-48.9-53.8-60.8-65.9-133.8-145.1-163.9-213-18.6-42.2 33.2-78.8 66.9-87.2 18.1-4.6 44.6-9 68.4-12.8 37-5.8 64 22.5 82.3 77.5Zm-26.5-160.2c2.9-32.5 5.8-65.1-3.2-91.7-8.6-25.8-47.8-89-87.3-69.7-26 12.5-38.4 79-49.8 139.6-4 21.4-8 42.1-12.2 59.5-7.7 31 8.1 47 20.2 44.8 35-6.4 75.3-13.2 100.5-16.8 23-3.2 28.9-28 29.7-40 .5-8.5 1.3-17 2-25.7Zm39.8-23.1 2-5.3c7.9-21.1 24.3-64.8 69-19.4l136.8 139.6v.1l34.8 35.4 22.8 23.4c33.2 33.9 33.4 77.6 25.5 90.9a155.4 155.4 0 0 1-45.1 47.4c-28.2 20-61.7 1.6-84.7-15l-22.1-15.8c-51.3-36-129-90.8-148.6-136.7-23.7-55.5-8-97.3 9.6-144.6Zm394.2 76c-21.4-67.4-42.8-115.8-104.6-159.8-9-6.4-18-13-27.1-19.8-42.3-31.4-85.4-63.5-139.3-72.5-53-8.9-82.7 17-94 62-2.3 8.9 3.4 33.8 28.3 59 48.7 49.3 170 173.2 227 231.6 18.8 19.1 45.8 8.8 56 .3 5.3-4.5 10.9-8.6 16.4-12.6 27.2-20.3 52.8-39.4 37.3-88.3Z" fill="currentColor"/>
</svg>
