<svg viewBox="0 0 8000 8000" fill="none"
  xmlns="http://www.w3.org/2000/svg">
  <path fill-rule="evenodd" clip-rule="evenodd" d="M8000 0H0v8000h8000V0ZM3964.5 3774.7l-24.4-24.4a30.7 30.7 0 0 0-43.4 0l-24.4 24.4a30.8 30.8 0 0 0 0 43.4l24.4 24.4a30.8 30.8 0 0 0 43.4 0l24.4-24.4a30.8 30.8 0 0 0 0-43.4Zm-152.3-112.9a35.6 35.6 0 0 1 50.4 0l28.3 28.4a35.6 35.6 0 0 1 0 50.3l-28.3 28.3a35.6 35.6 0 0 1-50.4 0l-28.3-28.3a35.7 35.7 0 0 1 0-50.3l28.3-28.4Zm-159.8 4.9a32.5 32.5 0 0 1 45.7 0l25.8 25.8a32.5 32.5 0 0 1 0 45.7l-25.8 25.7a32.3 32.3 0 0 1-45.7 0l-25.7-25.8a32.5 32.5 0 0 1 0-45.7l25.7-25.7Zm553.8 555.9-23.6 23.6a29.7 29.7 0 0 1-42 0l-23.5-23.6a29.7 29.7 0 0 1 0-41.9l23.6-23.6a29.7 29.7 0 0 1 41.9 0l23.6 23.6a29.7 29.7 0 0 1 0 41.9Zm-497.7-448.7 25.3-25.3a32 32 0 0 1 45 0l25.4 25.3a31.9 31.9 0 0 1 0 45l-25.3 25.3a31.9 31.9 0 0 1-45 0l-25.4-25.3a32 32 0 0 1 0-45Zm486-.2 25.6-25.5a32.2 32.2 0 0 1 45.3 0l25.5 25.5a32.1 32.1 0 0 1 0 45.3l-25.5 25.5a32.2 32.2 0 0 1-45.3 0l-25.6-25.5a32.1 32.1 0 0 1 0-45.3Zm105.3-109.3a34 34 0 0 1 48 0l27 27a34 34 0 0 1 0 48l-27 27a34 34 0 0 1-48 0l-27-27a34 34 0 0 1 0-48l27-27Zm-811.9-2.6a35.6 35.6 0 0 1 50.4 0l28.4 28.4a35.7 35.7 0 0 1 0 50.3l-28.4 28.3a35.6 35.6 0 0 1-50.4 0l-28.3-28.3a35.6 35.6 0 0 1 0-50.3l28.3-28.4Zm654.4 12.4a27.4 27.4 0 0 1 38.7 0l21.7 21.8a27.4 27.4 0 0 1 0 38.6l-21.7 21.8a27.4 27.4 0 0 1-38.7 0l-21.7-21.8a27.4 27.4 0 0 1 0-38.6l21.7-21.8Zm238.7 71.5a33.8 33.8 0 0 1 47.8 0l26.8 26.8a33.8 33.8 0 0 1 0 47.8l-26.9 26.9a34 34 0 0 1-47.7 0l-26.9-27a33.8 33.8 0 0 1 0-47.7l26.9-26.8ZM4035 3775l24-24a30.4 30.4 0 0 1 42.9 0l24 24a30.4 30.4 0 0 1 0 42.8l-24 24a30.4 30.4 0 0 1-42.8 0l-24-24a30.4 30.4 0 0 1 0-42.8Zm-57.8-106.7a31.4 31.4 0 0 1 44.4 0l24.9 24.9a31.4 31.4 0 0 1 0 44.3l-25 24.9a31.4 31.4 0 0 1-44.3 0l-24.9-25a31.5 31.5 0 0 1 0-44.2l25-25ZM3779 4330.9a32.1 32.1 0 0 1-45.3 0l-25.5-25.5a32.1 32.1 0 0 1 0-45.3l25.5-25.5a32.1 32.1 0 0 1 45.3 0l25.5 25.5a32.1 32.1 0 0 1 0 45.3l-25.5 25.5Zm100.3-109.6-22.2 22.3a28 28 0 0 1-39.5 0l-22.2-22.3a28 28 0 0 1 0-39.4l22.2-22.2a28 28 0 0 1 39.5 0l22.2 22.2a28 28 0 0 1 0 39.4Zm57 99.3a25.3 25.3 0 0 1-35.6 0l-20-20a25.3 25.3 0 0 1 0-35.7l20-20a25.3 25.3 0 0 1 35.6 0l20 20a25.3 25.3 0 0 1 0 35.6l-20 20Zm-557.8-549.4 28.3-28.3a35.8 35.8 0 0 1 50.4 0l28.3 28.3a35.6 35.6 0 0 1 0 50.4l-28.3 28.3a35.7 35.7 0 0 1-50.4 0l-28.3-28.3a35.6 35.6 0 0 1 0-50.4Zm717.6 566.5a29 29 0 0 1-40.9 0l-23-23a29 29 0 0 1 0-41l23-23a29 29 0 0 1 41 0l23 23a29 29 0 0 1 0 41l-23 23Zm-53.8-116-22.7 22.7c-11 11.1-29.1 11.1-40.2 0l-22.7-22.6c-11-11.1-11-29.2 0-40.3l22.7-22.6c11-11.1 29.2-11.1 40.2 0l22.7 22.6c11 11.1 11 29.2 0 40.3Zm-504-128.6a35.7 35.7 0 0 1-50.4 0l-28.3-28.4a35.6 35.6 0 0 1 0-50.3l28.3-28.4a35.7 35.7 0 0 1 50.4 0l28.3 28.4a35.6 35.6 0 0 1 0 50.3l-28.3 28.4Zm190.5 133.7-28.4 28.4a35.7 35.7 0 0 1-50.3 0l-28.4-28.4a35.7 35.7 0 0 1 0-50.3l28.4-28.4a35.6 35.6 0 0 1 50.3 0l28.4 28.4a35.7 35.7 0 0 1 0 50.3Zm-192 25.4c-13 13-34.4 13-47.5 0l-26.7-26.8c-13-13-13-34.4 0-47.4l26.7-26.7c13-13.1 34.5-13.1 47.5 0l26.7 26.7c13 13 13 34.4 0 47.4l-26.7 26.8Zm82.5 84a35.6 35.6 0 0 1-50.3 0l-28.4-28.3a35.6 35.6 0 0 1 0-50.3l28.4-28.4a35.6 35.6 0 0 1 50.3 0l28.4 28.4a35.7 35.7 0 0 1 0 50.3l-28.4 28.3Zm-78.7-565 28.4-28.3a35.8 35.8 0 0 1 50.3 0l28.4 28.3a35.7 35.7 0 0 1 0 50.4l-28.4 28.3a35.7 35.7 0 0 1-50.3 0l-28.4-28.3a35.6 35.6 0 0 1 0-50.4Zm435.7 57a33 33 0 0 1 46.4 0l26 26a33 33 0 0 1 0 46.4l-26 26a33 33 0 0 1-46.4 0l-26-26a32.9 32.9 0 0 1 0-46.4l26-26ZM3547 4142.8a31.5 31.5 0 0 1 0-44.4l25-25a31.5 31.5 0 0 1 44.4 0l25 25a31.5 31.5 0 0 1 0 44.4l-25 25a31.5 31.5 0 0 1-44.4 0l-25-25Zm265.2-318.9a35.7 35.7 0 0 1 50.4 0l28.3 28.4a35.6 35.6 0 0 1 0 50.3l-28.3 28.4a35.6 35.6 0 0 1-50.4 0l-28.3-28.4a35.7 35.7 0 0 1 0-50.3l28.3-28.4Zm-109.4 109.4 28.3-28.3a35.8 35.8 0 0 1 50.4 0l28.3 28.3a35.6 35.6 0 0 1 0 50.4l-28.3 28.3a35.7 35.7 0 0 1-50.4 0l-28.3-28.3a35.6 35.6 0 0 1 0-50.4Zm-51.8-107.5a34.5 34.5 0 0 1 48.5 0l27.3 27.3a34.5 34.5 0 0 1 0 48.6l-27.3 27.3a34.5 34.5 0 0 1-48.5 0l-27.4-27.3a34.5 34.5 0 0 1 0-48.6l27.4-27.3Zm224.4 112.5 22.8-22.8c11.1-11 29.4-11 40.4 0l22.8 22.8a28.6 28.6 0 0 1 0 40.4l-22.8 22.7a28.6 28.6 0 0 1-40.4 0l-22.8-22.7a28.6 28.6 0 0 1 0-40.4Zm-259.1 67.2a31.4 31.4 0 0 1-44.3 0l-24.9-25a31.4 31.4 0 0 1 0-44.2l25-24.9a31.4 31.4 0 0 1 44.2 0l24.9 25a31.4 31.4 0 0 1 0 44.3l-25 24.8Zm1065.3-186.8a31.6 31.6 0 0 1 0-44.6l25.2-25.2a31.6 31.6 0 0 1 44.6 0l25.1 25.2a31.6 31.6 0 0 1 0 44.6l-25 25.1a31.7 31.7 0 0 1-44.7 0l-25.2-25.1Zm-479.9 77.7-21.2 21.2a26.8 26.8 0 0 1-37.8 0l-21.2-21.2a26.9 26.9 0 0 1 0-37.8l21.2-21.3a26.8 26.8 0 0 1 37.8 0l21.2 21.3a26.8 26.8 0 0 1 0 37.8Zm-667-65 24.4 24.4c12 11.9 12 31.4.1 43.3l-24.4 24.5a30.8 30.8 0 0 1-43.3 0l-24.4-24.4c-12-12-12-31.5 0-43.4l24.4-24.4a30.8 30.8 0 0 1 43.3 0Zm500.6 105.8 24-24a30.2 30.2 0 0 1 42.6 0l24 24a30.2 30.2 0 0 1 0 42.6l-24 24a30.2 30.2 0 0 1-42.7 0l-24-24a30.2 30.2 0 0 1 0-42.6Zm4 121.1-21 21.1a26.6 26.6 0 0 1-37.6 0l-21.1-21.1a26.7 26.7 0 0 1 0-37.6l21.1-21a26.7 26.7 0 0 1 37.6 0l21 21a26.7 26.7 0 0 1 0 37.6Zm-310.5 6.4-28.4 28.4a35.7 35.7 0 0 1-50.3 0l-28.4-28.4a35.7 35.7 0 0 1 0-50.3l28.4-28.4a35.7 35.7 0 0 1 50.3 0l28.4 28.4a35.7 35.7 0 0 1 0 50.3Zm643-164.7-25.4 25.4a32 32 0 0 1-45.2 0l-25.4-25.4a32 32 0 0 1 0-45.2l25.4-25.4a32 32 0 0 1 45.2 0l25.4 25.4a32 32 0 0 1 0 45.2Zm80.5 80.9-25 25a31.7 31.7 0 0 1-44.8 0l-25.1-25a31.7 31.7 0 0 1 0-44.7l25.1-25.1a31.7 31.7 0 0 1 44.7 0l25.1 25a31.7 31.7 0 0 1 0 44.8ZM4344.8 4084a29.8 29.8 0 0 1-42 0l-23.6-23.6a29.8 29.8 0 0 1 0-42l23.6-23.6a29.8 29.8 0 0 1 42 0l23.6 23.6a29.8 29.8 0 0 1 0 42l-23.6 23.6Zm-146.8-27.4-19.3 19.3a24.3 24.3 0 0 1-34.2 0l-19.3-19.3a24.3 24.3 0 0 1 0-34.3l19.3-19.2a24.3 24.3 0 0 1 34.3 0l19.2 19.2a24.3 24.3 0 0 1 0 34.3Zm93-75.5-25.5 25.6a32.2 32.2 0 0 1-45.4 0l-25.6-25.6a32.2 32.2 0 0 1 0-45.4l25.6-25.6a32.2 32.2 0 0 1 45.4 0l25.5 25.6a32.2 32.2 0 0 1 0 45.4ZM3881 4060l-23 23a29 29 0 0 1-41 0l-23-23a29 29 0 0 1 0-41l23-23a29 29 0 0 1 41 0l23 23a29 29 0 0 1 0 41Zm-100.7 111.5a34 34 0 0 1-47.8 0l-27-27a34 34 0 0 1 0-47.8l27-27a34 34 0 0 1 47.8 0l27 27a34 34 0 0 1 0 47.9l-27 26.9Zm321.7-5.6a30.3 30.3 0 0 1-42.7 0l-24-24a30.2 30.2 0 0 1 0-42.6l24-24a30.3 30.3 0 0 1 42.7 0l24 24a30.3 30.3 0 0 1 0 42.6l-24 24Zm-162 .4a30.5 30.5 0 0 1-43 0l-24.1-24.2a30.4 30.4 0 0 1 0-43l24.1-24.1a30.5 30.5 0 0 1 43 0l24.2 24.2a30.5 30.5 0 0 1 0 43l-24.2 24.1Zm596.9-265-27 27a34 34 0 0 1-47.8 0l-26.9-27a33.9 33.9 0 0 1 0-47.8l27-26.9a34 34 0 0 1 47.8 0l26.9 27a33.9 33.9 0 0 1 0 47.8Zm-29.7 345.5a30 30 0 0 1-42.4 0l-23.9-23.9a30 30 0 0 1 0-42.4l23.9-23.9a30 30 0 0 1 42.4 0l23.9 23.9a30 30 0 0 1 0 42.4l-23.9 23.9Zm-1131.5-641.4a34.9 34.9 0 0 1-49.2 0l-27.7-27.6a34.8 34.8 0 0 1 0-49.2l27.7-27.6a34.9 34.9 0 0 1 49.2 0l27.6 27.6a34.8 34.8 0 0 1 0 49.2l-27.6 27.6Zm345.9 736.6c12 12 12 31.6 0 43.5l-24.5 24.6a31 31 0 0 1-43.6 0l-24.5-24.6c-12-12-12-31.6 0-43.5l24.5-24.5c12-12 31.6-12 43.6 0l24.5 24.5Zm141-31.8 28.4 28.4a35.7 35.7 0 0 1 0 50.3l-28.3 28.4a35.7 35.7 0 0 1-50.4 0l-28.3-28.4a35.7 35.7 0 0 1 0-50.3l28.3-28.4a35.6 35.6 0 0 1 50.4 0Zm-131.4 81.2a35.6 35.6 0 0 1 50.4 0l28.3 28.3a35.6 35.6 0 0 1 0 50.3l-28.3 28.4a35.6 35.6 0 0 1-50.4 0l-28.3-28.4a35.6 35.6 0 0 1 0-50.3l28.3-28.3Zm-192.8-81.2 28.3 28.4a35.6 35.6 0 0 1 0 50.3l-28.3 28.4a35.7 35.7 0 0 1-50.4 0l-28.4-28.4a35.6 35.6 0 0 1 0-50.3l28.4-28.4a35.6 35.6 0 0 1 50.3 0Zm360.1 92.1c11-11 29-11 40 0l22.6 22.6c11 11 11 29 0 40l-22.5 22.5c-11 11-29 11-40 0l-22.6-22.5c-11-11-11-29 0-40l22.5-22.6Zm-605-555.9c-12.9 13-34.1 13-47 0l-26.5-26.4c-13-13-13-34.2 0-47.1l26.4-26.5c13-13 34.2-13 47.2 0l26.5 26.4c12.9 13 12.9 34.2 0 47.1l-26.5 26.5Zm82.7-77.6a35.6 35.6 0 0 1-50.3 0l-28.3-28.3a35.6 35.6 0 0 1 0-50.3l28.3-28.4a35.6 35.6 0 0 1 50.4 0l28.3 28.4a35.6 35.6 0 0 1 0 50.3l-28.4 28.3Zm-129.8 463.8c13-13 34.2-13 47.2 0l26.6 26.5c13 13 13 34.3 0 47.2l-26.6 26.6c-13 13-34.2 13-47.2 0l-26.6-26.6c-13-13-13-34.2 0-47.2l26.6-26.5Zm155.5-54.9a33.9 33.9 0 0 1 0 47.9l-26.9 26.8a33.9 33.9 0 0 1-47.8 0l-26.9-26.8a33.9 33.9 0 0 1 0-47.9l26.9-26.8a33.9 33.9 0 0 1 47.8 0l26.9 26.8Zm78.3 82.4a32 32 0 0 1 0 45.3l-25.4 25.4a32 32 0 0 1-45.3 0l-25.4-25.4a32 32 0 0 1 0-45.3l25.4-25.4a32 32 0 0 1 45.3 0l25.4 25.4Zm805.7-119.2-22.8 22.9a28.8 28.8 0 0 1-40.6 0l-22.8-22.9a28.8 28.8 0 0 1 0-40.5l22.8-22.8a28.8 28.8 0 0 1 40.6 0l22.8 22.8a28.7 28.7 0 0 1 0 40.6Zm138.8 100 22.2 22.1a28 28 0 0 1 0 39.4l-22.2 22.3a28 28 0 0 1-39.4 0l-22.2-22.3a28 28 0 0 1 0-39.4l22.2-22.2a28 28 0 0 1 39.4 0Zm123.8 2.3a26.4 26.4 0 0 1 37.2 0l21 21a26.4 26.4 0 0 1 0 37.2l-21 20.9a26.4 26.4 0 0 1-37.2 0l-21-21a26.4 26.4 0 0 1 0-37.2l21-21Zm-83.1 76.7a29.3 29.3 0 0 1 41.3 0l23.2 23.2a29.3 29.3 0 0 1 0 41.3l-23.2 23.3a29.3 29.3 0 0 1-41.3 0l-23.2-23.3a29.3 29.3 0 0 1 0-41.3l23.2-23.2Zm287.6-412 26.9 26.8a33.8 33.8 0 0 1 0 47.7l-26.9 26.8a33.8 33.8 0 0 1-47.6 0l-26.8-26.8a33.8 33.8 0 0 1 0-47.7l26.8-26.8a33.8 33.8 0 0 1 47.6 0Zm-128.4 243.6c13-13 34.2-13 47.2 0l26.5 26.6c13 13 13 34.2 0 47.2l-26.5 26.5c-13 13-34.2 13-47.2 0l-26.6-26.5c-13-13-13-34.2 0-47.2l26.6-26.6Zm-564 241.1a17 17 0 0 1 24 0l13.6 13.5a17 17 0 0 1 0 24.1l-13.6 13.6a17 17 0 0 1-24 0l-13.6-13.6a17 17 0 0 1 0-24l13.5-13.6Zm242.9-72.2a29 29 0 0 1 40.8 0l23 23a29 29 0 0 1 0 40.8l-23 23a29 29 0 0 1-40.8 0l-23-23a29 29 0 0 1 0-40.8l23-23Zm-169.8-9a39.8 39.8 0 0 1 56.1 0l31.6 31.6a39.8 39.8 0 0 1 0 56l-31.6 31.6a39.8 39.8 0 0 1-56 0l-31.6-31.5a39.8 39.8 0 0 1 0-56.1l31.5-31.6Zm-107.9 11 24.3 24.3a30.6 30.6 0 0 1 0 43.2l-24.3 24.4a30.6 30.6 0 0 1-43.2 0l-24.3-24.4a30.6 30.6 0 0 1 0-43.2l24.3-24.3a30.6 30.6 0 0 1 43.2 0Zm237.4-83 23 23a28.9 28.9 0 0 1 0 40.7l-23 23a29 29 0 0 1-40.8 0l-23-23a28.9 28.9 0 0 1 0-40.8l23-23a29 29 0 0 1 40.8 0ZM3572.6 4399a30.6 30.6 0 0 1 43.2 0l24.2 24.3a30.6 30.6 0 0 1 0 43.1l-24.3 24.2a30.6 30.6 0 0 1-43 0l-24.3-24.2a30.6 30.6 0 0 1 0-43.1l24.2-24.3ZM4672 3766.1a33.9 33.9 0 0 1-47.8 0l-27-27a33.9 33.9 0 0 1 0-47.7l27-27a33.9 33.9 0 0 1 47.8 0l27 27a33.9 33.9 0 0 1 0 47.8l-27 27Zm-211.2-104.3a35.6 35.6 0 0 1 50.3 0l28.4 28.4a35.6 35.6 0 0 1 0 50.3l-28.4 28.3a35.6 35.6 0 0 1-50.3 0l-28.4-28.3a35.6 35.6 0 0 1 0-50.3l28.4-28.4Zm55.2 158.5a34 34 0 0 1 0-48l27-27a34 34 0 0 1 48 0l27 27a34 34 0 0 1 0 48l-27 27a34 34 0 0 1-48 0l-27-27Zm-135.2-135-27-27a34.1 34.1 0 0 1 0-48.1l27-27a34.1 34.1 0 0 1 48.1 0l27.1 27a34.1 34.1 0 0 1 0 48.1l-27 27a34.1 34.1 0 0 1-48.2 0Zm129-81.1a34 34 0 0 1-47.9 0l-27-27a34 34 0 0 1 0-48l27-27a34 34 0 0 1 48 0l27 27a34 34 0 0 1 0 48l-27 27Zm-59.8 537.7-23.9 23.9a30.2 30.2 0 0 1-42.5 0l-24-24a30.2 30.2 0 0 1 0-42.4l24-24a30.1 30.1 0 0 1 42.5 0l24 24a30.2 30.2 0 0 1 0 42.5Zm-106-545.7a28.7 28.7 0 0 1-40.5 0l-22.7-22.7a28.8 28.8 0 0 1 0-40.6l22.7-22.7a28.7 28.7 0 0 1 40.5 0l22.8 22.7a28.8 28.8 0 0 1 0 40.6l-22.8 22.7ZM4696 3900l-25.3 25.3a32 32 0 0 1-45 0l-25.3-25.3a31.8 31.8 0 0 1 0-45l25.3-25.3a31.8 31.8 0 0 1 45 0l25.3 25.3a31.8 31.8 0 0 1 0 45Zm-348.6 351.5a33.3 33.3 0 0 1-47 0l-26.3-26.4a33.3 33.3 0 0 1 0-46.9l26.4-26.3c12.9-13 34-13 46.9 0l26.4 26.3a33.3 33.3 0 0 1 0 47l-26.4 26.3Zm161-259.5 25.1 25.2a31.7 31.7 0 0 1 0 44.7l-25.1 25.2a31.8 31.8 0 0 1-44.8 0l-25.2-25.2a31.8 31.8 0 0 1 0-44.7l25.2-25.2a31.8 31.8 0 0 1 44.8 0Zm106.9-10.8-25.5 25.5a32.2 32.2 0 0 1-45.4 0l-25.5-25.5a32.2 32.2 0 0 1 0-45.4l25.5-25.5a32.2 32.2 0 0 1 45.4 0l25.5 25.5a32.2 32.2 0 0 1 0 45.4Zm-429.3-376.5a34.4 34.4 0 0 1-48.5 0l-27.3-27.2a34.4 34.4 0 0 1 0-48.5l27.3-27.3a34.4 34.4 0 0 1 48.5 0l27.2 27.3a34.4 34.4 0 0 1 0 48.5l-27.2 27.2Zm-486.8-.9a33.8 33.8 0 0 1-47.7 0l-26.8-26.8a33.8 33.8 0 0 1 0-47.6l26.8-26.8a33.8 33.8 0 0 1 47.7 0l26.8 26.8a33.8 33.8 0 0 1 0 47.6l-26.8 26.8Zm3.7 55.6a35.6 35.6 0 0 1 0-50.3l28.3-28.3a35.7 35.7 0 0 1 50.4 0l28.3 28.3a35.6 35.6 0 0 1 0 50.3l-28.3 28.3a35.7 35.7 0 0 1-50.4 0l-28.3-28.3Zm-165.7-55.1a34.1 34.1 0 0 1-48 0l-27-27a34.1 34.1 0 0 1 0-48.2l27-27a34.1 34.1 0 0 1 48 0l27 27a34.1 34.1 0 0 1 0 48.1l-27 27Zm323.8-1.2c-13 13-34.1 13-47 0l-26.5-26.4c-13-13-13-34 0-47l26.4-26.4c13-13 34.1-13 47 0l26.5 26.4c13 13 13 34 0 47l-26.4 26.4Zm335.8 52.8a30.8 30.8 0 0 1 0-43.3l24.3-24.3a30.8 30.8 0 0 1 43.4 0l24.3 24.3a30.8 30.8 0 0 1 0 43.3l-24.3 24.4a30.8 30.8 0 0 1-43.4 0l-24.3-24.4Zm-648.3-.1a30.5 30.5 0 0 1 0-43l24.2-24.3a30.5 30.5 0 0 1 43 0l24.3 24.2a30.5 30.5 0 0 1 0 43l-24.2 24.3a30.5 30.5 0 0 1-43 0l-24.3-24.2Zm319 2.5a34.1 34.1 0 0 1 0-48.1l27-27a34.1 34.1 0 0 1 48 0l27.1 27a34.1 34.1 0 0 1 0 48.1l-27 27a34.1 34.1 0 0 1-48.1 0l-27-27Zm-488.9 1a35.7 35.7 0 0 1 0-50.3l28.4-28.3a35.7 35.7 0 0 1 50.3 0l28.4 28.4a35.6 35.6 0 0 1 0 50.3l-28.4 28.3a35.7 35.7 0 0 1-50.3 0l-28.4-28.3Zm679.6 22.6-25.2-25.2a31.8 31.8 0 0 1 0-44.8l25.2-25.3a31.8 31.8 0 0 1 45 0l25.1 25.3a31.8 31.8 0 0 1 0 44.8L4103 3682a31.8 31.8 0 0 1-44.9 0Zm-35.8-80.3a32.3 32.3 0 0 1-45.6 0L3951 3576a32.3 32.3 0 0 1 0-45.6l25.7-25.7a32.3 32.3 0 0 1 45.6 0l25.6 25.7a32.3 32.3 0 0 1 0 45.6l-25.6 25.7Z" fill="currentColor"/>
</svg>
