<svg xmlns="http://www.w3.org/2000/svg" fill="none" viewBox="0 0 2966 2283"><path fill="#0F69AF" fill-rule="evenodd" d="M1893 251s-2-147 88-172l287-77s89-25 91 123l3 342s1 148-65 166c0 0-24 6-46 2l-252-46s-91-1-93-149l-13-189zm-387-65c36 15 69 35 59 68l-31 114c-7 26-33 42-90 22l-165-68c-61-25-65-57-45-77l81-86c30-32 47-31 99-10l33 13 59 24zm-52 1183c36 16 69 35 59 69l-31 113c-7 27-33 43-90 22l-165-68c-61-25-65-56-45-77l81-86c30-32 47-30 99-9l32 12 1 1 59 23zm65-707c-24-25-58-7-89 17l-77 61c-44 35-54 49-41 91l34 113c8 28 37 39 89 0l141-110c46-39 45-70 26-89-27-25-83-83-83-83zm-793 33c-50-9-97-8-109 34l-42 143c-10 33 8 67 82 82l223 37c82 13 107-18 100-53l-31-146c-11-55-30-64-100-76l-123-21zm1082 386c12-42 60-42 110-34l122 21c70 12 89 22 101 76l30 146c8 36-18 66-99 54l-224-37c-74-15-91-50-81-83 14-44 41-143 41-143zM353 474c50-6 95-20 95-64 0 0-2-102-1-148 0-35-26-63-101-56l-225 27c-82 11-98 48-80 80l70 131c27 49 48 53 118 45l124-15zM57 1123c8 26 46 25 85 18l98-17c56-10 71-17 82-51l30-93c7-23-12-41-77-31L98 980c-60 12-75 34-68 54l27 89zm68 636c-39-11-73-26-69-53 0 0 10-63 13-92 3-21 26-35 85-20l173 48c64 18 73 43 57 61l-67 71c-25 27-42 26-96 11l-96-26zm12-524c17-59 83-59 153-47l171 29c98 17 124 30 141 106l42 205c11 49-25 92-139 74-87-13-312-51-312-51-103-21-128-70-114-116 20-62 58-200 58-200zm1854-609c-73-12-142-11-160 50 0 0-40 143-60 208-14 48 11 99 119 121l325 53c119 19 157-26 145-77l-44-214c-17-79-45-93-146-110l-12-2h-1l-166-29zM483 569c-19-55-84-53-151-41l-166 32C72 578 47 592 34 663L1 856c-8 47 29 86 139 67l301-57c100-22 122-68 106-111l-64-186zm1114 748s-89 56-132-3l-140-186s-44-59 44-115l205-130s88-55 121-12c0 0 11 15 16 34l54 207s29 69-59 124l-109 81zM873 563c-16 83 106 135 106 135l160 57c121 52 158-24 158-24l137-192c13-18 17-39 17-39 11-62-110-114-110-114l-280-120c-122-52-137 31-137 31l-51 266zm-96 1224s88 73 48 138l-125 210s-40 66-128-7l-204-169s-88-73-59-122c0 0 10-17 26-28l178-127s55-54 143 18l121 87zm1352-34c10 89 153 117 153 117l186 24c143 28 157-57 157-57l82-227c8-20 5-43 5-43-8-65-151-93-151-93l-331-65c-144-27-133 61-133 61l32 283zm-426-403s-131 3-148 86l-54 265s-17 83 115 81l306-6s131-2 144-64c0 0 4-21-1-42l-55-230s-5-84-137-82l-170-8zm-838 421c-16 84 105 136 105 136l160 56c121 52 158-23 158-23l138-193c12-17 16-39 16-39 12-61-109-113-109-113l-281-121c-121-52-137 31-137 31l-50 266zm1693-703s-147 13-166-88l-60-322s-19-101 128-115l342-31s148-14 162 61c0 0 5 26-1 52l-61 293s-6 105-154 118l-190 32zm-285 855c-37-87-203-93-203-93l-212 4c-167-5-157 82-157 82l-25 239c-2 21 8 44 8 44 27 64 193 70 193 70l386 13c166 6 129-81 129-81l-119-278zM678 1396c27 58 114 27 114 27l109-49c87-32 74-96 74-96l-9-187c-1-17-8-32-8-32-20-43-107-11-107-11l-201 73c-87 32-59 90-59 90l87 185zm1852 36s111 10 113-52l7-195s2-62-109-71l-257-22s-111-9-113 36c0 0-1 16 6 32l80 179s17 63 128 73l145 20zM1666 338c-60-23-101 60-101 60l-45 111c-41 82 13 120 13 120l135 129c12 11 28 17 28 17 44 17 85-66 85-66l95-192c41-82-19-105-19-105l-191-74zM493 410s-9-92 54-104l201-39s63-12 72 80l22 213s9 92-38 101c0 0-16 3-33 0l-183-37s-65-12-75-96l-20-118zm734 710c-27-34-89 2-89 2l-77 52c-62 36-46 77-46 77l26 124c3 11 10 20 10 20 19 25 81-11 81-11l145-84c62-36 35-70 35-70l-85-110zm69-152s7 71-41 80l-155 31s-48 9-55-61l-17-164s-7-70 28-77c0 0 13-2 25 0l141 28s50 2 57 73l17 90zm-249 1231c51 3 58-60 58-60l3-84c7-64-43-78-43-78l-135-58c-13-6-26-6-26-6-37-3-45 61-45 61l-17 148c-7 63 43 67 43 67l162 10zm617-176s-7 71-56 70l-157-1s-49-1-42-71l16-164s7-70 44-70c0 0 12 0 24 5l132 56s49 13 42 83l-3 92zm-985-368c-36-17-19-75-19-75l26-74c17-58 56-52 56-52l113 1c10 0 19 4 19 4 27 13 10 71 10 71l-38 135c-17 58-53 42-53 42l-114-52zm636 545s61-2 65-42l15-125s4-39-56-36l-141 5s-60 2-64 31c0 0-1 10 2 20l35 107s5 40 66 37l78 3zM594 986c32 22 5 77 5 77l-40 68c-27 54-64 40-64 40l-111-21c-10-2-18-8-18-8-24-17 3-71 3-71l63-126c27-54 59-32 59-32l103 73z" clip-rule="evenodd"/></svg>
