<svg xmlns="http://www.w3.org/2000/svg" width="24" height="24" fill="none" viewBox="0 0 24 24"><path fill="currentcolor" fill-rule="evenodd" d="M11.723 4c-3.089 0-8.14.778-8.693 5.716a.476.476 0 0 0 .483.522h16.42a.476.476 0 0 0 .483-.522C19.862 4.778 14.812 4 11.723 4Zm1.353 2.795a.5.5 0 0 1 .708 0l1.292 1.293a.5.5 0 1 1-.707.707l-1.293-1.293a.5.5 0 0 1 0-.707Zm-5.157.359a.5.5 0 0 0-.793-.609L6.027 7.976a.5.5 0 1 0 .794.61l1.098-1.432Zm10.157.573a.5.5 0 0 1 0 .707l-.292.293a.5.5 0 1 1-.707-.707l.292-.293a.5.5 0 0 1 .707 0Zm-7.237.481a.5.5 0 0 0-.917.399l.165.38a.5.5 0 0 0 .917-.399l-.165-.38ZM9.731 6.673a.5.5 0 0 1 .089-.701l1.58-1.227a.5.5 0 1 1 .613.79l-1.58 1.227a.5.5 0 0 1-.702-.089Zm11.047 4.34H2.649c-.416.02-.605.303-.643.586-.019.17 0 .36.114.51a.228.228 0 0 0 .094.095h.02a.754.754 0 0 0 .245.132h.019a3.547 3.547 0 0 0 2.42 0c.245-.094.51-.15.775-.188.226-.038.453-.057.68-.057.227 0 .473.019.7.057.235.033.455.097.686.163l.089.025a3.494 3.494 0 0 0 2.4 0l.087-.026c.213-.067.415-.13.632-.162a4.483 4.483 0 0 1 1.588.018c.208.038.415.095.623.17a3.494 3.494 0 0 0 2.401 0c.17-.056.322-.094.492-.132a4.256 4.256 0 0 1 1.89-.019c.19.038.378.095.548.151a3.493 3.493 0 0 0 2.401 0l.038-.018c.416-.133.51-.492.472-.756a.67.67 0 0 0-.264-.454.6.6 0 0 0-.378-.114v.02ZM22 14.517c0-.789-.567-1.248-1.248-1.248h-3.95l-2.382-.018H3s-1 .018-1 1.266S3 16 3 16h17.809S22 16 22 14.517ZM3.918 18.822a17.139 17.139 0 0 0-.406-.789.061.061 0 0 0-.004-.019c-.004-.012-.008-.025.004-.038a1.501 1.501 0 0 1-.189-.51v-.019l-.01-.037a.636.636 0 0 1-.028-.17c-.019-.058-.019-.133-.019-.209v-.472H7.18l.964.831.113.057.033.012c.04.014.073.026.118.026.038 0 .076 0 .114-.019.056-.019.113-.038.15-.076l.776-.68.189-.151h11.096v.472c0 1.079-.62 1.84-.72 1.954a.204.204 0 0 1-.028.028C19.838 19.13 18.528 20 12 20c-5.59 0-7.353-.638-7.837-.895a.591.591 0 0 1-.245-.283Z" clip-rule="evenodd"/></svg>