<svg width="24" height="24" fill="none" xmlns="http://www.w3.org/2000/svg"><path fill-rule="evenodd" clip-rule="evenodd" d="M9.404 4.424a.571.571 0 1 0 .808.808l1.616-1.616 1.616 1.616a.571.571 0 0 0 .808-.808l-2.02-2.02a.571.571 0 0 0-.808 0l-2.02 2.02zM6.588 9.959a.438.438 0 0 1 .003-.74l4.926-3.075a.437.437 0 0 1 .463 0l4.93 3.075c.273.17.275.568.003.74l-4.93 3.125a.438.438 0 0 1-.469 0L6.588 9.96zM6.2 16.633A.437.437 0 0 1 6 16.264v-5.218c0-.345.38-.554.672-.37l4.594 2.91c.127.08.204.22.204.37v5.256a.438.438 0 0 1-.674.368l-4.595-2.947zm5.828 2.579c0 .346.383.555.674.368l4.595-2.947a.437.437 0 0 0 .201-.369v-5.218a.438.438 0 0 0-.672-.37l-4.594 2.91a.437.437 0 0 0-.204.37v5.256zM7 20.428a.571.571 0 0 1-.571.571H3.571A.571.571 0 0 1 3 20.428V17.57a.571.571 0 1 1 1.143 0v2.286h2.285c.316 0 .571.255.571.57zm14-2.857a.571.571 0 0 0-1.142 0v2.286H17.57a.571.571 0 1 0 0 1.142h2.857a.571.571 0 0 0 .571-.571V17.57z" fill="currentcolor"/></svg>