<svg viewBox="0 0 24 24" fill="none" xmlns="http://www.w3.org/2000/svg"><path fill-rule="evenodd" clip-rule="evenodd" d="M12.0718 15.8836c-1.1367 0-2.0582.9215-2.0582 2.0582 0 1.1367.9215 2.0582 2.0582 2.0582 1.1367 0 2.0582-.9215 2.0582-2.0582 0-1.1367-.9215-2.0582-2.0582-2.0582Zm1.4174-11.2428C13.0621 4.2136 12.4722 4 11.7195 4h-1.4341c-.2847 0-.4271.122-.4271.3661v7.0484c0 .7527.2135 1.3426.6407 1.7697.4272.4272 1.0171.6408 1.7697.6408h1.4341c.2848 0 .4272-.122.4272-.3661V6.4105c0-.7527-.2136-1.3426-.6408-1.7697Z" fill="currentcolor"/></svg>