<svg width="24" height="24" fill="none" xmlns="http://www.w3.org/2000/svg"><path fill-rule="evenodd" clip-rule="evenodd" d="M14.48 3a1 1 0 0 0-1-1h-2.96a1 1 0 0 0-1 1v7.123c0 .715.044 1.424.131 2.127.055.441.122.888.199 1.34a.98.98 0 0 0 .97.81h2.36a.98.98 0 0 0 .97-.81c.077-.452.143-.899.198-1.34.088-.703.132-1.412.132-2.127V3zM9.6 18.381c-.134.314-.2.654-.2 1.019 0 .365.066.707.2 1.026a2.502 2.502 0 0 0 1.366 1.376c.315.132.66.198 1.034.198a2.615 2.615 0 0 0 1.847-.745 2.5 2.5 0 0 0 .553-.829c.133-.319.2-.661.2-1.026s-.067-.704-.2-1.019a2.52 2.52 0 0 0-.553-.82 2.693 2.693 0 0 0-.828-.556A2.53 2.53 0 0 0 12 16.8a2.568 2.568 0 0 0-2.4 1.581z" fill="currentcolor"/></svg>