<svg xmlns="http://www.w3.org/2000/svg" width="24" height="24" fill="none" viewBox="0 0 24 24"><path fill="currentcolor" fill-rule="evenodd" d="M9.685 14.119a.49.49 0 0 0 .402.4c5.05.835 8.748-.277 8.951-.343l.397-.397a6.504 6.504 0 0 0 0-9.186 6.505 6.505 0 0 0-9.186 0l-.226.226c-.137.466-1.192 4.25-.338 9.3Zm8.15-7.926a4.116 4.116 0 0 1 0 5.815 4.116 4.116 0 0 1-5.815 0 4.116 4.116 0 0 1 0-5.815 4.116 4.116 0 0 1 5.815 0ZM3.118 12.194a23.34 23.34 0 0 0 5.232 1.967.25.25 0 0 0 .304-.283 24.228 24.228 0 0 1-.067-6.96c.034-.243-.266-.397-.439-.224l-3.983 3.983a6.382 6.382 0 0 0-1.114 1.499.691.691 0 0 0 .02.005c.016.003.032.007.047.013Zm11.677-3.983a.418.418 0 0 1-.043.138.478.478 0 0 1-.064.127l-.01.015c-.028.036-.052.07-.085.102a.79.79 0 0 1-.531.223.75.75 0 0 1-.69-.467.775.775 0 0 1-.065-.287.79.79 0 0 1 .224-.53c.033-.034.066-.059.102-.086l.014-.01a.478.478 0 0 1 .128-.064.418.418 0 0 1 .138-.043c.035-.012.074-.015.11-.018.014 0 .026-.002.039-.003.1.005.19.021.287.064.09.037.175.09.244.16a.776.776 0 0 1 .223.53c-.006.048-.01.096-.021.149Zm1.969 1.97a.415.415 0 0 1-.043.137.476.476 0 0 1-.063.128l-.011.014a.882.882 0 0 1-.085.102.79.79 0 0 1-.531.224.75.75 0 0 1-.69-.468.776.776 0 0 1-.064-.287.79.79 0 0 1 .223-.53c.033-.034.066-.058.102-.086l.015-.01a.478.478 0 0 1 .127-.064.418.418 0 0 1 .138-.043c.036-.011.074-.014.11-.017l.039-.004c.1.006.191.021.287.064.09.037.175.09.244.16a.776.776 0 0 1 .223.53c-.005.048-.01.096-.021.15ZM2.678 13.036c6.505 3.372 12.369 2.914 15.084 2.416l-4.41 4.41a6.505 6.505 0 0 1-9.186 0c-1.845-1.845-2.34-4.532-1.497-6.835l.01.01Zm10.723-1.929a.5.5 0 0 0 .707-.707l-.593-.593a.5.5 0 1 0-.707.707l.593.593Z" clip-rule="evenodd"/></svg>