<svg xmlns="http://www.w3.org/2000/svg" width="24" height="24" fill="none" viewBox="0 0 24 24"><path fill="currentcolor" fill-rule="evenodd" d="M3 12a9 9 0 1 0 18 0 9 9 0 0 0-18 0Zm9-10C6.477 2 2 6.477 2 12s4.477 10 10 10 10-4.477 10-10S17.523 2 12 2Zm-8 9.5A7.5 7.5 0 0 1 11.5 4h1a7.5 7.5 0 0 1 7.5 7.5v1a7.5 7.5 0 0 1-7.5 7.5h-1A7.5 7.5 0 0 1 4 12.5v-1ZM15 7a1 1 0 1 1-2 0 1 1 0 0 1 2 0Zm-5.755.703c1.094.08 2.008.9 2.241 2.01l.06.28c.057.276.319.451.584.393a.506.506 0 0 0 .375-.603l-.059-.282C12.12 7.947 10.84 6.8 9.31 6.688l-.277-.02a.494.494 0 0 0-.522.472.506.506 0 0 0 .458.543l.277.02Zm7.222 1.228a.486.486 0 0 1 .635.293l1.047 2.948a.514.514 0 0 1-.3.65.486.486 0 0 1-.634-.293L16.166 9.58a.514.514 0 0 1 .3-.65ZM5 10.5a.5.5 0 0 1 .5-.5h3a.5.5 0 0 1 0 1h-3a.5.5 0 0 1-.5-.5Zm5.5 7.25a2.5 2.5 0 0 1 3 0l.2.15a.5.5 0 0 0 .6-.8l-.2-.15a3.5 3.5 0 0 0-4.2 0l-.2.15a.5.5 0 0 0 .6.8l.2-.15Zm3.525-4.967a3.5 3.5 0 0 1-3.207.814l-.045-.011a.5.5 0 1 1 .24-.97l.046.01a2.5 2.5 0 0 0 2.29-.581l.18-.164a.5.5 0 1 1 .675.738l-.18.164ZM16 16a1 1 0 1 0 0-2 1 1 0 0 0 0 2Zm-8-2a1 1 0 1 1-2 0 1 1 0 0 1 2 0Z" clip-rule="evenodd"/></svg>