<svg width="24" height="24" fill="none" xmlns="http://www.w3.org/2000/svg"><path fill-rule="evenodd" clip-rule="evenodd" d="M18.506 8.744a.872.872 0 0 0 1.237 0 .874.874 0 0 0 0-1.238l-5.25-5.25a.874.874 0 1 0-1.236 1.238l5.25 5.25zM2 11.42a.99.99 0 0 1 .916-.992C4.763 10.291 9.016 10 12 10s7.237.291 9.084.43a.99.99 0 0 1 .916.991v.079a1 1 0 0 1-1 1h-.3l-1.472 7.362c-.141.704-.648 1.277-1.346 1.444A25.706 25.706 0 0 1 12 22c-2.529 0-4.658-.4-5.882-.694-.698-.167-1.205-.74-1.346-1.444L3.3 12.5H3a1 1 0 0 1-1-1v-.079zM4.875 9a.873.873 0 0 0 .619-.256l5.25-5.25a.874.874 0 1 0-1.238-1.237l-5.25 5.25A.874.874 0 0 0 4.877 9zM7.5 13a.5.5 0 0 0-.5.5v5a.5.5 0 0 0 .5.5h1a.5.5 0 0 0 .5-.5v-5a.5.5 0 0 0-.5-.5h-1zm3.5.5a.5.5 0 0 1 .5-.5h1a.5.5 0 0 1 .5.5v5a.5.5 0 0 1-.5.5h-1a.5.5 0 0 1-.5-.5v-5zm4.5-.5a.5.5 0 0 0-.5.5v5a.5.5 0 0 0 .5.5h1a.5.5 0 0 0 .5-.5v-5a.5.5 0 0 0-.5-.5h-1z" fill="currentcolor"/></svg>