<svg width="24" height="24" fill="none" xmlns="http://www.w3.org/2000/svg"><path fill-rule="evenodd" clip-rule="evenodd" d="M9.29 5h5.535c1.195 0 2.022.765 2.133 1.702.159 1.337.292 3.112.292 5.298s-.134 3.96-.292 5.298c-.111.937-.938 1.702-2.133 1.702H9.29c-1.228 0-2.12-.813-2.24-1.823A44.222 44.222 0 0 1 6.75 12c0-2.04.137-3.803.3-5.177C7.17 5.813 8.062 5 9.29 5zm-.27 15.742c-1.891-.118-3.482-1.456-3.708-3.359A45.975 45.975 0 0 1 5 12c0-2.117.142-3.95.312-5.383.226-1.903 1.817-3.241 3.707-3.359A1.5 1.5 0 0 1 10.5 2h3a1.5 1.5 0 0 1 1.48 1.253c1.887.067 3.492 1.355 3.716 3.243C18.862 7.9 19 9.743 19 12c0 2.257-.138 4.101-.304 5.504-.224 1.888-1.83 3.176-3.716 3.243A1.5 1.5 0 0 1 13.5 22h-3a1.5 1.5 0 0 1-1.48-1.258z" fill="currentcolor"/></svg>