<svg viewBox="0 0 24 24" fill="none" xmlns="http://www.w3.org/2000/svg"><path fill-rule="evenodd" clip-rule="evenodd" d="M9.2909 5h5.534c1.1949 0 2.0221.7648 2.1332 1.702.1584 1.3372.2919 3.1121.2919 5.298 0 2.1858-.1335 3.9608-.2919 5.298-.1111.9372-.9383 1.702-2.1332 1.702h-5.534c-1.2285 0-2.1212-.8129-2.241-1.8228C6.8872 15.8029 6.75 14.0396 6.75 12s.1371-3.8029.3-5.1772C7.1697 5.813 8.0624 5 9.2909 5Zm-.2715 15.7416c-1.8904-.1175-3.4817-1.4554-3.7073-3.3585C5.1423 15.9499 5 14.1172 5 12s.1423-3.9499.3121-5.3831c.2256-1.9031 1.8168-3.241 3.7072-3.3585C9.135 2.5448 9.7538 2 10.5 2h3c.7442 0 1.3618.542 1.4797 1.2527 1.8871.067 3.4925 1.355 3.7162 3.2434C18.8622 7.8991 19 9.7428 19 12c0 2.2572-.1378 4.101-.3041 5.5039-.2237 1.8883-1.8291 3.1764-3.7162 3.2434C14.8618 21.458 14.2442 22 13.5 22h-3c-.7462 0-1.3651-.5448-1.4806-1.2584Z" fill="currentcolor"/></svg>