<svg viewBox="0 0 24 24" fill="none" xmlns="http://www.w3.org/2000/svg"><path fill-rule="evenodd" clip-rule="evenodd" d="M10.4991 5H9.2909c-1.2285 0-2.1212.813-2.241 1.8228C6.8872 8.1971 6.75 9.9604 6.75 12s.1371 3.8029.3 5.1772C7.1697 18.1871 8.0624 19 9.2909 19H14.8249c1.1949 0 2.0221-.7648 2.1332-1.702.1584-1.3372.2919-3.1122.2919-5.298 0-2.1859-.1335-3.9608-.2919-5.298C16.847 5.7648 16.0198 5 14.8249 5h-4.3258Zm-5.187 12.3831c.2256 1.9031 1.8169 3.241 3.7073 3.3585C9.1349 21.4552 9.7538 22 10.5 22h3c.7442 0 1.3618-.542 1.4797-1.2527 1.8871-.067 3.4925-1.3551 3.7162-3.2434C18.8622 16.101 19 14.2572 19 12c0-2.2572-.1378-4.101-.3041-5.5039-.2237-1.8883-1.8291-3.1764-3.7162-3.2434C14.8618 2.542 14.2442 2 13.5 2h-3c-.7462 0-1.3651.5448-1.4807 1.2584C7.129 3.376 5.5377 4.7138 5.3121 6.617 5.1423 8.0501 5 9.8828 5 12s.1423 3.9499.3121 5.3831ZM8.256 9.1666c.133.2295.393.3334.6582.3334h6.2101c.2422 0 .4818-.0868.6091-.2928.1303-.211.2666-.533.2666-.9572 0-.4243-.1363-.7463-.2666-.9572-.1273-.206-.3669-.2928-.6091-.2928h-6.21c-.2653 0-.5254.1039-.6583.3334C8.129 7.5526 8 7.869 8 8.25s.129.6974.256.9166Zm.6582 4.0834c-.2652 0-.5253-.1039-.6582-.3334C8.129 12.6974 8 12.381 8 12s.129-.6974.256-.9166c.133-.2295.393-.3334.6582-.3334h6.2101c.2422 0 .4818.0868.6091.2928.1303.2109.2666.5329.2666.9572s-.1363.7463-.2666.9572c-.1273.206-.3669.2928-.6091.2928h-6.21Zm0 3.75c-.2652 0-.5253-.1039-.6582-.3334C8.129 16.4474 8 16.131 8 15.75s.129-.6974.256-.9166c.133-.2295.393-.3334.6582-.3334h6.2101c.2422 0 .4818.0868.6091.2928.1303.2109.2666.5329.2666.9572s-.1363.7463-.2666.9572c-.1273.206-.3669.2928-.6091.2928h-6.21Z" fill="currentcolor"/></svg>