<svg width="24" height="24" fill="none" xmlns="http://www.w3.org/2000/svg"><path fill-rule="evenodd" clip-rule="evenodd" d="M14.98 3.253c1.887.067 3.492 1.355 3.716 3.243C18.862 7.9 19 9.743 19 12c0 2.257-.138 4.101-.304 5.504-.224 1.888-1.83 3.176-3.716 3.243A1.5 1.5 0 0 1 13.5 22h-3a1.5 1.5 0 0 1-1.48-1.258c-1.891-.118-3.482-1.456-3.708-3.359A45.975 45.975 0 0 1 5 12c0-2.117.142-3.95.312-5.383.226-1.903 1.817-3.241 3.707-3.359A1.5 1.5 0 0 1 10.5 2h3a1.5 1.5 0 0 1 1.48 1.253zm-3.229 13.62 4.209-6.422c.112-.17-.023-.386-.242-.386h-3.38c-.175 0-.309-.145-.277-.302l.706-3.46c.057-.28-.358-.422-.519-.177L8.04 12.549c-.112.17.023.386.242.386h3.38c.175 0 .308.145.277.302l-.705 3.46c-.058.28.357.422.517.177z" fill="currentcolor"/></svg>