<svg xmlns="http://www.w3.org/2000/svg" width="24" height="24" fill="none" viewBox="0 0 24 24"><path fill="currentcolor" fill-rule="evenodd" d="M10.5 5H9.29c-1.228 0-2.12.813-2.24 1.823A44.224 44.224 0 0 0 6.75 12c0 2.04.137 3.803.3 5.177C7.17 18.187 8.062 19 9.29 19h5.535c1.195 0 2.022-.765 2.133-1.702A45.21 45.21 0 0 0 17.25 12c0-2.186-.134-3.96-.292-5.298C16.847 5.765 16.02 5 14.825 5H10.5ZM5.311 17.383c.226 1.903 1.817 3.241 3.707 3.359A1.5 1.5 0 0 0 10.5 22h3a1.5 1.5 0 0 0 1.48-1.253c1.887-.067 3.492-1.355 3.716-3.243C18.862 16.1 19 14.257 19 12c0-2.257-.138-4.101-.304-5.504-.224-1.888-1.83-3.176-3.716-3.243A1.5 1.5 0 0 0 13.5 2h-3a1.5 1.5 0 0 0-1.48 1.258c-1.891.118-3.482 1.456-3.708 3.359A45.974 45.974 0 0 0 5 12c0 2.117.142 3.95.312 5.383ZM8.914 17c-.265 0-.525-.104-.658-.333A1.836 1.836 0 0 1 8 15.75c0-.381.129-.697.256-.917.133-.23.393-.333.658-.333h6.21c.242 0 .482.087.61.293.13.21.266.533.266.957 0 .424-.136.746-.267.957-.127.206-.367.293-.609.293h-6.21Z" clip-rule="evenodd"/></svg>