<svg width="24" height="24" fill="none" xmlns="http://www.w3.org/2000/svg"><path fill-rule="evenodd" clip-rule="evenodd" d="M19 5h.5a.5.5 0 0 0 .5-.5V4a1 1 0 0 0-1-1h-1.5a.5.5 0 0 0-.5.5v10.75c-.876-.261-2.804-.75-5-.75s-4.124.489-5 .75V6.5a1 1 0 0 0-.293-.707L5.338 4.424a1.6 1.6 0 0 0-2.262 0 .4.4 0 0 0 0 .566L5 6.914V18h1c-1 0-1 .002-1 .002v.039a1.716 1.716 0 0 0 .022.23c.019.134.055.31.123.514.137.41.4.925.898 1.422C7.046 21.211 8.846 22 12 22s4.953-.79 5.957-1.793c.497-.497.76-1.011.898-1.422a2.956 2.956 0 0 0 .141-.685l.003-.06V18.003S19 18 18 18h1V5zm-4.5 3a1.5 1.5 0 1 0 0-3 1.5 1.5 0 0 0 0 3zM13 10.5a1 1 0 1 1-2 0 1 1 0 0 1 2 0zm1.5 7.5a1.5 1.5 0 1 0 0-3 1.5 1.5 0 0 0 0 3z" fill="currentcolor"/></svg>