<svg width="24" height="24" fill="none" xmlns="http://www.w3.org/2000/svg"><path d="M21.88 6.23c-.01-.078-.059-.154-.104-.23h-.18c-.045.082-.091.164-.119.25-.236.735-1.554 4.38-3.226 5.567-.836-1.615-3.26-2.783-6.122-2.783L12 9.037c-.043 0-.085-.003-.129-.003-2.861 0-5.286 1.168-6.122 2.783-1.672-1.187-2.99-4.832-3.226-5.568-.027-.085-.074-.167-.119-.249h-.18c-.045.076-.094.152-.103.23-.053.453-.145.91-.115 1.362.143 2.151.25 6.304.565 8.448.218 1.486 1.038 2.712 2.471 3.73 1.48 1.053 3.23 1.75 5.164 2.206.59.139 1.19.222 1.794.22a7.66 7.66 0 0 0 1.795-.22c1.934-.456 3.683-1.153 5.163-2.205 1.434-1.02 2.253-2.245 2.471-3.731.315-2.145.422-6.297.565-8.448.03-.452-.062-.909-.115-1.362zm-5.845 8.326c-.484.548-1.066.632-1.79.265a6.44 6.44 0 0 1-.46-.263c-.287-.176-.562-.363-.854-.532a1.763 1.763 0 0 0-.93-.248 1.762 1.762 0 0 0-.931.248c-.293.17-.568.356-.854.532-.15.091-.3.182-.46.263-.725.367-1.307.283-1.79-.265-.264-.298-.413-.623-.292-.985.082-.245.154-.497.29-.726.259-.442.74-.646 1.382-.698A60.092 60.092 0 0 1 12 12.056c1.085.016 2.307.062 2.655.09.641.053 1.123.257 1.382.698.135.23.207.482.29.727.12.362-.029.687-.292.985z" fill="currentcolor"/></svg>