<svg xmlns="http://www.w3.org/2000/svg" width="24" height="24" fill="none" viewBox="0 0 24 24"><path fill="currentcolor" fill-rule="evenodd" d="M12 22.5c-.83 0-1.537-.298-2.122-.893a3.02 3.02 0 0 1-.717-1.125c-.182-.521.287-.982.839-.982h4c.552 0 1.02.46.839.982a3.02 3.02 0 0 1-.717 1.125A2.867 2.867 0 0 1 12 22.5Zm6.52-9.129a4.1 4.1 0 0 0 1.215 2.914l.56.554a.692.692 0 0 1-.487 1.183H4.192a.692.692 0 0 1-.487-1.183l.56-.554a4.1 4.1 0 0 0 1.215-2.914v-3.61C5.48 8.3 5.955 7 6.905 5.864A6.493 6.493 0 0 1 9.83 3.84c.389-.132.673-.483.673-.893 0-.405.137-.747.41-1.027.274-.28.636-.42 1.087-.42.45 0 .813.14 1.087.42.273.28.41.622.41 1.027 0 .41.284.76.673.893a6.493 6.493 0 0 1 2.925 2.024C18.045 7 18.52 8.299 18.52 9.76v3.61Z" clip-rule="evenodd"/></svg>