<svg viewBox="0 0 24 24" fill="none" xmlns="http://www.w3.org/2000/svg"><path fill-rule="evenodd" clip-rule="evenodd" d="M9.485 2.2971C8.4618 2.5771 8 3.596 8 4.6569V8H4.6569c-1.061 0-2.0797.4618-2.3598 1.485C2.1304 10.094 2 10.9165 2 12c0 1.0835.1304 1.9061.2971 2.515C2.5771 15.5382 3.596 16 4.6569 16H8v3.3431c0 1.0609.4618 2.0797 1.485 2.3598C10.094 21.8696 10.9165 22 12 22c1.0835 0 1.9061-.1304 2.515-.2971C15.5382 21.4228 16 20.404 16 19.3431V16h3.3431c1.0609 0 2.0797-.4618 2.3598-1.485C21.8696 13.9061 22 13.0835 22 12c0-1.0835-.1304-1.9061-.2971-2.515C21.4228 8.4618 20.404 8 19.3431 8H16V4.6569c0-1.061-.4618-2.0797-1.485-2.3598C13.9061 2.1304 13.0835 2 12 2c-1.0835 0-1.9061.1304-2.515.2971Z" fill="currentcolor"/></svg>