<svg width="24" height="24" fill="none" xmlns="http://www.w3.org/2000/svg"><path fill-rule="evenodd" clip-rule="evenodd" d="M9.485 2.297C8.462 2.577 8 3.596 8 4.657V8H4.657c-1.061 0-2.08.462-2.36 1.485C2.13 10.094 2 10.916 2 12s.13 1.906.297 2.515C2.577 15.538 3.596 16 4.657 16H8v3.343c0 1.061.462 2.08 1.485 2.36.609.167 1.431.297 2.515.297s1.906-.13 2.515-.297c1.023-.28 1.485-1.299 1.485-2.36V16h3.343c1.061 0 2.08-.462 2.36-1.485.167-.609.297-1.431.297-2.515s-.13-1.906-.297-2.515C21.423 8.462 20.404 8 19.343 8H16V4.657c0-1.061-.462-2.08-1.485-2.36C13.906 2.13 13.084 2 12 2s-1.906.13-2.515.297z" fill="currentcolor"/></svg>