<svg viewBox="0 0 24 24" fill="none" xmlns="http://www.w3.org/2000/svg"><path fill-rule="evenodd" clip-rule="evenodd" d="M15.7828 13.8261c0 .6965-.2713 1.3522-.7635 1.8452-.45.4492-1.0338.7142-1.6616.7577a.1029.1029 0 0 0-.0966.1017v.5867a.1.1 0 0 1-.1.1h-1.3652a.1.1 0 0 1-.1-.1v-.5826a.1.1 0 0 0-.1-.1h-.4957a.1.1 0 0 0-.1.1v.5826a.1.1 0 0 1-.1.1H9.535a.1.1 0 0 1-.1-.1v-.5826a.1.1 0 0 0-.1-.1H8.3176a.1.1 0 0 1-.1-.1v-1.3652a.1.1 0 0 1 .1-.1h.3217a.1.1 0 0 0 .1-.1V9.2304a.1.1 0 0 0-.1-.1h-.3217a.1.1 0 0 1-.1-.1V7.6652a.1.1 0 0 1 .1-.1H9.335a.1.1 0 0 0 .1-.1v-.5826a.1.1 0 0 1 .1-.1h1.3652a.1.1 0 0 1 .1.1v.5826a.1.1 0 0 0 .1.1h.4957a.1.1 0 0 0 .1-.1v-.5826a.1.1 0 0 1 .1-.1h1.3652a.1.1 0 0 1 .1.1v.5876c0 .054.0428.098.0966.1017.6278.0434 1.2116.3085 1.6616.7577.4922.493.7635 1.1478.7635 1.8443 0 .6558-.2405 1.2738-.6786 1.7548a.1061.1061 0 0 0 0 .1426c.4389.4811.6786 1.0998.6786 1.7548ZM12 2C6.4774 2 2 6.4774 2 12s4.4774 10 10 10 10-4.4774 10-10S17.5226 2 12 2Zm1.1738 10.7827h-2.8696v2.087h2.8696c.2791 0 .5408-.1087.7382-.3061a1.0362 1.0362 0 0 0 .3052-.7374c0-.2792-.1087-.5409-.3052-.7383a1.0394 1.0394 0 0 0-.7382-.3052Zm0-3.6523h-2.8696v2.0869h2.8696c.2791 0 .5408-.1087.7382-.3052a1.0394 1.0394 0 0 0 .3052-.7383 1.036 1.036 0 0 0-.3052-.7374 1.0365 1.0365 0 0 0-.7382-.306Z" fill="currentcolor"/></svg>