<svg width="24" height="24" fill="none" xmlns="http://www.w3.org/2000/svg"><path fill-rule="evenodd" clip-rule="evenodd" d="M8.323 4.432V4H7.5a.5.5 0 0 1-.5-.5V3a1 1 0 0 1 1-1h1.823a.5.5 0 0 1 .5.5v2.123c0 .496-.228.95-.602 1.252l-.003.002-1.926 1.541c-.508.407-.792 1-.792 1.629v5.204c.876-.262 2.804-.751 5-.751s4.124.489 5 .75V9.047c0-.628-.283-1.22-.793-1.629l-1.926-1.54-.003-.003a1.606 1.606 0 0 1-.602-1.252V2.5a.5.5 0 0 1 .5-.5H16a1 1 0 0 1 1 1v.5a.5.5 0 0 1-.5.5h-.824v.432l1.781 1.425A4.078 4.078 0 0 1 19 9.047v8.842C19 20.176 17.107 22 14.824 22H9.175C6.891 22 5 20.176 5 17.89V9.046c0-1.246.567-2.41 1.541-3.19l1.782-1.425zM12.5 9a1.5 1.5 0 1 0 0-3 1.5 1.5 0 0 0 0 3zM11 11.5a1 1 0 1 1-2 0 1 1 0 0 1 2 0zm3.5 6.5a1.5 1.5 0 1 0 0-3 1.5 1.5 0 0 0 0 3z" fill="currentcolor"/></svg>