<svg viewBox="0 0 24 24" fill="none" xmlns="http://www.w3.org/2000/svg"><path fill-rule="evenodd" clip-rule="evenodd" d="M8.323 4.4318V4H7.5a.5.5 0 0 1-.5-.5V3c0-.5523.4477-1 1-1h1.823a.5.5 0 0 1 .5001.5v2.1226c0 .4963-.2283.951-.6024 1.2524l-.0027.0022L7.792 7.418c-.5082.4074-.792 1-.792 1.6287v5.2038c.8756-.2619 2.8038-.7505 5-.7505 2.1961 0 4.1243.4886 5 .7504V9.0467c0-.628-.2831-1.2198-.7927-1.6285l-1.9262-1.541-.0027-.0022c-.3741-.3015-.6024-.7561-.6024-1.2524V2.5a.5.5 0 0 1 .5-.5H16c.5523 0 1 .4477 1 1v.5a.5.5 0 0 1-.5.5h-.824v.4318l1.781 1.425C18.4315 6.6378 19 7.8 19 9.0468v8.8426C19 20.1762 17.1072 22 14.8237 22H9.1754C6.8914 22 5 20.1758 5 17.8894V9.0467c0-1.246.5674-2.409 1.5415-3.1895L8.323 4.4318ZM12.5 9c.8284 0 1.5-.6716 1.5-1.5S13.3284 6 12.5 6 11 6.6716 11 7.5 11.6716 9 12.5 9ZM11 11.5c0 .5523-.4477 1-1 1s-1-.4477-1-1 .4477-1 1-1 1 .4477 1 1Zm3.5 6.5c.8284 0 1.5-.6716 1.5-1.5s-.6716-1.5-1.5-1.5-1.5.6716-1.5 1.5.6716 1.5 1.5 1.5Z" fill="currentcolor"/></svg>