<svg xmlns="http://www.w3.org/2000/svg" width="24" height="24" fill="none" viewBox="0 0 24 24"><path fill="currentcolor" d="m6.246 5.872 7.202-1.26a1.312 1.312 0 0 0 1.061-1.527 1.295 1.295 0 0 0-1.526-1.062L5.78 3.283c-.696.1-1.194.797-1.061 1.527.132.863.962 1.162 1.526 1.062Zm11.416 3.551L5.815 11.481c-.73.133-1.195.83-1.062 1.526.066.365.298.697.564.863l2.721 2.257c.166 1.161.365 2.057.498 2.655.53 1.991 1.294 3.086 3.584 3.086s3.086-1.062 3.584-3.086a44.62 44.62 0 0 0 .64-3.484.995.995 0 0 0-1.137-1.126l-4.547.694-1.527-1.261 9.027-1.593a1.312 1.312 0 0 0 1.062-1.527 1.328 1.328 0 0 0-1.56-1.062Zm2.224-3.186a1.295 1.295 0 0 0-1.527-1.062L5.085 7.532c-.73.132-1.195.83-1.062 1.526.199 1.062 1.161 1.129 1.526 1.062l13.275-2.356c.697-.133 1.194-.83 1.062-1.527Z"/></svg>