<svg xmlns="http://www.w3.org/2000/svg" width="24" height="24" fill="none" viewBox="0 0 24 24"><path fill="currentcolor" fill-rule="evenodd" d="M4 8v9.687c0 .653.285.93.477 1.013C5.797 19.264 8.235 20 12 20c3.765 0 6.203-.736 7.523-1.3.192-.083.477-.36.477-1.013V8H4Zm1.08-5.468C3.258 2.805 2 4.402 2 6.242v11.445c0 1.22.57 2.372 1.692 2.852C5.26 21.209 7.966 22 12 22s6.74-.791 8.308-1.461c1.123-.48 1.692-1.632 1.692-2.852V6.242c0-1.84-1.259-3.437-3.08-3.71C17.12 2.262 14.68 2 12 2c-2.679 0-5.12.263-6.92.532Zm5.17 7.968a.5.5 0 0 1 .5-.5h2.5a.5.5 0 0 1 .5.5v2a.5.5 0 0 1-.5.5h-2.5a.5.5 0 0 1-.5-.5v-2Zm5.5-.5a.5.5 0 0 0-.5.5v2a.5.5 0 0 0 .5.5h2.5a.5.5 0 0 0 .5-.5v-2a.5.5 0 0 0-.5-.5h-2.5Zm-10.5.5a.5.5 0 0 1 .5-.5h2.5a.5.5 0 0 1 .5.5v2a.5.5 0 0 1-.5.5h-2.5a.5.5 0 0 1-.5-.5v-2Zm5.5 3.75a.5.5 0 0 0-.5.5v2a.5.5 0 0 0 .5.5h2.5a.5.5 0 0 0 .5-.5v-2a.5.5 0 0 0-.5-.5h-2.5Zm-5.5.5a.5.5 0 0 1 .5-.5h2.5a.5.5 0 0 1 .5.5v2a.5.5 0 0 1-.5.5h-2.5a.5.5 0 0 1-.5-.5v-2Z" clip-rule="evenodd"/></svg>