<svg viewBox="0 0 24 24" fill="none" xmlns="http://www.w3.org/2000/svg"><path fill-rule="evenodd" clip-rule="evenodd" d="M4 8v9.6868c0 .6533.2848.9306.4774 1.0129C5.7969 19.2635 8.2352 20 12 20c3.7648 0 6.2031-.7365 7.5227-1.3003.1925-.0823.4773-.3596.4773-1.0129V8H4Zm1.0793-5.468C3.2585 2.8047 2 4.4013 2 6.2424v11.4445c0 1.2205.5692 2.3725 1.6915 2.852C5.26 21.209 7.9657 22 12 22s6.74-.791 8.3085-1.4612C21.4308 20.0593 22 18.9073 22 17.6868V6.2422c0-1.841-1.2585-3.4376-3.0793-3.7102C17.1207 2.2626 14.679 2 12 2c-2.679 0-5.1207.2626-6.9207.532ZM10.25 10.5a.5.5 0 0 1 .5-.5h2.5a.5.5 0 0 1 .5.5v2a.5.5 0 0 1-.5.5h-2.5a.5.5 0 0 1-.5-.5v-2Zm5.5-.5a.5.5 0 0 0-.5.5v2a.5.5 0 0 0 .5.5h2.5a.5.5 0 0 0 .5-.5v-2a.5.5 0 0 0-.5-.5h-2.5Zm-10.5.5a.5.5 0 0 1 .5-.5h2.5a.5.5 0 0 1 .5.5v2a.5.5 0 0 1-.5.5h-2.5a.5.5 0 0 1-.5-.5v-2Zm5.5 3.75a.5.5 0 0 0-.5.5v2a.5.5 0 0 0 .5.5h2.5a.5.5 0 0 0 .5-.5v-2a.5.5 0 0 0-.5-.5h-2.5Zm-5.5.5a.5.5 0 0 1 .5-.5h2.5a.5.5 0 0 1 .5.5v2a.5.5 0 0 1-.5.5h-2.5a.5.5 0 0 1-.5-.5v-2Z" fill="currentcolor"/></svg>