<svg viewBox="0 0 24 24" fill="none" xmlns="http://www.w3.org/2000/svg"><path fill-rule="evenodd" clip-rule="evenodd" d="M20.7767 11.2573c.5684.0632 1.0104.5263 1.0525 1.0946l.1684 2.5892c.0421.6947-.4841 1.263-1.1788 1.263H19.9827C19.8366 14.9638 18.781 14 17.5 14s-2.3366.9638-2.4827 2.2041H8.9827C8.8366 14.9638 7.781 14 6.5 14s-2.3366.9638-2.4827 2.2041h-.8174C2.5473 16.2041 2 15.6568 2 15.0043v-2.5471c0-.3789.0842-.7578.2105-1.1157L4 7.5c.4246-1.143 2.0846-1.3222 3.299-1.4325C7.7495 6.0265 8.3083 6 9 6c.6222 0 1.1416.0215 1.574.0556 1.377.1086 2.9262.3485 3.9391 1.2876a1.129 1.129 0 0 1 .117.1251l2.6944 3.3891 3.4522.3999ZM8.6627 11h-4.024a.1.1 0 0 1-.095-.1316l.7283-2.1846A1 1 0 0 1 6.2206 8H8.9a.1.1 0 0 1 .1.1V11h-.3373ZM10.5 11V8.1a.1.1 0 0 1 .1-.1h2.5044a.6277.6277 0 0 1 .5052.2526l1.3169 2.6022a.1.1 0 0 1-.0892.1452h-4.3373ZM6.5 18c.8286 0 1.5-.6721 1.5-1.5004C8 15.6721 7.3286 15 6.5 15S5 15.6721 5 16.4996C5 17.3279 5.6714 18 6.5 18Zm11 0c.8286 0 1.5-.6721 1.5-1.5004C19 15.6721 18.3286 15 17.5 15s-1.5.6721-1.5 1.4996C16 17.3279 16.6714 18 17.5 18Z" fill="currentcolor"/></svg>