<svg viewBox="0 0 24 24" fill="none" xmlns="http://www.w3.org/2000/svg"><path fill-rule="evenodd" clip-rule="evenodd" d="M11.9432 4C2.2029 4 2 7.3166 2 10.4322v2.1356C2 15.7839 2.3044 19 12.0446 19c.8183 0 1.5692-.0234 2.2584-.0681.2134.4138.5771.9482 1.197 1.5681.6139.6139 1.1441.9766 1.5562 1.1908.4901.2547.9438-.1385.9438-.6908v-2.6468c3.8791-1.1163 3.9878-3.5047 3.9878-5.7854v-2.1356C22.0893 7.3166 21.7849 4 11.9432 4ZM12 13c.5523 0 1-.4477 1-1s-.4477-1-1-1-1 .4477-1 1 .4477 1 1 1Zm6-1c0 .5523-.4477 1-1 1s-1-.4477-1-1 .4477-1 1-1 1 .4477 1 1ZM7 13c.5523 0 1-.4477 1-1s-.4477-1-1-1-1 .4477-1 1 .4477 1 1 1Z" fill="currentcolor"/></svg>