<svg width="24" height="24" fill="none" xmlns="http://www.w3.org/2000/svg"><path d="M9.05 21.564c-1.548 0-3.074-.437-4.254-1.617-1.418-1.418-1.83-2.883-1.794-4.58.037-1.659.7-3.245 1.918-4.425l7.155-7.465.11-.11a4.698 4.698 0 0 1 3.172-1.365 4.453 4.453 0 0 1 3.21 1.254c1.733 1.733 1.696 4.61-.111 6.38l-6.971 7.008c-.517.517-1.217.849-1.955.849-.775 0-1.475-.259-1.992-.812a2.85 2.85 0 0 1-.811-1.992c0-.737.332-1.438.848-1.954L14.62 5.69c.442-.442 1.143-.442 1.549 0 .442.443.442 1.144 0 1.55l-7.045 7.044a.68.68 0 0 0-.184.442c0 .111.037.258.147.37.111.11.295.147.37.147a.68.68 0 0 0 .442-.185l6.97-6.97c.923-.923.96-2.398.111-3.246-.405-.406-.959-.627-1.586-.627-.553 0-1.106.221-1.549.59 0 .037-.037.037-.037.074l-7.302 7.649c-.775.774-1.21 1.312-1.21 2.419-.037 1.07.262 2.262 1 3 1.549 1.549 4.156 1.773 5.78.15l6.38-6.15c.442-.443 1.143-.443 1.549 0 .442.442.442 1.143 0 1.549l-6.38 6.15a6.336 6.336 0 0 1-4.574 1.918z" fill="currentcolor"/></svg>