<svg viewBox="0 0 24 24" fill="none" xmlns="http://www.w3.org/2000/svg"><path d="M9.0508 21.5639c-1.549 0-3.075-.437-4.2553-1.6172-1.4179-1.4176-1.8303-2.8824-1.7934-4.579.0369-1.6597.7008-3.2456 1.9179-4.4258l7.1549-7.4646.1106-.1107c.8483-.8483 1.9916-1.3277 3.1719-1.3646 1.2171-.0369 2.3604.4426 3.2087 1.254 1.7335 1.7334 1.6966 4.6102-.1106 6.3806l-6.9707 7.0076c-.5164.5163-1.2172.8483-1.9548.8483-.7745 0-1.4753-.2582-1.9916-.8114-.5164-.5164-.8114-1.254-.8114-1.9917 0-.7376.3319-1.4384.8482-1.9547l7.0445-7.0445c.4426-.4426 1.1434-.4426 1.5491 0 .4426.4426.4426 1.1433 0 1.549l-7.0445 7.0445c-.1106.1107-.1844.2951-.1844.4426 0 .1107.0369.2582.1475.3688.1107.1107.295.1476.3688.1476.1476 0 .332-.0738.4426-.1845l6.9707-6.9707c.9221-.922.959-2.3973.1107-3.2456-.4057-.4057-.9589-.627-1.5859-.627-.5533 0-1.1065.2213-1.5491.5901 0 .037-.0369.037-.0369.0738l-7.3024 7.649c-.7745.7745-1.2104 1.3124-1.2104 2.4189-.0369 1.0696.2624 2.2624 1 3 1.549 1.549 4.1568 1.7731 5.7796.1503l6.3805-6.1503c.4425-.4426 1.1433-.4426 1.549 0 .4426.4426.4426 1.1433 0 1.549l-6.3804 6.1504c-1.254 1.2908-2.9137 1.9178-4.5734 1.9178Z" fill="currentcolor"/></svg>