<svg viewBox="0 0 24 24" fill="none" xmlns="http://www.w3.org/2000/svg"><path fill-rule="evenodd" clip-rule="evenodd" d="M4 6.2423c0-.9432.6225-1.6196 1.3754-1.7323C6.878 4.2851 8.8386 4.0664 11 4.0126V5.5a.5.5 0 0 0 .5.5h1a.5.5 0 0 0 .5-.5V4.0126c2.1614.0538 4.1219.2725 5.6246.4974C19.3775 4.6227 20 5.299 20 6.2423V11h-1.5a.5.5 0 0 0-.5.5v1a.5.5 0 0 0 .5.5H20v4.6868c0 .6533-.2848.9306-.4773 1.0129-1.1989.5123-3.3212 1.167-6.5227 1.2825V18.5a.5.5 0 0 0-.5-.5h-1a.5.5 0 0 0-.5.5v1.4822c-3.2015-.1155-5.3238-.7702-6.5226-1.2825C4.2848 18.6174 4 18.3401 4 17.6868V13h1.5a.5.5 0 0 0 .5-.5v-1a.5.5 0 0 0-.5-.5H4V6.2423ZM5.0793 2.532C3.2585 2.8047 2 4.4013 2 6.2424v11.4445c0 1.2205.5692 2.3725 1.6915 2.852C5.26 21.209 7.9657 22 12 22s6.74-.791 8.3085-1.4612C21.4308 20.0593 22 18.9073 22 17.6868V6.2422c0-1.841-1.2585-3.4376-3.0793-3.7102C17.1207 2.2626 14.679 2 12 2c-2.679 0-5.1207.2626-6.9207.532ZM8.294 9.9012a.5.5 0 0 0-.6182.3434l-.2747.9615a.5.5 0 0 0 .3434.6182l3.6071 1.0306a.4986.4986 0 0 1 .2161.1272l4.0788 4.0787a.5001.5001 0 0 0 .7071 0l.7071-.7071a.5001.5001 0 0 0 0-.7071l-4.262-4.262a1.4996 1.4996 0 0 0-.6485-.3816L8.294 9.9011Z" fill="currentcolor"/></svg>