<svg width="24" height="24" fill="none" xmlns="http://www.w3.org/2000/svg"><path fill-rule="evenodd" clip-rule="evenodd" d="M4 6.242c0-.943.622-1.62 1.375-1.732A46.23 46.23 0 0 1 11 4.013V5.5a.5.5 0 0 0 .5.5h1a.5.5 0 0 0 .5-.5V4.013a46.23 46.23 0 0 1 5.625.497C19.378 4.623 20 5.3 20 6.242V11h-1.5a.5.5 0 0 0-.5.5v1a.5.5 0 0 0 .5.5H20v4.687c0 .653-.285.93-.477 1.013-1.2.512-3.322 1.167-6.523 1.282V18.5a.5.5 0 0 0-.5-.5h-1a.5.5 0 0 0-.5.5v1.482c-3.202-.115-5.324-.77-6.523-1.282-.192-.083-.477-.36-.477-1.013V13h1.5a.5.5 0 0 0 .5-.5v-1a.5.5 0 0 0-.5-.5H4V6.242zm1.08-3.71C3.258 2.805 2 4.402 2 6.242v11.445c0 1.22.57 2.372 1.692 2.852C5.26 21.209 7.966 22 12 22s6.74-.791 8.308-1.461c1.123-.48 1.692-1.632 1.692-2.852V6.242c0-1.84-1.259-3.437-3.08-3.71C17.12 2.262 14.68 2 12 2c-2.679 0-5.12.263-6.92.532zm3.214 7.37a.5.5 0 0 0-.618.343l-.275.961a.5.5 0 0 0 .344.618l3.607 1.03a.499.499 0 0 1 .216.128l4.079 4.079a.5.5 0 0 0 .707 0l.707-.707a.5.5 0 0 0 0-.707l-4.262-4.263a1.5 1.5 0 0 0-.649-.381L8.294 9.9z" fill="currentcolor"/></svg>