<svg width="24" height="24" fill="none" xmlns="http://www.w3.org/2000/svg"><path fill-rule="evenodd" clip-rule="evenodd" d="M2.82 5.261c.098-1.312 1.057-2.39 2.355-2.603C6.998 2.358 9.67 2 12 2c2.331 0 5.002.359 6.825.658 1.298.213 2.257 1.291 2.356 2.603.143 1.906.319 4.675.319 6.767 0 2.083-.175 4.837-.317 6.742-.1 1.324-1.074 2.408-2.386 2.611-1.822.283-4.478.619-6.797.619-2.32 0-4.975-.336-6.797-.619-1.312-.203-2.286-1.287-2.386-2.61-.142-1.906-.317-4.66-.317-6.743 0-2.092.176-4.861.32-6.767zM12.95 8h4.55a.5.5 0 0 1 0 1h-4.55a2.5 2.5 0 0 1-4.9 0H6.5a.5.5 0 0 1 0-1h1.55a2.5 2.5 0 0 1 4.9 0zm4.55 7h-1.55a2.5 2.5 0 0 0-4.9 0H6.5a.5.5 0 0 0 0 1h4.55a2.5 2.5 0 0 0 4.9 0h1.55a.5.5 0 0 0 0-1z" fill="currentcolor"/></svg>