<svg width="24" height="24" fill="none" xmlns="http://www.w3.org/2000/svg"><path fill-rule="evenodd" clip-rule="evenodd" d="M14.5 6V2.192A15.288 15.288 0 0 0 12 2c-2.867 0-4.748.329-5.83.61C5.435 2.8 5 3.478 5 4.235v15.528c0 .758.436 1.437 1.17 1.627C7.251 21.67 9.132 22 12 22s4.748-.329 5.83-.61c.734-.19 1.17-.869 1.17-1.626V7.072a.878.878 0 0 0-.012-.143c-.024-.143-.05-.287-.08-.429H15a.5.5 0 0 1-.5-.5zm1-.5V2.403c.16.042.313.086.458.131 1.392.437 2.217 1.602 2.679 2.966H15.5zm.2 3.768a.75.75 0 1 0-1.4-.536l-1.868 4.883-1.533-1.629-.856-.91-.4 1.184-1.353 4a.75.75 0 0 0 1.42.48l.953-2.816 1.497 1.59.82.87.426-1.116 2.294-6z" fill="currentcolor"/></svg>