<svg xmlns="http://www.w3.org/2000/svg" width="24" height="24" fill="none" viewBox="0 0 24 24"><path fill="currentcolor" fill-rule="evenodd" d="M13.184 3.074a3 3 0 0 0-2.284.89L3.313 11.66a5 5 0 0 0 .025 7.046l1.486 1.486a5 5 0 0 0 7.024.046l2.723-2.651 5.27-5.133a3 3 0 0 0 .902-2.335l-.36-5.8a1 1 0 0 0-.949-.938l-6.25-.307Zm.571 3.678a2 2 0 1 1 2.829 2.828 2 2 0 0 1-2.829-2.828Zm-5.833 4.066a.75.75 0 1 0-1.06 1.06l4.595 4.597a.75.75 0 0 0 1.06-1.06l-4.595-4.597Zm-2.829 2.828a.75.75 0 1 0-1.06 1.061l4.596 4.596a.75.75 0 1 0 1.06-1.06l-4.596-4.597Z" clip-rule="evenodd"/></svg>