<svg viewBox="0 0 24 24" fill="none" xmlns="http://www.w3.org/2000/svg"><path fill-rule="evenodd" clip-rule="evenodd" d="M13.184 3.0737a3 3 0 0 0-2.284.8903l-7.587 7.6964c-1.9287 1.9566-1.9174 5.1029.0253 7.0456l1.4859 1.4859c1.9344 1.9344 5.0642 1.9551 7.024.0465l2.7225-2.6514 5.271-5.1335a2.9998 2.9998 0 0 0 .9012-2.3348l-.3596-5.8003a1 1 0 0 0-.9489-.9369l-6.2504-.3078Zm.5712 3.6784c.7811-.781 2.0474-.781 2.8284 0 .7811.781.7811 2.0474 0 2.8285-.781.781-2.0473.781-2.8284 0-.781-.781-.781-2.0474 0-2.8285ZM7.9217 10.818a.75.75 0 1 0-1.0606 1.0607l4.5962 4.5962a.7501.7501 0 0 0 1.0606-1.0607L7.9217 10.818Zm-2.8284 2.8284a.75.75 0 1 0-1.0606 1.0607l4.5961 4.5962a.75.75 0 1 0 1.0607-1.0607l-4.5962-4.5962Z" fill="currentcolor"/></svg>