<svg width="24" height="24" fill="none" xmlns="http://www.w3.org/2000/svg"><mask id="a" fill="#fff"><path fill-rule="evenodd" clip-rule="evenodd" d="M2.017 9c.193-2.335 2.001-4.225 4.38-4.353A105.31 105.31 0 0 1 12 4.5c2.157 0 4.056.065 5.603.147 2.379.128 4.187 2.018 4.38 4.353H22v5.664c0 2.488-1.834 4.566-4.32 4.696-1.514.08-3.415.14-5.68.14-2.265 0-4.165-.06-5.68-.14C3.833 19.23 2 17.152 2 14.664V9h.017zM4 9v3h16V9H4zm5 7a1 1 0 1 0 0-2 1 1 0 0 0 0 2zm-2-1a1 1 0 1 1-2 0 1 1 0 0 1 2 0z"/></mask><path fill-rule="evenodd" clip-rule="evenodd" d="M2.017 9c.193-2.335 2.001-4.225 4.38-4.353A105.31 105.31 0 0 1 12 4.5c2.157 0 4.056.065 5.603.147 2.379.128 4.187 2.018 4.38 4.353H22v5.664c0 2.488-1.834 4.566-4.32 4.696-1.514.08-3.415.14-5.68.14-2.265 0-4.165-.06-5.68-.14C3.833 19.23 2 17.152 2 14.664V9h.017zM4 9v3h16V9H4zm5 7a1 1 0 1 0 0-2 1 1 0 0 0 0 2zm-2-1a1 1 0 1 1-2 0 1 1 0 0 1 2 0z" fill="currentcolor"/><path d="m6.397 4.647-.053-.998.053.998zM2.017 9v1h.92l.077-.918L2.017 9zm15.586-4.353.053-.998-.053.998zM21.983 9l-.997.082.076.918h.921V9zM22 9h1V8h-1v1zm-4.32 10.36-.051-.998.052.998zm-11.36 0 .051-.998-.052.998zM2 9V8H1v1h1zm2 3H3v1h1v-1zm0-3V8H3v1h1zm16 3v1h1v-1h-1zm0-3h1V8h-1v1zM6.344 3.649c-2.911.156-5.093 2.47-5.324 5.269l1.994.164c.154-1.87 1.59-3.337 3.437-3.436l-.107-1.997zM12 3.5c-2.177 0-4.093.065-5.656.149l.107 1.997A104.31 104.31 0 0 1 12 5.5v-2zm5.656.149A106.3 106.3 0 0 0 12 3.5v2c2.137 0 4.018.064 5.55.146l.106-1.997zm5.324 5.269c-.231-2.8-2.413-5.113-5.324-5.27l-.107 1.998c1.847.099 3.283 1.566 3.437 3.436l1.994-.164zM22 8h-.017v2H22V8zm1 4V9h-2v3h2zm0 .5V12h-2v.5h2zm0 2.164V12.5h-2v2.164h2zm-5.267 5.695c3.056-.16 5.267-2.716 5.267-5.696h-2c0 1.998-1.458 3.599-3.371 3.699l.104 1.997zM12 20.5c2.283 0 4.2-.061 5.733-.141l-.104-1.997c-1.499.078-3.382.138-5.629.138v2zm-5.733-.141c1.532.08 3.45.141 5.733.141v-2c-2.247 0-4.13-.06-5.629-.138l-.104 1.997zM1 14.663c0 2.98 2.211 5.536 5.267 5.696l.104-1.997C4.458 18.262 3 16.66 3 14.664H1zM1 12.5v2.164h2V12.5H1zm0-.5v.5h2V12H1zm0-3v3h2V9H1zm1.017-1H2v2h.017V8zM5 12V9H3v3h2zm15-1H4v2h16v-2zm-1-2v3h2V9h-2zM4 10h16V8H4v2zm5 5v2a2 2 0 0 0 2-2H9zm0 0h2a2 2 0 0 0-2-2v2zm0 0v-2a2 2 0 0 0-2 2h2zm0 0H7a2 2 0 0 0 2 2v-2zm-3 2a2 2 0 0 0 2-2H6v2zm-2-2a2 2 0 0 0 2 2v-2H4zm2-2a2 2 0 0 0-2 2h2v-2zm2 2a2 2 0 0 0-2-2v2h2z" fill="currentcolor" mask="url(#a)"/></svg>