<svg xmlns="http://www.w3.org/2000/svg" width="24" height="24" fill="none" viewBox="0 0 24 24"><path fill="currentcolor" fill-rule="evenodd" d="M6.397 4.647C4.018 4.775 2.21 6.665 2.017 9H2v5.664c0 2.488 1.834 4.566 4.32 4.696 1.515.08 3.415.14 5.68.14 2.265 0 4.166-.06 5.68-.14 2.486-.13 4.32-2.208 4.32-4.696V9h-.017c-.193-2.335-2.001-4.225-4.38-4.353A105.313 105.313 0 0 0 12 4.5c-2.157 0-4.056.065-5.603.147ZM10 15a1 1 0 1 1-2 0 1 1 0 0 1 2 0Zm-4 1a1 1 0 1 0 0-2 1 1 0 0 0 0 2Zm14-7H4v3h16V9Z" clip-rule="evenodd"/></svg>