<svg viewBox="0 0 24 24" fill="none" xmlns="http://www.w3.org/2000/svg"><path fill-rule="evenodd" clip-rule="evenodd" d="M5 3c-1.1046 0-2 .8954-2 2v9c0 .5523.4477 1 1 1h6c.5523 0 1-.4477 1-1V4c0-.5523-.4477-1-1-1H5ZM4 17c-.5523 0-1 .4477-1 1v1c0 1.1046.8954 2 2 2h5c.5523 0 1-.4477 1-1v-2c0-.5523-.4477-1-1-1H4Zm9-13c0-.5523.4477-1 1-1h5c1.1046 0 2 .8954 2 2v1c0 .5523-.4477 1-1 1h-6c-.5523 0-1-.4477-1-1V4Zm1 5c-.5523 0-1 .4477-1 1v10c0 .5523.4477 1 1 1h5c1.1046 0 2-.8954 2-2v-9c0-.5523-.4477-1-1-1h-6Z" fill="currentcolor"/></svg>