<svg viewBox="0 0 24 24" fill="none" xmlns="http://www.w3.org/2000/svg"><path fill-rule="evenodd" clip-rule="evenodd" d="M3.6984 4.0506C3.2793 4.1614 3 4.5436 3 4.9771V7c0 .5523.4477 1 1 1h16c.5523 0 1-.4477 1-1V4.9771c0-.4335-.2793-.8157-.6984-.9265C18.967 3.6977 15.8423 3 12 3c-3.8423 0-6.967.6977-8.3016 1.0506ZM4 10c-.5523 0-1 .4477-1 1v2c0 .5523.4477 1 1 1h16c.5523 0 1-.4477 1-1v-2c0-.5523-.4477-1-1-1H4Zm-1 7c0-.5523.4477-1 1-1h16c.5523 0 1 .4477 1 1v2.0659c0 .4124-.2525.7792-.6481.8959C19.1428 20.3183 16.2725 21 12 21c-4.2725 0-7.1428-.6817-8.3519-1.0382C3.2525 19.8451 3 19.4783 3 19.0659V17Zm15 2c.5523 0 1-.4477 1-1s-.4477-1-1-1-1 .4477-1 1 .4477 1 1 1Zm1-7c0 .5523-.4477 1-1 1s-1-.4477-1-1 .4477-1 1-1 1 .4477 1 1Zm-1-5c.5523 0 1-.4477 1-1s-.4477-1-1-1-1 .4477-1 1 .4477 1 1 1Z" fill="currentcolor"/></svg>