<svg xmlns="http://www.w3.org/2000/svg" width="24" height="24" fill="none" viewBox="0 0 24 24"><path fill="currentcolor" fill-rule="evenodd" d="M3.698 4.05A.948.948 0 0 0 3 4.978V7a1 1 0 0 0 1 1h16a1 1 0 0 0 1-1V4.977a.948.948 0 0 0-.698-.926C18.967 3.698 15.842 3 12 3c-3.842 0-6.967.698-8.302 1.05ZM4 10a1 1 0 0 0-1 1v2a1 1 0 0 0 1 1h16a1 1 0 0 0 1-1v-2a1 1 0 0 0-1-1H4Zm-1 7a1 1 0 0 1 1-1h16a1 1 0 0 1 1 1v2.066c0 .412-.253.78-.648.896C19.142 20.318 16.272 21 12 21c-4.273 0-7.143-.682-8.352-1.038A.918.918 0 0 1 3 19.066V17Zm15 2a1 1 0 1 0 0-2 1 1 0 0 0 0 2Zm1-7a1 1 0 1 1-2 0 1 1 0 0 1 2 0Zm-1-5a1 1 0 1 0 0-2 1 1 0 0 0 0 2Z" clip-rule="evenodd"/></svg>