<svg width="24" height="24" fill="none" xmlns="http://www.w3.org/2000/svg"><path fill-rule="evenodd" clip-rule="evenodd" d="M15.876 12A7.998 7.998 0 0 0 20 5V4a1 1 0 0 0-1-1h-.5a.5.5 0 0 0-.5.5V5a5.99 5.99 0 0 1-.341 2H10a1 1 0 1 0 0 2h6.472A6 6 0 0 1 6 5h7a1 1 0 1 0 0-2H5a1 1 0 0 0-1 1v1a7.998 7.998 0 0 0 4.124 7A7.998 7.998 0 0 0 4 19v1a1 1 0 0 0 1 1h.5a.5.5 0 0 0 .5-.5V19c0-.701.12-1.374.341-2H14a1 1 0 1 0 0-2H7.528A6 6 0 0 1 18 19h-7a1 1 0 1 0 0 2h8a1 1 0 0 0 1-1v-1a7.998 7.998 0 0 0-4.124-7z" fill="currentcolor"/></svg>