<svg xmlns="http://www.w3.org/2000/svg" width="24" height="24" fill="none" viewBox="0 0 24 24"><path fill="currentcolor" d="M15.338 3.333A.333.333 0 0 0 15.005 3H9.003a.333.333 0 0 0-.334.333v1.295c0 .184.15.334.334.334h6.002c.184 0 .333-.15.333-.334V3.333Zm.667 3A.333.333 0 0 0 15.672 6H8.336a.333.333 0 0 0-.334.333v1.334c0 .184.15.333.334.333h7.336c.184 0 .333-.15.333-.333V6.333Zm5.602 5.625c-.833-2.679-2.132-6.729-2.134-6.735a1.36 1.36 0 0 0-1.267-.915h-.796a.333.333 0 0 0-.327.397l1.517 7.811c.004.02.01.04.016.059a.67.67 0 0 1-.644.886h-2.967c-.184 0-.33.151-.36.333-.181 1.107-1.273 1.76-2.641 1.76-1.369 0-2.46-.653-2.641-1.76-.03-.182-.176-.333-.36-.333H6.035a.662.662 0 0 1-.667-.784l1.556-7.972a.333.333 0 0 0-.327-.397h-.795c-.6 0-1.1.391-1.267.946v.002c-.013.04-1.272 4.067-2.101 6.734-.53 1.561-.699 4.706.218 6.091.01.015.02.031.027.048C4.034 21 9.776 21 12.004 21c8.102-.033 9.003-2.373 9.336-2.896.9-1.373.767-4.544.267-6.146Zm-4.935-2.625A.333.333 0 0 0 16.338 9h-8.67a.333.333 0 0 0-.333.333v1.334c0 .184.15.333.334.333h8.67c.184 0 .333-.15.333-.333V9.333Z"/></svg>