<svg viewBox="0 0 24 24" fill="none" xmlns="http://www.w3.org/2000/svg"><path d="M15.3382 3.3335A.3335.3335 0 0 0 15.0047 3h-6.002a.3334.3334 0 0 0-.3335.3335V4.628c0 .1841.1493.3334.3335.3334h6.002a.3335.3335 0 0 0 .3335-.3334V3.3335Zm.6669 3A.3335.3335 0 0 0 15.6716 6H8.3358a.3334.3334 0 0 0-.3335.3335v1.333c0 .1842.1493.3335.3335.3335h7.3358a.3335.3335 0 0 0 .3335-.3335v-1.333Zm5.6019 5.6242c-.833-2.6787-2.132-6.7282-2.1341-6.7346l-.0001-.0003c-.1668-.523-.7002-.9151-1.267-.9151h-.7959a.3334.3334 0 0 0-.3273.397l1.5176 7.8116a.4266.4266 0 0 0 .0163.0585c.1427.4181-.1551.8867-.6441.8867h-2.9677c-.1841 0-.3301.1505-.3598.3323-.1812 1.1072-1.2725 1.76-2.6412 1.76s-2.46-.6528-2.6411-1.76c-.0298-.1818-.1758-.3323-.36-.3323H6.035c-.4335 0-.7336-.3596-.6669-.7846L6.9244 4.705a.3335.3335 0 0 0-.3272-.3973h-.7956c-.5996 0-1.0993.3914-1.2666.9462l-.0006.0022c-.0123.0392-1.271 4.0666-2.1006 6.7343-.5306 1.5606-.6984 4.7057.2181 6.0907a.382.382 0 0 1 .027.048C4.0336 21 9.7761 21 12.0037 21c8.1028-.0327 9.0032-2.3731 9.3366-2.8962.9003-1.373.767-4.5442.2668-6.1461Zm-4.935-2.6243A.3335.3335 0 0 0 16.3385 9H7.6689a.3334.3334 0 0 0-.3335.3334v1.3332c0 .1841.1493.3334.3335.3334h8.6696a.3335.3335 0 0 0 .3335-.3334V9.3334Z" fill="currentcolor"/></svg>