<svg xmlns="http://www.w3.org/2000/svg" width="24" height="24" fill="none" viewBox="0 0 24 24"><path fill="currentcolor" fill-rule="evenodd" d="M14.5 2.192A15.288 15.288 0 0 0 12 2c-2.867 0-4.748.329-5.83.61C5.435 2.8 5 3.478 5 4.235v15.528c0 .758.436 1.437 1.17 1.627 1.081.28 2.962.61 5.83.61s4.748-.329 5.83-.61c.734-.19 1.17-.869 1.17-1.626V7.072a.878.878 0 0 0-.012-.143c-.024-.143-.05-.287-.08-.429H15a.5.5 0 0 1-.5-.5V2.192ZM18.637 5.5H15.5V2.403c.16.042.313.086.458.131 1.392.437 2.217 1.602 2.679 2.966ZM7 9.5a.5.5 0 0 1 .5-.5h9a.5.5 0 0 1 .5.5v.5a.5.5 0 0 1-.5.5h-9A.5.5 0 0 1 7 10v-.5Zm0 3a.5.5 0 0 1 .5-.5h9a.5.5 0 0 1 .5.5v.5a.5.5 0 0 1-.5.5h-9A.5.5 0 0 1 7 13v-.5Zm4.5 2.5h-4a.5.5 0 0 0-.5.5v.5a.5.5 0 0 0 .5.5h4a.5.5 0 0 0 .5-.5v-.5a.5.5 0 0 0-.5-.5Z" clip-rule="evenodd"/></svg>