<svg viewBox="0 0 24 24" fill="none" xmlns="http://www.w3.org/2000/svg"><path fill-rule="evenodd" clip-rule="evenodd" d="M12 2C6.4771 2 2 6.4771 2 12c0 5.5228 4.4771 10 10 10 5.5228 0 10-4.4772 10-10 0-5.5229-4.4772-10-10-10ZM9.1536 16.2499a5.9285 5.9285 0 0 0 1.4419.4246L10.4644 18h.7472c.1529 0 .2775-.0493.3736-.148.0961-.0944.1508-.2016.1639-.3217l.0786-.8043c.5069-.0386.9569-.1437 1.3502-.3153.3933-.1758.7253-.401.9963-.6756a2.7823 2.7823 0 0 0 .6161-.9458c.1398-.3603.2097-.7443.2097-1.1518 0-.2702-.035-.5104-.1049-.7206-.0699-.2145-.1682-.4032-.2949-.5662a1.9477 1.9477 0 0 0-.4392-.4247 3.1942 3.1942 0 0 0-.544-.3153 4.6574 4.6574 0 0 0-.603-.2445 11.7821 11.7821 0 0 0-.6292-.1994l.2294-2.2842c.1355.0386.2622.0836.3802.135.1223.0516.2359.1009.3408.148.1049.043.201.0794.2884.1095.0874.03.166.045.236.045.1048 0 .1944-.0236.2687-.0708.0786-.0514.1551-.1308.2294-.238l.4981-.7142c-.2359-.2188-.5243-.4226-.8652-.6113-.3408-.193-.7472-.3325-1.2191-.4182L12.9026 6h-.7472c-.1529 0-.2774.0493-.3736.148-.0961.0944-.1507.2016-.1638.3217l-.0721.7142c-.5069.0257-.9569.1223-1.3502.2896-.3933.163-.7254.3732-.9963.6305-.2665.2574-.4697.547-.6095.8687-.1398.3217-.2097.652-.2097.9908 0 .459.0764.8408.2294 1.1453.1572.3046.3604.5555.6095.7529.249.1973.5287.3538.839.4697.3102.1158.6226.2166.9372.3024l-.2425 2.4322c-.1966-.0515-.3714-.1159-.5243-.1931a11.4443 11.4443 0 0 1-.426-.238 3.7867 3.7867 0 0 0-.354-.1931c-.1092-.0557-.2163-.0836-.3212-.0836a.581.581 0 0 0-.2883.0772c-.0874.0472-.1574.1072-.2098.1802L8 15.5099c.3146.2874.6991.5341 1.1536.74Zm3.6769-2.9019c.1617.1458.2425.341.2425.5855 0 .6563-.3605 1.0467-1.0814 1.1711l.2097-2.1234c.2622.0987.4719.2209.6292.3668Zm-2.294-2.9598c-.1617-.1587-.2425-.3646-.2425-.6177a.844.844 0 0 1 .059-.3153.77.77 0 0 1 .1835-.2767c.0874-.0815.1988-.15.3343-.2058.1398-.0601.3102-.1051.5112-.1352l-.1966 1.9432c-.2665-.1072-.4828-.2381-.6489-.3925Z" fill="currentcolor"/></svg>