<svg width="24" height="24" fill="none" xmlns="http://www.w3.org/2000/svg"><path fill-rule="evenodd" clip-rule="evenodd" d="M12 2C6.477 2 2 6.477 2 12s4.477 10 10 10 10-4.477 10-10S17.523 2 12 2zM9.154 16.25c.458.201.939.343 1.441.424L10.465 18h.747c.152 0 .277-.05.373-.148a.523.523 0 0 0 .164-.322l.079-.804a4.146 4.146 0 0 0 1.35-.315c.393-.176.725-.401.996-.676.271-.274.476-.59.616-.946.14-.36.21-.744.21-1.152 0-.27-.035-.51-.105-.72a1.948 1.948 0 0 0-.734-.99 3.194 3.194 0 0 0-.544-.316 4.657 4.657 0 0 0-.603-.245c-.21-.073-.42-.14-.63-.2l.23-2.283c.136.038.262.083.38.135.123.051.236.1.341.148.105.043.201.079.289.11.087.03.166.044.236.044a.491.491 0 0 0 .268-.07.874.874 0 0 0 .23-.239l.498-.714a4.4 4.4 0 0 0-.865-.611 3.863 3.863 0 0 0-1.22-.418L12.903 6h-.748a.499.499 0 0 0-.373.148.523.523 0 0 0-.164.322l-.072.714a3.941 3.941 0 0 0-1.35.29 3.215 3.215 0 0 0-.997.63c-.266.257-.47.547-.61.869-.139.321-.209.652-.209.99 0 .46.077.841.23 1.146.157.304.36.555.61.753.248.197.528.354.838.47.31.115.623.216.937.302l-.242 2.432a2.656 2.656 0 0 1-.524-.193c-.153-.082-.295-.16-.427-.238a3.787 3.787 0 0 0-.354-.193.704.704 0 0 0-.32-.084.58.58 0 0 0-.289.077.61.61 0 0 0-.21.18L8 15.51c.315.287.7.534 1.154.74zm3.677-2.902a.75.75 0 0 1 .242.585c0 .657-.36 1.047-1.081 1.172l.21-2.124c.261.099.471.221.629.367zm-2.294-2.96a.827.827 0 0 1-.243-.617c0-.112.02-.217.059-.316a.77.77 0 0 1 .184-.276c.087-.082.198-.15.334-.206.14-.06.31-.105.511-.135l-.197 1.943a2.086 2.086 0 0 1-.649-.393z" fill="currentcolor"/></svg>