<svg xmlns="http://www.w3.org/2000/svg" width="24" height="24" fill="none" viewBox="0 0 24 24"><path fill="currentcolor" fill-rule="evenodd" d="M18.962 3.991a.992.992 0 0 1 .982 1.045l-.207 3.875a16.672 16.672 0 0 1-3.445 9.29 5.335 5.335 0 0 1-5.592 1.898l3.794-7.586c.257-.515-.415-.985-.81-.568l-6.378 6.732-.01-.007-.242.273L7 19l.002.002-.761.86a1.5 1.5 0 0 1-2.248-1.986l1.186-1.341a7.368 7.368 0 0 1-.749-1.505l-.601-1.664a5.138 5.138 0 0 1 1.55-5.702 16.057 16.057 0 0 1 10.388-3.7l3.195.027Z" clip-rule="evenodd"/></svg>