<svg width="24" height="24" fill="none" xmlns="http://www.w3.org/2000/svg"><path fill-rule="evenodd" clip-rule="evenodd" d="M20.777 11.257a1.19 1.19 0 0 1 1.052 1.095l.169 2.59a1.172 1.172 0 0 1-1.18 1.262h-.835a2.5 2.5 0 0 0-4.966 0H8.982a2.5 2.5 0 0 0-4.965 0H3.2c-.652 0-1.199-.547-1.199-1.2v-2.547c0-.379.084-.758.21-1.115l2.022-4.59A1.89 1.89 0 0 1 6 5.533h6.48c.8 0 1.536.358 2.02.968l2.825 4.357 3.452.4zm-7.205-1.02-2.946 4.671c-.112.179-.403.075-.362-.128l.493-2.517c.022-.114-.07-.219-.194-.219H8.197c-.153 0-.247-.157-.169-.281l2.946-4.672c.112-.178.403-.074.363.13l-.494 2.516c-.023.114.07.22.194.22h2.366c.153 0 .247.156.169.28zM6.5 18a1.5 1.5 0 1 0 0-3 1.5 1.5 0 0 0 0 3zm11 0a1.5 1.5 0 1 0 0-3 1.5 1.5 0 0 0 0 3z" fill="currentcolor"/></svg>