<svg viewBox="0 0 24 24" fill="none" xmlns="http://www.w3.org/2000/svg"><path fill-rule="evenodd" clip-rule="evenodd" d="M12 2C6.4771 2 2 6.4771 2 12c0 5.5228 4.4771 10 10 10 5.5228 0 10-4.4772 10-10 0-5.5229-4.4772-10-10-10Zm-3.4178 8.4589h-.7967v1.0954h.6573a2.61 2.61 0 0 0-.0067.1859v.4182h-.6506v1.0954h.7502c.0841.54.2235 1.0313.4183 1.4739.1991.4426.4514.821.7568 1.1352.3098.3143.6727.5599 1.0888.7369.4204.1726.894.259 1.4207.259.6329 0 1.1972-.1284 1.6929-.3851.4957-.2611.8963-.6418 1.2017-1.1419l-.9029-.8033c-.0487-.0487-.0952-.0819-.1394-.0996-.0399-.0177-.0908-.0265-.1527-.0265-.0753 0-.1417.0199-.1992.0597a1.3666 1.3666 0 0 0-.166.1328l-.1792.1792c-.062.0664-.1394.1262-.2324.1793-.0929.0531-.2058.0996-.3386.1394-.1328.0354-.2921.0531-.478.0531-.416 0-.7679-.1549-1.0556-.4647-.2876-.3098-.489-.7856-.6041-1.4274h1.8987c.0841 0 .1594-.0132.2257-.0398.0709-.031.1306-.0686.1793-.1129a.5524.5524 0 0 0 .1129-.1593.4096.4096 0 0 0 .0398-.1726v-.6108h-2.5626v-.4182c0-.062.0022-.124.0066-.1859h2.6357c.0841 0 .1593-.0133.2257-.0399.0708-.0309.1305-.0686.1792-.1128a.5537.5537 0 0 0 .1129-.1593.41.41 0 0 0 .0398-.1727v-.6107h-3.0539c.1372-.5754.3519-1.0091.644-1.3013.2965-.2965.6528-.4448 1.0689-.4448.2522 0 .4514.0332.5975.0996.146.0664.2677.1417.3651.2257a5.001 5.001 0 0 1 .2523.2191c.0752.0664.166.0996.2722.0996.0974 0 .1748-.02.2323-.0597.062-.0443.1173-.093.166-.1461l.7568-.7834c-.2788-.4116-.6483-.7413-1.1086-.9892C13.4972 7.1261 12.955 7 12.3265 7c-.4647 0-.9007.0819-1.3078.2456a3.5223 3.5223 0 0 0-1.0955.6971c-.323.301-.5997.6661-.8298 1.0954-.2302.425-.4006.8985-.5112 1.4208Z" fill="currentcolor"/></svg>