<svg viewBox="0 0 24 24" fill="none" xmlns="http://www.w3.org/2000/svg"><path fill-rule="evenodd" clip-rule="evenodd" d="M2 6.125C2 4.9514 2.9514 4 4.125 4H6.25c1.4116 0 2.6089.9176 3.028 2.1888.56.0015 1.1452.0023 1.7532.0023 2.8982 0 5.2796-.0189 6.8681-.0365 1.1887-.0132 2.1632.9458 2.1632 2.1346v.5012h-8.8316a3.0701 3.0701 0 0 0-2.952 2.2267L6.48 17.3136a.8009.8009 0 1 0 1.5402.44l1.799-6.2964a1.4683 1.4683 0 0 1 1.4118-1.065h9.7407c.6025.1093 1.0047.722.8289 1.3372l-1.738 6.0831c-.3218 1.6091-1.5826 2.8453-3.2181 2.9782-1.3738.1116-3.2954.2093-5.8132.2093-2.8668 0-5.0874-.2365-6.6093-.4785C2.9649 20.2898 2 19.0044 2 17.5292V6.125Z" fill="currentcolor"/></svg>