<svg viewBox="0 0 24 24" fill="none" xmlns="http://www.w3.org/2000/svg"><path fill-rule="evenodd" clip-rule="evenodd" d="M19.5486 3.1477c-.393-.4144-1.0282-.3976-1.4081.0048L13.4628 7.83 8.397 3.7775 2.2909 11.767c-.3536.38-.3676.9777-.0384 1.3767l.0021.0025c.1888.2257.4607.3538.7453.3538a.964.964 0 0 0 .6704-.2731l.0365-.0353 5.1195-6.7728 4.9743 3.9613 5.7567-5.8054.0077-.0086c.3622-.4007.3547-1.027-.0164-1.4185ZM17 10.0001c0-.5523.4477-1 1-1h3c.5523 0 1 .4477 1 1v10c0 .5523-.4477 1-1 1h-3c-.5523 0-1-.4477-1-1v-10Zm-6 2c-.5523 0-1 .4477-1 1v7c0 .5523.4477 1 1 1h3c.5523 0 1-.4477 1-1v-7c0-.5523-.4477-1-1-1h-3Zm-7 3c-.5523 0-1 .4477-1 1v4c0 .5523.4477 1 1 1h3c.5523 0 1-.4477 1-1v-4c0-.5523-.4477-1-1-1H4Z" fill="currentcolor"/></svg>