<svg width="24" height="24" fill="none" xmlns="http://www.w3.org/2000/svg"><path fill-rule="evenodd" clip-rule="evenodd" d="M9 2a2 2 0 0 0-2 2v1.607c-1.366.061-2.462.14-3.276.21C2.732 5.904 2 6.74 2 7.735v9.703c0 .918.625 1.712 1.53 1.87C5.22 19.6 8.21 20 12 20c3.79 0 6.78-.399 8.47-.693.905-.157 1.53-.95 1.53-1.869V7.735c0-.996-.732-1.831-1.724-1.918-.814-.07-1.91-.149-3.276-.21V4a2 2 0 0 0-2-2H9zm0 2.5a.5.5 0 0 1 .5-.5h5a.5.5 0 0 1 .5.5v1a.5.5 0 0 1-.5.5h-5a.5.5 0 0 1-.5-.5v-1zm1 4.828c0-.53.231-1.04.743-1.18A4.767 4.767 0 0 1 12 8c.542 0 .953.065 1.258.149.511.14.742.649.742 1.18V11h1.672c.53 0 1.04.23 1.18.742.083.305.148.716.148 1.258s-.065.953-.149 1.258c-.14.511-.649.742-1.18.742h-1.67v1.672c0 .53-.232 1.04-.743 1.18A4.765 4.765 0 0 1 12 18c-.542 0-.953-.065-1.257-.149-.512-.14-.743-.649-.743-1.18V15H8.328c-.53 0-1.04-.23-1.18-.742A4.767 4.767 0 0 1 7 13c0-.542.065-.953.149-1.258.14-.511.649-.742 1.18-.742H10V9.328z" fill="currentcolor"/></svg>