<svg width="24" height="24" fill="none" xmlns="http://www.w3.org/2000/svg"><path fill-rule="evenodd" clip-rule="evenodd" d="M11 3a1 1 0 0 0-1-1H9a1 1 0 0 0-1 1v.5a.5.5 0 0 0 .5.5H9v5.873l-.93.774c-2.113 1.758-3.32 4.238-3.227 6.486.047 1.139.432 2.236 1.231 3.1.801.867 1.946 1.424 3.375 1.608.786.102 1.635.159 2.551.159.916 0 1.765-.057 2.551-.159 1.429-.184 2.574-.74 3.375-1.608.799-.864 1.184-1.961 1.231-3.1.093-2.248-1.114-4.728-3.226-6.486L15 9.873V4h.499a.5.5 0 0 0 .5-.5V3a1 1 0 0 0-1-1h-1a1 1 0 0 0-1 1v7.81l1.651 1.375a7.62 7.62 0 0 1 1.63 1.868c-1.015-.255-2.567-.553-4.281-.553-1.714 0-3.265.298-4.28.553a7.62 7.62 0 0 1 1.629-1.868L11 10.81V3zm3.25 14.5a1.25 1.25 0 1 0 0-2.5 1.25 1.25 0 0 0 0 2.5zM12 18a1 1 0 1 1-2 0 1 1 0 0 1 2 0z" fill="currentcolor"/></svg>