<svg xmlns="http://www.w3.org/2000/svg" width="24" height="24" fill="none" viewBox="0 0 24 24"><path fill="currentcolor" fill-rule="evenodd" d="M5 6.99c-.054.007-.11.01-.165.01h-.67C3.557 7 3 6.608 3 6s.557-1 1.165-1h.67c.057 0 .113.003.169.01.062-1.228.875-2.29 2.093-2.53A25.78 25.78 0 0 1 12 2c1.949 0 3.66.237 4.904.48 1.217.24 2.03 1.302 2.092 2.53.056-.007.112-.01.169-.01h.67C20.443 5 21 5.392 21 6s-.557 1-1.165 1h-.67c-.055 0-.11-.003-.165-.01v2.02c.054-.007.11-.01.165-.01h.67C20.443 9 21 9.392 21 10s-.557 1-1.165 1h-.67c-.055 0-.11-.003-.165-.01v2.02c.054-.007.11-.01.165-.01h.67c.608 0 1.165.392 1.165 1s-.557 1-1.165 1h-.67c-.055 0-.11-.003-.165-.01v2.02c.054-.007.11-.01.165-.01h.67c.608 0 1.165.392 1.165 1s-.557 1-1.165 1h-.67c-.057 0-.113-.003-.169-.01-.062 1.228-.875 2.29-2.092 2.53-1.243.243-2.955.48-4.904.48-1.949 0-3.66-.237-4.903-.48-1.218-.24-2.03-1.302-2.093-2.53-.056.007-.112.01-.169.01h-.67C3.557 19 3 18.608 3 18s.557-1 1.165-1h.67c.056 0 .11.003.165.01v-2.02a1.41 1.41 0 0 1-.165.01h-.67C3.557 15 3 14.608 3 14s.557-1 1.165-1h.67c.056 0 .11.003.165.01v-2.02a1.41 1.41 0 0 1-.165.01h-.67C3.557 11 3 10.608 3 10s.557-1 1.165-1h.67c.056 0 .11.003.165.01V6.99ZM16 20H8a1 1 0 0 1-1-1V5a1 1 0 0 1 1-1h8a1 1 0 0 1 1 1v14a1 1 0 0 1-1 1ZM10 6.5V5.455H8.429v5.818h1.564c.151-.419.425-.78.785-1.036a2.117 2.117 0 0 1 2.451 0c.36.256.634.617.785 1.036h1.557V5.455H14V6.5a.5.5 0 0 1-.5.5h-3a.5.5 0 0 1-.5-.5Zm2.594 5.904a.737.737 0 0 0-.089-.918.708.708 0 0 0-1.165.236.74.74 0 0 0 .155.792.71.71 0 0 0 .778.158.717.717 0 0 0 .32-.268Zm-4.165.323v5.819H10l.005-1.048a.5.5 0 0 1 .5-.498h3a.5.5 0 0 1 .5.502L14 18.546h1.571v-5.819h-1.564c-.151.419-.425.78-.785 1.036a2.117 2.117 0 0 1-2.451 0 2.178 2.178 0 0 1-.785-1.036H8.429Z" clip-rule="evenodd"/></svg>