<svg viewBox="0 0 24 24" fill="none" xmlns="http://www.w3.org/2000/svg"><path fill-rule="evenodd" clip-rule="evenodd" d="M5 6.9903A1.4065 1.4065 0 0 1 4.835 7h-.67C3.557 7 3 6.608 3 6s.557-1 1.165-1h.67c.0569 0 .1133.0034.1688.0102.0623-1.228.8755-2.2909 2.0927-2.5293C8.3393 2.2374 10.051 2 12 2c1.949 0 3.6607.2374 4.9035.4809 1.2172.2384 2.0304 1.3014 2.0927 2.5293A1.4047 1.4047 0 0 1 19.165 5h.67C20.4429 5 21 5.392 21 6s-.5571 1-1.165 1h-.67A1.4066 1.4066 0 0 1 19 6.9903v2.0194A1.4066 1.4066 0 0 1 19.165 9h.67C20.4429 9 21 9.392 21 10c0 .6079-.5571 1-1.165 1h-.67a1.411 1.411 0 0 1-.165-.0097v2.0194A1.411 1.411 0 0 1 19.165 13h.67c.6079 0 1.165.3921 1.165 1s-.5571 1-1.165 1h-.67a1.411 1.411 0 0 1-.165-.0097v2.0194A1.411 1.411 0 0 1 19.165 17h.67c.6079 0 1.165.3921 1.165 1s-.5571 1-1.165 1h-.67a1.4088 1.4088 0 0 1-.1688-.0101c-.0623 1.2278-.8755 2.2908-2.0927 2.5292C15.6607 21.7626 13.949 22 12 22c-1.949 0-3.6607-.2374-4.9035-.4809-1.2172-.2384-2.0304-1.3014-2.0926-2.5292a1.4111 1.4111 0 0 1-.169.0101H4.165C3.557 19 3 18.6079 3 18s.557-1 1.165-1h.67c.0555 0 .1107.0033.165.0097v-2.0194A1.4108 1.4108 0 0 1 4.835 15h-.67C3.557 15 3 14.6079 3 14s.557-1 1.165-1h.67c.0555 0 .1107.0033.165.0097v-2.0194A1.4108 1.4108 0 0 1 4.835 11h-.67C3.557 11 3 10.6079 3 10c0-.608.557-1 1.165-1h.67c.0555 0 .1107.0033.165.0097V6.9903ZM16 20H8c-.5523 0-1-.4477-1-1V5c0-.5523.4477-1 1-1h8c.5523 0 1 .4477 1 1v14c0 .5523-.4477 1-1 1ZM10 6.5V5.4546H8.4286v5.8181h1.5643a2.1774 2.1774 0 0 1 .7851-1.0354 2.1166 2.1166 0 0 1 1.2256-.392c.4383 0 .8661.1368 1.2256.392.3595.2553.6335.6167.7851 1.0354h1.5571V5.4545H14V6.5a.5.5 0 0 1-.5.5h-3a.5.5 0 0 1-.5-.5Zm2.5939 5.9041A.7369.7369 0 0 0 12.7143 12a.7343.7343 0 0 0-.2092-.5143.708.708 0 0 0-.5051-.213.705.705 0 0 0-.3968.1226.724.724 0 0 0-.2631.3264.7398.7398 0 0 0-.0407.4202.732.732 0 0 0 .1955.3724.7109.7109 0 0 0 .3657.199.7017.7017 0 0 0 .4127-.0414.7165.7165 0 0 0 .3206-.2678Zm-4.1653.3232v5.8182H10l.0048-1.0478a.5.5 0 0 1 .5-.4977h3a.5.5 0 0 1 .5.5023L14 18.5455h1.5714v-5.8182h-1.5643a2.177 2.177 0 0 1-.7851 1.0354 2.1167 2.1167 0 0 1-1.2256.3921 2.1167 2.1167 0 0 1-1.2256-.3921 2.1782 2.1782 0 0 1-.785-1.0354H8.4285Z" fill="currentcolor"/></svg>