<svg width="24" height="24" fill="none" xmlns="http://www.w3.org/2000/svg"><path d="M21.977 15.999s.207-1.948.023-3.499c-.19-1.597-1-4.5-1-4.5-.5-2-2.1-3.241-4.297-2.97a3.976 3.976 0 0 0-2.593 1.444H9.978A3.976 3.976 0 0 0 7.385 5.03C5.188 4.759 3.5 6 3 8c0 0-.735 2.083-1 4.5-.149 1.358.023 3.499.023 3.499.099 1.31 1.143 3.747 3.077 3.972 1.714.226 3.34-.902 3.78-2.663l.527-2.076h5.142l.527 2.076c.44 1.715 2.066 2.844 3.78 2.663 2.144-.47 3.12-2.97 3.12-3.972zM6.418 9.273a1.15 1.15 0 0 1-1.142-1.174c0-.677.483-1.173 1.142-1.173.66 0 1.143.496 1.143 1.173s-.483 1.174-1.143 1.174zm10.856-2.89c.44 0 .791.362.791.813a.799.799 0 0 1-.79.813.799.799 0 0 1-.792-.813c0-.451.352-.812.791-.812zm-1.538 3.251a.799.799 0 0 1-.791-.812c0-.452.351-.813.79-.813.44 0 .792.361.792.813.044.45-.308.812-.791.812zm1.538 1.58a.799.799 0 0 1-.791-.813c0-.451.352-.812.791-.812.44 0 .791.361.791.813.044.45-.351.812-.79.812zm1.538-1.58a.799.799 0 0 1-.79-.812c0-.452.35-.813.79-.813.44 0 .791.361.791.813.044.45-.351.812-.79.812z" fill="currentcolor"/></svg>