<svg xmlns="http://www.w3.org/2000/svg" viewBox="0 0 24 24" fill="none"><path d="M21.9768 15.999s.207-1.9481.0232-3.4989c-.1893-1.5968-1-4.5-1-4.5-.5-2-2.0998-3.2413-4.2973-2.9705-1.0548.1354-1.9778.6771-2.5931 1.4445H9.9783C9.363 5.7067 8.44 5.1651 7.3852 5.0297 5.1877 4.7588 3.5 6.0001 3 8.0001c0 0-.7355 2.0828-1 4.5-.1487 1.3583.0232 3.4989.0232 3.4989.0984 1.3091 1.1427 3.7468 3.0766 3.9725 1.714.2257 3.3402-.9029 3.7797-2.6634l.5274-2.0765h5.1422l.5274 2.0765c.4395 1.7154 2.0657 2.8439 3.7798 2.6634 2.1437-.4714 3.1205-2.9714 3.1205-3.9725zM6.4183 9.273c-.6153 0-1.1427-.4966-1.1427-1.1738 0-.677.4834-1.1736 1.1427-1.1736.6592 0 1.1427.4965 1.1427 1.1736 0 .6772-.4835 1.1737-1.1427 1.1737zM17.274 6.3838c.4395 0 .7911.3611.7911.8125s-.3516.8126-.7911.8126-.7911-.3612-.7911-.8126c0-.4514.3516-.8125.7911-.8125zM15.7358 9.634c-.4395 0-.7911-.3612-.7911-.8126 0-.4514.3516-.8125.7911-.8125s.7911.3611.7911.8125c.044.4514-.3076.8126-.7911.8126zm1.5383 1.5799c-.4395 0-.7911-.3611-.7911-.8125 0-.4515.3516-.8126.7911-.8126s.7911.3611.7911.8126c.0439.4514-.3516.8125-.7911.8125zm1.5382-1.58c-.4395 0-.7911-.361-.7911-.8125 0-.4514.3516-.8125.7911-.8125s.7911.3611.7911.8125c.044.4514-.3516.8126-.7911.8126z" fill="currentcolor"/></svg>