<svg viewBox="0 0 24 24" fill="none" xmlns="http://www.w3.org/2000/svg"><path d="M19.2 14h1.1823c.7433 0 1.2212-.7801.8411-1.4189C19.3541 9.439 16.752 6.726 14.129 4.114c-1.1741-1.1692-3.0837-1.169-4.2577.0003C7.2486 6.7265 4.6465 9.439 2.7771 12.581 2.397 13.2199 2.8748 14 3.6181 14H4.8l.1532 5.7386c.0269 1.0068.7982 1.8365 1.8003 1.9367l2.697.2697a.5.5 0 0 0 .5497-.4975V16c0-.5523.4478-1 1-1h2c.5523 0 1 .4477 1 1v5.4475a.5.5 0 0 0 .5498.4975l2.6969-.2697c1.0021-.1002 1.7734-.93 1.8002-1.9368L19.2 14Z" fill="currentcolor"/></svg>