<svg xmlns="http://www.w3.org/2000/svg" width="24" height="24" fill="none" viewBox="0 0 24 24"><path fill="currentcolor" fill-rule="evenodd" d="m19.25 4.093.66.658a3.732 3.732 0 0 1 0 5.272l-4.285 4.284a3.73 3.73 0 0 1-5.272 0 .931.931 0 1 1 1.319-1.318c.703.704 1.93.704 2.635 0l4.285-4.283a1.868 1.868 0 0 0 0-2.636l-.66-.658c-.705-.706-1.931-.705-2.635 0L13.444 7.26a.93.93 0 1 1-1.318-1.318l1.853-1.85A3.707 3.707 0 0 1 16.614 3a3.7 3.7 0 0 1 2.637 1.093Zm-5.602 5.602.658.657a.933.933 0 0 1-1.318 1.32l-.66-.66c-.703-.704-1.93-.704-2.635 0l-4.285 4.283a1.868 1.868 0 0 0 0 2.636l.66.658c.705.706 1.931.705 2.635 0l2.025-2.022a.93.93 0 0 1 1.318 0 .93.93 0 0 1 0 1.318l-2.025 2.023A3.703 3.703 0 0 1 7.386 21a3.7 3.7 0 0 1-2.637-1.093l-.659-.658a3.73 3.73 0 0 1 0-5.272l4.285-4.283a3.732 3.732 0 0 1 5.273 0Z" clip-rule="evenodd"/></svg>