<svg viewBox="0 0 24 24" fill="none" xmlns="http://www.w3.org/2000/svg"><path fill-rule="evenodd" clip-rule="evenodd" d="M11.9165 8.1164c1.1367 0 2.0582-.9215 2.0582-2.0582C13.9747 4.9215 13.0532 4 11.9165 4c-1.1367 0-2.0582.9215-2.0582 2.0582 0 1.1367.9215 2.0582 2.0582 2.0582ZM10.499 19.3592c.4272.4272 1.0171.6408 1.7698.6408h1.434c.2848 0 .4272-.122.4272-.3661v-7.0484c0-.7527-.2136-1.3426-.6407-1.7697-.4272-.4272-1.0171-.6408-1.7698-.6408h-1.434c-.2848 0-.4272.122-.4272.3661v7.0484c0 .7527.2136 1.3426.6407 1.7697Z" fill="currentcolor"/></svg>