<svg xmlns="http://www.w3.org/2000/svg" width="24" height="24" fill="none" viewBox="0 0 24 24"><path fill="currentcolor" fill-rule="evenodd" d="M20.592 7.5H19.1a.296.296 0 0 0-.193.073l-2.99 2.637c-1.023.905-2.402 1.412-3.917 1.412-1.58 0-3.009-.554-4.044-1.526 0 0-2.2-1.94-2.218-1.958A2.617 2.617 0 0 0 4.066 7.5H2.281c-.155 0-.281.118-.281.264v7.412c0 .732.63 1.324 1.408 1.324h.914c.156 0 .283-.12.283-.266v-2.638c0-.689.6-1.258 1.32-1.258 1.344 0 2.307 1.082 3.178 1.804 1.066.885 1.887 1.738 2.897 1.738 1.01 0 1.83-.853 2.897-1.738.87-.722 1.834-1.803 3.176-1.803.718 0 1.314.562 1.321 1.246v1.591c0 .732.63 1.323 1.41 1.323h.607l.306.001c.156 0 .283-.12.283-.266v-7.41c0-.732-.63-1.324-1.408-1.324Z" clip-rule="evenodd"/></svg>