<svg viewBox="0 0 24 24" fill="none" xmlns="http://www.w3.org/2000/svg"><path fill-rule="evenodd" clip-rule="evenodd" d="M3 5.251C3 4.0077 4.0078 3 5.251 3h2.2508c1.7947 0 3.2624 1.4002 3.3701 3.1678.4056.0007.8232.0011 1.2521.0011 3.0209 0 5.4862-.0203 7.0891-.0385 1.1189-.0128 2.0349.8898 2.0349 2.0087V17c-.1516 1.834-1.3558 3.395-3.1722 3.6903-1.4456.2351-3.4285.4396-5.9518.4396-2.8963 0-5.1397-.2389-6.6772-.4834C3.9748 20.4124 3 19.1138 3 17.6234V5.2509Zm15.8474 9.9765c.289-.1054.5127-.2529.6709-.4423V13.083h-1.6787v.6475h.7998v.7353c-.1407.1406-.376.211-.7061.211-.3281 0-.5771-.1143-.7471-.3428-.1699-.2285-.2548-.5664-.2548-1.0137v-.2724c.0019-.4434.081-.7774.2373-1.002.1562-.2246.3838-.3369.6826-.3369.2344 0 .418.0566.5508.1699.1347.1133.2216.292.2607.5361h.8555c-.0528-.4609-.2217-.8115-.5069-1.0517-.2851-.2422-.6806-.3633-1.1865-.3633-.3633 0-.6806.083-.9521.249-.2696.1641-.4766.4024-.6211.7149-.1426.3105-.2139.6787-.2139 1.1045v.29c.0039.4141.0811.7744.2315 1.0811.1523.3066.3671.541.6445.7031.2793.1601.6035.2402.9726.2402.3516 0 .6719-.0517.961-.1553ZM7.8623 11.0586h-.8789v2.9531c0 .2129-.0498.377-.1494.4922-.0996.1152-.2334.1729-.4014.1729-.1894 0-.3281-.0498-.416-.1495-.0879-.0996-.1318-.2539-.1318-.4628H5c0 .4199.126.7451.378.9755.2519.2286.6034.3428 1.0546.3428.2754 0 .5225-.0566.7412-.1699.2188-.1133.3877-.2734.5069-.4805.121-.209.1816-.4492.1816-.7207v-2.9531Zm1.7252 4.2656v-1.5029h.7705c.5058 0 .9013-.1201 1.1865-.3604.2871-.2421.4307-.5722.4307-.9902 0-.2754-.0655-.5205-.1963-.7353-.1309-.2168-.3184-.3838-.5625-.501-.2422-.1172-.5235-.1758-.8438-.1758h-1.664v4.2656h.8789Zm.7851-2.2148h-.7851v-1.3389h.8056c.2168.0039.3868.0703.5098.1992.1231.1289.1846.2979.1846.5069 0 .2031-.0615.3593-.1846.4687-.1211.1094-.2978.1641-.5303.1641Zm4.8688.3662h-1.6875v1.1426h1.9804v.706h-2.8594v-4.2656h2.8536v.7119h-1.9746v1.0166h1.6875v.6885Z" fill="currentcolor"/></svg>