<svg viewBox="0 0 24 24" fill="none" xmlns="http://www.w3.org/2000/svg"><g clip-path="url(#ld-icon-0a)"><path d="M12.189 3.811c-1.4807 1.4807-1.9181 3.6082-1.3154 5.4728L3.7833 16.374a1.0002 1.0002 0 0 0-.2887.6153l-.2202 2.3857c-.0295.3199.246.5842.5644.5416l3.4128-.4574a.5.5 0 0 0 .4336-.4956v-1.1412a.5.5 0 0 1 .5-.5h1.5787v-1.5787a.5.5 0 0 1 .5-.5h1.5787l2.4955-2.4955c1.8646.6027 3.9921.1653 5.4729-1.3154 2.1047-2.1048 2.1047-5.5172 0-7.622-2.1048-2.1047-5.5172-2.1047-7.622 0Zm3.9842 1.559c.574-.574 1.5047-.574 2.0787 0 .574.574.574 1.5047 0 2.0787-.574.574-1.5047.574-2.0787 0-.574-.574-.574-1.5047 0-2.0787Z" fill="currentcolor"/></g><defs><clipPath id="ld-icon-0a"><rect width="24" height="24" fill="white"/></clipPath></defs></svg>