<svg width="24" height="24" fill="none" xmlns="http://www.w3.org/2000/svg"><g clip-path="url(#a)"><path d="M12.189 3.811a5.388 5.388 0 0 0-1.315 5.473l-7.09 7.09a1 1 0 0 0-.29.615l-.22 2.386a.5.5 0 0 0 .565.542l3.413-.458a.5.5 0 0 0 .433-.495v-1.141a.5.5 0 0 1 .5-.5h1.579v-1.58a.5.5 0 0 1 .5-.5h1.579l2.495-2.495a5.39 5.39 0 1 0-2.15-8.937zm3.984 1.559a1.47 1.47 0 1 1 2.079 2.079 1.47 1.47 0 0 1-2.079-2.079z" fill="currentcolor"/></g><defs><clipPath id="a"><path fill="#fff" d="M0 0h24v24H0z"/></clipPath></defs></svg>