<svg viewBox="0 0 24 24" fill="none" xmlns="http://www.w3.org/2000/svg"><path fill-rule="evenodd" clip-rule="evenodd" d="M20 13.6689V7.1541c0-.9853-.6869-1.7129-1.5243-1.8015C16.751 5.1701 14.4767 5 12 5c-2.4767 0-4.751.1701-6.4757.3526C4.687 5.4412 4 6.1688 4 7.1541v6.5148c0 .2204.072.3879.1556.4922.0771.0962.1741.1556.3058.1753 1.512.2263 3.9768.4729 7.5386.4729s6.0267-.2466 7.5386-.4729c.1317-.0197.2287-.0791.3058-.1753.0836-.1043.1556-.2718.1556-.4922ZM5.3139 3.3637C3.3886 3.5675 2 5.2181 2 7.1541v6.5148c0 1.3151.8647 2.4508 2.1654 2.6455 1.6163.2419 4.1805.4949 7.8346.4949 3.6541 0 6.2183-.253 7.8346-.4949C21.1353 16.1197 22 14.984 22 13.6689V7.1541c0-1.936-1.3886-3.5866-3.3139-3.7904C16.9113 3.176 14.5643 3 12 3c-2.5643 0-4.9113.176-6.6861.3637ZM2 17.8767c0-.2029.1704-.3629.3727-.3471C3.7532 17.6369 8.668 18 12 18c3.3181 0 8.2057-.36 9.6098-.4691.1896-.0147.3344.1644.2822.3472C21.445 19.4426 19.4407 21 17.8136 21H5.1192C3.3942 21 2 19.6016 2 17.8767ZM14 20c.5523 0 1-.4477 1-1H9c0 .5523.4477 1 1 1h4Z" fill="currentcolor"/></svg>