<svg width="24" height="24" fill="none" xmlns="http://www.w3.org/2000/svg"><path fill-rule="evenodd" clip-rule="evenodd" d="M20 13.669V7.154c0-.985-.687-1.713-1.524-1.801A62.419 62.419 0 0 0 12 5c-2.477 0-4.751.17-6.476.353C4.687 5.44 4 6.169 4 7.154v6.515c0 .22.072.388.156.492a.46.46 0 0 0 .305.175c1.512.227 3.977.473 7.539.473s6.027-.246 7.539-.473a.46.46 0 0 0 .305-.175.785.785 0 0 0 .156-.492zM5.314 3.364C3.389 3.567 2 5.218 2 7.154v6.515c0 1.315.865 2.45 2.165 2.645 1.617.242 4.18.495 7.835.495 3.654 0 6.218-.253 7.835-.495 1.3-.194 2.165-1.33 2.165-2.645V7.154c0-1.936-1.389-3.587-3.314-3.79A64.416 64.416 0 0 0 12 3c-2.564 0-4.911.176-6.686.364zM2 17.877c0-.203.17-.363.373-.347 1.38.107 6.295.47 9.627.47 3.318 0 8.206-.36 9.61-.47a.272.272 0 0 1 .282.348C21.445 19.443 19.441 21 17.814 21H5.12A3.12 3.12 0 0 1 2 17.877zM14 20a1 1 0 0 0 1-1H9a1 1 0 0 0 1 1h4z" fill="currentcolor"/></svg>