<svg xmlns="http://www.w3.org/2000/svg" width="24" height="24" fill="none" viewBox="0 0 24 24"><path fill="currentcolor" fill-rule="evenodd" d="M5 4a2 2 0 0 0-2 2v10h10V8.44C13 7.166 13.974 6 15.333 6h5.334c.114 0 .225.008.333.024V6a2 2 0 0 0-2-2H5ZM1 17h12v1H2a1 1 0 0 1-1-1Zm13 0V8.44c0-.696.457-1.276 1.065-1.41.086-.02.176-.03.268-.03h5.334c.115 0 .226.016.333.045.575.16 1 .724 1 1.395v11.52c0 .795-.597 1.44-1.333 1.44h-5.334c-.736 0-1.333-.645-1.333-1.44V17Zm4.8 2.8a.8.8 0 1 1-1.6 0 .8.8 0 0 1 1.6 0Z" clip-rule="evenodd"/></svg>