<svg viewBox="0 0 24 24" fill="none" xmlns="http://www.w3.org/2000/svg"><path fill-rule="evenodd" clip-rule="evenodd" d="M2 8.3656c0-1.452 1.0415-2.69 2.4854-2.8428C5.8165 5.3819 7.5767 5.25 9.5 5.25c1.9233 0 3.6835.132 5.0146.2728.9558.1011 1.7353.6778 2.153 1.4772H16c-.6055 0-1.171.0468-1.675.1156C12.8948 7.3107 12 8.6175 12 10.0609v5.4888c-.7429.0357-1.5749.0573-2.5.0573-2.7406 0-4.6637-.1898-5.876-.3712C2.6485 15.0898 2 14.238 2 13.2517V8.3656ZM12 18.75v-2.3124c-.8712.0372-1.7404.0624-2.5.0624-2.499 0-6.185-.2723-7.2205-.3528A.2596.2596 0 0 0 2 16.4075C2 17.7012 3.0457 18.75 4.3394 18.75H12ZM11 18a.75.75 0 0 0 .75-.75h-4.5A.75.75 0 0 0 8 18h3Zm2-7.3846c0-1.1548.7141-2.1938 1.8503-2.4001C15.5119 8.0952 16.3152 8 17.2 8c.8848 0 1.6881.0952 2.3497.2153 1.1362.2063 1.8503 1.2453 1.8503 2.4001v8.7692c0 1.1548-.7141 2.1938-1.8503 2.4001-.6616.1202-1.4649.2153-2.3497.2153-.8848 0-1.6881-.0951-2.3497-.2153C13.7141 21.5784 13 20.5394 13 19.3846v-8.7692Zm3.45 9.1346a.75.75 0 1 1 1.5 0 .75.75 0 0 1-1.5 0Z" fill="currentcolor"/></svg>