<svg width="24" height="24" fill="none" xmlns="http://www.w3.org/2000/svg"><path fill-rule="evenodd" clip-rule="evenodd" d="M2 8.366c0-1.452 1.041-2.69 2.485-2.843A48.312 48.312 0 0 1 9.5 5.25c1.923 0 3.684.132 5.015.273A2.746 2.746 0 0 1 16.668 7H16c-.605 0-1.171.047-1.675.116C12.895 7.31 12 8.617 12 10.06v5.489a52.14 52.14 0 0 1-2.5.057c-2.74 0-4.664-.19-5.876-.371C2.649 15.09 2 14.238 2 13.252V8.366zM12 18.75v-2.312a60.53 60.53 0 0 1-2.5.062c-2.499 0-6.185-.272-7.22-.353a.26.26 0 0 0-.28.26 2.34 2.34 0 0 0 2.34 2.343H12zM11 18a.75.75 0 0 0 .75-.75h-4.5c0 .414.336.75.75.75h3zm2-7.385c0-1.154.714-2.193 1.85-2.4.662-.12 1.465-.215 2.35-.215s1.688.095 2.35.215c1.136.207 1.85 1.246 1.85 2.4v8.77c0 1.154-.714 2.193-1.85 2.4-.662.12-1.465.215-2.35.215s-1.688-.095-2.35-.215c-1.136-.207-1.85-1.246-1.85-2.4v-8.77zm3.45 9.135a.75.75 0 1 1 1.5 0 .75.75 0 0 1-1.5 0z" fill="currentcolor"/></svg>