<svg viewBox="0 0 24 24" fill="none" xmlns="http://www.w3.org/2000/svg"><path fill-rule="evenodd" clip-rule="evenodd" d="M14.4014 4.5015a6 6 0 0 0-4.8028 0L2.9753 7.3941a1.6261 1.6261 0 0 0 .0704 3.0092l6.8125 2.6033a5.9995 5.9995 0 0 0 4.2836 0l6.8126-2.6033a1.6262 1.6262 0 0 0 .0703-3.0092l-6.6233-2.8926ZM2.9753 13.9954l1.7417-.7607a1.0003 1.0003 0 0 1 .7572-.0177l4.384 1.6753a5.9995 5.9995 0 0 0 4.2836 0l4.384-1.6753a1.0003 1.0003 0 0 1 .7572.0177l1.7417.7607a1.626 1.626 0 0 1-.0703 3.0091l-6.8126 2.6034a6.0006 6.0006 0 0 1-4.2836 0l-6.8125-2.6034a1.626 1.626 0 0 1-.0704-3.0091Z" fill="currentcolor"/></svg>