<svg width="24" height="24" fill="none" xmlns="http://www.w3.org/2000/svg"><path fill-rule="evenodd" clip-rule="evenodd" d="M14.401 4.502a6 6 0 0 0-4.802 0L2.975 7.393a1.626 1.626 0 0 0 .07 3.01l6.813 2.603a6 6 0 0 0 4.284 0l6.812-2.604a1.626 1.626 0 0 0 .07-3.009l-6.623-2.893zM2.975 13.995l1.742-.76a1 1 0 0 1 .757-.018l4.384 1.675a6 6 0 0 0 4.284 0l4.384-1.675a1 1 0 0 1 .757.018l1.742.76a1.626 1.626 0 0 1-.07 3.01l-6.813 2.603a6 6 0 0 1-4.284 0l-6.812-2.604a1.626 1.626 0 0 1-.07-3.009z" fill="currentcolor"/></svg>