<svg viewBox="0 0 24 24" fill="none" xmlns="http://www.w3.org/2000/svg"><path fill-rule="evenodd" clip-rule="evenodd" d="M6 7c0-2.7614 2.2386-5 5-5h2c2.7614 0 5 2.2386 5 5v3c1.1046 0 2 .8954 2 2v5.7679c0 1.3641-.9226 2.5505-2.2695 2.7669C16.2901 20.7662 14.2725 21 12 21c-2.2726 0-4.29-.2338-5.7306-.4652C4.9226 20.3184 4 19.132 4 17.7679V12c0-1.1046.8954-2 2-2V7Zm10 3H8V7c0-1.6569 1.3431-3 3-3h2c1.6569 0 3 1.3431 3 3v3Zm-3 4c0-.5523-.4477-1-1-1s-1 .4477-1 1v2c0 .5523.4477 1 1 1s1-.4477 1-1v-2Z" fill="currentcolor"/></svg>