<svg width="24" height="24" fill="none" xmlns="http://www.w3.org/2000/svg"><path fill-rule="evenodd" clip-rule="evenodd" d="m16 4 2.739-1.1a.44.44 0 0 1 .565.213l.661 1.755a.398.398 0 0 1-.226.533L17 6.501a.44.44 0 0 1-.565-.213l-.661-1.755A.397.397 0 0 1 16 4zm-2.5-.5L9.432 5.317a.713.713 0 0 0-.374.937l1.187 2.766c.156.362.575.53.938.374l4.067-1.816a.713.713 0 0 0 .375-.937l-1.187-2.766A.716.716 0 0 0 13.5 3.5zM8.632 15.78a3.5 3.5 0 0 1 4.7 2.147 1.327 1.327 0 0 0 .972-.043L21 15H21c.696-.314 1.019-1.157.72-1.887v-.002c-.301-.73-1.108-1.064-1.803-.754l-5.587 2.387a4.415 4.415 0 0 0-1.761-1.337h-.002a4.247 4.247 0 0 0-2.121-.302L6.5 4.472l-.001-.004a1.407 1.407 0 0 0-.751-.763 1.318 1.318 0 0 0-1.054.013l-1.426.64h-.003c-.696.316-1.017 1.159-.719 1.887.3.734 1.111 1.066 1.806.755l.163-.073 3.875 8.458c.06.146.142.279.242.394zm3.165 2.734a2.5 2.5 0 0 1-4.594 1.972 2.5 2.5 0 0 1 4.594-1.972zm1.603-9.22 5.537-2.243c.336-.136.724.01.869.327l1.14 2.508a.611.611 0 0 1-.347.82l-5.536 2.244c-.335.135-.724-.011-.869-.328l-1.14-2.508c-.145-.317.011-.684.346-.82z" fill="currentcolor"/></svg>