<svg xmlns="http://www.w3.org/2000/svg" width="24" height="24" fill="none" viewBox="0 0 24 24"><path fill="currentcolor" fill-rule="evenodd" d="M5.848 4.357C3.569 4.627 2 6.61 2 8.904v6.325c0 2.232 1.493 4.16 3.71 4.424 1.603.19 3.71.347 6.29.347s4.687-.157 6.29-.348c2.217-.262 3.71-2.191 3.71-4.424V8.905c0-2.294-1.57-4.277-3.848-4.547A52.54 52.54 0 0 0 12 4c-2.42 0-4.514.163-6.152.357Zm12.995 11.956h-.174l-.339-.006a.774.774 0 0 1-.774-.774v-.939a.743.743 0 0 0-.733-.737c-.624 0-1.1.447-1.52.842-.083.077-.163.153-.242.222l-.254.23c-.473.43-.874.796-1.352.796-.49 0-.905-.382-1.388-.826l-.219-.2c-.08-.07-.161-.146-.245-.225-.421-.394-.896-.84-1.518-.84a.743.743 0 0 0-.734.744v1.548a.157.157 0 0 1-.156.157h-.507a.774.774 0 0 1-.775-.774v-4.376A.156.156 0 0 1 8.07 11h.99c.344.007.674.14.926.376.01.017 1.23 1.16 1.23 1.16a3.248 3.248 0 0 0 4.418.069l1.659-1.549a.146.146 0 0 1 .104-.042h.829a.774.774 0 0 1 .774.774v4.368a.157.157 0 0 1-.157.157Z" clip-rule="evenodd"/></svg>