<svg xmlns="http://www.w3.org/2000/svg" viewBox="0 0 24 24" fill="none"><path fill-rule="evenodd" clip-rule="evenodd" d="M5.8479 4.3567C3.5695 4.6267 2 6.6095 2 8.904v6.3246c0 2.2324 1.493 4.1613 3.7098 4.424C7.3132 19.8425 9.4203 20 12 20c2.5797 0 4.6868-.1575 6.2902-.3475C20.5071 19.3898 22 17.4609 22 15.2285V8.9039c0-2.2944-1.5695-4.2772-3.8479-4.5472C16.5141 4.1627 14.4197 4 12 4c-2.4197 0-4.5141.1626-6.1521.3567zM18.8727 16.313h-.1414l-.2749-.0047a.6286.6286 0 0 1-.6285-.6285v-.762a.6038.6038 0 0 0-.5955-.5987c-.5059 0-.892.3627-1.2337.6836a9.1233 9.1233 0 0 1-.1961.1806c-.0709.0627-.1393.1251-.206.1858-.3843.3503-.7099.647-1.0982.647-.397 0-.7344-.3102-1.1265-.6707a24.5138 24.5138 0 0 0-.1776-.1621 8.8433 8.8433 0 0 1-.1989-.1826c-.3421-.3204-.7276-.6816-1.2325-.6816a.6035.6035 0 0 0-.5955.6034v1.257a.1273.1273 0 0 1-.1272.1272h-.4117A.6285.6285 0 0 1 10 15.6783v-3.5526a.1265.1265 0 0 1 .0374-.0894.1252.1252 0 0 1 .0899-.0363h.8029a1.139 1.139 0 0 1 .7526.3048c.0078.0142.9977.9428.9977.9428a2.6367 2.6367 0 0 0 3.5871.055l1.3466-1.257a.119.119 0 0 1 .0848-.0346h.6725a.6282.6282 0 0 1 .6285.6285v3.5463a.1273.1273 0 0 1-.1273.1272z" fill="currentcolor"/></svg>