<svg width="24" height="24" fill="none" xmlns="http://www.w3.org/2000/svg"><path fill-rule="evenodd" clip-rule="evenodd" d="M5.848 4.357C3.569 4.627 2 6.61 2 8.904v6.325c0 2.232 1.493 4.16 3.71 4.424 1.603.19 3.71.347 6.29.347s4.687-.157 6.29-.348c2.217-.262 3.71-2.191 3.71-4.424V8.905c0-2.294-1.57-4.277-3.848-4.547A52.54 52.54 0 0 0 12 4c-2.42 0-4.514.163-6.152.357zm13.025 11.956h-.142l-.275-.005a.629.629 0 0 1-.628-.628v-.762a.604.604 0 0 0-.596-.599c-.505 0-.892.363-1.233.684a9.123 9.123 0 0 1-.196.18c-.071.063-.14.125-.206.186-.385.35-.71.647-1.099.647-.397 0-.734-.31-1.126-.67a24.514 24.514 0 0 0-.178-.163 8.843 8.843 0 0 1-.199-.182c-.342-.32-.727-.682-1.232-.682a.603.603 0 0 0-.596.603v1.258a.127.127 0 0 1-.127.127h-.411a.629.629 0 0 1-.629-.629v-3.552a.126.126 0 0 1 .079-.117.126.126 0 0 1 .048-.009h.803c.28.006.548.114.753.305.008.014.998.943.998.943a2.637 2.637 0 0 0 3.587.055l1.346-1.257a.119.119 0 0 1 .085-.035h.672a.628.628 0 0 1 .629.629v3.546a.127.127 0 0 1-.127.127z" fill="currentcolor"/></svg>