<svg viewBox="0 0 32 16" fill="none" xmlns="http://www.w3.org/2000/svg"><path fill-rule="evenodd" clip-rule="evenodd" d="M29.7473 0.216217H27.36C27.2411 0.217315 27.1329 0.265096 27.0518 0.341983L22.2686 4.90472C20.63 6.46884 18.4249 7.347 16.0003 7.347C13.4729 7.347 11.1862 6.3881 9.52923 4.70646C9.52923 4.70646 6.01098 1.34976 5.98071 1.31956C5.30549 0.681388 4.37619 0.240382 3.30634 0.216217H0.450324C0.201645 0.216217 0 0.421068 0 0.673699V13.4942C0 14.7595 1.00823 15.7838 2.25324 15.7838H3.12523H3.71449C3.96479 15.7838 4.16752 15.5773 4.16752 15.3236L4.1686 10.7614C4.1686 9.56906 5.12655 8.58545 6.28128 8.58545C8.43073 8.58545 9.97199 10.456 11.3646 11.7054C13.0702 13.2361 14.3839 14.7107 16.0003 14.7107C17.6151 14.7107 18.9293 13.2361 20.6349 11.7054C22.028 10.456 23.5693 8.58545 25.7176 8.58545C26.8664 8.58545 27.8195 9.55917 27.8309 10.7421V13.4942C27.8309 14.7595 28.8396 15.7816 30.0852 15.7816H31.0577C31.3118 15.7816 31.5475 15.7838 31.5475 15.7838C31.7973 15.7838 32 15.5773 32 15.3241C32 15.3175 32 2.61292 32 2.50582C32 1.24102 30.9907 0.216217 29.7473 0.216217Z" fill="currentcolor"/></svg>