<svg xmlns="http://www.w3.org/2000/svg" width="24" height="24" fill="none" viewBox="0 0 24 24"><path fill="currentcolor" fill-rule="evenodd" d="M17.415 15.64c0-.829-.226-1.61-.625-2.296-2.104-.116-3.897-.33-4.79-1.67-.893 1.34-2.686 1.554-4.79 1.67a4.545 4.545 0 0 0-.625 2.297c0 2.717 2.424 4.92 5.415 4.92 2.99 0 5.415-2.204 5.415-4.92Zm-1.981-9.492c0-.275-.04-.541-.113-.795-.096.006-.194.01-.292.01-1.327 0-2.476-.592-3.029-1.451-.553.86-1.702 1.45-3.03 1.45a4.5 4.5 0 0 1-.291-.01c-.074.255-.113.52-.113.796C8.566 7.87 9.207 10 12 10c2.5 0 3.434-2.13 3.434-3.852ZM19 15.64c0-.222-.013-.441-.037-.658-.109-1.362-.446-2.725-1.181-4.087-.85-1.572-1.167-3.145-1.217-4.718v-.03C16.565 3.857 14.521 2 12 2 9.479 2 7.435 3.857 7.435 6.148c-.047 1.582-.364 3.165-1.219 4.747-.746 1.381-1.081 2.764-1.185 4.146-.02.197-.031.397-.031.6C5 19.152 8.134 22 12 22s7-2.847 7-6.36ZM14 6.5a.5.5 0 1 1-1 0 .5.5 0 0 1 1 0Zm-3.5.5a.5.5 0 1 0 0-1 .5.5 0 0 0 0 1Zm.7 1a.2.2 0 0 0-.2.2.8.8 0 0 0 .8.8h.4a.8.8 0 0 0 .8-.8.2.2 0 0 0-.2-.2h-1.6Z" clip-rule="evenodd"/></svg>