<svg xmlns="http://www.w3.org/2000/svg" width="24" height="24" fill="none" viewBox="0 0 24 24"><path fill="currentcolor" fill-rule="evenodd" d="M5.5 8a.5.5 0 0 1-.5-.5V4.618c0-.379.216-.72.576-.837C6.483 3.487 8.512 3 12 3c3.489 0 5.517.487 6.424.781.36.117.576.458.576.837V7.5a.5.5 0 0 1-.5.5H17V5.5a.5.5 0 0 0-.5-.5h-1a.5.5 0 0 0-.5.5V8H5.5Zm10 1H6.509a.5.5 0 0 0-.5.5v1.979c.451.359.991.593 1.566.675l2.083.297a.399.399 0 0 1 .342.395V19a.5.5 0 0 1-.5.5h-1a2.997 2.997 0 0 1-2.491-1.328v1.287S5.509 22 12 22c6.49 0 5.991-2.54 5.991-2.54V9.5a.5.5 0 0 0-.5-.5H15.5Z" clip-rule="evenodd"/></svg>