<svg width="24" height="24" fill="none" xmlns="http://www.w3.org/2000/svg"><path fill-rule="evenodd" clip-rule="evenodd" d="M19.856 12.967a7.89 7.89 0 0 1-.126.962h-9.5a5.79 5.79 0 0 1-.173-.962h9.8zm-8.521 3.118a5.819 5.819 0 0 1-.685-1.055h8.781a7.826 7.826 0 0 1-.46 1.055h-7.636zm4.509 2.145a5.786 5.786 0 0 1-3.324-1.044h5.747a7.928 7.928 0 0 1-.675.776 5.769 5.769 0 0 1-1.748.268zm0-11.626c.61 0 1.197.094 1.748.268.213.215.415.443.603.682h-5.536c.914-.6 2.009-.95 3.185-.95zM10.699 9.71c.199-.378.439-.732.714-1.055h7.507c.184.338.344.69.477 1.055H10.7zm-.642 2.156c.034-.362.101-.715.199-1.055h9.455c.071.344.12.697.145 1.055h-9.8zM21 12.417a9 9 0 1 1-18 0 9 9 0 0 1 18 0z" fill="currentcolor"/></svg>