<svg width="24" height="24" fill="none" xmlns="http://www.w3.org/2000/svg"><path fill-rule="evenodd" clip-rule="evenodd" d="m18.031 4.664-.233-.233.662-.663a.5.5 0 0 0 0-.707l-.707-.708a.5.5 0 0 0-.707 0l-.663.663-.366-.366c-.22-.22-.534-.303-.812-.166-.636.314-1.941 1.127-3.982 3.167-2.04 2.04-2.853 3.346-3.167 3.982-.137.278-.054.593.166.812l2.014 2.014c.22.22.534.303.812.166.496-.245 1.4-.794 2.742-1.992a3.803 3.803 0 0 1 1.818 3.24c0 2.096-1.705 3.801-3.8 3.801A3.811 3.811 0 0 1 8.665 16h2.884c.248 0 .45-.224.45-.5v-1c0-.276-.202-.5-.45-.5h-8.1c-.248 0-.45.224-.45.5v1c0 .276.202.5.45.5h2.889a5.926 5.926 0 0 0 2.618 3H7.75a.75.75 0 0 0-.75.75A2.25 2.25 0 0 0 9.25 22h5.5A2.25 2.25 0 0 0 17 19.75a.75.75 0 0 0-.75-.75h-1.577a5.869 5.869 0 0 0 .644-9.833c1.83-1.875 2.581-3.086 2.88-3.691.137-.278.053-.593-.166-.812z" fill="currentcolor"/></svg>