<svg width="24" height="24" fill="none" xmlns="http://www.w3.org/2000/svg"><path fill-rule="evenodd" clip-rule="evenodd" d="M6 5.736c0-1.65 1.02-3.134 2.643-3.428A18.889 18.889 0 0 1 12 2c1.264 0 2.412.136 3.357.308C16.98 2.602 18 4.087 18 5.736v12.528c0 1.65-1.02 3.134-2.643 3.428A18.88 18.88 0 0 1 12 22c-1.264 0-2.412-.136-3.357-.308C7.02 21.398 6 19.913 6 18.264V5.736zM7 7a2 2 0 0 1 2-2h6a2 2 0 0 1 2 2v11a2 2 0 0 1-2 2H9a2 2 0 0 1-2-2V7zm5 10a1 1 0 1 0 0 2 1 1 0 0 0 0-2z" fill="currentcolor"/></svg>