<svg viewBox="0 0 24 24" fill="none" xmlns="http://www.w3.org/2000/svg"><path fill-rule="evenodd" clip-rule="evenodd" d="M17.3669 5C18.2625 5 19 4.3226 19 3.5S18.2625 2 17.3669 2H6.6331C5.7375 2 5 2.6774 5 3.5S5.7375 5 6.6331 5H17.367Zm-2.523 3.1363c.1-.1936.1561-.4095.1561-.6363 0-.8226-.7375-1.5-1.6331-1.5H2.6331C1.7375 6 1 6.6774 1 7.5S1.7375 9 2.6331 9h9.9405a7.2042 7.2042 0 0 1 2.2703-.8637ZM9.5398 18c.4892 1.1923 1.2869 2.2254 2.2939 3H4.6331C3.7375 21 3 20.3226 3 19.5S3.7375 18 4.6331 18h4.9067Zm-.4324-4A7.2951 7.2951 0 0 0 9 15.25c0 .6034.0737 1.1896.2126 1.75H5.6331C4.7375 17 4 16.3226 4 15.5S4.7375 14 5.6331 14h3.4743Zm2.1427-4c-.8591.8184-1.5176 1.8455-1.8941 3H5.633C4.7375 13 4 12.3226 4 11.5S4.7375 10 5.6331 10h5.617Z" fill="currentcolor"/><path fill-rule="evenodd" clip-rule="evenodd" d="M10 15.25C10 11.7984 12.7984 9 16.25 9s6.25 2.7984 6.25 6.25-2.7984 6.25-6.25 6.25S10 18.7016 10 15.25Zm4.6592 2.5832c.2621.1344.5368.2288.8239.2832L15.4082 19h.427c.0874 0 .1586-.0329.2135-.0987a.3722.3722 0 0 0 .0936-.2144l.045-.5362c.2896-.0258.5468-.0958.7715-.2102.2247-.1173.4145-.2674.5693-.4504.1548-.183.2722-.3932.352-.6306.08-.2402.1199-.4961.1199-.7678 0-.1802-.02-.3403-.0599-.4804-.04-.143-.0962-.2689-.1686-.3775a1.2114 1.2114 0 0 0-.2509-.2831 1.7796 1.7796 0 0 0-.3109-.2102 2.446 2.446 0 0 0-.3445-.163 6.0762 6.0762 0 0 0-.3596-.133l.1311-1.5228c.0774.0258.1498.0558.2172.0901.0699.0343.1349.0672.1948.0987.0599.0286.1148.0529.1648.0729.0499.02.0949.03.1348.03.0599 0 .1111-.0157.1536-.0472.0449-.0343.0886-.0872.1311-.1587l.2846-.4761c-.1348-.1459-.2996-.2817-.4944-.4075-.1947-.1287-.4269-.2217-.6966-.2789l.0749-.845h-.427c-.0874 0-.1585.0329-.2135.0987a.3722.3722 0 0 0-.0936.2144l-.0412.4762c-.2896.0171-.5468.0815-.7715.193-.2247.1087-.4145.2488-.5693.4204a1.8246 1.8246 0 0 0-.3483.5791 1.8773 1.8773 0 0 0-.1199.6606c0 .3059.0437.5605.1311.7635.0899.203.206.3703.3483.5019.1424.1315.3022.2359.4794.3131.1773.0772.3558.1444.5356.2016l-.1386 1.6215c-.1123-.0343-.2122-.0772-.2996-.1287a6.5179 6.5179 0 0 1-.2434-.1587 2.0909 2.0909 0 0 0-.2023-.1287c-.0624-.0372-.1236-.0558-.1835-.0558-.0574 0-.1124.0172-.1648.0515a.3695.3695 0 0 0-.1198.1201L14 17.3399c.1798.1916.3995.3561.6592.4933Zm2.1011-1.9345c.0924.0972.1386.2273.1386.3903 0 .4375-.206.6978-.618.7807l.1198-1.4155c.1499.0657.2697.1472.3596.2445Zm-1.3109-1.9732c-.0923-.1058-.1385-.2431-.1385-.4118a.645.645 0 0 1 .0337-.2102.5274.5274 0 0 1 .1048-.1845c.05-.0543.1136-.1001.191-.1372.0799-.0401.1773-.0701.2922-.0901l-.1124 1.2954c-.1523-.0715-.2759-.1587-.3708-.2616Z" fill="currentcolor"/></svg>