<svg xmlns="http://www.w3.org/2000/svg" width="24" height="24" fill="none" viewBox="0 0 24 24"><path fill="currentcolor" fill-rule="evenodd" d="M17.367 5C18.262 5 19 4.323 19 3.5S18.262 2 17.367 2H6.633C5.738 2 5 2.677 5 3.5S5.738 5 6.633 5h10.734Zm-2.523 3.136c.1-.193.156-.41.156-.636 0-.823-.738-1.5-1.633-1.5H2.633C1.738 6 1 6.677 1 7.5S1.738 9 2.633 9h9.94a7.204 7.204 0 0 1 2.27-.864ZM9.54 18a7.273 7.273 0 0 0 2.294 3h-7.2C3.737 21 3 20.323 3 19.5S3.738 18 4.633 18H9.54Zm-.433-4a7.295 7.295 0 0 0 .106 3h-3.58C4.738 17 4 16.323 4 15.5S4.738 14 5.633 14h3.474Zm2.143-4a7.253 7.253 0 0 0-1.894 3H5.633C4.738 13 4 12.323 4 11.5S4.738 10 5.633 10h5.617Z" clip-rule="evenodd"/><path fill="currentcolor" fill-rule="evenodd" d="M10 15.25a6.25 6.25 0 1 1 12.5 0 6.25 6.25 0 0 1-12.5 0Zm4.66 2.583c.261.135.536.229.823.283l-.075.884h.427a.265.265 0 0 0 .214-.099.372.372 0 0 0 .093-.214l.045-.536c.29-.026.547-.096.772-.21a1.868 1.868 0 0 0 .921-1.081c.08-.24.12-.497.12-.768 0-.18-.02-.34-.06-.48a1.313 1.313 0 0 0-.42-.661 1.78 1.78 0 0 0-.31-.21 2.446 2.446 0 0 0-.345-.163 6.076 6.076 0 0 0-.36-.133l.132-1.523c.077.025.15.055.217.09.07.034.135.067.195.098.06.03.114.053.165.073.05.02.094.03.134.03a.25.25 0 0 0 .154-.047.552.552 0 0 0 .131-.159l.285-.476a2.556 2.556 0 0 0-.495-.407 2.005 2.005 0 0 0-.696-.279l.075-.845h-.427a.265.265 0 0 0-.214.099.372.372 0 0 0-.094.214l-.04.476c-.29.017-.548.082-.772.193a1.829 1.829 0 0 0-.57.42 1.877 1.877 0 0 0-.468 1.24c0 .306.044.56.131.764.09.203.206.37.349.502.142.131.302.236.479.313.177.077.356.144.536.201l-.139 1.622a1.386 1.386 0 0 1-.3-.129 6.518 6.518 0 0 1-.243-.158 2.09 2.09 0 0 0-.202-.13.357.357 0 0 0-.184-.055.297.297 0 0 0-.165.052.37.37 0 0 0-.12.12L14 17.34c.18.192.4.356.66.493Zm2.1-1.934a.543.543 0 0 1 .139.39c0 .438-.206.698-.618.78l.12-1.415c.15.066.27.147.36.245Zm-1.31-1.973a.604.604 0 0 1-.14-.412c0-.075.012-.145.035-.21a.527.527 0 0 1 .104-.185.62.62 0 0 1 .191-.137c.08-.04.178-.07.293-.09l-.113 1.295a1.177 1.177 0 0 1-.37-.261Z" clip-rule="evenodd"/></svg>