<svg viewBox="0 0 24 24" fill="none" xmlns="http://www.w3.org/2000/svg"><path fill-rule="evenodd" clip-rule="evenodd" d="M19.5 12.75v4.0486c0 .2439-.0618.4144-.1152.5034-.0435.0726-.0751.0881-.1046.099C17.9741 17.8853 15.61 18.5 12 18.5s-5.974-.6147-7.2802-1.099c-.0295-.0109-.061-.0264-.1046-.099-.0534-.089-.1152-.2595-.1152-.5034V12.75h2.317a.7502.7502 0 0 0 .6112-.3152l.507-.7128 1.8743 3.6226a.75.75 0 0 0 1.3835-.1259l1.3214-4.3342 1.5777 2.7722a.75.75 0 0 0 1.3295-.0496l.7506-1.5828.4666.4918a.7499.7499 0 0 0 .5441.2339H19.5Zm0-1.5V7.2076c0-.7298-.4806-1.1936-.9947-1.262C16.7912 5.7173 14.4983 5.5 12 5.5c-2.4983 0-4.7912.2174-6.5053.4455-.514.0685-.9947.5323-.9947 1.262V11.25h1.9302l.9952-1.399a.75.75 0 0 1 1.2773.09l1.5927 3.0784 1.2921-4.2381a.75.75 0 0 1 1.3692-.1523l1.7267 3.0341.6024-1.2702a.7498.7498 0 0 1 1.2218-.1947l.9977 1.0518H19.5ZM2 7.2076c0-1.876 1.3053-3.4927 3.1649-3.7402C6.9563 3.229 9.3633 3 12 3c2.6367 0 5.0437.229 6.8351.4674C20.6947 3.7149 22 5.3316 22 7.2076v9.591c0 1.2917-.6396 2.4974-1.8507 2.9465C18.5598 20.3344 15.901 21 12 21s-6.5598-.6656-8.1493-1.2549C2.6396 19.296 2 18.0903 2 16.7986v-9.591Z" fill="currentcolor"/></svg>