<svg width="24" height="24" fill="none" xmlns="http://www.w3.org/2000/svg"><path fill-rule="evenodd" clip-rule="evenodd" d="M2 9c0 1.306.835 2.418 2 2.83V14a8 8 0 1 0 16 0v-2.17A3.001 3.001 0 0 0 18.93 6 7.997 7.997 0 0 0 12 2a7.997 7.997 0 0 0-6.93 4H5a3 3 0 0 0-3 3zm14.616 5.006c-.84.503-1.339 1.334-1.33 2.224v.012c0 .746-.352 1.446-.99 1.972-.637.522-1.48.8-2.374.785-1.737-.03-3.144-1.195-3.213-2.65l-.001-.045a.77.77 0 0 1 0-.097c.015-.874-.485-1.698-1.328-2.205-.862-.518-1.38-1.354-1.38-2.24-.005-1.485 1.435-2.722 3.204-2.761h.082c.89 0 1.747.305 2.366.84a.542.542 0 0 0 .348.123.542.542 0 0 0 .348-.124c.637-.553 1.531-.858 2.448-.84 1.77.04 3.204 1.277 3.204 2.762-.005.89-.523 1.73-1.384 2.244zM11 12a1 1 0 1 1-2 0 1 1 0 0 1 2 0zm3 1a1 1 0 1 0 0-2 1 1 0 0 0 0 2zm-.5 3a.5.5 0 0 0 0-1h-3a.5.5 0 0 0 0 1h3z" fill="currentcolor"/></svg>