<svg width="24" height="24" fill="none" xmlns="http://www.w3.org/2000/svg"><path fill-rule="evenodd" clip-rule="evenodd" d="M5.125 4H9.75c.298 0 .585.12.796.335.21.214.329.505.329.808v13.714c0 .303-.118.594-.33.808A1.116 1.116 0 0 1 9.75 20H5.125c-.298 0-.585-.12-.795-.335a1.152 1.152 0 0 1-.33-.808V5.143c0-.303.119-.594.33-.808.21-.215.497-.335.795-.335zm9.125 0h4.625c.298 0 .584.12.796.335.21.214.329.505.329.808v13.714c0 .303-.119.594-.33.808a1.116 1.116 0 0 1-.795.335H14.25c-.298 0-.585-.12-.796-.335a1.152 1.152 0 0 1-.329-.808V5.143c0-.303.118-.594.33-.808.21-.215.497-.335.795-.335z" fill="currentcolor"/></svg>