<svg viewBox="0 0 24 24" fill="none" xmlns="http://www.w3.org/2000/svg"><path fill-rule="evenodd" clip-rule="evenodd" d="M5.125 4H9.75c.2984 0 .5845.1204.7955.3347.211.2144.3295.505.3295.8082V18.857c0 .3031-.1185.5938-.3295.8082A1.1162 1.1162 0 0 1 9.75 20H5.125a1.1162 1.1162 0 0 1-.7955-.3347A1.1524 1.1524 0 0 1 4 18.8571V5.1429c0-.3031.1185-.5938.3295-.8082A1.1161 1.1161 0 0 1 5.125 4Zm9.125 0h4.625c.2984 0 .5845.1204.7955.3347.211.2144.3295.505.3295.8082V18.857c0 .3031-.1185.5938-.3295.8082A1.1162 1.1162 0 0 1 18.875 20H14.25a1.1162 1.1162 0 0 1-.7955-.3347 1.1523 1.1523 0 0 1-.3295-.8082V5.1429c0-.3031.1185-.5938.3295-.8082A1.1161 1.1161 0 0 1 14.25 4Z" fill="currentcolor"/></svg>