<svg width="24" height="24" fill="none" xmlns="http://www.w3.org/2000/svg"><path fill-rule="evenodd" clip-rule="evenodd" d="M5.62 15.145c.557 0 1.088.12 1.567.336.456.206 1.013.183 1.367-.171L19.435 4.428c.436-.436.37-1.174-.227-1.327A3.197 3.197 0 0 0 18.41 3c-.554 0-1.074.215-1.466.607L5.557 14.994a.088.088 0 0 0 .062.151zM6 16.458h-.846a.5.5 0 0 0-.485.379l-.639 2.555a.952.952 0 0 0 .254.917c.225.226.56.343.916.254l2.556-.64a.5.5 0 0 0 .379-.484v-.846a2.138 2.138 0 0 0-2.136-2.135zM21.591 6.182c0 .555-.215 1.075-.607 1.466L9.598 19.036a.088.088 0 0 1-.15-.063c0-.558-.121-1.088-.337-1.567-.205-.456-.182-1.013.172-1.367l10.88-10.88c.437-.437 1.175-.37 1.329.227.066.254.1.521.1.796z" fill="currentcolor"/></svg>