<svg width="24" height="24" fill="none" xmlns="http://www.w3.org/2000/svg"><g clip-path="url(#a)"><path d="M6.157 14.943a2.103 2.103 0 0 1 2.96.586l.72 1.097c.161.248.495.316.75.189 2.506-1.473 4.596-3.473 6.128-5.916a.582.582 0 0 0-.15-.763l-1.073-.772a2.138 2.138 0 0 1-.466-2.994l1.962-2.662c.6-.805 1.786-.89 2.478-.157 2.636 2.728 3.386 7.093-2.975 13.237-6.395 6.151-10.711 5.192-13.327 2.477-.692-.732-.58-1.907.27-2.466l2.723-1.856z" fill="currentcolor"/></g><defs><clipPath id="a"><path fill="#fff" d="M0 0h24v24H0z"/></clipPath></defs></svg>