<svg viewBox="0 0 24 24" fill="none" xmlns="http://www.w3.org/2000/svg"><g clip-path="url(#ld-icon-1a)"><path d="M6.1573 14.9425c.9833-.6768 2.3174-.4046 2.9604.5861l.7197 1.0977c.1608.2477.4943.3158.7494.1887 2.5066-1.4726 4.5962-3.4726 6.128-5.9159.1578-.2471.0834-.5846-.1505-.7631l-1.0727-.7722a2.138 2.138 0 0 1-.4652-2.994l1.9613-2.662c.6012-.8048 1.7859-.889 2.4781-.1568 2.6362 2.728 3.3859 7.0926-2.9749 13.2368-6.3945 6.1516-10.7112 5.192-13.3268 2.4772-.6922-.7321-.5796-1.9071.2704-2.4661l2.7228-1.8564Z" fill="currentcolor"/></g><defs><clipPath id="ld-icon-1a"><rect width="24" height="24" fill="white"/></clipPath></defs></svg>