<svg width="24" height="24" fill="none" xmlns="http://www.w3.org/2000/svg"><path fill-rule="evenodd" clip-rule="evenodd" d="M12.58 12.438 9.362 9.222A174.344 174.344 0 0 1 12.69 5.99c1.436-1.36 3.713-1.321 5.173.14 1.468 1.467 1.515 3.783.144 5.254a138.45 138.45 0 0 1-3.174 3.308l-.88-.88c.068-.041.133-.091.191-.15l3.196-3.196a1 1 0 0 0-1.414-1.414l-3.196 3.196a1.001 1.001 0 0 0-.15.191zm-1.266-7.901c2.255-2.135 5.767-2.018 7.963.177 2.206 2.207 2.32 5.75.192 8.033a138.75 138.75 0 0 1-3.298 3.433 138.207 138.207 0 0 1-3.424 3.29c-2.283 2.127-5.826 2.013-8.033-.194-2.195-2.195-2.312-5.707-.177-7.962a175.512 175.512 0 0 1 6.777-6.777zm.493 11.46a1 1 0 0 0-1.414-1.414l-1.352 1.351a1 1 0 1 0 1.415 1.415l1.351-1.352z" fill="currentcolor"/></svg>