<svg width="24" height="24" fill="none" xmlns="http://www.w3.org/2000/svg"><path fill-rule="evenodd" clip-rule="evenodd" d="M4.268 18.27a7.426 7.426 0 0 1 2.109-6.233l4.161-4.162-.307-.307a.5.5 0 0 1 0-.707l.354-.354a1 1 0 0 1 1.366-.045L14.113 4.3l.64.64-.639-.64.001-.001.002-.002.004-.004.01-.01a2.666 2.666 0 0 1 .132-.12c.083-.073.201-.17.35-.277.29-.211.719-.476 1.245-.66a3.71 3.71 0 0 1 1.898-.17c.724.132 1.44.5 2.1 1.16.66.66 1.027 1.375 1.158 2.1.13.714.017 1.367-.169 1.897a4.95 4.95 0 0 1-1.057 1.727l-.01.01-.005.004-.001.002c-.001 0-.002.001-.632-.629l.63.63-2.16 2.162.045.046a1 1 0 0 1 0 1.414l-.353.354a.5.5 0 0 1-.707 0l-.4-.4-4.249 4.249a7.372 7.372 0 0 1-6.303 2.078l-.837.932a1 1 0 0 1-1.412.077l-.062-.055a1 1 0 0 1-.076-1.413l1.012-1.13zm10.623-6.227-2.809-2.918-4.056 4.056a6.57 6.57 0 0 0-1.92 4.89 6.656 6.656 0 0 0 4.707-1.95l4.078-4.078z" fill="currentcolor"/></svg>