<svg xmlns="http://www.w3.org/2000/svg" width="24" height="24" fill="none" viewBox="0 0 24 24"><path fill="currentcolor" fill-rule="evenodd" d="M16.775 2.63c0-.345-.259-.626-.578-.626-1.137-.002-2.072.929-2.185 2.124-.524.215-.931.62-1.243 1.106-.066-1.245-1.022-2.232-2.191-2.23-.32 0-.578.28-.578.625V4.5c0 .829.672 1.499 1.5 1.497l.873-.001c-.245.584-.42 1.249-.538 1.93-.061.347-.109.703-.144 1.061A3.77 3.77 0 0 0 7.995 6 .997.997 0 0 0 7 6.996v.778a2.994 2.994 0 0 0 3 2.994l1.608-.002c.001.251.007.498.018.736-2.566.02-4.68.239-5.788.38a.964.964 0 0 0-.838.965V14a1 1 0 0 0 1 1h.47l1.402 5.957a.9.9 0 0 0 .666.686c.645.148 1.844.357 3.462.357s2.817-.21 3.462-.357a.9.9 0 0 0 .666-.686L17.529 15H18a1 1 0 0 0 1-1v-1.153a.964.964 0 0 0-.838-.965 49.945 49.945 0 0 0-5.534-.378c-.027-.54-.027-1.13.005-1.73h.725c1.656.004 3-1.337 3-2.994v-.121a.824.824 0 0 0-.822-.824 3.11 3.11 0 0 0-2.476 1.216c.124-.422.275-.8.453-1.115.304-.54.655-.84 1.044-.936l.718.001c.829.001 1.5-.669 1.5-1.497V2.63Z" clip-rule="evenodd"/></svg>