<svg width="24" height="24" fill="none" xmlns="http://www.w3.org/2000/svg"><path fill-rule="evenodd" clip-rule="evenodd" d="M12 2C6.477 2 2 6.477 2 12s4.477 10 10 10 10-4.477 10-10S17.523 2 12 2zm-3.819 9.37a.777.777 0 0 0-.181.515v.716h1.348v1.778a1.1 1.1 0 0 1-.37.844c-.11.1-.241.181-.391.246a2.037 2.037 0 0 1-.457.142V17h6.913a.906.906 0 0 0 .696-.306c.082-.095.145-.2.188-.314a.861.861 0 0 0 .073-.336v-.948h-3.638a4.85 4.85 0 0 0-.66.044 5.976 5.976 0 0 0-.651.112c.183-.209.328-.433.434-.672a1.94 1.94 0 0 0 .167-.813v-1.165h2.13a.641.641 0 0 0 .247-.045.63.63 0 0 0 .196-.135.564.564 0 0 0 .18-.396v-.88h-2.753V9.524c0-.528.094-.931.283-1.21.193-.284.485-.426.877-.426.212 0 .393.048.543.142.15.095.316.24.5.433.179.19.38.284.601.284.165 0 .336-.05.515-.15l.899-.582a4.682 4.682 0 0 0-.493-.791 3.03 3.03 0 0 0-.66-.643 2.794 2.794 0 0 0-.847-.425A3.338 3.338 0 0 0 12.812 6c-.59 0-1.102.097-1.537.291-.43.19-.79.446-1.08.77-.284.323-.497.699-.637 1.127a4.25 4.25 0 0 0-.21 1.344v1.613h-.609c-.246 0-.432.075-.558.224z" fill="currentcolor"/></svg>