<svg viewBox="0 0 24 24" fill="none" xmlns="http://www.w3.org/2000/svg"><path fill-rule="evenodd" clip-rule="evenodd" d="M12 2C6.4771 2 2 6.4771 2 12c0 5.5228 4.4771 10 10 10 5.5228 0 10-4.4772 10-10 0-5.5229-4.4772-10-10-10Zm-3.8188 9.3693c-.1208.1444-.1812.3161-.1812.5153v.7169h1.3478v1.7773c0 .1842-.0338.346-.1014.4854a1.15 1.15 0 0 1-.2681.3585c-.1112.0995-.2416.1817-.3913.2464a2.0367 2.0367 0 0 1-.4566.1419V17h6.9131c.1449 0 .2753-.0274.3913-.0821.1208-.0598.2222-.1345.3043-.2241a1.0335 1.0335 0 0 0 .1884-.3136c.0483-.1145.0725-.2265.0725-.3361v-.9484h-3.6377a4.85 4.85 0 0 0-.6594.0448 5.9765 5.9765 0 0 0-.6522.112c.1836-.2091.3285-.4331.4348-.6721.1111-.2439.1667-.5152.1667-.8139v-1.165h2.1304c.0918 0 .1739-.0149.2464-.0448.0773-.0349.1425-.0797.1956-.1344.058-.0548.1015-.1145.1305-.1793a.4904.4904 0 0 0 .0507-.2165v-.8812h-2.7536V9.5248c0-.5277.0942-.931.2826-1.2098.1932-.2838.4855-.4257.8768-.4257.2126 0 .3937.0473.5435.142.1497.0945.3164.2389.5.433.1787.1892.3792.2838.6014.2838.1643 0 .3358-.0498.5145-.1493l.8986-.5825a4.6822 4.6822 0 0 0-.4928-.7916 3.0304 3.0304 0 0 0-.6594-.6422c-.2464-.1842-.529-.3261-.8478-.4257-.314-.1045-.6667-.1568-1.058-.1568-.5894 0-1.1015.097-1.5362.2912-.43.1892-.7899.4456-1.0797.7692-.285.3236-.4976.6995-.6377 1.1277-.1401.4231-.2102.8712-.2102 1.3441v1.6131h-.6087c-.2464 0-.4323.0747-.558.224Z" fill="currentcolor"/></svg>