<svg viewBox="0 0 24 24" fill="none" xmlns="http://www.w3.org/2000/svg"><path d="M21.5477 13.7209c.4172-1.0868.5773-2.4298.4523-3.5762-.125-1.1464-.2756-2.233-1-3.1448-.647-.8146-1.6857-1.5174-2.6559-1.8784-1.9205-.7146-4.2683-.394-6.0793.5772a6.318 6.318 0 0 0-.265.1512 6.3038 6.3038 0 0 0-.2646-.1512c-1.811-.9714-4.1588-1.295-6.0794-.5804C4.6856 5.4795 3.6472 6.1855 3 6.9999c-.7244.9116-.8752 1.8534-1 3-.1256 1.1534.0352 2.6344.4524 3.721.4024 1.0481 1.063 1.9811 1.8662 2.7603.114.111.2312.2186.3508.3232-.2652.2174-.5436.4254-.7976.6556-.1708.1546-.2884.3594-.3494.5806-.1216.4426-.0312.9464.2234 1.3266.2892.4318.799.6792 1.3164.6354.6132-.052 1.0472-.4636 1.5006-.8352.1324-.1086.2648-.217.397-.3256l.1986-.1626c.0574-.0468.1662-.1772.2352-.146.3052.1374.6162.2622.9316.3738.622.2206 1.262.3914 1.9118.5074.3162.0564.635.0998.9546.129.266.024.5396.0474.8084.042.269.0054.5426-.018.8084-.042.32-.0292.6386-.0724.9548-.129a12.1029 12.1029 0 0 0 1.9118-.5074c.3154-.1118.6262-.2366.9314-.3738.0692-.031.178.0992.2354.146l.1985.1626.3972.3256c.4534.3714.8876.7832 1.5006.8352.5174.044 1.0272-.2036 1.3162-.6354.2546-.38.3454-.884.2236-1.3266-.061-.2212-.1788-.426-.3494-.5806-.2542-.2302-.5324-.4382-.7978-.6556a9.0851 9.0851 0 0 0 .351-.3232c.803-.7792 1.4638-1.7122 1.866-2.7603ZM7.88 14.1735c-.133.109-.2658.218-.399.327-.0664.0542-.1328.1088-.1992.1632-.0402.033-.1808.1789-.2184.1479-.5042-.4143-1.0014-.8779-1.3614-1.4265a5.97 5.97 0 0 1-.4296-.7694c.0024.0046-.0996-.2974-.1258-.3974-.0724-.2758-.085-.537-.0836-.8216.0022-.4192.013-.8414.1012-1.2524.046-.2158.1058-.427.1792-.6352.0696-.1968.1946-.3824.3124-.5534 0 0 .1688-.1656.217-.2186.1216-.133.2494-.2232.405-.3168.4564-.2746.9922-.3832 1.5126-.4652-.0188.003.2256-.0078.3106-.0158.3314-.031.6984-.047 1.0262.0186.2814.0562.548.1358.8056.2472-.42 1.0478-.5168 2.2508-.1204 3.3136a7.149 7.149 0 0 0 .3248.7362c-.4478.4434-.9392.8384-1.4264 1.2376l-.8308.681Zm4.3916 2.3607c-.091.0044-.1816.0056-.2718.0092-.0902-.0036-.1806-.0046-.2716-.0092-.5548-.0268-1.1068-.1132-1.6448-.2516.6434-.5274 1.308-1.038 1.9164-1.6072.6086.5692 1.273 1.0798 1.9168 1.6072-.538.1382-1.09.2248-1.645.2516Zm6.5819-4.3157c-.0264.1-.1284.402-.1262.3974a5.9928 5.9928 0 0 1-.4294.7694c-.36.5486-.857 1.0122-1.3614 1.4265-.0377.0308-.1783-.1149-.2183-.1479l-.1996-.1632-.3988-.327-.8308-.6808c-.4872-.399-.9786-.7942-1.4264-1.2376a7.1733 7.1733 0 0 0 .3248-.7362c.3964-1.0628.2996-2.2658-.1204-3.3136.2574-.1114.5242-.191.8056-.2472.3278-.0656.6948-.0496 1.0262-.0186.085.008.3292.0188.3106.0158.5204.0822 1.0563.1908 1.5129.4652.1554.0936.2832.1838.4048.3168.0482.053.217.2186.217.2186.1178.1708.2428.3566.3122.5534.0734.2082.133.4194.1792.6352.088.411.099.8334.1012 1.2524.0014.2844-.011.5456-.0832.8214Z" fill="currentcolor"/></svg>