<svg xmlns="http://www.w3.org/2000/svg" width="24" height="24" fill="none" viewBox="0 0 24 24"><path fill="currentcolor" d="M21.548 13.72c.417-1.086.577-2.429.452-3.575-.125-1.147-.237-2.107-1-3.145-.753-1.024-1.686-1.518-2.656-1.879-1.92-.714-4.268-.394-6.08.578a8.546 8.546 0 0 0-.264.15 6.304 6.304 0 0 0-.265-.15c-1.81-.972-4.159-1.295-6.08-.58-.97.36-2.008 1.067-2.655 1.88-.724.913-.875 1.854-1 3-.126 1.154.035 2.635.452 3.722.403 1.048 1.063 1.981 1.867 2.76.114.111.23.219.35.323-.265.218-.543.426-.797.656-.171.155-.289.36-.35.58-.121.443-.03.947.224 1.327.289.432.799.68 1.316.636.613-.052 1.047-.464 1.5-.836l.398-.325.198-.163c.058-.047.167-.177.236-.146a12.11 12.11 0 0 0 3.798 1.01c.266.024.54.048.808.042.269.006.543-.018.808-.042.32-.029.639-.072.955-.129a12.103 12.103 0 0 0 2.843-.88c.07-.032.178.098.236.145l.198.163.398.325c.453.372.887.784 1.5.836a1.448 1.448 0 0 0 1.316-.636c.255-.38.346-.884.224-1.326a1.218 1.218 0 0 0-.35-.581c-.254-.23-.532-.438-.797-.656.12-.104.236-.212.35-.323.804-.779 1.464-1.712 1.867-2.76Zm-13.668.454-.399.327-.2.163c-.04.033-.18.179-.218.148-.504-.415-1.001-.878-1.361-1.427a5.97 5.97 0 0 1-.43-.77c.003.005-.1-.297-.125-.397a3.073 3.073 0 0 1-.084-.821c.002-.42.013-.842.101-1.253.046-.215.106-.427.18-.635.069-.197.194-.382.312-.553 0 0 .169-.166.217-.219.121-.133.25-.223.405-.317.456-.274.992-.383 1.512-.465a5.29 5.29 0 0 0 .311-.016c.331-.03.698-.047 1.026.019.282.056.548.136.806.247-.42 1.048-.517 2.25-.12 3.314.093.252.203.497.324.736-.448.443-.939.838-1.426 1.237l-.831.681Zm4.392 2.36c-.091.005-.182.006-.272.01-.09-.004-.18-.005-.272-.01a8.199 8.199 0 0 1-1.645-.251c.644-.528 1.308-1.038 1.917-1.608.608.57 1.273 1.08 1.917 1.608a8.213 8.213 0 0 1-1.645.251Zm6.582-4.315c-.027.1-.129.402-.127.397a5.993 5.993 0 0 1-.43.77c-.36.548-.856 1.012-1.36 1.426-.038.03-.179-.115-.219-.148-.066-.054-.133-.11-.2-.163-.132-.11-.265-.218-.398-.327l-.831-.681c-.487-.4-.979-.794-1.426-1.238.12-.239.23-.484.324-.736.397-1.063.3-2.266-.12-3.313.257-.112.524-.191.806-.248.327-.065.694-.05 1.026-.018.085.008.329.019.31.016.52.082 1.057.19 1.513.465.156.093.284.184.405.317a9.8 9.8 0 0 0 .217.218c.118.17.243.357.312.554.074.208.133.419.18.635.088.41.099.833.1 1.252a3.08 3.08 0 0 1-.082.822Z"/></svg>