<svg width="24" height="24" fill="none" xmlns="http://www.w3.org/2000/svg"><path fill-rule="evenodd" clip-rule="evenodd" d="M22 9.24v1.642a.61.61 0 0 0-.036.113 6.293 6.293 0 0 1-.286 1.255h-5.463l-.8-1.003a.75.75 0 0 0-1.282.19l-.39.98-1.31-2.74a.75.75 0 0 0-1.403.137l-.994 3.881-1.177-2.708a.75.75 0 0 0-1.332-.086L6.72 12.25H2.35a7.111 7.111 0 0 1-.163-3.829c.908-4.143 5.936-5.836 9.067-3.06.158.14.296.285.438.437a.424.424 0 0 0 .614-.005c1.353-1.382 3.051-2.031 4.974-1.7 2.27.39 3.758 1.782 4.482 4.02.1.371.179.748.238 1.127zM3.041 13.75l.016.026a17.802 17.802 0 0 0 3.206 3.852 39.653 39.653 0 0 0 4.179 3.353c.936.65 2.174.643 3.113-.004 1.95-1.342 3.843-2.885 5.445-4.595a12.841 12.841 0 0 0 1.975-2.632h-5.121a.75.75 0 0 1-.587-.283l-.22-.275-.545 1.371a.75.75 0 0 1-1.374.046l-1.158-2.422-1.024 4a.75.75 0 0 1-1.414.112l-1.467-3.374-.275.46a.75.75 0 0 1-.644.365H3.041z" fill="currentcolor"/></svg>