<svg viewBox="0 0 24 24" fill="none" xmlns="http://www.w3.org/2000/svg"><path fill-rule="evenodd" clip-rule="evenodd" d="M22 9.2403v1.6418a.6096.6096 0 0 0-.036.1128 6.2929 6.2929 0 0 1-.2862 1.2551H16.215l-.7992-1.0031a.7501.7501 0 0 0-1.2833.1898l-.3901.9794-1.3096-2.7396a.75.75 0 0 0-1.4033.1374l-.9939 3.8812-1.177-2.7083a.7498.7498 0 0 0-1.3317-.0858l-.806 1.349H2.3494a7.1115 7.1115 0 0 1-.2571-1.0608 7.139 7.139 0 0 1 .0945-2.7677c.908-4.1434 5.9357-5.8365 9.0676-3.0599.1579.139.2959.2846.4374.436.1654.177.4441.1686.6136-.0045 1.3538-1.382 3.0519-2.0315 4.9747-1.6997 2.2699.3899 3.7578 1.7813 4.4818 4.0202.0995.3708.1789.747.238 1.1267ZM3.041 13.75l.0159.0257a17.8018 17.8018 0 0 0 3.2058 3.852c1.2789 1.1771 2.7123 2.3355 4.1789 3.3535.9368.6502 2.1741.6426 3.1134-.004 1.9495-1.342 3.8433-2.8849 5.4451-4.5952a12.841 12.841 0 0 0 1.9748-2.632h-5.1212a.75.75 0 0 1-.5866-.2826l-.2193-.2752-.5462 1.3711a.75.75 0 0 1-1.3734.0459l-1.158-2.4223-1.0241 3.9992a.75.75 0 0 1-1.4144.1128l-1.4665-3.3744-.275.4602a.75.75 0 0 1-.6439.3653H3.0411Z" fill="currentcolor"/></svg>