<svg viewBox="0 0 24 24" fill="none" xmlns="http://www.w3.org/2000/svg"><path fill-rule="evenodd" clip-rule="evenodd" d="M17.615 10.912a2.9795 2.9795 0 0 1 1.462-.38c1.6141 0 2.923 1.2735 2.923 2.844 0 1.5705-1.3089 2.844-2.923 2.844a2.9784 2.9784 0 0 1-1.462-.38v3.6186c0 .5674-.615 1.0414-1.0555 1.0279 0 0-3.5595.5135-6.1706.5135-2.6111 0-6.3342-.5135-6.3342-.5135C3.4724 20.4865 3 20.026 3 19.4586v-3.3498a3.015 3.015 0 0 0 .8119.1112c1.6141 0 2.923-1.2735 2.923-2.844 0-1.5705-1.3089-2.844-2.923-2.844-.2824 0-.5542.0385-.8119.1113V7.2926c0-.5674.4724-1.027 1.0547-1.027h3.7208a2.7709 2.7709 0 0 1-.3914-1.4225C7.384 3.2727 8.693 2 10.307 2c1.615 0 2.9239 1.2727 2.9239 2.8431 0 .5187-.1425 1.004-.3915 1.4225h3.72c.5832 0 1.0555.4596 1.0555 1.027v3.6194Z" fill="currentcolor"/></svg>