<svg xmlns="http://www.w3.org/2000/svg" width="24" height="24" fill="none" viewBox="0 0 24 24"><path fill="currentcolor" fill-rule="evenodd" d="M8.318 9.07c-1.406 1.407-1.786 3.503-.968 5.341a.961.961 0 0 1-1.755.782c-1.145-2.57-.61-5.507 1.364-7.482 1.975-1.973 4.912-2.509 7.483-1.365a.085.085 0 0 1 .013.007l.01.006-.275-1.317a.865.865 0 0 1 1.693-.353l.595 2.85a.864.864 0 0 1-.313.857l-2.283 1.791a.862.862 0 0 1-1.215-.147.864.864 0 0 1 .147-1.214l.9-.707a.306.306 0 0 0-.023-.007.231.231 0 0 1-.03-.01c-1.838-.818-3.936-.438-5.343.968Zm8.253.185a.96.96 0 0 1 1.268.488c1.143 2.572.607 5.508-1.365 7.48a6.638 6.638 0 0 1-4.71 1.96 6.797 6.797 0 0 1-2.629-.535l.273 1.31a.866.866 0 0 1-1.693.353l-.594-2.85a.864.864 0 0 1 .313-.857l2.283-1.79a.864.864 0 1 1 1.068 1.36l-.899.705c1.81.754 3.85.363 5.228-1.014 1.406-1.406 1.786-3.502.969-5.342a.96.96 0 0 1 .488-1.268Z" clip-rule="evenodd"/></svg>