<svg width="24" height="24" fill="none" xmlns="http://www.w3.org/2000/svg"><path fill-rule="evenodd" clip-rule="evenodd" d="m20 9.442.007-.005c.671.354 1.358.563 1.993.563a.5.5 0 0 0 0-1c-.898 0-2.152-.644-3.211-1.725-.917-.936-1.599-2.11-1.755-3.277-.037-.273-.258-.498-.534-.498H16v-.335C16 2.557 15.608 2 15 2h-.03a.37.37 0 0 0-.047.003c-.564.045-.923.58-.923 1.162v.413h-.363a.37.37 0 0 0-.37.37V6.23a1.267 1.267 0 0 1-2.534 0V3.948a.37.37 0 0 0-.37-.37H10v-.413c0-.589-.367-1.13-.942-1.163A.373.373 0 0 0 9.022 2H9c-.608 0-1 .557-1 1.165V3.5h-.5c-.276 0-.497.225-.534.498-.156 1.166-.838 2.341-1.755 3.277C4.152 8.355 2.898 9 2 9a.5.5 0 0 0 0 1c.637 0 1.327-.21 2-.566V15H2.5a.498.498 0 0 0-.209.046.371.371 0 0 0-.289.404.5.5 0 0 0 .498.55h10.767v.518H2.37a.37.37 0 0 0-.37.37v.612a.5.5 0 0 0 .5.5h4.84v3.63a.37.37 0 0 0 .371.37h2.652a.37.37 0 0 0 .37-.37V18h2.534v3.63a.37.37 0 0 0 .37.37h2.652a.37.37 0 0 0 .37-.37V18H21.5a.5.5 0 0 0 .5-.5v-.64a.37.37 0 0 0-.37-.371h-4.97V16h4.84a.5.5 0 0 0 .496-.566.37.37 0 0 0-.366-.427h-.044A.5.5 0 0 0 21.5 15H20V9.442zM18.785 15V8.778a9.901 9.901 0 0 1-1.275-1.44 7.774 7.774 0 0 1-.866-1.333v8.988l1.07.007h1.071zm-5.533 0v-3.156a1.267 1.267 0 0 0-2.534 0v3.149l1.267.007h1.267zM7.34 15V6.034a7.968 7.968 0 0 1-1.152 1.66c-.307.38-.642.737-1.004 1.069L5.2 15h2.14zM8 3.5v.078V3.5zm8 0 .001.115H16V3.5z" fill="currentcolor"/></svg>