<svg viewBox="0 0 24 24" fill="none" xmlns="http://www.w3.org/2000/svg"><path fill-rule="evenodd" clip-rule="evenodd" d="M11.613 18.9277s2.3237 2.2892 3.4879 3.4824c.2222.2276.873.2015 1.0995-.0218l.3018-.2999 4.0541-3.9994a.5948.5948 0 0 0 .1741-.4203.5948.5948 0 0 0-.1741-.4203l-3.632-3.632a.5948.5948 0 0 0-.4203-.1741.5948.5948 0 0 0-.4203.1741l-1.0028 1.0028-.7813-.7804 1.012-1.0119a.5925.5925 0 0 0 .1739-.4198.5923.5923 0 0 0-.1739-.4198l-.5961-.5961.5759-.5758c1.6431 1.0554 3.4727 1.3206 4.7826.6822.4965-.2419.4885-.8939.0939-1.2803l-1.7976-1.7606A1.9944 1.9944 0 0 0 18.9999 7c0-1.1046-.8954-2-2-2a1.9952 1.9952 0 0 0-1.485.6602l-2.0017-1.9605c-.3946-.3864-1.0466-.3809-1.2782.1205-.6126 1.3265-.3061 3.1561.7903 4.7801l-.5468.5468-.7297-.729a.5912.5912 0 0 0-.4198-.1743.5927.5927 0 0 0-.4198.1744l-1.012 1.012-.7803-.7814 1.0028-1.0028a.5936.5936 0 0 0 0-.8396l-3.633-3.632a.5927.5927 0 0 0-.8396 0L1.1738 7.6469a.5953.5953 0 0 0 0 .8406l3.633 3.6347a.5936.5936 0 0 0 .8395 0l.8807-.8806.7813.7803-2.5964 2.622a1.9152 1.9152 0 0 0-.4066.5834 1.7069 1.7069 0 0 0-.1477.692c.014.4313.142.8513.371 1.217.2686.4385.5918.841.9619 1.198a5.6848 5.6848 0 0 0 1.1705.9253 2.3624 2.3624 0 0 0 1.1715.3482c.2413.0003.48-.0507.7001-.1495.2182-.1.4162-.239.5844-.4102l2.5964-2.622.7804.7804-.8807.8806a.594.594 0 0 0-.1291.6478.594.594 0 0 0 .1291.1928Z" fill="currentcolor"/></svg>