<svg xmlns="http://www.w3.org/2000/svg" width="24" height="24" fill="none" viewBox="0 0 24 24"><path fill="currentcolor" fill-rule="evenodd" d="M11.613 18.928s2.324 2.289 3.488 3.482c.222.228.873.202 1.1-.022l.301-.3 4.054-3.999a.595.595 0 0 0 0-.84l-3.632-3.633a.595.595 0 0 0-.84 0L15.08 14.62l-.781-.78 1.012-1.012a.593.593 0 0 0 0-.84l-.596-.596.575-.576c1.643 1.056 3.473 1.321 4.783.683.496-.242.488-.894.094-1.28L18.37 8.456a2 2 0 1 0-2.855-2.796L13.513 3.7c-.394-.387-1.046-.381-1.278.12-.613 1.327-.306 3.156.79 4.78l-.546.547-.73-.729a.591.591 0 0 0-.84 0L9.897 9.43l-.78-.781 1.003-1.003a.594.594 0 0 0 0-.84L6.487 3.174a.593.593 0 0 0-.84 0L1.174 7.647a.595.595 0 0 0 0 .84l3.633 3.635a.594.594 0 0 0 .84 0l.88-.88.781.78-2.596 2.622a1.909 1.909 0 0 0-.407.583 1.707 1.707 0 0 0-.147.692c.013.432.141.852.37 1.217.27.439.592.841.962 1.198.348.359.742.67 1.17.926.354.216.758.336 1.172.348.242 0 .48-.05.7-.15.219-.1.417-.239.585-.41l2.596-2.622.78.78-.88.881a.594.594 0 0 0 0 .84Z" clip-rule="evenodd"/></svg>