<svg xmlns="http://www.w3.org/2000/svg" width="24" height="24" fill="none" viewBox="0 0 24 24"><path fill="currentcolor" fill-rule="evenodd" d="M7.5 2a5.5 5.5 0 1 0 0 11 5.5 5.5 0 0 0 0-11Zm-.675 8.022a2.67 2.67 0 0 1-.725-.249 2.19 2.19 0 0 1-.58-.434l.316-.525a.326.326 0 0 1 .106-.105.26.26 0 0 1 .145-.046c.053 0 .106.017.161.05.055.03.115.067.178.113.066.045.138.092.215.14.077.045.164.082.263.113l.122-1.427a4.9 4.9 0 0 1-.471-.178 1.5 1.5 0 0 1-.422-.275 1.318 1.318 0 0 1-.306-.442 1.705 1.705 0 0 1-.116-.672 1.653 1.653 0 0 1 .412-1.09c.136-.152.303-.275.501-.37.198-.099.424-.155.68-.17l.035-.42a.327.327 0 0 1 .083-.188.233.233 0 0 1 .188-.087h.375l-.066.744c.238.05.442.132.613.245.172.11.317.23.435.359l-.25.419a.485.485 0 0 1-.115.14.22.22 0 0 1-.135.04.323.323 0 0 1-.12-.026 2.488 2.488 0 0 1-.144-.064 7.147 7.147 0 0 0-.172-.087 1.382 1.382 0 0 0-.19-.079l-.116 1.34c.105.035.21.074.316.117.106.04.207.088.304.144.098.052.19.114.273.185a1.155 1.155 0 0 1 .37.581c.034.123.052.264.052.423 0 .239-.035.464-.105.675a1.643 1.643 0 0 1-.81.951c-.199.101-.425.163-.68.186l-.04.471a.328.328 0 0 1-.082.19.233.233 0 0 1-.188.086h-.376l.066-.778Zm1.246-1.608a.478.478 0 0 0-.122-.343.936.936 0 0 0-.316-.215L7.527 9.1c.363-.073.544-.302.544-.687ZM6.674 5.972c0 .149.04.27.122.362.083.091.192.168.326.23l.099-1.14a.932.932 0 0 0-.257.08.464.464 0 0 0-.26.283.568.568 0 0 0-.03.185Zm9.994 3.095-.01-.007a1 1 0 1 0 .015-.005l-.005.012Zm3.146-4.664a8.366 8.366 0 0 0-1.84 1.941c1.136.935 1.871 2.343 2.004 3.903l1.146.143a1 1 0 0 1 .876.993v2.234a1 1 0 0 1-.876.992l-1.757.22c-.501 1.125-1.287 2.076-2.306 2.705l.67 1.162a1.5 1.5 0 0 1-2.597 1.5l-1.045-1.81a29.167 29.167 0 0 1-4.123.074L8.904 20.3a1.5 1.5 0 0 1-2.598-1.5l.433-.75C4.409 17.329 3 15.005 3 12.452v-.26a6.5 6.5 0 0 0 10.528-7.126c.584.034 1.154.082 1.7.137.09.01.179.02.268.034.093-.236.218-.464.374-.678.889-1.215 2.516-1.587 3.892-.98.341.15.348.6.052.825Z" clip-rule="evenodd"/></svg>