<svg width="24" height="24" fill="none" xmlns="http://www.w3.org/2000/svg"><path fill-rule="evenodd" clip-rule="evenodd" d="M14.5 6V2.192A15.288 15.288 0 0 0 12 2c-2.867 0-4.748.329-5.83.61C5.435 2.8 5 3.478 5 4.235v15.528c0 .758.436 1.437 1.17 1.627C7.251 21.67 9.132 22 12 22s4.748-.329 5.83-.61c.734-.19 1.17-.869 1.17-1.626V7.072a.878.878 0 0 0-.012-.143c-.024-.143-.05-.287-.08-.429H15a.5.5 0 0 1-.5-.5zm1-.5V2.403c.16.042.313.086.458.131 1.392.437 2.217 1.602 2.679 2.966H15.5zm-5.388 4.364a.938.938 0 1 1 .64-.412l.976 1.625a2.043 2.043 0 0 1 1.297.204l1.212-1.363a.938.938 0 1 1 .622.446l-1.238 1.393c.297.347.48.795.488 1.285l1.09.099a.938.938 0 1 1 .015.766l-1.235-.112c-.158.418-.45.77-.823 1.005l.484 1.332a.938.938 0 1 1-.73.222l-.464-1.278A2.041 2.041 0 0 1 11 14.8l-.714.803a.938.938 0 1 1-.604-.467l.759-.854a2.021 2.021 0 0 1-.36-.823H8.755a.937.937 0 1 1 .07-.762h1.258c.107-.566.45-1.05.922-1.344l-.893-1.489z" fill="currentcolor"/></svg>