<svg width="24" height="24" fill="none" xmlns="http://www.w3.org/2000/svg"><path fill-rule="evenodd" clip-rule="evenodd" d="M13.483 15.639a3.374 3.374 0 0 1 .828 4.694 3.373 3.373 0 0 1-4.693.828 3.374 3.374 0 0 1-.828-4.694c.178-.255.387-.474.615-.662l.225-.837.158-.59-.801.216-.625.167a3.384 3.384 0 0 1-.662.616 3.374 3.374 0 0 1-4.694-.828 3.374 3.374 0 0 1 .827-4.694 3.374 3.374 0 0 1 4.695.828c.047.068.09.139.131.21l.006.009 2.16-.368c.738-2.725 1.513-5.559 1.819-6.588.464-1.56 1.716-1.766 2.407-1.754.266.005.437.253.392.516l-2.179 12.793.013.008c.069.041.139.082.206.13zm-9.228-1.964a1.848 1.848 0 0 0 2.57.453 1.848 1.848 0 0 0 .453-2.57 1.848 1.848 0 0 0-2.57-.454 1.848 1.848 0 0 0-.453 2.57zm7.248-2.192a.835.835 0 1 0 1.18 1.18.835.835 0 0 0-1.18-1.18zm-1.464 5.858a1.847 1.847 0 0 0 .453 2.57c.833.584 1.986.381 2.57-.453a1.847 1.847 0 0 0-3.024-2.117zm11.935-8.226c.012.69-.194 1.943-1.754 2.407-.825.246-2.812.793-4.972 1.38a.5.5 0 0 1-.624-.566l.37-2.173a.5.5 0 0 1 .409-.409l6.055-1.031c.263-.045.51.126.516.392z" fill="currentcolor"/></svg>