<svg xmlns="http://www.w3.org/2000/svg" width="24" height="24" fill="none" viewBox="0 0 24 24"><path fill="currentcolor" fill-rule="evenodd" d="M11.527 21.704a1 1 0 0 0 1.012-.002l2.874-1.695a9.373 9.373 0 0 0 3.358-3.384A9.156 9.156 0 0 0 20 12.057v-6.67a.764.764 0 0 0-.142-.443.787.787 0 0 0-.375-.284l-7.17-2.605a.778.778 0 0 0-.575 0L4.497 5.02a.786.786 0 0 0-.36.283.764.764 0 0 0-.137.433v6.32a9.156 9.156 0 0 0 1.24 4.566A9.373 9.373 0 0 0 8.605 20l2.92 1.705Zm.077-14.954a2.5 2.5 0 0 0-2.5 2.5v1.5h-.028a1 1 0 0 0-1 1v2.879c0 .684.464 1.279 1.14 1.386.735.116 1.77.235 2.936.235s2.2-.119 2.935-.235c.676-.107 1.14-.702 1.14-1.386V11.75a1 1 0 0 0-1-1H15.2v-1.5a2.5 2.5 0 0 0-2.5-2.5h-1.095Zm2.595 2.5v1.5h-4.095v-1.5a1.5 1.5 0 0 1 1.5-1.5H12.7a1.5 1.5 0 0 1 1.5 1.5Zm-2.047 3a.5.5 0 0 1 .5.5v1a.5.5 0 0 1-1 0v-1a.5.5 0 0 1 .5-.5Z" clip-rule="evenodd"/></svg>