<svg width="24" height="24" fill="none" xmlns="http://www.w3.org/2000/svg"><path fill-rule="evenodd" clip-rule="evenodd" d="M11.527 21.704a1 1 0 0 0 1.012-.002l2.874-1.695a9.373 9.373 0 0 0 3.358-3.384A9.156 9.156 0 0 0 20 12.057v-6.67a.764.764 0 0 0-.142-.443.787.787 0 0 0-.375-.284l-7.17-2.605a.778.778 0 0 0-.575 0L4.497 5.02a.786.786 0 0 0-.36.283.764.764 0 0 0-.137.433v6.32a9.156 9.156 0 0 0 1.24 4.566A9.373 9.373 0 0 0 8.605 20l2.92 1.705zm-.073-7.113a1.022 1.022 0 0 1 1.264.119.97.97 0 0 1 .295.685.946.946 0 0 1-.169.538.993.993 0 0 1-.448.357 1.03 1.03 0 0 1-1.09-.209.94.94 0 0 1-.22-1.054.976.976 0 0 1 .368-.436zm-2.541-6.37a8.286 8.286 0 0 1 3.096-.585 8.286 8.286 0 0 1 3.087.589 8.08 8.08 0 0 1 2.619 1.688.93.93 0 0 1 .285.663.907.907 0 0 1-.285.662.995.995 0 0 1-.69.276.995.995 0 0 1-.69-.276 6.276 6.276 0 0 0-4.326-1.787 6.276 6.276 0 0 0-4.344 1.787.994.994 0 0 1-.69.276.993.993 0 0 1-.69-.276.931.931 0 0 1-.285-.662.906.906 0 0 1 .285-.663 8.08 8.08 0 0 1 2.628-1.692zm1.339 3.154a4.6 4.6 0 0 1 3.514-.001c.555.23 1.057.566 1.475.988a.92.92 0 0 1 .268.646.92.92 0 0 1-1.267.846.889.889 0 0 1-.295-.2 2.616 2.616 0 0 0-.878-.613 2.688 2.688 0 0 0-2.119 0 2.615 2.615 0 0 0-.877.614.891.891 0 0 1-.648.27.915.915 0 0 1-.648-1.561 4.48 4.48 0 0 1 1.475-.99z" fill="currentcolor"/></svg>