<svg viewBox="0 0 24 24" fill="none" xmlns="http://www.w3.org/2000/svg"><path fill-rule="evenodd" clip-rule="evenodd" d="M12.0001 15.6696c-2.0261 0-3.6687-1.6426-3.6687-3.6696 0-2.026 1.6426-3.6678 3.6687-3.6678 2.0269 0 3.6695 1.6417 3.6695 3.6678 0 2.027-1.6426 3.6696-3.6695 3.6696Zm9.3042-5.1513-1.393-.4644c-.4443-.1478-.8-.4826-.9791-.9148-.0018-.0043-.0035-.0095-.0052-.013-.1809-.434-.167-.9226.0434-1.3426l.6566-1.314a1.0198 1.0198 0 0 0-.1905-1.1756l-.7304-.7295a1.017 1.017 0 0 0-1.1748-.1905l-1.3139.6565c-.42.2105-.9087.2235-1.3426.0426-.0044-.0017-.0087-.0026-.0131-.0043a1.6166 1.6166 0 0 1-.9156-.9783l-.4635-1.3939A1.0193 1.0193 0 0 0 12.5165 2h-1.033c-.4383 0-.827.2809-.9652.6965l-.4644 1.394a1.6165 1.6165 0 0 1-.9156.9782c-.0035.0017-.0087.0026-.013.0043-.4331.181-.9227.1679-1.3427-.0426L6.4687 4.374c-.3913-.1965-.8643-.1191-1.1748.1905l-.7304.7295a1.0198 1.0198 0 0 0-.1905 1.1757l.6566 1.3139c.2104.42.2243.9087.0434 1.3426-.0017.0035-.0034.0087-.0052.013-.1791.4322-.5348.767-.9782.9148l-1.394.4644a1.0176 1.0176 0 0 0-.6956.966v1.0322c0 .4383.28.827.6957.9652l1.3939.4653c.4434.1478.7991.4826.9782.9147l.0052.0131c.181.4339.167.9226-.0434 1.3435l-.6566 1.3139a1.0171 1.0171 0 0 0 .1905 1.1739l.7304.7304a1.0202 1.0202 0 0 0 1.1748.1913l1.314-.6574c.42-.2095.9086-.2234 1.3425-.0434.0044.0017.0096.0043.013.006.4331.1792.767.534.9157.9783l.4644 1.393c.1382.4157.5269.6957.9652.6957h1.033c.4383 0 .827-.28.9661-.6957l.4635-1.393c.1487-.4443.4826-.7991.9156-.9783.0044-.0017.0087-.0043.0131-.006.4339-.18.9226-.1661 1.3426.0434l1.3139.6574a1.02 1.02 0 0 0 1.1748-.1913l.7304-.7304a1.0172 1.0172 0 0 0 .1905-1.1739l-.6566-1.3139c-.2104-.4209-.2243-.9096-.0434-1.3435a.7124.7124 0 0 1 .0052-.0131c.1791-.4321.5348-.7669.9791-.9147l1.393-.4653A1.0165 1.0165 0 0 0 22 12.5165v-1.0322c0-.4382-.28-.8278-.6957-.966Z" fill="currentcolor"/></svg>