<svg width="24" height="24" fill="none" xmlns="http://www.w3.org/2000/svg"><path fill-rule="evenodd" clip-rule="evenodd" d="M12 15.67a3.669 3.669 0 1 1 0-7.338 3.669 3.669 0 0 1 0 7.338zm9.304-5.152-1.393-.464a1.612 1.612 0 0 1-.979-.915l-.005-.013a1.61 1.61 0 0 1 .043-1.343l.657-1.313a1.02 1.02 0 0 0-.19-1.176l-.73-.73a1.017 1.017 0 0 0-1.176-.19l-1.314.656a1.61 1.61 0 0 1-1.342.043l-.013-.004a1.617 1.617 0 0 1-.916-.979l-.463-1.393A1.02 1.02 0 0 0 12.517 2h-1.034c-.438 0-.827.28-.965.697l-.464 1.393c-.149.443-.483.8-.916.979l-.013.004a1.61 1.61 0 0 1-1.342-.043l-1.314-.656a1.017 1.017 0 0 0-1.175.19l-.73.73a1.02 1.02 0 0 0-.191 1.176l.657 1.313c.21.42.224.91.043 1.343l-.005.013c-.18.432-.535.767-.978.915l-1.394.464a1.018 1.018 0 0 0-.696.966v1.033c0 .438.28.827.696.965l1.394.465c.443.148.799.483.978.915l.005.013c.18.434.167.922-.043 1.343l-.657 1.314c-.196.392-.12.864.19 1.174l.73.73c.311.31.784.387 1.176.192l1.314-.658c.42-.21.908-.223 1.342-.043l.013.006c.433.18.767.534.916.978l.464 1.393c.138.416.527.696.965.696h1.034c.438 0 .827-.28.966-.696l.463-1.393c.149-.444.483-.799.916-.978l.013-.006c.434-.18.922-.166 1.342.043l1.314.658a1.02 1.02 0 0 0 1.175-.192l.73-.73c.31-.31.387-.782.191-1.174l-.657-1.314a1.612 1.612 0 0 1-.038-1.356c.18-.432.535-.767.98-.915l1.392-.465c.416-.138.696-.527.696-.965v-1.033c0-.438-.28-.828-.696-.966z" fill="currentcolor"/></svg>