<svg width="24" height="24" fill="none" xmlns="http://www.w3.org/2000/svg"><path fill-rule="evenodd" clip-rule="evenodd" d="M15.564 15.356c-.865 0-1.646.33-2.25.857l-4.628-3.066a3.41 3.41 0 0 0 .186-1.067 3.4 3.4 0 0 0-.197-1.103l4.668-3.167c.6.512 1.37.834 2.22.834a3.436 3.436 0 1 0-3.435-3.436c0 .388.078.755.197 1.104L7.657 9.479a3.402 3.402 0 0 0-2.22-.835 3.436 3.436 0 0 0 0 6.872c.864 0 1.645-.33 2.249-.858l4.628 3.066c-.11.338-.186.693-.186 1.068a3.436 3.436 0 1 0 3.436-3.436z" fill="currentcolor"/></svg>