<svg viewBox="0 0 24 24" fill="none" xmlns="http://www.w3.org/2000/svg"><path fill-rule="evenodd" clip-rule="evenodd" d="M15.5639 15.3558c-.8653 0-1.6455.3299-2.2499.8572l-4.6276-3.0663c.1105-.338.1857-.6914.1857-1.0665 0-.3879-.0788-.7548-.1975-1.1028l4.6684-3.167c.5999.512 1.3692.8337 2.2209.8337C17.4614 8.6441 19 7.1064 19 5.2081c0-1.8984-1.5386-3.4361-3.4361-3.4361-1.8983 0-3.436 1.5377-3.436 3.436 0 .3879.0779.7549.1966 1.1037L7.657 9.4787c-.6008-.5138-1.3692-.8346-2.221-.8346C3.5387 8.6441 2 10.1827 2 12.0802c0 1.8974 1.5386 3.436 3.436 3.436.8645 0 1.6456-.3298 2.25-.8581l4.6276 3.0664c-.1105.338-.1857.6923-.1857 1.0674 0 1.8975 1.5377 3.4361 3.436 3.4361 1.8975 0 3.4361-1.5386 3.4361-3.4361 0-1.8983-1.5386-3.4361-3.4361-3.4361Z" fill="currentcolor"/></svg>