<svg viewBox="0 0 24 24" fill="none" xmlns="http://www.w3.org/2000/svg"><path fill-rule="evenodd" clip-rule="evenodd" d="M11.5268 21.7041a.9998.9998 0 0 0 1.0122-.0022l2.8744-1.6952c1.3976-.825 2.5543-1.9905 3.358-3.3834.8036-1.3929 1.2268-2.966 1.2286-4.5667V5.3877a.7644.7644 0 0 0-.1416-.4436.787.787 0 0 0-.375-.284l-7.1699-2.605a.7785.7785 0 0 0-.5758 0l-7.2408 2.965a.7863.7863 0 0 0-.36.2833A.7641.7641 0 0 0 4 5.7361v6.3205c.0052 1.6013.432 3.174 1.2392 4.5656.807 1.3916 1.967 2.5548 3.3672 3.3767l2.9204 1.7052Zm4.0065-11.1768a.75.75 0 1 0-1.0666-1.0546l-3.4002 3.4386-1.5125-1.6572a.75.75 0 0 0-1.108 1.0113l2.0448 2.2402a.7502.7502 0 0 0 1.0873.0217l3.9552-4Z" fill="currentcolor"/></svg>