<svg width="24" height="24" fill="none" xmlns="http://www.w3.org/2000/svg"><path fill-rule="evenodd" clip-rule="evenodd" d="M11.527 21.704a1 1 0 0 0 1.012-.002l2.874-1.695a9.373 9.373 0 0 0 3.358-3.384A9.156 9.156 0 0 0 20 12.057v-6.67a.764.764 0 0 0-.142-.443.787.787 0 0 0-.375-.284l-7.17-2.605a.778.778 0 0 0-.575 0L4.497 5.02a.786.786 0 0 0-.36.283.764.764 0 0 0-.137.433v6.32a9.156 9.156 0 0 0 1.24 4.566A9.373 9.373 0 0 0 8.605 20l2.92 1.705zm4.006-11.177a.75.75 0 1 0-1.066-1.054l-3.4 3.438-1.513-1.657a.75.75 0 0 0-1.108 1.011l2.045 2.24a.75.75 0 0 0 1.087.022l3.955-4z" fill="currentcolor"/></svg>