<svg xmlns="http://www.w3.org/2000/svg" width="24" height="24" fill="none" viewBox="0 0 24 24"><path fill="currentcolor" fill-rule="evenodd" d="M11.527 21.704a1 1 0 0 0 1.012-.002l2.874-1.695a9.373 9.373 0 0 0 3.358-3.384A9.156 9.156 0 0 0 20 12.057v-6.67a.764.764 0 0 0-.142-.443.787.787 0 0 0-.375-.284l-7.17-2.605a.778.778 0 0 0-.575 0L4.497 5.02a.786.786 0 0 0-.36.283.764.764 0 0 0-.137.433v6.32a9.156 9.156 0 0 0 1.24 4.566A9.373 9.373 0 0 0 8.605 20l2.92 1.705Zm4.184-11a1 1 0 0 0-1.422-1.407l-3.215 3.251-1.335-1.462a1 1 0 1 0-1.478 1.348l2.045 2.24a1 1 0 0 0 1.45.03l3.955-4Z" clip-rule="evenodd"/></svg>