<svg xmlns="http://www.w3.org/2000/svg" width="24" height="24" fill="none" viewBox="0 0 24 24"><path fill="currentcolor" fill-rule="evenodd" d="M6 2.172a1 1 0 0 0-1 1v9.832c1.612-.045 3.182.74 4.031 2.21.788 1.365.754 2.974.068 4.296l2.981 1.769a4 4 0 0 0 2.615.518l1.138-.165a3.698 3.698 0 0 0 1.53-6.73l-3.845-2.582a.5.5 0 0 1-.222-.415V3.172a1 1 0 0 0-1-1H6ZM8.238 19c.512-1.029.52-2.258-.073-3.286C7.51 14.58 6.278 13.958 5 14.004v.194a5.059 5.059 0 0 0 2.478 4.35l.76.452Zm3.613-10.604h.078a.07.07 0 0 0 .071-.07v-1.97a.35.35 0 0 0-.35-.35h-.373a.066.066 0 0 0-.047.02l-.748.698a1.465 1.465 0 0 1-1.993-.03s-.55-.517-.554-.525A.633.633 0 0 0 7.517 6H7.07a.07.07 0 0 0-.07.07v1.973a.35.35 0 0 0 .35.35h.228a.07.07 0 0 0 .07-.071v-.698a.335.335 0 0 1 .331-.336c.28 0 .495.201.685.38l.11.1.1.09c.217.2.405.373.625.373.216 0 .397-.165.61-.36.037-.033.075-.068.115-.102l.109-.1c.19-.18.404-.38.685-.38a.335.335 0 0 1 .33.332v.423a.35.35 0 0 0 .35.35l.153.002Z" clip-rule="evenodd"/></svg>