<svg viewBox="0 0 24 24" fill="none" xmlns="http://www.w3.org/2000/svg"><path fill-rule="evenodd" clip-rule="evenodd" d="M6 2.1719c-.5523 0-1 .4477-1 1v9.8321c1.6122-.0453 3.1822.7398 4.031 2.2101.7883 1.3653.754 2.9737.0683 4.2963l2.9807 1.7682a3.9996 3.9996 0 0 0 2.6155.5182l1.1377-.1651C17.6513 21.3677 19 19.809 19 17.9718a3.698 3.698 0 0 0-1.6373-3.0707l-3.845-2.5807a.4998.4998 0 0 1-.2214-.4151V3.1719c0-.5523-.4477-1-1-1H6Zm2.2382 16.8277c.5121-1.0284.5204-2.2574-.0732-3.2855-.6547-1.134-1.8872-1.756-3.165-1.7107v.1942a5.0586 5.0586 0 0 0 2.4779 4.351l.7603.451Zm3.6125-10.6035h.0786A.0709.0709 0 0 0 12 8.3254V6.3553a.3491.3491 0 0 0-.3492-.3492h-.3736a.0656.0656 0 0 0-.0471.0192l-.7481.6983a1.4647 1.4647 0 0 1-1.9928-.0305s-.55-.5159-.5543-.5238A.6329.6329 0 0 0 7.5168 6h-.4461A.0697.0697 0 0 0 7 6.0698v1.9737a.3492.3492 0 0 0 .3492.3491h.2287a.0707.0707 0 0 0 .0707-.0707v-.6983a.3352.3352 0 0 1 .3308-.3352c.2805 0 .4947.2006.6847.3787.0377.0353.0744.0696.1105.1014.0337.0303.0665.0604.0986.09.2179.2003.4053.3726.626.3726.2157 0 .3965-.1648.61-.3594.0371-.0337.0751-.0683.1144-.1032.0356-.0314.0718-.0654.109-.1003.1898-.1783.4043-.3798.6854-.3798a.3353.3353 0 0 1 .3308.3326v.4233a.3491.3491 0 0 0 .3492.3492l.1527.0026Z" fill="currentcolor"/></svg>