<svg viewBox="0 0 24 24" fill="none" xmlns="http://www.w3.org/2000/svg"><path fill-rule="evenodd" clip-rule="evenodd" d="M4.9737 3h5.4478a.5804.5804 0 0 1 .4091.1684.573.573 0 0 1 .1694.4065V5.425a.573.573 0 0 1-.1694.4065.5803.5803 0 0 1-.4091.1684H4.5789a.5815.5815 0 0 1-.2492-.0559.5778.5778 0 0 1-.2007-.157.5734.5734 0 0 1-.1163-.4816l.3948-1.8503a.5743.5743 0 0 1 .202-.3273A.5807.5807 0 0 1 4.9737 3Zm14.5862.4476.4255 1.849a.5665.5665 0 0 1-.0001.2562.5704.5704 0 0 1-.1129.2307.5822.5822 0 0 1-.2033.1596.5914.5914 0 0 1-.2535.0569h-5.8314a.5887.5887 0 0 1-.4131-.1685.571.571 0 0 1-.1711-.407v-1.849a.571.571 0 0 1 .1711-.407A.5887.5887 0 0 1 13.5842 3h5.4059a.5898.5898 0 0 1 .3644.1255.574.574 0 0 1 .2054.322ZM3.6142 7.4669l-.6015 2.8219a.5882.5882 0 0 0 .118.4915.5906.5906 0 0 0 .4564.2197h6.8218a.5918.5918 0 0 0 .418-.1727.5888.5888 0 0 0 .1731-.4169V7.5896a.589.589 0 0 0-.1731-.417.592.592 0 0 0-.418-.1726H4.1917a.59.59 0 0 0-.3719.131.5872.5872 0 0 0-.2056.3359ZM2.0143 16.111l.6767-3.5274c.0313-.1652.113-.3135.2313-.4198.1183-.1062.266-.1641.4184-.1638h6.9943c.1764 0 .3455.0776.4702.2158.1247.1382.1948.3257.1948.5211v3.5262c0 .1954-.0701.3829-.1948.5211S10.5114 17 10.335 17H2.6605a.6127.6127 0 0 1-.2846-.0732.6814.6814 0 0 1-.2288-.2014.772.772 0 0 1-.1288-.2906.8151.8151 0 0 1-.004-.3238ZM19.7658 7h-6.1742a.5925.5925 0 0 0-.4183.1727.5883.5883 0 0 0-.1733.4169v2.8208c0 .1564.0623.3064.1733.4169a.5924.5924 0 0 0 .4183.1727h6.8169a.5924.5924 0 0 0 .4621-.2215.5881.5881 0 0 0 .1148-.498l-.6426-2.825a.5892.5892 0 0 0-.2088-.3281A.5926.5926 0 0 0 19.7658 7Zm-6.1003 5h6.9461c.1503-.0003.2963.0559.4142.1593.1178.1033.2006.2478.2348.41l.723 3.5313a.814.814 0 0 1-.0005.3276.7738.7738 0 0 1-.1287.2949.6822.6822 0 0 1-.2314.2041.613.613 0 0 1-.2884.0728h-7.6691c-.1765 0-.3458-.0776-.4706-.2158-.1248-.1382-.1949-.3257-.1949-.5211v-3.5262c0-.1954.0701-.3829.1949-.5211S13.489 12 13.6655 12ZM13 20h3.6055a.4.4 0 0 1 .4.4c0 .8837-.7164 1.6-1.6 1.6H8.6c-.8837 0-1.6-.7163-1.6-1.6a.4.4 0 0 1 .4-.4H11v-1.5a.5.5 0 0 1 .5-.5h1a.5.5 0 0 1 .5.5V20Z" fill="currentcolor"/></svg>