<svg xmlns="http://www.w3.org/2000/svg" width="24" height="24" fill="none" viewBox="0 0 24 24"><path fill="currentcolor" fill-rule="evenodd" d="M4 4a1 1 0 0 1 1-1h1a1 1 0 0 1 0 2v4.019C6 10.554 7.448 12 9.5 12S13 10.554 13 9.019V5a1 1 0 1 1 0-2h1a1 1 0 0 1 1 1v5.019c0 2.724-2.337 4.774-5.079 4.966v1.987c0 2.273 1.831 4.107 4.079 4.107 2.248 0 4.079-1.834 4.079-4.107v-2.116A3.001 3.001 0 0 1 19 8a3 3 0 0 1 .921 5.856v2.116c0 3.281-2.646 5.95-5.921 5.95-3.275 0-5.921-2.669-5.921-5.95V13.83C5.792 13.273 4 11.404 4 9.019V4Zm16 7a1 1 0 1 1-2 0 1 1 0 0 1 2 0Z" clip-rule="evenodd"/></svg>