<svg xmlns="http://www.w3.org/2000/svg" width="24" height="24" fill="none" viewBox="0 0 24 24"><path fill="currentcolor" fill-rule="evenodd" d="M4 5.92c0-.672 0-1.008.13-1.265a1.2 1.2 0 0 1 .525-.524C4.912 4 5.248 4 5.92 4h12.16c.672 0 1.008 0 1.265.13a1.2 1.2 0 0 1 .524.525C20 4.912 20 5.248 20 5.92v12.16c0 .672 0 1.008-.13 1.265a1.2 1.2 0 0 1-.525.524c-.257.131-.593.131-1.265.131H5.92c-.672 0-1.008 0-1.265-.13a1.2 1.2 0 0 1-.524-.525C4 19.088 4 18.752 4 18.08V5.92Z" clip-rule="evenodd"/></svg>