<svg xmlns="http://www.w3.org/2000/svg" width="24" height="24" fill="none" viewBox="0 0 24 24"><path fill="currentcolor" fill-rule="evenodd" d="M16.435 2.79a1 1 0 0 1 1.414 0l2.829 2.828a1 1 0 0 1-1.414 1.414l-.775-.774-.659.658 2.449 2.448a.5.5 0 0 1 0 .707l-.708.707a.5.5 0 0 1-.707 0l-.26-.26-7.05 7.043-.189-.189c.189.19.188.19.187.19l-.002.002-.003.004-.009.008-.018.017a1.2 1.2 0 0 1-.15.119 1.56 1.56 0 0 1-.325.166 1.98 1.98 0 0 1-1.003.09c-.59-.09-1.266-.41-2.061-1.068l-2.86 2.86a1 1 0 1 1-1.414-1.414l2.86-2.86c-.661-.796-.982-1.475-1.072-2.066a1.98 1.98 0 0 1 .09-1.002 1.566 1.566 0 0 1 .285-.476l.016-.018.008-.008.004-.004.002-.002c.001 0 .002-.002.709.705l-.707-.707 7.05-7.041-.456-.456a.5.5 0 0 1 0-.708l.708-.707a.5.5 0 0 1 .707 0l2.48 2.48.658-.658-.614-.614a1 1 0 0 1 0-1.415Zm-2.068 3.49L12.53 8.116l1.19 1.19a.5.5 0 0 1 0 .707l-.708.707a.5.5 0 0 1-.707 0l-1.19-1.19-.587.585 1.136 1.136a.5.5 0 0 1 0 .707l-.707.707a.5.5 0 0 1-.707 0l-1.137-1.136L7.48 13.16c.043.195.251.725 1.175 1.649s1.454 1.132 1.649 1.175l6.886-6.878-2.823-2.824Z" clip-rule="evenodd"/></svg>