<svg viewBox="0 0 24 24" fill="none" xmlns="http://www.w3.org/2000/svg"><path fill-rule="evenodd" clip-rule="evenodd" d="M13.0722 3.2h.022c1.0406 0 1.9372.5129 2.3267 1.2476.144.2716-.092.5524-.3994.5524H8.1982c-.3093 0-.5456-.284-.3994-.5565C8.1936 3.7081 9.086 3.2 10.1198 3.2h.022v-.009c0-.657.652-1.191 1.4542-1.191.8242 0 1.4762.534 1.4762 1.191V3.2ZM6.9316 8.888c-.407 1.246-.8244 2.7376-1.0386 4.1432-.1501.9854-.2906 2.0131-.4137 2.9688H11.6c.264 0 .48.216.48.48v.6584c1.0848.1728 1.92 1.1088 1.92 2.2416 0 .621-.2493 1.1846-.6531 1.5961 1.4383-.0523 2.5715-.1843 3.4336-.3323 1.3376-.2295 2.0543-1.5101 1.8168-2.8463l-.4247-2.3889c1.2893-.5932 2.1844-1.8964 2.1844-3.4086v-1c0-2.0324-1.6169-3.6872-3.6345-3.7483l-.0759-.4267A1 1 0 0 0 15.6621 6H6.007a.4.4 0 0 0-.3496.5943L6.9317 8.888Zm10.0632-.1047.8999 5.062c.5818-.4067.9623-1.0816.9623-1.8453v-1c0-1.1104-.8044-2.033-1.8622-2.2167ZM10.252 21.28a4.2292 4.2292 0 0 1-.5729.5H4.8818c-.106 0-.2096-.0329-.2927-.0985C3.6236 20.9189 3 19.7416 3 18.42v-1.04c0-.22.18-.4.4-.4H11c.22 0 .4.18.4.4v.132c.904.144 1.6.924 1.6 1.868 0 1.048-.852 1.9-1.9 1.9h-.848Zm1.1479-2.86v-.092c.46.132.8.552.8 1.052 0 .608-.492 1.1-1.1 1.1h-.252c.348-.608.552-1.312.552-2.06Z" fill="currentcolor"/></svg>