<svg viewBox="0 0 24 24" fill="none" xmlns="http://www.w3.org/2000/svg"><path fill-rule="evenodd" clip-rule="evenodd" d="M7.7613 7.8125c-.3889.3889-.3889 1.0194 0 1.4083.3889.389 1.0194.389 1.4083 0l1.8055-1.8054v7.5804c0 .55.4458.9959.9958.9959s.9959-.4459.9959-.9959V7.3846l1.8361 1.8362c.3889.389 1.0195.389 1.4084 0 .3889-.3889.3889-1.0194 0-1.4083l-3.5208-3.5208c-.3889-.389-1.0195-.389-1.4084 0L7.7613 7.8125Zm12.1721 11.1792c0 .55-.4458.9958-.9958.9958H4.9958c-.55 0-.9958-.4458-.9958-.9958s.4459-.9959.9958-.9959h13.9418c.55 0 .9958.4459.9958.9959Z" fill="currentcolor"/></svg>