<svg viewBox="0 0 24 24" fill="none" xmlns="http://www.w3.org/2000/svg"><path fill-rule="evenodd" clip-rule="evenodd" d="M11.9315 2C9.4767 2 7.455 3.6606 7.455 6.8376c0 2.0938.9386 4.1877 2.2383 5.4873.4332 1.1552-.4332 1.8051-.5776 1.8773-2.5993.9386-5.6318 2.6714-5.6318 4.3321v.6498c0 2.2383 4.4043 2.7437 8.4476 2.8159 4.1156-.0722 8.5199-.5776 8.5199-2.8159v-.6498c0-1.6607-3.0325-3.3935-5.6318-4.3321-.2166-.0722-1.083-.7221-.5776-1.8773 1.2996-1.2996 2.2383-3.3935 2.2383-5.4873C16.4803 3.6606 14.3864 2 11.9315 2Z" fill="currentcolor"/></svg>