<svg width="24" height="24" fill="none" xmlns="http://www.w3.org/2000/svg"><path fill-rule="evenodd" clip-rule="evenodd" d="M14.524 7.23a.787.787 0 0 1 1.111 0l2.107 2.103 1.33-1.328a1.887 1.887 0 0 1 2.665 0 1.879 1.879 0 0 1 0 2.66l-1.332 1.33-2.662-2.657L20.405 12l.555.555a2.98 2.98 0 0 1 0 4.215.785.785 0 0 1-1.11 0l-2.108-2.107-1.331 1.33a1.883 1.883 0 0 1-2.663-2.662l1.332-1.33 2.662-2.663-2.662 2.658-.556-.555a2.974 2.974 0 0 1 0-4.211zM5.196 9.678A2.486 2.486 0 0 0 2.71 7.192a.71.71 0 0 0-.71.71v3.965a4.968 4.968 0 1 0 9.935 0V8.79a1.598 1.598 0 1 0-3.196 0v3.077a1.771 1.771 0 1 1-3.543 0V9.678z" fill="currentcolor"/></svg>