<svg viewBox="0 0 24 24" fill="none" xmlns="http://www.w3.org/2000/svg"><path fill-rule="evenodd" clip-rule="evenodd" d="M14.5243 7.2297a.7866.7866 0 0 1 1.111 0l2.1069 2.1033 1.3301-1.3277c.7358-.7346 1.9289-.7346 2.6648 0 .7358.7346.7358 1.9255 0 2.6601l-1.3324 1.3301-2.662-2.6573 2.662 2.6619.555.555c1.1639 1.164 1.1639 3.0511 0 4.215a.785.785 0 0 1-1.1101 0l-2.1074-2.1074-1.3312 1.3312c-.7352.7352-1.9273.7352-2.6625 0-.7352-.7353-.7352-1.9273 0-2.6625l1.3313-1.3313 2.6619-2.6619-2.6619 2.6573-.5555-.5545c-1.165-1.1629-1.165-3.0484 0-4.2113Zm-9.328 2.4486c0-1.373-1.113-2.486-2.486-2.486A.7103.7103 0 0 0 2 7.9024v3.9644c0 2.7436 2.2241 4.9677 4.9677 4.9677s4.9677-2.2241 4.9677-4.9677V8.7904c0-.8826-.7155-1.5982-1.5982-1.5982-.8826 0-1.5982.7156-1.5982 1.5982v3.0765c0 .9783-.793 1.7714-1.7713 1.7714-.9783 0-1.7713-.7931-1.7713-1.7714V9.6783Z" fill="currentcolor"/></svg>