<svg xmlns="http://www.w3.org/2000/svg" width="24" height="24" fill="none" viewBox="0 0 24 24"><path fill="currentcolor" fill-rule="evenodd" d="M14.308 7.383a.787.787 0 0 1 1.11-.05l2.144 2.01 1.325-1.395a1.887 1.887 0 0 1 2.662-.122c.769.7.823 1.89.122 2.657l-1.299 1.368.03.027.58.528a2.98 2.98 0 0 1 .194 4.21.785.785 0 0 1-1.109.052l-2.202-2.008-1.268 1.391a1.883 1.883 0 0 1-2.783-2.537l1.255-1.376-.567-.548a2.974 2.974 0 0 1-.194-4.207ZM5.196 9.678A2.486 2.486 0 0 0 2.71 7.192a.71.71 0 0 0-.71.71v3.965a4.968 4.968 0 1 0 9.935 0V8.791a1.598 1.598 0 1 0-3.196 0v3.076a1.771 1.771 0 1 1-3.543 0V9.678Z" clip-rule="evenodd"/></svg>