<svg viewBox="0 0 24 24" fill="none" xmlns="http://www.w3.org/2000/svg"><path fill-rule="evenodd" clip-rule="evenodd" d="M7.8461 5.6923c.0958 0 .19-.0073.2818-.0214l1.7592 2.932c-.9304.58-1.6053 1.5315-1.8169 2.6471H5.5939C5.346 10.5232 4.6574 10 3.8462 10 2.827 10 2 10.8271 2 11.8462c0 1.019.827 1.8461 1.8462 1.8461.6914 0 1.2937-.38 1.61-.9423h2.614a3.98 3.98 0 0 0 .7078 1.6208l-1.4945 1.6814A1.8488 1.8488 0 0 0 6.846 16C5.8271 16 5 16.8271 5 17.8462c0 1.019.827 1.8461 1.8461 1.8461 1.0191 0 1.8462-.8271 1.8462-1.8461a1.837 1.837 0 0 0-.2197-.8739l1.4053-1.581A3.9813 3.9813 0 0 0 12 16c.2471 0 .489-.0224.7237-.0653l.9147 2.5155c-.391.3386-.6384.8386-.6384 1.396 0 1.019.8271 1.8461 1.8462 1.8461 1.019 0 1.8461-.8271 1.8461-1.8461 0-.9413-.7056-1.7188-1.6164-1.832l-.9538-2.6229a4.0134 4.0134 0 0 0 1.6217-1.9797l2.4318.2211c.2956.6261.9327 1.0596 1.6706 1.0596 1.02 0 1.8461-.8271 1.8461-1.8461 0-1.0191-.8261-1.8462-1.8461-1.8462-.7629 0-1.4181.4634-1.6994 1.1239l-2.1474-.1952a3.9833 3.9833 0 0 0-.9611-2.5304l2.4383-2.743c.1194.0242.243.037.3696.037 1.019 0 1.8461-.827 1.8461-1.8462 0-1.019-.8271-1.8461-1.8461-1.8461C16.8271 3 16 3.827 16 4.8461c0 .339.0915.6568.2512.93L13.865 8.4604A3.9827 3.9827 0 0 0 12 8a4.025 4.025 0 0 0-.6898.0593L9.3898 4.8587a1.8369 1.8369 0 0 0 .3025-1.0125C9.6923 2.827 8.8653 2 7.8462 2 6.827 2 6 2.827 6 3.8462c0 1.019.827 1.8461 1.8461 1.8461Z" fill="currentcolor"/></svg>