<svg width="24" height="24" fill="none" xmlns="http://www.w3.org/2000/svg"><path fill-rule="evenodd" clip-rule="evenodd" d="M12 5.808c4.755 0 9.331 5.394 9.524 5.623l.476.57-.476.568c-.193.229-4.77 5.623-9.524 5.623-4.755 0-9.331-5.394-9.524-5.623L2 12l.476-.569c.193-.229 4.77-5.623 9.524-5.623zM8.462 12A3.542 3.542 0 0 0 12 15.538 3.542 3.542 0 0 0 15.538 12 3.542 3.542 0 0 0 12 8.462 3.542 3.542 0 0 0 8.462 12zm5.307 0a1.77 1.77 0 1 1-3.538 0 1.77 1.77 0 0 1 3.538 0z" fill="currentcolor"/></svg>