<svg width="24" height="24" fill="none" xmlns="http://www.w3.org/2000/svg"><path fill-rule="evenodd" clip-rule="evenodd" d="M20.35 8c.229 0 .329-.273.143-.407-.781-.565-1.894-1.128-2.962-1.227a52.416 52.416 0 0 0-3.61-.222c0-.005-.439-1.452-.439-1.452S13 4 12 4s-1.482.692-1.482.692c-.016.082-.09.304-.172.555-.113.341-.243.736-.272.905a59.35 59.35 0 0 0-3.596.227c-1.07.102-2.185.656-2.967 1.215-.187.133-.087.406.142.406H20.35zm1.294 3.73v-1.3c0-.693-.521-1.283-1.226-1.383-5.518-.784-11.126-.772-16.827.009-.71.095-1.239.685-1.239 1.382V17.5c0 .722.568 1.324 1.307 1.39l5.983.52c.487 0 .919-.308 1.06-.76l.235-.752c.32-1.017 1.802-1.017 2.122 0l.235.752c.141.452.572.76 1.06.76l5.983-.52a1.428 1.428 0 0 0 1.166-.788c.094-.183.14-.39.14-.602v-5.771z" fill="currentcolor"/></svg>