<svg xmlns="http://www.w3.org/2000/svg" viewBox="0 0 24 24" fill="none"><path fill-rule="evenodd" clip-rule="evenodd" d="M20.3498 8c.229 0 .3292-.2727.1437-.4069-.7815-.5652-1.8946-1.1277-2.9627-1.2273-1.0976-.1025-2.2038-.1837-3.6089-.2221 0-.0043-.4399-1.4515-.4399-1.4515S13.0001 4 12.0001 4s-1.4821.6922-1.4821.6922c-.0163.0815-.0895.3036-.1723.5548-.1124.341-.2424.7355-.2719.9052-.9097.0256-2.1355.094-3.5961.2264-1.0698.1029-2.1843.6561-2.9668 1.215C3.3243 7.727 3.424 8 3.6534 8h16.6964zm1.2939 3.7292v-1.2994c0-.6932-.5211-1.2828-1.2258-1.3824-5.518-.7846-11.1257-.7721-16.8273.0083-.709.0955-1.2386.685-1.2386 1.3824V17.5c0 .7223.568 1.3243 1.3069 1.3907l5.9835.5189c.4869 0 .9183-.3072 1.0592-.7597l.2349-.7514c.3203-1.0171 1.8023-1.0171 2.1227 0l.2349.7514c.1409.4525.5723.7597 1.0591.7597l5.9836-.5189c.521-.0457.9567-.357 1.166-.7888.0939-.1826.1409-.3902.1409-.6019v-5.7708z" fill="currentcolor"/></svg>