<svg xmlns="http://www.w3.org/2000/svg" width="24" height="24" fill="none" viewBox="0 0 24 24"><path fill="currentcolor" fill-rule="evenodd" d="M20.35 8c.229 0 .329-.273.143-.407-.781-.565-1.894-1.128-2.962-1.227a52.42 52.42 0 0 0-3.61-.222c0-.005-.44-1.452-.44-1.452S13 4 12 4s-1.482.692-1.482.692c-.016.082-.09.304-.172.555-.113.341-.243.736-.272.905a59.35 59.35 0 0 0-3.596.227c-1.07.102-2.185.656-2.967 1.215-.187.133-.087.406.142.406H20.35Zm1.294 2.43c-.144-.43-.521-1.283-1.226-1.383-5.518-.784-11.126-.772-16.828.009-.708.095-1.09.944-1.238 1.382C2.352 10.438 2 11.5 2 14c0 2.28.293 3.313.344 3.477l.005.015.01.032c.154.502.573 1.301 1.3 1.367l5.983.519c.487 0 .919-.308 1.06-.76l.235-.752c.32-1.017 1.802-1.017 2.122 0l.235.752c.14.452.572.76 1.06.76l5.983-.52c.52-.045 1.097-.958 1.307-1.39 0 0 .356-.5.356-3.5s-.356-3.57-.356-3.57Z" clip-rule="evenodd"/></svg>