<svg width="24" height="24" fill="none" xmlns="http://www.w3.org/2000/svg"><path fill-rule="evenodd" clip-rule="evenodd" d="M9 3.869c0-.85.54-1.608 1.38-1.74A10.45 10.45 0 0 1 12 2c.606 0 1.159.056 1.62.129.84.132 1.38.89 1.38 1.74v2.494a3.257 3.257 0 0 0-1.141-.295 25.627 25.627 0 0 0-3.718 0c-.41.03-.794.133-1.141.295V3.869zm0 16.263v-2.495c.347.162.73.265 1.141.294a25.61 25.61 0 0 0 3.718 0c.41-.03.794-.132 1.141-.294v2.495c0 .825-.51 1.567-1.322 1.714A9.446 9.446 0 0 1 12 22a9.446 9.446 0 0 1-1.678-.154C9.51 21.7 9 20.956 9 20.132zm-2-9.458c0-1.859 1.287-3.47 3.141-3.606a25.627 25.627 0 0 1 3.718 0C15.713 7.204 17 8.815 17 10.674v2.652c0 1.859-1.287 3.47-3.141 3.605a25.61 25.61 0 0 1-3.718 0C8.287 16.796 7 15.185 7 13.326v-2.652zm5.505 2.624 1.917-3.426a.501.501 0 0 0-.873-.488l-1.773 3.17H9.913a.5.5 0 1 0 0 1h2.156a.5.5 0 0 0 .436-.256z" fill="currentcolor"/></svg>