<svg viewBox="0 0 24 24" fill="none" xmlns="http://www.w3.org/2000/svg"><path fill-rule="evenodd" clip-rule="evenodd" d="M5 8v10.3238C6.7618 18.611 9.6 19 12 19c2.4 0 5.2382-.389 7-.6762V8H5ZM3 4.905c0-.5138.3874-.943.8992-.988C5.5189 3.7749 9.0342 3.5 12 3.5c2.9657 0 6.4811.2749 8.1008.417.5118.045.8992.4742.8992.988v14.2752c0 .4767-.335.8859-.8044.9691C18.6218 20.4281 15.025 21 12 21c-3.025 0-6.6218-.5719-8.1956-.8507C3.335 20.0661 3 19.6569 3 19.1802V4.905Zm6.3195 6.0004.001.0009a.9089.9089 0 0 1 0 1.2853L8.23 13.282l1.094 1.1058c.3536.3573.3492.9326-.007 1.2852l-.002.0019a.9097.9097 0 0 1-1.2814-.0071l-.0019-.0019-1.7293-1.7478a.9071.9071 0 0 1-.2615-.6844.9072.9072 0 0 1 .265-.5981l1.7303-1.7302c.3547-.3528.9287-.3528 1.2834 0Zm6.576-.0044.0009.0009 1.7478 1.7293a.907.907 0 0 1 .2613.5245.908.908 0 0 1-.2578.766l-1.7496 1.7496a.9114.9114 0 0 1-.6407.2639.9115.9115 0 0 1-.6408-.2639l-.0018-.0018c-.3549-.355-.355-.9303-.0001-1.2852l1.1026-1.1027-1.099-1.0873c-.3574-.3538-.3583-.9284-.008-1.2843.3529-.3586.9283-.3603 1.2852-.009Zm-2.6221-.8096a.75.75 0 0 0-1.4552-.3638l-1.6362 6.5448a.75.75 0 0 0 1.4552.3638l1.6362-6.5448Z" fill="currentcolor"/></svg>