<svg xmlns="http://www.w3.org/2000/svg" width="24" height="24" fill="none" viewBox="0 0 24 24"><path fill="currentcolor" fill-rule="evenodd" d="M5 8v10.324c1.762.287 4.6.676 7 .676 2.4 0 5.238-.389 7-.676V8H5ZM3 4.905c0-.514.387-.943.9-.988C5.518 3.775 9.033 3.5 12 3.5c2.966 0 6.481.275 8.1.417.513.045.9.474.9.988V19.18a.978.978 0 0 1-.804.97c-1.574.278-5.171.85-8.196.85-3.025 0-6.622-.572-8.196-.85A.978.978 0 0 1 3 19.18V4.905Zm6.32 6v.001a.909.909 0 0 1 0 1.286l-1.09 1.09 1.094 1.106a.909.909 0 0 1-.007 1.285l-.002.002a.91.91 0 0 1-1.281-.007l-.002-.002-1.73-1.748a.907.907 0 0 1 .004-1.282l1.73-1.73a.91.91 0 0 1 1.284 0Zm6.575-.004h.001l1.748 1.73a.908.908 0 0 1 .003 1.29l-1.749 1.75a.911.911 0 0 1-1.281 0l-.002-.002a.909.909 0 0 1 0-1.285l1.102-1.102-1.099-1.088a.91.91 0 0 1 1.277-1.293Zm-2.622-.81a.75.75 0 1 0-1.455-.363l-1.636 6.544a.75.75 0 0 0 1.455.364l1.636-6.545Z" clip-rule="evenodd"/></svg>