<svg viewBox="0 0 24 24" fill="none" xmlns="http://www.w3.org/2000/svg"><path fill-rule="evenodd" clip-rule="evenodd" d="M8.0198 13c.1038 2.6148.6105 4.9333 1.3627 6.562-2.8298-.9794-4.939-3.5024-5.3206-6.562h3.9579Zm2.0016 0c.0929 2.15.4795 4.0092 1.0071 5.3283.3062.7654.6207 1.2505.8676 1.5116a1.518 1.518 0 0 0 .1039.1008 1.518 1.518 0 0 0 .1039-.1008c.2469-.2611.5614-.7462.8676-1.5116.5276-1.3191.9142-3.1783 1.0071-5.3283h-3.9572Zm3.9572-2h-3.9572c.0929-2.15.4795-4.0092 1.0071-5.3283.3062-.7654.6207-1.2505.8676-1.5116A1.5316 1.5316 0 0 1 12 4.0593c.0289.0252.0635.0581.1039.1008.2469.261.5614.7462.8676 1.5116.5276 1.3191.9142 3.1783 1.0071 5.3283Zm2.0016 2c-.1038 2.6148-.6105 4.9333-1.3627 6.562 2.8298-.9794 4.9391-3.5024 5.3206-6.562h-3.9579Zm3.9579-2h-3.9578c-.1039-2.6148-.6106-4.9333-1.3628-6.562 2.8298.9794 4.9391 3.5024 5.3206 6.562ZM8.0198 11h-3.958c.3816-3.0596 2.4909-5.5826 5.3207-6.562C8.6303 6.0667 8.1235 8.3852 8.0197 11ZM22 12c0-5.5229-4.4772-10-10-10C6.4771 2 2 6.4771 2 12c0 5.5228 4.4771 10 10 10 5.5228 0 10-4.4772 10-10Z" fill="currentcolor"/></svg>