<svg width="24" height="24" fill="none" xmlns="http://www.w3.org/2000/svg"><path fill-rule="evenodd" clip-rule="evenodd" d="M8.02 13c.104 2.615.61 4.933 1.363 6.562A8.009 8.009 0 0 1 4.062 13H8.02zm2.001 0c.093 2.15.48 4.01 1.007 5.328.307.766.621 1.25.868 1.512.04.043.075.076.104.1.029-.024.063-.057.104-.1.247-.261.561-.746.868-1.512.527-1.319.914-3.178 1.007-5.328H10.02zm3.958-2H10.02c.093-2.15.48-4.01 1.007-5.328.307-.766.621-1.25.868-1.512.04-.043.075-.075.104-.1.029.025.063.057.104.1.247.261.561.746.868 1.512.527 1.319.914 3.178 1.007 5.328zm2.001 2c-.104 2.615-.61 4.933-1.363 6.562A8.009 8.009 0 0 0 19.938 13H15.98zm3.958-2H15.98c-.104-2.615-.61-4.933-1.363-6.562A8.009 8.009 0 0 1 19.938 11zM8.02 11H4.062a8.009 8.009 0 0 1 5.32-6.562C8.63 6.067 8.125 8.385 8.02 11zM22 12c0-5.523-4.477-10-10-10S2 6.477 2 12s4.477 10 10 10 10-4.477 10-10z" fill="currentcolor"/></svg>