<svg width="24" height="24" fill="none" xmlns="http://www.w3.org/2000/svg"><path fill-rule="evenodd" clip-rule="evenodd" d="M14.5 2.192V6a.5.5 0 0 0 .5.5h3.907c.03.142.057.286.081.429a.878.878 0 0 1 .012.143v2.026A69.348 69.348 0 0 0 15 9c-3.806 0-5.6.201-6.403.348-.373.069-.597.391-.597.77v6.764c0 .379.224.701.597.77C9.4 17.799 11.194 18 15 18c1.708 0 3.01-.04 4-.098v1.862c0 .758-.436 1.437-1.17 1.627-1.082.28-2.963.609-5.83.609s-4.748-.329-5.83-.61C5.435 21.2 5 20.522 5 19.765V4.236C5 3.48 5.436 2.8 6.17 2.61 7.251 2.33 9.132 2 12 2c.957 0 1.786.073 2.5.192zm1 .21V5.5h3.137c-.462-1.364-1.287-2.529-2.679-2.966a9.682 9.682 0 0 0-.458-.131zM11.099 14.56h2.15v.706H10v-.516l2.11-3.038h-2.107V11h3.2v.504l-2.104 3.056zm3.735.706h-.88V11h.88v4.266zm1.79 0v-1.503h.77c.506 0 .901-.12 1.186-.36.287-.243.43-.573.43-.99 0-.276-.065-.521-.195-.736a1.291 1.291 0 0 0-.563-.501 1.916 1.916 0 0 0-.844-.176h-1.664v4.266h.88zm.784-2.215h-.785v-1.34h.806c.217.005.387.071.51.2a.704.704 0 0 1 .184.507c0 .203-.061.36-.184.469-.122.11-.298.164-.53.164z" fill="currentcolor"/></svg>