<?xml version="1.0" standalone="no"?>
<!DOCTYPE svg PUBLIC "-//W3C//DTD SVG 20010904//EN"
 "http://www.w3.org/TR/2001/REC-SVG-20010904/DTD/svg10.dtd">
<svg version="1.0" xmlns="http://www.w3.org/2000/svg"
 width="700.000000pt" height="700.000000pt" viewBox="0 0 700.000000 700.000000"
 preserveAspectRatio="xMidYMid meet">
<metadata>
Created by potrace 1.14, written by Peter Selinger 2001-2017
</metadata>
<g transform="translate(0.000000,700.000000) scale(0.100000,-0.100000)"
fill="#000000" stroke="none">
<path d="M2480 6534 c-446 -60 -823 -247 -1141 -565 -522 -522 -865 -1367
-939 -2313 -13 -165 -13 -576 0 -731 86 -1022 491 -1813 1115 -2180 227 -134
505 -223 835 -267 145 -20 582 -16 755 6 513 65 1009 214 1500 450 227 110
373 193 595 341 237 157 417 302 604 485 431 421 686 850 776 1305 27 138 37
382 21 520 -63 541 -355 1091 -846 1594 -386 395 -806 700 -1300 945 -461 229
-909 365 -1360 416 -128 14 -490 11 -615 -6z m1315 -1038 c241 -36 439 -93
615 -177 297 -142 494 -329 629 -598 329 -653 163 -1728 -394 -2566 -333 -500
-715 -800 -1150 -901 -119 -28 -393 -26 -528 4 -421 93 -843 348 -1207 729
-403 422 -680 931 -782 1434 -20 98 -23 144 -23 334 0 237 9 305 61 462 149
445 568 827 1169 1066 314 125 626 197 1005 231 97 9 509 -3 605 -18z"/>
<path d="M3170 4966 c-365 -56 -631 -217 -753 -453 -54 -105 -73 -166 -92
-293 -43 -281 21 -609 181 -920 179 -347 435 -583 707 -652 114 -29 276 -22
397 17 268 86 539 293 746 568 204 271 317 550 331 812 8 146 -12 247 -73 374
-38 78 -60 108 -132 181 -132 132 -265 212 -472 285 -187 65 -317 86 -550 90
-137 3 -233 0 -290 -9z"/>
</g>
</svg>
