<svg width="4" height="10" viewBox="0 0 4 10" fill="none" xmlns="http://www.w3.org/2000/svg">
<path fill-rule="evenodd" clip-rule="evenodd" d="M1.99977 2.86673C2.58888 2.86673 3.06644 2.38917 3.06644 1.80007C3.06644 1.21096 2.58888 0.733398 1.99977 0.733398C1.41067 0.733398 0.933105 1.21096 0.933105 1.80007C0.933105 2.38917 1.41067 2.86673 1.99977 2.86673ZM1.26518 8.69334C1.48657 8.91473 1.79228 9.02542 2.18234 9.02542H2.92556C3.07315 9.02542 3.14694 8.96217 3.14694 8.83566V5.18283C3.14694 4.79277 3.03625 4.48705 2.81487 4.26567C2.59348 4.04428 2.28776 3.93359 1.89771 3.93359H1.15449C1.0069 3.93359 0.933105 3.99685 0.933105 4.12335V7.77618C0.933105 8.16624 1.0438 8.47196 1.26518 8.69334Z" fill="currentColor"/>
</svg>
