<svg viewBox="0 0 24 24" fill="none" xmlns="http://www.w3.org/2000/svg"><path fill-rule="evenodd" clip-rule="evenodd" d="M20.7767 11.2574c.5684.0631 1.0104.5262 1.0525 1.0946l.1684 2.5892c.0421.6946-.4841 1.263-1.1788 1.263H19.9827C19.8366 14.9638 18.781 14 17.5 14s-2.3366.9638-2.4827 2.2042H8.9827C8.8366 14.9638 7.781 14 6.5 14s-2.3366.9638-2.4827 2.2042h-.8174C2.5473 16.2042 2 15.6569 2 15.0043v-2.5471c0-.3789.0842-.7578.2105-1.1156l2.0213-4.589C4.5054 6.016 5.221 5.5317 6 5.5317h6.4792c.7999 0 1.5366.3579 2.0208.9684l2.8245 4.3573 3.4522.4Zm-7.2048-1.0205-2.9461 4.6714c-.1121.1786-.4026.0752-.3623-.1285l.4935-2.5164c.0221-.1141-.0708-.2194-.1937-.2194H8.1971c-.1528 0-.2472-.1568-.169-.2812l2.9457-4.6714c.1125-.1781.403-.0747.3632.129l-.494 2.5164c-.0226.1141.0708.2195.1937.2195h2.3662c.1528 0 .2472.1568.169.2806ZM6.5 18.0001c.8286 0 1.5-.6721 1.5-1.5005 0-.8275-.6714-1.4995-1.5-1.4995s-1.5.672-1.5 1.4995c0 .8284.6714 1.5005 1.5 1.5005Zm11 0c.8286 0 1.5-.6721 1.5-1.5005 0-.8275-.6714-1.4995-1.5-1.4995s-1.5.672-1.5 1.4995c0 .8284.6714 1.5005 1.5 1.5005Z" fill="currentcolor"/></svg>