<svg viewBox="0 0 2000 2000" fill="none" xmlns="http://www.w3.org/2000/svg">
<path fill-rule="evenodd" clip-rule="evenodd" d="M2000 0H0V2000H2000V0ZM1435.18 922.655L1384.76 842.04C1375.41 827.078 1355.73 822.489 1340.73 831.77L1298.91 857.643L1243.15 892.148C1234.62 897.421 1228.16 905.451 1224.83 914.905L1200.14 984.977C1194.66 1000.52 1204.09 1017.34 1220.2 1020.78L1306.83 1039.26C1319.95 1042.06 1333.62 1038.71 1343.96 1030.16L1429.17 959.748C1440.19 950.643 1442.76 934.778 1435.18 922.655ZM1082.54 1059.76L1061.79 1156.79C1058.67 1171.38 1045.22 1181.4 1030.34 1180.22L915.326 1171.1C901.371 1170 888.687 1162.58 880.886 1150.95L829.363 1074.19C819.78 1059.91 824.93 1040.45 840.325 1032.78L909.726 998.209C919.09 993.543 929.767 992.22 939.985 994.458L1006.85 1009.1L1056.99 1020.08C1074.97 1024.02 1086.39 1041.76 1082.54 1059.76ZM592.716 1008.95L565.423 1104.34C561.318 1118.69 568.476 1133.85 582.158 1139.8L687.969 1185.8C700.807 1191.38 715.491 1190.79 727.84 1184.2L809.407 1140.65C824.578 1132.55 829.176 1112.96 819.194 1098.95L774.191 1035.82C768.119 1027.3 759.317 1021.12 749.245 1018.29L683.341 999.799L633.925 985.933C616.197 980.958 597.781 991.243 592.716 1008.95Z" fill="currentColor"/>
</svg>
