<svg viewBox="0 0 24 24" fill="none" xmlns="http://www.w3.org/2000/svg"><path fill-rule="evenodd" clip-rule="evenodd" d="M14.4799 3c0-.5523-.4477-1-1-1h-2.96c-.5523 0-1 .4477-1 1v7.1229c0 .7148.0439 1.4238.1315 2.1269.055.4416.1211.8886.1982 1.341.0802.4712.4931.8092.9711.8092h2.3584c.478 0 .8909-.338.9712-.8092.0771-.4524.1431-.8994.1982-1.341a17.1869 17.1869 0 0 0 .1314-2.1269V3ZM9.5993 18.3813c-.133.3142-.1994.6538-.1994 1.0187 0 .3649.0665.707.1994 1.0263.133.3193.3152.5955.5466.8287.2315.2331.5048.4156.8199.5473.3152.1318.6599.1977 1.0341.1977.3644 0 .7042-.0659 1.0193-.1977.3152-.1317.5909-.3142.8273-.5473.2364-.2332.421-.5094.554-.8287.1329-.3193.1994-.6614.1994-1.0263s-.0665-.7045-.1994-1.0187c-.133-.3142-.3176-.5879-.554-.8211-.2364-.2331-.5121-.4181-.8273-.5549-.3151-.1369-.6549-.2053-1.0193-.2053-.3742 0-.7189.0684-1.0341.2053-.3151.1368-.5884.3218-.8199.5549-.2314.2332-.4136.5069-.5466.8211Z" fill="currentcolor"/></svg>