<svg viewBox="0 0 24 24" fill="none" xmlns="http://www.w3.org/2000/svg"><path fill-rule="evenodd" clip-rule="evenodd" d="M9.6847 14.1189a.4894.4894 0 0 0 .402.4005c5.0511.8343 8.7483-.2773 8.9514-.3431l.397-.397c2.5318-2.5317 2.5318-6.6545 0-9.1862-2.5317-2.5317-6.6545-2.5317-9.1862 0l-.226.226c-.1374.466-1.1921 4.2508-.3382 9.2998Zm8.1502-7.9255c1.6033 1.6033 1.6033 4.2113 0 5.8147-1.6033 1.6033-4.2114 1.6033-5.8147 0-1.6033-1.6034-1.6033-4.2114 0-5.8147s4.2114-1.6033 5.8147 0Zm-14.717 6.0009c1.8098.939 3.5744 1.5625 5.2322 1.9669.1727.0421.3306-.1071.3038-.2829-.4364-2.8658-.3014-5.2889-.0672-6.9611.034-.2426-.2655-.3964-.4388-.2232l-3.9824 3.9825a6.382 6.382 0 0 0-1.1147 1.4995.6914.6914 0 0 0 .0198.0046c.0166.0037.032.0071.0474.0137Zm11.6767-3.9834a.4183.4183 0 0 1-.0425.1381.478.478 0 0 1-.0637.1275l-.0106.014c-.0274.0368-.052.0698-.085.1028-.1381.138-.3346.2178-.5311.223-.2974 0-.5789-.1858-.6905-.4673-.0425-.0956-.0584-.1859-.0637-.2868.0053-.1965.085-.393.2231-.531.033-.033.066-.0577.1027-.0851l.0141-.0106a.4777.4777 0 0 1 .1275-.0637.4175.4175 0 0 1 .1381-.0425c.0353-.0118.0737-.0149.1106-.0178h.0001a1.233 1.233 0 0 0 .038-.0035c.1009.0054.1912.0213.2868.0638.0903.0371.1752.0903.2443.1593.1434.1434.2177.3346.223.5311a1.6717 1.6717 0 0 1-.0212.1487Zm1.9692 1.9692a.4149.4149 0 0 1-.0425.138.4756.4756 0 0 1-.0637.1275l-.0106.0141c-.0274.0368-.052.0698-.085.1028-.1381.138-.3346.2177-.5311.223-.2974 0-.5789-.1859-.6904-.4674-.0425-.0955-.0584-.1858-.0638-.2867.0054-.1966.085-.393.2231-.5312.033-.033.066-.0576.1027-.085l.0141-.0106a.4783.4783 0 0 1 .1275-.0637.4177.4177 0 0 1 .1381-.0425c.0354-.0118.0737-.0148.1106-.0178.0129-.001.0257-.002.0381-.0034.1009.0053.1912.0212.2868.0637.0903.0372.1753.0903.2443.1593.1434.1434.2178.3346.2231.5312a1.6727 1.6727 0 0 1-.0213.1487ZM2.6783 13.0373c6.5048 3.3715 12.3684 2.9134 15.0833 2.4156l-4.4099 4.4099c-2.5317 2.5317-6.6545 2.5317-9.1862 0-1.8446-1.8446-2.3393-4.532-1.4964-6.8347l.0091.0092Zm10.7226-1.9293a.5001.5001 0 0 0 .7071-.7071l-.5932-.5932a.5.5 0 1 0-.7071.7071l.5932.5932Z" fill="currentcolor"/></svg>