<svg xmlns="http://www.w3.org/2000/svg" width="24" height="24" fill="none" viewBox="0 0 24 24"><path fill="currentcolor" fill-rule="evenodd" d="m16.952 14.422.038.095a3.858 3.858 0 0 1-.777 4.36l-1.65 1.649c-.36.38-.985.265-1.212-.209l-1.233-2.672-1.44.91a.914.914 0 0 1-1.1-.133l-3.98-3.981a.893.893 0 0 1-.133-1.1l.91-1.44-2.673-1.232c-.474-.209-.588-.835-.209-1.214l1.65-1.649a3.884 3.884 0 0 1 4.36-.777l.075.019c4.493-4.247 8.704-3.882 10.277-3.693A.726.726 0 0 1 20.5 4c.19 1.573.699 5.93-3.548 10.422Zm-3.734-6.483a2.014 2.014 0 0 0 0 2.862c.796.777 2.085.777 2.862 0 .778-.796.797-2.066 0-2.862a2.014 2.014 0 0 0-2.862 0Zm-7.659 10.16c0 .21.17.36.36.36l.135-.006c.35-.018.875-.045 1.458-.145l1.346.626c.067.03.078.12.021.165-1.579 1.253-3.663 1.257-4.712 1.259-.115 0-.218 0-.307.002A.36.36 0 0 1 3.5 20l.002-.112c.018-.954.056-3.09 1.4-4.768a.098.098 0 0 1 .164.02l.645 1.367a10.083 10.083 0 0 0-.152 1.593Z" clip-rule="evenodd"/></svg>