<svg viewBox="0 0 24 24" fill="none" xmlns="http://www.w3.org/2000/svg"><path fill-rule="evenodd" clip-rule="evenodd" d="m16.9524 14.422.0379.0948c.6824 1.4596.3791 3.2036-.7773 4.36l-1.6492 1.6492c-.3602.3792-.9857.2654-1.2132-.2085l-1.2322-2.6729-1.4407.9099c-.3602.2086-.8152.1517-1.0995-.1327l-3.981-3.9809a.8934.8934 0 0 1-.1326-1.0995l.9099-1.4407-2.673-1.2322c-.4738-.2085-.5876-.834-.2084-1.2132L5.1423 7.806c1.1564-1.1374 2.8814-1.4597 4.36-.7773l.0759.019c4.4927-4.2463 8.7039-3.882 10.2773-3.6924A.726.726 0 0 1 20.5 4c.1896 1.5734.6987 5.9292-3.5476 10.422Zm-3.7345-6.4833c-.7962.7962-.7962 2.0663 0 2.8625.7962.7773 2.0852.7773 2.8624 0 .7773-.7962.7962-2.0663 0-2.8624-.7961-.7962-2.0662-.7962-2.8624 0ZM5.5592 18.0997c0 .2085.1706.3601.3602.3601.0415-.0023.0866-.0046.135-.0071.3502-.0178.8746-.0446 1.4573-.1445l1.3468.626c.0661.0308.0778.1198.0206.1651-1.5787 1.253-3.6632 1.2568-4.7117 1.2587a17.4489 17.4489 0 0 0-.3072.0022c-.2085 0-.3602-.1706-.3602-.3602l.0021-.1117c.0174-.9543.0564-3.0902 1.399-4.7683a.098.098 0 0 1 .1651.0204l.6447 1.3669c-.1138.6635-.1517 1.2511-.1517 1.5924Z" fill="currentcolor"/></svg>