<svg xmlns="http://www.w3.org/2000/svg" fill="none" viewBox="0 0 3284 2340"><path fill="#0F69AF" fill-rule="evenodd" d="M2778 371s-7 40 33 48l342 62s40 7 48-33l61-338s7-40-33-47L2887 1s-40-8-48 33l-61 337zM1372 261s35-3 32-37l-12-190s-2-35-37-33l-259 17s-35 2-32 37l12 190s2 35 37 33l259-17zm1089 384c-29 44-73 15-73 15l-480-316c-44-29-15-73-15-73l145-219c29-44 73-15 73-15l479 316c44 29 15 73 15 73l-144 219zm159 17s-4 35 31 39l67 8s35 3 39-31l21-184s4-35-31-39l-68-7s-34-4-38 31l-21 183zm633 90c-5 35-40 30-40 30l-103-13c-35-5-31-40-31-40l25-188c5-35 39-30 39-30l104 13c35 5 30 39 30 39l-24 189zm-553 286c-46-24-22-70-22-70l130-246c25-46 71-22 71-22l291 154c46 25 22 71 22 71l-131 245c-24 47-70 22-70 22l-291-154zm-509-160s-5 52 47 58l326 37s53 6 58-46l15-127s6-52-47-58l-326-37s-52-6-58 46l-15 127zm57 767c-49-19-30-68-30-68l205-537c19-49 68-30 68-30l245 94c49 19 30 67 30 67l-205 537c-19 49-68 31-68 31l-245-94zm-576-293c-48-19-29-67-29-67l160-409c19-49 68-30 68-30l414 162c48 19 29 68 29 68l-160 409c-19 49-67 30-67 30l-415-163zm1301 225s29 20 49-9l110-155s21-28-8-48l-211-151s-29-20-49 9l-110 155s-20 28 8 48l211 151zM153 703s-39 74 35 113l630 334s74 39 113-35l330-621s39-75-35-114L596 46S522 7 482 81L153 703zm927 542c-60-21-39-80-39-80l111-314c21-60 80-39 80-39l372 132c59 20 39 80 39 80l-111 314c-21 59-81 38-81 38l-371-131zm-350 337s-6 59 52 65l115 13s59 7 65-52l35-311s7-59-52-66l-114-13s-59-6-66 53l-35 311zm319-163c7-52 59-45 59-45l570 77c52 7 45 59 45 59l-36 261c-7 52-58 45-58 45l-570-77c-52-7-45-59-45-59l35-261zm-89 912s76 22 97-54l108-383s22-76-54-97l-837-236s-76-22-97 54L69 1998s-22 76 54 98l837 235zm-277-862c-3 49-52 45-52 45l-533-40c-49-3-45-52-45-52l18-244c4-49 52-45 52-45l533 40c49 4 45 52 45 52l-18 244zm1018 426s-24 58 34 82l363 152s58 24 83-34l128-307s24-58-34-82l-364-153s-58-24-82 34l-128 308zm-478 173c-35-4-31-39-31-39l21-184c4-34 38-30 38-30l68 7c35 4 31 39 31 39l-21 184c-4 34-38 30-38 30l-68-7zm171-78s-8 24 15 33l150 53s24 8 32-16l45-126s8-24-15-33l-150-52s-24-9-32 15l-45 126zm-166 349c-52 0-52-52-52-52v-128c0-53 53-52 53-52h328c53 0 53 53 53 53l-1 127c0 53-52 53-52 53l-329-1zm851-1522s35 5 39-30l25-188s5-35-30-39l-104-14s-35-4-39 30l-25 189s-4 34 30 39l104 13zm-538-2c-53 3-55-49-55-49l-30-574c-3-53 49-55 49-55l263-14c52-3 55 50 55 50l30 574c3 52-50 55-50 55l-262 13zm-270-61s-4 35 31 38l68 8s34 4 38-31l21-184s4-34-31-38l-68-8s-34-4-38 31l-21 184zM278 379c-7 49-55 42-55 42L78 403c-48-7-42-55-42-55L70 85c7-48 55-42 55-42l145 19c48 6 42 55 42 55l-34 262zM26 893c12-40 53-28 53-28l215 66c41 12 28 53 28 53l-24 79c-12 40-53 28-53 28l-215-65c-41-13-28-53-28-53l24-80zm1644 1374s-4 35 31 39l68 7s34 4 38-31l21-183s4-35-31-39l-68-8s-34-4-38 31l-21 184zm212-116c11-33 44-22 44-22l176 56c34 11 23 44 23 44l-21 65c-11 33-44 23-44 23l-176-57c-33-10-23-44-23-44l21-65zm736-84s-8 72 64 81l455 52s73 8 81-64l44-384s9-73-64-81l-454-53s-73-8-81 65l-45 384zm-136 183c-14 51-65 37-65 37l-123-34c-51-14-37-65-37-65l88-317c14-50 65-36 65-36l123 34c50 14 36 64 36 64l-87 317zm383-1595c-18-3-15-21-15-21l27-147c3-17 21-14 21-14l149 27c17 3 14 21 14 21l-26 147c-4 17-21 14-21 14l-149-27zm260 632s-4 35 31 39l68 8s34 4 38-31l21-184s4-35-31-39l-67-7s-35-4-39 31l-21 183zM2531 253c-21-4-17-26-17-26l33-180c3-22 25-18 25-18l183 33c21 4 17 26 17 26l-33 180c-3 22-25 18-25 18l-183-33z" clip-rule="evenodd"/></svg>
