<svg width="3218" height="2313" viewBox="0 0 3218 2313" fill="none" xmlns="http://www.w3.org/2000/svg">
<path d="M2147.57 1236.44C2139.3 1236.44 2129.69 1230.29 2126.34 1222.69L1996.5 931.041C1993.15 923.439 1996.39 914.049 2003.65 910.137L2318.52 740.221C2325.79 736.309 2337.74 736.309 2345.12 740.221L2659.99 910.025C2667.25 913.937 2670.49 923.439 2667.14 930.929L2537.3 1222.58C2533.95 1230.18 2524.34 1236.33 2516.07 1236.33H2147.57V1236.44ZM2515.96 1236.44C2524.23 1236.44 2533.84 1230.29 2537.19 1222.69L2667.03 931.041C2670.38 923.439 2667.14 914.049 2659.88 910.137L2345.01 740.333C2337.74 736.421 2325.79 736.421 2318.41 740.333L2003.54 910.137C1996.28 914.049 1993.04 923.551 1996.39 931.041L2126.23 1222.69C2129.58 1230.29 2139.19 1236.44 2147.46 1236.44H2515.96ZM2703.34 1563.42C2706.7 1571.02 2715.41 1573.92 2722.79 1570.01L2964.36 1439.78C2971.62 1435.87 2977.66 1425.81 2977.66 1417.54V1096.48C2977.66 1088.21 2971.73 1078.15 2964.36 1074.24L2722.67 943.896C2715.41 939.984 2706.7 942.89 2703.23 950.492L2572.95 1243.15C2569.6 1250.75 2569.6 1263.16 2572.95 1270.76L2703.34 1563.42ZM2703.34 1563.42C2706.7 1571.02 2715.41 1573.92 2722.79 1570.01L2964.36 1439.78C2971.62 1435.87 2977.66 1425.81 2977.66 1417.54V1096.48C2977.66 1088.21 2971.73 1078.15 2964.36 1074.24L2722.67 943.896C2715.41 939.984 2706.7 942.89 2703.23 950.492L2572.95 1243.15C2569.6 1250.75 2569.6 1263.16 2572.95 1270.76L2703.34 1563.42ZM1960.3 950.492C1956.95 942.89 1948.23 939.984 1940.86 943.896L1699.17 1074.24C1691.91 1078.15 1685.87 1088.21 1685.87 1096.48V1417.54C1685.87 1425.81 1691.8 1435.87 1699.17 1439.78L1940.86 1570.12C1948.12 1574.04 1956.83 1571.13 1960.3 1563.53L2090.58 1270.87C2093.93 1263.27 2093.93 1250.86 2090.58 1243.26L1960.3 950.492ZM1960.3 950.492C1956.95 942.89 1948.23 939.984 1940.86 943.896L1699.17 1074.24C1691.91 1078.15 1685.87 1088.21 1685.87 1096.48V1417.54C1685.87 1425.81 1691.8 1435.87 1699.17 1439.78L1940.86 1570.12C1948.12 1574.04 1956.83 1571.13 1960.3 1563.53L2090.58 1270.87C2093.93 1263.27 2093.93 1250.86 2090.58 1243.26L1960.3 950.492ZM2659.88 1603.99C2667.14 1600.08 2670.38 1590.58 2667.03 1583.09L2537.19 1291.44C2533.84 1283.84 2524.23 1277.69 2515.96 1277.69H2147.57C2139.3 1277.69 2129.69 1283.84 2126.34 1291.44L1996.5 1583.09C1993.15 1590.69 1996.39 1600.08 2003.65 1603.99L2318.52 1773.8C2325.79 1777.71 2337.74 1777.71 2345.12 1773.8L2659.88 1603.99ZM2659.88 1603.99C2667.14 1600.08 2670.38 1590.58 2667.03 1583.09L2537.19 1291.44C2533.84 1283.84 2524.23 1277.69 2515.96 1277.69H2147.57C2139.3 1277.69 2129.69 1283.84 2126.34 1291.44L1996.5 1583.09C1993.15 1590.69 1996.39 1600.08 2003.65 1603.99L2318.52 1773.8C2325.79 1777.71 2337.74 1777.71 2345.12 1773.8L2659.88 1603.99ZM2515.96 1236.44C2524.23 1236.44 2533.84 1230.29 2537.19 1222.69L2667.03 931.041C2670.38 923.439 2667.14 914.049 2659.88 910.137L2345.01 740.333C2337.74 736.421 2325.79 736.421 2318.41 740.333L2003.54 910.137C1996.28 914.049 1993.04 923.551 1996.39 931.041L2126.23 1222.69C2129.58 1230.29 2139.19 1236.44 2147.46 1236.44H2515.96ZM2703.34 1563.42C2706.7 1571.02 2715.41 1573.92 2722.79 1570.01L2964.36 1439.78C2971.62 1435.87 2977.66 1425.81 2977.66 1417.54V1096.48C2977.66 1088.21 2971.73 1078.15 2964.36 1074.24L2722.67 943.896C2715.41 939.984 2706.7 942.89 2703.23 950.492L2572.95 1243.15C2569.6 1250.75 2569.6 1263.16 2572.95 1270.76L2703.34 1563.42ZM1960.3 950.492C1956.95 942.89 1948.23 939.984 1940.86 943.896L1699.17 1074.24C1691.91 1078.15 1685.87 1088.21 1685.87 1096.48V1417.54C1685.87 1425.81 1691.8 1435.87 1699.17 1439.78L1940.86 1570.12C1948.12 1574.04 1956.83 1571.13 1960.3 1563.53L2090.58 1270.87C2093.93 1263.27 2093.93 1250.86 2090.58 1243.26L1960.3 950.492ZM2659.88 1603.99C2667.14 1600.08 2670.38 1590.58 2667.03 1583.09L2537.19 1291.44C2533.84 1283.84 2524.23 1277.69 2515.96 1277.69H2147.57C2139.3 1277.69 2129.69 1283.84 2126.34 1291.44L1996.5 1583.09C1993.15 1590.69 1996.39 1600.08 2003.65 1603.99L2318.52 1773.8C2325.79 1777.71 2337.74 1777.71 2345.12 1773.8L2659.88 1603.99ZM1547.55 686.005C1550.9 678.404 1550.9 665.995 1547.55 658.394L1464.97 472.828C1461.62 465.227 1452.9 462.321 1445.53 466.233L1295.69 547.055C1288.43 550.967 1282.4 561.028 1282.4 569.3V774.987C1282.4 783.259 1288.32 793.32 1295.69 797.232L1445.53 878.054C1452.79 881.967 1461.51 879.06 1464.97 871.459L1547.55 686.005ZM1496.71 455.837C1493.35 448.235 1496.59 438.845 1503.86 434.933L1702.86 327.618C1710.12 323.705 1722.08 323.705 1729.45 327.618L1928.45 434.933C1935.72 438.845 1938.96 448.347 1935.6 455.837L1853.37 640.508C1850.01 648.109 1840.41 654.258 1832.14 654.258H1600.06C1591.79 654.258 1582.18 648.109 1578.83 640.508L1496.71 455.837ZM1967.34 472.94C1970.69 465.339 1979.41 462.432 1986.78 466.345L2136.62 547.166C2143.88 551.079 2149.91 561.14 2149.91 569.412V775.099C2149.91 783.371 2143.99 793.432 2136.62 797.344L1986.78 878.166C1979.52 882.078 1970.8 879.172 1967.34 871.57L1884.76 686.005C1881.41 678.404 1881.41 665.995 1884.76 658.394L1967.34 472.94ZM1935.6 888.674C1938.96 896.275 1935.72 905.665 1928.45 909.578L1729.45 1016.89C1722.19 1020.81 1710.23 1020.81 1702.86 1016.89L1503.86 909.578C1496.59 905.665 1493.35 896.163 1496.71 888.674L1578.83 704.003C1582.18 696.401 1591.79 690.253 1600.06 690.253H1832.14C1840.41 690.253 1850.01 696.401 1853.37 704.003L1935.6 888.674ZM973.445 949.262C970.093 941.66 961.377 938.754 954.003 942.667L806.511 1022.26C799.248 1026.17 793.215 1036.23 793.215 1044.5V1247.28C793.215 1255.56 799.137 1265.62 806.511 1269.53L954.003 1349.12C961.266 1353.03 969.981 1350.13 973.445 1342.53L1054.79 1159.76C1058.14 1152.15 1058.14 1139.75 1054.79 1132.14L973.445 949.262ZM1438.04 1359.41C1441.4 1367.01 1438.16 1376.4 1430.89 1380.31L1234.91 1486.06C1227.64 1489.97 1215.69 1489.97 1208.31 1486.06L1012.33 1380.42C1005.07 1376.51 1001.83 1367.01 1005.18 1359.52L1086.19 1177.64C1089.54 1170.04 1099.15 1163.89 1107.42 1163.89H1335.92C1344.19 1163.89 1353.79 1170.04 1357.15 1177.64L1438.04 1359.41ZM1388.54 1159.53C1385.19 1151.93 1385.19 1139.52 1388.54 1131.92L1469.89 949.15C1473.24 941.549 1481.96 938.642 1489.33 942.555L1636.82 1022.15C1644.09 1026.06 1650.12 1036.12 1650.12 1044.39V1247.17C1650.12 1255.44 1644.2 1265.51 1636.82 1269.42L1489.33 1349.01C1482.07 1352.92 1473.35 1350.02 1469.89 1342.41L1388.54 1159.53ZM1208.43 805.393C1215.69 801.48 1227.64 801.48 1235.02 805.393L1431 911.143C1438.27 915.055 1441.51 924.557 1438.16 932.047L1357.26 1113.92C1353.91 1121.52 1344.3 1127.67 1336.03 1127.67H1107.42C1099.15 1127.67 1089.54 1121.52 1086.19 1113.92L1005.29 932.047C1001.94 924.445 1005.18 915.055 1012.44 911.143L1208.43 805.393ZM860.703 1575.82C867.519 1575.82 875.341 1570.79 878.022 1564.53L950.427 1402C953.221 1395.85 950.539 1388.14 944.617 1384.89L769.527 1290.43C763.605 1287.19 753.772 1287.19 747.85 1290.43L572.759 1384.89C566.837 1388.14 564.156 1395.85 566.949 1402L639.354 1564.53C642.147 1570.68 649.969 1575.82 656.673 1575.82H860.703ZM904.951 1602.54C902.157 1596.39 902.157 1586.22 904.951 1579.96L977.579 1416.64C980.373 1410.49 987.524 1408.03 993.446 1411.28L1125.74 1482.59C1131.66 1485.84 1136.58 1494 1136.58 1500.82V1681.69C1136.58 1688.51 1131.66 1696.67 1125.74 1699.91L993.446 1771.23C987.524 1774.47 980.373 1772.01 977.579 1765.86L904.951 1602.54ZM612.202 1579.96C614.996 1586.11 614.996 1596.28 612.202 1602.54L539.574 1765.86C536.78 1772.01 529.629 1774.47 523.707 1771.23L391.412 1699.91C385.49 1696.67 380.573 1688.51 380.573 1681.69V1500.82C380.573 1494 385.49 1485.84 391.412 1482.59L523.707 1411.28C529.629 1408.03 536.78 1410.49 539.574 1416.64L612.202 1579.96ZM950.427 1780.51C953.221 1786.65 950.539 1794.37 944.617 1797.61L769.527 1892.07C763.605 1895.31 753.772 1895.31 747.85 1892.07L572.759 1797.61C566.837 1794.37 564.156 1786.65 566.949 1780.51L639.354 1617.97C642.147 1611.82 649.969 1606.68 656.673 1606.68H860.927C867.743 1606.68 875.564 1611.71 878.246 1617.97L950.427 1780.51ZM1020.93 1952.32C1023.06 1947.51 1023.06 1939.58 1020.93 1934.77L975.345 1832.37C973.222 1827.57 967.635 1825.67 962.942 1828.13L881.821 1871.95C877.128 1874.41 873.329 1880.78 873.329 1886.14V2001.17C873.329 2006.43 877.128 2012.8 881.821 2015.37L962.942 2059.19C967.635 2061.65 973.11 2059.75 975.345 2054.94L1020.93 1952.32ZM1056.8 1930.75C1051.55 1930.75 1045.4 1926.83 1043.28 1922.03L998.027 1820.19C995.904 1815.38 997.915 1809.35 1002.61 1806.89L1111.66 1748.09C1116.36 1745.63 1123.95 1745.63 1128.53 1748.09L1237.59 1806.89C1242.28 1809.35 1244.29 1815.38 1242.17 1820.19L1196.92 1922.03C1194.79 1926.83 1188.65 1930.75 1183.4 1930.75H1056.8ZM1242.17 2067.01C1244.29 2071.82 1242.28 2077.86 1237.59 2080.32L1128.53 2139.12C1123.84 2141.58 1116.24 2141.58 1111.66 2139.12L1002.61 2080.32C997.915 2077.86 995.904 2071.82 998.027 2067.01L1043.39 1965.18C1045.51 1960.37 1051.66 1956.46 1056.91 1956.46H1183.51C1188.76 1956.46 1194.91 1960.37 1197.03 1965.18L1242.17 2067.01ZM1219.26 1952.32C1217.14 1947.51 1217.14 1939.58 1219.26 1934.77L1264.85 1832.37C1266.98 1827.57 1272.56 1825.67 1277.26 1828.13L1358.38 1871.95C1363.07 1874.41 1366.87 1880.78 1366.87 1886.14V2001.17C1366.87 2006.43 1363.07 2012.8 1358.38 2015.37L1277.26 2059.19C1272.56 2061.65 1267.09 2059.75 1264.85 2054.94L1219.26 1952.32ZM761.593 966.812C763.716 971.619 769.303 973.52 773.996 971.06L827.853 941.996C832.546 939.537 836.345 933.165 836.345 927.799V846.418C836.345 841.165 832.546 834.793 827.853 832.222L773.996 803.157C769.303 800.698 763.828 802.598 761.593 807.405L730.084 878.278C727.961 883.084 727.961 891.021 730.084 895.828L761.593 966.812ZM474.543 941.996C469.85 939.537 466.051 933.165 466.051 927.799V846.418C466.051 841.165 469.85 834.793 474.543 832.222L528.4 803.157C533.093 800.698 538.568 802.598 540.803 807.405L572.312 878.278C574.435 883.084 574.435 891.021 572.312 895.828L540.803 966.701C538.68 971.507 533.093 973.408 528.4 970.948L474.543 941.996ZM563.373 795.22C561.25 790.414 563.262 784.377 567.955 781.918L642.706 741.563C647.399 739.104 654.997 739.104 659.578 741.563L734.33 781.918C739.023 784.377 741.034 790.414 738.911 795.22L707.625 865.534C705.502 870.341 699.356 874.253 694.105 874.253H608.18C602.928 874.253 596.783 870.341 594.66 865.534L563.373 795.22ZM738.911 978.997C741.034 983.804 739.023 989.84 734.33 992.3L659.578 1032.65C654.885 1035.11 647.287 1035.11 642.706 1032.65L567.955 992.3C563.262 989.84 561.25 983.804 563.373 978.997L594.66 908.684C596.783 903.877 602.928 899.964 608.18 899.964H694.105C699.356 899.964 705.502 903.877 707.625 908.684L738.911 978.997ZM837.686 589.31C840.479 595.458 848.301 600.6 855.005 600.6H995.345C1002.16 600.6 1009.98 595.57 1012.66 589.31L1062.95 476.406C1065.74 470.257 1063.06 462.544 1057.14 459.302L936.013 394.019C930.091 390.777 920.259 390.777 914.337 394.019L793.326 459.19C787.404 462.432 784.723 470.146 787.516 476.294L837.686 589.31ZM1039.7 627.317C1036.91 621.169 1036.91 610.996 1039.7 604.736L1090.32 491.05C1093.11 484.901 1100.27 482.442 1106.19 485.684L1195.46 533.864C1201.39 537.106 1206.3 545.266 1206.3 552.085V680.192C1206.3 687.011 1201.39 695.171 1195.46 698.413L1106.19 746.37C1100.27 749.611 1093.11 747.152 1090.32 741.004L1039.7 627.317ZM995.457 631.453C1002.27 631.453 1010.09 636.484 1012.78 642.744L1063.06 755.76C1065.85 761.908 1063.17 769.621 1057.25 772.863L936.125 838.146C930.203 841.388 920.37 841.388 914.448 838.146L793.326 772.751C787.404 769.509 784.723 761.796 787.516 755.648L837.797 642.632C840.591 636.484 848.412 631.341 855.116 631.341H995.457V631.453ZM810.869 604.736C813.662 610.885 813.662 621.057 810.869 627.317L760.252 741.004C757.459 747.152 750.308 749.611 744.386 746.37L655.109 698.19C649.187 694.948 644.27 686.788 644.27 679.969V551.973C644.27 545.154 649.187 536.994 655.109 533.752L744.386 485.572C750.308 482.33 757.459 484.79 760.252 490.938L810.869 604.736ZM542.032 1346.44C544.825 1352.59 551.976 1355.05 557.898 1351.8L674.551 1288.87C680.473 1285.63 685.389 1277.47 685.389 1270.65V1109.12C685.389 1102.3 680.473 1094.14 674.551 1090.9L557.898 1027.96C551.976 1024.72 544.825 1027.18 542.032 1033.33L477.448 1178.54C474.655 1184.68 474.655 1194.86 477.448 1201.12L542.032 1346.44ZM353.533 1462.03C347.611 1465.27 337.778 1465.27 331.856 1462.03L176.431 1378.19C170.509 1374.94 167.828 1367.23 170.621 1361.08L234.869 1216.65C237.663 1210.51 245.484 1205.36 252.188 1205.36H433.089C439.905 1205.36 447.727 1210.39 450.408 1216.65L514.657 1361.08C517.45 1367.23 514.768 1374.94 508.846 1378.19L353.533 1462.03ZM252.188 1174.51C245.372 1174.51 237.551 1169.48 234.869 1163.22L170.621 1018.68C167.828 1012.53 170.509 1004.82 176.431 1001.58L331.856 917.738C337.778 914.496 347.611 914.496 353.533 917.738L508.958 1001.58C514.88 1004.82 517.562 1012.53 514.768 1018.68L450.52 1163.11C447.727 1169.26 439.905 1174.4 433.201 1174.4H252.188V1174.51ZM207.941 1178.65C210.734 1184.8 210.734 1194.97 207.941 1201.23L143.357 1346.44C140.564 1352.59 133.413 1355.05 127.491 1351.8L10.8384 1288.98C4.91639 1285.74 0 1277.58 0 1270.76V1109.12C0 1102.3 4.91639 1094.14 10.8384 1090.9L127.491 1027.96C133.413 1024.72 140.564 1027.18 143.357 1033.33L207.941 1178.65ZM1559.84 1638.65C1557.04 1632.5 1549.89 1630.04 1543.97 1633.28L1424.3 1697.78C1418.38 1701.03 1413.46 1709.19 1413.46 1716V1881.45C1413.46 1888.27 1418.38 1896.43 1424.3 1899.67L1543.97 1964.17C1549.89 1967.41 1557.04 1964.95 1559.84 1958.8L1625.98 1810.13C1628.78 1803.98 1628.78 1793.81 1625.98 1787.55L1559.84 1638.65ZM2101.76 1697.78C2107.68 1701.03 2112.59 1709.19 2112.59 1716V1881.45C2112.59 1888.27 2107.68 1896.43 2101.76 1899.67L1982.09 1964.17C1976.16 1967.41 1969.01 1964.95 1966.22 1958.8L1900.07 1810.13C1897.28 1803.98 1897.28 1793.81 1900.07 1787.55L1966.22 1638.87C1969.01 1632.72 1976.16 1630.26 1982.09 1633.51L2101.76 1697.78ZM1938.96 1973.34C1941.75 1979.49 1939.07 1987.2 1933.15 1990.44L1773.92 2076.29C1768 2079.53 1758.17 2079.53 1752.25 2076.29L1593.02 1990.44C1587.1 1987.2 1584.42 1979.49 1587.21 1973.34L1653.02 1825.33C1655.82 1819.18 1663.64 1814.04 1670.34 1814.04H1855.83C1862.64 1814.04 1870.46 1819.07 1873.14 1825.33L1938.96 1973.34ZM1587.1 1623.89C1584.31 1617.74 1586.99 1610.03 1592.91 1606.79L1752.13 1520.94C1758.06 1517.7 1767.89 1517.7 1773.81 1520.94L1933.03 1606.79C1938.96 1610.03 1941.64 1617.74 1938.84 1623.89L1873.03 1771.9C1870.24 1778.05 1862.42 1783.19 1855.71 1783.19H1670.23C1663.42 1783.19 1655.59 1778.16 1652.91 1771.9L1587.1 1623.89ZM2067.34 270.495C2060.53 270.495 2052.7 275.525 2050.02 281.786L1991.14 414.029C1988.34 420.177 1991.03 427.89 1996.95 431.132L2138.96 507.706C2144.89 510.948 2154.72 510.948 2160.64 507.706L2302.77 431.132C2308.69 427.89 2311.37 420.177 2308.58 414.029L2249.69 281.786C2246.9 275.637 2239.08 270.495 2232.38 270.495H2067.34V270.495ZM1991.14 96.1083C1988.34 89.9601 1991.03 82.2468 1996.95 79.005L2138.96 2.43135C2144.89 -0.810451 2154.72 -0.810451 2160.64 2.43135L2302.88 79.005C2308.8 82.2468 2311.48 89.9601 2308.69 96.1083L2249.81 228.352C2247.01 234.5 2239.19 239.642 2232.49 239.642H2067.34C2060.53 239.642 2052.7 234.612 2050.02 228.352L1991.14 96.1083ZM2276.73 266.359C2273.94 260.211 2273.94 250.038 2276.73 243.778L2335.96 110.864C2338.75 104.716 2345.9 102.257 2351.82 105.498L2457.75 162.621C2463.67 165.863 2468.59 174.023 2468.59 180.842V329.518C2468.59 336.337 2463.67 344.498 2457.75 347.739L2351.82 404.862C2345.9 408.104 2338.75 405.645 2335.96 399.497L2276.73 266.359ZM1842.08 347.628C1836.16 344.386 1831.24 336.225 1831.24 329.407V180.731C1831.24 173.912 1836.16 165.751 1842.08 162.509L1948.01 105.387C1953.93 102.145 1961.08 104.604 1963.87 110.752L2023.09 243.666C2025.89 249.815 2025.89 259.987 2023.09 266.247L1963.87 399.161C1961.08 405.309 1953.93 407.769 1948.01 404.527L1842.08 347.628ZM2464.9 520.449C2470.15 520.449 2476.3 516.537 2478.42 511.73L2503.89 454.607C2506.02 449.8 2504.01 443.764 2499.31 441.305L2438.31 408.439C2433.61 405.98 2426.01 405.98 2421.43 408.439L2360.43 441.305C2355.73 443.764 2353.72 449.8 2355.84 454.607L2381.32 511.73C2383.44 516.537 2389.59 520.449 2394.84 520.449H2464.9ZM2464.9 542.807C2470.15 542.807 2476.3 546.719 2478.42 551.526L2503.89 608.649C2506.02 613.456 2504.01 619.492 2499.31 621.951L2438.31 654.817C2433.61 657.276 2426.01 657.276 2421.43 654.817L2360.43 621.951C2355.73 619.492 2353.72 613.456 2355.84 608.649L2381.32 551.526C2383.44 546.719 2389.59 542.807 2394.84 542.807H2464.9V542.807ZM2497.75 540.347C2495.63 535.541 2495.63 527.604 2497.75 522.797L2523.45 465.115C2525.57 460.308 2531.16 458.408 2535.85 460.867L2578.98 484.119C2583.67 486.578 2587.47 492.95 2587.47 498.316V564.829C2587.47 570.083 2583.67 576.454 2578.98 579.025L2535.85 602.277C2531.16 604.736 2525.68 602.836 2523.45 598.029L2497.75 540.347ZM2336.07 598.141C2333.94 602.948 2328.36 604.848 2323.66 602.389L2280.53 579.137C2275.84 576.678 2272.04 570.306 2272.04 564.94V498.428C2272.04 493.174 2275.84 486.802 2280.53 484.231L2323.66 460.979C2328.36 458.52 2333.83 460.42 2336.07 465.227L2361.77 522.909C2363.89 527.716 2363.89 535.652 2361.77 540.459L2336.07 598.141ZM3039 875.483C3041.79 881.631 3048.94 884.09 3054.87 880.849L3148.72 830.209C3154.65 826.968 3159.56 818.807 3159.56 811.988V678.404C3159.56 671.585 3154.65 663.424 3148.72 660.182L3054.87 609.543C3048.94 606.301 3041.79 608.761 3039 614.909L2986.04 733.85C2983.24 739.998 2983.24 750.17 2986.04 756.43L3039 875.483ZM2724.68 600.377C2721.89 594.228 2724.57 586.515 2730.5 583.273L2857.32 514.86C2863.24 511.618 2873.07 511.618 2878.99 514.86L3005.81 583.273C3011.74 586.515 3014.42 594.228 3011.62 600.377L2959 718.535C2956.2 724.683 2948.38 729.825 2941.68 729.825H2794.63C2787.82 729.825 2779.99 724.795 2777.31 718.535L2724.68 600.377ZM3011.73 890.239C3014.53 896.387 3011.85 904.1 3005.92 907.342L2879.1 975.755C2873.18 978.997 2863.35 978.997 2857.43 975.755L2730.61 907.342C2724.69 904.1 2722 896.387 2724.8 890.239L2777.42 771.969C2780.22 765.82 2788.04 760.678 2794.74 760.678H2941.79C2948.6 760.678 2956.43 765.709 2959.11 771.969L3011.73 890.239ZM2750.38 733.961C2753.18 740.11 2753.18 750.282 2750.38 756.542L2697.42 875.483C2694.63 881.631 2687.48 884.09 2681.55 880.849L2587.7 830.209C2581.77 826.968 2576.86 818.807 2576.86 811.988V678.404C2576.86 671.585 2581.77 663.424 2587.7 660.182L2681.55 609.543C2687.48 606.301 2694.63 608.761 2697.42 614.909L2750.38 733.961ZM2758.76 1799.62C2761.56 1793.47 2761.56 1783.3 2758.76 1777.04L2697.2 1638.87C2694.4 1632.72 2687.25 1630.26 2681.33 1633.51L2570.82 1693.09C2564.9 1696.33 2559.99 1704.49 2559.99 1711.31V1865.57C2559.99 1872.39 2564.9 1880.55 2570.82 1883.8L2681.33 1943.38C2687.25 1946.62 2694.4 1944.16 2697.2 1938.01L2758.76 1799.62ZM2974.97 1803.76C2981.79 1803.76 2989.61 1808.79 2992.29 1815.05L3053.52 1952.54C3056.32 1958.69 3053.64 1966.41 3047.71 1969.65L2899.89 2049.35C2893.97 2052.59 2884.13 2052.59 2878.21 2049.35L2730.38 1969.65C2724.46 1966.41 2721.78 1958.69 2724.57 1952.54L2785.8 1815.05C2788.6 1808.9 2796.42 1803.76 2803.12 1803.76H2974.97ZM3207.16 1692.98C3213.08 1696.22 3218 1704.38 3218 1711.2V1865.46C3218 1872.28 3213.08 1880.44 3207.16 1883.68L3096.65 1943.27C3090.73 1946.51 3083.58 1944.05 3080.79 1937.9L3019.22 1799.73C3016.43 1793.58 3016.43 1783.41 3019.22 1777.15L3080.79 1638.98C3083.58 1632.84 3090.73 1630.38 3096.65 1633.62L3207.16 1692.98ZM2724.57 1624.12C2721.78 1617.97 2724.46 1610.25 2730.38 1607.01L2878.21 1527.31C2884.13 1524.07 2893.97 1524.07 2899.89 1527.31L3047.71 1607.01C3053.64 1610.25 3056.32 1617.97 3053.52 1624.12L2992.29 1761.61C2989.5 1767.76 2981.68 1772.9 2974.97 1772.9H2803.01C2796.2 1772.9 2788.37 1767.87 2785.69 1761.61L2724.57 1624.12ZM2410.48 2004.41C2408.36 1999.61 2402.77 1997.71 2398.08 2000.17L2316.96 2043.99C2312.27 2046.45 2308.47 2052.82 2308.47 2058.18V2173.1C2308.47 2178.35 2312.27 2184.72 2316.96 2187.3L2398.08 2231.12C2402.77 2233.58 2408.25 2231.68 2410.48 2226.87L2456.07 2124.47C2458.19 2119.67 2458.19 2111.73 2456.07 2106.92L2410.48 2004.41ZM2677.31 2239.05C2679.43 2243.86 2677.42 2249.9 2672.73 2252.36L2563.67 2311.16C2558.98 2313.61 2551.38 2313.61 2546.8 2311.16L2437.75 2252.36C2433.05 2249.9 2431.04 2243.86 2433.17 2239.05L2478.42 2137.22C2480.54 2132.41 2486.69 2128.5 2491.94 2128.5H2618.54C2623.79 2128.5 2629.93 2132.41 2632.06 2137.22L2677.31 2239.05ZM2491.94 2102.79C2486.69 2102.79 2480.54 2098.87 2478.42 2094.07L2433.17 1992.23C2431.04 1987.42 2433.05 1981.39 2437.75 1978.93L2546.8 1920.13C2551.49 1917.67 2559.09 1917.67 2563.67 1920.13L2672.73 1978.93C2677.42 1981.39 2679.43 1987.42 2677.31 1992.23L2632.06 2094.07C2629.93 2098.87 2623.79 2102.79 2618.54 2102.79H2491.94ZM2654.4 2124.36C2652.28 2119.55 2652.28 2111.62 2654.4 2106.81L2699.99 2004.41C2702.11 1999.61 2707.7 1997.71 2712.39 2000.17L2793.51 2043.99C2798.21 2046.45 2802.01 2052.82 2802.01 2058.18V2173.1C2802.01 2178.35 2798.21 2184.72 2793.51 2187.3L2712.39 2231.12C2707.7 2233.58 2702.23 2231.68 2699.99 2226.87L2654.4 2124.36Z" fill="#0F69AF"/>
</svg>
