<svg viewBox="0 0 24 24" fill="none" xmlns="http://www.w3.org/2000/svg"><path fill-rule="evenodd" clip-rule="evenodd" d="M18.9623 3.9912c.5653.0048 1.0123.4803.9821 1.0449l-.2074 3.8746A16.6721 16.6721 0 0 1 16.2915 18.2c-1.3202 1.7122-3.5307 2.4463-5.5913 1.8994l3.7934-7.5868c.2572-.5143-.4147-.9849-.8102-.5675l-6.3775 6.7319-.0107-.0071-.2411.2728L7 19l.002.0017-.7611.8612c-.5487.6207-1.4966.6791-2.1174.1305-.6206-.5487-.679-1.4966-.1304-2.1173l1.1855-1.3412a7.3675 7.3675 0 0 1-.7483-1.5051l-.6018-1.6634c-.7372-2.0376-.117-4.3186 1.5506-5.7023a16.057 16.057 0 0 1 10.3883-3.6997l3.1949.0268Z" fill="currentcolor"/></svg>