<svg viewBox="0 0 24 24" fill="none" xmlns="http://www.w3.org/2000/svg"><path fill-rule="evenodd" clip-rule="evenodd" d="M11.6953 4.0807c.1213-.0805.2022-.0805.3236-.0805.1213 0 .2025.04.2834.0803 0 0 1.6977.4196 4.6977 1.9196s4.6056 2.346 4.6056 2.346l.0406.0403c.4045.2012.4854.8049.1213 1.1268l-.0405.0403c-.0231.023-.033.033-.0449.0371-.0088.0031-.0187.0031-.0359.0031 0 .0403-.0406.0403-.0406.0403h-.0405L12.3022 13.94c-.2022.0804-.4045.0804-.6067 0L2.4325 9.634H2.392l-.0405-.0403c-.0405 0-.0808-.04-.1212-.0802L2.23 9.5133l-.0405-.0402c-.04-.0396-.0797-.1186-.1196-.1979l-.0017-.0033c-.1214-.2415-.081-.5634.1213-.7646.0232-.0231.033-.033.0449-.0372.0088-.0031.0187-.0031.036-.0031 0-.0403.0405-.0403.0405-.0403l.001-.001c.0401-.0398.0801-.0794.1203-.0794C2.4323 8.3463 4 7.5 7 6s4.6953-1.9194 4.6953-1.9194ZM5 13.4599c0-.2166.2226-.3619.4209-.2746l6.1514 2.7077a1.115 1.115 0 0 0 .4494.0944c.155 0 .3082-.0322.4493-.0944l6.1076-2.7015c.1983-.0877.4213.0575.4213.2743L19 17.2598c.0005.4021-.2363.769-.6097.9449l-1.1961.5616c-.0071.0035-.0141.0071-.0212.0102l-2.3436 1.0402-2.3424 1.0812a1.116 1.116 0 0 1-.9262.0031l-2.387-1.0822-2.3467-1.0422-.0047-.0022a.5817.5817 0 0 1-.0165-.008l-1.1961-.5616c-.3734-.1759-.6102-.5429-.6097-.9449v-3.8Z" fill="currentcolor"/></svg>