<svg viewBox="0 0 24 24" fill="none" xmlns="http://www.w3.org/2000/svg"><path fill-rule="evenodd" clip-rule="evenodd" d="M5.5 8a.5.5 0 0 1-.5-.5V4.618c0-.3787.2157-.72.576-.837C6.4834 3.4869 8.5115 3 12 3s5.5166.4868 6.424.781c.3603.117.576.4583.576.837V7.5a.5.5 0 0 1-.5.5H17V5.5a.5.5 0 0 0-.5-.5h-1a.5.5 0 0 0-.5.5V8H5.5Zm10 1H6.5089a.5.5 0 0 0-.5.5v1.979a3.2585 3.2585 0 0 0 1.5666.6746l2.0822.2975a.3988.3988 0 0 1 .3423.3947V19a.5.5 0 0 1-.5.5h-1c-1.0378 0-1.9524-.5269-2.4911-1.3278v1.2873S5.5095 22 12 22s5.9911-2.5405 5.9911-2.5405V9.5a.5.5 0 0 0-.5-.5H15.5Z" fill="currentcolor"/></svg>