<svg viewBox="0 0 24 24" fill="none" xmlns="http://www.w3.org/2000/svg"><path fill-rule="evenodd" clip-rule="evenodd" d="M4.2684 18.2707c-.3057-2.2834.4665-4.5926 2.1081-6.2342l4.1616-4.1616-.3072-.3072a.5001.5001 0 0 1 0-.7071l.3536-.3536c.3749-.375.9735-.3899 1.3663-.0449l2.1627-2.1627.6389.639c-.6388-.639-.6385-.6393-.6382-.6397l.0008-.0007.0016-.0017.004-.0038.0104-.0102a3.861 3.861 0 0 1 .1316-.1203 4.9917 4.9917 0 0 1 .3496-.2772c.2916-.211.7198-.4755 1.2459-.66.5293-.1857 1.1825-.2986 1.8974-.1692.7248.1312 1.4402.4986 2.1002 1.1585.6599.66 1.0273 1.3754 1.1585 2.1002.1294.715.0165 1.368-.1691 1.8974-.1846.526-.4491.9543-.6601 1.2459a4.9642 4.9642 0 0 1-.2772.3496 3.7029 3.7029 0 0 1-.1203.1316l-.0101.0104-.0039.004-.0017.0016-.0007.0008c-.0004.0003-.0007.0006-.6308-.6295l.6301.6302-2.1613 2.1612.0463.0464c.3906.3905.3906 1.0237 0 1.4142l-.3535.3536a.5001.5001 0 0 1-.7071 0l-.3999-.3999-4.2489 4.2489a7.372 7.372 0 0 1-6.3034 2.0779l-.8361.9325c-.3687.4112-1.001.4456-1.4122.0769l-.062-.0555c-.411-.3688-.4455-1.001-.0768-1.4122l1.013-1.1296Zm10.6225-6.2282-2.8084-2.9178-4.0564 4.0563a6.5707 6.5707 0 0 0-1.92 4.8891 6.6563 6.6563 0 0 0 4.7069-1.9497l4.0779-4.0779Z" fill="currentcolor"/></svg>