<svg viewBox="0 0 24 24" fill="none" xmlns="http://www.w3.org/2000/svg"><path fill-rule="evenodd" clip-rule="evenodd" d="M16.7754 2.63c0-.3452-.259-.6255-.5785-.626-1.1366-.002-2.0715.9288-2.1853 2.1242-.5236.2144-.9308.62-1.243 1.106-.0656-1.2456-1.0213-2.2323-2.1907-2.2303-.3192.0006-.5779.2805-.5779.6254V4.5c0 .8284.6716 1.4988 1.5 1.4974l.8734-.0015c-.2458.584-.4196 1.2487-.5389 1.9293a14.3664 14.3664 0 0 0-.1437 1.0617c-.3608-1.7095-1.8785-2.9904-3.696-2.9873-.5494.001-.9948.4471-.9948.9965v.7775c0 1.6569 1.3431 2.9977 3 2.9948l1.6083-.0028a17.48 17.48 0 0 0 .018.7358c-2.5663.0199-4.6807.239-5.7883.3801-.485.0617-.838.4768-.838.9656v1.1529c0 .5523.4477 1 1 1h.4706l1.4016 5.9568c.0794.3376.3282.6086.6662.6861.6448.1477 1.8438.3571 3.4616.3571 1.6178 0 2.8168-.2094 3.4616-.3571.338-.0775.5868-.3485.6662-.6861l1.4016-5.9568H18c.5523 0 1-.4477 1-1v-1.1529c0-.4888-.3531-.9039-.838-.9656-1.0709-.1364-3.0829-.3458-5.5345-.3774a16.896 16.896 0 0 1 .0059-1.7308l.7243.0013c1.6568.0029 3-1.338 3-2.9948v-.1213a.8238.8238 0 0 0-.822-.8235c-1.0082-.0017-1.9048.4748-2.4755 1.2155.1242-.422.2749-.7997.4529-1.115.3042-.5388.6549-.8405 1.0437-.9359l.7186.0013c.8284.0014 1.5-.669 1.5-1.4974V2.63Z" fill="currentcolor"/></svg>