<svg width="2597" height="1681" viewBox="0 0 2597 1681" fill="none" xmlns="http://www.w3.org/2000/svg">
<path d="M639.551 568.482C642.052 595.247 637.968 600.666 612.878 605.002C587.788 609.338 541.359 612.34 513.852 612.923C486.345 613.507 479.009 612.506 462.088 604.419C445.167 596.331 419.077 581.406 405.74 570.983C392.403 560.644 391.82 554.808 402.156 532.962C412.492 511.033 433.747 473.012 447.834 452.25C461.922 431.406 468.757 427.737 493.263 426.903C517.853 426.069 560.114 428.07 583.954 431.656C607.793 435.241 613.211 440.411 620.546 467.092C627.882 493.607 637.051 541.8 639.551 568.482ZM707.069 77.2083C679.228 23.345 669.393 13.3395 640.468 8.33675C611.544 3.33396 563.532 3.25058 536.191 8.33674C508.767 13.4229 502.016 23.5118 494.18 78.0421C486.345 132.572 477.426 231.461 472.424 287.075C467.423 342.689 466.423 355.113 466.173 367.453C465.923 379.793 466.423 392.134 469.174 399.471C471.924 406.892 477.009 409.31 499.515 411.644C522.104 413.979 562.114 416.314 587.621 416.23C613.128 416.147 623.381 413.729 660.474 404.724C697.483 395.719 759.249 379.793 790.841 365.619C822.432 351.361 824.35 338.854 802.511 283.74C780.588 228.626 734.91 131.072 707.069 77.2083ZM510.101 701.723C478.009 643.023 469.507 630.099 453.336 617.092C437.165 604.085 413.326 590.911 398.072 584.324C382.818 577.737 376.149 577.82 354.144 583.573C332.054 589.41 294.628 600.916 277.54 614.174C260.452 627.431 263.703 642.356 297.712 713.312C331.721 784.269 396.405 911.173 434.748 979.961C473.091 1048.83 484.094 1057.34 517.019 1054.34C550.028 1051.33 601.458 1029.07 626.881 1010.89C652.305 992.718 652.638 980.711 625.131 922.679C597.707 864.897 542.109 760.422 510.101 701.723ZM276.706 719.149C237.196 648.193 223.276 634.435 184.933 623.596C146.589 612.756 83.6563 604.835 48.8972 607.837C14.1381 610.839 7.55303 624.763 3.55198 704.141C-0.449073 783.518 -1.86612 928.349 3.55195 1008.81C8.97003 1089.27 21.0563 1105.36 84.9896 1114.95C148.923 1124.54 264.704 1127.63 329.387 1128.79C394.071 1129.96 405.657 1129.04 421.161 1122.79C436.582 1116.54 449.001 1104.7 452.002 1091.02C455.003 1077.35 450.419 1062.01 415.826 990.133C381.317 918.26 316.217 790.105 276.706 719.149ZM634.05 1504.17C616.795 1468.32 608.877 1456.31 579.036 1418.87C549.194 1381.52 497.431 1318.82 466.423 1290.55C435.415 1262.28 425.245 1268.29 395.321 1333.07C365.313 1397.78 315.55 1521.1 294.545 1588.88C273.622 1656.67 282.541 1666.68 349.559 1674.18C416.576 1681.68 545.443 1679.1 615.295 1674.18C685.147 1669.26 694.982 1663.92 686.397 1631.66C677.895 1599.47 651.304 1540.02 634.05 1504.17ZM802.344 1224.76C836.853 1179.74 844.771 1166.48 853.94 1135.38C863.11 1104.28 873.446 1055.42 876.113 1028.4C878.78 1001.31 873.696 996.053 842.938 996.72C812.18 997.387 755.748 1003.97 721.323 1008.64C686.897 1013.31 674.477 1016.06 640.885 1028.4C607.293 1040.74 552.612 1062.59 521.187 1075.76C489.679 1088.94 481.427 1093.27 470.257 1102.86C459.088 1112.45 445.001 1127.13 437.249 1136.8C429.496 1146.47 428.079 1151.22 428.079 1163.15C428.079 1175.07 429.58 1194.33 433.581 1208.17C437.582 1222.01 444.167 1230.35 473.424 1266.45C502.682 1302.56 554.863 1365.76 587.371 1396.36C619.88 1426.96 632.633 1425.21 669.559 1385.94C706.652 1346.58 767.835 1269.79 802.344 1224.76ZM841.604 1476.49C846.355 1434.55 847.189 1420.46 848.273 1380.93C849.356 1341.33 850.773 1276.29 848.273 1244.19C845.855 1212.09 839.52 1213.01 805.678 1250.36C771.836 1287.72 710.32 1361.59 677.811 1405.61C645.303 1449.64 641.719 1463.81 653.222 1501.17C664.725 1538.52 691.398 1599.06 707.319 1632.66C723.24 1666.26 727.991 1672.01 743.245 1676.52C758.582 1681.02 783.005 1680.77 797.009 1676.52C811.013 1672.26 815.097 1664.93 821.599 1626.49C828.101 1588.13 836.853 1518.43 841.604 1476.49ZM1067 53.6953C1068 18.7592 1058.08 12.1722 998.895 8.42011C939.713 4.66801 831.185 3.75083 773.753 8.42009C716.238 13.0893 709.82 23.2616 730.492 77.2917C751.164 131.322 799.01 229.126 825.933 283.907C852.857 338.604 858.859 350.194 868.111 361.617C877.447 373.04 890.033 384.296 899.369 388.215C908.622 392.134 914.456 388.465 935.629 364.618C956.801 340.772 992.977 295.747 1013.23 267.231C1033.49 238.715 1037.99 227.042 1046.07 189.521C1054.24 152 1066 88.6315 1067 53.6953ZM923.542 462.339C906.121 427.57 900.87 419.482 891.534 409.143C882.198 398.887 868.778 386.38 857.858 380.377C846.856 374.374 838.353 374.791 803.344 383.796C768.335 392.801 706.819 410.394 673.477 422.817C640.135 435.158 634.884 442.328 636.301 468.343C637.634 494.441 645.553 539.466 654.639 566.064C663.641 592.662 673.894 600.75 723.156 618.676C772.503 636.603 861.026 664.452 910.539 678.793C960.052 693.218 969.054 693.802 979.724 686.464C990.393 679.127 997.561 662.117 999.812 649.193C1002.06 636.27 1000.9 627.932 985.808 593.162C970.554 558.476 940.963 497.109 923.542 462.339ZM952.8 768.76C958.218 727.904 950.633 717.231 902.287 698.387C853.941 679.544 764.834 652.529 713.321 637.687C661.807 622.929 647.97 620.427 619.546 619.927C591.205 619.427 548.361 620.928 527.356 627.348C506.35 633.685 507.184 644.941 534.191 701.973C561.198 759.088 614.211 862.062 646.887 918.593C679.562 975.041 691.065 983.213 728.158 986.548C765.251 989.883 825.267 982.045 859.275 973.707C893.201 965.369 901.786 958.115 915.457 919.26C929.044 880.405 947.382 809.533 952.8 768.76ZM1518.53 460.755C1529.87 450.5 1530.7 442.245 1523.87 408.643C1517.03 374.958 1502.53 315.841 1487.77 283.323C1473.02 250.805 1458.18 244.885 1391.5 243.218C1324.81 241.55 1206.37 244.218 1138.68 248.137C1071 252.139 1054.08 257.392 1028.24 282.573C1002.4 307.753 967.637 352.778 949.799 380.961C931.961 409.143 931.044 420.399 943.714 455.919C956.384 491.356 982.641 551.056 1003.81 582.323C1024.99 613.59 1040.82 615.508 1108.84 599.999C1176.86 584.574 1296.31 547.97 1363.91 526.709C1431.51 505.447 1447.35 500.444 1466.35 491.856C1485.36 483.351 1507.19 471.011 1518.53 460.755ZM1957.48 172.428C1953.06 172.178 1949.98 174.179 1948.89 179.099C1947.81 184.101 1973.9 342.773 1983.07 382.712C1992.24 422.734 1999.49 425.402 2031.66 409.977C2063.84 394.552 2120.6 356.114 2151.11 334.101C2181.54 312.006 2185.79 307.587 2179.95 300.083C2153.86 273.151 1961.9 172.678 1957.48 172.428ZM2134.02 52.6115C2131.61 12.5892 2126.61 5.41851 2099.27 2.1667C2071.93 -1.08511 2022.25 -0.334696 1994.99 2.16669C1967.73 4.66808 1962.98 9.00388 1961.48 32.4336C1959.98 55.8633 1961.81 98.387 1965.23 123.317C1968.65 148.165 1973.65 154.752 1999.99 173.762C2026.33 192.773 2074.18 221.956 2100.6 234.129C2126.94 246.303 2131.69 242.217 2134.11 203.862C2136.36 165.424 2136.44 92.6338 2134.02 52.6115ZM1930.64 470.761C1966.23 441.328 1971.65 429.571 1968.9 387.881C1966.15 346.192 1955.39 274.485 1944.06 238.882C1932.72 203.279 1920.97 203.779 1861.37 242.384C1801.85 280.989 1694.58 357.615 1638.15 401.889C1581.71 446.164 1578.21 456.753 1599.89 484.769C1621.56 512.784 1675.07 553.974 1708.33 573.985C1741.59 593.913 1752.76 593.829 1791.02 570.483C1829.28 547.053 1894.96 500.111 1930.64 470.761ZM1946.48 37.1028C1938.97 15.3407 1924.97 10.9216 1849.7 8.33685C1774.43 5.83545 1637.98 5.1684 1562.88 8.33683C1487.77 11.5052 1474.1 18.3424 1472.69 52.3613C1471.27 86.3803 1482.19 147.581 1488.86 184.518C1495.52 221.372 1498.03 233.962 1506.19 269.983C1514.36 306.086 1528.12 365.702 1542.04 394.385C1555.96 423.068 1569.96 419.732 1633.39 379.043C1696.83 338.437 1809.69 256.392 1871.79 208.698C1933.81 161.005 1944.98 148.665 1950.06 123.234C1955.06 97.8033 1954.06 58.8649 1946.48 37.1028ZM2588.81 564.063C2582.06 421.65 2571.14 393.551 2511.12 373.04C2451.11 352.529 2342 339.771 2278.06 333.601C2214.13 327.431 2195.37 327.931 2159.2 346.608C2123.11 365.202 2069.59 401.973 2035.83 424.985C2001.99 448.082 1987.9 457.503 1947.48 484.852C1907.05 512.201 1840.36 557.392 1805.77 586.075C1771.18 614.758 1768.68 626.848 1782.6 656.948C1796.6 686.965 1827.11 734.908 1854.87 768.26C1882.63 801.612 1907.63 819.705 2020.91 899.416C2134.19 979.127 2335.49 1118.37 2446.77 1181.49C2558.14 1244.61 2579.47 1232.1 2588.81 1097.61C2598.23 963.118 2595.56 706.475 2588.81 564.063ZM1508.61 1241.36C1436.59 1155.73 1422.51 1138.88 1411.09 1130.88C1399.67 1122.87 1391 1123.79 1382.5 1124.12C1373.99 1124.46 1365.66 1124.37 1334.32 1127.88C1302.97 1131.46 1248.54 1138.72 1218.45 1145.97C1188.36 1153.22 1182.53 1160.48 1180.94 1188.66C1179.36 1216.84 1181.86 1266.04 1184.28 1298.64C1186.61 1331.24 1188.78 1347.42 1192.36 1403.03C1195.86 1458.64 1200.78 1553.86 1213.2 1606.31C1225.62 1658.76 1245.79 1666.76 1348.24 1674.1C1450.68 1681.35 1636.48 1682.19 1732.5 1674.1C1828.53 1666.09 1834.53 1650.58 1772.6 1565.95C1710.58 1481.24 1580.63 1326.99 1508.61 1241.36ZM2588.81 1375.6C2577.97 1311.31 2556.64 1286.05 2445.36 1205.92C2333.99 1125.79 2132.69 990.8 2014.99 920.845C1897.21 850.889 1862.95 845.803 1785.68 885.825C1708.41 925.764 1587.97 1010.73 1528.03 1065.76C1468.1 1120.79 1468.6 1145.8 1531.37 1235.44C1594.13 1324.99 1719.25 1479.07 1798.94 1564.45C1878.54 1649.83 1911.05 1663.84 2028.16 1674.18C2145.28 1684.52 2340.91 1681.93 2448.61 1674.18C2556.39 1666.43 2577.89 1656 2588.81 1599.56C2599.81 1543.02 2599.65 1439.97 2588.81 1375.6ZM1159.52 1184.66C1154.94 1154.81 1147.52 1144.47 1108.26 1115.37C1069 1086.27 997.812 1038.41 957.801 1014.98C917.707 991.551 908.788 992.551 899.536 1020.57C890.283 1048.67 880.614 1103.78 875.196 1137.8C869.778 1171.73 868.694 1184.49 867.111 1224.1C865.527 1263.7 863.61 1330.16 867.111 1365.76C870.612 1401.36 879.864 1404.78 926.46 1396.03C973.055 1387.27 1057.83 1362.09 1104.51 1345.16C1151.18 1328.24 1159.52 1320.65 1162.77 1292.3C1166.02 1263.95 1164.19 1214.59 1159.52 1184.66ZM1760.18 661.45C1737.59 631.35 1728.75 620.344 1698.16 593.162C1667.57 565.981 1615.14 522.706 1584.63 499.777C1554.04 476.931 1545.2 474.429 1530.03 478.682C1514.86 482.851 1493.27 493.607 1479.85 508.615C1466.43 523.624 1461.18 542.801 1447.51 635.436C1433.93 728.071 1412 894.163 1400.75 986.048C1389.58 1077.93 1389.08 1095.69 1393 1104.78C1396.92 1113.87 1405.25 1114.2 1416.5 1110.28C1427.76 1106.36 1441.93 1098.03 1510.86 1051.75C1579.71 1005.48 1703.66 920.678 1770.26 870.567C1836.86 820.455 1846.12 805.197 1832.61 773.012C1819.11 740.744 1782.77 691.55 1760.18 661.45ZM1325.4 1107.78C1355.57 1096.03 1363.49 1078.02 1379.24 986.798C1395 895.581 1418.5 731.072 1425.26 641.856C1432.01 552.64 1421.84 538.715 1357.57 550.722C1293.22 562.729 1174.69 600.75 1108.51 622.345C1042.24 643.94 1028.4 649.027 1017.98 660.033C1007.56 671.039 1000.73 687.882 995.561 701.556C990.393 715.23 986.975 725.736 975.556 765.842C964.136 806.031 944.714 875.903 937.963 917.259C931.211 958.616 937.629 970.456 974.639 1000.56C1011.65 1030.66 1080.83 1075.26 1122.26 1099.03C1163.77 1122.79 1177.11 1126.54 1209.95 1125.88C1242.79 1125.13 1295.22 1119.62 1325.4 1107.78ZM1125.84 1674.18C1182.94 1669.84 1192.36 1660.59 1192.11 1609.31C1191.86 1558.03 1181.86 1464.73 1172.19 1414.7C1162.44 1364.67 1152.94 1357.84 1105.67 1366.93C1058.41 1376.01 973.305 1401.11 926.043 1418.29C878.78 1435.46 870.778 1444.39 859.775 1483.16C848.772 1521.93 839.937 1589.38 840.687 1626.4C841.437 1663.42 850.44 1670.43 907.204 1674.18C963.969 1677.93 1068.66 1678.52 1125.84 1674.18Z" fill="#0F69AF"/>
</svg>
