<svg viewBox="0 0 24 24" fill="none" xmlns="http://www.w3.org/2000/svg"><rect x="1" y="6" width="14" height="2" rx="1" fill="currentcolor"/><rect x="1" y="11" width="14" height="2" rx="1" fill="currentcolor"/><rect x="1" y="16" width="14" height="2" rx="1" fill="currentcolor"/><path fill-rule="evenodd" clip-rule="evenodd" d="M18.7572 9.4543c-.3332-.2-.7572.0402-.7572.4288v4.2338c0 .3887.424.6287.7572.4288l3.5282-2.117c.3237-.1942.3237-.6632 0-.8574l-3.5282-2.117Z" fill="currentcolor"/><path fill-rule="evenodd" clip-rule="evenodd" d="M18.7572 9.4543c-.3332-.2-.7572.0402-.7572.4288v4.2338c0 .3887.424.6287.7572.4288l3.5282-2.117c.3237-.1942.3237-.6632 0-.8574l-3.5282-2.117Z" fill="currentcolor"/></svg>