<svg viewBox="0 0 24 24" fill="none" xmlns="http://www.w3.org/2000/svg"><path d="M2.5723 10.4294c-.626-.5692-.3064-1.6102.5313-1.73l4.4122-.6302a1 1 0 0 0 .7268-.4938l2.8892-5.056c.3839-.6718 1.3525-.6718 1.7364 0l2.8891 5.056c.1531.2679.4214.4501.7269.4938l4.4122.6303c.8377.1197 1.1574 1.1607.5313 1.7299l-3.4852 3.1683a1 1 0 0 0-.2975.9825l1.3459 5.3834c.2041.8166-.6303 1.5047-1.393 1.1487l-5.175-2.415a1.0007 1.0007 0 0 0-.8458 0l-5.175 2.415c-.7627.356-1.5972-.3321-1.393-1.1487l1.3458-5.3834a1 1 0 0 0-.2974-.9825l-3.4852-3.1683Z" fill="currentcolor"/></svg>