<svg viewBox="0 0 24 24" fill="none" xmlns="http://www.w3.org/2000/svg"><path fill-rule="evenodd" clip-rule="evenodd" d="M9 3.869c0-.85.5407-1.6076 1.3802-1.74A10.4493 10.4493 0 0 1 12 2c.6061 0 1.1587.0563 1.6198.129.8395.1324 1.3802.89 1.3802 1.74v2.4935c-.3474-.1616-.7305-.264-1.1414-.294A25.627 25.627 0 0 0 12 6c-.6641 0-1.2896.027-1.8586.0685-.411.03-.794.1324-1.1414.294V3.869Zm0 16.2629v-2.4944c.3474.1616.7305.2641 1.1414.294C10.7104 17.973 11.3359 18 12 18c.6641 0 1.2896-.027 1.8586-.0685.4109-.0299.794-.1324 1.1414-.294v2.4944c0 .8248-.5101 1.5669-1.3216 1.7143C13.2058 21.932 12.632 22 12 22c-.632 0-1.2058-.068-1.6784-.1538C9.5101 21.6988 9 20.9567 9 20.1319Zm-2-9.4578c0-1.859 1.2873-3.4705 3.1414-3.6056A25.627 25.627 0 0 1 12 7c.6641 0 1.2896.027 1.8586.0685C15.7127 7.2036 17 8.815 17 10.674v2.6518c0 1.859-1.2873 3.4705-3.1414 3.6056A25.6094 25.6094 0 0 1 12 17c-.6641 0-1.2896-.027-1.8586-.0685C8.2874 16.7964 7 15.1849 7 13.3259v-2.6518Zm5.5046 2.6235 1.917-3.426c.135-.241.048-.546-.192-.681-.243-.135-.547-.049-.681.193l-1.773 3.17h-1.863c-.276 0-.5.223-.5.5 0 .276.224.5.5.5h2.156c.181 0 .348-.098.436-.256Z" fill="currentcolor"/></svg>