<svg xmlns="http://www.w3.org/2000/svg" width="24" height="24" fill="none" viewBox="0 0 24 24"><path fill="currentcolor" fill-rule="evenodd" d="M20.777 11.257a1.19 1.19 0 0 1 1.052 1.095l.169 2.59a1.172 1.172 0 0 1-1.18 1.262h-.835a2.5 2.5 0 0 0-4.966 0H8.982a2.5 2.5 0 0 0-4.965 0H3.2c-.652 0-1.199-.547-1.199-1.2v-2.547c0-.379.084-.758.21-1.116L4 7.5c.425-1.143 2.085-1.322 3.299-1.433C7.749 6.027 8.309 6 9 6c.622 0 1.142.022 1.574.056 1.377.108 2.926.348 3.94 1.287.043.04.082.082.116.125l2.694 3.39 3.453.4ZM8.663 11H4.639a.1.1 0 0 1-.095-.132l.728-2.184A1 1 0 0 1 6.221 8H8.9a.1.1 0 0 1 .1.1V11h-.337Zm1.837 0V8.1a.1.1 0 0 1 .1-.1h2.504c.19 0 .38.084.506.253l1.316 2.602a.1.1 0 0 1-.089.145H10.5Zm-4 7a1.5 1.5 0 1 0 0-3 1.5 1.5 0 0 0 0 3Zm11 0a1.5 1.5 0 1 0 0-3 1.5 1.5 0 0 0 0 3Z" clip-rule="evenodd"/></svg>