<svg viewBox="0 0 8000 8000" fill="none"
  xmlns="http://www.w3.org/2000/svg">
  <path fill-rule="evenodd" clip-rule="evenodd" d="M8000 0H0v8000h8000V0ZM4435.5 3579l-64.1.6c-7.6 0-9.7 4.8-4.8 10.6l21.7 25.4a13.2 13.2 0 0 0 19 1.2l31.8-28.8c5.5-5 4-9.1-3.6-9Zm-101.6 642.7 41.1 15.6c7 2.6 10.9 10.6 8.4 17.7l-22.5 67.4c-2.4 7.2-6.1 7.1-8.3 0l-27.6-92.5c-2-7.1 1.9-10.9 9-8.2Zm41.2 115.4c-6.7 3.3-10.4.3-8.2-7l22.4-73.6c2.2-7.1 8.9-9.3 14.8-4.7l44.6 34.3c5.9 4.6 5.3 11.2-1.4 14.5l-72.2 36.5Zm-776.3-368.5-42.9-29.5c-16.8-14.1-11.7-28.7-1-42.5l67.9-72.1c5.1-5.5 8.5-3.9 7.5 3.6l-18.4 134.7c-1 7.4-6.9 10-13 5.8Zm20.8-152.5-65.8 72.6c-5 5.6-9.2 4-9.2-3.5v-64.5a14 14 0 0 1 13.7-13.8l56.8-.8c7.5 0 9.6 4.4 4.5 10Zm-60.2 340.7 42.9-17.5c7-2.9 15 .4 18 7.3l42.8 98.6c3 7 .4 9-5.8 4.7l-99.4-69.1c-18.5-13.3-11.2-18 1.5-24Zm791-282.5c5.4 5.2 4.4 12.3-2.2 15.7l-220.5 115.7c-6.7 3.4-10 .5-7.5-6.6l86.8-243.7c2.6-7.1 9-8.7 14.5-3.5l128.8 122.4Zm-217.2 137.9 117.2-55.8c6.8-3.2 11.9.3 11.4 7.8l-8 116.1c-.4 7.5-6.1 10.6-12.7 6.8l-108.4-62.3c-6.6-3.7-6.3-9.4.5-12.6Zm-80.7 96.4c3 7-.6 11.9-8.1 11.1l-311.9-31.7c-7.4-.8-8.9-5.4-3.2-10.3l214.2-183.4c5.7-4.9 12.8-3.2 15.9 3.6l93 210.7Zm92.1-236.9-84.3-84.8c-4.5-6-2.3-12.1 5-13.7l124.9-36c7.4-1.6 11.4 2.9 9 10l-42 122.5c-2.3 7.1-8 8-12.6 2Zm-204-114.2 84.8 18.5c7.5.6 9.6 5.6 4.8 11.3l-66.2 75.8c-4.8 5.7-10.3 4.4-12-2.9l-21.9-90.4c-1.8-7.2 3-12.8 10.4-12.3Zm-35.9 8.1c6.9-3.2 13.8.1 15.6 7.5l21.3 87c1.8 7.3-2.5 10.9-9.4 8l-118.8-48.4c-7-2.8-7.2-7.8-.3-11l91.6-43Zm163.9 334.3c-2.8 7-7.6 7-10.6.2l-90-202.1c-3-6.9.6-11.6 8-10.5l154 21c7.5 1 11.3 7.7 8.6 14.7l-70 176.7Zm207.3-307.8-52.5-50.3c-5.4-5.1-3.7-9.4 3.8-9.3H4329c7.4 0 9.7 4.7 5 10.5l-39.5 48c-4.8 5.8-13.1 6.3-18.5 1.1Zm-1.5 294.7c-6.4 3.9-11.2 1-10.7-6.5l7.9-116.2c.5-7.4 6-10.2 12.3-6l84.9 56.4c6.2 4.2 6 10.8-.3 14.7l-94.1 57.6Zm33 104.5-39.2-73.2c-3.5-6.6-.6-10 6.5-7.7l69.6 23.5c7.1 2.4 9.5 9.5 5.4 15.7l-28.4 42.4c-4.1 6.3-10.4 6-14-.7Zm71.9-149.3-15.3 76.3a12 12 0 0 1-15.6 9.2l-70.8-22.9c-7.1-2.3-7.7-7.4-1.3-11.3l94-57.5c6.4-4 10.4-1.1 9 6.2Zm-5.7-141.6 7.2 99.7c.6 7.4-4 10-10.1 5.6l-84.3-59c-6.2-4.2-5.8-10.6.8-14.2l73.4-39.2c6.7-3.6 12.5-.3 13 7.1Zm-24.5-152.5 16.5 111.4c1.1 7.4-2.7 9.6-8.4 4.7l-55.9-47a14.5 14.5 0 0 1-2.2-19.6l39.7-52.1c4.6-6 9.2-4.8 10.3 2.6Zm37-102.3-30.8 62.3c-3.4 6.7-10 7.4-14.8 1.7l-69.5-84c-4.8-5.8-2.6-9.7 4.8-8.6l103 14.5c7.3 1 10.7 7.4 7.3 14.1Zm-135.8-16.9c2.9-7 9.2-7.8 14-2l69.5 83.9c4.8 5.8 2.6 10.7-5 10.8L4224 3724c-7.5.2-11.3-5.3-8.4-12.3l34.7-83Zm-118.7 20.8L4233 3620c7.2-2 10.8 2 8 8.9l-31.8 79.7c-2.9 7-10 8.8-15.8 4.2l-64.1-50.9c-5.9-4.7-4.8-10.2 2.4-12.3Zm-24.6 19.7a10.9 10.9 0 0 1 17-3.6l64 50.9c6 4.6 4.8 9.8-2.5 11.5l-117 36.4c-7.3 1.7-10.4-2.4-7-9l45.5-86.2Zm-122.7-26 106.1 11.7c7.5.8 10.8 6.9 7.3 13.6l-45.4 86.1c-3.5 6.7-9.9 7-14.2 1l-59.5-102.8c-4.3-6-1.8-10.4 5.7-9.6Zm-24 13.2c2.4-7 8-7.9 12.3-1.8l59.3 102.8c4.4 6 1.8 10.6-5.6 10l-83-18.2c-7.6-.6-11.7-7-9.4-14l26.4-78.8Zm-95.2 2.3 79-14.9c7.4-1.4 11.4 3.3 9 10.4l-27.5 80.5c-2.4 7.1-8.2 8.2-13 2.3l-52.3-65.2c-4.7-5.8-2.5-11.7 4.8-13.1Zm-22.2 19.6c2.3-7.1 8.1-8.2 12.8-2.3l52.4 65.1c4.7 5.8 3 13.3-3.8 16.5l-91.2 42.8c-6.7 3.3-10.4 0-8-7l37.8-115Zm-55.2 154.7c2-7.2 9.5-10.8 16.5-8l128 51c6.9 2.8 8 9.2 2.3 14l-209.9 183.6c-5.6 5-8.5 3-6.4-4.1l69.5-236.5Zm-132.6-25.3 117.6 9.7c7.5.6 11.6 7 9.1 14l-28.2 80.4c-2.4 7.1-8.6 8.3-13.7 2.8l-89.3-98c-5-5.5-3-9.5 4.5-9Zm-24 173.4 103.4-37.3c7-2.6 11.2 1.2 9.3 8.5l-31.3 115.6c-2 7.3-7.8 8.7-13 3.3l-71.8-75.6c-5.2-5.4-3.7-12 3.4-14.5Zm-9.8 135-2.7-107c-.2-7.5 3.7-9 8.5-3.3l156.5 182c4.8 5.7 3.2 8-3.8 5.3l-145.4-58.3a22.5 22.5 0 0 1-13-18.7Zm-74.9 152.7-1.4-75.4c-.2-7.5 4.8-10.1 10.9-5.8l99.4 69.1c6.1 4.3 5.1 8.7-2.3 9.8l-92.8 13.9c-7.4 1.1-13.6-4.1-13.8-11.6Zm52.6 58.6-47.1-29.6c-6.4-4-5.5-8.3 1.9-9.6l101.3-17.6c7.4-1.3 9.4 2.3 4.5 8l-40 45.8c-5 5.7-14.2 7-20.6 3Zm94.5 17.5-63-8c-7.5-1-9.5-6.4-4.5-12l40-45.3c5-5.6 11.4-4.5 14.3 2.4l21.5 52c2.9 7-.9 11.9-8.3 11Zm26.4-13c-3.9 6.4-9.5 6-12.4-1l-77.1-180c-3-7 .3-10.2 7.2-7.2l143.8 61.5c6.9 3 9.3 10.6 5.4 17l-66.9 109.6Zm95.9-142.7c-6 4.6-14.7 3.5-19.5-2.4l-65.7-81.6c-4.7-5.8-2.4-9.8 5-9l161.7 19.4c7.4.9 8.6 5.4 2.6 9.9l-84.1 63.7Zm229.4 54.7c-.8 7.5-5.5 8.9-10.3 3.1l-99.8-119.6c-4.8-5.8-2.7-9.9 4.8-9l105 11c7.5.7 12.9 7.4 12 14.9l-11.7 99.6Zm107.4-33.8-89 41.4c-6.8 3.2-11.5-.4-10.5-7.8l12.3-94c1-7.3 6.9-10 13-5.6l75.3 52.4c6.2 4.3 5.7 10.4-1.1 13.6Zm-38.4-170.2 44.3 141.6c2.3 7.1-.8 9.3-6.7 4.7l-71-54.6c-6-4.6-8.5-14-5.6-21l29.7-71.1c2.9-7 7-6.8 9.3.4Zm65 143.5c-4.9 5.7-10.7 4.5-12.9-2.7l-43.2-140.8c-2.2-7.2 1.3-10 7.8-6.2l107.2 61.5a10.8 10.8 0 0 1 3 17.1l-61.9 71.1Zm116.5 22.4-106.8-7c-7.5-.6-9.6-5.6-4.6-11.2l60.9-69c5-5.6 12-4.9 15.7 1.7l41.7 74.6c3.7 6.5.5 11.4-7 11Zm-39.7 96.6c-7-2.8-8.6-9.6-3.6-15.2l53.6-60.1c5-5.6 10.8-4.3 12.8 3l26.5 95.4c2 7.2-2.1 10.9-9 8.2l-80.3-31.3Zm110-145 16.5 64c1.9 7.2-2.3 10.8-9.3 8l-39.5-16.4a11 11 0 0 1-5.1-16.7l26.6-40.7c4.2-6.2 9-5.4 10.9 1.8Zm84.6-34-69.4 7.2c-7.5.8-12.4-4.6-11-12l15-80.2c1.4-7.3 6.4-8.5 11-2.6l59.5 75.5c4.7 5.9 2.4 11.4-5.1 12.1Zm-6.3-287.9L4389 3864c-6.6 3.5-13 .2-14.2-7.2l-17.3-109c-1.2-7.3 2.6-9.5 8.4-4.7l80.1 65.8c18.2 15.2 9 20.4-1 26.3l-.6.3Zm12.3-136 .8 98.1c0 7.5-4.6 9.7-10.5 5l-80.1-65.8c-5.8-4.8-4.9-11 2-14l75-31.6c7-2.9 12.7.8 12.8 8.4Zm-45.3-57.3 34 23.7c14.2 10 14.6 11-1.4 18.3l-76.1 32.5c-6.9 3-9.7 0-6.3-6.8l32.5-63.4 1.2-2.3c3.8-7 5.7-10.5 16.1-2Zm-139.4-40 23.4-15c6.3-4.1 17.6-7.4 25.1-7.5h14.3c7.5 0 17.9 4.5 23 10l25.2 27.2c5.1 5.5 3.2 9.1-4.2 8.2l-104.8-13.8c-7.4-1-8.4-5-2-9.1Zm-30.5-.8L4217 3586c-6.3-4-5.4-7.2 2-7.2h66.9c7.5 0 8.4 3.3 2.1 7.3l-23.4 15.1c-6.4 4-16.7 4.1-23 .2Zm-114.2 36 38-46c15.8-18.4 38.3-7.3 44.7-3.3l24.5 15.3c6.4 4 5.7 9-1.5 11.1l-101.3 29.6c-7.2 2.1-9.1-1-4.4-6.7Zm-271.8 5.3 18.5-48.8c2.7-7 10.2-12.7 16.8-12.7a35 35 0 0 1 21.4 9.7l34.6 35c5.3 5.3 3.6 10.8-3.8 12.2l-79 14.9c-7.3 1.3-11.2-3.2-8.5-10.3Zm-65.3 145.4-35-193.5a11 11 0 0 1 11.2-13.4h90c7.5 0 11.6 5.8 9.1 12.8l-68.4 194.7c-2.4 7-5.6 6.8-7-.6Zm-144.7.4 90.5-196c3.1-6.8 6.8-6.4 8.3 1l38.3 202.4c1.4 7.4-3.6 13.1-11.1 12.7l-118-7c-7.5-.4-11-6.3-8-13.1Zm7-149.6 64.2-45c6.1-4.2 8.7-2.2 5.7 4.7l-75.4 172c-3 6.8-5.5 6.3-5.5-1.2l-.1-109c0-7.5 5-17.2 11.1-21.5Zm-34.7 325.4 17.8-140.7c1-7.4 5.8-9 10.7-3.3l89.6 100.9c5 5.6 3.3 12.3-3.8 14.8l-103.2 37.2c-7 2.5-12-1.5-11.1-8.9Zm4.9-182-68.3-68.6c-11.6-12.8-14.7-24.1 2.9-32.1l62.4-26.6c7-2.9 12.6.8 12.6 8.3v115c0 7.5-4.3 9.3-9.6 4Zm-78.2 1.1-1-61.3c-.1-7.5 4-9.1 9.2-3.7l64.8 69c5.2 5.5 3.3 10-4.3 10l-54.8-.3a14 14 0 0 1-13.9-13.7Zm7.2 242.4c-6.2 4.2-11 1.5-10.8-6l2.3-66c.3-7.5 5.6-10 11.8-5.8l44.3 30.6c6 4.3 6 11.2-.2 15.4l-47.4 31.8Zm152.1 342-10 38.1c-5.5 18-11.4 13.9-23.3.4l-44-55c-4.7-6-2.4-9.8 5-8.6l62.3 9.8c7.5 1.2 12 8 10 15.3Zm23.7-4.6 67.5 48.6c6 4.4 5 8-2.6 8H3713c-7.5 0-12.1-6-10.2-13.2l10-38.1c2-7.3 8.5-9.6 14.6-5.3Zm6.2-12.2 86.9 5.9c7.4.5 13 7 12.2 14.5l-3.7 34.8c-3.4 18.9-12.4 13.3-23.3 6.6l-4.3-2.6-70.4-52c-6-4.5-4.9-7.7 2.6-7.2Zm69.7-126 30.2 114.6c2 7.2-2.6 12.8-10 12.2l-91.1-6c-7.5-.6-10.5-6.3-6.6-12.7l67-109.6c3.8-6.4 8.6-5.7 10.5 1.5Zm247.9 55.6 42.8 123.8c2.4 7.1-1 10-7.6 6.4l-97.2-52.8c-6.6-3.6-8.1-11.3-3.3-17l52.1-62.8c4.8-5.8 10.7-4.7 13.2 2.4Zm110-56.2-50.8 174c-2 7.2-5.9 7.2-8.5.1l-44.2-122.3c-2.6-7 1-15.4 7.7-18.6l87.2-40.6c6.8-3.1 10.6.2 8.5 7.4Zm139.2-.6L4128 4401.6c-5.2 5.4-7.9 4-6-3.4l46.6-176a18 18 0 0 1 17.1-12.7l110.7 4c7.5.3 9.4 4.9 4.1 10.3Zm36.6 127-197.3 62.4c-7.1 2.3-8.7-.3-3.4-5.6l92-94a22.6 22.6 0 0 1 22.4-4.9l86.6 33.1c7 2.7 6.8 6.7-.3 9Zm-98.7 54.3 2.5 4c4 6.5 1 11.7-6.5 11.7h-84c-7.6 0-7.9-1.7-.6-3.8l68.4-19.8a19 19 0 0 1 20.2 7.9Zm100.8-44.4-57.4 49.4c-1.3.7-2.7 1.7-4.1 2.6-8.7 5.8-19 12.8-29.6-5.2l-2.4-4.5a11.5 11.5 0 0 1 6.6-16.6l84.4-30c7-2.5 8.2-.5 2.5 4.3Zm-49.4 49.9 55.1-48.2c5.7-4.9 9.5-2.8 8.5 4.6l-4.7 37.9c-1 7.4-7.8 13.6-15.4 13.7l-40 .7c-7.6.1-9.1-3.8-3.5-8.7Zm160.4-244.6c4.7-5.9 8.5-4.6 8.5 3v98.2c0 7.5-5 10.1-11.2 5.8l-41.2-29.1a12.8 12.8 0 0 1-2.8-18.6l46.7-59.3Zm-66.3-29 64.3-6c7.5-.6 12.1 3.4 10.3 9.1a82 82 0 0 1-11.7 21l-46.7 59.3c-4.6 6-9.8 4.8-11.5-2.5l-15.2-66.2c-1.7-7.3 3-14 10.5-14.6Zm-566.5 59.6 88.1-66.6c3.7-2.7 8.8 0 8.6 4.5l-4.4 121.8a6.1 6.1 0 0 1-9.4 5l-82.3-52.1a7.6 7.6 0 0 1-.6-12.6Zm98.2 63.1 4.5-124.5c.2-4.2 5.4-6 8.1-2.8l102.5 118.6c3.3 3.8.7 9.8-4.4 10l-104.3 5.1a6.1 6.1 0 0 1-6.4-6.4Zm48.5 81.8-40-57.7c-3.5-5-.2-11.7 5.8-12l98-4.9c5.4-.2 8.5 6 5 10l-54.2 65.3a9.2 9.2 0 0 1-14.6-.7Zm-124.5-.6-28.7-116a6.1 6.1 0 0 1 9.2-6.7l77 48a10.7 10.7 0 0 1 2.7 15.9l-49.5 61.2a6.1 6.1 0 0 1-10.7-2.4Zm14.3 7.5 52.4-65.8c2.6-3.2 7.5-3 9.8.3l40.7 57.9c3.5 5 0 11.8-6 12l-93 3c-4 .1-6.3-4.4-3.8-7.4Zm129.2-469.1c-15.2-2.8-15.4-9-4.8-20.8l55.7-64.3c8-9.2 12.5-10.1 20.4-2.2l89.8 92.2c6.9 7.8 4.2 16.9-7.8 15.6l-153.3-20.5Z" fill="currentColor"/>
</svg>
