<svg xmlns="http://www.w3.org/2000/svg" width="24" height="24" fill="none" viewBox="0 0 24 24"><path fill="currentcolor" fill-rule="evenodd" d="M17.615 10.912a2.98 2.98 0 0 1 1.462-.38c1.614 0 2.923 1.274 2.923 2.844 0 1.57-1.309 2.844-2.923 2.844a2.978 2.978 0 0 1-1.462-.38v3.619c0 .567-.615 1.041-1.055 1.027 0 0-3.56.514-6.171.514s-6.334-.514-6.334-.514c-.583 0-1.055-.46-1.055-1.027v-3.35c.258.072.53.111.812.111 1.614 0 2.923-1.273 2.923-2.844 0-1.57-1.309-2.844-2.923-2.844a2.98 2.98 0 0 0-.812.111v-3.35c0-.568.472-1.027 1.055-1.027h3.72a2.77 2.77 0 0 1-.39-1.423C7.384 3.273 8.692 2 10.306 2c1.615 0 2.924 1.273 2.924 2.843a2.77 2.77 0 0 1-.392 1.423h3.72c.584 0 1.056.46 1.056 1.027v3.619Z" clip-rule="evenodd"/></svg>