<svg xmlns="http://www.w3.org/2000/svg" width="24" height="24" fill="none" viewBox="0 0 24 24"><path fill="currentcolor" fill-rule="evenodd" d="M19.5 12.75v4.049c0 .244-.062.414-.115.503-.044.073-.075.088-.105.099-1.306.484-3.67 1.099-7.28 1.099-3.61 0-5.974-.615-7.28-1.099-.03-.01-.061-.026-.105-.099a1.002 1.002 0 0 1-.115-.503V12.75h2.317a.75.75 0 0 0 .611-.315l.507-.713 1.874 3.623a.75.75 0 0 0 1.384-.126l1.321-4.335 1.578 2.773a.75.75 0 0 0 1.33-.05l.75-1.583.467.492a.75.75 0 0 0 .544.234H19.5Zm0-1.5V7.208c0-.73-.48-1.194-.995-1.262A50.067 50.067 0 0 0 12 5.5c-2.498 0-4.791.217-6.505.446-.514.068-.995.532-.995 1.262v4.042h1.93l.995-1.399a.75.75 0 0 1 1.278.09l1.592 3.078 1.293-4.238a.75.75 0 0 1 1.369-.152l1.726 3.034.603-1.27a.75.75 0 0 1 1.222-.195l.997 1.052H19.5ZM2 7.208c0-1.876 1.305-3.493 3.165-3.74A52.565 52.565 0 0 1 12 3c2.637 0 5.044.229 6.835.467C20.695 3.715 22 5.332 22 7.207V16.8c0 1.291-.64 2.497-1.85 2.946C18.56 20.335 15.9 21 12 21c-3.901 0-6.56-.666-8.15-1.255C2.64 19.296 2 18.09 2 16.8V7.208Z" clip-rule="evenodd"/></svg>