<svg xmlns="http://www.w3.org/2000/svg" width="24" height="24" fill="none" viewBox="0 0 24 24"><path fill="currentcolor" d="M22 9.882V8.24c-.06-.38-.139-.756-.238-1.126-.724-2.24-2.212-3.63-4.482-4.02-1.923-.332-3.62.317-4.975 1.7a.424.424 0 0 1-.613.004 6.244 6.244 0 0 0-.438-.436c-3.131-2.777-8.16-1.084-9.067 3.06a7.139 7.139 0 0 0-.095 2.767c.15.92.478 1.8.965 2.587a17.802 17.802 0 0 0 3.206 3.852 39.653 39.653 0 0 0 4.179 3.353c.936.65 2.174.643 3.113-.004 1.95-1.342 3.843-2.885 5.445-4.595a12.874 12.874 0 0 0 2.424-3.499c.277-.596.46-1.233.54-1.888A.61.61 0 0 1 22 9.882Z"/></svg>