<svg width="52" height="52" viewBox="0 0 52 52" fill="none" xmlns="http://www.w3.org/2000/svg">
<path fill-rule="evenodd" clip-rule="evenodd" d="M0 2.25092C0 1.00777 1.00777 0 2.25093 0H19.0736C20.9384 0 22.45 1.51166 22.45 3.37639V9.08591C23.6001 9.08806 24.7843 9.08922 26 9.08922C37.5305 9.08922 46.2201 8.98457 49.9691 8.92996C51.0879 8.91367 52 9.81585 52 10.9348V18.9549V40.1548L51.55 45.6338C51.393 47.5451 50.1486 49.1819 48.2891 49.651C44.4862 50.6103 37.0671 52.0001 26 52.0001C15.2511 52.0001 7.65763 50.8377 3.55393 49.9915C1.41744 49.551 0 47.6436 0 45.4621V41.9429V18.9549V12.9122V8.89766V2.25092ZM45.1594 35.0707C45.9831 34.7682 46.6204 34.3452 47.0712 33.8018V28.9197H42.2875V30.7768H44.5667V32.8859C44.1659 33.2892 43.4953 33.4909 42.5547 33.4909C41.6197 33.4909 40.91 33.1632 40.4258 32.5078C39.9416 31.8523 39.6995 30.8832 39.6995 29.6004V28.8189C39.7051 27.5473 39.9305 26.5893 40.3757 25.9451C40.821 25.3009 41.4694 24.9788 42.3209 24.9788C42.9888 24.9788 43.512 25.1412 43.8904 25.4661C44.2745 25.7911 44.5221 26.3036 44.6335 27.0039H47.0712C46.921 25.6818 46.4395 24.6763 45.6269 23.9872C44.8143 23.2926 43.6873 22.9453 42.2458 22.9453C41.2106 22.9453 40.3062 23.1834 39.5325 23.6595C38.7645 24.1301 38.1745 24.8135 37.7626 25.7098C37.3563 26.6005 37.1532 27.6565 37.1532 28.8777V29.7096C37.1643 30.8972 37.3842 31.9308 37.8127 32.8103C38.2468 33.6898 38.8591 34.362 39.6494 34.827C40.4453 35.2863 41.3692 35.516 42.4211 35.516C43.4229 35.516 44.3357 35.3676 45.1594 35.0707ZM13.8561 23.1133H11.3515V31.5835C11.3515 32.1941 11.2096 32.6646 10.9257 32.9951C10.6419 33.3257 10.2606 33.4909 9.78198 33.4909C9.24211 33.4909 8.84695 33.3481 8.59649 33.0624C8.34604 32.7767 8.22081 32.3341 8.22081 31.7347H5.69956C5.69956 32.9391 6.05855 33.8718 6.77652 34.5329C7.49449 35.1883 8.49631 35.516 9.78198 35.516C10.5667 35.516 11.2708 35.3535 11.8942 35.0286C12.5175 34.7037 12.9989 34.2444 13.3385 33.6506C13.6835 33.0512 13.8561 32.3621 13.8561 31.5835V23.1133ZM18.7721 35.3479V31.0373H20.9678C22.4093 31.0373 23.5364 30.6927 24.349 30.0037C25.1671 29.3091 25.5762 28.3623 25.5762 27.1635C25.5762 26.3737 25.3897 25.6706 25.0168 25.0544C24.6439 24.4326 24.1096 23.9536 23.4139 23.6175C22.7238 23.2814 21.9223 23.1133 21.0095 23.1133H16.2676V35.3479H18.7721ZM21.0095 28.9954H18.7721V25.1552H21.068C21.6858 25.1664 22.17 25.3569 22.5206 25.7266C22.8713 26.0964 23.0466 26.5809 23.0466 27.1803C23.0466 27.7629 22.8713 28.2111 22.5206 28.5248C22.1756 28.8385 21.6719 28.9954 21.0095 28.9954ZM34.8836 30.0457H30.0748V33.3228H35.7184V35.3479H27.5703V23.1133H35.7017V25.1552H30.0748V28.071H34.8836V30.0457Z" fill="#2DBECD"/>
</svg>
