<svg viewBox="0 0 24 24" fill="none" xmlns="http://www.w3.org/2000/svg"><path fill-rule="evenodd" clip-rule="evenodd" d="M14.5 2.1917C13.7855 2.0732 12.9568 2 12 2c-2.867 0-4.7477.3288-5.8305.6093C5.436 2.7993 5 3.4785 5 4.2361v15.5278c0 .7576.4361 1.4368 1.1695 1.6268C7.2522 21.6712 9.1329 22 12 22c2.8671 0 4.7477-.3288 5.8305-.6093.7334-.19 1.1695-.8692 1.1695-1.6268V7.0719a.8783.8783 0 0 0-.0118-.143 10.458 10.458 0 0 0-.0807-.4289H15a.5.5 0 0 1-.5-.5V2.1917ZM18.6369 5.5H15.5V2.403a9.682 9.682 0 0 1 .4584.1314c1.3917.437 2.2168 1.6014 2.6785 2.9656ZM7 9.5a.5.5 0 0 1 .5-.5h9a.5.5 0 0 1 .5.5v.5a.5.5 0 0 1-.5.5h-9A.5.5 0 0 1 7 10v-.5Zm0 3a.5.5 0 0 1 .5-.5h9a.5.5 0 0 1 .5.5v.5a.5.5 0 0 1-.5.5h-9A.5.5 0 0 1 7 13v-.5Zm4.5 2.5h-4a.5.5 0 0 0-.5.5v.5a.5.5 0 0 0 .5.5h4a.5.5 0 0 0 .5-.5v-.5a.5.5 0 0 0-.5-.5Z" fill="currentcolor"/></svg>