<svg xmlns="http://www.w3.org/2000/svg" width="24" height="24" fill="none" viewBox="0 0 24 24"><path fill="currentcolor" fill-rule="evenodd" d="M13.072 3.2h.022c1.04 0 1.937.513 2.327 1.248.144.271-.092.552-.4.552H8.198c-.31 0-.545-.284-.4-.556C8.195 3.708 9.087 3.2 10.12 3.2h.022v-.009c0-.657.652-1.191 1.454-1.191.824 0 1.476.534 1.476 1.191V3.2Zm-6.14 5.688c-.407 1.246-.825 2.738-1.039 4.143A132.1 132.1 0 0 0 5.479 16H11.6c.264 0 .48.216.48.48v.658A2.276 2.276 0 0 1 14 19.38c0 .621-.25 1.185-.653 1.596a25.944 25.944 0 0 0 3.434-.332c1.337-.23 2.054-1.51 1.816-2.846l-.424-2.39A3.75 3.75 0 0 0 20.357 12v-1a3.75 3.75 0 0 0-3.634-3.748l-.076-.427A1 1 0 0 0 15.662 6H6.007a.4.4 0 0 0-.35.594l1.275 2.294Zm10.063-.105.9 5.062A2.247 2.247 0 0 0 18.857 12v-1a2.25 2.25 0 0 0-1.862-2.217ZM10.252 21.28a4.23 4.23 0 0 1-.573.5H4.882a.47.47 0 0 1-.293-.099A4.15 4.15 0 0 1 3 18.42v-1.04c0-.22.18-.4.4-.4H11c.22 0 .4.18.4.4v.132c.904.144 1.6.924 1.6 1.868 0 1.048-.852 1.9-1.9 1.9h-.848Zm1.148-2.86v-.092c.46.132.8.552.8 1.052a1.1 1.1 0 0 1-1.1 1.1h-.252a4.14 4.14 0 0 0 .552-2.06Z" clip-rule="evenodd"/></svg>