<svg xmlns="http://www.w3.org/2000/svg" width="24" height="24" fill="none" viewBox="0 0 24 24"><path fill="currentcolor" fill-rule="evenodd" d="M2 6.125C2 4.951 2.951 4 4.125 4H6.25c1.412 0 2.609.918 3.028 2.189a663.698 663.698 0 0 0 8.621-.034 2.138 2.138 0 0 1 2.163 2.134v.501h-8.831a3.07 3.07 0 0 0-2.952 2.227l-1.8 6.297a.8.8 0 1 0 1.541.44l1.8-6.297c.18-.63.755-1.065 1.41-1.065h9.742c.602.11 1.004.722.828 1.337l-1.738 6.084c-.321 1.609-1.582 2.845-3.218 2.978-1.373.111-3.295.209-5.813.209-2.867 0-5.087-.236-6.61-.479C2.966 20.29 2 19.005 2 17.53V6.125Z" clip-rule="evenodd"/></svg>