<svg width="142" height="122" viewBox="0 0 142 122" fill="none" xmlns="http://www.w3.org/2000/svg">
<g clip-path="url(#clip0_333_531)">
<rect width="53" height="70" transform="matrix(0.969948 -0.243312 0.242469 0.970159 0.305664 53.483)" fill="#2DBECD"/>
<path d="M27.4816 107.665L44.6605 103.356C45.4495 103.158 46.2266 103.642 46.4306 104.458C46.6346 105.274 46.1769 106.068 45.3879 106.266L28.209 110.575C27.4201 110.773 26.6429 110.289 26.4389 109.473C26.2349 108.657 26.6927 107.863 27.4816 107.665Z" fill="white" fill-opacity="0.8"/>
<path d="M26.2439 102.649L51.9642 96.1974C52.7605 95.9976 53.5435 96.4802 53.7475 97.2965C53.9515 98.1129 53.488 98.9081 52.6916 99.1079L26.9713 105.56C26.1749 105.76 25.392 105.277 25.1879 104.461C24.9839 103.644 25.4475 102.849 26.2439 102.649Z" fill="white" fill-opacity="0.8"/>
<path fill-rule="evenodd" clip-rule="evenodd" d="M39.5011 69.4254C39.6175 69.8913 39.3236 70.3664 38.8445 70.4866L33.4235 71.8464C32.9444 71.9666 32.4617 71.6863 32.3453 71.2204C32.2288 70.7545 32.5228 70.2794 33.0018 70.1592L38.4229 68.7993C38.9019 68.6792 39.3846 68.9594 39.5011 69.4254Z" fill="white" fill-opacity="0.8"/>
<path fill-rule="evenodd" clip-rule="evenodd" d="M41.5142 92.2297C40.0771 92.5902 38.6289 91.7493 38.2796 90.3516L33.641 71.792L38.8453 70.4865L43.4838 89.0461C43.8331 90.4438 42.9513 91.8692 41.5142 92.2297Z" fill="white" fill-opacity="0.8"/>
<path fill-rule="evenodd" clip-rule="evenodd" d="M41.5142 92.2297C40.0771 92.5902 38.6289 91.7493 38.2796 90.3516L36.8564 84.6571L42.0606 83.3517L43.4838 89.0461C43.8331 90.4438 42.9513 91.8692 41.5142 92.2297Z" fill="#008490"/>
<path fill-rule="evenodd" clip-rule="evenodd" d="M31.6944 71.3834C31.8109 71.8493 31.5169 72.3244 31.0379 72.4446L25.6168 73.8044C25.1378 73.9246 24.6551 73.6443 24.5386 73.1784C24.4222 72.7125 24.7161 72.2374 25.1952 72.1172L30.6162 70.7573C31.0953 70.6372 31.578 70.9175 31.6944 71.3834Z" fill="white" fill-opacity="0.8"/>
<path fill-rule="evenodd" clip-rule="evenodd" d="M33.7076 94.1877C32.2705 94.5482 30.8223 93.7073 30.4729 92.3096L25.8344 73.75L31.0386 72.4445L35.6772 91.0041C36.0265 92.4018 35.1447 93.8272 33.7076 94.1877Z" fill="white" fill-opacity="0.8"/>
<path fill-rule="evenodd" clip-rule="evenodd" d="M33.7076 94.1877C32.2705 94.5482 30.8223 93.7073 30.4729 92.3096L26.9413 78.179L32.1455 76.8735L35.6772 91.0041C36.0265 92.4018 35.1447 93.8272 33.7076 94.1877Z" fill="#008490"/>
<rect opacity="0.2" width="44.2214" height="58.9295" transform="matrix(0.999639 0.0169183 -0.00845752 1.00018 27.6494 29.0971)" fill="#0F69AF"/>
</g>
<path d="M90.1104 30.6119L128.799 41.1592L137.705 57.5763L122.894 112.103L71.7621 98.1637L90.1104 30.6119Z" fill="#FFC832"/>
<path d="M129.244 41.2798L137.658 57.757L125.657 54.4854L129.244 41.2798Z" fill="white" fill-opacity="0.8"/>
<rect width="2.79536" height="17.9998" rx="1.39768" transform="matrix(0.96479 0.263023 -0.262121 0.965035 96.5518 59.3164)" fill="white" fill-opacity="0.8"/>
<rect width="2.79536" height="17.9998" rx="1.39768" transform="matrix(0.96479 0.263023 -0.262121 0.965035 100.747 60.46)" fill="white" fill-opacity="0.8"/>
<rect width="2.79536" height="17.9998" rx="1.39768" transform="matrix(0.96479 0.263023 -0.262121 0.965035 104.942 61.6037)" fill="white" fill-opacity="0.8"/>
<rect width="2.79536" height="17.9998" rx="1.39768" transform="matrix(0.96479 0.263023 -0.262121 0.965035 109.138 62.7474)" fill="white" fill-opacity="0.8"/>
<rect width="2.79536" height="17.9998" rx="1.39768" transform="matrix(0.96479 0.263023 -0.262121 0.965035 113.333 63.8911)" fill="white" fill-opacity="0.8"/>
<rect width="2.79536" height="17.9998" rx="1.39768" transform="matrix(0.96479 0.263023 -0.262121 0.965035 117.528 65.0348)" fill="white" fill-opacity="0.8"/>
<rect width="2.79536" height="12.6205" rx="1.39768" transform="matrix(0.96479 0.263023 -0.262121 0.965035 95.1416 64.5074)" fill="#A37303"/>
<rect width="2.79536" height="3.93099" rx="1.39768" transform="matrix(0.96479 0.263023 -0.262121 0.965035 97.0596 74.0367)" fill="#A37303"/>
<rect width="2.79536" height="5.99993" rx="1.39768" transform="matrix(0.96479 0.263023 -0.262121 0.965035 101.797 73.1841)" fill="#A37303"/>
<rect width="2.79536" height="12.6205" rx="1.39768" transform="matrix(0.96479 0.263023 -0.262121 0.965035 107.728 67.9386)" fill="#A37303"/>
<rect width="2.79536" height="10.4481" rx="1.39768" transform="matrix(0.96479 0.263023 -0.262121 0.965035 111.354 71.1786)" fill="#A37303"/>
<rect width="2.79536" height="6.10337" rx="1.39768" transform="matrix(0.96479 0.263023 -0.262121 0.965035 114.409 76.5153)" fill="#A37303"/>
<path d="M45.8096 0.000732422H85.9101L98.8079 13.4973V70.0001H45.8096V0.000732422Z" fill="#0F69AF"/>
<path d="M86.3711 -3.05176e-05L98.8095 13.684H86.3711V-3.05176e-05Z" fill="white" fill-opacity="0.8"/>
<path d="M56.5023 18.4202H83.631C84.471 18.4202 85.1283 19.06 85.1283 19.8775C85.1283 20.695 84.471 21.3348 83.631 21.3348H56.5023C55.6623 21.3348 55.0049 20.695 55.0049 19.8775C55.0049 19.06 55.6623 18.4202 56.5023 18.4202Z" fill="white" fill-opacity="0.8"/>
<path d="M56.5013 33.6838H83.63C84.47 33.6838 85.1274 34.3236 85.1274 35.1411C85.1274 35.9586 84.47 36.5984 83.63 36.5984H56.5013C55.6613 36.5984 55.0039 35.9586 55.0039 35.1411C55.0039 34.3236 55.6613 33.6838 56.5013 33.6838Z" fill="white" fill-opacity="0.8"/>
<path d="M56.5013 23.5858H74.7916C75.6316 23.5858 76.289 24.2256 76.289 25.0431C76.289 25.8606 75.6316 26.5003 74.7916 26.5003H56.5013C55.6613 26.5003 55.0039 25.8606 55.0039 25.0431C55.0039 24.2256 55.6613 23.5858 56.5013 23.5858Z" fill="white" fill-opacity="0.8"/>
<defs>
<clipPath id="clip0_333_531">
<rect width="53" height="70" fill="white" transform="matrix(0.969948 -0.243312 0.242469 0.970159 0.305664 53.483)"/>
</clipPath>
</defs>
</svg>
