<svg width="89" height="76" viewBox="0 0 89 76" fill="none" xmlns="http://www.w3.org/2000/svg">
<g clip-path="url(#clip0_353_683)">
<rect width="33.1967" height="43.4171" transform="matrix(0.97058 -0.24078 0.245017 0.969519 0.191895 33.1506)" fill="#2DBECD"/>
<path d="M17.2248 66.7345L27.9918 64.0634C28.4863 63.9408 28.9734 64.2408 29.1012 64.7468C29.2291 65.2528 28.9422 65.7448 28.4477 65.8674L17.6807 68.5385C17.1862 68.6612 16.6991 68.3612 16.5712 67.8552C16.4433 67.3492 16.7303 66.8572 17.2248 66.7345Z" fill="white" fill-opacity="0.8"/>
<path d="M16.4493 63.6256L32.5698 59.6265C33.069 59.5027 33.5597 59.8018 33.6875 60.3078C33.8154 60.8138 33.5249 61.3067 33.0257 61.4305L16.9053 65.4297C16.4061 65.5535 15.9154 65.2544 15.7875 64.7484C15.6596 64.2424 15.9502 63.7495 16.4493 63.6256Z" fill="white" fill-opacity="0.8"/>
<path fill-rule="evenodd" clip-rule="evenodd" d="M24.7585 43.0322C24.8315 43.321 24.6472 43.6155 24.347 43.69L20.9493 44.5329C20.649 44.6074 20.3465 44.4337 20.2735 44.1449C20.2005 43.8561 20.3847 43.5616 20.685 43.4871L24.0827 42.6442C24.3829 42.5697 24.6855 42.7435 24.7585 43.0322Z" fill="white" fill-opacity="0.8"/>
<path fill-rule="evenodd" clip-rule="evenodd" d="M26.0196 57.1672C25.1189 57.3906 24.2112 56.8694 23.9922 56.003L21.085 44.4992L24.3468 43.69L27.254 55.1939C27.473 56.0602 26.9203 56.9437 26.0196 57.1672Z" fill="white" fill-opacity="0.8"/>
<path fill-rule="evenodd" clip-rule="evenodd" d="M26.0196 57.1672C25.1189 57.3906 24.2112 56.8694 23.9922 56.003L23.1002 52.4734L26.362 51.6643L27.254 55.1939C27.473 56.0602 26.9203 56.9437 26.0196 57.1672Z" fill="#008490"/>
<path fill-rule="evenodd" clip-rule="evenodd" d="M19.8654 44.2459C19.9384 44.5347 19.7542 44.8291 19.4539 44.9036L16.0562 45.7465C15.756 45.821 15.4534 45.6473 15.3804 45.3585C15.3075 45.0697 15.4917 44.7752 15.7919 44.7007L19.1896 43.8578C19.4899 43.7833 19.7924 43.9571 19.8654 44.2459Z" fill="white" fill-opacity="0.8"/>
<path fill-rule="evenodd" clip-rule="evenodd" d="M21.127 58.3808C20.2263 58.6042 19.3186 58.083 19.0996 57.2167L16.1924 45.7128L19.4542 44.9036L22.3615 56.4075C22.5804 57.2739 22.0277 58.1573 21.127 58.3808Z" fill="white" fill-opacity="0.8"/>
<path fill-rule="evenodd" clip-rule="evenodd" d="M21.127 58.3808C20.2263 58.6042 19.3186 58.083 19.0996 57.2167L16.8862 48.458L20.148 47.6489L22.3615 56.4075C22.5804 57.2739 22.0277 58.1573 21.127 58.3808Z" fill="#008490"/>
<rect opacity="0.2" width="27.6801" height="36.5734" transform="matrix(1.00094 0.0167532 -0.00854105 0.998894 17.3301 18.0354)" fill="#0F69AF"/>
</g>
<path d="M56.4775 18.9743L80.726 25.5119L86.3079 35.6878L77.0252 69.4856L44.9776 60.8453L56.4775 18.9743Z" fill="#FFC832"/>
<path d="M81.0049 25.5866L86.2782 35.7998L78.7568 33.7719L81.0049 25.5866Z" fill="white" fill-opacity="0.8"/>
<rect width="1.75069" height="11.1655" rx="0.875345" transform="matrix(0.965524 0.260314 -0.264845 0.964291 60.5151 36.7665)" fill="white" fill-opacity="0.8"/>
<rect width="1.75069" height="11.1655" rx="0.875345" transform="matrix(0.965524 0.260314 -0.264845 0.964291 63.1445 37.4752)" fill="white" fill-opacity="0.8"/>
<rect width="1.75069" height="11.1655" rx="0.875345" transform="matrix(0.965524 0.260314 -0.264845 0.964291 65.7739 38.1841)" fill="white" fill-opacity="0.8"/>
<rect width="1.75069" height="11.1655" rx="0.875345" transform="matrix(0.965524 0.260314 -0.264845 0.964291 68.4033 38.893)" fill="white" fill-opacity="0.8"/>
<rect width="1.75069" height="11.1655" rx="0.875345" transform="matrix(0.965524 0.260314 -0.264845 0.964291 71.0327 39.6019)" fill="white" fill-opacity="0.8"/>
<rect width="1.75069" height="11.1655" rx="0.875345" transform="matrix(0.965524 0.260314 -0.264845 0.964291 73.6621 40.3108)" fill="white" fill-opacity="0.8"/>
<rect width="1.75069" height="7.82868" rx="0.875345" transform="matrix(0.965524 0.260314 -0.264845 0.964291 59.6313 39.9839)" fill="#A37303"/>
<rect width="1.75069" height="2.43844" rx="0.875345" transform="matrix(0.965524 0.260314 -0.264845 0.964291 60.8335 45.8905)" fill="#A37303"/>
<rect width="1.75069" height="3.72183" rx="0.875345" transform="matrix(0.965524 0.260314 -0.264845 0.964291 63.8027 45.362)" fill="#A37303"/>
<rect width="1.75069" height="7.82868" rx="0.875345" transform="matrix(0.965524 0.260314 -0.264845 0.964291 67.5195 42.1107)" fill="#A37303"/>
<rect width="1.75069" height="6.48112" rx="0.875345" transform="matrix(0.965524 0.260314 -0.264845 0.964291 69.792 44.119)" fill="#A37303"/>
<rect width="1.75069" height="3.786" rx="0.875345" transform="matrix(0.965524 0.260314 -0.264845 0.964291 71.7075 47.4268)" fill="#A37303"/>
<path d="M28.7119 0.000457764H53.8453L61.9292 8.36612V43.3885H28.7119V0.000457764Z" fill="#0F69AF"/>
<path d="M54.1343 0L61.9302 8.48187H54.1343V0Z" fill="white" fill-opacity="0.8"/>
<path d="M35.4136 11.4175H52.4168C52.9433 11.4175 53.3553 11.814 53.3553 12.3208C53.3553 12.8275 52.9433 13.224 52.4168 13.224H35.4136C34.8871 13.224 34.4751 12.8275 34.4751 12.3208C34.4751 11.814 34.8871 11.4175 35.4136 11.4175Z" fill="white" fill-opacity="0.8"/>
<path d="M35.4126 20.8784H52.4158C52.9423 20.8784 53.3543 21.275 53.3543 21.7817C53.3543 22.2884 52.9423 22.685 52.4158 22.685H35.4126C34.8861 22.685 34.4741 22.2884 34.4741 21.7817C34.4741 21.275 34.8861 20.8784 35.4126 20.8784Z" fill="white" fill-opacity="0.8"/>
<path d="M35.4126 14.6193H46.8763C47.4028 14.6193 47.8148 15.0159 47.8148 15.5226C47.8148 16.0293 47.4028 16.4258 46.8763 16.4258H35.4126C34.8862 16.4258 34.4741 16.0293 34.4741 15.5226C34.4741 15.0159 34.8862 14.6193 35.4126 14.6193Z" fill="white" fill-opacity="0.8"/>
<defs>
<clipPath id="clip0_353_683">
<rect width="33.1967" height="43.4171" fill="white" transform="matrix(0.97058 -0.24078 0.245017 0.969519 0.191895 33.1506)"/>
</clipPath>
</defs>
</svg>
