<svg viewBox="0 0 24 24" fill="none" xmlns="http://www.w3.org/2000/svg"><path fill-rule="evenodd" clip-rule="evenodd" d="m11.0708 12.2834-1.929-1.929c-.3905-.3905-1.0237-.3905-1.4142 0-.3905.3905-.3905 1.0237 0 1.4142l3.606 3.606a.997.997 0 0 0 .7369.3241.9961.9961 0 0 0 .4954-.131 1.0032 1.0032 0 0 0 .2126-.1624l3.6373-3.6374c.3906-.3905.3906-1.0236 0-1.4142-.3905-.3905-1.0236-.3905-1.4142 0l-1.9308 1.9308.0007-7.2844c0-.5523-.4476-1-.9999-1.0001-.5523 0-1.0001.4476-1.0001 1l-.0007 7.2834ZM4 19c0-.5523.4548-1 1.0159-1H18.984C19.5452 18 20 18.4477 20 19s-.4548 1-1.0159 1H5.0159C4.4549 20 4 19.5523 4 19Z" fill="currentcolor"/></svg>