<svg xmlns="http://www.w3.org/2000/svg" width="24" height="24" fill="none" viewBox="0 0 24 24"><path fill="currentcolor" d="M19.647 3c-1.712-.01-2.894 1.263-2.894 1.263L13.188 7.83 6.65 5.277C5 5 4 6 3.5 6.5l-.069.069a.5.5 0 0 0 .076.77l6.029 4.02c-.062.062-1.155 1.386-2.489 2.836a.333.333 0 0 1-.295.097L4.52 13.26a.856.856 0 0 0-.909.195l-.662.662a1 1 0 0 0 .232 1.587L6.5 17.5l1.796 3.32a1 1 0 0 0 1.587.232l.662-.662a.856.856 0 0 0 .195-.91l-1.032-2.232a.333.333 0 0 1 .097-.295c1.45-1.334 2.774-2.427 2.836-2.489l4.02 6.029a.5.5 0 0 0 .77.076l.069-.069c1-1 1.5-2.5 1.223-3.15l-2.552-6.538 3.566-3.565S21.01 6.065 21 4.353A1.354 1.354 0 0 0 19.647 3Z"/></svg>