<svg width="32" height="32" viewBox="0 0 32 32" fill="none" xmlns="http://www.w3.org/2000/svg">
  <circle cx="16" cy="16" r="16" fill="#2DBECD"/>
  <path d="M18.8282 16.3743C17.8302 17.3736 16.6274 17.9789 15.5739 18.051C16.487 17.1508 17.6048 16.5507 18.8282 16.3743ZM8.28489 12.4941C8.37246 13.071 8.56435 13.5926 8.82835 13.8244C9.12197 14.0832 9.42847 14.2597 9.76073 14.3228C9.59975 13.4252 9.02281 12.7143 8.28489 12.4941ZM22.1959 13.7922C22.1495 13.7922 22.1044 13.7973 22.0581 13.7999C22.0594 13.9261 22.0787 14.0485 22.1212 14.1618C22.3543 14.7812 23.1437 14.9036 23.9331 14.8469C23.5507 14.2095 22.9158 13.7922 22.1959 13.7922ZM9.71694 15.5282C9.30484 15.6827 8.87729 15.9866 8.52571 16.449C8.33125 16.6936 8.17929 16.9525 8.06982 17.2088C8.85282 17.0826 9.49286 16.4155 9.71694 15.5282Z" fill="#2DBECD"/>
  <path d="M8.28519 12.494C8.253 12.2803 8.23368 12.0588 8.23239 11.8411H8.89176C9.49059 11.854 10.0109 12.0974 10.3895 12.449C10.4024 12.4606 11.7314 13.7097 11.591 13.5784C10.884 14.2249 10.2903 14.4219 9.76103 14.3227C9.60005 13.4251 9.02311 12.7143 8.28519 12.494ZM10.9162 15.5887C10.6264 15.3685 10.1821 15.353 9.71725 15.5281C9.49317 16.4154 8.85312 17.0825 8.07013 17.2087C7.75848 17.9402 7.7984 18.6524 8.20535 18.955C8.51442 19.1843 8.92395 19.2306 9.3734 19.0722V17.6518C9.3734 16.995 9.90913 16.4528 10.5556 16.4528C10.8299 16.4528 11.0862 16.5082 11.3283 16.5996C11.3283 16.5996 11.3283 16.5996 11.327 16.5996C11.3515 16.154 11.1892 15.796 10.9162 15.5887ZM24.2837 16.4695C24.0918 16.4154 23.8961 16.373 23.6952 16.3382C23.6038 16.3227 23.511 16.3073 23.4183 16.297C23.3526 16.2892 23.2857 16.2815 23.2187 16.2751C23.0487 16.2609 22.8787 16.2493 22.7049 16.2493C22.549 16.2493 22.3906 16.2558 22.2335 16.2699C22.1125 16.2802 21.9927 16.297 21.8729 16.3137C21.8382 16.3189 21.8034 16.3214 21.7686 16.3266C21.6167 16.3511 21.466 16.3807 21.3192 16.4142C21.3179 16.4142 21.3166 16.4142 21.3166 16.4142C21.1775 16.4464 21.0423 16.4837 20.9109 16.5236C20.9032 16.5262 20.8955 16.5275 20.8878 16.5301C21.0642 16.4824 21.2484 16.4541 21.4415 16.4541C22.0841 16.4541 22.6186 16.9898 22.625 17.6427C22.625 17.6427 22.625 19.1495 22.625 19.1598C22.625 19.8565 23.1904 20.4206 23.8871 20.4206C23.8871 20.4206 24.4112 20.4206 24.4318 20.4206C24.5349 20.4206 24.6302 20.4218 24.6765 20.4218H24.7061C24.8465 20.4218 24.9598 20.3085 24.9598 20.1681C24.9598 20.1681 24.9598 20.06 24.9598 19.8732C24.9598 19.8707 24.9598 19.8681 24.9598 19.8655C24.9598 19.6994 24.9598 19.4727 24.9598 19.2023C24.9598 18.5416 24.9598 17.6247 24.9598 16.6975C24.7409 16.6073 24.5143 16.5339 24.2837 16.4695ZM13.8434 17.514C14.2993 17.9325 14.9071 18.096 15.5742 18.051C16.4873 17.1508 17.6051 16.552 18.8285 16.3742C18.9689 16.2339 19.108 16.0871 19.2394 15.9299C19.8974 15.1482 20.3404 14.2764 20.5581 13.438L19.5072 14.4245C18.5903 15.286 17.3553 15.7703 15.9979 15.7703C14.893 15.7703 13.873 15.4444 13.0372 14.8623L13.0385 14.8636C12.9046 15.9287 13.1699 16.8958 13.8434 17.514ZM23.0693 12.1193C23.0577 12.127 23.0461 12.136 23.0346 12.1438C22.455 12.5417 22.0507 13.223 22.0584 13.8012C22.1047 13.7973 22.1498 13.7935 22.1962 13.7935C22.9161 13.7935 23.5497 14.2107 23.9347 14.8482C24.0236 14.8417 24.1125 14.8327 24.2 14.8224C24.2606 14.8147 24.3211 14.8057 24.3803 14.7967C24.4074 14.7928 24.4344 14.7889 24.4615 14.7851C24.5361 14.7735 24.6083 14.7593 24.6804 14.7464C24.6907 14.7439 24.7023 14.7426 24.7126 14.7413C24.7783 14.7284 24.8426 14.7142 24.9045 14.7001C24.9186 14.6962 24.9354 14.6936 24.9495 14.6911V14.6872H24.956C24.956 14.1502 24.956 13.7046 24.956 13.4239C24.956 13.2294 24.956 13.1109 24.956 13.1032C24.956 12.4194 24.4099 11.8656 23.7313 11.845C23.7235 11.845 23.7158 11.8424 23.7081 11.8424H23.7068C23.4943 11.8888 23.2921 11.9789 23.1054 12.0961C23.0951 12.1038 23.0822 12.1116 23.0693 12.1193Z" fill="#503291"/>
  <path d="M21.3152 16.4143C21.3165 16.4143 21.3178 16.4143 21.3178 16.4143C21.4646 16.3808 21.614 16.3512 21.7673 16.3267C21.802 16.3216 21.8368 16.319 21.8716 16.3138C21.9913 16.2971 22.1111 16.2804 22.2322 16.2701C22.3893 16.2572 22.5477 16.2494 22.7035 16.2494C22.8774 16.2494 23.0486 16.261 23.2173 16.2752C23.2843 16.2816 23.35 16.2894 23.417 16.2971C23.511 16.3087 23.6024 16.3229 23.6938 16.3383C23.8947 16.3731 24.0905 16.4156 24.2824 16.4697C24.5129 16.5341 24.7395 16.6075 24.9559 16.6976C24.9559 15.9932 24.9559 15.2862 24.9559 14.6873C24.9533 14.6873 24.952 14.6886 24.9495 14.6886C24.9353 14.6925 24.9185 14.6951 24.9044 14.6976C24.8413 14.7118 24.7782 14.726 24.7125 14.7388C24.7022 14.7414 24.6906 14.7427 24.6803 14.744C24.6082 14.7582 24.5361 14.771 24.4614 14.7826C24.4343 14.7865 24.4073 14.7904 24.3802 14.7942C24.321 14.8032 24.2605 14.8122 24.1999 14.82C24.1124 14.8303 24.0235 14.8393 23.9347 14.8457C23.1439 14.9037 22.3558 14.78 22.1227 14.1606C22.0802 14.0473 22.0609 13.9249 22.0596 13.7987C22.0532 13.2166 22.455 12.5354 23.0358 12.1413C23.0473 12.1336 23.0589 12.1246 23.0705 12.1168C23.0821 12.1091 23.095 12.1027 23.1079 12.095C23.2946 11.9765 23.4968 11.8876 23.7093 11.8413C23.7054 11.8413 23.7003 11.84 23.6964 11.84H22.3597C22.2927 11.84 22.2322 11.867 22.1871 11.9095L20.5593 13.4381C20.3404 14.2765 19.8974 15.1497 19.2406 15.9301C19.1092 16.0859 18.9701 16.2327 18.8298 16.3744C17.8317 17.3737 16.6289 17.979 15.5754 18.0511C14.9084 18.0975 14.2992 17.9326 13.8446 17.5141C13.1711 16.8959 12.9058 15.9288 13.0397 14.865L13.0384 14.8638C12.9225 14.7826 12.8092 14.6976 12.6997 14.6075C12.5877 14.516 12.4795 14.4182 12.3765 14.3164C12.3765 14.3164 12.213 14.1632 11.9824 13.9455C11.8652 13.8361 11.7326 13.7099 11.5922 13.5785C10.8852 14.225 10.2915 14.422 9.76224 14.3229C9.43127 14.2611 9.12348 14.0833 8.82986 13.8245C8.56586 13.5927 8.37397 13.0711 8.2864 12.4942C8.25421 12.2804 8.23489 12.0589 8.2336 11.8413H7.29349C7.15312 11.8413 7.03979 11.9546 7.03979 12.0937V12.6024V17.0518V19.1599C7.03979 19.8566 7.60386 20.422 8.30185 20.422H8.78994H9.11962C9.25999 20.422 9.37332 20.3086 9.37332 20.1683V19.0736C8.92387 19.232 8.51434 19.1857 8.20527 18.9564C7.79832 18.6525 7.7584 17.9404 8.07005 17.2089C8.17951 16.9526 8.33019 16.6937 8.52593 16.4491C8.8788 15.9867 9.30635 15.6828 9.71716 15.5283C10.1821 15.3531 10.6264 15.3686 10.9161 15.5888C11.1891 15.7961 11.3514 16.1541 11.3269 16.5997C11.3269 16.5997 11.3269 16.5997 11.3282 16.5997C12.0043 16.8534 12.5645 17.3956 13.0784 17.876C13.0912 17.8875 13.1028 17.8991 13.1157 17.9107C13.1428 17.9352 13.1685 17.9597 13.1956 17.9841C13.2651 18.0485 13.3346 18.1116 13.4016 18.1722C13.5008 18.2597 13.5974 18.346 13.6914 18.4323C13.9077 18.628 14.1138 18.8174 14.3147 18.9912C14.316 18.9925 14.3172 18.9925 14.3185 18.9938C14.4138 19.0762 14.5078 19.1535 14.6019 19.2269C14.6031 19.2282 14.6031 19.2282 14.6044 19.2295C15.0603 19.5862 15.5033 19.8283 15.9978 19.8283C16.9019 19.8283 17.6372 19.0157 18.5928 18.1722C19.238 17.6029 19.9398 16.8019 20.8439 16.5405C20.8452 16.5405 20.8465 16.5392 20.8478 16.5392C20.8594 16.5353 20.8735 16.5328 20.8851 16.5289C20.8928 16.5263 20.9018 16.525 20.9083 16.5225C21.0409 16.4838 21.1749 16.4465 21.3152 16.4143Z" fill="#FDC734"/>
</svg>
