<svg viewBox="0 0 24 24" fill="none" xmlns="http://www.w3.org/2000/svg"><mask id="ld-icon-0a" fill="white"><path fill-rule="evenodd" clip-rule="evenodd" d="M2.017 9c.1926-2.3348 2.0013-4.2253 4.3802-4.3526A105.3092 105.3092 0 0 1 12 4.5c2.1571 0 4.0557.0646 5.6029.1474C19.9818 4.7747 21.7904 6.6652 21.983 9H22v5.6635c0 2.4883-1.8344 4.567-4.3193 4.6967-1.5152.0791-3.4159.1398-5.6807.1398-2.2648 0-4.1654-.0607-5.6807-.1398C3.8344 19.2305 2 17.1518 2 14.6635V9h.017ZM4 9v3h16V9H4Zm5 7c.5523 0 1-.4477 1-1s-.4477-1-1-1-1 .4477-1 1 .4477 1 1 1Zm-2-1c0 .5523-.4477 1-1 1s-1-.4477-1-1 .4477-1 1-1 1 .4477 1 1Z"/></mask><path fill-rule="evenodd" clip-rule="evenodd" d="M2.017 9c.1926-2.3348 2.0013-4.2253 4.3802-4.3526A105.3092 105.3092 0 0 1 12 4.5c2.1571 0 4.0557.0646 5.6029.1474C19.9818 4.7747 21.7904 6.6652 21.983 9H22v5.6635c0 2.4883-1.8344 4.567-4.3193 4.6967-1.5152.0791-3.4159.1398-5.6807.1398-2.2648 0-4.1654-.0607-5.6807-.1398C3.8344 19.2305 2 17.1518 2 14.6635V9h.017ZM4 9v3h16V9H4Zm5 7c.5523 0 1-.4477 1-1s-.4477-1-1-1-1 .4477-1 1 .4477 1 1 1Zm-2-1c0 .5523-.4477 1-1 1s-1-.4477-1-1 .4477-1 1-1 1 .4477 1 1Z" fill="currentcolor"/><path d="m6.3971 4.6474-.0534-.9986.0534.9986ZM2.017 9v1h.921l.0756-.9178L2.017 9Zm15.5859-4.3526.0534-.9986-.0534.9986ZM21.983 9l-.9966.0822.0757.9178h.9209V9ZM22 9h1V8h-1v1Zm-4.3193 10.3602-.0521-.9986.0521.9986Zm-11.3614 0 .0521-.9986-.052.9986ZM2 9V8H1v1h1Zm2 3H3v1h1v-1Zm0-3V8H3v1h1Zm16 3v1h1v-1h-1Zm0-3h1V8h-1v1ZM6.3437 3.6488c-2.911.1558-5.0924 2.4693-5.3233 5.269l1.9932.1644c.1543-1.87 1.5902-3.3374 3.437-3.4362l-.1069-1.9972ZM12 3.5c-2.1769 0-4.0934.0652-5.6563.1488l.1069 1.9972C7.982 5.564 9.8627 5.5 12 5.5v-2Zm5.6563.1488A106.3005 106.3005 0 0 0 12 3.5v2c2.1373 0 4.018.064 5.5494.146l.1069-1.9972Zm5.3233 5.269c-.2309-2.7996-2.4123-5.1132-5.3233-5.269l-.1069 1.9972c1.8468.0988 3.2827 1.5662 3.437 3.4362l1.9932-.1644ZM22 8h-.017v2H22V8Zm1 4V9h-2v3h2Zm0 .5V12h-2v.5h2Zm0 2.1635V12.5h-2v2.1635h2Zm-5.2672 5.6953C20.7888 20.1993 23 17.643 23 14.6635h-2c0 1.9971-1.4577 3.5981-3.3714 3.6981l.1042 1.9972ZM12 20.5c2.2827 0 4.2007-.0612 5.7328-.1412l-.1042-1.9972C16.1302 18.4398 14.247 18.5 12 18.5v2Zm-5.7328-.1412c1.532.08 3.45.1412 5.7328.1412v-2c-2.247 0-4.1302-.0602-5.6286-.1384l-.1042 1.9972ZM1 14.6635c0 2.9795 2.2112 5.5358 5.2672 5.6953l.1042-1.9972C4.4577 18.2616 3 16.6606 3 14.6635H1ZM1 12.5v2.1635h2V12.5H1Zm0-.5v.5h2V12H1Zm0-3v3h2V9H1Zm1.017-1H2v2h.017V8ZM5 12V9H3v3h2Zm15-1H4v2h16v-2Zm-1-2v3h2V9h-2ZM4 10h16V8H4v2Zm5 5v2c1.1046 0 2-.8954 2-2H9Zm0 0h2c0-1.1046-.8954-2-2-2v2Zm0 0v-2c-1.1046 0-2 .8954-2 2h2Zm0 0H7c0 1.1046.8954 2 2 2v-2Zm-3 2c1.1046 0 2-.8954 2-2H6v2Zm-2-2c0 1.1046.8954 2 2 2v-2H4Zm2-2c-1.1046 0-2 .8954-2 2h2v-2Zm2 2c0-1.1046-.8954-2-2-2v2h2Z" fill="currentcolor" mask="url(#ld-icon-0a)"/></svg>