<svg viewBox="0 0 24 24" fill="none" xmlns="http://www.w3.org/2000/svg"><path fill-rule="evenodd" clip-rule="evenodd" d="M12 5.8081c4.7545 0 9.3313 5.3941 9.5241 5.6232l.4759.5688-.4759.5687c-.1928.2291-4.7696 5.6232-9.5241 5.6232-4.7545 0-9.3313-5.3941-9.5241-5.6232L2 12.0001l.4759-.5688C2.6687 11.2022 7.2455 5.8081 12 5.8081Zm-3.5383 6.192c0 1.9513 1.587 3.5382 3.5383 3.5382s3.5383-1.5869 3.5383-3.5382c0-1.9514-1.587-3.5383-3.5383-3.5383s-3.5383 1.5869-3.5383 3.5383ZM13.7692 12c0 .9771-.7921 1.7692-1.7692 1.7692-.977 0-1.7691-.7921-1.7691-1.7692 0-.977.7921-1.7691 1.7691-1.7691.9771 0 1.7692.7921 1.7692 1.7691Z" fill="currentcolor"/></svg>