<svg xmlns="http://www.w3.org/2000/svg" width="24" height="24" fill="none" viewBox="0 0 24 24"><path fill="currentcolor" fill-rule="evenodd" d="M19.549 3.148a.962.962 0 0 0-1.409.004L13.463 7.83 8.397 3.777l-6.106 7.99c-.354.38-.368.978-.038 1.377l.002.002c.188.226.46.354.745.354a.964.964 0 0 0 .67-.273l.037-.035 5.12-6.773L13.8 10.38l5.756-5.805.008-.009c.362-.4.355-1.027-.016-1.418ZM17 10a1 1 0 0 1 1-1h3a1 1 0 0 1 1 1v10a1 1 0 0 1-1 1h-3a1 1 0 0 1-1-1V10Zm-6 2a1 1 0 0 0-1 1v7a1 1 0 0 0 1 1h3a1 1 0 0 0 1-1v-7a1 1 0 0 0-1-1h-3Zm-7 3a1 1 0 0 0-1 1v4a1 1 0 0 0 1 1h3a1 1 0 0 0 1-1v-4a1 1 0 0 0-1-1H4Z" clip-rule="evenodd"/></svg>