<svg viewBox="0 0 24 24" fill="none" xmlns="http://www.w3.org/2000/svg"><path fill-rule="evenodd" clip-rule="evenodd" d="M14.5 6V2.1917C13.7855 2.0732 12.9568 2 12 2c-2.867 0-4.7477.3288-5.8305.6093C5.436 2.7993 5 3.4785 5 4.2361v15.5278c0 .7576.4361 1.4368 1.1695 1.6268C7.2522 21.6712 9.1329 22 12 22c2.8671 0 4.7477-.3288 5.8305-.6093.7334-.19 1.1695-.8692 1.1695-1.6268V7.0719a.8783.8783 0 0 0-.0118-.143 10.458 10.458 0 0 0-.0807-.4289H15a.5.5 0 0 1-.5-.5Zm1-.5V2.403a9.682 9.682 0 0 1 .4584.1314c1.3917.437 2.2168 1.6014 2.6785 2.9656H15.5Zm-5.3882 4.3641a.943.943 0 0 1-.143.0109c-.5175 0-.9375-.42-.9375-.9375 0-.5175.42-.9375.9375-.9375.5174 0 .9374.42.9374.9375a.9335.9335 0 0 1-.1535.5142l.9751 1.6253a2.0428 2.0428 0 0 1 .3503-.0301c.342 0 .6643.0845.9471.2338l1.2117-1.3632a.9325.9325 0 0 1-.1275-.4722c0-.5175.42-.9375.9375-.9375.5175 0 .9375.42.9375.9375 0 .5175-.42.9375-.9375.9375a.9431.9431 0 0 1-.1877-.0188l-1.2382 1.3929a2.023 2.023 0 0 1 .4881 1.285l1.0904.0991a.9382.9382 0 0 1 .863-.5707c.518 0 .9375.42.9375.9375 0 .5175-.4195.9375-.9375.9375a.9379.9379 0 0 1-.8483-.5381l-1.2349-.1122a2.039 2.039 0 0 1-.8235 1.0053l.4843 1.3319c.4625.0575.8208.4523.8208.9303 0 .5175-.42.9375-.9375.9375-.5175 0-.9375-.42-.9375-.9375a.9356.9356 0 0 1 .3242-.7089l-.4645-1.2774a2.0412 2.0412 0 0 1-.3675.0332 2.0222 2.0222 0 0 1-1.0776-.3091l-.7137.8028a.9328.9328 0 0 1 .1116.4438c0 .5175-.42.9375-.9375.9375-.5175 0-.9375-.42-.9375-.9375 0-.5175.42-.9375.9375-.9375a.9396.9396 0 0 1 .2221.0265l.759-.8538a2.0213 2.0213 0 0 1-.3595-.8231H8.7551a.9372.9372 0 0 1-.8176.4785C7.42 13.9375 7 13.5175 7 13c0-.5175.42-.9375.9375-.9375a.938.938 0 0 1 .8875.6348h1.2575c.1075-.5665.4502-1.0497.9227-1.3442l-.8934-1.489Z" fill="currentcolor"/></svg>