<svg width="24" height="24" viewBox="0 0 24 24" fill="none" xmlns="http://www.w3.org/2000/svg"><rect x=".5" y=".5" width="23" height="23" rx="5.5" fill="#2DBECD" stroke="#2DBECD"/><path fill-rule="evenodd" clip-rule="evenodd" d="M13.44 7.282a3.821 3.821 0 0 0-2.88 0L6.584 8.909A.914.914 0 0 0 6 9.747c0 .379.25.719.627.854l4.088 1.464a3.824 3.824 0 0 0 2.57 0l4.088-1.464A.918.918 0 0 0 18 9.747a.914.914 0 0 0-.585-.838L13.44 7.282Zm-6.855 5.34 1.045-.428a.638.638 0 0 1 .455-.01l2.63.942a3.826 3.826 0 0 0 2.57 0l2.63-.942a.637.637 0 0 1 .455.01l1.045.427a.914.914 0 0 1 .585.838c0 .38-.25.72-.627.855l-4.088 1.464a3.826 3.826 0 0 1-2.57 0l-4.088-1.464A.918.918 0 0 1 6 13.459c0-.363.23-.692.585-.838Z" fill="#fff"/></svg>
