<svg xmlns="http://www.w3.org/2000/svg" width="24" height="24" fill="none" viewBox="0 0 24 24"><path fill="currentcolor" fill-rule="evenodd" d="M7.846 5.692c.096 0 .19-.007.282-.021l1.76 2.932A4.003 4.003 0 0 0 8.07 11.25H5.594a1.847 1.847 0 1 0-.138 1.5H8.07a3.98 3.98 0 0 0 .708 1.62l-1.495 1.682A1.849 1.849 0 0 0 5 17.846a1.847 1.847 0 1 0 3.473-.874l1.405-1.58a3.981 3.981 0 0 0 2.846.543l.914 2.515a1.847 1.847 0 1 0 1.438-.436l-.954-2.623a4.013 4.013 0 0 0 1.622-1.98l2.432.222a1.847 1.847 0 1 0-.03-1.51L16 11.93a3.983 3.983 0 0 0-.96-2.53l2.438-2.744a1.847 1.847 0 1 0-1.225-.88l-2.387 2.685a3.983 3.983 0 0 0-2.555-.4L9.39 4.858a1.847 1.847 0 1 0-1.544.834Z" clip-rule="evenodd"/></svg>