<svg xmlns="http://www.w3.org/2000/svg" width="24" height="24" fill="none" viewBox="0 0 24 24"><path fill="currentcolor" fill-rule="evenodd" d="M2 8.541c0-1.466 1.062-2.71 2.523-2.84C5.718 5.594 7.265 5.5 9 5.5c2.178 0 4.06.148 5.321.283.973.104 1.679.934 1.679 1.911v8.744c0 .918-.629 1.698-1.54 1.803-1.122.128-2.897.259-5.46.259-2.035 0-3.573-.083-4.681-.181C2.948 18.198 2 17.034 2 15.658V8.54ZM17 10.7a3 3 0 0 1 1.456-2.573l2.03-1.217A1 1 0 0 1 22 7.766v8.468a1 1 0 0 1-1.515.857l-2.029-1.217A3 3 0 0 1 17 13.3v-2.6ZM4 10a1 1 0 0 1 1-1h4a1 1 0 0 1 0 2H5a1 1 0 0 1-1-1Zm0 4a1 1 0 0 1 1-1h1a1 1 0 1 1 0 2H5a1 1 0 0 1-1-1Z" clip-rule="evenodd"/></svg>