<svg width="89" height="76" fill="none" xmlns="http://www.w3.org/2000/svg"><g clip-path="url(#a)"><path fill="#2DBECD" d="m0 33 32-8 11 42-32 8z"/><path d="m17 67 11-3 1 1-1 1-10 3-1-1v-1ZM16 64l17-4h1l-1 1-16 4h-1v-1Z" fill="#fff" fill-opacity=".8"/><path fill-rule="evenodd" clip-rule="evenodd" d="m25 43-1 1-3 1-1-1 1-1h4Z" fill="#fff" fill-opacity=".8"/><path fill-rule="evenodd" clip-rule="evenodd" d="m26 57-2-1-3-12h3l3 11-1 2Z" fill="#fff" fill-opacity=".8"/><path fill-rule="evenodd" clip-rule="evenodd" d="m26 57-2-1-1-4h3l1 3-1 2Z" fill="#008490"/><path fill-rule="evenodd" clip-rule="evenodd" d="m20 44-1 1-3 1-1-1h1l3-1h1Z" fill="#fff" fill-opacity=".8"/><path fill-rule="evenodd" clip-rule="evenodd" d="M21 58c-1 1-2 0-2-1l-3-11 3-1 3 11c1 1 0 2-1 2Z" fill="#fff" fill-opacity=".8"/><path fill-rule="evenodd" clip-rule="evenodd" d="M21 58c-1 1-2 0-2-1l-2-9h3l2 8c1 1 0 2-1 2Z" fill="#008490"/><path opacity=".2" fill="#0F69AF" d="m17 18 28 1v36H17z"/></g><path d="m56 19 25 7 5 10-9 33-32-8 11-42Z" fill="#FFC832"/><path d="m81 26 5 10-7-2 2-8Z" fill="#fff" fill-opacity=".8"/><rect width="1.8" height="11.2" rx=".9" transform="matrix(.96552 .26031 -.26484 .9643 61 37)" fill="#fff" fill-opacity=".8"/><rect width="1.8" height="11.2" rx=".9" transform="matrix(.96552 .26031 -.26484 .9643 63 37)" fill="#fff" fill-opacity=".8"/><rect width="1.8" height="11.2" rx=".9" transform="matrix(.96552 .26031 -.26484 .9643 66 38)" fill="#fff" fill-opacity=".8"/><rect width="1.8" height="11.2" rx=".9" transform="matrix(.96552 .26031 -.26484 .9643 68 39)" fill="#fff" fill-opacity=".8"/><rect width="1.8" height="11.2" rx=".9" transform="matrix(.96552 .26031 -.26484 .9643 71 40)" fill="#fff" fill-opacity=".8"/><rect width="1.8" height="11.2" rx=".9" transform="matrix(.96552 .26031 -.26484 .9643 74 40)" fill="#fff" fill-opacity=".8"/><rect width="1.8" height="7.8" rx=".9" transform="matrix(.96552 .26031 -.26484 .9643 60 40)" fill="#A37303"/><rect width="1.8" height="2.4" rx=".9" transform="matrix(.96552 .26031 -.26484 .9643 61 46)" fill="#A37303"/><rect width="1.8" height="3.7" rx=".9" transform="matrix(.96552 .26031 -.26484 .9643 64 45)" fill="#A37303"/><rect width="1.8" height="7.8" rx=".9" transform="matrix(.96552 .26031 -.26484 .9643 68 42)" fill="#A37303"/><rect width="1.8" height="6.5" rx=".9" transform="matrix(.96552 .26031 -.26484 .9643 70 44)" fill="#A37303"/><rect width="1.8" height="3.8" rx=".9" transform="matrix(.96552 .26031 -.26484 .9643 72 47)" fill="#A37303"/><path d="M29 0h25l8 8v35H29V0Z" fill="#0F69AF"/><path d="m54 0 8 8h-8V0ZM35 11h17l1 1-1 1H35l-1-1 1-1ZM35 21h17l1 1-1 1H35l-1-1 1-1ZM35 15h12l1 1H34l1-1Z" fill="#fff" fill-opacity=".8"/><defs><clipPath id="a"><path fill="#fff" transform="matrix(.97058 -.24078 .24502 .96952 0 33)" d="M0 0h33v43H0z"/></clipPath></defs></svg>