<svg xmlns="http://www.w3.org/2000/svg" width="24" height="24" fill="none" viewBox="0 0 24 24"><path fill="currentcolor" fill-rule="evenodd" d="M15.783 13.826c0 .697-.271 1.352-.764 1.845-.45.45-1.034.715-1.661.758a.103.103 0 0 0-.097.102v.586a.1.1 0 0 1-.1.1h-1.365a.1.1 0 0 1-.1-.1v-.582a.1.1 0 0 0-.1-.1H11.1a.1.1 0 0 0-.1.1v.582a.1.1 0 0 1-.1.1H9.535a.1.1 0 0 1-.1-.1v-.582a.1.1 0 0 0-.1-.1H8.318a.1.1 0 0 1-.1-.1V14.97a.1.1 0 0 1 .1-.1h.321a.1.1 0 0 0 .1-.1V9.23a.1.1 0 0 0-.1-.1h-.321a.1.1 0 0 1-.1-.1V7.665a.1.1 0 0 1 .1-.1h1.017a.1.1 0 0 0 .1-.1v-.582a.1.1 0 0 1 .1-.1H10.9a.1.1 0 0 1 .1.1v.582a.1.1 0 0 0 .1.1h.496a.1.1 0 0 0 .1-.1v-.582a.1.1 0 0 1 .1-.1h1.365a.1.1 0 0 1 .1.1v.587c0 .054.043.098.097.102a2.593 2.593 0 0 1 1.661.758c.492.493.764 1.147.764 1.844a2.59 2.59 0 0 1-.679 1.755.106.106 0 0 0 0 .142c.44.481.679 1.1.679 1.755ZM12 2C6.477 2 2 6.477 2 12s4.477 10 10 10 10-4.477 10-10S17.523 2 12 2Zm1.174 10.783h-2.87v2.087h2.87c.279 0 .54-.109.738-.306.196-.197.305-.459.305-.738a1.04 1.04 0 0 0-1.043-1.043Zm0-3.653h-2.87v2.087h2.87a1.04 1.04 0 0 0 1.043-1.043c0-.28-.109-.541-.305-.738a1.037 1.037 0 0 0-.738-.306Z" clip-rule="evenodd"/></svg>