<svg viewBox="0 0 24 24" fill="none" xmlns="http://www.w3.org/2000/svg"><path fill-rule="evenodd" clip-rule="evenodd" d="M2 9c0 1.3062.8348 2.4175 2 2.8293V14c0 4.4183 3.5817 8 8 8s8-3.5817 8-8v-2.1707c1.1652-.4118 2-1.5231 2-2.8293 0-1.6569-1.3431-3-3-3-.0233 0-.0466.0003-.0698.0008C17.5471 3.6092 14.9615 2 12 2S6.453 3.6092 5.0698 6.0008A3.0563 3.0563 0 0 0 5 6C3.3432 6 2 7.3431 2 9Zm14.6157 5.0059c-.8388.5029-1.3384 1.3345-1.3292 2.2241v.0116c0 .7465-.353 1.4466-.9901 1.9726-.6371.5222-1.4805.8007-2.3743.7852-1.7372-.031-3.1444-1.1952-3.2132-2.6495 0-.0153-.0005-.0307-.001-.0461v-.0001a.7704.7704 0 0 1 .001-.0969c.0138-.8742-.4858-1.698-1.3292-2.2047C6.518 13.4838 6 12.6483 6 11.7625c-.0046-1.4852 1.4347-2.723 3.204-2.7616h.0825c.8892 0 1.7464.3055 2.3651.8393.0917.0774.2155.1238.3484.1238s.2567-.0464.3484-.1238c.6371-.5531 1.5309-.8587 2.4476-.8393C16.5653 9.0395 18 10.2773 18 11.7625c-.0046.8897-.5225 1.729-1.3843 2.2434ZM11 12c0 .5523-.4477 1-1 1s-1-.4477-1-1 .4477-1 1-1 1 .4477 1 1Zm3 1c.5523 0 1-.4477 1-1s-.4477-1-1-1-1 .4477-1 1 .4477 1 1 1Zm-.5 3a.5.5 0 0 0 0-1h-3a.5.5 0 0 0 0 1h3Z" fill="currentcolor"/></svg>