<svg viewBox="0 0 24 24" fill="none" xmlns="http://www.w3.org/2000/svg"><path fill-rule="evenodd" clip-rule="evenodd" d="M18.7071 15.7071a.9972.9972 0 0 1-.3243.217 1.0001 1.0001 0 0 1-1.0899-.217l-3-3c-.3905-.3905-.3905-1.0237 0-1.4142.3905-.3905 1.0237-.3905 1.4142 0L17 12.5858V8h-7c-.5523 0-1-.4477-1-1s.4477-1 1-1h8c.5523 0 1 .4477 1 1v5.5858l1.2929-1.2929c.3905-.3905 1.0237-.3905 1.4142 0 .3905.3905.3905 1.0237 0 1.4142l-3 3ZM5.2929 8.2929a.9971.9971 0 0 1 .3243-.217 1.0003 1.0003 0 0 1 1.09.217l3 3c.3904.3905.3904 1.0237 0 1.4142-.3906.3905-1.0238.3905-1.4143 0L7 11.4142V16h7c.5523 0 1 .4477 1 1s-.4477 1-1 1H6c-.5523 0-1-.4477-1-1v-5.5858l-1.2929 1.2929c-.3905.3905-1.0237.3905-1.4142 0-.3905-.3905-.3905-1.0237 0-1.4142l3-3Z" fill="currentcolor"/></svg>