<svg xmlns="http://www.w3.org/2000/svg" width="24" height="24" fill="none" viewBox="0 0 24 24"><path fill="currentcolor" fill-rule="evenodd" d="M2 9.432C2 6.317 2.203 3 11.943 3c9.842 0 10.146 3.317 10.045 6.432v2.135c0 2.066-.09 4.22-2.988 5.438V20c0 .552-.454.945-.944.69-.412-.213-.942-.576-1.556-1.19-.66-.66-1.03-1.224-1.237-1.648-.937.096-2.003.148-3.218.148-1.251 0-2.347-.053-3.306-.152-.206.424-.576.99-1.239 1.652-.614.614-1.144.977-1.556 1.19-.49.255-.944-.138-.944-.69v-2.998c-2.868-1.2-3-3.317-3-5.434V9.432ZM8.665 7.71v4.054a2.528 2.528 0 0 0-.165-.006c-.967 0-1.758.73-1.758 1.621S7.533 15 8.5 15c.964 0 1.758-.719 1.758-1.622V9.115l3.64-.474v2.151a2.527 2.527 0 0 0-.166-.006c-.963 0-1.758.719-1.758 1.622 0 .888.779 1.622 1.758 1.622.97 0 1.768-.716 1.768-1.622V6.7a.5.5 0 0 0-.585-.493L9.08 7.217a.5.5 0 0 0-.415.492Z" clip-rule="evenodd"/></svg>