<svg xmlns="http://www.w3.org/2000/svg" width="24" height="24" fill="none" viewBox="0 0 24 24"><path fill="currentcolor" fill-rule="evenodd" d="M14.5 2.192V6a.5.5 0 0 0 .5.5h3.907c.03.142.057.286.081.429a.878.878 0 0 1 .012.143v2.026A69.348 69.348 0 0 0 15 9c-3.806 0-5.6.201-6.403.348-.373.069-.597.391-.597.77v6.764c0 .379.224.701.597.77C9.4 17.799 11.194 18 15 18c1.708 0 3.01-.04 4-.098v1.862c0 .758-.436 1.437-1.17 1.627-1.082.28-2.963.609-5.83.609s-4.748-.329-5.83-.61C5.435 21.2 5 20.522 5 19.765V4.236C5 3.48 5.436 2.8 6.17 2.61 7.251 2.33 9.132 2 12 2c.957 0 1.786.073 2.5.192Zm1 .21V5.5h3.137c-.462-1.364-1.287-2.529-2.679-2.966a9.682 9.682 0 0 0-.458-.131Zm-4.621 11.36v1.504H10V11h1.664c.32 0 .602.059.844.176.244.117.432.284.562.5.131.216.197.46.197.736 0 .418-.144.748-.431.99-.285.24-.68.36-1.187.36h-.77Zm0-.711h.785c.232 0 .41-.055.53-.164.123-.11.185-.266.185-.469a.704.704 0 0 0-.185-.507c-.123-.129-.293-.195-.51-.2h-.805v1.34Zm3.087 2.215V11h1.313c.375 0 .71.085 1.005.255.297.168.528.408.694.72.166.311.25.665.25 1.061v.196c0 .397-.083.75-.247 1.058a1.743 1.743 0 0 1-.688.718c-.297.17-.632.256-1.005.258h-1.322Zm.88-3.554v2.848h.424c.344 0 .607-.113.788-.337.182-.225.275-.546.279-.964v-.226c0-.433-.09-.761-.27-.984-.18-.225-.442-.337-.788-.337h-.434Zm3.995 1.81h1.688v-.709H18.84v-1.101h1.898V11h-2.777v4.266h.879v-1.743Z" clip-rule="evenodd"/></svg>