<svg viewBox="0 0 8000 8000" fill="none"
  xmlns="http://www.w3.org/2000/svg">
  <path fill-rule="evenodd" clip-rule="evenodd" d="M8000 0H0V8000H8000V0ZM4938 4138.38C4938 4146.12 4931.88 4153.91 4924.4 4155.7L4889.52 4163.93C4882.04 4165.72 4871.41 4171.66 4865.97 4177.1L4767.53 4275.38C4762.03 4280.89 4763.14 4288.37 4769.88 4292.08L4793.87 4305.25C4800.68 4308.97 4806.18 4318.31 4806.18 4326.04V4419.68C4806.18 4427.41 4799.93 4433.04 4792.27 4432.17L4654.76 4417.14C4647.09 4416.34 4640.84 4409.35 4640.84 4401.62V4348.06C4640.84 4340.32 4646.53 4331.36 4653.52 4328.08L4738.41 4288.18C4745.4 4284.91 4755.6 4277.73 4761.04 4272.29L4859.41 4174.13C4864.85 4168.69 4864.36 4160.34 4858.3 4155.58L4835.18 4137.33C4829.12 4132.57 4818.98 4132.26 4812.61 4136.59L4757.77 4174.13C4751.4 4178.52 4746.2 4188.36 4746.2 4196.09V4261.65C4746.2 4269.38 4740.45 4278.35 4733.47 4281.57L4700.02 4297.03C4693.03 4300.31 4682.08 4299.44 4675.65 4295.17L4526.77 4195.97C4520.4 4191.7 4511.74 4193.55 4507.6 4200.05L4477.86 4246.87C4473.72 4253.36 4473.28 4264.31 4476.87 4271.11L4490.47 4296.78C4494.06 4303.58 4503.27 4310.2 4510.88 4311.44L4617.35 4328.94C4624.95 4330.24 4631.2 4337.54 4631.2 4345.27V4403.72C4631.2 4411.39 4624.95 4418.75 4617.35 4419.99L4544.57 4431.86C4536.91 4433.1 4529.43 4440.27 4527.82 4447.82L4519.6 4486.97C4517.99 4494.52 4522.75 4502.56 4530.11 4504.78L4619.82 4532.12C4627.18 4534.35 4633.24 4542.51 4633.24 4550.24V4701.71C4633.24 4709.44 4626.99 4714.7 4619.39 4713.4L4422.96 4679.94C4415.35 4678.64 4409.1 4671.28 4409.1 4663.55V4579.06C4409.1 4571.33 4414.48 4561.75 4421.1 4557.79L4496.72 4512.33C4503.33 4508.37 4510.07 4498.91 4511.62 4491.36L4521.33 4444.73C4522.87 4437.18 4519.41 4426.85 4513.6 4421.78L4490.54 4401.74C4484.72 4396.67 4475.08 4396.55 4469.14 4401.43L4419.8 4442.07C4413.87 4446.95 4408.98 4457.28 4408.98 4465.01V4544.68C4408.98 4552.41 4402.98 4560.7 4395.69 4563.17L4244.27 4614.13C4236.91 4616.61 4231.71 4612.34 4232.64 4604.67L4244.82 4503.79C4245.75 4496.12 4241.05 4486.66 4234.43 4482.7L4184.66 4453.2C4178.05 4449.3 4171.37 4452.27 4169.88 4459.82L4163.27 4493.16C4161.72 4500.76 4154.49 4508.74 4147.07 4510.91L4004.86 4552.84C3997.44 4555.01 3991.38 4550.49 3991.38 4542.76V4421.35C3991.38 4413.62 3997.69 4407.25 4005.42 4407.18L4038.87 4406.87C4046.59 4406.81 4049.81 4401.25 4046.04 4394.5L4008.94 4328.08C4005.17 4321.34 3995.77 4316.33 3988.1 4317.01L3965.35 4318.92C3957.68 4319.6 3950.76 4313.85 3949.95 4306.18L3933.01 4141.48C3932.21 4133.81 3937.77 4128.36 3945.44 4129.42L4112.94 4152.49C4120.54 4153.54 4127.96 4148.22 4129.39 4140.61L4140.14 4083.21C4141.57 4075.67 4138.23 4065.03 4132.72 4059.65L4116.28 4043.57C4110.77 4038.19 4100.2 4035.47 4092.78 4037.57L4052.78 4048.89C4045.36 4050.99 4037.88 4058.84 4036.08 4066.33L4023.41 4119.83C4021.62 4127.31 4013.89 4132.57 4006.28 4131.46L3945.32 4122.67C3937.65 4121.62 3928.31 4115.19 3924.48 4108.51L3877.18 4025.45C3873.41 4018.7 3864.88 4016.48 3858.26 4020.5L3832.66 4035.96C3826.05 4039.92 3820.67 4049.51 3820.67 4057.24V4131.89C3820.67 4139.56 3814.61 4147.79 3807.25 4150.07L3747.96 4168.57C3740.6 4170.85 3734.17 4179.02 3733.73 4186.75L3732.31 4210.69C3731.82 4218.36 3737.75 4224.66 3745.48 4224.66H3786.04C3793.77 4224.66 3800.08 4230.97 3800.08 4238.7V4328.14C3800.08 4335.87 3793.77 4342.18 3786.04 4342.18H3637.22C3629.49 4342.18 3621.7 4336.06 3619.91 4328.57L3611.5 4293.57C3609.7 4286.08 3603.77 4275.44 3598.33 4270L3500.08 4171.54C3494.58 4166.03 3487.09 4167.14 3483.38 4173.89L3470.21 4197.88C3466.5 4204.69 3457.17 4210.19 3449.44 4210.19H3355.83C3348.1 4210.19 3342.47 4203.94 3343.34 4196.28L3358.36 4058.72C3359.17 4051.05 3366.15 4044.8 3373.88 4044.8H3427.43C3435.16 4044.8 3444.12 4050.49 3447.4 4057.48L3487.28 4142.4C3490.56 4149.39 3497.73 4159.6 3503.17 4165.04L3601.29 4263.44C3606.74 4268.89 3615.08 4268.39 3619.84 4262.33L3638.08 4239.2C3642.84 4233.14 3643.15 4222.99 3638.82 4216.62L3601.29 4161.76C3596.9 4155.39 3587.07 4150.2 3579.34 4150.2H3513.8C3506.08 4150.2 3497.11 4144.44 3493.9 4137.46L3478.44 4104C3475.16 4096.94 3476.03 4086 3480.29 4079.56L3579.47 3930.63C3583.73 3924.26 3581.88 3915.6 3575.39 3911.46L3528.58 3881.71C3522.09 3877.56 3511.15 3877.13 3504.34 3880.72L3478.68 3894.32C3471.88 3897.91 3465.27 3907.13 3464.03 3914.73L3446.53 4021.24C3445.23 4028.85 3437.94 4035.09 3430.21 4035.09H3371.78C3364.05 4035.09 3356.76 4028.85 3355.52 4021.24L3343.65 3948.44C3342.41 3940.77 3335.24 3933.29 3327.7 3931.68L3288.56 3923.46C3281.01 3921.85 3272.98 3926.61 3270.75 3933.97L3243.42 4023.71C3241.2 4031.07 3233.03 4037.14 3225.3 4037.14H3073.88C3066.15 4037.14 3060.9 4030.89 3062.2 4023.28L3095.65 3826.85C3096.95 3819.24 3104.3 3812.99 3112.03 3812.99H3196.55C3204.28 3812.99 3213.87 3818.37 3217.82 3824.99L3263.27 3900.63C3267.23 3907.25 3276.69 3913.99 3284.23 3915.54L3330.85 3925.25C3338.39 3926.79 3348.72 3923.33 3353.79 3917.52L3373.82 3894.45C3378.89 3888.63 3379.01 3878.98 3374.13 3873.05L3333.51 3823.69C3328.62 3817.75 3318.3 3812.87 3310.57 3812.87H3230.93C3223.2 3812.87 3214.92 3806.87 3212.44 3799.57L3161.5 3648.1C3159.02 3640.74 3163.29 3635.54 3170.96 3636.47L3271.8 3648.72C3279.47 3649.65 3288.93 3644.94 3292.89 3638.33L3322.38 3588.54C3326.27 3581.92 3323.31 3575.24 3315.76 3573.76L3282.44 3567.14C3274.83 3565.59 3266.85 3558.35 3264.69 3550.93L3222.77 3408.68C3220.61 3401.26 3225.12 3395.19 3232.85 3395.19H3354.28C3362.01 3395.19 3368.38 3401.5 3368.44 3409.23L3368.75 3442.7C3368.81 3450.43 3374.38 3453.64 3381.12 3449.87L3447.52 3412.76C3454.26 3408.99 3459.27 3399.59 3458.59 3391.92L3456.67 3369.16C3455.99 3361.49 3461.74 3355.36 3469.47 3355.55L3633.94 3359.75C3641.61 3359.94 3646.92 3366.37 3645.75 3373.98L3623.24 3516.85C3622.07 3524.46 3627.26 3531.88 3634.87 3533.31L3692.25 3544.07C3699.79 3545.49 3710.42 3542.15 3715.8 3536.65L3731.88 3520.19C3737.26 3514.69 3739.98 3504.11 3737.88 3496.69L3726.56 3456.67C3724.46 3449.25 3716.79 3441.09 3709.5 3438.55L3684.33 3429.77C3677.04 3427.23 3669.93 3418.94 3668.44 3411.4L3646.92 3300.19C3645.5 3292.59 3650.57 3286.4 3658.3 3286.4L3805.46 3286.46C3813.19 3286.46 3818.75 3292.71 3817.82 3300.38L3806.76 3393.15C3805.83 3400.82 3799.46 3409.91 3792.6 3413.44L3744.55 3437.93C3737.69 3441.4 3733.73 3450.36 3735.84 3457.79L3746.9 3497.37C3748.94 3504.79 3756.8 3512.34 3764.28 3514.19L3789.13 3520.25C3796.62 3522.11 3802.74 3529.9 3802.74 3537.63V3618.47C3802.74 3626.2 3796.43 3632.51 3788.7 3632.51H3730.21C3722.54 3632.51 3712.77 3637.83 3708.63 3644.33L3676.05 3694.98C3671.9 3701.48 3672.15 3711.93 3676.67 3718.17L3698.06 3747.86C3702.57 3754.11 3711.41 3755.66 3717.78 3751.26L3746.59 3731.35C3752.9 3726.96 3761 3717.74 3764.53 3710.88L3782.33 3676.3C3785.86 3669.44 3794.95 3662.57 3802.49 3661.09L3923.99 3636.78C3931.53 3635.23 3937.71 3640.31 3937.71 3648.04V3773.65C3937.71 3781.39 3943.9 3788.87 3951.5 3790.29L4023.35 3803.78C4030.95 3805.2 4042.39 3802.91 4048.82 3798.64L4058.22 3792.39C4064.65 3788.13 4066.38 3779.47 4061.99 3773.1L3984.21 3659.6C3979.88 3653.23 3976.29 3641.73 3976.29 3634V3557.92C3976.29 3550.19 3982.6 3543.88 3990.33 3543.88H4111.27C4119 3543.88 4125.3 3550.19 4125.3 3557.92V3683.29C4125.3 3691.02 4119.31 3699.31 4112.01 3701.78L4051.97 3722.01C4044.68 3724.48 4042.27 3731.72 4046.59 3738.09L4070.58 3773.16C4074.91 3779.47 4084.13 3787.51 4091.05 3790.91L4110.65 3800.56C4117.58 3803.96 4126.97 3804.21 4131.55 3801.05C4136.12 3797.9 4139.9 3789.05 4139.9 3781.32V3664.12C4139.9 3656.39 4146.2 3650.08 4153.93 3650.08H4279.14C4286.87 3650.08 4295.15 3656.08 4297.62 3663.38L4317.84 3723.43C4320.32 3730.73 4327.55 3733.14 4333.92 3728.81L4368.98 3704.82C4375.28 3700.49 4383.32 3691.27 4386.72 3684.34L4399.09 3659.23C4402.49 3652.37 4411.58 3646.68 4419.31 3646.68H4477.12C4484.85 3646.68 4491.15 3652.99 4491.15 3660.72V3737.91C4491.15 3745.57 4484.91 3751.2 4477.24 3750.4L4422.34 3744.4C4414.67 3743.53 4407.25 3749.04 4405.83 3756.65L4393.21 3824C4391.79 3831.61 4394.7 3837.79 4399.71 3837.79C4404.71 3837.79 4408.3 3844.1 4407.68 3851.77L4397.73 3972.81C4397.05 3980.48 4390.87 3989.57 4383.94 3992.91L4341.71 4013.45C4334.79 4016.79 4332.68 4024.77 4337.01 4031.14L4355.25 4057.73C4359.64 4064.1 4369.47 4069.3 4377.2 4069.3H4484.97C4492.7 4069.3 4499.93 4075.54 4501.05 4083.15L4513.35 4166.46C4514.46 4174.07 4520.71 4183.78 4527.2 4187.93L4545.07 4199.43C4551.56 4203.64 4559.97 4201.53 4563.8 4194.85L4608.63 4116.3C4612.46 4109.62 4621.86 4104.12 4629.59 4104.12H4731.92C4739.65 4104.12 4745.96 4110.43 4745.96 4118.16V4159.72C4745.96 4167.45 4751.15 4170.17 4757.52 4165.85L4809.83 4130.03C4816.19 4125.64 4821.39 4115.81 4821.39 4108.08V4066.33C4821.39 4058.66 4815.08 4051.92 4807.41 4051.36L4785.4 4049.81C4777.74 4049.32 4768.28 4054.33 4764.5 4061.07L4752.45 4082.35C4748.68 4089.09 4739.28 4094.59 4731.55 4094.66L4634.91 4095.34C4627.18 4095.4 4621.43 4089.15 4622.11 4081.48L4632.06 3968.91C4632.74 3961.25 4639.61 3954.94 4647.34 3954.94H4733.96C4741.69 3954.94 4749.48 3961.12 4751.27 3968.61L4765.37 4027.42C4767.16 4034.91 4774.95 4041.46 4782.62 4041.9L4806.55 4043.32C4814.22 4043.82 4820.52 4037.88 4820.52 4030.15V3989.57C4820.52 3981.84 4826.83 3975.53 4834.56 3975.53H4923.96C4931.69 3975.53 4938 3981.84 4938 3989.57V4138.38ZM3502.18 3873.85C3508.98 3870.26 3515.16 3860.99 3515.91 3853.32L3530.93 3700.92C3531.67 3693.25 3526.05 3685.95 3518.44 3684.78L3423.1 3669.75C3415.49 3668.57 3408.45 3661.33 3407.52 3653.67L3401.52 3605.3C3400.59 3597.63 3393.61 3590.27 3386 3588.91L3350.02 3582.48C3342.41 3581.12 3333.01 3585.44 3329.12 3592.12L3300.37 3641.11C3296.47 3647.79 3299.5 3654.16 3307.11 3655.4L3352.06 3662.51C3359.66 3663.75 3364.55 3670.86 3362.88 3678.41L3336.04 3799.14C3334.37 3806.68 3337.03 3817.69 3341.98 3823.63L3380.19 3869.65C3385.07 3875.58 3395.34 3881.64 3402.88 3883.13L3449.07 3892.16C3456.67 3893.64 3468.42 3891.91 3475.22 3888.26L3502.18 3873.85ZM3487.53 3658.37C3488.7 3665.97 3495.87 3673.21 3503.48 3674.39L3647.73 3696.9C3655.33 3698.14 3665.16 3693.87 3669.55 3687.56L3702.26 3640.37C3706.65 3634 3709.62 3622.55 3708.82 3614.89L3703.81 3567.08C3703 3559.41 3696.14 3551.98 3688.54 3550.62L3633.01 3540.42C3625.47 3539.06 3617.8 3544.07 3616.01 3551.55L3604.2 3601.34C3602.41 3608.89 3594.74 3614.14 3587.07 3613.15L3493.71 3600.78C3486.04 3599.73 3479.18 3592.62 3478.44 3584.95L3463.54 3431.31C3462.79 3423.65 3456.67 3420.43 3449.93 3424.14L3381.18 3462.24C3374.44 3466.01 3368.87 3475.35 3368.87 3483.08L3368.75 3563.67C3368.69 3571.4 3374.87 3578.89 3382.48 3580.31L3464.83 3595.84C3472.38 3597.26 3479.55 3604.68 3480.66 3612.29L3487.53 3658.37ZM3858.14 4012.15C3864.75 4008.13 3871.92 3998.79 3874.09 3991.37L3878.6 3976.34C3880.83 3968.91 3879.9 3957.16 3876.62 3950.17L3870.56 3937.25C3867.29 3930.26 3858.32 3923.83 3850.66 3922.9L3772.19 3913.56C3764.53 3912.63 3758.28 3905.58 3758.34 3897.85L3758.47 3877.75C3758.47 3870.02 3752.35 3862.53 3744.74 3861.11L3720.07 3856.47C3712.46 3855.05 3706.28 3860.18 3706.28 3867.91V3889.13C3706.28 3896.86 3700.04 3904.1 3692.43 3905.21L3609.15 3917.52C3601.54 3918.63 3591.83 3924.88 3587.69 3931.37L3576.19 3949.25C3571.99 3955.74 3574.09 3964.15 3580.77 3967.99L3659.29 4012.83C3665.97 4016.66 3671.47 4026.06 3671.47 4033.8V4136.16C3671.47 4143.89 3665.16 4150.2 3657.44 4150.2H3615.82C3608.1 4150.2 3605.37 4155.39 3609.7 4161.76L3645.5 4214.09C3649.89 4220.46 3659.72 4225.65 3667.45 4225.65H3709.19C3716.85 4225.65 3723.59 4219.35 3724.15 4211.68L3725.7 4189.66C3726.19 4181.99 3721.18 4172.52 3714.44 4168.75L3693.17 4156.69C3686.43 4152.92 3680.93 4143.52 3680.87 4135.79L3680.19 4039.11C3680.13 4031.38 3686.37 4025.63 3694.04 4026.31L3803.17 4035.96C3810.84 4036.64 3822.52 4033.92 3829.08 4029.9L3858.14 4012.15ZM4116.22 3986.36C4118.07 3978.87 4125.86 3972.75 4133.59 3972.75L4214.4 3972.63C4222.13 3972.63 4228.44 3978.93 4228.44 3986.67V4045.18C4228.44 4052.85 4233.75 4062.62 4240.25 4066.76L4290.89 4099.36C4297.38 4103.5 4307.83 4103.25 4314.07 4098.74L4343.75 4077.34C4350 4072.82 4351.54 4063.98 4347.15 4057.61L4327.24 4028.79C4322.85 4022.48 4313.64 4014.37 4306.78 4010.85L4272.21 3993.04C4265.35 3989.51 4258.49 3980.42 4257 3972.87L4232.7 3851.34C4231.16 3843.79 4236.23 3837.61 4243.96 3837.61H4369.6C4377.32 3837.61 4384.81 3831.42 4386.23 3823.81L4399.71 3751.95C4401.13 3744.34 4398.84 3732.9 4394.57 3726.46L4388.33 3717.06C4384.06 3710.63 4375.41 3708.9 4369.04 3713.29L4255.58 3791.1C4249.21 3795.43 4237.71 3799.01 4229.98 3799.01H4160.73C4153 3799.01 4142.62 3801.8 4137.67 3805.2C4132.72 3808.6 4128.64 3817.69 4128.64 3825.42V3881.34C4128.64 3889.07 4122.34 3895.38 4114.61 3895.38H4037.51C4029.84 3895.38 4024.21 3889.13 4025.02 3881.46L4031.01 3826.54C4031.88 3818.87 4026.38 3811.44 4018.77 3810.02L3951.44 3797.4C3943.83 3795.98 3937.65 3801.12 3937.65 3808.85V3810.33C3937.65 3818 3931.41 3823.38 3923.8 3822.14L3802.49 3802.91C3794.88 3801.67 3785.86 3794.99 3782.52 3788.07L3761.99 3745.82C3758.65 3738.89 3750.68 3736.79 3744.31 3741.12L3717.72 3759.37C3711.35 3763.76 3706.16 3773.59 3706.16 3781.32V3832.72C3706.16 3840.45 3712.34 3847.94 3719.95 3849.36L3744.62 3854C3752.22 3855.42 3762.24 3851.59 3766.94 3845.46L3785.8 3820.78C3790.43 3814.66 3800.51 3810.7 3808.12 3812L3855.35 3819.98C3862.96 3821.28 3869.2 3828.64 3869.2 3836.37V3904.59C3869.2 3912.32 3871.86 3924.38 3875.08 3931.37L3880.77 3943.74C3883.98 3950.79 3892.95 3957.04 3900.61 3957.66L4039.79 3969.22C4047.52 3969.9 4052.65 3976.58 4051.23 3984.19L4042.82 4029.65C4041.4 4037.26 4046.35 4041.77 4053.77 4039.67L4093.34 4028.6C4100.76 4026.56 4108.3 4018.7 4110.16 4011.22L4116.22 3986.36ZM4058.28 4394.57C4062.05 4401.31 4071.39 4406.87 4079.12 4406.87L4159.68 4407C4167.41 4407.06 4174.89 4400.88 4176.31 4393.27L4191.83 4310.88C4193.26 4303.34 4200.68 4296.16 4208.28 4295.05L4254.34 4288.18C4261.95 4287.01 4269.18 4279.83 4270.36 4272.23L4292.86 4127.93C4294.1 4120.32 4289.83 4110.49 4283.53 4106.1L4236.35 4073.38C4229.98 4068.99 4218.54 4066.02 4210.88 4066.82L4163.08 4071.83C4155.42 4072.64 4148 4079.5 4146.64 4087.11L4136.43 4142.65C4135.07 4150.2 4140.08 4157.87 4147.56 4159.66L4197.34 4171.47C4204.88 4173.27 4210.14 4180.94 4209.15 4188.61L4196.78 4282C4195.73 4289.67 4188.62 4296.53 4180.95 4297.28L4027.37 4312.18C4019.7 4312.92 4016.48 4319.05 4020.19 4325.79L4058.28 4394.57ZM4488 4326.59C4489.48 4318.99 4487.75 4307.23 4484.1 4300.43L4469.7 4273.46C4466.11 4266.66 4456.84 4260.48 4449.17 4259.73L4296.82 4244.7C4289.15 4243.96 4281.86 4249.59 4280.68 4257.2L4265.66 4352.57C4264.48 4360.18 4257.25 4367.23 4249.58 4368.16L4201.23 4374.16C4193.56 4375.08 4186.21 4382.07 4184.85 4389.68L4178.42 4425.68C4177.06 4433.28 4181.38 4442.69 4188.06 4446.58L4237.03 4475.34C4243.71 4479.24 4250.08 4476.21 4251.31 4468.6L4258.42 4423.64C4259.66 4416.03 4266.77 4411.14 4274.31 4412.81L4395.01 4439.65C4402.55 4441.32 4413.56 4438.67 4419.49 4433.72L4465.49 4395.49C4471.43 4390.61 4477.49 4380.34 4478.97 4372.8L4488 4326.59Z" fill="black"/>
</svg>
