<svg xmlns="http://www.w3.org/2000/svg" width="24" height="24" fill="none" viewBox="0 0 24 24"><path fill="currentcolor" fill-rule="evenodd" d="M14.5 6V2.192A15.288 15.288 0 0 0 12 2c-2.867 0-4.748.329-5.83.61C5.435 2.8 5 3.478 5 4.235v15.528c0 .758.436 1.437 1.17 1.627 1.081.28 2.962.61 5.83.61s4.748-.329 5.83-.61c.734-.19 1.17-.869 1.17-1.626V7.072a.878.878 0 0 0-.012-.143c-.024-.143-.05-.287-.08-.429H15a.5.5 0 0 1-.5-.5Zm1-.5V2.403c.16.042.313.086.458.131 1.392.437 2.217 1.602 2.679 2.966H15.5Zm-5.1 3.702c0-.455.168-.909.598-1.055A3.103 3.103 0 0 1 12 8c.431 0 .76.065 1.002.147.43.146.598.6.598 1.055V11.4h2.198c.455 0 .909.168 1.055.598.082.243.147.57.147 1.002 0 .431-.064.759-.147 1.002-.146.43-.6.598-1.055.598H13.6v2.198c0 .455-.168.909-.598 1.055-.243.082-.57.147-1.002.147-.43 0-.758-.064-1.002-.147-.43-.146-.598-.6-.598-1.055V14.6H8.202c-.455 0-.909-.168-1.055-.598A3.103 3.103 0 0 1 7 13c0-.431.065-.759.147-1.002.146-.43.6-.598 1.055-.598H10.4V9.202Z" clip-rule="evenodd"/></svg>