<svg viewBox="0 0 24 24" fill="none" xmlns="http://www.w3.org/2000/svg"><path fill-rule="evenodd" clip-rule="evenodd" d="M17.4152 15.6407c0-.8294-.2264-1.6114-.6254-2.2968-2.1035-.1157-3.8967-.3306-4.7898-1.6704-.8935 1.3398-2.6863 1.5547-4.7898 1.6704-.3992.6856-.6257 1.4674-.6257 2.2968 0 2.7169 2.4247 4.9199 5.4155 4.9199 2.9908 0 5.4152-2.2032 5.4152-4.9199Zm-1.9817-9.4932c0-.2747-.0391-.541-.1124-.7948a4.501 4.501 0 0 1-.2923.0097c-1.3272 0-2.476-.591-3.0288-1.4505-.5531.8597-1.7016 1.4505-3.029 1.4505a4.5006 4.5006 0 0 1-.2921-.0097 2.8518 2.8518 0 0 0-.1127.7948C8.5662 7.8705 9.2073 10 12 10c2.5 0 3.4335-2.1295 3.4335-3.8525ZM19 15.6405c0-.2223-.0129-.4418-.0373-.6584-.1087-1.3623-.4457-2.7249-1.1812-4.0873-.8486-1.5716-1.1665-3.145-1.2167-4.718l.0002-.0295C16.565 3.857 14.5211 2 11.9998 2 9.4786 2 7.4345 3.857 7.4345 6.1475c-.046 1.5825-.3632 3.1655-1.218 4.7473-.7464 1.3814-1.0817 2.7641-1.1854 4.1457a5.8786 5.8786 0 0 0-.0311.6C5 19.1529 8.1339 22 12 22s7-2.8473 7-6.3595ZM14 6.5a.5.5 0 1 1-1 0 .5.5 0 0 1 1 0Zm-3.5.5a.5.5 0 1 0 0-1 .5.5 0 0 0 0 1Zm.7 1a.2.2 0 0 0-.2.2.8.8 0 0 0 .8.8h.4a.8.8 0 0 0 .8-.8.2.2 0 0 0-.2-.2h-1.6Z" fill="currentcolor"/></svg>