<svg xmlns="http://www.w3.org/2000/svg" width="24" height="24" fill="none" viewBox="0 0 24 24"><path fill="currentcolor" d="M21.901 15.5s.206-1.946.023-3.496c-.188-1.596-.993-4.498-.993-4.498-.496-2-2.085-3.24-4.268-2.97a3.943 3.943 0 0 0-2.575 1.445H9.984A3.943 3.943 0 0 0 7.41 4.537c-2.183-.27-3.859.97-4.356 2.969 0 0-.73 2.082-.993 4.498-.148 1.357.023 3.497.023 3.497.098 1.308 1.135 3.745 3.056 3.97 1.702.226 3.317-.902 3.754-2.662l.524-2.075h5.107l.524 2.075c.437 1.715 2.052 2.843 3.754 2.662 2.13-.47 3.1-2.97 3.1-3.97ZM6.448 8.779c-.61 0-1.135-.496-1.135-1.173s.48-1.173 1.135-1.173 1.135.496 1.135 1.173-.48 1.173-1.135 1.173ZM17.231 5.89c.436 0 .785.361.785.813 0 .45-.349.812-.785.812a.796.796 0 0 1-.786-.812c0-.452.349-.813.786-.813Zm-1.528 3.25a.796.796 0 0 1-.786-.813c0-.451.35-.812.786-.812.436 0 .785.36.785.812.044.451-.305.812-.785.812Zm1.528 1.578a.796.796 0 0 1-.786-.812c0-.451.349-.812.786-.812.436 0 .785.36.785.812.044.451-.349.812-.785.812Zm1.527-1.579a.796.796 0 0 1-.785-.812c0-.451.349-.812.785-.812.437 0 .786.36.786.812.044.451-.35.812-.786.812Z"/></svg>