<svg viewBox="0 0 24 24" fill="none" xmlns="http://www.w3.org/2000/svg"><path fill-rule="evenodd" clip-rule="evenodd" d="m20 9.4417.0074-.0042C20.6782 9.7906 21.3651 10 22 10a.5.5 0 0 0 0-1c-.8983 0-2.1522-.6443-3.211-1.725-.9172-.936-1.599-2.1106-1.7551-3.2765-.0367-.2737-.2578-.4985-.5339-.4985H16v-.335C16 2.557 15.6079 2 15 2l-.0184.0002L14.9704 2a.3692.3692 0 0 0-.0472.003c-.564.0448-.9232.58-.9232 1.162v.4128h-.363a.3705.3705 0 0 0-.3703.3704v2.2814a1.2669 1.2669 0 0 1-2.1624.8957 1.2669 1.2669 0 0 1-.371-.8957V3.9482a.3705.3705 0 0 0-.3703-.3704H10V3.165c0-.5885-.3674-1.1294-.9425-1.1633A.373.373 0 0 0 9.0222 2l-.0084.0001L9 2c-.608 0-1 .557-1 1.165V3.5h-.5c-.2761 0-.4972.2248-.5339.4985-.1561 1.1659-.8379 2.3405-1.755 3.2766C4.1521 8.3557 2.8982 9 2 9a.5.5 0 0 0 0 1c.6372 0 1.3269-.211 2-.5664V15H2.5a.498.498 0 0 0-.209.0456.3705.3705 0 0 0-.2885.4045A.5.5 0 0 0 2.5 16h10.7667v.5185H2.3704A.3702.3702 0 0 0 2 16.8889l-.0001.6111H2a.5.5 0 0 0 .5.5h4.8407v3.6296A.3702.3702 0 0 0 7.7111 22h2.6519a.3704.3704 0 0 0 .3703-.3704V18h2.5334v3.6296A.3703.3703 0 0 0 13.637 22h2.6519a.3704.3704 0 0 0 .3704-.3704V18H21.5a.5.5 0 0 0 .5-.5v-.6407a.37.37 0 0 0-.1085-.2619.37.37 0 0 0-.2619-.1085h-4.9703V16H21.5a.5.5 0 0 0 .4957-.5659.37.37 0 0 0-.1042-.3182.37.37 0 0 0-.2619-.1085h-.0434A.4997.4997 0 0 0 21.5 15H20V9.4417ZM18.7852 15V8.7778a9.901 9.901 0 0 1-1.2756-1.44c-.3297-.4117-.6251-.8598-.8652-1.3328v8.9876L17.7149 15h1.0703Zm-5.5333 0v-3.1556a1.2667 1.2667 0 0 0-2.5334 0v3.1482L11.9853 15h1.2666Zm-5.9112 0V6.034c-.309.602-.7073 1.1631-1.1517 1.6594A9.897 9.897 0 0 1 5.1852 8.763L5.2 15h2.1407ZM8 3.5v.0778h-.0007A4.581 4.581 0 0 0 8 3.5Zm8 0c0 .0383.0005.0766.0014.1148H16V3.5Z" fill="currentcolor"/></svg>