<svg viewBox="0 0 6122 4926" fill="none"
  xmlns="http://www.w3.org/2000/svg">
  <path fill-rule="evenodd" clip-rule="evenodd" d="M485.298 44.2869C505.867 -51.5022 639.078 32.9184 692.165 66.561C696.711 69.4418 700.669 71.9504 703.919 73.9415C743.919 98.4564 783.993 123.642 824.23 148.929L824.231 148.93L824.232 148.93C942.657 223.356 1062.49 298.665 1185.95 360.357C1295.09 414.896 1581.32 596.348 1405.98 734.659C1256.8 852.37 989.279 846.101 797.315 800.575C303.641 683.51 385.051 398.7 458.888 140.383L458.888 140.383L458.889 140.38L458.891 140.372L458.893 140.364C468.205 107.787 477.396 75.6315 485.298 44.2869ZM5051.86 1815.4C5365.65 1705.79 5559.02 1352.32 5587.45 1034.05V1034.03C5601.77 817.08 5547.16 615.196 5442.9 431.929C5355.87 279.012 5196.9 54.8824 4995.04 50.6611C4855.31 47.7505 4866.37 344.813 4870.91 467.005C4871.41 480.384 4871.83 491.667 4871.97 500.229C4873.73 611.525 4879.01 725.077 4884.27 838.091L4884.27 838.14C4888.05 919.436 4891.82 1000.45 4894.25 1080.15C4895.46 1119.43 4896.36 1159.13 4897.25 1199.05C4900.19 1329.41 4903.18 1462.12 4917.3 1590.46C4918.1 1597.7 4918.85 1606.1 4919.67 1615.32C4927.24 1699.96 4941.01 1854.11 5051.86 1815.4ZM2583.9 1712.38C2537.99 1716.89 2303.07 1736.9 2262.55 1738.91C2150.15 1744.46 2035.35 1736.63 1928.01 1729.31C1921.14 1728.84 1914.3 1728.37 1907.5 1727.91C1688.26 1713.05 1944.22 1473.98 1999.67 1422.44C2007.25 1415.39 2014.44 1408.51 2021.4 1401.84C2113.84 1313.32 2166.25 1263.14 2581.09 1367.98C2655.3 1386.74 2674.32 1427.65 2696.71 1493.31C2721.81 1566.85 2691.03 1701.84 2583.9 1712.38ZM1353.49 3618.23C1386.54 3689.6 1430.54 3779.19 1442.55 3803.64C1443.45 3805.46 1444.17 3806.93 1444.69 3807.99C1445.11 3808.85 1445.4 3809.45 1445.56 3809.77C1497.56 3917.24 1546.07 4027.23 1569.26 4141.67C1612.26 4353.68 1602.59 4588.58 1536.68 4796.65C1486.88 4953.78 1339.96 4950.39 1217.29 4877.12C1083.48 4797.24 970.81 4678.37 874.797 4557.95C795.352 4458.33 723.843 4349.19 671.203 4234.35C609.931 4100.7 611.852 3965.24 683.466 3841.94C718.524 3781.57 878.617 3597.75 959.265 3517.15C1051.37 3425.15 1283.23 3466.41 1353.49 3618.21V3618.23ZM3344.4 1448.29C3357.47 1542.28 3356.18 1601.02 3279 1608.28C3245.25 1611.47 3109.17 1619.13 3071.6 1612.52C2896.15 1581.65 2698.28 1135.99 2621.38 962.775C2609 934.874 2599.75 914.042 2594.24 903.152C2548.71 813.196 2777.65 812.014 2844.92 852.286C2935.87 906.74 3021.43 975.695 3090.75 1044.02C3198.18 1149.89 3319.63 1290.82 3344.4 1448.27V1448.29ZM2970.97 1869.81C2958.37 1848.3 2933.9 1810.69 2894.2 1790.13H2894.22C2806.8 1745.62 2713.11 1727.93 2581.87 1737.37C2503.48 1743 2354.93 1756.23 2257 1765.33C2182.79 1772.23 2093.55 1789.75 2093.55 1845.7C2093.55 1859.19 2093.48 1871.87 2093.42 1883.19L2093.42 1883.27C2093.31 1903.85 2093.22 1919.96 2093.61 1928.4C2098.06 2024.6 2156.83 2043.78 2401.67 2123.7L2401.68 2123.7C2468.24 2145.42 2548.56 2171.64 2645.27 2205.11C2730.42 2234.57 2811.09 2221.23 2856.21 2187.76C2869.5 2177.91 2883.55 2168.22 2897.67 2158.48L2897.68 2158.48C2969.31 2109.1 3042.79 2058.44 3027.79 1978.51C3024.66 1961.83 2979.81 1884.94 2970.97 1869.81ZM3306.81 1221.82C3301.25 1216.3 3295.68 1210.78 3290.09 1205.26C3192.69 1108.82 3093.62 1010.73 3027.74 896.039C2976.83 807.392 2961.74 708.55 2970.12 607.007C2988.4 386.001 3510.79 779.595 3562.81 828.752C3661.3 921.81 3756.49 1030.34 3825.78 1145.75C3877.24 1231.44 3943.98 1375.71 3886.82 1476.87C3828.65 1579.81 3726.62 1553.97 3640.13 1501.31C3526.92 1432.4 3429.39 1339.06 3333.66 1247.45L3333.66 1247.45L3333.43 1247.23L3332.91 1246.74L3332.86 1246.69C3324.16 1238.37 3315.48 1230.05 3306.79 1221.78L3306.81 1221.82ZM169.88 3908.28C174.226 3908.25 178.399 3908.23 182.356 3908.23H182.377C312.668 3901.33 441.269 3868.87 559.297 3819.82C709.596 3757.34 836.467 3642.21 905.676 3494.8C950.295 3399.76 984.403 3281.58 938.37 3177.76C909.686 3113.09 845.332 3068.64 774.414 3066.65C688.638 3064.25 602.945 3096.69 522.825 3146.84C517.274 3150.32 267.795 3312.35 262.307 3315.98C135.605 3399.86 10.4437 3688.83 0.35477 3816.21C-7.02212 3909.27 102.345 3908.66 169.88 3908.28ZM2137.05 2369.84C2119.83 2292.72 2216.09 2243.16 2273.86 2223.93C2395.54 2183.49 2528.49 2196.26 2654.79 2241.3C2728.71 2267.67 2842.18 2311.76 2863.18 2399.35C2882.24 2478.84 2863.11 2568.73 2796.33 2614.19C2768.39 2633.21 2637.4 2669.11 2614.04 2669.03C2512.85 2668.63 2408.75 2623.99 2321.12 2566.45C2239.61 2512.94 2176.5 2461.34 2137.05 2369.84ZM3080.89 2764.6C3013.79 2816.39 3102.1 2957.59 3140.37 3008.17H3140.35C3184.82 3068.21 3241.64 3118.87 3303.82 3159.23C3312.35 3164.77 3320.99 3170.43 3329.72 3176.15C3401.24 3223.02 3478.92 3273.93 3555.32 3294.56C3608.43 3308.89 3674.43 3285.7 3725.63 3264.59C3804.06 3232.25 3792.07 3163.55 3751.32 3107.26C3718.79 3062.37 3683.12 3013.42 3647.6 2974.18C3576.72 2895.9 3430.27 2742.31 3154.13 2742.31C3126.5 2742.31 3100.96 2749.1 3080.89 2764.6ZM3424.31 2488.12C3347.55 2651.78 3104.85 2800.56 2997.71 2704.61C2992.6 2700.03 2983.62 2692.84 2972.99 2684.32L2972.98 2684.31C2946.42 2663.03 2909.58 2633.51 2897.33 2616.13C2792.03 2467 3174.6 2136 3380.94 2062.93C3449.37 2038.7 3579.38 2164.24 3570.07 2242.04C3564.53 2288.49 3545.88 2310.46 3519.03 2342.07C3493.46 2372.18 3460.47 2411.04 3424.29 2488.14L3424.31 2488.12ZM4037.35 2599.92C4140.08 2629.56 4273.62 2583.44 4342.68 2510.62H4342.66C4900.63 1922.24 4612.59 1280.11 4412.79 1665.05C4341.67 1802.1 4254.07 1937.64 4163.21 2065.51C4150.35 2083.6 4136.77 2101.92 4122.98 2120.53C4059.88 2205.64 3992.46 2296.59 3970.34 2398.12C3954.95 2468.77 3949.99 2574.7 4037.35 2599.92ZM4229.17 3927.73C4150.25 4034.28 4001.24 4037.02 3887.31 4015.33C3742.18 3987.68 3612.22 3891.81 3502.79 3791.26C3377.1 3675.76 3414.86 3443.17 3559.86 3363.37C3639.11 3319.76 3728.18 3292.53 3814.7 3272.93C3903.2 3252.85 4019.33 3240.17 4104.01 3285.7C4327.12 3405.64 4362.58 3727.71 4229.17 3927.73ZM3640.21 1604.16C3516.32 1690.11 3444.66 1797.6 3479.06 1955.31L3479.04 1955.29C3512.14 2160.89 3697.03 2253.74 3877.62 2147C4005.19 2071.61 4037.58 1881.69 3973.69 1755.45C3919.77 1648.89 3762.78 1519.15 3640.21 1604.16ZM3957.15 2803.56C3906.22 2863.97 3845.73 2897.61 3774.53 2903.84C3698.72 2910.46 3636.64 2894.55 3578.79 2860.29C3448.97 2783.4 3430.33 2614.83 3466.12 2485.61C3513.87 2313.23 3681.47 2312.5 3793.97 2384.32C3913.44 2460.6 4068.69 2671.24 3957.13 2803.56H3957.15ZM4029.31 2854.57C3968.33 2854.57 3891.04 2884.76 3825.89 2953.61C3777.61 3004.62 3782.79 3090.25 3826.96 3139.28C3909.3 3230.67 4042.23 3240.87 4150.99 3237.59C4270.07 3233.98 4456.5 3227 4558.77 3153.34C4723.21 3034.87 4520.03 2975.6 4418.28 2945.92C4405.77 2942.27 4394.79 2939.07 4386.22 2936.26L4384.72 2935.76C4298.94 2907.67 4136.87 2854.57 4029.31 2854.57ZM2320.76 630.52C2181.56 530.074 1983.14 388.09 1798.8 395.246V395.267C1726.09 398.085 1589.73 566.031 1518.62 653.62C1503.44 672.311 1491.24 687.343 1483.25 696.33C1480.98 698.893 1478.65 701.493 1476.3 704.127C1429.28 756.723 1369.95 823.099 1416.2 894.815C1483.97 999.907 1623.27 1041.1 1759.96 1081.52L1759.96 1081.52C1782.03 1088.04 1804.02 1094.55 1825.64 1101.3C1903.94 1125.75 1982.34 1150.65 2060.99 1175.64L2061 1175.64C2224.56 1227.59 2389.23 1279.9 2556.39 1329.19C2687.65 1367.87 2682.78 1275.83 2666.78 1192.35C2624 969.194 2515.95 771.363 2320.76 630.52ZM3378.96 2003.12C3301.05 2087.63 3096.28 2029.2 3057.95 1978.49C3045.3 1961.75 2983.29 1860.23 2974.62 1843.87C2912.27 1726.62 3014.3 1649.08 3089.88 1640.13C3109 1637.87 3195.2 1637.45 3218.72 1637.38C3390.54 1636.98 3474.21 1899.8 3378.96 2003.1V2003.12ZM2985.32 2738.47C2912.27 2638.21 2819 2634.79 2698.1 2684.71V2684.69C2634.02 2711.16 2602.89 2730.85 2605.09 2779.39C2606.54 2811.58 2658.78 2967.07 2776.34 3033.6C2839.07 3069.12 3022.72 3132.67 3051.02 3017.58C3072.93 2928.53 3040.58 2814.35 2985.32 2738.47ZM4402.9 4611.69C4399.31 4686.93 4321.19 4685.16 4267.41 4666.59C4146.64 4624.86 4030.22 4545.27 3932.85 4467.57C3850.83 4402.12 3647.41 4205.18 3796.72 4097.24C3897.16 4024.61 4080.92 4036.58 4172.14 4109.76C4256.37 4177.34 4323.49 4267.59 4360.32 4371.92C4386.92 4447.25 4409.04 4529.04 4402.87 4611.67L4402.9 4611.69ZM2094.46 2702.14C2000.17 2775 2005.68 2919.77 2049.23 3024.48V3024.5C2072.38 3093.29 2130.19 3107.13 2189.92 3121.42C2288 3144.87 2407.53 3138.77 2494.04 3091.43C2575.73 3046.73 2636.66 2998.82 2605.93 2896.51C2601.58 2881.99 2579.13 2820.4 2573 2806.49C2532.71 2715.02 2454.96 2640.6 2349.99 2635.55C2254 2630.95 2167.23 2645.87 2094.46 2702.14ZM5003.44 4541.45C4888.05 4558.82 4784.46 4549.62 4677.36 4510.82C4562.97 4469.35 4448.91 4388.57 4380.35 4287.62C4302.03 4172.27 4284.49 4046.63 4314.94 3908.27C4339.32 3797.53 4464.29 3737.18 4559.42 3697.84C4747.94 3619.9 4954.62 3583.95 5153.78 3551.62C5303.53 3527.3 6176.64 3385.74 6118.49 3720.28C6075.94 3965.18 5839.7 4149.94 5645.92 4273.65C5451.68 4397.65 5233.31 4492.61 5003.44 4541.45ZM24.2051 3012.7C24.2051 3163.57 137.019 3307.75 260.155 3264.38C302.477 3239.21 345.544 3214.37 387.78 3190.01L387.786 3190.01C504.281 3122.82 614.455 3059.28 685.26 3002.57C826.167 2889.74 921.632 2741.49 971.232 2564.95C993.31 2486.41 936.406 2439.3 860.761 2446.65C718.967 2460.41 269.674 2525.1 173.449 2620.76C79.7574 2713.9 24.2051 2808.22 24.2051 3012.7ZM4326.55 1225.6C4403.49 1339.91 4400.28 1509.56 4368.13 1634.11C4338.75 1747.96 4279.55 1863.75 4178.15 1935.91C4074.32 2009.82 4033.8 1843.14 4018.54 1780.37L4018.38 1779.71C4011.81 1752.71 4004.57 1725.1 3997.22 1697.1L3997.22 1697.09L3997.22 1697.09C3966.38 1579.5 3933.75 1455.13 3941.95 1340.88C3948.22 1253.67 3975.53 1125.97 4079.61 1097.78C4178.47 1070.99 4275.54 1148.22 4326.53 1225.6H4326.55ZM1977.36 2938.73C1974.4 2964.26 1971.42 2989.97 1969.95 3015.93V3015.91C1965.26 3098.88 1899.37 3156.19 1831.98 3180.46C1744.03 3212.14 1656.77 3241.33 1556.49 3273.85C1499.44 3292.34 1437.01 3236.18 1452.65 3166.87C1497.99 2965.83 1571.06 2701.91 1672.41 2525.63C1733.69 2419.08 1772.17 2406.47 1909.47 2361.49L1909.5 2361.48C1922.25 2357.31 1935.84 2352.85 1950.38 2348.02C1985.4 2336.39 2092.47 2321.34 2104.46 2395.21C2117.74 2477.04 2091.75 2543.02 2059.44 2625.06C2029.45 2701.22 1994.01 2791.21 1979.45 2920.57C1978.77 2926.62 1978.07 2932.67 1977.36 2938.73ZM1392.75 3480.76C1387.85 3547.08 1391.38 3611.92 1410.42 3670.3C1445.03 3776.46 1511.96 3926.51 1636.55 3946.67C1758.48 3966.38 1825.5 3831.72 1865.94 3739.84C1914.88 3612.4 1947.26 3476.08 1948.04 3336.98C1948.27 3295.85 1933.77 3184.85 1824.38 3220.56C1719.16 3254.9 1576.52 3303.76 1504.04 3329.96C1427.13 3357.75 1395.68 3441.42 1392.77 3480.78L1392.75 3480.76ZM1048.65 3312.16C991.368 3249.24 872.707 3019.44 913.548 2819.47C919.859 2788.57 951.076 2714.91 965.998 2686C999.853 2620.4 1051.69 2653.16 1100.36 2725.3C1156.09 2807.87 1213.78 2903.7 1254.83 2971.88L1254.86 2971.93C1267.27 2992.54 1278.15 3010.62 1287.01 3025.05C1369.36 3159.23 1281.73 3280 1185.44 3326.56C1122.88 3356.8 1067.75 3333.14 1048.65 3312.16ZM1283.23 2318.68C1203.4 2348.12 1133.12 2377.76 1085.21 2434.89C1052.13 2474.32 1031.77 2557.25 1081.62 2634.77C1124.56 2701.55 1174.65 2783.33 1224.66 2864.97L1224.67 2864.99L1224.67 2864.99L1224.68 2864.99L1224.68 2864.99L1224.68 2865L1224.68 2865L1224.68 2865L1224.68 2865L1224.68 2865L1224.69 2865.01C1260.67 2923.75 1296.61 2982.43 1329.81 3035.39C1377.32 3111.19 1424.68 3134.7 1450.16 3046.43C1455.28 3028.71 1460.37 3010.77 1465.5 2992.69C1479.1 2944.76 1492.99 2895.81 1508.44 2847.06C1513.84 2830 1521.34 2808.78 1529.86 2784.67C1604.09 2574.62 1756.17 2144.29 1283.25 2318.68H1283.23ZM447.074 2316.72C499.629 2115.64 734.46 1982.26 986.619 1895.41C1036.35 1878.27 1133.6 1865.92 1112.35 1947.14C1087.51 2042.06 1057.39 2182.56 1050.93 2248.63C1045.17 2307.39 1008.08 2368.11 870.027 2400.34C765.94 2424.64 659.928 2438.38 552.817 2452.27C528.633 2455.41 504.393 2458.55 480.105 2461.82C410.053 2471.28 425.25 2400.21 447.074 2316.72ZM2063.94 1849.69C2063.94 1751.78 1853.93 1753.56 1737.31 1754.55C1724.21 1754.67 1712.29 1754.77 1701.98 1754.72C1624.67 1754.34 1546.79 1763.73 1472.09 1776.27C1407.9 1787.03 1205.85 1821.54 1153.99 1951.11C1126.96 2018.63 1087.55 2163.04 1093.02 2235.56C1095.13 2263.68 1145.66 2330.1 1258.43 2293.16C1353.32 2262.1 1452.03 2235.97 1546.49 2210.97C1823.33 2137.7 2063.56 2074.11 2063.56 1924.26C2063.56 1922.7 2063.59 1916.92 2063.64 1909.03V1909.01C2063.75 1892.03 2063.92 1865.28 2063.92 1849.69H2063.94ZM1835.56 2350.62C1870.95 2336.68 1911.42 2320.72 1937.89 2313.72V2313.74C2091.54 2273.05 2058.98 2202.89 2006.67 2163.48C1981.6 2144.59 1887.19 2144.66 1830.35 2163.4C1812.33 2169.34 1794.69 2175.59 1778.07 2181.47L1778.05 2181.48C1762.92 2186.83 1748.62 2191.89 1735.65 2196.16C1618.61 2234.57 1602.74 2277.48 1618.32 2324.93C1633.89 2372.35 1662.07 2410.41 1779.1 2372C1792.58 2367.57 1813.02 2359.51 1835.52 2350.64L1835.56 2350.63L1835.56 2350.62ZM1005.59 881.18C906.098 854.227 808.586 829.744 721.986 811.276C248.694 710.302 153.947 982.154 233.202 1186.13C417.103 1659.33 693.64 1814.61 979.865 1814.61C1145.36 1814.61 1167.31 1688.63 1172.72 1620.41C1179.38 1536.2 1198.26 1368.14 1214.76 1221.26L1214.76 1221.24L1214.76 1221.24L1214.76 1221.22L1214.77 1221.21L1214.78 1221.05C1218.29 1189.88 1221.68 1159.66 1224.83 1131.4C1242.11 976.328 1086.05 902.983 1005.57 881.201L1005.59 881.18ZM1679.72 1083.94C1687.35 1086.39 1694.33 1088.63 1700.63 1090.64V1090.62C2108.01 1220.99 2000.41 1371.61 1951.54 1406.16C1811.12 1505.49 1607.74 1637.97 1387.54 1728.1C1246.19 1785.95 1217.29 1712.9 1227.3 1614.88C1243.23 1458.93 1266.64 1237.8 1281.01 1139.04C1303.24 986.481 1448.91 1010.88 1511.77 1030.57C1581.25 1052.36 1639.33 1070.99 1679.55 1083.88L1679.69 1083.93L1679.72 1083.94ZM4665.78 2240.31C4611.9 2286.98 4561.27 2337.05 4510.86 2386.89C4483.03 2414.41 4455.27 2441.86 4427.06 2468.64C4357.41 2534.79 4134.21 2788.66 4335.82 2868.27C4556.97 2955.59 4672.32 2873.11 4742.16 2807.87C4810.71 2743.81 4868.63 2669.03 4858.29 2556.53C4851.81 2486.06 4834.31 2405.97 4823.54 2356.74C4822.07 2349.98 4820.71 2343.8 4819.54 2338.31C4810 2293.73 4770.8 2149.3 4665.73 2240.31H4665.78ZM4861.36 2350.05C4843.06 2255.19 4812.61 2097.33 4951.2 1979.1L4951.18 1979.08C5049.66 1895.07 5513.08 1521.38 5501.74 1887.09C5495.92 2074.86 5306.08 2270.4 5174.48 2405.95C5162.47 2418.32 5150.94 2430.2 5140.08 2441.52C5086.58 2497.33 4911.25 2609.04 4862 2353.4L4861.36 2350.05ZM2561.08 4551.52C2510.55 4347.25 2449.19 4147.88 2382.96 3949.33C2337.1 3811.86 2269.66 3740.96 2177.19 3755.5C2117.78 3764.83 2051.55 3776.08 2006.21 3787.4C1922.1 3808.4 1792.4 3900.04 1839.09 4005.53C1914.18 4175.18 2096.88 4373.24 2248.74 4537.87L2248.74 4537.88L2248.76 4537.9L2248.77 4537.91C2293.3 4586.18 2335.18 4631.58 2370.91 4672.54C2374.33 4676.47 2378.35 4681.22 2382.86 4686.57L2382.94 4686.67L2383.11 4686.87L2383.11 4686.87C2421.63 4732.54 2496.14 4820.88 2552.21 4807.9C2626.98 4790.59 2584.88 4638.18 2566.59 4571.94C2564.29 4563.63 2562.37 4556.68 2561.1 4551.52H2561.08ZM2316.66 3548.81L2316.65 3548.83C2314.74 3570.28 2312.83 3591.73 2311.45 3612.91V3612.93C2309.49 3643.07 2294.91 3705 2237.28 3713.12C2174.22 3722.03 2073.73 3739.06 1986.01 3754.89C1955.79 3760.34 1916.28 3720.45 1935.48 3642.9C1946.23 3599.56 1955.95 3547.82 1966.02 3494.27L1966.02 3494.26L1966.02 3494.25C1994.51 3342.68 2025.73 3176.59 2090.53 3145.15C2189.25 3097.21 2287.16 3255.09 2308.84 3319.55C2331.19 3385.99 2323.92 3467.39 2316.66 3548.81ZM2421.29 3477.64C2419.63 3482.1 2417.96 3486.55 2416.31 3490.98C2372.09 3609.25 2333 3713.78 2392.27 3852.57C2441.23 3967.21 2635.39 4104.01 2763.64 4194.37C2784.05 4208.76 2802.8 4221.96 2819.02 4233.71C2876.45 4275.34 2960.35 4321.31 3030.7 4271.26C3084.39 4232.41 3118.18 4195.2 3143.47 4152.64C3163.14 4119.57 3162.8 4010.18 3079.83 3925.52C3038.45 3883.28 2988.52 3832.3 2935.95 3778.63L2935.65 3778.32C2809.48 3649.48 2668.21 3505.24 2593.52 3429.28C2481.89 3315.75 2440.92 3424.96 2421.29 3477.64ZM3140.22 3281.62C3294.85 3391.38 3348.25 3512.38 3401.75 3680.83V3680.81C3440.59 3803.11 3376.5 3850.74 3308.41 3901.35C3294.71 3911.53 3280.85 3921.83 3267.64 3932.88C3242.02 3954.33 3174.37 3980.08 3127.49 3932.15C2984.92 3786.34 2681.74 3476.39 2560.13 3353.26C2497.84 3290.19 2483.47 3227.91 2489.11 3205.57C2517.47 3093.33 2591.64 3028.55 2724.15 3050.76C2859.05 3073.38 2966.83 3153.5 3072.44 3232C3095.05 3248.81 3117.56 3265.54 3140.22 3281.62Z" fill="#0F69AF"/>
</svg>
