<svg viewBox="0 0 8000 8000" fill="none"
  xmlns="http://www.w3.org/2000/svg">
  <path fill-rule="evenodd" clip-rule="evenodd" d="M8000 0H0v8000h8000V0ZM4215.43 4031.78h-.05c-3.3 0-7.15-2.46-8.49-5.5l-51.93-116.66c-1.35-3-.05-6.8 2.86-8.37l68.33-36.85 57.66-31.11c2.9-1.57 7.69-1.57 10.64 0l125.95 67.92a6.65 6.65 0 0 1 2.86 8.36l-51.94 116.66a8.24 8.24 0 0 1-1.78 2.51c-1.8 1.8-4.41 3.04-6.76 3.04h-147.35Zm230.08 133.42a5.5 5.5 0 0 1-7.77-2.63l-52.16-117.07c-1.34-3.04-1.34-8 0-11.04l52.11-117.06a5.55 5.55 0 0 1 7.78-2.64l96.67 52.14c2.95 1.56 5.32 5.58 5.32 8.89v128.42c0 3.31-2.41 7.34-5.32 8.9l-96.63 52.09Zm-312.77-250.44a5.52 5.52 0 0 1 7.78 2.64l52.11 117.1c1.34 3.04 1.34 8.01 0 11.05l-52.11 117.06a5.55 5.55 0 0 1-7.78 2.64l-96.67-52.14c-2.95-1.56-5.32-5.59-5.32-8.9v-128.42c0-3.31 2.41-7.33 5.32-8.89l96.67-52.14Zm290.47 255.68a6.65 6.65 0 0 1-2.86 8.36l-125.9 67.92c-2.95 1.56-7.74 1.56-10.64 0l-125.95-67.92a6.64 6.64 0 0 1-2.86-8.36l51.94-116.66c1.34-3.04 5.18-5.5 8.49-5.5h147.35c3.31 0 7.16 2.46 8.5 5.5l51.93 116.66Zm-447.79-369.88c1.34 3.04 1.34 8 0 11.04l-33.03 74.18a5.55 5.55 0 0 1-7.78 2.64l-59.93-32.33c-2.95-1.56-5.32-5.59-5.32-8.9v-82.27c0-3.31 2.41-7.33 5.32-8.9l59.93-32.33a5.53 5.53 0 0 1 7.78 2.64l33.03 74.23Zm-17.48-89.39a6.64 6.64 0 0 0-2.86 8.36l32.85 73.87c1.34 3.04 5.19 5.5 8.49 5.5h92.83c3.31 0 7.16-2.46 8.5-5.5l32.89-73.87a6.65 6.65 0 0 0-2.86-8.36l-79.6-42.92c-2.95-1.57-7.73-1.57-10.64 0l-79.6 42.92Zm193.17 12.57a5.53 5.53 0 0 0-7.78 2.64l-33.02 74.18c-1.35 3.04-1.35 8 0 11.04l33.02 74.23a5.56 5.56 0 0 0 7.78 2.64l59.94-32.33c2.95-1.57 5.32-5.59 5.32-8.9v-82.28c0-3.3-2.42-7.33-5.32-8.89l-59.94-32.33Zm-23.33 177.29a6.63 6.63 0 0 0 2.86-8.36l-32.89-73.87c-1.34-3.04-5.19-5.5-8.5-5.5h-92.83c-3.3 0-7.15 2.46-8.49 5.5l-32.85 73.87c-1.34 3-.04 6.8 2.86 8.36l79.6 42.93c2.95 1.56 7.74 1.56 10.64 0l79.6-42.93ZM3738 3914.27a5.52 5.52 0 0 1 7.78 2.63l32.54 73.16c1.34 3.04 1.34 8 0 11.04l-32.54 73.11a5.55 5.55 0 0 1-7.78 2.64l-59-31.84c-2.95-1.56-5.31-5.59-5.31-8.9V3955c0-3.31 2.41-7.33 5.31-8.9l59-31.83Zm190.76 175.05a6.64 6.64 0 0 0 2.86-8.36l-32.36-72.7c-1.34-3.04-5.19-5.5-8.49-5.5h-91.4c-3.31 0-7.15 2.46-8.5 5.5l-32.4 72.75a6.66 6.66 0 0 0 2.86 8.36l78.4 42.25c2.95 1.57 7.73 1.57 10.63 0l78.4-42.3Zm-16.94-99.35c-1.34 3.04-1.34 8 0 11.04l32.54 73.16a5.53 5.53 0 0 0 7.77 2.63l59-31.83c2.95-1.57 5.32-5.59 5.32-8.9v-81.11c0-3.31-2.42-7.34-5.32-8.9l-59-31.84a5.52 5.52 0 0 0-7.77 2.64l-32.54 73.11Zm-61.41-130.61c-2.95-1.57-7.73-1.57-10.64 0l-78.39 42.3a6.63 6.63 0 0 0-2.86 8.36l32.35 72.75c1.35 3.04 5.19 5.5 8.5 5.5h91.44c3.31 0 7.15-2.46 8.49-5.5l32.36-72.75c1.34-3 .05-6.8-2.86-8.36l-78.39-42.3Zm-142.8 303.65c-1.07 2.51-4.2 4.52-6.93 4.52h-81.61c-2.68 0-5.81-2.06-6.93-4.52l-28.96-65.01a5.41 5.41 0 0 1 2.32-6.84l70.04-37.79a10.2 10.2 0 0 1 8.67 0l70.04 37.79a5.41 5.41 0 0 1 2.32 6.84l-28.96 65.01Zm10.77 6.17a12.58 12.58 0 0 0 0 9.04l29.05 65.32a4.52 4.52 0 0 0 6.35 2.15l52.92-28.53a9.16 9.16 0 0 0 4.33-7.29v-72.34c0-2.73-1.96-6-4.33-7.29l-52.92-28.53a4.52 4.52 0 0 0-6.35 2.15l-29.05 65.32Zm-117.1 9.04a12.58 12.58 0 0 0 0-9.04l-29.05-65.32a4.52 4.52 0 0 0-6.35-2.15l-52.92 28.53a9.19 9.19 0 0 0-4.33 7.29v72.34c0 2.73 1.97 6 4.33 7.29l52.92 28.53a4.52 4.52 0 0 0 6.35-2.15l29.05-65.32Zm132.97 78.02a5.41 5.41 0 0 0 2.32-6.84l-28.87-65.01c-1.07-2.51-4.2-4.52-6.93-4.52h-81.7c-2.68 0-5.81 2.06-6.93 4.52l-28.96 65.01a5.41 5.41 0 0 0 2.32 6.84l70.04 37.79a10.2 10.2 0 0 0 8.67 0l70.04-37.79Zm30.52 54.87c.85 1.92.85 5.1 0 7.02l-18.23 41.05a3.57 3.57 0 0 1-4.96 1.7l-32.45-17.53a7.16 7.16 0 0 1-3.4-5.68v-46.01c0-2.15 1.52-4.7 3.4-5.68l32.45-17.53a3.56 3.56 0 0 1 4.96 1.7l18.23 40.96Zm8.94-5.1a6.46 6.46 0 0 0 5.41 3.49h50.64c2.1 0 4.56-1.57 5.41-3.49l18.1-40.73a4.2 4.2 0 0 0-1.83-5.32l-43.63-23.52a8.04 8.04 0 0 0-6.75 0l-43.62 23.52a4.2 4.2 0 0 0-1.83 5.32l18.1 40.73Zm77.73 63.32a4.2 4.2 0 0 0 1.83-5.32l-18.06-40.74a6.46 6.46 0 0 0-5.41-3.49h-50.64a6.44 6.44 0 0 0-5.4 3.49l-18.15 40.74a4.2 4.2 0 0 0 1.83 5.32l43.62 23.52c1.84.98 4.88.98 6.75 0l43.63-23.52Zm-7.33-58.22a9.98 9.98 0 0 0 0 7.02l18.23 41.05a3.57 3.57 0 0 0 4.96 1.7l32.45-17.53a7.16 7.16 0 0 0 3.4-5.68v-46.01c0-2.15-1.52-4.7-3.4-5.68l-32.45-17.53a3.55 3.55 0 0 0-4.96 1.7l-18.23 40.96ZM3666 3925.62a3.54 3.54 0 0 1-4.96-1.69l-12.61-28.4a9.98 9.98 0 0 1 0-7.02l12.61-28.35a3.57 3.57 0 0 1 4.96-1.7l21.54 11.63a7.16 7.16 0 0 1 3.4 5.68v32.55a7.03 7.03 0 0 1-3.4 5.68l-21.54 11.62Zm-123.18-17.3a7.03 7.03 0 0 0 3.4 5.68l21.54 11.58c1.88.98 4.11.22 4.96-1.7l12.6-28.35c.85-1.92.85-5.1 0-7.02l-12.6-28.35a3.57 3.57 0 0 0-4.96-1.7l-21.54 11.63a7.16 7.16 0 0 0-3.4 5.68v32.55Zm40.76-58.35a4.2 4.2 0 0 0-1.83 5.32l12.51 28.12a6.44 6.44 0 0 0 5.41 3.49h34.37c2.1 0 4.56-1.56 5.41-3.49l12.51-28.12a4.2 4.2 0 0 0-1.83-5.32l-29.9-16.14a8.04 8.04 0 0 0-6.75 0l-29.9 16.14Zm66.55 84.15a4.2 4.2 0 0 0 1.83-5.32l-12.51-28.13a6.45 6.45 0 0 0-5.41-3.48h-34.37a6.45 6.45 0 0 0-5.41 3.48l-12.51 28.13a4.2 4.2 0 0 0 1.83 5.32l29.9 16.14c1.83.99 4.87.99 6.75 0l29.9-16.14Zm48.27-156.68c-2.68 0-5.81-2.06-6.93-4.52l-20.06-45.2a5.41 5.41 0 0 1 2.32-6.84l48.4-26.07c2.37-1.3 6.31-1.3 8.68 0l48.44 26.11a5.42 5.42 0 0 1 2.33 6.84l-20.11 45.16a8.17 8.17 0 0 1-6.93 4.52h-56.14Zm73.88 1.65a12.58 12.58 0 0 0 0 9.04l20.25 45.47a4.52 4.52 0 0 0 6.34 2.15l35.72-19.18a9.22 9.22 0 0 0 4.33-7.29v-51.25a9.18 9.18 0 0 0-4.33-7.28l-35.72-19.28a4.52 4.52 0 0 0-6.34 2.15l-20.25 45.47Zm-10.77 15.21c-1.07-2.51-4.2-4.52-6.93-4.52v-.04h-56.13c-2.69 0-5.81 2.05-6.93 4.51l-20.11 45.21a5.42 5.42 0 0 0 2.32 6.84l48.45 26.16c2.37 1.3 6.3 1.3 8.67 0l48.45-26.11a5.43 5.43 0 0 0 2.32-6.85l-20.11-45.2Zm-80.76-6.17a12.69 12.69 0 0 0 0-9.04l-20.25-45.51a4.52 4.52 0 0 0-6.35-2.15l-35.71 19.27a9.18 9.18 0 0 0-4.33 7.29v51.2a9.18 9.18 0 0 0 4.33 7.29l35.71 19.27a4.53 4.53 0 0 0 6.35-2.15l20.25-45.47Zm-101.19 289.79a4.53 4.53 0 0 1-6.35-2.14l-25.83-58.13a12.58 12.58 0 0 1 0-9.04l25.83-58.08a4.53 4.53 0 0 1 6.35-2.15l46.66 25.18a9.17 9.17 0 0 1 4.34 7.29v64.61a9.19 9.19 0 0 1-4.34 7.29l-46.66 25.17Zm-90.42 44.09c2.37 1.3 6.3 1.3 8.67 0l62.13-33.54a5.41 5.41 0 0 0 2.32-6.84l-25.7-57.77c-1.07-2.5-4.2-4.51-6.92-4.51h-72.36c-2.69 0-5.81 2.05-6.93 4.51l-25.7 57.77a5.41 5.41 0 0 0 2.32 6.84l62.17 33.54Zm-38.79-119.52c1.07 2.5 4.2 4.51 6.93 4.51v-.04h72.4c2.68 0 5.81-2.06 6.93-4.52l25.7-57.77a5.43 5.43 0 0 0-2.33-6.84l-62.17-33.53c-2.37-1.3-6.3-1.3-8.67 0l-62.17 33.53a5.42 5.42 0 0 0-2.32 6.84l25.7 57.82Zm-10.77 15.2a12.66 12.66 0 0 0 0-9.03l-25.84-58.13a4.52 4.52 0 0 0-6.34-2.15l-46.66 25.18a9.17 9.17 0 0 0-4.34 7.29v64.65c0 2.73 1.97 6 4.34 7.29l46.66 25.13a4.51 4.51 0 0 0 6.34-2.14l25.84-58.09Zm534.41 172.82a4.52 4.52 0 0 1 6.34 2.15l26.46 59.56a12.55 12.55 0 0 1 0 9.03l-26.46 59.47a4.51 4.51 0 0 1-6.34 2.15l-47.87-25.8a9.19 9.19 0 0 1-4.34-7.29v-66.18a9.19 9.19 0 0 1 4.34-7.29l47.87-25.8Zm227.45 33.09a9.19 9.19 0 0 0-4.34-7.29l-47.87-25.71a4.52 4.52 0 0 0-6.34 2.15l-26.46 59.47a12.55 12.55 0 0 0 0 9.03l26.46 59.47a4.52 4.52 0 0 0 6.34 2.15l47.87-25.8a9.19 9.19 0 0 0 4.34-7.29v-66.18Zm-71.78 109.78a5.43 5.43 0 0 0 2.32-6.85l-26.32-59.2a8.17 8.17 0 0 0-6.93-4.51h-74.19c-2.68 0-5.81 2.05-6.93 4.51l-26.33 59.2a5.45 5.45 0 0 0 2.33 6.85l63.69 34.34a10.2 10.2 0 0 0 8.67 0l63.69-34.34Zm-136.1-153.46a5.42 5.42 0 0 0-2.32 6.84l26.32 59.2a8.2 8.2 0 0 0 6.93 4.52h74.2c2.68 0 5.81-2.06 6.92-4.52l26.33-59.2a5.42 5.42 0 0 0-2.33-6.84l-63.69-34.34c-2.36-1.3-6.3-1.3-8.67 0l-63.69 34.34Zm182.85-530.01c1.07-2.5 4.2-4.51 6.93-4.51h66.01c2.68 0 5.81 2.05 6.93 4.51l23.55 52.9a5.41 5.41 0 0 1-2.32 6.84l-56.85 30.63a10.12 10.12 0 0 1-8.67 0l-56.81-30.63a5.43 5.43 0 0 1-2.33-6.84l23.56-52.9Zm-21.23-81.11a5.43 5.43 0 0 0-2.33 6.84l23.56 52.9c1.07 2.5 4.2 4.52 6.93 4.52h66.06c2.68 0 5.81-2.06 6.92-4.52l23.56-52.9a5.43 5.43 0 0 0-2.33-6.84l-56.89-30.63a10.2 10.2 0 0 0-8.67 0l-56.81 30.63Zm111.91 65.91a12.66 12.66 0 0 0 0 9.03l23.69 53.26a4.53 4.53 0 0 0 6.35 2.15l42.37-22.85a9.2 9.2 0 0 0 4.33-7.29v-59.47a9.18 9.18 0 0 0-4.33-7.29l-42.37-22.85a4.52 4.52 0 0 0-6.35 2.15l-23.69 53.16Zm-178.19 34.25a9.18 9.18 0 0 0 4.33 7.29l42.37 22.76a4.52 4.52 0 0 0 6.35-2.15l23.69-53.16a12.66 12.66 0 0 0 0-9.03l-23.69-53.17a4.53 4.53 0 0 0-6.35-2.15l-42.37 22.85a9.18 9.18 0 0 0-4.33 7.29v59.47Zm258.87 72.93a6.46 6.46 0 0 1-5.41 3.49h-28.02a6.46 6.46 0 0 1-5.41-3.49l-10.19-22.85a4.2 4.2 0 0 1 1.83-5.32l24.4-13.14a8.04 8.04 0 0 1 6.75 0l24.4 13.14a4.2 4.2 0 0 1 1.84 5.32l-10.19 22.85Zm0 15.92a6.46 6.46 0 0 0-5.41-3.49h-28.02a6.46 6.46 0 0 0-5.41 3.49l-10.19 22.85a4.2 4.2 0 0 0 1.83 5.32l24.4 13.15c1.84.98 4.87.98 6.75 0l24.4-13.15a4.2 4.2 0 0 0 1.84-5.32l-10.19-22.85Zm7.73-11.49a9.98 9.98 0 0 0 0 7.02l10.28 23.07a3.57 3.57 0 0 0 4.96 1.7l17.25-9.3a7.16 7.16 0 0 0 3.4-5.68v-26.6c0-2.15-1.52-4.7-3.4-5.68l-17.25-9.3a3.54 3.54 0 0 0-4.96 1.7l-10.28 23.07Zm-69.63 31.84c1.87.98 4.11.22 4.96-1.7l10.28-23.08a9.98 9.98 0 0 0 0-7.02l-10.28-23.07a3.57 3.57 0 0 0-4.96-1.7l-17.26 9.3a7.17 7.17 0 0 0-3.39 5.68v26.61a7.02 7.02 0 0 0 3.39 5.67l17.26 9.31Zm292.48 111.38a4.52 4.52 0 0 1-6.35-2.15l-21.19-47.62a12.66 12.66 0 0 1 0-9.03l21.19-47.58a4.52 4.52 0 0 1 6.35-2.14l37.54 20.25a9.18 9.18 0 0 1 4.33 7.29V3862a9.16 9.16 0 0 1-4.33 7.28l-37.54 20.26Zm-129.75-119.03a5.43 5.43 0 0 0-2.33 6.84l21.06 47.26c1.07 2.51 4.2 4.52 6.92 4.52h58.82c2.68 0 5.81-2.06 6.93-4.52l21.05-47.26a5.43 5.43 0 0 0-2.32-6.84l-50.73-27.37a10.2 10.2 0 0 0-8.67 0l-50.73 27.37Zm110.17 129.63a5.42 5.42 0 0 0 2.32-6.84l-21.05-47.31c-1.07-2.51-4.2-4.52-6.92-4.52h-58.82c-2.68 0-5.81 2.06-6.93 4.52l-21.05 47.31a5.42 5.42 0 0 0 2.32 6.84l50.73 27.36c2.37 1.3 6.3 1.3 8.67 0l50.73-27.36Zm-102.22-60.32a12.58 12.58 0 0 0 0-9.04l-21.18-47.62a4.52 4.52 0 0 0-6.35-2.14l-37.54 20.25a9.19 9.19 0 0 0-4.34 7.29V3862a9.17 9.17 0 0 0 4.34 7.28l37.54 20.26a4.52 4.52 0 0 0 6.35-2.15l21.18-47.57Zm3.36 408.2a12.66 12.66 0 0 1 0 9.03l-24.63 55.35a4.52 4.52 0 0 1-6.35 2.15l-44.2-23.83a9.19 9.19 0 0 1-4.34-7.29v-61.71a9.17 9.17 0 0 1 4.34-7.28l44.2-23.84a4.53 4.53 0 0 1 6.35 2.15l24.63 55.27Zm93.41 15.2a8.16 8.16 0 0 0-6.93-4.52h-68.74c-2.68 0-5.81 2.06-6.93 4.52l-24.49 55a5.42 5.42 0 0 0 2.32 6.84l59.13 31.88c2.37 1.3 6.31 1.3 8.67 0l59.14-31.88a5.43 5.43 0 0 0 2.32-6.84l-24.49-55Zm90.28-41.54a9.19 9.19 0 0 0-4.34-7.29l-44.2-23.74a4.52 4.52 0 0 0-6.35 2.14l-24.62 55.27a12.55 12.55 0 0 0 0 9.03l24.62 55.27a4.53 4.53 0 0 0 6.35 2.15l44.2-23.84a9.17 9.17 0 0 0 4.34-7.28v-61.71Zm-195.05-41.67a5.41 5.41 0 0 0-2.32 6.84l24.45 55c1.07 2.5 4.2 4.51 6.92 4.51h68.79c2.68 0 5.81-2.06 6.93-4.51l24.49-55a5.42 5.42 0 0 0-2.32-6.84l-59.14-31.89a10.2 10.2 0 0 0-8.67 0l-59.13 31.89Zm-132.92 157.26a3.54 3.54 0 0 1 4.96 1.7l18.24 41c.85 1.92.85 5.1 0 7.02l-18.24 40.96a3.57 3.57 0 0 1-4.96 1.7l-32.45-17.53a7.17 7.17 0 0 1-3.39-5.68v-45.97a7.06 7.06 0 0 1 3.39-5.68l32.45-17.52Zm109.86 100.87a4.2 4.2 0 0 0 1.83-5.32l-18.1-40.73a6.44 6.44 0 0 0-5.41-3.49h-50.63a6.43 6.43 0 0 0-5.41 3.49l-18.1 40.73a4.2 4.2 0 0 0 1.83 5.32l43.62 23.52c1.83.99 4.87.99 6.75 0l43.62-23.52Zm-77.72-63.31a6.44 6.44 0 0 0 5.41 3.48h50.63c2.1 0 4.56-1.56 5.41-3.48l18.1-40.74a4.2 4.2 0 0 0-1.83-5.32l-43.62-23.52a8.12 8.12 0 0 0-6.75 0l-43.62 23.52a4.2 4.2 0 0 0-1.83 5.32l18.1 40.74Zm70.39 5.09a9.98 9.98 0 0 0 0 7.02l18.24 41.01a3.57 3.57 0 0 0 4.96 1.7l32.45-17.53a7.17 7.17 0 0 0 3.39-5.68v-45.97a7.06 7.06 0 0 0-3.39-5.68l-32.45-17.52a3.54 3.54 0 0 0-4.96 1.7l-18.24 40.95Z" fill="currentColor"/>
</svg>
