<svg viewBox="0 0 8000 8000" fill="none"
  xmlns="http://www.w3.org/2000/svg">
  <path fill-rule="evenodd" clip-rule="evenodd" d="M8000 0H0V8000H8000V0ZM4215.43 4031.78H4215.38C4212.08 4031.78 4208.23 4029.32 4206.89 4026.28L4154.96 3909.62C4153.61 3906.62 4154.91 3902.82 4157.82 3901.25L4226.15 3864.4L4283.81 3833.29C4286.71 3831.72 4291.5 3831.72 4294.45 3833.29L4420.4 3901.21C4423.3 3902.77 4424.6 3906.58 4423.26 3909.57L4371.32 4026.23C4370.92 4027.14 4370.3 4027.99 4369.54 4028.74C4367.74 4030.54 4365.13 4031.78 4362.78 4031.78H4215.43ZM4445.51 4165.2C4442.56 4166.77 4439.08 4165.61 4437.74 4162.57L4385.58 4045.5C4384.24 4042.46 4384.24 4037.5 4385.58 4034.46L4437.69 3917.4C4439.08 3914.36 4442.56 3913.19 4445.47 3914.76L4542.14 3966.9C4545.09 3968.46 4547.46 3972.48 4547.46 3975.79V4104.21C4547.46 4107.52 4545.05 4111.55 4542.14 4113.11L4445.51 4165.2ZM4132.74 3914.76C4135.69 3913.19 4139.18 3914.36 4140.52 3917.4L4192.63 4034.5C4193.97 4037.54 4193.97 4042.51 4192.63 4045.55L4140.52 4162.61C4139.13 4165.65 4135.65 4166.81 4132.74 4165.25L4036.07 4113.11C4033.12 4111.55 4030.75 4107.52 4030.75 4104.21V3975.79C4030.75 3972.48 4033.16 3968.46 4036.07 3966.9L4132.74 3914.76ZM4423.21 4170.44C4424.55 4173.43 4423.26 4177.23 4420.35 4178.8L4294.45 4246.72C4291.5 4248.28 4286.71 4248.28 4283.81 4246.72L4157.86 4178.8C4154.96 4177.23 4153.66 4173.48 4155 4170.44L4206.94 4053.78C4208.28 4050.74 4212.12 4048.28 4215.43 4048.28H4362.78C4366.09 4048.28 4369.94 4050.74 4371.28 4053.78L4423.21 4170.44ZM3975.42 3800.56C3976.76 3803.6 3976.76 3808.56 3975.42 3811.6L3942.39 3885.78C3941 3888.82 3937.52 3889.99 3934.61 3888.42L3874.68 3856.09C3871.73 3854.53 3869.36 3850.5 3869.36 3847.19V3764.92C3869.36 3761.61 3871.77 3757.59 3874.68 3756.02L3934.61 3723.69C3937.56 3722.13 3941.05 3723.29 3942.39 3726.33L3975.42 3800.56ZM3957.94 3711.17C3955.04 3712.74 3953.74 3716.49 3955.08 3719.53L3987.93 3793.4C3989.27 3796.44 3993.12 3798.9 3996.42 3798.9H4089.25C4092.56 3798.9 4096.41 3796.44 4097.75 3793.4L4130.64 3719.53C4131.98 3716.54 4130.69 3712.74 4127.78 3711.17L4048.18 3668.25C4045.23 3666.68 4040.45 3666.68 4037.54 3668.25L3957.94 3711.17ZM4151.11 3723.74C4148.16 3722.17 4144.68 3723.34 4143.33 3726.38L4110.31 3800.56C4108.96 3803.6 4108.96 3808.56 4110.31 3811.6L4143.33 3885.83C4144.72 3888.87 4148.21 3890.03 4151.11 3888.47L4211.05 3856.14C4214 3854.57 4216.37 3850.55 4216.37 3847.24V3764.96C4216.37 3761.66 4213.95 3757.63 4211.05 3756.07L4151.11 3723.74ZM4127.78 3901.03C4130.69 3899.47 4131.98 3895.71 4130.64 3892.67L4097.75 3818.8C4096.41 3815.76 4092.56 3813.3 4089.25 3813.3H3996.42C3993.12 3813.3 3989.27 3815.76 3987.93 3818.8L3955.08 3892.67C3953.74 3895.67 3955.04 3899.47 3957.94 3901.03L4037.54 3943.96C4040.49 3945.52 4045.28 3945.52 4048.18 3943.96L4127.78 3901.03ZM3738 3914.27C3740.95 3912.7 3744.44 3913.86 3745.78 3916.9L3778.32 3990.06C3779.66 3993.1 3779.66 3998.06 3778.32 4001.1L3745.78 4074.21C3744.39 4077.25 3740.91 4078.41 3738 4076.85L3679 4045.01C3676.05 4043.45 3673.69 4039.42 3673.69 4036.11V3955C3673.69 3951.69 3676.1 3947.67 3679 3946.1L3738 3914.27ZM3928.76 4089.32C3931.66 4087.76 3932.96 4084 3931.62 4080.96L3899.26 4008.26C3897.92 4005.22 3894.07 4002.76 3890.77 4002.76H3799.37C3796.06 4002.76 3792.22 4005.22 3790.87 4008.26L3758.47 4081.01C3757.13 4084 3758.43 4087.8 3761.33 4089.37L3839.73 4131.62C3842.68 4133.19 3847.46 4133.19 3850.36 4131.62L3928.76 4089.32ZM3911.82 3989.97C3910.48 3993.01 3910.48 3997.97 3911.82 4001.01L3944.36 4074.17C3945.74 4077.21 3949.23 4078.37 3952.13 4076.8L4011.13 4044.97C4014.08 4043.4 4016.45 4039.38 4016.45 4036.07V3954.96C4016.45 3951.65 4014.03 3947.62 4011.13 3946.06L3952.13 3914.22C3949.18 3912.66 3945.7 3913.82 3944.36 3916.86L3911.82 3989.97ZM3850.41 3859.36C3847.46 3857.79 3842.68 3857.79 3839.77 3859.36L3761.38 3901.66C3758.47 3903.22 3757.18 3906.98 3758.52 3910.02L3790.87 3982.77C3792.22 3985.81 3796.06 3988.27 3799.37 3988.27H3890.81C3894.12 3988.27 3897.96 3985.81 3899.3 3982.77L3931.66 3910.02C3933 3907.02 3931.71 3903.22 3928.8 3901.66L3850.41 3859.36ZM3707.61 4163.01C3706.54 4165.52 3703.41 4167.53 3700.68 4167.53H3619.07C3616.39 4167.53 3613.26 4165.47 3612.14 4163.01L3583.18 4098C3582.06 4095.54 3583.13 4092.45 3585.5 4091.16L3655.54 4053.37C3657.91 4052.08 3661.84 4052.08 3664.21 4053.37L3734.25 4091.16C3736.62 4092.45 3737.69 4095.54 3736.57 4098L3707.61 4163.01ZM3718.38 4169.18C3717.26 4171.69 3717.26 4175.76 3718.38 4178.22L3747.43 4243.54C3748.55 4246 3751.41 4246.99 3753.78 4245.69L3806.7 4217.16C3809.07 4215.87 3811.03 4212.6 3811.03 4209.87V4137.53C3811.03 4134.8 3809.07 4131.53 3806.7 4130.24L3753.78 4101.71C3751.41 4100.41 3748.55 4101.4 3747.43 4103.86L3718.38 4169.18ZM3601.28 4178.22C3602.4 4175.71 3602.4 4171.64 3601.28 4169.18L3572.23 4103.86C3571.11 4101.4 3568.25 4100.41 3565.88 4101.71L3512.96 4130.24C3510.6 4131.53 3508.63 4134.8 3508.63 4137.53V4209.87C3508.63 4212.6 3510.6 4215.87 3512.96 4217.16L3565.88 4245.69C3568.25 4246.99 3571.11 4246 3572.23 4243.54L3601.28 4178.22ZM3734.25 4256.24C3736.62 4254.95 3737.69 4251.86 3736.57 4249.4L3707.7 4184.39C3706.63 4181.88 3703.5 4179.87 3700.77 4179.87H3619.07C3616.39 4179.87 3613.26 4181.93 3612.14 4184.39L3583.18 4249.4C3582.06 4251.86 3583.13 4254.95 3585.5 4256.24L3655.54 4294.03C3657.91 4295.32 3661.84 4295.32 3664.21 4294.03L3734.25 4256.24ZM3764.77 4311.11C3765.62 4313.03 3765.62 4316.21 3764.77 4318.13L3746.54 4359.18C3745.64 4361.1 3743.45 4361.86 3741.58 4360.88L3709.13 4343.35C3707.25 4342.32 3705.73 4339.77 3705.73 4337.67V4291.66C3705.73 4289.51 3707.25 4286.96 3709.13 4285.98L3741.58 4268.45C3743.45 4267.47 3745.69 4268.23 3746.54 4270.15L3764.77 4311.11ZM3773.71 4306.01C3774.56 4307.93 3777.02 4309.5 3779.12 4309.5H3829.76C3831.86 4309.5 3834.32 4307.93 3835.17 4306.01L3853.27 4265.28C3854.12 4263.35 3853.31 4260.94 3851.44 4259.96L3807.81 4236.44C3805.98 4235.45 3802.94 4235.45 3801.06 4236.44L3757.44 4259.96C3755.57 4260.94 3754.76 4263.35 3755.61 4265.28L3773.71 4306.01ZM3851.44 4369.33C3853.31 4368.34 3854.12 4365.93 3853.27 4364.01L3835.21 4323.27C3834.36 4321.35 3831.9 4319.78 3829.8 4319.78H3779.16C3777.06 4319.78 3774.61 4321.35 3773.76 4323.27L3755.61 4364.01C3754.76 4365.93 3755.57 4368.34 3757.44 4369.33L3801.06 4392.85C3802.9 4393.83 3805.94 4393.83 3807.81 4392.85L3851.44 4369.33ZM3844.11 4311.11C3843.26 4313.03 3843.26 4316.21 3844.11 4318.13L3862.34 4359.18C3863.23 4361.1 3865.42 4361.86 3867.3 4360.88L3899.75 4343.35C3901.63 4342.32 3903.15 4339.77 3903.15 4337.67V4291.66C3903.15 4289.51 3901.63 4286.96 3899.75 4285.98L3867.3 4268.45C3865.42 4267.47 3863.19 4268.23 3862.34 4270.15L3844.11 4311.11ZM3666 3925.62C3664.12 3926.61 3661.89 3925.85 3661.04 3923.93L3648.43 3895.53C3647.58 3893.61 3647.58 3890.43 3648.43 3888.51L3661.04 3860.16C3661.93 3858.24 3664.12 3857.48 3666 3858.46L3687.54 3870.09C3689.42 3871.12 3690.94 3873.67 3690.94 3875.77V3908.32C3690.94 3910.47 3689.42 3913.01 3687.54 3914L3666 3925.62ZM3542.82 3908.32C3542.82 3910.47 3544.34 3913.01 3546.22 3914L3567.76 3925.58C3569.64 3926.56 3571.87 3925.8 3572.72 3923.88L3585.32 3895.53C3586.17 3893.61 3586.17 3890.43 3585.32 3888.51L3572.72 3860.16C3571.83 3858.24 3569.64 3857.48 3567.76 3858.46L3546.22 3870.09C3544.34 3871.12 3542.82 3873.67 3542.82 3875.77V3908.32ZM3583.58 3849.97C3581.7 3850.95 3580.9 3853.37 3581.75 3855.29L3594.26 3883.41C3595.11 3885.34 3597.57 3886.9 3599.67 3886.9H3634.04C3636.14 3886.9 3638.6 3885.34 3639.45 3883.41L3651.96 3855.29C3652.81 3853.37 3652.01 3850.95 3650.13 3849.97L3620.23 3833.83C3618.4 3832.84 3615.36 3832.84 3613.48 3833.83L3583.58 3849.97ZM3650.13 3934.12C3652.01 3933.14 3652.81 3930.72 3651.96 3928.8L3639.45 3900.67C3638.6 3898.75 3636.14 3897.19 3634.04 3897.19H3599.67C3597.57 3897.19 3595.11 3898.75 3594.26 3900.67L3581.75 3928.8C3580.9 3930.72 3581.7 3933.14 3583.58 3934.12L3613.48 3950.26C3615.31 3951.25 3618.35 3951.25 3620.23 3950.26L3650.13 3934.12ZM3698.4 3777.44C3695.72 3777.44 3692.59 3775.38 3691.47 3772.92L3671.41 3727.72C3670.29 3725.26 3671.36 3722.17 3673.73 3720.88L3722.13 3694.81C3724.5 3693.51 3728.44 3693.51 3730.81 3694.81L3779.25 3720.92C3781.62 3722.22 3782.7 3725.3 3781.58 3727.76L3761.47 3772.92C3760.39 3775.43 3757.26 3777.44 3754.54 3777.44H3698.4ZM3772.28 3779.09C3771.16 3781.6 3771.16 3785.67 3772.28 3788.13L3792.53 3833.6C3793.65 3836.06 3796.51 3837.04 3798.87 3835.75L3834.59 3816.57C3836.95 3815.27 3838.92 3812 3838.92 3809.28V3758.03C3838.92 3755.31 3836.95 3752.04 3834.59 3750.75L3798.87 3731.47C3796.51 3730.18 3793.65 3731.16 3792.53 3733.62L3772.28 3779.09ZM3761.51 3794.3C3760.44 3791.79 3757.31 3789.78 3754.58 3789.78V3789.74H3698.45C3695.76 3789.74 3692.64 3791.79 3691.52 3794.25L3671.41 3839.46C3670.29 3841.92 3671.36 3845 3673.73 3846.3L3722.18 3872.46C3724.55 3873.76 3728.48 3873.76 3730.85 3872.46L3779.3 3846.35C3781.67 3845.05 3782.74 3841.96 3781.62 3839.5L3761.51 3794.3ZM3680.75 3788.13C3681.86 3785.62 3681.86 3781.55 3680.75 3779.09L3660.5 3733.58C3659.38 3731.12 3656.52 3730.13 3654.15 3731.43L3618.44 3750.7C3616.07 3752 3614.11 3755.26 3614.11 3757.99V3809.19C3614.11 3811.92 3616.07 3815.18 3618.44 3816.48L3654.15 3835.75C3656.52 3837.04 3659.38 3836.06 3660.5 3833.6L3680.75 3788.13ZM3579.56 4077.92C3577.19 4079.22 3574.33 4078.23 3573.21 4075.78L3547.38 4017.65C3546.26 4015.14 3546.26 4011.07 3547.38 4008.61L3573.21 3950.53C3574.33 3948.07 3577.19 3947.09 3579.56 3948.38L3626.22 3973.56C3628.59 3974.85 3630.56 3978.12 3630.56 3980.85V4045.46C3630.56 4048.19 3628.59 4051.45 3626.22 4052.75L3579.56 4077.92ZM3489.14 4122.01C3491.51 4123.31 3495.44 4123.31 3497.81 4122.01L3559.94 4088.47C3562.31 4087.18 3563.38 4084.09 3562.26 4081.63L3536.56 4023.86C3535.49 4021.36 3532.36 4019.35 3529.64 4019.35H3457.28C3454.59 4019.35 3451.47 4021.4 3450.35 4023.86L3424.65 4081.63C3423.53 4084.09 3424.6 4087.18 3426.97 4088.47L3489.14 4122.01ZM3450.35 4002.49C3451.42 4004.99 3454.55 4007 3457.28 4007V4006.96H3529.68C3532.36 4006.96 3535.49 4004.9 3536.61 4002.44L3562.31 3944.67C3563.42 3942.21 3562.35 3939.13 3559.98 3937.83L3497.81 3904.3C3495.44 3903 3491.51 3903 3489.14 3904.3L3426.97 3937.83C3424.6 3939.13 3423.53 3942.21 3424.65 3944.67L3450.35 4002.49ZM3439.58 4017.69C3440.69 4015.19 3440.69 4011.12 3439.58 4008.66L3413.74 3950.53C3412.63 3948.07 3409.77 3947.09 3407.4 3948.38L3360.74 3973.56C3358.37 3974.85 3356.4 3978.12 3356.4 3980.85V4045.5C3356.4 4048.23 3358.37 4051.5 3360.74 4052.79L3407.4 4077.92C3409.77 4079.22 3412.63 4078.23 3413.74 4075.78L3439.58 4017.69ZM3973.99 4190.51C3976.36 4189.22 3979.22 4190.2 3980.33 4192.66L4006.79 4252.22C4007.91 4254.72 4007.91 4258.79 4006.79 4261.25L3980.33 4320.72C3979.22 4323.18 3976.36 4324.17 3973.99 4322.87L3926.12 4297.07C3923.75 4295.77 3921.78 4292.51 3921.78 4289.78V4223.6C3921.78 4220.87 3923.75 4217.61 3926.12 4216.31L3973.99 4190.51ZM4201.44 4223.6C4201.44 4220.87 4199.47 4217.61 4197.1 4216.31L4149.23 4190.6C4146.87 4189.31 4144.01 4190.29 4142.89 4192.75L4116.43 4252.22C4115.31 4254.72 4115.31 4258.79 4116.43 4261.25L4142.89 4320.72C4144.01 4323.18 4146.87 4324.17 4149.23 4322.87L4197.1 4297.07C4199.47 4295.77 4201.44 4292.51 4201.44 4289.78V4223.6ZM4129.66 4333.38C4132.03 4332.08 4133.1 4328.99 4131.98 4326.53L4105.66 4267.33C4104.58 4264.83 4101.46 4262.82 4098.73 4262.82H4024.54C4021.86 4262.82 4018.73 4264.87 4017.61 4267.33L3991.28 4326.53C3990.17 4328.99 3991.24 4332.08 3993.61 4333.38L4057.3 4367.72C4059.67 4369.01 4063.6 4369.01 4065.97 4367.72L4129.66 4333.38ZM3993.56 4179.92C3991.2 4181.21 3990.12 4184.3 3991.24 4186.76L4017.56 4245.96C4018.64 4248.46 4021.77 4250.48 4024.49 4250.48H4098.69C4101.37 4250.48 4104.5 4248.42 4105.61 4245.96L4131.94 4186.76C4133.06 4184.3 4131.98 4181.21 4129.61 4179.92L4065.92 4145.58C4063.56 4144.28 4059.62 4144.28 4057.25 4145.58L3993.56 4179.92ZM4176.41 3649.91C4177.48 3647.41 4180.61 3645.4 4183.34 3645.4H4249.35C4252.03 3645.4 4255.16 3647.45 4256.28 3649.91L4279.83 3702.81C4280.95 3705.27 4279.88 3708.36 4277.51 3709.65L4220.66 3740.28C4218.29 3741.58 4214.35 3741.58 4211.99 3740.28L4155.18 3709.65C4152.81 3708.36 4151.74 3705.27 4152.85 3702.81L4176.41 3649.91ZM4155.18 3568.8C4152.81 3570.1 4151.74 3573.18 4152.85 3575.64L4176.41 3628.54C4177.48 3631.04 4180.61 3633.06 4183.34 3633.06H4249.4C4252.08 3633.06 4255.21 3631 4256.32 3628.54L4279.88 3575.64C4280.99 3573.18 4279.92 3570.1 4277.55 3568.8L4220.66 3538.17C4218.29 3536.88 4214.35 3536.88 4211.99 3538.17L4155.18 3568.8ZM4267.09 3634.71C4265.98 3637.22 4265.98 3641.28 4267.09 3643.74L4290.78 3697C4291.9 3699.46 4294.76 3700.44 4297.13 3699.15L4339.5 3676.3C4341.87 3675 4343.83 3671.73 4343.83 3669.01V3609.54C4343.83 3606.81 4341.87 3603.55 4339.5 3602.25L4297.13 3579.4C4294.76 3578.1 4291.9 3579.09 4290.78 3581.55L4267.09 3634.71ZM4088.9 3668.96C4088.9 3671.69 4090.86 3674.95 4093.23 3676.25L4135.6 3699.01C4137.97 3700.31 4140.83 3699.32 4141.95 3696.86L4165.64 3643.7C4166.75 3641.19 4166.75 3637.13 4165.64 3634.67L4141.95 3581.5C4140.83 3579.04 4137.97 3578.06 4135.6 3579.35L4093.23 3602.2C4090.86 3603.5 4088.9 3606.76 4088.9 3609.49V3668.96ZM4347.77 3741.89C4346.92 3743.81 4344.46 3745.38 4342.36 3745.38H4314.34C4312.24 3745.38 4309.78 3743.81 4308.93 3741.89L4298.74 3719.04C4297.89 3717.12 4298.69 3714.71 4300.57 3713.72L4324.97 3700.58C4326.81 3699.59 4329.84 3699.59 4331.72 3700.58L4356.12 3713.72C4358 3714.71 4358.81 3717.12 4357.96 3719.04L4347.77 3741.89ZM4347.77 3757.81C4346.92 3755.89 4344.46 3754.32 4342.36 3754.32H4314.34C4312.24 3754.32 4309.78 3755.89 4308.93 3757.81L4298.74 3780.66C4297.89 3782.58 4298.69 3785 4300.57 3785.98L4324.97 3799.13C4326.81 3800.11 4329.84 3800.11 4331.72 3799.13L4356.12 3785.98C4358 3785 4358.81 3782.58 4357.96 3780.66L4347.77 3757.81ZM4355.5 3746.32C4354.65 3748.24 4354.65 3751.42 4355.5 3753.34L4365.78 3776.41C4366.67 3778.33 4368.86 3779.09 4370.74 3778.11L4387.99 3768.81C4389.87 3767.78 4391.39 3765.23 4391.39 3763.13V3736.53C4391.39 3734.38 4389.87 3731.83 4387.99 3730.85L4370.74 3721.55C4368.86 3720.56 4366.63 3721.32 4365.78 3723.25L4355.5 3746.32ZM4285.87 3778.16C4287.74 3779.14 4289.98 3778.38 4290.83 3776.46L4301.11 3753.38C4301.96 3751.46 4301.96 3748.29 4301.11 3746.36L4290.83 3723.29C4289.93 3721.37 4287.74 3720.61 4285.87 3721.59L4268.61 3730.89C4266.74 3731.92 4265.22 3734.47 4265.22 3736.57V3763.18C4265.22 3765.32 4266.74 3767.87 4268.61 3768.85L4285.87 3778.16ZM4578.35 3889.54C4575.98 3890.84 4573.12 3889.85 4572 3887.39L4550.81 3839.77C4549.7 3837.27 4549.7 3833.2 4550.81 3830.74L4572 3783.16C4573.12 3780.7 4575.98 3779.72 4578.35 3781.02L4615.89 3801.27C4618.26 3802.57 4620.22 3805.83 4620.22 3808.56V3862C4620.22 3864.72 4618.26 3867.99 4615.89 3869.28L4578.35 3889.54ZM4448.6 3770.51C4446.23 3771.81 4445.16 3774.89 4446.27 3777.35L4467.33 3824.61C4468.4 3827.12 4471.53 3829.13 4474.25 3829.13H4533.07C4535.75 3829.13 4538.88 3827.07 4540 3824.61L4561.05 3777.35C4562.17 3774.89 4561.09 3771.81 4558.73 3770.51L4508 3743.14C4505.63 3741.85 4501.69 3741.85 4499.33 3743.14L4448.6 3770.51ZM4558.77 3900.14C4561.14 3898.84 4562.21 3895.75 4561.09 3893.3L4540.04 3845.99C4538.97 3843.48 4535.84 3841.47 4533.12 3841.47H4474.3C4471.62 3841.47 4468.49 3843.53 4467.37 3845.99L4446.32 3893.3C4445.2 3895.75 4446.27 3898.84 4448.64 3900.14L4499.37 3927.5C4501.74 3928.8 4505.67 3928.8 4508.04 3927.5L4558.77 3900.14ZM4456.55 3839.82C4457.67 3837.31 4457.67 3833.24 4456.55 3830.78L4435.37 3783.16C4434.25 3780.7 4431.39 3779.72 4429.02 3781.02L4391.48 3801.27C4389.11 3802.57 4387.14 3805.83 4387.14 3808.56V3862C4387.14 3864.72 4389.11 3867.99 4391.48 3869.28L4429.02 3889.54C4431.39 3890.84 4434.25 3889.85 4435.37 3887.39L4456.55 3839.82ZM4459.91 4248.02C4461.02 4250.52 4461.02 4254.59 4459.91 4257.05L4435.28 4312.4C4434.16 4314.86 4431.3 4315.85 4428.93 4314.55L4384.73 4290.72C4382.36 4289.42 4380.39 4286.16 4380.39 4283.43V4221.72C4380.39 4219 4382.36 4215.73 4384.73 4214.44L4428.93 4190.6C4431.3 4189.31 4434.16 4190.29 4435.28 4192.75L4459.91 4248.02ZM4553.32 4263.22C4552.24 4260.71 4549.12 4258.7 4546.39 4258.7H4477.65C4474.97 4258.7 4471.84 4260.76 4470.72 4263.22L4446.23 4318.22C4445.11 4320.68 4446.18 4323.76 4448.55 4325.06L4507.68 4356.94C4510.05 4358.24 4513.99 4358.24 4516.35 4356.94L4575.49 4325.06C4577.85 4323.76 4578.93 4320.68 4577.81 4318.22L4553.32 4263.22ZM4643.6 4221.68C4643.6 4218.95 4641.63 4215.69 4639.26 4214.39L4595.06 4190.65C4592.69 4189.35 4589.83 4190.33 4588.71 4192.79L4564.09 4248.06C4562.97 4250.56 4562.97 4254.63 4564.09 4257.09L4588.71 4312.36C4589.83 4314.82 4592.69 4315.8 4595.06 4314.51L4639.26 4290.67C4641.63 4289.38 4643.6 4286.11 4643.6 4283.39V4221.68ZM4448.55 4180.01C4446.18 4181.3 4445.11 4184.39 4446.23 4186.85L4470.68 4241.85C4471.75 4244.35 4474.88 4246.36 4477.6 4246.36H4546.39C4549.07 4246.36 4552.2 4244.3 4553.32 4241.85L4577.81 4186.85C4578.93 4184.39 4577.85 4181.3 4575.49 4180.01L4516.35 4148.12C4513.99 4146.83 4510.05 4146.83 4507.68 4148.12L4448.55 4180.01ZM4315.63 4337.27C4317.51 4336.28 4319.74 4337.04 4320.59 4338.97L4338.83 4379.97C4339.68 4381.89 4339.68 4385.07 4338.83 4386.99L4320.59 4427.95C4319.7 4429.87 4317.51 4430.63 4315.63 4429.65L4283.18 4412.12C4281.31 4411.09 4279.79 4408.54 4279.79 4406.44V4360.47C4279.79 4358.33 4281.31 4355.78 4283.18 4354.79L4315.63 4337.27ZM4425.49 4438.14C4427.37 4437.16 4428.17 4434.74 4427.32 4432.82L4409.22 4392.09C4408.37 4390.16 4405.91 4388.6 4403.81 4388.6H4353.18C4351.07 4388.6 4348.62 4390.16 4347.77 4392.09L4329.67 4432.82C4328.82 4434.74 4329.62 4437.16 4331.5 4438.14L4375.12 4461.66C4376.95 4462.65 4379.99 4462.65 4381.87 4461.66L4425.49 4438.14ZM4347.77 4374.83C4348.62 4376.75 4351.07 4378.31 4353.18 4378.31H4403.81C4405.91 4378.31 4408.37 4376.75 4409.22 4374.83L4427.32 4334.09C4428.17 4332.17 4427.37 4329.75 4425.49 4328.77L4381.87 4305.25C4380.04 4304.27 4377 4304.27 4375.12 4305.25L4331.5 4328.77C4329.62 4329.75 4328.82 4332.17 4329.67 4334.09L4347.77 4374.83ZM4418.16 4379.92C4417.31 4381.85 4417.31 4385.02 4418.16 4386.94L4436.4 4427.95C4437.29 4429.87 4439.48 4430.63 4441.36 4429.65L4473.81 4412.12C4475.68 4411.09 4477.2 4408.54 4477.2 4406.44V4360.47C4477.2 4358.33 4475.68 4355.78 4473.81 4354.79L4441.36 4337.27C4439.48 4336.28 4437.25 4337.04 4436.4 4338.97L4418.16 4379.92Z" fill="black"/>
</svg>
