<svg xmlns="http://www.w3.org/2000/svg" fill="none" viewBox="0 0 3218 2313"><path fill="#A5CD50" d="M2148 1236c-9 0-18-6-22-13l-129-292c-4-8-1-17 7-21l315-170c7-4 19-4 26 0l315 170c7 4 10 13 7 21l-130 292c-3 7-13 13-21 13h-368zm368 0c8 0 18-6 21-13l130-292c3-8 0-17-7-21l-315-170c-7-4-19-4-27 0l-314 170c-8 4-11 14-8 21l130 292c4 7 13 13 21 13h369zm187 327c4 8 12 11 20 7l241-130c8-4 14-14 14-22v-322c0-8-6-18-14-22l-241-130c-8-4-16-1-20 6l-130 293c-3 8-3 20 0 28l130 292zm0 0c4 8 12 11 20 7l241-130c8-4 14-14 14-22v-322c0-8-6-18-14-22l-241-130c-8-4-16-1-20 6l-130 293c-3 8-3 20 0 28l130 292zm-743-613c-3-7-12-10-19-6l-242 130c-7 4-13 14-13 22v322c0 8 6 18 13 22l242 130c7 4 16 1 19-6l131-293c3-8 3-20 0-28l-131-293zm0 0c-3-7-12-10-19-6l-242 130c-7 4-13 14-13 22v322c0 8 6 18 13 22l242 130c7 4 16 1 19-6l131-293c3-8 3-20 0-28l-131-293zm700 654c7-4 10-13 7-21l-130-292c-3-7-13-13-21-13h-368c-9 0-18 6-22 13l-129 292c-4 8-1 17 7 21l315 170c7 4 19 4 26 0l315-170zm0 0c7-4 10-13 7-21l-130-292c-3-7-13-13-21-13h-368c-9 0-18 6-22 13l-129 292c-4 8-1 17 7 21l315 170c7 4 19 4 26 0l315-170zm-144-368c8 0 18-6 21-13l130-292c3-8 0-17-7-21l-315-170c-7-4-19-4-27 0l-314 170c-8 4-11 14-8 21l130 292c4 7 13 13 21 13h369zm187 327c4 8 12 11 20 7l241-130c8-4 14-14 14-22v-322c0-8-6-18-14-22l-241-130c-8-4-16-1-20 6l-130 293c-3 8-3 20 0 28l130 292zm-743-613c-3-7-12-10-19-6l-242 130c-7 4-13 14-13 22v322c0 8 6 18 13 22l242 130c7 4 16 1 19-6l131-293c3-8 3-20 0-28l-131-293zm700 654c7-4 10-13 7-21l-130-292c-3-7-13-13-21-13h-368c-9 0-18 6-22 13l-129 292c-4 8-1 17 7 21l315 170c7 4 19 4 26 0l315-170zM1548 686c3-8 3-20 0-28l-83-185c-3-8-12-11-19-7l-150 81c-8 4-14 14-14 22v206c0 8 6 18 14 22l150 81c7 4 16 1 19-7l83-185zm-51-230c-4-8 0-17 7-21l199-107c7-4 19-4 26 0l199 107c8 4 11 13 8 21l-83 185c-3 7-13 13-21 13h-232c-8 0-18-6-21-13l-82-185zm470 17c4-8 12-11 20-7l150 81c7 4 13 14 13 22v206c0 8-6 18-13 22l-150 81c-7 4-16 1-20-6l-82-186c-4-8-4-20 0-28l82-185zm-31 416c3 7 0 17-8 21l-199 107c-7 4-19 4-26 0l-199-107c-7-4-11-14-7-21l82-185c3-8 13-14 21-14h232c8 0 18 6 21 14l83 185zm-963 60c-3-7-12-10-19-6l-147 79c-8 4-14 14-14 23v202c0 9 6 19 14 23l147 79c7 4 16 1 19-6l82-183c3-8 3-20 0-28l-82-183zm465 410c3 8 0 17-7 21l-196 106c-7 4-19 4-27 0l-196-106c-7-3-10-13-7-20l81-182c4-8 13-14 21-14h229c8 0 18 6 21 14l81 181zm-49-199c-4-8-4-20 0-28l81-183c3-7 12-10 19-6l148 79c7 4 13 14 13 22v203c0 8-6 19-13 22l-148 80c-7 4-16 1-19-7l-81-182zm-181-355c8-4 20-4 27 0l196 106c7 4 11 14 7 21l-81 182c-3 8-13 14-21 14h-229c-8 0-17-6-21-14l-81-182c-3-8 0-17 7-21l196-106zm-347 771c7 0 14-5 17-11l72-163c3-6 1-14-5-17l-175-95c-6-3-16-3-22 0l-175 95c-6 3-9 11-6 17l72 163c3 6 11 11 18 11h204zm44 27c-3-7-3-17 0-23l73-163c2-7 10-9 15-6l133 72c6 3 11 11 11 18v181c0 7-5 15-11 18l-133 71c-5 3-13 1-15-5l-73-163zm-293-23c3 6 3 16 0 23l-72 163c-3 6-10 8-16 5l-133-71c-6-3-10-11-10-18v-181c0-7 4-15 10-18l133-72c6-3 13-1 16 6l72 163zm338 201c3 6 1 13-5 17l-175 94c-6 3-16 3-22 0l-175-94c-6-4-9-11-6-17l72-163c3-6 11-11 18-11h204c7 0 15 5 17 11l72 163zm71 171c2-4 2-12 0-17l-46-103c-2-4-7-6-12-4l-81 44c-5 2-9 9-9 14v115c0 5 4 12 9 14l81 44c5 3 10 1 12-4l46-103zm36-21c-5 0-12-4-14-9l-45-102c-2-5 0-11 5-13l109-59c4-2 12-2 17 0l109 59c4 2 6 8 4 13l-45 102c-2 5-8 9-14 9h-126zm185 136c2 5 0 11-4 13l-109 59c-5 3-13 3-17 0l-109-59c-5-2-7-8-5-13l45-102c3-5 9-9 14-9h127c5 0 11 4 13 9l45 102zm-23-115c-2-4-2-12 0-17l46-103c2-4 8-6 12-4l81 44c5 2 9 9 9 14v115c0 5-4 12-9 14l-81 44c-4 3-10 1-12-4l-46-103zM762 967c2 5 7 7 12 4l54-29c5-2 8-9 8-14v-82c0-5-3-11-8-14l-54-29c-5-2-10 0-12 4l-32 71c-2 5-2 13 0 18l32 71zm-287-25c-5-2-9-9-9-14v-82c0-5 4-11 9-14l53-29c5-2 11 0 13 4l31 71c2 5 2 13 0 18l-31 71c-2 5-8 6-13 4l-53-29zm88-147c-2-5 0-11 5-13l75-40c4-3 12-3 17 0l74 40c5 2 7 8 5 13l-31 71c-2 4-9 8-14 8h-86c-5 0-11-4-13-8l-32-71zm176 184c2 5 0 11-5 13l-74 41c-5 2-13 2-17 0l-75-41c-5-2-7-8-5-13l32-70c2-5 8-9 13-9h86c5 0 12 4 14 9l31 70zm99-390c2 6 10 12 17 12h140c7 0 15-5 18-12l50-113c3-6 0-13-6-17l-121-65c-6-3-16-3-22 0l-121 65c-6 3-8 11-5 17l50 113zm202 38c-3-6-3-16 0-22l50-114c3-6 10-9 16-5l89 48c6 3 11 11 11 18v128c0 7-5 15-11 18l-89 48c-6 4-13 1-16-5l-50-114zm-45 4c7 0 15 5 18 12l50 113c3 6 0 14-6 17l-121 65c-6 3-16 3-22 0l-121-65c-6-3-8-11-5-17l50-113c3-7 10-12 17-12h140zm-184-26c3 6 3 16 0 22l-51 114c-3 6-10 9-16 5l-89-48c-6-3-11-11-11-18V552c0-7 5-15 11-18l89-48c6-4 13-1 16 5l51 114zm-269 741c3 7 10 9 16 6l117-63c5-3 10-12 10-18v-162c0-7-5-15-10-18l-117-63c-6-3-13-1-16 5l-65 146c-2 6-2 16 0 22l65 145zm-188 116c-6 3-16 3-22 0l-156-84c-5-3-8-11-5-17l64-144c3-6 10-12 17-12h181c7 0 15 5 17 12l65 144c2 6 0 14-6 17l-155 84zm-102-287c-7 0-14-6-17-12l-64-144c-3-6 0-14 5-17l156-84c6-4 16-4 22 0l155 84c6 3 9 11 6 17l-64 144c-3 6-11 11-18 11H252v1zm-44 4c3 6 3 16 0 22l-65 145c-2 7-10 9-16 6l-116-63c-6-3-11-11-11-18v-162c0-7 5-15 11-18l116-63c6-3 14-1 16 5l65 146zm1352 460c-3-6-10-9-16-6l-120 65c-6 3-11 11-11 18v165c0 7 5 15 11 19l120 64c6 3 13 1 16-5l66-149c3-6 3-16 0-22l-66-149zm542 59c6 3 11 11 11 18v165c0 7-5 15-11 19l-120 64c-6 3-13 1-16-5l-66-149c-3-6-3-16 0-22l66-149c3-6 10-9 16-5l120 64zm-163 275c3 6 0 14-6 17l-159 86c-6 4-16 4-22 0l-159-86c-6-3-9-11-6-17l66-148c3-6 11-11 17-11h186c7 0 14 5 17 11l66 148zm-352-349c-3-6 0-14 6-17l159-86c6-3 16-3 22 0l159 86c6 3 9 11 6 17l-66 148c-3 6-11 11-17 11h-186c-7 0-14-5-17-11l-66-148zm480-1354c-6 0-14 6-17 12l-59 132c-3 6 0 14 6 17l142 77c6 3 16 3 22 0l142-77c6-3 8-11 6-17l-59-132c-3-6-11-12-18-12h-165zm-76-174c-3-6 0-14 6-17l142-77c6-3 16-3 22 0l142 77c6 3 8 11 6 17l-59 132c-3 7-11 12-18 12h-165c-6 0-14-5-17-12l-59-132zm286 170c-3-6-3-16 0-22l59-133c3-6 10-9 16-6l106 58c6 3 11 11 11 18v149c0 6-5 14-11 18l-106 57c-6 3-13 1-16-6l-59-133zm-435 82c-6-4-11-12-11-19V181c0-7 5-15 11-18l106-58c6-3 13 0 16 6l59 133c3 6 3 16 0 22l-59 133c-3 6-10 9-16 6l-106-57zm623 172c5 0 11-3 13-8l26-57c2-5 0-11-5-14l-61-33c-4-2-12-2-17 0l-61 33c-4 3-6 9-4 14l25 57c2 5 9 8 14 8h70zm0 23c5 0 11 4 13 9l26 57c2 4 0 10-5 13l-61 33c-4 2-12 2-17 0l-61-33c-4-3-6-9-4-13l25-57c2-5 9-9 14-9h70zm33-3c-2-4-2-12 0-17l25-58c3-5 8-7 13-4l43 23c5 3 8 9 8 14v67c0 5-3 11-8 14l-43 23c-5 3-10 1-13-4l-25-58zm-162 58c-2 5-8 7-12 4l-43-23c-5-2-9-9-9-14v-67c0-5 4-11 9-14l43-23c4-2 10-1 12 4l26 58c2 5 2 13 0 17l-26 58zm703 277c3 7 10 9 16 6l94-51c6-3 11-11 11-18V678c0-6-5-15-11-18l-94-50c-6-4-13-1-16 5l-53 119c-3 6-3 16 0 22l53 119zm-314-275c-3-6 0-13 6-17l126-68c6-3 16-3 22 0l127 68c6 4 8 11 6 17l-53 119c-3 6-11 11-17 11h-147c-7 0-15-5-18-11l-52-119zm287 290c3 6 0 14-6 17l-127 69c-6 3-16 3-22 0l-126-69c-6-3-9-11-6-17l52-118c3-6 11-11 18-11h147c7 0 14 5 17 11l53 118zm-262-156c3 6 3 16 0 23l-53 118c-2 7-10 9-15 6l-94-51c-6-3-11-11-11-18V678c0-6 5-15 11-18l94-50c5-4 13-1 15 5l53 119zm9 1066c3-7 3-17 0-23l-62-138c-3-6-10-9-16-5l-110 59c-6 3-11 11-11 18v155c0 6 5 15 11 18l110 59c6 4 13 1 16-5l62-138zm216 4c7 0 15 5 17 11l62 138c2 6 0 13-6 17l-148 79c-6 4-16 4-22 0l-148-79c-6-4-8-11-5-17l61-138c3-6 10-11 17-11h172zm232-111c6 3 11 11 11 18v154c0 7-5 15-11 19l-110 59c-6 4-13 1-16-5l-62-138c-3-6-3-17 0-23l62-138c3-6 10-9 16-5l110 59zm-482-69c-3-6-1-14 5-17l148-80c6-3 16-3 22 0l148 80c6 3 8 11 6 17l-62 138c-2 6-10 11-17 11h-172c-7 0-15-5-17-11l-61-138zm-315 380c-2-4-7-6-12-4l-81 44c-5 2-9 9-9 14v115c0 5 4 12 9 14l81 44c5 3 10 1 12-4l46-103c2-4 2-12 0-17l-46-103zm267 235c2 5 0 11-4 13l-109 59c-5 3-13 3-17 0l-109-59c-5-2-7-8-5-13l45-102c3-5 9-8 14-8h127c5 0 11 3 13 8l45 102zm-185-136c-5 0-11-4-14-9l-45-102c-2-5 0-11 5-13l109-59c4-2 12-2 17 0l109 59c4 2 6 8 4 13l-45 102c-2 5-8 9-13 9h-127zm162 21c-2-4-2-12 0-17l46-103c2-4 8-6 12-4l82 44c4 2 8 9 8 14v115c0 5-4 12-8 14l-82 44c-4 3-10 1-12-4l-46-103z"/></svg>
