<svg width="2966" height="2283" viewBox="0 0 2966 2283" fill="none" xmlns="http://www.w3.org/2000/svg">
<path fill-rule="evenodd" clip-rule="evenodd" d="M1892.79 251.106C1892.79 251.106 1891.49 103.506 1981.19 79.2064L2267.59 1.50643C2267.59 1.50643 2357.39 -22.8936 2358.69 124.706L2361.79 466.906C2361.79 466.906 2363.09 614.506 2296.69 632.506C2296.69 632.506 2273.29 638.806 2250.79 634.706L1999.09 588.606C1999.09 588.606 1907.79 588.006 1906.49 440.406L1892.79 251.106ZM1505.59 185.906C1542.49 201.105 1574.59 220.905 1565.29 254.305C1565.29 254.305 1542.89 331.905 1533.59 367.805C1526.79 394.005 1500.79 410.206 1444.49 389.505C1444.49 389.505 1324.79 341.105 1278.69 321.805C1218.49 296.605 1213.79 265.206 1233.79 244.605C1233.79 244.605 1294.69 180.005 1315.09 158.605C1345.29 126.906 1362.29 128.206 1414.09 149.006C1414.09 149.052 1428.79 154.957 1446.83 162.213L1446.86 162.225L1446.87 162.228C1467.85 170.659 1493.34 180.909 1505.59 185.906ZM1453.59 1369.41C1490.49 1384.61 1522.59 1404.41 1513.29 1437.81C1513.29 1437.81 1490.89 1515.41 1481.59 1551.31C1474.79 1577.51 1448.79 1593.71 1392.49 1573.01C1392.49 1573.01 1272.79 1524.61 1226.69 1505.31C1166.49 1480.11 1161.79 1448.71 1181.79 1428.11C1181.79 1428.11 1242.69 1363.51 1263.09 1342.11C1293.29 1310.41 1310.29 1311.71 1362.09 1332.51C1362.09 1332.55 1376.34 1338.28 1394.01 1345.38L1394.14 1345.43L1394.58 1345.61L1394.63 1345.63L1394.78 1345.69L1394.87 1345.73C1415.85 1354.16 1441.34 1364.41 1453.59 1369.41ZM1518.99 661.506C1494.69 636.806 1461.49 654.806 1429.99 679.306C1410.59 694.406 1352.59 740.306 1352.59 740.306C1308.69 774.906 1299.09 789.006 1311.59 831.006C1319.99 859.406 1345.79 944.306 1345.79 944.306C1353.69 971.806 1383.29 983.406 1435.09 943.706C1474.69 913.306 1576.19 833.506 1576.19 833.506C1622.09 795.006 1621.09 764.306 1601.69 745.406C1575.19 719.606 1518.99 661.506 1518.99 661.506ZM726.194 694.607C676.394 686.407 628.794 686.507 616.594 728.707C616.594 728.707 589.294 827.107 575.494 871.807C565.394 904.507 582.794 939.207 656.994 954.207C656.994 954.207 817.894 981.407 880.194 991.207C961.694 1004.01 987.494 973.307 979.694 937.907C979.694 937.907 956.994 828.107 949.194 791.507C937.594 737.307 918.594 727.507 848.994 715.607C848.994 715.607 756.994 699.607 726.194 694.607ZM1808.09 1081.11C1820.29 1038.91 1867.89 1038.81 1917.69 1047.01C1948.39 1052.01 2040.49 1068.01 2040.49 1068.01C2110.09 1079.91 2129.09 1089.71 2140.69 1143.91C2148.49 1180.51 2171.19 1290.31 2171.19 1290.31C2178.99 1325.71 2153.19 1356.41 2071.69 1343.61C2009.39 1333.81 1848.49 1306.61 1848.49 1306.61C1774.29 1291.61 1756.89 1256.91 1766.99 1224.21C1780.79 1179.51 1808.09 1081.11 1808.09 1081.11ZM352.794 474.106C402.894 467.806 448.494 454.306 448.194 410.406C448.194 410.406 446.494 308.306 447.094 261.506C447.494 227.306 421.094 198.906 345.594 205.506C345.594 205.506 183.594 224.906 121.094 233.206C39.3942 244.006 23.1942 280.806 40.7943 312.506C40.7943 312.506 93.5942 411.406 111.494 444.306C137.894 493.006 158.994 497.006 229.094 488.706C229.094 488.806 321.894 478.006 352.794 474.106ZM57.194 1123.21C65.194 1149.41 102.794 1147.91 142.494 1141.21C166.994 1137.01 240.394 1124.01 240.294 1124.01C295.794 1114.21 311.194 1107.41 322.394 1072.91C329.894 1049.61 351.994 979.607 351.994 979.607C359.494 957.107 340.294 938.507 275.394 949.207C225.794 957.407 97.594 979.707 97.594 979.707C38.394 991.607 23.394 1014.01 30.094 1034.31C39.294 1062.01 57.194 1123.21 57.194 1123.21ZM124.994 1758.71C86.2943 1747.81 51.5943 1733.01 55.5943 1705.91C55.5943 1705.91 65.6943 1643.01 69.2943 1614.01C71.8943 1592.81 95.0943 1579.01 153.694 1593.61C153.694 1593.61 279.094 1628.41 327.394 1642.21C390.594 1660.41 400.094 1685.41 383.594 1702.51C383.594 1702.51 333.694 1756.31 316.894 1774.11C291.994 1800.51 275.094 1800.01 220.794 1785.11C220.794 1785.11 148.894 1765.41 124.994 1758.71ZM136.794 1235.21C153.694 1176.31 220.294 1176.11 289.894 1187.51C332.794 1194.51 461.494 1216.81 461.494 1216.91C558.794 1233.51 585.494 1247.31 601.594 1323.01C612.494 1374.11 644.194 1527.71 644.194 1527.71C655.194 1577.21 619.094 1620.11 505.194 1602.31C418.094 1588.61 193.294 1550.61 193.294 1550.61C89.594 1529.61 65.294 1481.11 79.394 1435.41C98.694 1372.81 136.794 1235.21 136.794 1235.21ZM1990.79 626.207C1918.29 614.307 1848.89 614.507 1831.19 675.907C1831.19 675.907 1791.49 819.207 1771.39 884.407C1756.69 932.007 1781.99 982.507 1890.09 1004.51C1890.09 1004.51 2124.49 1044.11 2215.29 1058.31C2333.99 1076.91 2371.59 1032.21 2360.19 980.607C2360.19 980.607 2327.09 820.607 2315.79 767.307C2298.99 688.407 2271.19 674.007 2169.79 656.807C2169.78 656.807 2165.41 656.053 2157.99 654.774L2157.57 654.701L2157.24 654.645L2157.14 654.628C2122.67 648.683 2027.22 632.223 1990.79 626.207ZM482.994 568.906C463.994 514.006 399.194 515.506 331.894 528.006C290.394 535.706 165.994 559.906 165.994 559.906C71.9943 577.906 46.5943 591.506 34.0943 663.006C25.5943 711.206 1.1943 856.106 1.1943 856.106C-7.4057 902.806 29.5943 942.206 139.694 922.506C223.894 907.506 441.194 866.206 441.194 866.206C541.394 843.806 562.894 797.706 547.294 755.206C525.894 697.006 482.994 568.906 482.994 568.906ZM1596.79 1317.11C1596.79 1317.11 1508.39 1373.01 1464.59 1314.41L1324.69 1127.51C1324.69 1127.51 1280.79 1068.91 1369.19 1013.01L1574.09 883.406C1574.09 883.406 1662.49 827.506 1694.89 870.906C1694.89 870.906 1706.29 886.106 1711.09 904.606L1765.19 1111.51C1765.19 1111.51 1794.49 1180.51 1706.19 1236.41L1596.79 1317.11ZM873.294 562.906C857.494 646.206 978.594 698.206 978.594 698.206L1138.79 754.906C1259.79 806.906 1296.59 731.206 1296.59 731.206L1434.39 538.506C1446.69 521.306 1450.79 499.606 1450.79 499.606C1462.49 438.006 1341.39 386.006 1341.39 386.006L1060.59 265.506C939.494 213.506 923.694 296.906 923.694 296.906L873.294 562.906ZM776.594 1786.81C776.594 1786.81 864.694 1859.71 825.294 1925.41L699.594 2135.11C699.594 2135.11 660.194 2200.81 572.094 2127.91L367.894 1958.81C367.894 1958.81 279.794 1885.91 308.994 1837.21C308.994 1837.21 319.294 1820.11 335.194 1808.71L513.394 1681.61C513.394 1681.61 568.494 1627.51 656.494 1700.41L776.594 1786.81ZM2129.19 1753.21C2139.39 1841.81 2282.49 1869.61 2282.49 1869.61L2467.79 1894.01C2610.89 1921.81 2625.09 1836.61 2625.09 1836.61L2707.29 1610.41C2714.59 1590.21 2711.99 1567.11 2711.99 1567.11C2704.49 1501.61 2561.39 1473.81 2561.39 1473.81L2229.59 1409.41C2086.49 1381.61 2096.69 1470.31 2096.69 1470.31L2129.19 1753.21ZM1703.39 1350.11C1703.39 1350.11 1571.69 1352.61 1554.89 1435.81L1501.29 1701.21C1501.29 1701.21 1484.49 1784.41 1616.19 1781.91L1921.69 1776.11C1921.69 1776.11 2053.39 1773.61 2065.89 1712.11C2065.89 1712.11 2070.29 1690.51 2065.39 1669.91L2010.39 1439.51C2010.39 1439.51 2004.89 1355.61 1873.09 1358.01L1703.39 1350.11ZM864.994 1771.41C849.194 1854.71 970.294 1906.71 970.294 1906.71L1130.49 1963.41C1251.49 2015.41 1288.29 1939.71 1288.29 1939.71L1426.09 1747.01C1438.39 1729.81 1442.49 1708.11 1442.49 1708.11C1454.19 1646.51 1333.09 1594.51 1333.09 1594.51L1052.29 1474.01C931.194 1422.01 915.394 1505.41 915.394 1505.41L864.994 1771.41ZM2558.29 1067.51C2558.29 1067.51 2410.79 1081.01 2391.99 980.006L2331.89 657.606C2331.89 657.606 2313.09 556.606 2460.49 543.006L2802.49 511.606C2802.49 511.606 2949.99 498.106 2963.89 572.806C2963.89 572.806 2968.79 599.106 2963.29 625.206L2901.79 917.906C2901.79 917.906 2895.59 1022.71 2748.19 1036.21L2558.29 1067.51ZM2272.99 1922.81C2235.79 1835.71 2069.59 1830.11 2069.59 1830.11L1857.59 1834.41C1691.39 1828.81 1700.69 1916.11 1700.69 1916.11L1676.19 2154.91C1673.99 2176.21 1683.69 2198.91 1683.69 2198.91C1711.29 2263.31 1877.49 2268.91 1877.49 2268.91L2262.89 2281.91C2429.09 2287.61 2391.79 2200.51 2391.79 2200.51L2272.99 1922.81ZM677.894 1396.11C705.294 1454.21 791.994 1422.51 791.994 1422.51L901.494 1373.51C988.294 1341.81 975.394 1277.51 975.394 1277.51L966.094 1090.91C965.294 1074.21 958.194 1059.11 958.194 1059.11C937.894 1016.11 851.194 1047.81 851.194 1047.81L649.994 1121.21C563.194 1152.81 590.594 1210.91 590.594 1210.91L677.894 1396.11ZM2529.59 1432.21C2529.59 1432.21 2640.59 1441.61 2642.79 1380.31L2649.89 1184.71C2649.89 1184.71 2652.09 1123.41 2541.09 1114.01L2283.69 1092.21C2283.69 1092.21 2172.69 1082.81 2170.99 1128.21C2170.99 1128.21 2170.39 1144.21 2177.49 1160.11L2257.19 1338.61C2257.19 1338.61 2273.99 1402.41 2384.99 1411.81L2529.59 1432.21ZM1665.89 337.807C1605.99 314.707 1565.09 397.507 1565.09 397.507L1519.79 508.607C1478.89 591.407 1532.59 629.007 1532.59 629.007L1668.19 757.607C1680.29 769.107 1695.89 775.107 1695.89 775.107C1740.19 792.207 1781.09 709.407 1781.09 709.407L1875.89 517.407C1916.79 434.607 1856.89 411.507 1856.89 411.507L1665.89 337.807ZM492.994 410.106C492.994 410.106 483.694 318.206 546.694 306.006L747.694 267.006C747.694 267.006 810.694 254.806 819.994 346.706L841.594 559.706C841.594 559.706 850.894 651.606 804.294 660.606C804.294 660.606 787.894 663.806 771.494 660.506L588.294 623.506C588.294 623.506 523.294 612.406 513.494 528.306L492.994 410.106ZM1227.19 1120.01C1200.49 1085.71 1138.39 1121.81 1138.39 1121.81L1060.89 1173.51C998.694 1209.71 1015.09 1250.71 1015.09 1250.71L1041.39 1374.61C1043.79 1385.71 1050.69 1394.61 1050.69 1394.61C1070.39 1420.01 1132.49 1383.91 1132.49 1383.91L1276.59 1300.11C1338.69 1263.91 1312.09 1229.61 1312.09 1229.61L1227.19 1120.01ZM1295.59 968.406C1295.59 968.406 1302.89 1038.81 1254.59 1048.31L1100.49 1078.61C1100.49 1078.61 1052.19 1088.11 1044.89 1017.71L1027.89 854.406C1027.89 854.406 1020.59 784.006 1056.29 777.006C1056.29 777.006 1068.89 774.506 1081.39 777.006L1221.89 805.006C1221.89 805.006 1272.09 807.406 1279.39 877.906L1295.59 968.406ZM1046.99 2198.91C1097.69 2202.21 1105.09 2138.51 1105.09 2138.51L1108.09 2054.91C1115.49 1991.21 1065.39 1977.01 1065.39 1977.01L929.594 1918.71C917.494 1913.41 904.294 1912.61 904.294 1912.61C866.894 1910.21 859.394 1973.91 859.394 1973.91L842.094 2121.61C834.594 2185.31 885.294 2188.51 885.294 2188.51L1046.99 2198.91ZM1664.49 2023.01C1664.49 2023.01 1657.49 2093.51 1608.29 2093.01L1451.29 2091.71C1451.29 2091.71 1402.09 2091.31 1409.09 2020.81L1425.29 1857.41C1425.29 1857.41 1432.29 1786.91 1468.69 1787.31C1468.69 1787.31 1481.49 1787.41 1493.29 1792.41L1625.29 1848.11C1625.29 1848.11 1673.99 1860.61 1666.99 1931.11L1664.49 2023.01ZM678.994 1654.61C643.094 1638.21 659.694 1579.91 659.694 1579.91L686.194 1506.11C702.794 1447.81 741.994 1454.41 741.994 1454.41L854.894 1455.11C864.994 1455.11 874.294 1459.41 874.294 1459.41C900.794 1471.51 884.194 1529.81 884.194 1529.81L845.694 1665.01C829.094 1723.31 793.294 1706.91 793.294 1706.91L678.994 1654.61ZM1315.29 2199.71C1315.29 2199.71 1375.89 2197.51 1380.39 2158.31L1394.89 2033.41C1394.89 2033.41 1399.39 1994.31 1338.89 1996.51L1198.39 2001.61C1198.39 2001.61 1137.79 2003.81 1134.49 2032.81C1134.49 2032.81 1133.29 2043.01 1136.39 2052.61L1170.59 2160.21C1170.59 2160.21 1176.39 2199.51 1236.99 2197.31L1315.29 2199.71ZM593.694 985.706C625.994 1008.41 598.994 1062.71 598.994 1062.71L559.494 1130.51C532.494 1184.81 495.194 1171.11 495.194 1171.11L384.294 1149.81C374.394 1147.91 365.994 1142.01 365.994 1142.01C342.094 1125.21 369.094 1070.91 369.094 1070.91L431.594 945.006C458.594 890.706 490.794 913.406 490.794 913.406L593.694 985.706Z" fill="#0F69AF"/>
</svg>
