<svg viewBox="0 0 8000 8000" fill="none"
  xmlns="http://www.w3.org/2000/svg">
  <path fill-rule="evenodd" clip-rule="evenodd" d="M8000 0H0V8000H8000V0ZM4199.28 3575.28C4163.4 3585 4163.92 3644.04 4163.92 3644.04L4169.4 3719.76C4169.92 3778.8 4206.44 3779.04 4206.44 3779.04L4307.12 3797.48C4316.12 3799.12 4325.48 3796.6 4325.48 3796.6C4352.04 3789.4 4351.52 3730.36 4351.52 3730.36L4350.28 3593.48C4349.76 3534.44 4313.84 3544.2 4313.84 3544.2L4199.28 3575.28ZM4032.92 3645.32C4036.64 3631.96 4023.8 3624.04 4009.04 3617.96C4004.14 3615.96 3993.94 3611.86 3985.55 3608.49L3985.53 3608.48L3985.52 3608.48L3985.48 3608.46C3978.28 3605.57 3972.44 3603.22 3972.44 3603.2C3951.72 3594.88 3944.92 3594.36 3932.84 3607.04C3924.68 3615.6 3900.32 3641.44 3900.32 3641.44C3892.32 3649.68 3894.2 3662.24 3918.28 3672.32C3936.72 3680.04 3984.6 3699.4 3984.6 3699.4C4007.12 3707.68 4017.52 3701.2 4020.24 3690.72C4023.96 3676.36 4032.92 3645.32 4032.92 3645.32ZM4012.12 4118.72C4015.84 4105.36 4003 4097.44 3988.24 4091.36C3983.34 4089.36 3973.13 4085.26 3964.74 4081.89L3964.72 4081.88L3964.64 4081.85L3964.54 4081.81L3964.46 4081.78L3964.35 4081.73C3957.31 4078.9 3951.64 4076.62 3951.64 4076.6C3930.92 4068.28 3924.12 4067.76 3912.04 4080.44C3903.88 4089 3879.52 4114.84 3879.52 4114.84C3871.52 4123.08 3873.4 4135.64 3897.48 4145.72C3915.92 4153.44 3963.8 4172.8 3963.8 4172.8C3986.32 4181.08 3996.72 4174.6 3999.44 4164.12C4003.16 4149.76 4012.12 4118.72 4012.12 4118.72ZM3978.8 3815.32C3991.4 3805.52 4004.68 3798.32 4014.4 3808.2C4014.4 3808.2 4036.88 3831.44 4047.48 3841.76C4055.24 3849.32 4055.64 3861.6 4037.28 3877C4037.28 3877 3996.68 3908.92 3980.84 3921.08C3960.12 3936.96 3948.28 3932.32 3945.12 3921.32C3945.12 3921.32 3934.8 3887.36 3931.44 3876C3926.44 3859.2 3930.28 3853.56 3947.84 3839.72C3947.84 3839.72 3971.04 3821.36 3978.8 3815.32ZM3653.44 3835.08C3658.32 3818.2 3677.36 3818.16 3697.28 3821.44C3709.6 3823.44 3746.4 3829.84 3746.4 3829.84C3774.24 3834.6 3781.84 3838.52 3786.48 3860.2C3789.6 3874.84 3798.68 3918.76 3798.68 3918.76C3801.8 3932.92 3791.48 3945.2 3758.88 3940.08C3733.96 3936.16 3669.6 3925.28 3669.6 3925.28C3639.92 3919.28 3632.96 3905.4 3637 3892.32C3642.52 3874.44 3653.44 3835.08 3653.44 3835.08ZM4173.88 3962.4C4153.96 3959.12 4134.92 3959.16 4130.04 3976.04C4130.04 3976.04 4119.12 4015.4 4113.6 4033.28C4109.56 4046.36 4116.52 4060.24 4146.2 4066.24C4146.2 4066.24 4210.56 4077.12 4235.48 4081.04C4268.08 4086.16 4278.4 4073.88 4275.28 4059.72C4275.28 4059.72 4266.2 4015.8 4263.08 4001.16C4258.44 3979.48 4250.84 3975.56 4223 3970.8C4223 3970.8 4186.16 3964.4 4173.88 3962.4ZM3586.08 3707.76C3586.2 3725.32 3567.96 3730.72 3547.92 3733.24C3535.56 3734.8 3498.44 3739.12 3498.44 3739.08C3470.4 3742.4 3461.96 3740.8 3451.4 3721.32C3444.24 3708.16 3423.12 3668.6 3423.12 3668.6C3416.08 3655.92 3422.56 3641.2 3455.24 3636.88C3480.24 3633.56 3545.04 3625.8 3545.04 3625.8C3575.24 3623.16 3585.8 3634.52 3585.64 3648.2C3585.4 3666.92 3586.08 3707.76 3586.08 3707.76ZM3463.8 4000.08C3447.92 4002.76 3432.88 4003.36 3429.68 3992.88C3429.68 3992.88 3422.52 3968.4 3418.84 3957.32C3416.16 3949.2 3422.16 3940.24 3445.84 3935.48C3445.84 3935.48 3497.12 3926.56 3516.96 3923.28C3542.92 3919 3550.6 3926.44 3547.6 3935.44C3547.6 3935.44 3538.76 3963.44 3535.76 3972.76C3531.28 3986.56 3525.12 3989.28 3502.92 3993.2C3502.96 3993.2 3473.6 3998.4 3463.8 4000.08ZM3429.04 4225.96C3427.44 4236.8 3441.32 4242.72 3456.8 4247.08C3466.36 4249.76 3495.12 4257.64 3495.12 4257.64C3516.84 4263.6 3523.6 4263.8 3533.56 4253.24C3540.28 4246.12 3560.24 4224.6 3560.24 4224.6C3566.84 4217.76 3563.04 4207.76 3537.76 4200.48C3518.44 4194.96 3468.28 4181.04 3468.28 4181.04C3444.84 4175.2 3435.56 4180.72 3434.52 4189.2C3433.08 4200.8 3429.04 4225.96 3429.04 4225.96ZM3522.76 4018.6C3494.92 4014.04 3468.28 4014.12 3461.52 4037.68C3461.52 4037.68 3446.28 4092.72 3438.56 4117.76C3432.92 4136.04 3442.64 4155.44 3484.12 4163.84C3484.12 4163.84 3574.04 4179.04 3608.88 4184.52C3654.44 4191.64 3668.88 4174.48 3664.48 4154.68C3664.48 4154.68 3651.8 4093.24 3647.44 4072.8C3641 4042.52 3630.32 4037 3591.4 4030.36C3591.4 4030.32 3539.92 4021.4 3522.76 4018.6ZM4139.28 3813.96C4146.36 3789.4 4174.12 3789.32 4203.12 3794.08C4217.68 3796.49 4255.83 3803.07 4269.64 3805.45L4269.65 3805.45L4269.7 3805.46C4272.84 3806 4274.71 3806.32 4274.72 3806.32C4315.28 3813.2 4326.4 3818.96 4333.12 3850.52C4337.64 3871.84 4350.88 3935.84 4350.88 3935.84C4355.44 3956.48 4340.4 3974.36 4292.92 3966.92C4256.6 3961.24 4162.84 3945.4 4162.84 3945.4C4119.6 3936.6 4109.48 3916.4 4115.36 3897.36C4123.4 3871.28 4139.28 3813.96 4139.28 3813.96ZM3539.56 3754.8C3566.48 3749.8 3592.4 3749.2 3600 3771.16C3600 3771.16 3617.16 3822.4 3625.72 3845.68C3631.96 3862.68 3623.36 3881.12 3583.28 3890.08C3583.28 3890.08 3496.36 3906.6 3462.68 3912.6C3418.64 3920.48 3403.84 3904.72 3407.28 3886.04C3407.28 3886.04 3417.04 3828.08 3420.44 3808.8C3425.44 3780.2 3435.6 3774.76 3473.2 3767.56C3473.2 3767.56 3522.96 3757.88 3539.56 3754.8ZM3992.64 4069.36C4010.16 4092.8 4045.52 4070.44 4045.52 4070.44L4089.28 4038.16C4124.6 4015.8 4112.88 3988.2 4112.88 3988.2L4091.24 3905.44C4089.32 3898.04 4084.76 3891.96 4084.76 3891.96C4071.8 3874.6 4036.44 3896.96 4036.44 3896.96L3954.48 3948.8C3919.12 3971.16 3936.68 3994.6 3936.68 3994.6L3992.64 4069.36ZM3798.24 3822.88C3798.24 3822.88 3749.8 3802.08 3756.12 3768.76L3776.28 3662.36C3776.28 3662.36 3782.6 3629 3831.04 3649.8L3943.36 3698C3943.36 3698 3991.8 3718.8 3987.12 3743.44C3987.12 3743.44 3985.48 3752.12 3980.56 3759L3925.44 3836.08C3925.44 3836.08 3910.72 3866.36 3862.32 3845.56L3798.24 3822.88ZM3736.92 4313.76C3752.68 4287.48 3717.44 4258.32 3717.44 4258.32L3669.4 4223.76C3634.2 4194.6 3612.16 4216.24 3612.16 4216.24L3540.88 4267.08C3534.52 4271.64 3530.4 4278.48 3530.4 4278.48C3518.72 4297.96 3553.96 4327.12 3553.96 4327.12L3635.64 4394.76C3670.88 4423.92 3686.64 4397.64 3686.64 4397.64L3736.92 4313.76ZM4319.8 4291.44C4319.8 4291.44 4262.56 4280.32 4258.48 4244.88L4245.48 4131.72C4245.48 4131.72 4241.4 4096.24 4298.64 4107.36L4431.36 4133.12C4431.36 4133.12 4488.6 4144.24 4491.6 4170.44C4491.6 4170.44 4492.64 4179.68 4489.72 4187.76L4456.84 4278.24C4456.84 4278.24 4451.16 4312.32 4393.92 4301.2L4319.8 4291.44ZM4028.76 4117.92C4035.48 4084.64 4088.16 4083.64 4088.16 4083.64L4156.04 4086.8C4208.76 4085.84 4210.96 4119.4 4210.96 4119.4L4232.96 4211.56C4234.92 4219.8 4233.16 4228.44 4233.16 4228.44C4228.16 4253.04 4175.48 4254.04 4175.48 4254.04L4053.28 4256.36C4000.6 4257.36 4007.32 4224.08 4007.32 4224.08L4028.76 4117.92ZM3794.92 4306.28C3794.92 4306.28 3746.48 4285.48 3752.8 4252.16L3772.96 4145.76C3772.96 4145.76 3779.28 4112.4 3827.72 4133.2L3940.04 4181.4C3940.04 4181.4 3988.48 4202.2 3983.8 4226.84C3983.8 4226.84 3982.16 4235.52 3977.24 4242.4L3922.12 4319.48C3922.12 4319.48 3907.4 4349.76 3859 4328.96L3794.92 4306.28ZM4363.6 3935.6C4371.12 3976 4430.12 3970.6 4430.12 3970.6L4506.08 3958.08C4565.04 3952.68 4567.52 3910.76 4567.52 3910.76L4592.12 3793.68C4594.32 3783.24 4592.36 3772.72 4592.36 3772.72C4586.8 3742.84 4527.8 3748.24 4527.8 3748.24L4391 3760.8C4332.04 3766.24 4339.56 3806.64 4339.56 3806.64L4363.6 3935.6ZM4234.64 4275.64C4234.64 4275.64 4301.12 4277.88 4316 4312.72L4363.52 4423.8C4363.52 4423.8 4378.44 4458.64 4311.96 4456.36L4157.8 4451.16C4157.8 4451.16 4091.32 4448.92 4080.28 4423.16C4080.28 4423.16 4076.4 4414.08 4077.28 4405.56L4087.08 4310.04C4087.08 4310.04 4083.36 4275.12 4149.84 4277.36L4234.64 4275.64ZM3723.6 4112.6C3723.6 4112.6 3688.92 4125.28 3677.96 4102.04L3643.04 4027.96C3643.04 4027.96 3632.08 4004.72 3666.8 3992.08L3747.28 3962.72C3747.28 3962.72 3781.96 3950.04 3790.08 3967.24C3790.08 3967.24 3792.92 3973.28 3793.24 3979.96L3796.96 4054.6C3796.96 4054.6 3802.12 4080.32 3767.4 4093L3723.6 4112.6ZM4463.92 4095.72C4463.04 4120.24 4418.64 4116.48 4418.64 4116.48L4360.8 4108.32C4316.4 4104.56 4309.68 4079.04 4309.68 4079.04L4277.8 4007.64C4274.96 4001.28 4275.2 3994.88 4275.2 3994.88C4275.88 3976.72 4320.28 3980.48 4320.28 3980.48L4423.24 3989.2C4467.64 3992.96 4466.76 4017.48 4466.76 4017.48L4463.92 4095.72ZM4032.84 3702.6C4032.84 3702.6 4049.2 3669.48 4073.16 3678.72L4149.56 3708.2C4149.56 3708.2 4173.52 3717.44 4157.16 3750.56L4119.24 3827.36C4119.24 3827.36 4102.88 3860.48 4085.16 3853.64C4085.16 3853.64 4078.92 3851.24 4074.08 3846.64L4019.84 3795.2C4019.84 3795.2 3998.36 3780.16 4014.72 3747.04L4032.84 3702.6ZM3625.48 3666C3600.28 3670.88 3604 3707.64 3604 3707.64L3612.2 3754.92C3616.12 3788.56 3642.12 3793 3642.12 3793L3715.4 3807.8C3721.96 3809.12 3728.52 3807.84 3728.52 3807.84C3747.16 3804.24 3743.44 3767.48 3743.44 3767.48L3734.8 3682.28C3731.08 3645.52 3705.88 3650.4 3705.88 3650.4L3625.48 3666ZM3862.16 3992.32C3862.16 3992.32 3887 3977.88 3897.68 3991.6L3931.64 4035.44C3931.64 4035.44 3942.28 4049.16 3917.44 4063.64L3859.8 4097.16C3859.8 4097.16 3834.96 4111.6 3827.08 4101.44C3827.08 4101.44 3824.32 4097.88 3823.36 4093.44L3812.84 4043.88C3812.84 4043.88 3806.28 4027.48 3831.16 4013L3862.16 3992.32ZM3908.64 3962.92C3927.96 3959.12 3925.04 3930.96 3925.04 3930.96L3918.56 3894.76C3915.64 3866.56 3895.56 3865.6 3895.56 3865.6L3839.36 3854.4C3834.36 3853.4 3829.32 3854.4 3829.32 3854.4C3815.04 3857.2 3817.96 3885.36 3817.96 3885.36L3824.76 3950.68C3827.68 3978.84 3847 3975.04 3847 3975.04L3908.64 3962.92ZM3848.84 4399C3848.84 4399 3845.88 4424.48 3825.6 4423.16L3760.92 4419C3760.92 4419 3740.64 4417.72 3743.64 4392.24L3750.56 4333.16C3750.56 4333.16 3753.56 4307.68 3768.52 4308.64C3768.52 4308.64 3773.8 4308.96 3778.64 4311.08L3832.96 4334.4C3832.96 4334.4 3853 4340.08 3850.04 4365.56L3848.84 4399ZM4050.12 4380.8C4069.8 4381 4072.6 4352.8 4072.6 4352.8L4073.6 4316.04C4076.4 4287.84 4056.92 4282.84 4056.92 4282.84L4004.12 4260.56C3999.4 4258.56 3994.28 4258.52 3994.28 4258.52C3979.72 4258.36 3976.92 4286.56 3976.92 4286.56L3970.44 4351.92C3967.64 4380.12 3987.32 4380.28 3987.32 4380.28L4050.12 4380.8ZM3670.68 4175.56C3670.68 4175.56 3664.04 4198.88 3678.4 4205.44L3724.12 4226.36C3724.12 4226.36 3738.44 4232.92 3745.08 4209.6L3760.48 4155.52C3760.48 4155.52 3767.12 4132.2 3756.52 4127.36C3756.52 4127.36 3752.8 4125.64 3748.76 4125.64L3703.6 4125.36C3703.6 4125.36 3687.92 4122.72 3681.28 4146.04L3670.68 4175.56ZM3958.96 4406.92C3957.16 4422.6 3932.92 4423.48 3932.92 4423.48L3901.6 4422.52C3877.36 4423.4 3875.04 4407.68 3875.04 4407.68L3861.36 4364.64C3860.12 4360.8 3860.6 4356.72 3860.6 4356.72C3861.92 4345.12 3886.16 4344.24 3886.16 4344.24L3942.36 4342.2C3966.56 4341.32 3964.76 4356.96 3964.76 4356.96L3958.96 4406.92ZM3646.4 3968.68C3646.4 3968.68 3657.2 3946.96 3644.28 3937.88L3603.12 3908.96C3603.12 3908.96 3590.24 3899.88 3579.44 3921.6L3554.44 3971.96C3554.44 3971.96 3543.64 3993.68 3553.2 4000.4C3553.2 4000.4 3556.56 4002.76 3560.52 4003.52L3604.88 4012.04C3604.88 4012.04 3619.8 4017.52 3630.6 3995.8L3646.4 3968.68Z" fill="black"/>
</svg>
