<svg width="3884" height="2861" viewBox="0 0 3884 2861" fill="none" xmlns="http://www.w3.org/2000/svg">
<path fill-rule="evenodd" clip-rule="evenodd" d="M2863.21 952.101C2847.45 924.679 2860.37 902.229 2892.05 902.229L3533.13 901.661C3564.81 901.661 3603.73 879.212 3619.5 851.79L3822.07 500.702C3837.98 473.28 3837.98 428.381 3822.07 400.959L3619.5 49.8712C3603.73 22.4492 3564.81 0 3533.13 0H3127.86C3096.18 0 3057.26 22.4492 3041.49 50.0133L2838.92 401.101C2823.01 428.523 2823.01 473.422 2838.92 500.844L3015.21 806.891C3030.98 834.314 3018.05 856.763 2986.37 856.763L2513.2 857.473C2481.52 857.473 2442.74 879.922 2426.83 907.344L2307.93 1113.37C2292.02 1140.79 2292.02 1185.69 2307.93 1213.11L2426.83 1419.13C2442.6 1446.55 2481.52 1469 2513.2 1469H2750.99C2782.67 1469 2821.45 1446.55 2837.36 1419.13L2956.26 1213.11C2972.17 1185.69 2972.17 1140.79 2956.26 1113.37L2863.21 952.101ZM2812.05 2741.15L2772.13 2671.91C2766.87 2662.67 2753.8 2655.13 2743.15 2655.13H2663.16C2652.51 2655.13 2639.44 2662.67 2634.18 2671.91L2602.93 2726.08C2597.67 2735.32 2588.86 2735.32 2583.6 2726.08L2509.3 2597.69L2480.32 2547.51C2480.18 2547.36 2480.04 2547.22 2479.89 2546.94L2475.63 2539.54C2470.23 2530.3 2457.3 2522.77 2446.65 2522.77H2424.2C2423.76 2522.77 2423.27 2522.73 2422.81 2522.69C2422.39 2522.66 2421.98 2522.63 2421.64 2522.63H2344.79C2329.02 2522.63 2322.62 2511.39 2330.44 2497.75L2489.55 2221.36C2497.37 2207.71 2497.37 2185.39 2489.55 2171.74L2388.83 1997.15C2387.97 1995.73 2387.12 1994.45 2386.13 1993.17C2377.46 1980.66 2359.56 1970.85 2344.64 1970.85H2319.21H2192.77C2169.61 1970.85 2161.37 1957.48 2172.88 1937.44L2406.44 1531.81C2417.95 1511.77 2417.95 1478.93 2406.44 1458.88L2258.69 1202.4C2247.18 1182.35 2218.77 1166 2195.61 1166H1899.82C1876.67 1166 1848.39 1182.35 1836.74 1202.4L1688.85 1458.74C1677.34 1478.78 1677.34 1511.63 1688.85 1531.67L1836.74 1788.01C1848.25 1808.06 1876.67 1824.41 1899.82 1824.41L2157.54 1824.69C2180.69 1824.69 2190.07 1841.04 2178.56 1861.09L2114.63 1972.41L2011.77 2147.85C2003.96 2161.5 1991.03 2161.5 1983.08 2147.85L1925.54 2049.47L1860.47 1936.73C1855.07 1927.48 1841.86 1919.81 1831.2 1919.81H1693.82C1683.03 1919.81 1669.96 1927.48 1664.56 1936.73L1604.6 2040.51C1599.2 2049.75 1590.4 2049.75 1585.14 2040.51L1511.12 1913.41L1501.6 1896.78C1497.91 1890.52 1489.1 1885.4 1481.86 1885.4H1388.94C1381.7 1885.4 1372.75 1890.52 1369.19 1896.78L1322.74 1977.25C1319.04 1983.5 1319.04 1993.88 1322.74 2000.14L1362.8 2070.09C1366.5 2076.34 1363.94 2081.74 1356.55 2081.74L1302 2081.89L1247.44 2081.32C1240.2 2081.32 1231.24 2086.44 1227.55 2092.83L1200.27 2140.18C1196.58 2146.43 1196.58 2156.81 1200.27 2163.07L1221.73 2200.17C1225.42 2206.43 1222.44 2211.69 1215.05 2211.69L1108.64 2211.83H1085.48H1084.91H1067.72C1060.48 2211.83 1051.53 2216.95 1047.83 2223.35L1044.99 2228.18C1044.92 2228.25 1044.85 2228.36 1044.78 2228.47C1044.71 2228.57 1044.64 2228.68 1044.57 2228.75L1012.88 2283.63C1007.49 2293.01 998.677 2293.01 993.279 2283.63L884.169 2094.82C878.771 2085.44 865.558 2077.91 854.761 2077.91H716.953C706.156 2077.91 692.944 2085.58 687.545 2094.82L635.69 2184.68V2184.82C627.734 2198.47 615.8 2198.9 607.844 2185.25L447.59 1908.15C439.634 1894.5 420.312 1883.27 404.543 1883.27H202.378C186.608 1883.27 167.145 1894.5 159.189 1908.15L58.0354 2083.45C50.0794 2097.1 50.0794 2119.56 58.0354 2133.21L149.386 2289.32L219.426 2411.16C227.382 2424.81 221.983 2435.76 206.072 2435.76H102.077C91.2796 2435.76 78.2092 2443.43 72.8105 2452.68L4.04892 2571.82C-1.34964 2581.06 -1.34964 2596.41 4.04892 2605.66L72.8105 2724.8C78.2092 2734.18 91.4216 2741.72 102.077 2741.72H239.458C250.255 2741.72 263.326 2734.04 268.724 2724.8L328.678 2621.01C334.076 2611.77 342.885 2611.77 348.141 2621.01L428.552 2759.91C433.951 2769.16 447.164 2776.83 457.819 2776.83H538.514C549.312 2776.83 562.382 2769.16 567.781 2759.91L608.128 2689.96C613.527 2680.72 613.527 2665.37 608.128 2656.13L567.781 2586.18C562.382 2576.94 549.169 2569.26 538.514 2569.26H457.819C447.021 2569.26 433.809 2576.94 428.552 2586.18L397.013 2640.91C391.614 2650.16 382.806 2650.16 377.55 2640.91L278.243 2469.17L215.448 2358.98C207.492 2345.19 214.028 2333.96 229.797 2334.1L406.39 2333.96C422.301 2333.96 441.623 2322.73 449.579 2308.94L522.034 2183.4L537.946 2156.67C545.902 2143.02 556.699 2141.88 564.655 2155.67L666.519 2330.97L687.545 2367.37C692.944 2376.76 706.156 2384.29 716.953 2384.29H854.761C865.558 2384.29 878.771 2376.61 884.169 2367.37L944.265 2263.3C949.663 2253.92 958.471 2253.92 963.87 2263.3L1037.04 2388.98C1037.09 2389.09 1037.16 2389.19 1037.24 2389.31C1037.37 2389.5 1037.52 2389.71 1037.6 2389.98L1047.69 2407.46C1051.38 2413.72 1060.34 2418.98 1067.58 2418.98H1088.47H1153.39H1160.64C1167.88 2418.98 1176.83 2413.86 1180.53 2407.46L1227.12 2326.71C1230.82 2320.45 1230.82 2310.08 1227.12 2303.82L1220.73 2292.73L1199.14 2255.2L1186.64 2233.44C1182.94 2227.19 1185.92 2221.93 1193.31 2221.93H1237.07L1302.56 2222.07C1309.81 2222.07 1318.76 2216.95 1322.31 2210.7L1349.59 2163.49C1353.28 2157.24 1353.28 2146.86 1349.59 2140.6L1328.28 2103.64C1324.58 2097.38 1327.57 2092.26 1334.81 2092.26L1435.82 2092.12H1475.46H1476.46H1481.71C1488.96 2092.12 1497.91 2087 1501.46 2080.75L1503.88 2076.63C1504.16 2076.2 1504.44 2075.77 1504.73 2075.2L1536.27 2020.47C1541.67 2011.23 1550.47 2011.23 1555.73 2020.47L1664.56 2208.71C1669.96 2217.95 1683.17 2225.62 1693.82 2225.62H1831.2C1842 2225.62 1855.07 2217.95 1860.47 2208.71L1912.18 2118.99V2118.85C1920 2105.2 1931.93 2104.92 1939.89 2118.57L1983.93 2191.93L2082.1 2363.25L2087.78 2373.34C2088.07 2373.77 2088.35 2374.2 2088.63 2374.76L2100.85 2396.09C2108.67 2409.74 2128.13 2420.97 2143.76 2420.97L2319.35 2421.11C2335.12 2421.11 2341.52 2432.34 2333.7 2445.99L2227.72 2631.25C2227.63 2631.43 2227.53 2631.62 2227.42 2631.83C2227.18 2632.27 2226.92 2632.75 2226.73 2633.24L2212.66 2657.69C2207.4 2666.93 2207.4 2682 2212.66 2691.24L2280.71 2809.25C2285.97 2818.49 2299.04 2826.03 2309.69 2826.03H2318.22H2436.56H2445.94C2456.59 2826.03 2469.66 2818.49 2474.92 2809.25L2534.31 2706.46C2539.7 2697.22 2548.37 2697.22 2553.63 2706.46L2633.33 2844.22C2638.58 2853.46 2651.66 2861 2662.31 2861H2742.3C2752.95 2861 2766.02 2853.46 2771.28 2844.22L2811.2 2774.98C2817.45 2765.46 2817.45 2750.39 2812.05 2741.15ZM3880.68 1816.22L3847.58 1759.01C3843.17 1751.34 3832.37 1745.09 3823.57 1745.09H3757.5C3748.69 1745.09 3737.89 1751.34 3733.49 1759.01L3700.39 1816.22C3695.98 1823.89 3695.98 1836.24 3700.39 1843.91L3726.24 1888.63C3730.65 1896.3 3727.1 1902.55 3718.29 1902.55L3592.7 1902.69H3547.8H3546.8H3540.27C3531.46 1902.69 3520.66 1908.94 3516.26 1916.6L3513.42 1921.43C3513.2 1921.72 3513.03 1922 3512.85 1922.28C3512.67 1922.57 3512.49 1922.85 3512.28 1923.14L3474.06 1989.3C3467.53 2000.51 3456.87 2000.51 3450.34 1989.3L3318.49 1761.42C3311.96 1750.2 3296.04 1740.98 3282.97 1740.98H3116.46C3103.39 1740.98 3087.48 1750.2 3080.94 1761.42L3013.89 1877.56C3004.51 1886.5 2992.57 1884.09 2984.62 1870.46L2790.97 1536.1C2781.45 1519.63 2758.01 1506 2738.83 1506H2494.46C2475.43 1506 2451.84 1519.49 2442.32 1536.1L2320.14 1747.65C2310.62 1764.26 2310.62 1791.24 2320.14 1807.85L2442.32 2019.4C2451.84 2035.87 2475.28 2049.5 2494.46 2049.5H2738.83C2758.01 2049.5 2781.45 2036.01 2790.97 2019.4L2897.67 1835.11C2907.19 1818.64 2922.82 1818.64 2932.34 1835.11L3075.4 2081.87C3076.26 2083.29 3077.25 2084.71 3078.24 2086.13L3078.25 2086.13L3080.94 2090.67C3087.48 2101.89 3103.39 2111.12 3116.46 2111.12H3119.59C3122.29 2111.54 3124.99 2111.83 3127.55 2111.83H3271.04C3273.6 2111.83 3276.3 2111.54 3279 2111.12H3282.97C3296.04 2111.12 3311.96 2101.89 3318.49 2090.67L3391.23 1965.16C3397.77 1953.94 3408.43 1953.94 3414.96 1965.16L3512.99 2133.26L3516.4 2139.09C3520.81 2146.75 3531.6 2153 3540.41 2153H3548.08H3646.26H3652.93C3661.74 2153 3672.54 2146.75 3676.94 2139.09L3680.64 2132.55L3729.23 2048.5L3733.21 2041.55C3737.61 2033.88 3737.61 2021.53 3733.21 2013.86L3729.37 2007.19L3701.24 1958.49L3689.45 1937.9L3683.05 1926.4C3680.78 1920.01 3684.47 1915.18 3692.29 1915.18L3823.71 1915.04C3832.52 1915.04 3843.31 1908.8 3847.72 1901.13L3880.82 1843.91C3885.08 1836.24 3885.08 1823.75 3880.68 1816.22Z" fill="#0F69AF"/>
</svg>
