<svg xmlns="http://www.w3.org/2000/svg" fill="none" viewBox="0 0 3884 2861"><path fill="#0F69AF" fill-rule="evenodd" d="M2863 952c-16-27-3-50 29-50h641c32 0 71-23 87-50l202-351c16-28 16-73 0-100L3620 50c-16-28-55-50-87-50h-405c-32 0-71 22-87 50l-202 351c-16 28-16 72 0 100l176 306c16 27 3 50-29 50h-473c-31 0-70 23-86 50l-119 206c-16 28-16 73 0 100l119 206c16 28 55 50 86 50h238c32 0 70-22 86-50l119-206c16-27 16-72 0-100l-93-161zm-51 1789l-40-69c-5-9-18-17-29-17h-80c-10 0-24 8-29 17l-31 54c-5 9-14 9-19 0l-75-128-29-50v-1l-4-7c-6-10-19-17-29-17h-23-79c-16 0-22-12-15-25l160-277c7-13 7-36 0-49l-101-175-3-4c-9-12-26-22-41-22h-152c-23 0-32-14-20-34l233-405c12-20 12-53 0-73l-147-257a81 81 0 00-63-36h-296c-23 0-52 16-63 36l-148 257a81 81 0 000 73l148 256c11 20 40 36 63 36l258 1c23 0 32 16 21 36l-64 111-103 176c-8 14-21 14-29 0l-57-99-66-112c-5-10-18-17-29-17h-137c-11 0-24 7-29 17l-60 104c-6 9-15 9-20 0l-74-128-9-16c-4-6-13-12-20-12h-93c-7 0-16 6-20 12l-46 80c-4 7-4 17 0 23l40 70c4 6 1 12-6 12h-55l-55-1c-7 0-16 5-19 12l-28 47c-3 6-3 17 0 23l22 37c3 6 0 12-7 12h-147c-8 0-16 5-20 11l-3 5v1l-32 55c-6 9-14 9-20 0l-109-189c-5-10-18-17-29-17H717c-11 0-24 8-29 17l-52 90c-8 13-20 14-28 0l-160-277c-8-13-28-25-43-25H202c-15 0-35 12-43 25L58 2083c-8 14-8 37 0 50l91 156 70 122c8 14 3 25-13 25H102c-11 0-24 7-29 17L4 2572c-5 9-5 24 0 34l69 119c5 9 18 17 29 17h137c11 0 24-8 30-17l60-104c5-9 14-9 19 0l81 139c5 9 18 17 29 17h81c10 0 23-8 29-17l40-70c6-9 6-25 0-34l-40-70c-6-9-19-17-29-17h-81c-11 0-24 8-29 17l-32 55c-5 9-14 9-19 0l-100-172-63-110c-8-14-1-25 15-25h176c16 0 36-11 44-25l72-126 16-26c8-14 19-15 27-1l102 175 21 36c5 10 18 17 29 17h138c11 0 24-7 29-17l60-104c6-9 14-9 20 0l73 126 1 1 10 17c3 7 12 12 20 12h93c7 0 16-5 20-12l46-80c4-7 4-17 0-23l-6-11-22-38-12-22c-4-6-1-11 6-11h110c7 0 16-5 19-11l28-48c3-6 3-16 0-22l-22-37c-3-7 0-12 7-12h147c7 0 16-5 19-11l3-4 1-2 31-55c6-9 14-9 20 0l109 189c5 9 18 17 29 17h137c11 0 24-8 29-17l52-90c8-14 20-14 28 0l44 73 98 171 6 10 1 2 12 21c8 14 27 25 43 25h175c16 0 23 11 15 25l-106 185-1 1v1l-14 25c-6 9-6 24 0 33l68 118c5 9 18 17 29 17h136c11 0 24-8 29-17l59-103c6-9 14-9 20 0l79 138c6 9 19 17 29 17h80c11 0 24-8 29-17l40-69c6-10 6-25 1-34zm1069-925l-33-57c-5-8-16-14-24-14h-66c-9 0-20 6-25 14l-33 57c-4 8-4 20 0 28l26 45c5 7 1 14-8 14h-178c-9 0-19 6-24 14l-3 4v1l-1 1-38 66c-6 12-17 12-24 0l-132-228c-6-11-22-20-35-20h-167c-13 0-29 9-35 20l-67 117c-9 9-21 6-29-8l-194-334a67 67 0 00-52-30h-245c-19 0-42 13-52 30l-122 212a67 67 0 000 60l122 211c10 17 33 31 52 31h245c19 0 42-14 52-31l107-184c9-16 25-16 34 0l143 247 3 4 3 5c6 11 22 20 35 20h4l8 1h143l8-1h4c13 0 29-9 35-20l73-126c7-11 17-11 24 0l98 168 3 6c5 8 16 14 24 14h113c9 0 20-6 24-14l4-6 48-84 4-7c5-8 5-20 0-28l-4-7-28-49-12-20-6-12c-2-6 1-11 9-11h132c9 0 19-6 24-14l33-57c4-8 4-20 0-28z" clip-rule="evenodd"/></svg>
