<svg xmlns="http://www.w3.org/2000/svg" fill="none" viewBox="0 0 3949 2545"><path fill="#0F69AF" d="M1825 649l61 61c30 30 30 78 0 108l-61 61a77 77 0 01-108 0l-61-61a77 77 0 010-108l61-61c30-30 79-30 108 0zm-194-221a89 89 0 00-125 0l-71 70a89 89 0 000 126l71 71c34 35 91 35 125 0l71-71c35-34 35-91 0-126l-71-70zm-411 12a81 81 0 00-114 0l-64 64a81 81 0 000 114l64 65c31 31 83 31 114 0l65-65c31-31 31-82 0-114l-65-64zm1211 1448l59-58c29-29 29-76 0-105l-59-59a74 74 0 00-104 0l-59 59a74 74 0 000 105l59 58c29 29 76 29 104 0zM1310 644l-64 64a80 80 0 000 112l64 64c31 30 81 30 112 0l64-64c30-31 30-81 0-112l-64-64a80 80 0 00-112 0zm1215 0l-64 63a80 80 0 000 114l64 63c31 31 82 31 113 0l64-63c31-32 31-83 0-114l-64-63a80 80 0 00-113 0zm319-210a85 85 0 00-119 0l-68 67a85 85 0 000 120l68 68c33 33 86 33 119 0l68-68c33-33 33-87 0-120l-68-67zm-2023-6a89 89 0 00-126 0l-71 70a89 89 0 000 126l71 71c35 35 91 35 126 0l71-71c34-34 34-91 0-126l-71-70zm1607 31a69 69 0 00-97 0l-54 54a69 69 0 000 97l54 54c26 26 70 26 97 0l54-54c26-27 26-70 0-97l-54-54zm619 178a85 85 0 00-120 0l-67 67a85 85 0 000 120l67 67c33 33 87 33 120 0l67-67c33-33 33-87 0-120l-67-67zm-924 13l-60 60a76 76 0 000 107l60 61c29 29 77 29 107 0l60-61c29-29 29-77 0-107l-60-60a76 76 0 00-107 0zm-94-206a79 79 0 00-111 0l-62 62a79 79 0 000 111l62 62c31 30 81 30 111 0l62-62c31-31 31-80 0-111l-62-62zm-720 1656c31 31 82 31 113 0l64-64c31-31 31-82 0-113l-64-64a80 80 0 00-113 0l-64 64a80 80 0 000 113l64 64zm309-218l55-56c27-27 27-71 0-98l-55-56a70 70 0 00-99 0l-55 56a70 70 0 000 98l55 56c27 27 72 27 99 0zm109 192c24 25 64 25 89 0l50-50c24-24 24-64 0-89l-50-50a63 63 0 00-89 0l-50 50a63 63 0 000 89l50 50zM492 630l-71 71a89 89 0 000 126l71 71c35 34 91 34 126 0l71-71c35-35 35-91 0-126l-71-71a89 89 0 00-126 0zm1621 1487c28 28 74 28 102 0l58-57c28-28 28-74 0-103l-58-57a73 73 0 00-102 0l-57 57a73 73 0 000 103l57 57zm-89-233l57-57c27-27 27-72 0-100l-57-57a71 71 0 00-101 0l-56 57a71 71 0 000 100l56 57c28 28 73 28 101 0zM695 1506c34 34 91 34 126 0l71-71c34-35 34-92 0-126l-71-71a89 89 0 00-126 0l-71 71a89 89 0 000 126l71 71zm531 405l71-71c35-35 35-91 0-126l-71-71a89 89 0 00-126 0l-71 71a89 89 0 000 126l71 71c35 35 91 35 126 0zm-528-8c33 33 86 33 119 0l67-66c32-33 32-86 0-119l-67-67a84 84 0 00-119 0l-66 67a84 84 0 000 119l66 66zm199 211c35 34 92 34 126 0l71-71c35-35 35-91 0-126l-71-71a89 89 0 00-126 0l-70 71a89 89 0 000 126l70 71zm0-1484l-70 71a89 89 0 000 126l70 71c35 34 92 34 126 0l71-71c35-35 35-91 0-126l-71-71a89 89 0 00-126 0zm1135 213a82 82 0 00-116 0l-65 66a82 82 0 000 115l65 66c32 31 84 31 116 0l65-66c32-31 32-83 0-115l-65-66zM842 1519a79 79 0 000 111l63 63c31 30 81 30 111 0l63-63c30-31 30-81 0-111l-63-63a79 79 0 00-111 0l-63 63zm789-686a89 89 0 00-125 0l-71 71a89 89 0 000 126l71 70c34 35 91 35 125 0l71-70c35-35 35-92 0-126l-71-71zm-328 202l-71 71a89 89 0 000 126l71 71c35 35 91 35 126 0l71-71c34-35 34-91 0-126l-71-71a89 89 0 00-126 0zm-79-197a86 86 0 00-122 0l-68 68a86 86 0 000 121l68 68c34 34 88 34 122 0l68-68c33-33 33-88 0-121l-68-68zm497 224l-57 57a72 72 0 000 101l57 57c27 27 73 27 101 0l56-57c28-28 28-74 0-101l-56-57a72 72 0 00-101 0zm-816 225c31 30 80 30 111 0l62-62c30-31 30-81 0-111l-62-62a78 78 0 00-111 0l-62 62a78 78 0 000 110l62 63zm2774-579a79 79 0 000 112l63 63c31 30 81 30 112 0l62-63c31-31 31-81 0-112l-62-63a79 79 0 00-112 0l-63 63zm-1253 359l53-53c26-26 26-69 0-95l-53-53a67 67 0 00-94 0l-53 53a67 67 0 000 95l53 53c26 26 68 26 94 0zM873 912l-61-61a77 77 0 00-108 0l-61 61a77 77 0 000 109l61 61c29 30 78 30 108 0l61-61c30-30 30-79 0-109zm1250 144l-60 60a75 75 0 000 106l60 60c29 30 77 30 107 0l60-60c29-29 29-77 0-106l-60-60a75 75 0 00-107 0zm-102 416l52-53c26-26 26-68 0-94l-52-53a67 67 0 00-94 0l-53 53a67 67 0 000 94l53 53c26 25 68 25 94 0zm-795 34l71-71c35-35 35-92 0-126l-71-71a89 89 0 00-126 0l-71 71a89 89 0 000 126l71 71c35 34 91 34 126 0zm1615-420l63-63c31-31 31-82 0-113l-63-63a80 80 0 00-113 0l-63 63a80 80 0 000 113l63 63c31 32 82 32 113 0zm202 202l63-63c31-31 31-81 0-112l-63-62a79 79 0 00-112 0l-63 62a79 79 0 000 112l63 63c31 31 81 31 112 0zm-311 195c29 29 76 29 105 0l59-59c29-29 29-76 0-105l-59-59a74 74 0 00-105 0l-59 59a74 74 0 000 105l59 59zm-310-20l48-48c24-24 24-62 0-86l-48-48a61 61 0 00-86 0l-48 48a61 61 0 000 86l48 48c24 23 62 23 86 0zm217-173l64-64c31-31 31-82 0-114l-64-63a80 80 0 00-114 0l-64 63a80 80 0 000 114l64 64c31 31 82 31 114 0zm-1019 191l57-58c28-28 28-74 0-102l-57-58a73 73 0 00-103 0l-57 58a73 73 0 000 102l57 58c28 28 74 28 103 0zm-314 221c33 33 87 33 120 0l67-68c33-32 33-86 0-119l-67-68a85 85 0 00-120 0l-67 68a85 85 0 000 119l67 68zm817-14c29 29 77 29 107 0l60-60c29-30 29-77 0-107l-60-60a76 76 0 00-107 0l-60 60a76 76 0 000 107l60 60zm-406 1c30 29 78 29 108 0l60-61c30-29 30-78 0-107l-60-61a76 76 0 00-108 0l-60 61a76 76 0 000 107l60 61zm1533-595l67-68c33-33 33-86 0-119l-67-67a85 85 0 00-120 0l-67 67a85 85 0 000 119l67 68c33 32 87 32 120 0zm-113 796c29 29 77 29 106 0l59-60c30-29 30-77 0-106l-59-59a75 75 0 00-106 0l-60 59a75 75 0 000 106l60 60zM291 287c34 33 89 33 123 0l69-70c34-33 34-89 0-123l-69-69a87 87 0 00-123 0l-69 69a87 87 0 000 123l69 70zm988 1950c30-30 30-79 0-109l-62-61a77 77 0 00-108 0l-62 61a77 77 0 000 109l62 61c29 30 79 30 108 0l62-61zm423-118l-71-70a89 89 0 00-125 0l-71 70a89 89 0 000 126l71 71c34 35 91 35 125 0l71-71c35-34 35-91 0-126zm-273 132a89 89 0 00-126 0l-71 71a89 89 0 000 126l71 71c35 35 91 35 126 0l71-71c34-35 34-91 0-126l-71-71zm-537-132l-71-70a89 89 0 00-126 0l-71 70a89 89 0 000 126l71 71c34 35 91 35 126 0l71-71c34-34 34-91 0-126zm929 160a71 71 0 00-100 0l-56 56a71 71 0 000 100l56 57c28 27 73 27 100 0l57-57c27-27 27-72 0-100l-57-56zM91 889c32 32 85 32 118 0l66-66c32-33 32-86 0-118l-66-66a84 84 0 00-118 0l-66 66a84 84 0 000 118l66 66zm198-194c35 35 92 35 126 0l71-71c35-34 35-91 0-126l-71-70a89 89 0 00-125 0l-71 70a89 89 0 000 126l70 71zm-80 1159a84 84 0 00-118 0l-67 67a84 84 0 000 118l67 66c32 33 85 33 118 0l66-66c33-33 33-86 0-118l-66-67zm270-17c33-33 33-87 0-120l-67-67a85 85 0 00-119 0l-67 67a85 85 0 000 120l67 67c33 33 86 33 119 0l67-67zm196 199c31-31 31-82 0-113l-63-63a80 80 0 00-113 0l-64 63a80 80 0 000 113l64 64c31 31 82 31 113 0l63-64zm1958-354l57-57c28-28 28-73 0-101l-57-57a72 72 0 00-102 0l-57 57a72 72 0 000 101l57 57c28 28 74 28 102 0zm459 249l-55-56a70 70 0 00-99 0l-56 56a70 70 0 000 98l56 56c27 27 71 27 99 0l55-56c27-27 27-71 0-98zm347-50a66 66 0 00-93 0l-52 52a66 66 0 000 93l52 53c26 25 67 25 93 0l52-53c26-25 26-67 0-93l-52-52zm-198 192a73 73 0 00-103 0l-58 58a73 73 0 000 103l58 58c29 29 75 29 103 0l59-58c28-28 28-75 0-103l-59-58zm683-963l-67-67a84 84 0 00-119 0l-67 67a84 84 0 000 119l67 67c33 33 87 33 119 0l67-67c33-33 33-87 0-119zm-270 542a84 84 0 00-118 0l-66 66a84 84 0 000 118l66 67c33 32 86 32 118 0l67-67c32-32 32-85 0-118l-67-66zm-1468 603a43 43 0 00-60 0l-34 33a43 43 0 000 61l34 33c17 17 44 17 60 0l34-33c17-17 17-44 0-61l-34-33zm650-181a72 72 0 00-103 0l-57 57a72 72 0 000 103l57 57c29 28 74 28 103 0l57-57c28-29 28-74 0-103l-57-57zm-387-22c-38-39-101-39-140 0l-79 78c-38 39-38 102 0 141l79 79c39 38 102 38 140 0l79-79c39-39 39-102 0-141l-79-78zm-349 88l-61-61a77 77 0 00-108 0l-61 61a77 77 0 000 108l61 61c30 29 79 29 108 0l61-61c30-30 30-78 0-108zm590-211l-57-58a72 72 0 00-102 0l-58 58a72 72 0 000 102l58 57c28 28 74 28 102 0l57-57c28-28 28-74 0-102zm-1676 342a76 76 0 00-107 0l-61 60a76 76 0 000 108l61 61c29 29 78 29 107 0l61-61c30-30 30-78 0-108l-61-60zM3535 688c33 33 87 33 120 0l67-67c33-33 33-87 0-120l-67-67a85 85 0 00-120 0l-67 67a85 85 0 000 120l67 67zm-282-260a89 89 0 00-126 0l-71 70a89 89 0 000 126l71 71c35 35 91 35 126 0l71-71c34-34 34-91 0-126l-71-70zm12 276a85 85 0 000 120l67 67c34 33 87 33 120 0l68-67c33-33 33-87 0-120l-68-68a85 85 0 00-120 0l-67 68zm-406-285l68 67c33 33 87 33 120 0l68-67c33-33 33-87 0-120l-68-68a85 85 0 00-120 0l-68 68a85 85 0 000 120zm271-136c33 33 87 33 120 0l67-67c33-33 33-87 0-120l-67-67a85 85 0 00-120 0l-68 67a85 85 0 000 120l68 67zm-90 1404l60-59c29-30 29-77 0-107l-60-59a75 75 0 00-106 0l-60 59a75 75 0 000 107l60 59c29 30 77 30 106 0zM2734 264c28 27 73 27 101 0l57-57c28-28 28-74 0-102l-57-57a72 72 0 00-101 0l-57 57a72 72 0 000 102l57 57zm917 822l64-63c31-31 31-82 0-112l-64-64a80 80 0 00-112 0l-63 64a80 80 0 000 112l63 63c31 31 81 31 112 0zm-925 816c32 32 85 32 117 0l66-66c32-32 32-85 0-117l-66-66a83 83 0 00-117 0l-66 66a83 83 0 000 117l66 66zm583-586l-63-63a79 79 0 00-112 0l-63 63a79 79 0 000 112l63 63c31 30 81 30 112 0l63-63c30-31 30-81 0-112zm140-26l64-64c31-31 31-82 0-113l-64-64a81 81 0 00-113 0l-64 64a81 81 0 000 113l64 64c31 31 82 31 113 0zM2318 285c34 33 88 33 122 0l68-68c33-34 33-88 0-122l-68-68a86 86 0 00-122 0l-68 68a86 86 0 000 122l68 68zm-1215-2c33 32 87 32 120 0l67-67c32-33 32-87 0-120l-67-67a85 85 0 00-120 0l-67 67a84 84 0 000 120l67 67zm129 13a89 89 0 000 125l71 71c35 35 91 35 126 0l71-71c34-34 34-91 0-125l-71-71a89 89 0 00-126 0l-71 71zm-534-12c33 33 87 33 120 0l67-68c34-33 34-87 0-120l-67-68a85 85 0 00-120 0l-68 68a85 85 0 000 120l68 68zm812-3c32 32 85 32 117 0l66-66c33-33 33-85 0-118l-66-66a83 83 0 00-117 0l-66 66a83 83 0 000 118l66 66zm957 24a77 77 0 000 108l61 61c29 29 78 29 108 0l61-61c30-30 30-79 0-108l-61-61a77 77 0 00-108 0l-61 61zm-1621 0a76 76 0 000 107l61 61c29 30 78 30 107 0l61-61c29-29 29-78 0-107l-61-61a76 76 0 00-107 0l-61 61zm797-6a85 85 0 000 120l68 67c33 33 87 33 120 0l68-67c33-33 33-87 0-120l-68-68a85 85 0 00-120 0l-68 68zm-1222-3a89 89 0 000 125l71 71c35 35 92 35 126 0l71-71c35-34 35-91 0-125l-71-71a89 89 0 00-126 0l-71 71zm1636 119l63 63c31 31 82 31 113 0l63-63c30-31 30-82 0-112l-63-63a80 80 0 00-113 0l-63 63a80 80 0 000 112zm-140-138c31 32 82 32 114 0l64-64c31-31 31-83 0-114l-64-64a81 81 0 00-114 0l-64 64a81 81 0 000 114l64 64z"/></svg>
