<svg viewBox="0 0 8000 8000" fill="none"
  xmlns="http://www.w3.org/2000/svg">
  <path fill-rule="evenodd" clip-rule="evenodd" d="M8000 0H0v8000h8000V0ZM4399.1 4919c22.9 14 48 29.4 75.5 29.4 38 0 58-34.1 67.8-66.4 3.4-11.3 6-22.9 8.5-34.4 1.9-8.2 3.7-16.5 5.8-24.7a198.5 198.5 0 0 1 19-43.6l6.2-12c24.9-48.6-39-92.4-74.4-113.5l-2.6-1.6c-14.7-8.8-42.6-25.7-56.7-12.2-8.6 8.3-6.6 24-5 36.2l.9 7.6c1.3 16.2 1.8 32.4-3.6 48-6.7 19.6-28.3 34.7-50 49.9-31.6 22-63.5 44.3-50 81.2 9 24.8 35.4 41.8 56.8 54.9l1.8 1.1Zm-478.3-197.6c2.2 31.6-17.9 56.7-37.8 78.8-5.4 5.9-10.7 12-16 18.2-33.7 39-69 79.7-124.5 79.7-52 0-109-32.9-94.8-92.7 9.8-41.6 46.6-71 79.6-95 39.2-28.2 98.7-63.3 148.8-46.2a65.8 65.8 0 0 1 44.7 57.2Zm-235.4 13.7c-19.9 15.7-40.5 43.8-44.4 62.7l-2.4 12.6c-5.7 30.7-10.3 55.7-47.4 55.7-24.8 0-50.2-11.5-73.7-22.1-6-2.7-12-5.4-17.7-7.8-34.2-14.4-33.4-36.8-19-67.8 7.4-16 12.5-34.2 17.7-52.6 9.7-34.7 19.6-70 45.8-93.4 41.6-37 108.5-20 150.1 8.5 21 14.4 36.3 33.3 24 57.9-1.5 2.8-2.8 5.5-4 8.1-6.7 13.9-11.7 24.5-29 38.2Zm700.1 25.8c-17.5 10.5-37 22-47.6 38.6-4.2 6.4-7.4 13.6-10.4 20.5-8.4 19-16.3 36.8-43.2 36.8-38.4 0-61.2-22.6-80-41.2a226.9 226.9 0 0 0-15.3-14.3c-5.5-4.4-13.5-9-21.6-13.6-21-12-43.1-24.6-28.6-39.3 17.7-18 59.3-45.7 98.6-64.9 34.6-16.9 74.7-20 112.7-21.8h1.4c24.6-1.2 68-3.3 80 24 12.6 28.4-14 55.5-35.6 69l-10.4 6.2Zm-328.6 20a101.5 101.5 0 0 0-27 46c-3.9 12.6-13.8 22.1-33.5 27.6-22.8 6.2-34 6-47.8 2.3-14.4-4-29-19.4-32.2-24.3-15.9-24.8-3.7-53.3 7.1-74 10.5-20 7.5-35.9 4.6-50.9-2.3-12.5-4.6-24.3 1.1-37.3 11.3-25.6 40.8-33.2 66.1-39.8l6.8-1.7 6.2-1.7c54.9-14.6 115-30.6 168.5-2.7 21.2 11 45.5 31.6 31.3 57.2-11.9 21.3-38.9 34.6-60.7 45.3l-5.6 2.8-16 7.7c-24.8 11.8-49.1 23.3-68.9 43.5Zm-607.2-113c29.9 5.4 52.6 28.5 38.8 61l-1.2 2.6c-19 44.9-47.6 112-103.4 112-32.7 0-68-10-100.2-19.3l-10.5-3c-32.5-9.1-58.1-26.6-49.2-64 2.1-8.7 4.6-17.2 7-25.7 2.7-9.4 5.4-18.8 7.6-28.3l.6-2.5c2.4-10.7 5-21.9 11-31.2 17-25.9 55.1-27.5 82.8-25.1 24.4 2 48.5 7.9 72.5 13.7 14.7 3.5 29.4 7 44.2 9.7Zm1286.1-60.2c-13.7 53.9-63.2 102.4-120.9 102.4-23.6 0-42-16.2-59.7-31.7l-12.7-10.9c-6-4.8-12.3-9.3-18.6-13.8-16-11.3-32.1-22.6-41.6-39.5-30.6-54.3 21.1-119 73.7-137.2 23-8 40.3-4.1 61.8.7l14.7 3.1c14.6 3 29.6 5.7 44.7 5.8 10.3 0 19.5-2.9 28.9-5.8 4.9-1.5 9.8-3 15-4.1 31-6.9 39.3 21 34.4 47-4.5 24.5-11 50-17.3 74.4l-2.4 9.6Zm-269.8-66.4c-4.9 34.6-28.4 55.7-54.6 76-27.1 21-60.7 41.4-96.6 41.4-68.2 0-74.4-50.8-75.1-96.7-.4-22.4 6-43.7 12.3-64.1 3.1-10.4 6.2-20.6 8.3-30.6 1.1-5.2 1.5-10.5 1.9-15.8 1-14.2 2-28.2 17.4-39.4 10-7.4 22.2-9.8 37.5-12.8 16-3.1 35.6-7 59.6-18 3.7-1.7 6.6-3.8 9.4-5.8 7-5 12.9-9.2 27.5-3.2 14.4 6 16.7 13.6 19.9 35.5 2.5 17.7 9.3 35.1 16 52.6 10.2 26.4 20.4 53 16.5 80.9Zm-653.6-61.8c14.5 15.6 19 38 21.8 58.4l1.9 12.5c6.8 44.1 17 110-42.1 110-58.8 0-119.3-41.9-148.3-91.6-38.2-65.3 30-102.2 87.5-108 26.6-2.7 59.6-2.3 79.2 18.7Zm-372 125.5c-22.3 20-51.4 26.3-80.5 28.1l-22.2 1.6c-24.3 1.7-49 3.5-72.8 3.5-56.9 0-39.7-52.6-27-91.5 3-9.2 5.8-17.7 7.2-24.4l2.5-11.9c9.8-47.6 20.2-98 72.9-115.1 105.5-34.3 201.8 137 120 209.7Zm516.8-214.4c67.3-2.3 96.7 82.3 96.5 137.5-.2 67.6-62.3 106.5-125.7 106.5-70.9 0-88.4-68.2-83.8-128.1 4.4-58.2 51.7-113.8 113-116Zm-398.7-11.1c46.8 33.5 77.2 107 52.5 161.2-16.1 35.4-64.6 80.4-106 80.4-19.7 0-22.9-11.7-26-24.6-4-16.2-3-29.2-1.7-43.6l.6-6.3c1.7-22.2-1.2-39-3.8-54.7-2.7-15.3-5-29.4-2.7-46 6-42.7 38.6-101.1 87-66.4Zm680.7 124.6c-5.4 17.5-10.8 35.4-11 51.5l.2 8.2c.5 21 1.4 53.4-24.3 53.4-15.2 0-30.6-6.5-46-13-11.6-5-23.2-9.8-34.6-12-5.2-.8-12.3-.3-19.9.3-16.2 1.3-34.6 2.8-40-10-3.8-9-2-20-.2-30.2.7-4.2 1.4-8.2 1.7-12 1-15.2.1-30.6-2.3-45.7-1-6.9-2.8-13.3-4.5-19.4-4.1-15-8-28.7-1-45.4 17.3-42.2 60-57 102.9-54.9 51.6 2.5 91.1 24.2 89.2 83-.4 14-5.3 30-10.2 46.2Zm351-41.5c-11.1 1-22.1 1.8-35.2 5.3a72.5 72.5 0 0 0-16.1 7.8c-8.3 4.8-17.1 9.9-26.4 9.9h-1c-26.7 0-44.1 0-66-53.2-8.4-20.5-8.4-47.6-7.2-69.4l.1-2.8c1.4-25.4 2.9-53 10-77.5 7.4-26 26.4-38.2 53.4-32 5.3 1.1 10.6 2.7 15.8 4.3a201.9 201.9 0 0 0 31 7c10.8 1.7 22 3.4 31.4 8 32.3 16.1 36.1 58.6 39.3 94.7 1 10.3 1.8 20.1 3.3 28.6a181 181 0 0 0 4.5 18c6.5 23 13 45.4-20.5 49.7-5.7.8-11 1.2-16.4 1.6Zm173.8-264c79.2 4.5 53.7 113.2 41.6 162.5-11.8 48.3-51.1 108.9-108.1 108.9-64.8 0-78.5-110.7-74.1-158 3.3-35.3 14.4-63 46.6-80.5l5.6-3c26.6-14.6 58-31.7 88.4-30Zm-1023 256.1c-11 .9-22.3 1.8-34.2 3.6-6 .9-12.1 2.5-18.2 4.1-8.7 2.4-17.5 4.7-26.4 4.9-24.4 0-37.4-18.2-48.7-37.2-5.6-9.3-11.6-18.6-17.5-27.9-10.3-15.8-20.5-31.8-29-48.3-12.7-25-21.2-57.3-7-84.7 11.2-21.9 19.8-25.3 33-30.5l4-1.6c9.7-4 17.9-9 25.1-13.3 14-8.4 24.3-14.6 34.4-7.1 6.4 4.6 8.1 10.8 10 17.1 1.4 5.2 3 10.5 7 15.4 8 9.5 16.5 13.3 24.8 17 14.4 6.4 28 12.4 36.7 48 6.9 28 26.7 50 43.8 69 12.8 14.3 24.1 26.8 27.5 39 7.1 26-25 29-45.6 30.8l-4 .4-15.8 1.3Zm179.7-197c21.1 11.6 42.5 23.4 39.4 54v.1c-.8 8-1.1 14.8-1.4 20.7-1.2 28-1.4 34.2-56.2 59.4-7.3 3.4-13.6 7.3-19.4 10.8-17.4 10.7-30.7 18.9-55.8 3.8a228.8 228.8 0 0 1-62.2-58.8c-17.4-24.2-20.5-39-20.3-63 0-11.2 1.2-19.4 19-30.5 8.4-5.2 22.2-11 36.9-17.3 13.7-5.8 28.2-12 39.8-18.3 3.9-2.1 7.6-4.5 11-6.7 14.7-9.5 25.8-16.6 31.8 9.4 4.3 18.1 20.7 27.2 37.4 36.4ZM4015 4390a88.7 88.7 0 0 1-45.2-74.5c-1-48.7 25.7-77.8 52.3-106.7a667 667 0 0 0 16-17.8c24.3-28.5 70.8-78.3 107-38.5 26 28.5 36.8 82.7 37 120.9.1 52-36.8 84.6-80 107-26.2 13.5-59 24-87.1 9.6Zm-502.6-49.5-8 12.3c-1.8 2.6-3.5 5.5-5.3 8.5-12.1 20-26.9 44.4-52.1 44.3-17.1 0-33.8-6-50.6-12a183 183 0 0 0-44.3-11.8c-19-1.8-38.7-3.6-50.6-20.6-38.6-55.3 19.3-139.9 70.4-159.2 31.3-11.8 67.3-2.5 96.5 10.9l12.6 5.4c26.9 11.2 62.5 26 60 59.5-1.8 22.9-15.8 43.7-28.6 62.7Zm821.4 44.3c-5.3 1.1-10.6 2.3-15.7 3.7-4.4 1.1-8.8 2.5-13.3 3.8a166.8 166.8 0 0 1-46.3 9.2c-27.6 0-56.4-39.9-64.9-61.9-9.3-24.3-9.3-51-5-76.5 3.8-22 9.4-54.4 27.4-70.2 22.1-19.5 53.8-10 79.8-2.3l9.5 2.8 30.4 9c21.9 6.6 43.8 13.1 66.1 18 30.5 6.5 52 21 41.4 55.5-4 13.2-11 25.8-18 37.6-13.8 23.3-31.6 47.3-56 60.2-11 5.8-23.2 8.5-35.4 11.1Zm-297.6-208.1c-6.9 7.5-13.6 14.8-21 22.2l-9.6 10c-13.9 14.8-31 33.2-50.8 38.7-31.4 8.8-65.2-24.3-63.9-47.6 1.1-19.6 15.4-32.6 30-45.8 22.6-20.4 45.8-41.3 21.4-88-13.4-26 53.2-31 82.8-28.1 28 2.7 50.1 28.9 62.3 53 13.6 27-3 40.6-19.7 54.5-4.6 3.8-9.2 7.6-13.2 11.7-6.5 6.6-12.4 13-18.3 19.4Zm688.2-31.9c-3 12-7.8 24.2-32 52.3h.1c-37 43-110.5 49.7-163 49.7-24 0-58.8-4.7-65.5-34a65.4 65.4 0 0 1 3.8-39.7 766 766 0 0 0 19.9-64.8c16.8-61.4 34.6-68.5 77.6-82.8l5.6-1.9c18.8-6.4 51.1-17.4 66.4-12.2 12.4 4.2 25 9.8 34 19.1a510 510 0 0 0 23.4 22.6c5 4.6 10 9.2 15.4 14.4 8.4 8.2 19.1 22.8 19.1 36.2 0 13.3-3.2 34.8-4.8 41.1ZM4465 4030.3c27.7 10 20 44 14.9 66-1.3 5.5-2.5 11.9-3.9 18.9-7.6 40.1-18.9 99.3-63 99.3a125 125 0 0 1-39.6-9c-4.8-1.6-9.5-3.2-14.2-4.6-7.5-2.2-15-4.2-22.6-6.3-10.7-2.9-21.5-5.8-32.1-9.1-21.4-6.8-56-18.8-31.6-44.6 8.6-9 18.2-16.6 27.8-24.1 13-10.4 26.1-20.7 36.5-34.6a229 229 0 0 0 9.9-14.8c9.3-14.7 18.3-29 36.2-35.6 20-7.2 61.7-8.7 81.7-1.5Zm275.3-47.4c60.5-12.3 145.8-16 168.4 56.9 14.9 48 34.7 169-48 169-11.2 0-21.2-4.2-31.3-8.4-6.2-2.6-12.3-5.1-18.7-6.8-7.6-1.9-15.8-2.4-24-2.9-11.3-.7-22.8-1.4-32.6-5.8-24.5-10.8-21-38.2-18-61.8l1.1-9.1c3.3-30.1-13.4-45-31-61a220.5 220.5 0 0 1-16.7-16c-30.7-34.2 26.7-49.3 50.8-54.1Zm-1528.6-.8c61.1-12.2 145.3-13 165.7 60.9 13.3 48 33.4 165.8-48.9 165.8a81.9 81.9 0 0 1-31.3-8.4c-6.2-2.6-12.3-5.1-18.7-6.8-7.4-1.8-15.5-2.2-23.6-2.7-11.5-.6-23.2-1.2-33-6-24.7-12-21.4-34.8-18.3-56.8 1-6.5 1.8-13 2-19.1.7-26.2-15.7-41.2-32.4-56.5-5.4-5-11-10-15.9-15.6-32-35.4 30.4-50 54.4-54.8ZM4284 4120.5a327.5 327.5 0 0 0-38.3 37.4c-9.2 10.8-19.3 18.5-34.3 18.7-20 0-27.3-14-34.6-28-5.5-10.7-11.1-21.5-22.4-26.2-6.2-2.5-12.4-3.2-18.5-3.9-9.8-1-19.1-2-27.4-10.5-9.5-9.8-13-24.5-14.6-37.6-4.3-35.5 11.2-68.5 36-93.6 14.2-14.3 60-42.3 78.2-34.4 9 3.9 8.6 11.8 8.2 20.1-.2 4.8-.5 9.7 1 14 4.4 12.6 14.7 20.6 26.2 26.6 8.6 4.5 18.8 7.8 29 11 20.4 6.5 41.3 13.2 52.6 30.3 18.2 27.5-14 53.7-35 71l-6.1 5.1Zm198-151.5c2.6 8.7 5 16.4 5 25.8 0 21.4-6.2 28.7-32.6 27.4a902.4 902.4 0 0 1-91.6-10c-11.9-1.8-24-3-36.2-4a377.4 377.4 0 0 1-57-8.3c-22.4-5.7-40.8-19-36.2-44.5.9-4.9 2.8-9 4.7-13.3 1.6-3.4 3.1-6.9 4.2-10.8 1.1-4.4 1.8-8.6 2.4-12.7 1.6-9.8 3-18.8 10.6-27.7 12-14 29.1-19 46.2-24.1 8.6-2.6 17.2-5.2 25.1-8.9 10.4-4.8 19.2-12.5 27.9-20 10.6-9.3 21.2-18.6 34.7-22.7 19.4-6 58.7-3.7 80.1 8 14.3 7.8 15 20.8 9.1 43.4-5 18.8-5.4 28.4-4 62.5.7 17.8 4.3 29.6 7.5 39.9Zm5 25.8Zm202.5-48.1c17.2 31.6-16.1 42.2-41.4 47.1-9.5 1.9-18.9 4.1-28.3 6.4-22.2 5.4-44.4 10.8-67.5 10.4-23.8-.4-38.6-6.4-47.8-14.8-20.8-19.1-26.3-82.2-20.8-116.3 3-18.5 9.9-29.7 16.2-40 3.5-5.7 6.8-11.2 9.2-17.4a308.2 308.2 0 0 1 14.4-32.2c7.3-15.1 20.2-36.4 40.1-27.5 21.3 9.5 32.5 42.8 38.5 62.6 8 25.9 16.4 49.6 36 69.4 5.5 5.7 11.8 10.9 18 16.2 12.7 10.6 25.5 21.4 33.4 36.1Zm-1364.7-30.6a224 224 0 0 0-6.8 16.4c-8.5 24.2-33.9 28.1-59.5 32.1l-5.3.8-5.6 1c-11.5 1.8-27 4.4-40.8 5.2-9 .6-15.5-1.4-24.1-5.8-7.8-3.8-14-15.8-19.6-26.4-3-5.8-5.9-11.2-8.6-14.7-7.3-9.1-16.2-16.5-25.1-23.9-12.1-10-24.2-20-31.9-34.5-11.1-20.7-21.5-52.7-19.2-76.2 5-51 86.7-60.6 126.4-57.8 29.2 2 41.6 19.5 56.3 40a888.3 888.3 0 0 0 34.4 44.2c8.9 11 17.7 21.8 26.1 33 20.6 27.5 12.5 45.8 3.3 66.6Zm1529-66.5c19.3 24.3 14.1 52.5 2 80.7-12.3 28.4-25.4 30.5-57 35.6l-5.9 1c-7.6 1.2-14.5 1.8-22.7 2.6-8.3.8-18 1.6-31 3.4-9 1.2-12.3.5-20.5-3.9-7.6-4.1-13.6-14.6-19.4-24.8a109 109 0 0 0-11-17c-7-8-15.2-14.8-23.3-21.5-12.2-10.2-24.3-20.3-32.4-34.4-11.7-20.4-21.7-52-20.8-75.5 2.1-53.2 82.8-62.8 123.3-61.2 31.7 1.3 45.2 19 62 43.2a739 739 0 0 0 39 50.2c6 7.2 11.8 14.3 17.6 21.6Zm-660.2-49.4c3.6 4.2 7.3 8.5 10.7 13 50.9 67-14.8 143.4-87.3 143.4-31.2 0-57.9-19.5-74.2-45a108 108 0 0 1-17-50.5c-.3-3-.4-6.2-.6-9.3-.6-12-1.3-24.5-7.8-34.7-3-4.7-7.8-8.7-12.8-12.9-8.5-7-17.2-14.2-17-24.9.2-10 10.2-18.5 18.5-25.6l5.7-5.1a207.7 207.7 0 0 1 62.7-43.3c30.3-12.4 65.1-9.3 81.6 22.1 3.8 7.3 6.3 15.1 8.9 23 2.6 8.1 5.3 16.3 9.4 23.9 5.2 9.4 12.2 17.6 19.2 25.8Zm151.3-55.2c5.3 17.4 10.6 34.8 4.6 63.7l-.8 4c-4.5 22.6-7.8 39-42.8 41.8-51 0-99.6-43.5-120.8-86.6-13.1-26.5-20-55.4-25.4-84.3l-2.3-14.9c-1-7.4-2-14.8-3.7-22-.8-3.4-2-6.7-3-10-2-5.6-3.8-11.2-4.1-17.2-1.8-35.5 31.3-30.7 54.8-24 7.8 2.2 14.8 5 21.6 7.7 17.1 6.7 32.4 12.7 53.1 7.5l2.8-.7c12-3 24-6.1 34 3.1a73.7 73.7 0 0 1 17.7 30.8c3.6 12 4.6 28 5.5 44.5.6 10.2 1.2 20.4 2.5 30 1.2 9.7 3.8 18.2 6.3 26.6Zm-876.3-38.6c13 32.2 4.3 58.3-22.2 79.6-20.5 16.5-52.7 36.4-80.2 36.4-29 0-53.4-21.6-72.4-41.2l-10.5-10.5c-15.9-15.9-32.8-32.7-42.8-52.3-17.3-33.5 1.4-77.2 17.3-108 22-42.8 78.5-48.8 118-25.6 17.3 10.1 29.1 26.6 40.5 42.6a1053.3 1053.3 0 0 0 16.8 22.6c13.5 17.7 27.2 35.7 35.5 56.4Zm947.4-276.3c13 18.8 28 40.5 13.4 71-10.7 22.1-27.2 23-45 24-13.7.8-28.2 1.6-41.3 12.5a136.7 136.7 0 0 0-21.8 25c-10.3 13.8-20.2 27.3-38.3 33.6-27.6 9.5-36.9 5.7-61-4.1l-3.1-1.3c-5-2-21.2-7.6-35.1-12.4-9.4-3.3-17.7-6.1-21-7.4-18-6.7-29.7-28.8-31.2-41.3-1.8-14.6-1.7-29.8 6.3-42 9.7-15 24.8-25 39.9-35a187 187 0 0 0 30.1-23.1c18.3-18.5 33.1-35.6 49.6-54.5l9.5-11c36.4-41.7 114.6 12 142.5 56.4l6.5 9.6Zm-71.9 241.2c-.8-17-1.7-34.2-4.8-51l-1.8-8.8c-4.7-22.1-11-52 8.4-66.4 17.2-12.8 36.5-1.3 53.6 8.8 5.4 3.3 10.6 6.3 15.4 8.5 12.8 5.7 26.5 7.9 40.2 10.1 14.9 2.4 29.9 4.9 43.8 11.8 51.6 25.6 60.7 82.6 50.7 133.7-11 56.1-49 88.7-103.1 89.5-20 .3-44.4-2.3-62-13.8-19-12.4-28.8-42.9-33.5-62.1-4.8-19.9-5.8-40.1-6.9-60.3Zm-239.8-.3c-34.4 14.1-59.8 27.3-85.3 55l-10 11.3c-19.8 22.7-41.8 47.9-73.6 47.9-28.6 0-53.8-20.2-64.3-45.9-8.2-20.2-6-48.5-2-69.3 1-5.7 2-12.4 3-19.5 6-40 14-95 59.8-88l4.7.8c14.8 2.4 25.9 4.1 41.6.1 10.5-2.6 20.7-8.2 30.6-13.7 4.8-2.6 9.6-5.3 14.3-7.5 17.6-8.4 63-28.6 81-6.4 8.8 10.8 9.4 26.8 7.7 40a61.7 61.7 0 0 0 6.8 42.1c10.6 22.6 9.8 43.3-14.3 53.1Zm651.8-5.3c-.5 19-1.1 38.7-19.5 48.5-25.7 13.7-60.5 17-89.3 17.8-55.8 1.7-106.9-26.7-85-86.3 15.7-42.6 62-77.7 103.3-93.3 26.7-10.1 58.2-11.7 77 13.3 17.2 22.9 18 56 14.5 83.2-.6 5.3-.8 11-1 16.8Zm-1306-149c55.3-1.8 124.5 31.2 147.8 83.8 17 38.3.8 126.8-53.5 126.8-26.6 0-43.9-22.3-59-41.7-1.8-2.5-3.7-4.9-5.6-7.2-8-10-16.5-19.8-25-29.5-12.1-13.9-24.3-27.8-35.1-42.8l-.6-.8c-10.3-14.2-30.8-42.6-25-60.6 6.5-20.1 38.1-27.4 56-28Zm389.8 190.5c-18.7 14.3-44.2 13.8-66.5 13-21.6-.7-43 .4-64.3 1.5-16.5.9-33 1.7-49.7 1.7h-1c-21.8 0-58.6 0-57-30 .7-11.3 5.8-23.3 10.5-34.6 2-4.5 3.8-8.8 5.3-13l.4-1.1c5-14 10.4-28.8 20-40.3 14.4-17.4 38-17.1 61-16.9 9 .1 17.7.2 25.9-.7 13.6-1.6 26.4-6.7 39-11.7 15.7-6.3 31-12.4 47-11.5 63.7 3.3 73.6 109.7 29.4 143.6Zm837.2-216.6c6.2 29.8-10 43.9-32.7 61-28.5 21.5-63 40.5-99.7 40.5-48-1.3-129.2-57.8-100-110.3 14-25 32.9-40.4 53.7-57.5l12.6-10.4c6.2-5.3 12.1-12.7 18.2-20.3 13.2-16.5 27.2-34 46.8-33 73 3.7 88.7 70.5 101.1 130Zm-885.4 64.8-8.1 1.8c-7.5 1.8-14.5 4.4-21.8 7.1-12.8 4.9-26.6 10-46.2 11.4-62.4 4.4-86.7-2.3-99.5-5.8l-4.3-1.2c-23.6-5.7-50.9-22.3-9-70.4 16.2-18.8 18-35.3 19.7-51.2a84 84 0 0 1 8.3-32.8 84 84 0 0 1 66.3-45.8c69.1-7 109.5 45.2 128.7 105 8 25 11.2 55.5-8.6 71.5-7.8 6.4-11.6 7.3-25.5 10.4Zm-181.6-135c7.2 63.5-38.3 90-95 90-39.4 0-135.9-11-135-67 .3-15.3 9.4-27.6 18.2-39.5l6.4-8.9c8-11.9 12-24.5 16-38l1.3-3.8c9-29 24-44.6 56-41.9 59.3 5 125 46.1 132.1 109Zm687.7-133.8c-24.3 17.1-40.2 29.4-51 58.8l-.9 2.4c-9.1 25-26.7 73.2-59 73.2l-11 .2c-25.7.6-46.8 1.1-51.3-32-5.4-40.1-12.8-53.6-26-67.9a47.1 47.1 0 0 0-19.8-10.9c-10-3.5-20.4-7.3-27.6-18.7-15-23.6 30-45.6 50.7-55.8 2.3-1.1 4.3-2 5.8-2.9 20.2-10.4 35.7-22 50.6-33 15.3-11.4 30-22.3 48.3-31 35.3-16.3 83-17.4 121.5-17.4 25.7 0 67.3 3.3 68 37.4.6 36.2-42.5 62.8-76.1 83.5a461 461 0 0 0-22.2 14.1Zm243.1 23.5c-2.5 11.5-5 23-8.5 34.3-9.8 32.3-29.8 66.4-67.7 66.4-27.5 0-52.6-15.4-75.4-29.4l-2-1.3c-21.4-13-47.8-30-56.8-54.8-13.4-37 18.4-59.2 50-81.3 21.7-15.1 43.4-30.2 50.1-50a117 117 0 0 0 3.5-47.8l-.9-7.7c-1.5-12.3-3.5-27.9 5-36.1 14.1-13.6 42.1 3.4 56.7 12.2l2.6 1.5c35.4 21.2 99.3 65 74.4 113.6l-6.2 11.9c-7.5 14-14.6 27.4-19 43.7-2.1 8.2-4 16.5-5.8 24.8Zm-616.6-134.6c3.7 31.4-15.2 57-34.9 79l-15.5 18c-34.4 40.2-71 83-127.7 83-50.5 0-107.2-31.2-95.5-89.7 8.4-42.2 45-72.1 78-96.2 39.2-28.8 97.6-63.8 148.2-48.9a66 66 0 0 1 47.4 54.8Zm-276.6 48a56.1 56.1 0 0 0-14.5 40.3c0 31.2-8.2 64.7-47 64.7-30.5 0-66.3-17.4-94-31l-3.6-1.6c-33.6-16.3-23-43.3-10-71.2 7.3-15.6 12.2-33.2 17.1-51 10-36.5 20.3-73.6 51.9-95.4 44.1-30.4 118-10.3 154.4 25 20.3 19.6 21.1 35.1 2.6 59.5l-6.1 8.2c-8.2 11-15.2 20.6-27.7 31.2a353.8 353.8 0 0 0-23.1 21.4Zm391.8 47.3c-3.1 8.4-10.5 26.7-31.5 28.6-14.6 1.3-25.5 4-35 6.4-9.2 2.4-17.1 4.3-25.7 4.3-35 0-57-19.3-42-54.8 4.3-10.4 10-19.5 15.4-28.4 11.2-18.2 21.8-35.4 19.2-60.3-3.2-31-4.7-62.2 26.8-79 19.5-10.5 42.7-16.2 65-21.7l18-4.5c32.3-8.6 67-12.8 100.1-7.3 25.3 4.2 59.3 17.6 73.1 42 13.5 23.9-12.2 52-41.9 73.4a776.4 776.4 0 0 1-67.7 43c-11 6.1-20.5 10.4-28.6 14.1-22.4 10.2-34.9 16-45.2 44.2Zm-59.9 46.2c19.5-6.2 37.7-11.9 69.8-5.6 49 9.6 53.2 30.6 60.6 67.5 3 15 6.5 32.7 13.8 53.4 23.7 67-33.4 79.8-87.8 92l-10 2.3c-5.8 1.3-12.1 3-18.8 4.7-41.5 10.6-97.6 25-128.7-3.4-19.6-18-54.6-74.7-61.4-95.6l-1.5-4.7c-6.1-18.7-11.2-34.2-3.4-59.3 10.7-34.3 31.2-55.5 60.3-48.7 56.8 13.2 83 5 107.1-2.6Zm-314.7 803c-4.7 27.3-11.2 56.4-30.8 77.1-20.3 21.4-49.8 30.2-78.6 30.2-56.2 0-123.1-27.3-147.5-81.2a195.2 195.2 0 0 1-13.3-55.8c-3.8-25.6-9-59.5 7.4-82.1 17.2-23.8 46.5-19.5 72-15.8l7.8 1.1c17 2.3 34 2.5 51 2.7 19.4.2 38.8.4 58 3.6 28.7 4.9 57.3 17.2 69.8 45.2 10.3 23.3 8.5 50.6 4.2 75Zm252.5 21.6c-71.3 76.2-221.6 148.8-237 81.4-12-53.2-9.1-88.2-7.5-107.2l.5-7c1-16.7 3.7-33.3 7.2-49.7 6.5-31.7 21-71.3 60.4-81.7 40-10.7 88.5 13 116 29.3l7.1 4.2c37 21.3 114.1 65.7 53.3 130.7Zm136.7-195.2c23.6 16.9 42.4 42.4 18.5 65-18.5 17.5-54.7 21-78.2 21-52.6 0-117.5-18-161.9-48.4-25.6-17.5-37-39.1-34.2-67.2 3.2-32 16.6-46.6 36.7-67.4 10.3-10.7 15.1-24 19.3-35.4 4.8-13.1 8.6-23.8 19-24.9 7.4-.8 12.1 1.8 17.6 5 3.2 1.7 6.5 3.6 10.8 5a113 113 0 0 0 51.9 2.9c10.8-1.5 21.1-3 32.4.7 19.6 6.3 23.9 38.4 26.7 59.5l1.2 8.6c5.3 33.6 12 55.3 40.2 75.6Zm-523.2-169c31.4 7.6 56.6 32.5 68.2 62 23 58.2-11 145-81.7 145-21.5 0-41.7-6.7-62-13.4-17-5.6-34-11.3-51.8-13-6.3-.6-14 .4-22.1 1.5-19.4 2.5-40.8 5.3-49.1-13.3-12.7-28.9 8.9-58.5 29.1-76.8 23.4-21.2 49.2-41.1 74.2-60.3 27.2-21 59.7-40.2 95.2-31.7Zm245.5 131.5a293 293 0 0 1-9 17.2c-14.6 25-43.4 49.9-73.9 49.9-47.1 0-61-56-70.8-96l-4.4-17.1c-8.7-31.1-24.5-52.7-42.5-76.7-19.5-26 7.8-40 31.4-46.7 30.2-8.4 61.5-6.7 92.4-4.7 8.6.6 17.2 1 25.8 1.3 18.4.7 36.8 1.4 55 4.5 23.4 4 51 12.4 60.3 36.8 9.9 25.8-2.8 53.2-19.9 72.4-3.5 4-7.2 7.8-10.8 11.6-6.6 6.8-13.3 13.6-18.8 21.4a191.1 191.1 0 0 0-14.8 26.1Z" fill="currentColor"/>
</svg>
