<svg width="3949" height="2545" viewBox="0 0 3949 2545" fill="none" xmlns="http://www.w3.org/2000/svg">
<path d="M1825.28 648.795L1886.3 709.805C1916.05 739.555 1916.05 788.363 1886.3 818.251L1825.28 879.261C1795.53 909.012 1746.71 909.012 1716.82 879.261L1655.8 818.251C1626.05 788.5 1626.05 739.693 1655.8 709.805L1716.82 648.795C1746.71 618.907 1795.53 618.907 1825.28 648.795ZM1631.4 427.514C1596.71 392.828 1540.08 392.828 1505.52 427.514L1434.63 498.395C1399.94 533.082 1399.94 589.704 1434.63 624.254L1505.52 695.135C1540.21 729.821 1596.84 729.821 1631.4 695.135L1702.29 624.254C1736.98 589.567 1736.98 532.945 1702.29 498.395L1631.4 427.514ZM1220.32 439.716C1188.92 408.32 1137.36 408.32 1105.96 439.716L1041.65 504.016C1010.25 535.412 1010.25 586.962 1041.65 618.358L1105.96 682.659C1137.36 714.329 1188.78 714.329 1220.32 682.796L1284.62 618.495C1316.02 587.099 1316.02 535.55 1284.62 504.154L1220.32 439.716ZM2431.48 1888.46L2490.44 1829.51C2519.24 1800.71 2519.24 1753.55 2490.44 1724.76L2431.48 1665.81C2402.69 1637.02 2355.52 1637.02 2326.72 1665.81L2267.76 1724.76C2238.97 1753.55 2238.97 1800.71 2267.76 1829.51L2326.72 1888.46C2355.52 1917.25 2402.69 1917.25 2431.48 1888.46ZM1309.58 644.407L1246.23 707.748C1215.24 738.733 1215.24 789.323 1246.23 820.308L1309.58 883.511C1340.57 914.496 1391.17 914.496 1422.15 883.511L1485.5 820.308C1516.49 789.323 1516.49 738.733 1485.5 707.748L1422.15 644.407C1391.03 613.423 1340.43 613.423 1309.58 644.407ZM2525.13 643.585L2461.37 707.337C2430.25 738.459 2430.25 789.46 2461.37 820.582L2525.13 884.334C2556.26 915.456 2607.27 915.456 2638.39 884.334L2702.15 820.582C2733.28 789.46 2733.28 738.459 2702.15 707.337L2638.39 643.585C2607.27 612.463 2556.26 612.463 2525.13 643.585ZM2844.48 433.958C2811.43 400.917 2757.55 400.917 2724.5 433.958L2657.04 501.411C2623.99 534.453 2623.99 588.333 2657.04 621.375L2724.5 688.828C2757.55 721.869 2811.43 721.869 2844.48 688.828L2911.94 621.375C2944.99 588.333 2944.99 534.453 2911.94 501.411L2844.48 433.958ZM820.754 427.514C786.063 392.828 729.434 392.828 694.88 427.514L623.99 498.395C589.299 533.082 589.299 589.704 623.99 624.254L694.88 695.135C729.571 729.821 786.201 729.821 820.754 695.135L891.644 624.254C926.335 589.567 926.335 532.945 891.644 498.395L820.754 427.514ZM2427.5 458.636C2400.9 432.039 2357.44 432.039 2330.84 458.636L2276.54 512.928C2249.94 539.525 2249.94 582.986 2276.54 609.584L2330.84 663.876C2357.44 690.473 2400.9 690.473 2427.5 663.876L2481.8 609.584C2508.4 582.986 2508.4 539.525 2481.8 512.928L2427.5 458.636ZM3046.87 637.141C3013.96 604.237 2960.34 604.237 2927.44 637.141L2860.25 704.321C2827.34 737.088 2827.34 790.831 2860.25 823.735L2927.44 890.915C2960.34 923.682 3013.96 923.682 3046.87 890.915L3114.05 823.735C3146.96 790.831 3146.96 737.225 3114.05 704.321L3046.87 637.141ZM2122.96 650.303L2062.77 710.49C2033.43 739.83 2033.43 787.952 2062.77 817.429L2122.96 877.616C2152.31 906.955 2200.44 906.955 2229.92 877.616L2290.11 817.429C2319.45 788.089 2319.45 739.967 2290.11 710.49L2229.92 650.303C2200.57 620.963 2152.44 620.963 2122.96 650.303ZM2029.18 443.692C1998.74 413.256 1948.96 413.256 1918.38 443.692L1856.13 505.936C1825.69 536.372 1825.69 586.14 1856.13 616.713L1918.38 678.957C1948.82 709.393 1998.6 709.393 2029.18 678.957L2091.43 616.713C2121.87 586.277 2121.87 536.509 2091.43 505.936L2029.18 443.692ZM1309.17 2100.14C1340.29 2131.26 1391.3 2131.26 1422.43 2100.14L1486.19 2036.39C1517.31 2005.27 1517.31 1954.27 1486.19 1923.15L1422.43 1859.39C1391.3 1828.27 1340.29 1828.27 1309.17 1859.39L1245.41 1923.15C1214.28 1954.27 1214.28 2005.27 1245.41 2036.39L1309.17 2100.14ZM1617.68 1881.88L1673.22 1826.35C1700.37 1799.21 1700.37 1754.92 1673.22 1727.78L1617.68 1672.25C1590.54 1645.11 1546.25 1645.11 1519.1 1672.25L1463.56 1727.78C1436.41 1754.92 1436.41 1799.21 1463.56 1826.35L1519.1 1881.88C1546.25 1909.02 1590.67 1909.02 1617.68 1881.88ZM1726.69 2074.37C1751.1 2098.77 1791.14 2098.77 1815.68 2074.37L1865.73 2024.33C1890.14 1999.92 1890.14 1959.89 1865.73 1935.35L1815.68 1885.31C1791.28 1860.9 1751.24 1860.9 1726.69 1885.31L1676.65 1935.35C1652.24 1959.89 1652.24 1999.78 1676.65 2024.33L1726.69 2074.37ZM492.082 630.149L421.192 701.03C386.502 735.717 386.502 792.339 421.192 826.889L492.082 897.77C526.773 932.456 583.403 932.456 617.957 897.77L688.847 826.889C723.538 792.202 723.538 735.579 688.847 701.03L617.957 630.149C583.403 595.6 526.773 595.6 492.082 630.149ZM2113.09 2117.14C2141.2 2145.25 2187.14 2145.25 2215.38 2117.14L2272.83 2059.7C2300.94 2031.59 2300.94 1985.53 2272.83 1957.42L2215.38 1899.98C2187.27 1871.87 2141.34 1871.87 2113.09 1899.98L2055.64 1957.42C2027.53 1985.53 2027.53 2031.59 2055.64 2059.7L2113.09 2117.14ZM2024.1 1884.07L2080.73 1827.45C2108.43 1799.76 2108.43 1754.51 2080.73 1726.82L2024.1 1670.19C1996.4 1642.5 1951.16 1642.5 1923.46 1670.19L1866.83 1726.82C1839.13 1754.51 1839.13 1799.76 1866.83 1827.45L1923.46 1884.07C1951.16 1911.77 1996.4 1911.77 2024.1 1884.07ZM694.743 1505.67C729.434 1540.36 786.063 1540.36 820.617 1505.67L891.507 1434.79C926.198 1400.11 926.198 1343.48 891.507 1308.93L820.754 1238.05C786.063 1203.37 729.434 1203.37 694.88 1238.05L623.99 1308.93C589.299 1343.62 589.299 1400.24 623.99 1434.79L694.743 1505.67ZM1226.08 1910.94L1296.97 1840.06C1331.66 1805.38 1331.66 1748.75 1296.97 1714.2L1226.08 1643.32C1191.38 1608.64 1134.75 1608.64 1100.2 1643.32L1029.31 1714.2C994.62 1748.89 994.62 1805.51 1029.31 1840.06L1100.2 1910.94C1134.75 1945.63 1191.38 1945.63 1226.08 1910.94ZM698.308 1903.4C730.942 1936.03 784.418 1936.03 817.052 1903.4L883.829 1836.64C916.463 1804.01 916.463 1750.54 883.829 1717.91L817.052 1651.14C784.418 1618.51 730.942 1618.51 698.308 1651.14L631.531 1717.91C598.897 1750.54 598.897 1804.01 631.531 1836.64L698.308 1903.4ZM897.403 2113.58C932.094 2148.26 988.724 2148.26 1023.28 2113.58L1094.17 2042.83C1128.86 2008.15 1128.86 1951.53 1094.17 1916.98L1023.28 1846.1C988.587 1811.41 931.957 1811.41 897.403 1846.1L826.513 1916.98C791.822 1951.66 791.822 2008.29 826.513 2042.83L897.403 2113.58ZM897.403 630.149L826.513 701.03C791.822 735.717 791.822 792.339 826.513 826.889L897.403 897.77C932.094 932.456 988.724 932.456 1023.28 897.77L1094.17 826.889C1128.86 792.202 1128.86 735.579 1094.17 701.03L1023.28 630.149C988.724 595.6 932.094 595.6 897.403 630.149ZM2031.64 843.478C1999.83 811.67 1947.73 811.67 1915.78 843.478L1850.65 908.601C1818.84 940.408 1818.84 992.506 1850.65 1024.45L1915.78 1089.57C1947.59 1121.38 1999.7 1121.38 2031.64 1089.57L2096.77 1024.45C2128.59 992.643 2128.59 940.545 2096.77 908.601L2031.64 843.478ZM842.419 1518.97C811.842 1549.55 811.842 1599.45 842.419 1630.02L904.945 1692.54C935.522 1723.12 985.57 1723.12 1016.01 1692.54L1078.54 1630.02C1109.11 1599.45 1109.11 1549.41 1078.54 1518.97L1016.01 1456.45C985.433 1425.88 935.385 1425.88 904.945 1456.45L842.419 1518.97ZM1631.4 832.784C1596.71 798.097 1540.08 798.097 1505.52 832.784L1434.63 903.665C1399.94 938.351 1399.94 994.974 1434.63 1029.52L1505.52 1100.4C1540.21 1135.09 1596.84 1135.09 1631.4 1100.4L1702.29 1029.52C1736.98 994.837 1736.98 938.214 1702.29 903.665L1631.4 832.784ZM1302.86 1035.42L1231.97 1106.3C1197.28 1140.99 1197.28 1197.61 1231.97 1232.16L1302.86 1303.04C1337.55 1337.73 1394.18 1337.73 1428.74 1303.04L1499.63 1232.16C1534.32 1197.47 1534.32 1140.85 1499.63 1106.3L1428.74 1035.42C1394.04 1000.87 1337.42 1000.87 1302.86 1035.42ZM1223.74 837.582C1190.42 804.267 1135.71 804.267 1102.39 837.582L1034.11 905.859C1000.79 939.174 1000.79 993.877 1034.11 1027.19L1102.39 1095.47C1135.71 1128.78 1190.42 1128.78 1223.74 1095.47L1292.03 1027.19C1325.35 993.877 1325.35 939.174 1292.03 905.859L1223.74 837.582ZM1720.52 1061.74L1663.62 1118.64C1635.78 1146.47 1635.78 1191.99 1663.62 1219.68L1720.52 1276.58C1748.36 1304.41 1793.88 1304.41 1821.58 1276.58L1878.48 1219.68C1906.32 1191.85 1906.32 1146.33 1878.48 1118.64L1821.58 1061.74C1793.88 1034.05 1748.36 1034.05 1720.52 1061.74ZM905.082 1286.86C935.522 1317.3 985.296 1317.3 1015.74 1286.86L1077.99 1224.62C1108.43 1194.18 1108.43 1144.41 1077.99 1113.98L1015.74 1051.6C985.296 1021.16 935.522 1021.16 905.082 1051.6L842.83 1113.84C812.39 1144.28 812.39 1194.04 842.83 1224.48L905.082 1286.86ZM3679.12 708.159C3648.4 738.87 3648.4 789.049 3679.12 819.759L3741.92 882.551C3772.63 913.262 3822.82 913.262 3853.53 882.551L3916.33 819.759C3947.05 789.049 3947.05 738.87 3916.33 708.159L3853.53 645.367C3822.82 614.657 3772.63 614.657 3741.92 645.367L3679.12 708.159ZM2426.27 1066.95L2479.33 1013.89C2505.25 987.982 2505.25 945.481 2479.33 919.431L2426.27 866.374C2400.35 840.462 2357.85 840.462 2331.8 866.374L2278.73 919.431C2252.82 945.343 2252.82 987.845 2278.73 1013.89L2331.8 1066.95C2357.85 1092.86 2400.35 1092.86 2426.27 1066.95ZM872.859 912.439L811.979 851.43C782.224 821.679 733.41 821.679 703.656 851.43L642.638 912.439C612.883 942.19 612.883 990.998 642.638 1020.89L703.656 1081.9C733.41 1111.65 782.224 1111.65 811.979 1081.9L872.996 1020.89C902.751 990.998 902.751 942.19 872.859 912.439ZM2123.1 1055.98L2063.18 1115.9C2033.84 1145.24 2033.84 1193.22 2063.18 1222.42L2123.1 1282.34C2152.44 1311.68 2200.44 1311.68 2229.64 1282.34L2289.56 1222.42C2318.91 1193.08 2318.91 1145.1 2289.56 1115.9L2229.64 1055.98C2200.44 1026.64 2152.44 1026.64 2123.1 1055.98ZM2020.67 1471.54L2073.46 1418.75C2099.24 1392.98 2099.24 1350.75 2073.46 1324.84L2020.67 1272.05C1994.9 1246.28 1952.66 1246.28 1926.75 1272.05L1873.96 1324.84C1848.18 1350.61 1848.18 1392.84 1873.96 1418.75L1926.75 1471.54C1952.66 1497.45 1994.9 1497.45 2020.67 1471.54ZM1226.08 1505.67L1296.97 1434.79C1331.66 1400.11 1331.66 1343.48 1296.97 1308.93L1226.08 1238.05C1191.38 1203.37 1134.75 1203.37 1100.2 1238.05L1029.31 1308.93C994.62 1343.62 994.62 1400.24 1029.31 1434.79L1100.2 1505.67C1134.75 1540.36 1191.38 1540.36 1226.08 1505.67ZM2840.91 1086.42L2904.4 1022.94C2935.39 991.958 2935.39 941.093 2904.4 910.109L2840.91 846.631C2809.93 815.646 2759.06 815.646 2728.07 846.631L2664.58 910.109C2633.59 941.093 2633.59 991.958 2664.58 1022.94L2728.07 1086.42C2759.06 1117.54 2809.93 1117.54 2840.91 1086.42ZM3043.03 1287.96L3105.83 1225.17C3136.54 1194.46 3136.54 1144.14 3105.83 1113.43L3043.03 1050.64C3012.31 1019.93 2961.99 1019.93 2931.28 1050.64L2868.48 1113.43C2837.76 1144.14 2837.76 1194.46 2868.48 1225.17L2931.28 1287.96C2961.99 1318.67 3012.31 1318.67 3043.03 1287.96ZM2732.04 1483.33C2760.84 1512.12 2808.14 1512.12 2836.94 1483.33L2896.04 1424.24C2924.83 1395.45 2924.83 1348.15 2896.04 1319.35L2836.94 1260.26C2808.01 1231.47 2760.84 1231.47 2732.04 1260.26L2672.95 1319.35C2644.15 1348.15 2644.15 1395.45 2672.95 1424.24L2732.04 1483.33ZM2421.88 1462.9L2470.01 1414.78C2493.59 1391.19 2493.59 1352.67 2470.01 1329.09L2421.88 1280.97C2398.3 1257.38 2359.77 1257.38 2336.18 1280.97L2288.05 1329.09C2264.47 1352.67 2264.47 1391.19 2288.05 1414.78L2336.18 1462.9C2359.9 1486.48 2398.43 1486.48 2421.88 1462.9ZM2638.67 1289.88L2702.56 1225.99C2733.83 1194.73 2733.83 1143.59 2702.56 1112.47L2638.67 1048.58C2607.4 1017.32 2556.26 1017.32 2525.13 1048.58L2461.23 1112.47C2429.97 1143.73 2429.97 1194.87 2461.23 1225.99L2525.13 1289.88C2556.26 1321.14 2607.4 1321.14 2638.67 1289.88ZM1619.6 1480.58L1677.19 1423C1705.3 1394.9 1705.3 1348.83 1677.19 1320.73L1619.6 1263.14C1591.49 1235.04 1545.42 1235.04 1517.31 1263.14L1459.72 1320.73C1431.62 1348.83 1431.62 1394.9 1459.72 1423L1517.31 1480.58C1545.42 1508.69 1591.49 1508.69 1619.6 1480.58ZM1305.88 1701.73C1338.79 1734.63 1392.67 1734.63 1425.58 1701.73L1492.91 1634.41C1525.82 1601.51 1525.82 1547.63 1492.91 1514.72L1425.58 1447.41C1392.67 1414.5 1338.79 1414.5 1305.88 1447.41L1238.55 1514.72C1205.64 1547.63 1205.64 1601.51 1238.55 1634.41L1305.88 1701.73ZM2123.1 1687.88C2152.44 1717.22 2200.44 1717.22 2229.78 1687.88L2289.84 1627.83C2319.18 1598.49 2319.18 1550.51 2289.84 1521.17L2229.78 1461.12C2200.44 1431.78 2152.44 1431.78 2123.1 1461.12L2063.04 1521.17C2033.7 1550.51 2033.7 1598.49 2063.04 1627.83L2123.1 1687.88ZM1717.37 1688.84C1746.99 1718.45 1795.39 1718.45 1824.87 1688.84L1885.34 1628.38C1914.96 1598.77 1914.96 1550.37 1885.34 1520.89L1824.87 1460.43C1795.25 1430.82 1746.85 1430.82 1717.37 1460.43L1656.9 1520.89C1627.28 1550.51 1627.28 1598.9 1656.9 1628.38L1717.37 1688.84ZM3249.66 1093.69L3316.99 1026.37C3349.9 993.466 3349.9 939.722 3316.99 906.818L3249.66 839.502C3216.76 806.598 3163.01 806.598 3130.1 839.502L3062.77 906.818C3029.86 939.722 3029.86 993.466 3062.77 1026.37L3130.1 1093.69C3162.87 1126.45 3216.76 1126.45 3249.66 1093.69ZM3136.68 1889.97C3165.88 1919.17 3213.6 1919.17 3242.81 1889.97L3302.45 1830.33C3331.66 1801.13 3331.66 1753.41 3302.45 1724.21L3242.81 1664.57C3213.6 1635.37 3165.88 1635.37 3136.68 1664.57L3077.03 1724.21C3047.83 1753.41 3047.83 1801.13 3077.03 1830.33L3136.68 1889.97ZM290.93 286.575C324.798 320.439 380.057 320.439 413.925 286.575L483.033 217.476C516.901 183.612 516.901 128.361 483.033 94.4967L413.925 25.3979C380.057 -8.46597 324.798 -8.46597 290.93 25.3979L221.823 94.4967C187.955 128.361 187.955 183.612 221.823 217.476L290.93 286.575ZM1278.73 2236.83C1308.62 2206.94 1308.62 2157.86 1278.73 2127.97L1217.44 2066.69C1187.55 2036.8 1138.46 2036.8 1108.57 2066.69L1047.27 2127.97C1017.38 2157.86 1017.38 2206.94 1047.27 2236.83L1108.57 2298.12C1138.46 2328 1187.55 2328 1217.44 2298.12L1278.73 2236.83ZM1702.29 2119.47L1631.4 2048.59C1596.71 2013.91 1540.08 2013.91 1505.52 2048.59L1434.63 2119.47C1399.94 2154.16 1399.94 2210.78 1434.63 2245.33L1505.52 2316.21C1540.21 2350.9 1596.84 2350.9 1631.4 2316.21L1702.29 2245.33C1736.84 2210.78 1736.84 2154.16 1702.29 2119.47ZM1428.74 2251.36C1394.04 2216.68 1337.42 2216.68 1302.86 2251.36L1231.97 2322.25C1197.28 2356.93 1197.28 2413.55 1231.97 2448.1L1302.86 2518.99C1337.55 2553.67 1394.18 2553.67 1428.74 2518.99L1499.63 2448.1C1534.32 2413.42 1534.32 2356.8 1499.63 2322.25L1428.74 2251.36ZM891.507 2119.47L820.617 2048.59C785.926 2013.91 729.297 2013.91 694.743 2048.59L623.853 2119.47C589.162 2154.16 589.162 2210.78 623.853 2245.33L694.743 2316.21C729.434 2350.9 786.063 2350.9 820.617 2316.21L891.507 2245.33C926.198 2210.78 926.198 2154.16 891.507 2119.47ZM1821.17 2278.78C1793.61 2251.23 1748.5 2251.23 1721.07 2278.78L1664.72 2335.13C1637.16 2362.69 1637.16 2407.8 1664.72 2435.22L1721.07 2491.57C1748.63 2519.12 1793.61 2519.12 1821.17 2491.57L1877.52 2435.22C1905.08 2407.66 1905.08 2362.69 1877.52 2335.13L1821.17 2278.78ZM90.875 888.995C123.235 921.351 176.3 921.351 208.659 888.995L274.887 822.775C307.247 790.42 307.247 737.362 274.887 705.006L208.659 638.923C176.3 606.568 123.372 606.568 90.875 638.923L24.647 705.143C-7.71289 737.499 -7.71289 790.42 24.647 822.913L90.875 888.995ZM289.422 695.135C324.113 729.821 380.743 729.821 415.296 695.135L486.186 624.254C520.877 589.567 520.877 532.945 486.186 498.395L415.433 427.514C380.743 392.828 324.113 392.828 289.559 427.514L218.669 498.395C183.978 533.082 183.978 589.704 218.669 624.254L289.422 695.135ZM208.797 1854.46C176.3 1821.97 123.235 1821.97 90.7379 1854.46L24.3727 1920.81C-8.12424 1953.31 -8.12424 2006.37 24.3727 2038.86L90.7379 2105.22C123.235 2137.71 176.3 2137.71 208.797 2105.22L275.162 2038.86C307.659 2006.37 307.659 1953.31 275.162 1920.81L208.797 1854.46ZM479.468 1836.91C512.376 1804.01 512.376 1750.26 479.468 1717.36L412.28 1650.18C379.371 1617.27 325.621 1617.27 292.713 1650.18L225.525 1717.36C192.617 1750.26 192.617 1804.01 225.525 1836.91L292.713 1904.09C325.621 1936.99 379.371 1936.99 412.28 1904.09L479.468 1836.91ZM675.272 2036.39C706.398 2005.27 706.398 1954.4 675.272 1923.28L611.649 1859.67C580.524 1828.55 529.653 1828.55 498.527 1859.67L434.904 1923.28C403.778 1954.4 403.778 2005.27 434.904 2036.39L498.527 2100.01C529.653 2131.13 580.524 2131.13 611.649 2100.01L675.272 2036.39ZM2632.5 1682.4L2689.54 1625.36C2717.51 1597.39 2717.51 1551.74 2689.54 1523.91L2632.5 1466.87C2604.52 1439.04 2558.86 1439.04 2531.03 1466.87L2473.99 1523.91C2446.01 1551.74 2446.01 1597.53 2473.99 1625.36L2531.03 1682.4C2559 1710.23 2604.66 1710.23 2632.5 1682.4ZM3091.98 1930.55L3036.58 1875.02C3009.43 1847.88 2965.14 1847.88 2937.99 1875.02L2882.46 1930.55C2855.31 1957.69 2855.31 2001.98 2882.46 2029.12L2937.99 2084.65C2965.14 2111.8 3009.43 2111.8 3036.58 2084.65L3091.98 2029.12C3118.99 2001.98 3118.99 1957.69 3091.98 1930.55ZM3439.02 1880.92C3413.38 1855.28 3371.56 1855.28 3345.92 1880.92L3293.54 1933.29C3267.9 1958.93 3267.9 2000.74 3293.54 2026.38L3345.92 2078.75C3371.56 2104.39 3413.38 2104.39 3439.02 2078.75L3491.4 2026.38C3517.04 2000.74 3517.04 1958.93 3491.4 1933.29L3439.02 1880.92ZM3241.44 2072.86C3213.05 2044.48 3166.57 2044.48 3138.19 2072.86L3080.19 2130.85C3051.8 2159.23 3051.8 2205.71 3080.19 2234.09L3138.19 2292.22C3166.57 2320.6 3213.05 2320.6 3241.44 2292.22L3299.57 2234.09C3327.96 2205.71 3327.96 2159.23 3299.57 2130.85L3241.44 2072.86ZM3924.42 1109.73L3857.37 1042.69C3824.6 1009.92 3770.99 1009.92 3738.22 1042.69L3671.16 1109.73C3638.39 1142.49 3638.39 1196.1 3671.16 1228.87L3738.22 1295.91C3770.99 1328.68 3824.6 1328.68 3857.37 1295.91L3924.42 1228.87C3957.19 1196.1 3957.19 1142.49 3924.42 1109.73ZM3654.16 1651.82C3621.66 1619.33 3568.6 1619.33 3536.24 1651.82L3469.88 1718.18C3437.38 1750.67 3437.38 1803.73 3469.88 1836.22L3536.24 1902.58C3568.74 1935.07 3621.8 1935.07 3654.16 1902.58L3720.53 1836.22C3753.02 1803.73 3753.02 1750.67 3720.53 1718.18L3654.16 1651.82ZM2186.31 2254.52C2169.72 2237.93 2142.57 2237.93 2126.12 2254.52L2092.25 2288.38C2075.66 2304.97 2075.66 2332.12 2092.25 2348.57L2126.12 2382.43C2142.71 2399.02 2169.86 2399.02 2186.31 2382.43L2220.18 2348.57C2236.77 2331.98 2236.77 2304.83 2220.18 2288.38L2186.31 2254.52ZM2835.57 2073.96C2807.46 2045.85 2761.52 2045.85 2733.41 2073.96L2675.96 2131.4C2647.85 2159.51 2647.85 2205.44 2675.96 2233.54L2733.41 2290.99C2761.52 2319.09 2807.46 2319.09 2835.57 2290.99L2893.02 2233.54C2921.13 2205.44 2921.13 2159.51 2893.02 2131.4L2835.57 2073.96ZM2449.31 2051.61C2410.78 2013.08 2347.56 2013.08 2309.03 2051.61L2230.19 2130.44C2191.66 2168.97 2191.66 2232.17 2230.19 2270.7L2309.03 2349.53C2347.56 2388.05 2410.78 2388.05 2449.31 2349.53L2528.15 2270.7C2566.68 2232.17 2566.68 2168.97 2528.15 2130.44L2449.31 2051.61ZM2100.07 2139.76L2039.32 2079.03C2009.57 2049.28 1960.89 2049.28 1931.27 2079.03L1870.39 2139.76C1840.64 2169.52 1840.64 2218.19 1870.39 2247.8L1931.27 2308.67C1961.03 2338.42 2009.71 2338.42 2039.32 2308.67L2100.07 2247.8C2129.82 2218.19 2129.82 2169.52 2100.07 2139.76ZM2690.22 1928.77L2632.77 1871.32C2604.66 1843.22 2558.73 1843.22 2530.75 1871.32L2473.3 1928.77C2445.19 1956.87 2445.19 2002.8 2473.3 2030.77L2530.75 2088.21C2558.86 2116.32 2604.8 2116.32 2632.77 2088.21L2690.22 2030.77C2718.33 2002.8 2718.33 1956.87 2690.22 1928.77ZM1014.37 2270.56C984.748 2240.94 936.208 2240.94 906.59 2270.56L845.984 2331.16C816.367 2360.77 816.367 2409.3 845.984 2438.92L906.59 2499.52C936.208 2529.13 984.748 2529.13 1014.37 2499.52L1074.97 2439.06C1104.59 2409.44 1104.59 2360.91 1074.97 2331.29L1014.37 2270.56ZM3535.42 688.28C3568.33 721.184 3622.08 721.184 3654.98 688.28L3722.31 620.963C3755.22 588.059 3755.22 534.316 3722.31 501.411L3654.98 434.095C3622.08 401.191 3568.33 401.191 3535.42 434.095L3468.09 501.411C3435.18 534.316 3435.18 588.059 3468.09 620.963L3535.42 688.28ZM3252.82 427.514C3218.13 392.828 3161.5 392.828 3126.94 427.514L3056.05 498.395C3021.36 533.082 3021.36 589.704 3056.05 624.254L3126.94 695.135C3161.63 729.821 3218.26 729.821 3252.82 695.135L3323.71 624.254C3358.4 589.567 3358.4 532.945 3323.71 498.395L3252.82 427.514ZM3265.02 703.909C3231.98 736.951 3231.98 790.831 3265.02 823.872L3332.48 891.326C3365.53 924.367 3419.42 924.367 3452.46 891.326L3519.92 823.872C3552.97 790.831 3552.97 736.951 3519.92 703.909L3452.46 636.456C3419.42 603.414 3365.53 603.414 3332.48 636.456L3265.02 703.909ZM2859.29 418.74L2927.02 486.33C2960.07 519.372 3014.23 519.372 3047.28 486.33L3115.01 418.74C3148.06 385.698 3148.06 331.544 3115.01 298.502L3047.28 230.912C3014.23 197.871 2960.07 197.871 2927.02 230.912L2859.29 298.502C2826.24 331.544 2826.24 385.698 2859.29 418.74ZM3129.82 283.421C3162.73 316.463 3216.76 316.463 3249.66 283.421L3317.13 215.968C3350.17 182.927 3350.17 129.046 3317.13 96.1419L3249.66 28.6883C3216.76 -4.35295 3162.73 -4.35295 3129.82 28.6883L3062.36 96.0048C3029.45 128.909 3029.45 182.927 3062.36 215.831L3129.82 283.421ZM3040.28 1687.47L3100.07 1627.69C3129.27 1598.49 3129.27 1550.64 3100.07 1521.44L3040.28 1461.66C3011.08 1432.46 2963.22 1432.46 2934.02 1461.66L2874.23 1521.44C2845.03 1550.64 2845.03 1598.49 2874.23 1627.69L2934.02 1687.47C2963.22 1716.67 3011.08 1716.67 3040.28 1687.47ZM2733.83 263.542C2761.66 291.373 2807.18 291.373 2835.02 263.542L2891.92 206.645C2919.76 178.814 2919.76 133.296 2891.92 105.328L2835.02 48.4308C2807.18 20.5994 2761.66 20.5994 2733.83 48.4308L2676.92 105.328C2649.09 133.159 2649.09 178.676 2676.92 206.645L2733.83 263.542ZM3651.42 1086.15L3714.63 1022.94C3745.62 991.958 3745.62 941.368 3714.63 910.52L3651.42 847.317C3620.43 816.332 3569.83 816.332 3538.98 847.317L3475.77 910.52C3444.78 941.505 3444.78 992.095 3475.77 1022.94L3538.98 1086.15C3569.83 1116.99 3620.43 1116.99 3651.42 1086.15ZM2725.87 1901.76C2758.1 1933.98 2810.89 1933.98 2843.25 1901.76L2909.2 1835.81C2941.42 1803.59 2941.42 1750.81 2909.2 1718.59L2843.25 1652.65C2811.02 1620.43 2758.23 1620.43 2725.87 1652.65L2659.92 1718.59C2627.7 1750.81 2627.7 1803.59 2659.92 1835.81L2725.87 1901.76ZM3308.62 1315.93L3245.69 1253C3214.97 1222.29 3164.65 1222.29 3133.8 1253L3070.86 1315.93C3040.15 1346.64 3040.15 1397.09 3070.86 1427.8L3133.8 1490.73C3164.51 1521.44 3214.84 1521.44 3245.69 1490.73L3308.62 1427.8C3339.48 1397.09 3339.48 1346.77 3308.62 1315.93ZM3449.17 1289.74L3512.93 1225.99C3544.06 1194.87 3544.06 1143.73 3512.93 1112.61L3449.17 1048.85C3418.04 1017.73 3366.9 1017.73 3335.77 1048.85L3272.01 1112.61C3240.89 1143.73 3240.89 1194.87 3272.01 1225.99L3335.77 1289.74C3367.04 1320.86 3418.04 1320.86 3449.17 1289.74ZM2318.49 284.792C2351.81 318.108 2406.39 318.108 2439.71 284.792L2507.85 216.653C2541.17 183.338 2541.17 128.772 2507.85 95.4564L2439.71 27.3173C2406.39 -5.99815 2351.81 -5.99815 2318.49 27.3173L2250.35 95.4564C2217.03 128.772 2217.03 183.338 2250.35 216.653L2318.49 284.792ZM1103.49 282.599C1136.26 315.366 1189.88 315.366 1222.65 282.599L1289.7 215.557C1322.47 182.789 1322.47 129.183 1289.7 96.4161L1222.65 29.3738C1189.88 -3.39324 1136.26 -3.39324 1103.49 29.3738L1036.44 96.4161C1003.67 129.183 1003.67 182.789 1036.44 215.557L1103.49 282.599ZM1231.97 295.623C1197.28 330.31 1197.28 386.932 1231.97 421.482L1302.86 492.363C1337.55 527.049 1394.18 527.049 1428.74 492.363L1499.63 421.482C1534.32 386.795 1534.32 330.173 1499.63 295.623L1428.74 224.879C1394.04 190.193 1337.42 190.193 1302.86 224.879L1231.97 295.623ZM697.622 283.696C730.668 316.737 784.829 316.737 817.875 283.696L885.474 216.105C918.52 183.064 918.52 128.909 885.474 95.8677L817.875 28.277C784.829 -4.76425 730.668 -4.76425 697.622 28.277L630.023 95.8677C596.978 128.909 596.978 183.064 630.023 216.105L697.622 283.696ZM1509.64 280.816C1542 313.172 1594.79 313.172 1627.15 280.816L1693.24 214.734C1725.6 182.378 1725.6 129.594 1693.24 97.2387L1627.15 31.1561C1594.79 -1.19963 1542 -1.19963 1509.64 31.1561L1443.54 97.2387C1411.18 129.594 1411.18 182.378 1443.54 214.734L1509.64 280.816ZM2466.72 304.535C2436.96 334.286 2436.96 383.094 2466.72 412.844L2527.6 473.717C2557.35 503.468 2606.03 503.468 2635.92 473.717L2696.8 412.844C2726.56 383.094 2726.56 334.286 2696.8 304.535L2635.92 243.662C2606.17 213.911 2557.49 213.911 2527.6 243.662L2466.72 304.535ZM845.984 304.809C816.367 334.423 816.367 382.819 845.984 412.433L906.59 473.032C936.208 502.645 984.61 502.645 1014.23 473.032L1074.83 412.433C1104.45 382.819 1104.45 334.423 1074.83 304.809L1014.23 244.211C984.61 214.597 936.208 214.597 906.59 244.211L845.984 304.809ZM1643.33 298.502C1610.28 331.544 1610.28 385.698 1643.33 418.74L1710.92 486.33C1743.97 519.372 1798.13 519.372 1831.18 486.33L1898.78 418.74C1931.82 385.698 1931.82 331.544 1898.78 298.502L1831.18 230.912C1798.13 197.871 1743.97 197.871 1710.92 230.912L1643.33 298.502ZM421.329 295.623C386.639 330.31 386.639 386.932 421.329 421.482L492.22 492.363C526.91 527.049 583.54 527.049 618.094 492.363L688.984 421.482C723.675 386.795 723.675 330.173 688.984 295.623L618.094 224.879C583.403 190.193 526.773 190.193 492.22 224.879L421.329 295.623ZM2057.28 414.764L2120.36 477.83C2151.21 508.678 2201.67 508.678 2232.52 477.83L2295.6 414.764C2326.45 383.916 2326.45 333.463 2295.6 302.615L2232.52 239.549C2201.67 208.702 2151.21 208.702 2120.36 239.549L2057.28 302.615C2026.43 333.463 2026.43 383.916 2057.28 414.764ZM1916.74 277.115C1948.14 308.511 1999.42 308.511 2030.68 277.115L2094.86 212.952C2126.26 181.556 2126.26 130.28 2094.86 99.021L2030.68 34.8578C1999.28 3.46179 1948 3.46179 1916.74 34.8578L1852.57 99.021C1821.17 130.417 1821.17 181.693 1852.57 212.952L1916.74 277.115Z" fill="#0F69AF"/>
</svg>
