<svg viewBox="0 0 8000 8000" fill="none"
  xmlns="http://www.w3.org/2000/svg">
  <path fill-rule="evenodd" clip-rule="evenodd" d="M8000 0H0V8000H8000V0ZM3964.52 3774.72L3940.11 3750.32C3928.21 3738.36 3908.69 3738.36 3896.73 3750.32L3872.32 3774.72C3860.42 3786.68 3860.42 3806.2 3872.32 3818.1L3896.73 3842.5C3908.69 3854.4 3928.21 3854.4 3940.11 3842.5L3964.52 3818.1C3976.42 3806.15 3976.42 3786.62 3964.52 3774.72ZM3812.21 3661.81C3826.03 3647.93 3848.68 3647.93 3862.56 3661.81L3890.91 3690.16C3904.79 3703.98 3904.79 3726.63 3890.91 3740.5L3862.56 3768.85C3848.74 3782.73 3826.09 3782.73 3812.21 3768.85L3783.85 3740.5C3769.98 3726.68 3769.98 3704.03 3783.85 3690.16L3812.21 3661.81ZM3652.38 3666.69C3664.94 3654.13 3685.57 3654.13 3698.13 3666.69L3723.85 3692.46C3736.41 3705.02 3736.41 3725.64 3723.85 3738.2L3698.13 3763.92C3685.51 3776.53 3664.94 3776.53 3652.38 3763.86L3626.66 3738.14C3614.1 3725.58 3614.1 3704.97 3626.66 3692.41L3652.38 3666.69ZM4206.18 4222.6L4182.59 4246.18C4171.07 4257.7 4152.21 4257.7 4140.69 4246.18L4117.1 4222.6C4105.59 4211.09 4105.59 4192.22 4117.1 4180.7L4140.69 4157.12C4152.21 4145.61 4171.07 4145.61 4182.59 4157.12L4206.18 4180.7C4217.69 4192.22 4217.69 4211.09 4206.18 4222.6ZM3708.49 3773.9L3733.83 3748.56C3746.17 3736.17 3766.41 3736.17 3778.86 3748.56L3804.2 3773.9C3816.6 3786.29 3816.6 3806.53 3804.2 3818.92L3778.86 3844.2C3766.47 3856.6 3746.23 3856.6 3733.83 3844.2L3708.49 3818.92C3696.1 3806.53 3696.1 3786.29 3708.49 3773.9ZM4194.55 3773.73L4220.05 3748.23C4232.5 3735.79 4252.91 3735.79 4265.36 3748.23L4290.86 3773.73C4303.31 3786.18 4303.31 3806.58 4290.86 3819.03L4265.36 3844.53C4252.91 3856.98 4232.5 3856.98 4220.05 3844.53L4194.55 3819.03C4182.1 3806.58 4182.1 3786.18 4194.55 3773.73ZM4299.8 3664.38C4313.02 3651.17 4334.57 3651.17 4347.79 3664.38L4374.78 3691.36C4388 3704.58 4388 3726.13 4374.78 3739.35L4347.79 3766.33C4334.57 3779.55 4313.02 3779.55 4299.8 3766.33L4272.82 3739.35C4259.6 3726.13 4259.6 3704.58 4272.82 3691.36L4299.8 3664.38ZM3487.95 3661.81C3501.77 3647.93 3524.43 3647.93 3538.3 3661.81L3566.66 3690.16C3580.53 3703.98 3580.53 3726.63 3566.66 3740.5L3538.3 3768.85C3524.48 3782.73 3501.83 3782.73 3487.95 3768.85L3459.6 3740.5C3445.72 3726.68 3445.72 3704.03 3459.6 3690.16L3487.95 3661.81ZM4142.33 3674.25C4152.97 3663.62 4170.36 3663.62 4181 3674.25L4202.72 3695.97C4213.36 3706.61 4213.36 3723.99 4202.72 3734.63L4181 3756.35C4170.36 3766.99 4152.97 3766.99 4142.33 3756.35L4120.61 3734.63C4109.97 3723.99 4109.97 3706.61 4120.61 3695.97L4142.33 3674.25ZM4380.97 3745.66C4394.14 3732.49 4415.58 3732.49 4428.75 3745.66L4455.62 3772.53C4468.79 3785.69 4468.79 3807.13 4455.62 3820.29L4428.75 3847.17C4415.58 3860.27 4394.14 3860.27 4380.97 3847.17L4354.1 3820.29C4340.94 3807.13 4340.94 3785.64 4354.1 3772.53L4380.97 3745.66ZM4035.11 3775L4059.19 3750.92C4070.98 3739.19 4090.23 3739.19 4101.97 3750.92L4126.04 3775C4137.78 3786.79 4137.78 3806.04 4126.04 3817.77L4101.97 3841.85C4090.17 3853.58 4070.92 3853.58 4059.19 3841.85L4035.11 3817.77C4023.37 3805.98 4023.37 3786.73 4035.11 3775ZM3977.35 3668.28C3989.58 3656.1 4009.49 3656.1 4021.67 3668.28L4046.57 3693.17C4058.75 3705.4 4058.75 3725.31 4046.57 3737.49L4021.67 3762.38C4009.44 3774.56 3989.53 3774.56 3977.35 3762.38L3952.45 3737.49C3940.28 3725.26 3940.28 3705.35 3952.45 3693.17L3977.35 3668.28ZM3778.97 4330.86C3766.52 4343.31 3746.12 4343.31 3733.67 4330.86L3708.16 4305.36C3695.71 4292.91 3695.71 4272.51 3708.16 4260.06L3733.67 4234.56C3746.12 4222.11 3766.52 4222.11 3778.97 4234.56L3804.48 4260.06C3816.93 4272.51 3816.93 4292.91 3804.48 4305.36L3778.97 4330.86ZM3879.29 4221.34L3857.07 4243.55C3846.27 4254.41 3828.5 4254.41 3817.64 4243.55L3795.43 4221.34C3784.57 4210.48 3784.57 4192.77 3795.43 4181.91L3817.64 4159.7C3828.5 4148.84 3846.21 4148.84 3857.07 4159.7L3879.29 4181.91C3890.15 4192.77 3890.15 4210.48 3879.29 4221.34ZM3936.27 4320.55C3926.46 4330.31 3910.44 4330.31 3900.68 4320.55L3880.66 4300.53C3870.9 4290.71 3870.9 4274.76 3880.66 4264.94L3900.68 4244.92C3910.5 4235.16 3926.51 4235.16 3936.27 4244.92L3956.29 4264.94C3966.06 4274.76 3966.06 4290.77 3956.29 4300.53L3936.27 4320.55ZM3378.48 3771.21L3406.83 3742.86C3420.71 3729.04 3443.36 3729.04 3457.18 3742.86L3485.54 3771.21C3499.42 3785.03 3499.42 3807.68 3485.54 3821.56L3457.18 3849.91C3443.36 3863.78 3420.71 3863.78 3406.83 3849.91L3378.48 3821.56C3364.6 3807.74 3364.6 3785.09 3378.48 3771.21ZM4096.15 4337.66C4084.85 4348.9 4066.48 4348.9 4055.24 4337.66L4032.26 4314.68C4021.01 4303.44 4021.01 4285.01 4032.26 4273.77L4055.24 4250.79C4066.54 4239.55 4084.91 4239.55 4096.15 4250.79L4119.13 4273.77C4130.38 4285.01 4130.38 4303.44 4119.13 4314.68L4096.15 4337.66ZM4042.29 4221.78L4019.64 4244.43C4008.56 4255.51 3990.46 4255.51 3979.38 4244.43L3956.73 4221.78C3945.65 4210.7 3945.65 4192.6 3956.73 4181.53L3979.38 4158.88C3990.46 4147.8 4008.56 4147.8 4019.64 4158.88L4042.29 4181.53C4053.37 4192.6 4053.37 4210.7 4042.29 4221.78ZM3538.25 4093.07C3524.43 4106.94 3501.77 4106.94 3487.9 4093.07L3459.6 4064.72C3445.72 4050.9 3445.72 4028.25 3459.6 4014.37L3487.95 3986.02C3501.77 3972.15 3524.43 3972.15 3538.3 3986.02L3566.6 4014.37C3580.48 4028.19 3580.48 4050.84 3566.6 4064.72L3538.25 4093.07ZM3728.79 4226.83L3700.43 4255.18C3686.55 4269.05 3663.9 4269.05 3650.08 4255.18L3621.72 4226.83C3607.85 4213.01 3607.85 4190.36 3621.72 4176.48L3650.08 4148.13C3663.9 4134.25 3686.55 4134.25 3700.43 4148.13L3728.79 4176.48C3742.66 4190.3 3742.66 4212.95 3728.79 4226.83ZM3536.82 4252.16C3523.77 4265.21 3502.38 4265.21 3489.32 4252.16L3462.61 4225.45C3449.56 4212.4 3449.56 4191.01 3462.61 4177.96L3489.32 4151.26C3502.38 4138.2 3523.77 4138.2 3536.82 4151.26L3563.53 4177.96C3576.59 4191.01 3576.59 4212.4 3563.53 4225.45L3536.82 4252.16ZM3619.31 4336.23C3605.49 4350.11 3582.84 4350.11 3568.96 4336.23L3540.61 4307.93C3526.73 4294.11 3526.73 4271.46 3540.61 4257.59L3568.96 4229.24C3582.78 4215.36 3605.43 4215.36 3619.31 4229.24L3647.67 4257.59C3661.54 4271.41 3661.54 4294.06 3647.67 4307.93L3619.31 4336.23ZM3540.61 3771.21L3568.96 3742.86C3582.84 3729.04 3605.49 3729.04 3619.31 3742.86L3647.67 3771.21C3661.54 3785.03 3661.54 3807.68 3647.67 3821.56L3619.31 3849.91C3605.49 3863.78 3582.84 3863.78 3568.96 3849.91L3540.61 3821.56C3526.73 3807.74 3526.73 3785.09 3540.61 3771.21ZM3976.31 3828.19C3989.09 3815.47 4009.93 3815.47 4022.66 3828.19L4048.71 3854.24C4061.43 3867.02 4061.43 3887.86 4048.71 3900.58L4022.66 3926.63C4009.88 3939.35 3989.04 3939.35 3976.31 3926.63L3950.26 3900.58C3937.53 3887.8 3937.53 3866.96 3950.26 3854.24L3976.31 3828.19ZM3546.97 4142.81C3534.74 4130.58 3534.74 4110.62 3546.97 4098.39L3571.98 4073.38C3584.15 4061.15 3604.17 4061.15 3616.4 4073.38L3641.41 4098.39C3653.65 4110.56 3653.65 4130.58 3641.41 4142.81L3616.4 4167.82C3604.23 4180.05 3584.21 4180.05 3571.98 4167.82L3546.97 4142.81ZM3812.21 3823.91C3826.03 3810.04 3848.68 3810.04 3862.56 3823.91L3890.91 3852.27C3904.79 3866.09 3904.79 3888.73 3890.91 3902.61L3862.56 3930.96C3848.74 3944.84 3826.09 3944.84 3812.21 3930.96L3783.85 3902.61C3769.98 3888.79 3769.98 3866.14 3783.85 3852.27L3812.21 3823.91ZM3702.79 3933.32L3731.14 3904.97C3744.97 3891.15 3767.62 3891.15 3781.49 3904.97L3809.85 3933.32C3823.73 3947.14 3823.73 3969.79 3809.85 3983.66L3781.49 4012.02C3767.67 4025.89 3745.02 4025.89 3731.14 4012.02L3702.79 3983.66C3688.91 3969.84 3688.91 3947.19 3702.79 3933.32ZM3650.96 3825.83C3664.29 3812.51 3686.17 3812.51 3699.5 3825.83L3726.81 3853.14C3740.14 3866.47 3740.14 3888.35 3726.81 3901.68L3699.5 3928.99C3686.17 3942.31 3664.29 3942.31 3650.96 3928.99L3623.64 3901.68C3610.32 3888.35 3610.32 3866.47 3623.64 3853.14L3650.96 3825.83ZM3875.45 3938.26L3898.21 3915.5C3909.34 3904.42 3927.55 3904.42 3938.63 3915.5L3961.39 3938.26C3972.53 3949.33 3972.53 3967.54 3961.39 3978.67L3938.63 4001.43C3927.55 4012.56 3909.34 4012.56 3898.21 4001.43L3875.45 3978.67C3864.31 3967.59 3864.31 3949.39 3875.45 3938.26ZM3616.29 4005.54C3604.12 4017.72 3584.21 4017.72 3572.03 4005.54L3547.13 3980.59C3534.96 3968.42 3534.96 3948.51 3547.13 3936.34L3572.03 3911.44C3584.21 3899.26 3604.12 3899.26 3616.29 3911.44L3641.2 3936.39C3653.37 3948.57 3653.37 3968.47 3641.2 3980.65L3616.29 4005.54ZM4681.65 3818.7C4669.36 3806.42 4669.36 3786.35 4681.65 3774.06L4706.77 3748.95C4719.05 3736.66 4739.13 3736.66 4751.41 3748.95L4776.53 3774.06C4788.82 3786.35 4788.82 3806.42 4776.53 3818.7L4751.41 3843.82C4739.13 3856.1 4719.05 3856.1 4706.77 3843.82L4681.65 3818.7ZM4201.73 3896.36L4180.51 3917.58C4170.14 3927.95 4153.14 3927.95 4142.72 3917.58L4121.49 3896.36C4111.13 3885.94 4111.13 3868.94 4121.49 3858.57L4142.72 3837.35C4153.14 3826.98 4170.14 3826.98 4180.51 3837.35L4201.73 3858.57C4212.1 3868.99 4212.1 3885.99 4201.73 3896.36ZM3534.79 3831.37L3559.14 3855.78C3571.1 3867.68 3571.1 3887.2 3559.2 3899.15L3534.79 3923.56C3522.89 3935.46 3503.36 3935.46 3491.46 3923.56L3467.06 3899.15C3455.15 3887.2 3455.15 3867.68 3467.06 3855.78L3491.46 3831.37C3503.36 3819.47 3522.89 3819.47 3534.79 3831.37ZM4035.27 3937.16L4059.24 3913.19C4070.98 3901.46 4090.17 3901.46 4101.86 3913.19L4125.83 3937.16C4137.56 3948.84 4137.56 3968.03 4125.83 3979.77L4101.86 4003.73C4090.17 4015.47 4070.98 4015.47 4059.24 4003.73L4035.27 3979.77C4023.54 3968.09 4023.54 3948.89 4035.27 3937.16ZM4039.39 4058.3L4018.27 4079.41C4007.96 4089.78 3991.07 4089.78 3980.7 4079.41L3959.58 4058.3C3949.27 4047.94 3949.27 4031.05 3959.58 4020.74L3980.7 3999.62C3991.07 3989.31 4007.96 3989.31 4018.27 3999.62L4039.39 4020.74C4049.7 4031.1 4049.7 4047.99 4039.39 4058.3ZM3728.79 4064.72L3700.43 4093.07C3686.55 4106.94 3663.9 4106.94 3650.08 4093.07L3621.72 4064.72C3607.85 4050.9 3607.85 4028.25 3621.72 4014.37L3650.08 3986.02C3663.9 3972.15 3686.55 3972.15 3700.43 3986.02L3728.79 4014.37C3742.66 4028.19 3742.66 4050.84 3728.79 4064.72ZM4371.76 3899.98L4346.37 3925.37C4333.97 3937.82 4313.62 3937.82 4301.23 3925.37L4275.83 3899.98C4263.44 3887.58 4263.44 3867.24 4275.83 3854.84L4301.23 3829.45C4313.62 3817.06 4333.97 3817.06 4346.37 3829.45L4371.76 3854.84C4384.16 3867.24 4384.16 3887.58 4371.76 3899.98ZM4452.33 3980.87L4427.21 4005.98C4414.92 4018.27 4394.8 4018.27 4382.51 4005.98L4357.39 3980.87C4345.1 3968.58 4345.1 3948.46 4357.39 3936.17L4382.51 3911.05C4394.8 3898.77 4414.92 3898.77 4427.21 3911.05L4452.33 3936.17C4464.62 3948.46 4464.62 3968.58 4452.33 3980.87ZM4344.78 4084.13C4333.26 4095.65 4314.33 4095.65 4302.82 4084.13L4279.18 4060.49C4267.66 4048.98 4267.66 4030.06 4279.18 4018.54L4302.82 3994.91C4314.33 3983.39 4333.2 3983.39 4344.78 3994.91L4368.41 4018.54C4379.93 4030.06 4379.93 4048.98 4368.41 4060.49L4344.78 4084.13ZM4198 4056.71L4178.75 4075.96C4169.37 4085.39 4153.96 4085.39 4144.47 4075.96L4125.22 4056.71C4115.79 4047.28 4115.79 4031.87 4125.22 4022.44L4144.47 4003.19C4153.91 3993.75 4169.32 3993.75 4178.75 4003.19L4198 4022.44C4207.44 4031.87 4207.44 4047.28 4198 4056.71ZM4291.02 3981.2L4265.47 4006.75C4252.96 4019.25 4232.5 4019.25 4220.05 4006.75L4194.49 3981.2C4181.99 3968.75 4181.99 3948.29 4194.49 3935.79L4220.05 3910.23C4232.5 3897.73 4252.96 3897.73 4265.47 3910.23L4291.02 3935.79C4303.53 3948.24 4303.53 3968.69 4291.02 3981.2ZM3880.88 4060L3857.84 4083.03C3846.6 4094.28 3828.17 4094.28 3816.93 4083.03L3793.89 4060C3782.65 4048.76 3782.65 4030.33 3793.89 4019.09L3816.93 3996.06C3828.17 3984.81 3846.6 3984.81 3857.84 3996.06L3880.88 4019.09C3892.12 4030.33 3892.12 4048.76 3880.88 4060ZM3780.23 4171.49C3767.07 4184.65 3745.51 4184.65 3732.35 4171.49L3705.42 4144.56C3692.26 4131.4 3692.26 4109.85 3705.42 4096.69L3732.35 4069.76C3745.51 4056.6 3767.07 4056.6 3780.23 4069.76L3807.16 4096.69C3820.33 4109.85 3820.33 4131.4 3807.16 4144.56L3780.23 4171.49ZM4101.91 4165.95C4090.17 4177.69 4070.98 4177.69 4059.24 4165.95L4035.22 4141.93C4023.48 4130.2 4023.48 4111 4035.22 4099.27L4059.24 4075.25C4070.98 4063.51 4090.17 4063.51 4101.91 4075.25L4125.94 4099.27C4137.67 4111 4137.67 4130.2 4125.94 4141.93L4101.91 4165.95ZM3939.95 4166.34C3928.16 4178.18 3908.79 4178.18 3896.95 4166.34L3872.76 4142.15C3860.91 4130.36 3860.91 4111 3872.76 4099.16L3896.95 4074.97C3908.74 4063.13 3928.1 4063.13 3939.95 4074.97L3964.14 4099.16C3975.98 4110.95 3975.98 4130.31 3964.14 4142.15L3939.95 4166.34ZM4536.8 3901.35L4509.87 3928.27C4496.7 3941.38 4475.15 3941.38 4462.04 3928.27L4435.11 3901.35C4421.95 3888.19 4421.95 3866.69 4435.11 3853.53L4462.04 3826.6C4475.2 3813.44 4496.7 3813.44 4509.87 3826.6L4536.8 3853.53C4549.96 3866.69 4549.96 3888.19 4536.8 3901.35ZM4507.12 4246.79C4495.44 4258.47 4476.35 4258.47 4464.67 4246.79L4440.81 4222.93C4429.13 4211.25 4429.13 4192.17 4440.81 4180.48L4464.67 4156.63C4476.35 4144.95 4495.44 4144.95 4507.12 4156.63L4530.98 4180.48C4542.66 4192.17 4542.66 4211.25 4530.98 4222.93L4507.12 4246.79ZM3375.57 3605.43C3362.02 3618.98 3339.92 3618.98 3326.37 3605.43L3298.73 3577.79C3285.18 3564.24 3285.18 3542.14 3298.73 3528.6L3326.37 3500.96C3339.92 3487.41 3362.02 3487.41 3375.57 3500.96L3403.21 3528.6C3416.76 3542.14 3416.76 3564.24 3403.21 3577.79L3375.57 3605.43ZM3721.49 4341.99C3733.45 4353.94 3733.45 4373.58 3721.49 4385.53L3696.97 4410.05C3685.02 4422 3665.38 4422 3653.43 4410.05L3628.91 4385.53C3616.95 4373.58 3616.95 4353.94 3628.91 4341.99L3653.43 4317.48C3665.38 4305.52 3685.02 4305.52 3696.97 4317.48L3721.49 4341.99ZM3862.56 4310.24L3890.91 4338.59C3904.74 4352.46 3904.74 4375.11 3890.91 4388.93L3862.56 4417.29C3848.74 4431.16 3826.09 4431.16 3812.21 4417.29L3783.85 4388.93C3769.98 4375.11 3769.98 4352.46 3783.85 4338.59L3812.21 4310.24C3826.03 4296.36 3848.68 4296.36 3862.56 4310.24ZM3731.14 4391.35C3744.97 4377.47 3767.62 4377.47 3781.49 4391.35L3809.85 4419.7C3823.73 4433.52 3823.73 4456.17 3809.85 4470.04L3781.49 4498.39C3767.67 4512.27 3745.02 4512.27 3731.14 4498.39L3702.79 4470.04C3688.91 4456.22 3688.91 4433.57 3702.79 4419.7L3731.14 4391.35ZM3538.25 4310.24L3566.6 4338.59C3580.48 4352.46 3580.48 4375.11 3566.6 4388.93L3538.25 4417.29C3524.43 4431.16 3501.77 4431.16 3487.9 4417.29L3459.54 4388.93C3445.66 4375.11 3445.66 4352.46 3459.54 4338.59L3487.9 4310.24C3501.72 4296.36 3524.37 4296.36 3538.25 4310.24ZM3898.43 4402.31C3909.4 4391.29 3927.44 4391.29 3938.47 4402.31L3961.01 4424.85C3972.03 4435.88 3972.03 4453.86 3961.01 4464.89L3938.47 4487.43C3927.44 4498.45 3909.45 4498.45 3898.43 4487.43L3875.89 4464.89C3864.86 4453.92 3864.86 4435.88 3875.89 4424.85L3898.43 4402.31ZM3293.46 3846.4C3280.52 3859.34 3259.29 3859.34 3246.35 3846.4L3219.86 3819.97C3206.91 3806.97 3206.91 3785.8 3219.86 3772.86L3246.35 3746.37C3259.35 3733.43 3280.52 3733.43 3293.46 3746.37L3319.96 3772.8C3332.9 3785.74 3332.9 3806.97 3319.96 3819.91L3293.46 3846.4ZM3376.12 3768.85C3362.3 3782.73 3339.65 3782.73 3325.77 3768.85L3297.47 3740.5C3283.59 3726.68 3283.59 3704.03 3297.47 3690.16L3325.82 3661.81C3339.65 3647.93 3362.3 3647.93 3376.17 3661.81L3404.47 3690.16C3418.35 3703.98 3418.35 3726.63 3404.47 3740.5L3376.12 3768.85ZM3246.3 4232.58C3259.29 4219.59 3280.52 4219.59 3293.52 4232.58L3320.06 4259.13C3333.06 4272.12 3333.06 4293.35 3320.06 4306.34L3293.52 4332.89C3280.52 4345.88 3259.29 4345.88 3246.3 4332.89L3219.75 4306.34C3206.75 4293.35 3206.75 4272.12 3219.75 4259.13L3246.3 4232.58ZM3401.79 4177.74C3414.95 4190.9 3414.95 4212.4 3401.79 4225.56L3374.91 4252.44C3361.75 4265.6 3340.25 4265.6 3327.09 4252.44L3300.21 4225.56C3287.05 4212.4 3287.05 4190.9 3300.21 4177.74L3327.09 4150.87C3340.25 4137.71 3361.75 4137.71 3374.91 4150.87L3401.79 4177.74ZM3480.11 4260.11C3492.56 4272.56 3492.56 4292.91 3480.11 4305.36L3454.66 4330.8C3442.21 4343.25 3421.86 4343.25 3409.41 4330.8L3383.96 4305.36C3371.51 4292.91 3371.51 4272.56 3383.96 4260.11L3409.41 4234.67C3421.86 4222.22 3442.21 4222.22 3454.66 4234.67L3480.11 4260.11ZM4285.81 4140.95L4263 4163.76C4251.86 4174.89 4233.6 4174.89 4222.41 4163.76L4199.59 4140.95C4188.41 4129.81 4188.41 4111.5 4199.59 4100.36L4222.41 4077.55C4233.54 4066.42 4251.81 4066.42 4263 4077.55L4285.81 4100.36C4297 4111.5 4297 4129.76 4285.81 4140.95ZM4424.63 4240.81L4446.79 4263.02C4457.6 4273.88 4457.6 4291.59 4446.79 4302.45L4424.63 4324.66C4413.77 4335.52 4396.06 4335.52 4385.2 4324.66L4362.98 4302.45C4352.12 4291.59 4352.12 4273.88 4362.98 4263.02L4385.2 4240.81C4396.06 4229.95 4413.77 4229.95 4424.63 4240.81ZM4548.37 4243.17C4558.62 4232.91 4575.35 4232.91 4585.61 4243.17L4606.56 4264.12C4616.82 4274.37 4616.82 4291.1 4606.56 4301.35L4585.61 4322.3C4575.35 4332.56 4558.62 4332.56 4548.37 4322.3L4527.42 4301.35C4517.16 4291.1 4517.16 4274.37 4527.42 4264.12L4548.37 4243.17ZM4465.27 4319.94C4476.63 4308.59 4495.22 4308.59 4506.57 4319.94L4529.83 4343.14C4541.18 4354.49 4541.18 4373.08 4529.83 4384.44L4506.57 4407.69C4495.22 4419.04 4476.63 4419.04 4465.27 4407.69L4442.07 4384.44C4430.72 4373.08 4430.72 4354.49 4442.07 4343.14L4465.27 4319.94ZM4752.95 3907.87L4779.77 3934.69C4792.88 3947.8 4792.88 3969.24 4779.77 3982.35L4752.95 4009.16C4739.84 4022.27 4718.39 4022.27 4705.29 4009.16L4678.47 3982.35C4665.36 3969.24 4665.36 3947.8 4678.47 3934.69L4705.29 3907.87C4718.39 3894.77 4739.84 3894.77 4752.95 3907.87ZM4624.5 4151.53C4637.44 4138.53 4658.67 4138.53 4671.67 4151.53L4698.21 4178.07C4711.21 4191.07 4711.21 4212.29 4698.21 4225.29L4671.67 4251.83C4658.72 4264.83 4637.5 4264.83 4624.5 4251.83L4597.95 4225.29C4584.95 4212.29 4584.95 4191.07 4597.95 4178.07L4624.5 4151.53ZM4060.45 4392.61C4067.03 4385.97 4077.89 4385.97 4084.53 4392.61L4098.07 4406.15C4104.71 4412.73 4104.71 4423.59 4098.07 4430.23L4084.53 4443.77C4077.94 4450.41 4067.08 4450.41 4060.45 4443.77L4046.9 4430.23C4040.26 4423.65 4040.26 4412.79 4046.9 4406.15L4060.45 4392.61ZM4303.37 4320.38C4314.61 4309.14 4332.98 4309.14 4344.23 4320.38L4367.21 4343.36C4378.45 4354.6 4378.45 4372.97 4367.21 4384.22L4344.23 4407.19C4332.98 4418.44 4314.61 4418.44 4303.37 4407.19L4280.38 4384.22C4269.14 4372.97 4269.14 4354.6 4280.38 4343.36L4303.37 4320.38ZM4133.61 4311.44C4149.03 4296.03 4174.31 4296.03 4189.72 4311.44L4221.26 4342.98C4236.67 4358.39 4236.67 4383.67 4221.26 4399.08L4189.72 4430.61C4174.31 4446.02 4149.03 4446.02 4133.61 4430.61L4102.08 4399.08C4086.66 4383.67 4086.66 4358.39 4102.08 4342.98L4133.61 4311.44ZM4025.73 4322.41L4050.03 4346.71C4061.93 4358.61 4061.93 4378.07 4050.03 4389.92L4025.73 4414.27C4013.88 4426.17 3994.41 4426.17 3982.51 4414.27L3958.16 4389.92C3946.26 4378.07 3946.26 4358.61 3958.16 4346.71L3982.51 4322.41C3994.36 4310.51 4013.83 4310.51 4025.73 4322.41ZM4263.11 4239.33L4286.09 4262.31C4297.33 4273.55 4297.33 4291.92 4286.09 4303.11L4263.11 4326.09C4251.92 4337.33 4233.54 4337.33 4222.3 4326.09L4199.32 4303.11C4188.08 4291.92 4188.08 4273.55 4199.32 4262.31L4222.3 4239.33C4233.49 4228.09 4251.86 4228.09 4263.11 4239.33ZM3572.64 4399.02C3584.48 4387.18 3603.9 4387.18 3615.75 4399.02L3639.99 4423.32C3651.84 4435.16 3651.84 4454.58 3639.99 4466.42L3615.75 4490.61C3603.9 4502.45 3584.48 4502.45 3572.64 4490.61L3548.39 4466.37C3536.55 4454.52 3536.55 4435.11 3548.39 4423.26L3572.64 4399.02ZM4671.99 3766.11C4658.83 3779.27 4637.33 3779.27 4624.17 3766.11L4597.24 3739.19C4584.07 3726.02 4584.07 3704.53 4597.24 3691.36L4624.17 3664.44C4637.33 3651.28 4658.83 3651.28 4671.99 3664.44L4698.92 3691.36C4712.09 3704.53 4712.09 3726.02 4698.92 3739.19L4671.99 3766.11ZM4460.78 3661.81C4474.6 3647.93 4497.25 3647.93 4511.13 3661.81L4539.48 3690.16C4553.36 3703.98 4553.36 3726.63 4539.48 3740.5L4511.13 3768.85C4497.31 3782.73 4474.65 3782.73 4460.78 3768.85L4432.42 3740.5C4418.54 3726.68 4418.54 3704.03 4432.42 3690.16L4460.78 3661.81ZM4516.01 3820.35C4502.79 3807.13 4502.79 3785.58 4516.01 3772.36L4542.99 3745.38C4556.21 3732.17 4577.77 3732.17 4590.98 3745.38L4617.97 3772.36C4631.19 3785.58 4631.19 3807.13 4617.97 3820.35L4590.98 3847.33C4577.77 3860.55 4556.21 3860.55 4542.99 3847.33L4516.01 3820.35ZM4380.81 3685.33L4353.72 3658.3C4340.5 3645.08 4340.5 3623.42 4353.72 3610.2L4380.81 3583.16C4394.03 3569.95 4415.69 3569.95 4428.91 3583.16L4456.01 3610.2C4469.22 3623.42 4469.22 3645.08 4456.01 3658.3L4428.91 3685.33C4415.69 3698.55 4394.03 3698.55 4380.81 3685.33ZM4509.87 3604.17C4496.7 3617.39 4475.09 3617.39 4461.93 3604.17L4434.94 3577.13C4421.78 3563.97 4421.78 3542.36 4434.94 3529.2L4461.93 3502.28C4475.09 3489.06 4496.7 3489.06 4509.87 3502.28L4536.85 3529.26C4550.07 3542.42 4550.07 3563.97 4536.85 3577.19L4509.87 3604.17ZM4450.03 4141.88L4426.11 4165.79C4414.43 4177.47 4395.29 4177.47 4383.61 4165.79L4359.69 4141.88C4348.01 4130.2 4348.01 4111.06 4359.69 4099.38L4383.61 4075.47C4395.29 4063.78 4414.43 4063.78 4426.11 4075.47L4450.03 4099.38C4461.71 4111.06 4461.71 4130.2 4450.03 4141.88ZM4344.01 3596.22C4332.87 3607.35 4314.66 3607.35 4303.53 3596.22L4280.77 3573.46C4269.63 3562.27 4269.63 3544.06 4280.77 3532.93L4303.53 3510.17C4314.66 3499.04 4332.87 3499.04 4344.01 3510.17L4366.77 3532.93C4377.9 3544.12 4377.9 3562.33 4366.77 3573.46L4344.01 3596.22ZM4695.85 3899.98L4670.57 3925.26C4658.17 3937.6 4637.93 3937.6 4625.59 3925.26L4600.31 3899.98C4587.91 3887.64 4587.91 3867.4 4600.31 3855.01L4625.59 3829.73C4637.93 3817.33 4658.17 3817.33 4670.57 3829.73L4695.85 3855.01C4708.25 3867.35 4708.25 3887.58 4695.85 3899.98ZM4347.3 4251.5C4334.35 4264.39 4313.24 4264.39 4300.35 4251.5L4273.97 4225.12C4261.08 4212.24 4261.08 4191.12 4273.97 4178.24L4300.35 4151.86C4313.29 4138.97 4334.41 4138.97 4347.3 4151.86L4373.68 4178.24C4386.57 4191.12 4386.57 4212.24 4373.68 4225.12L4347.3 4251.5ZM4508.27 3992L4533.45 4017.17C4545.79 4029.51 4545.79 4049.64 4533.45 4061.92L4508.27 4087.09C4495.93 4099.38 4475.81 4099.38 4463.52 4087.09L4438.34 4061.92C4426.06 4049.64 4426.06 4029.45 4438.34 4017.17L4463.52 3992C4475.86 3979.71 4495.99 3979.71 4508.27 3992ZM4615.17 3981.2L4589.67 4006.7C4577.22 4019.15 4556.81 4019.15 4544.31 4006.7L4518.81 3981.2C4506.36 3968.75 4506.36 3948.29 4518.81 3935.84L4544.31 3910.34C4556.76 3897.89 4577.22 3897.89 4589.67 3910.34L4615.17 3935.84C4627.62 3948.29 4627.62 3968.75 4615.17 3981.2ZM4185.88 3604.72C4172.56 3618.04 4150.73 3618.04 4137.4 3604.72L4110.14 3577.46C4096.81 3564.14 4096.81 3542.31 4110.14 3528.98L4137.4 3501.73C4150.73 3488.4 4172.56 3488.4 4185.88 3501.73L4213.14 3528.98C4226.47 3542.31 4226.47 3564.14 4213.14 3577.46L4185.88 3604.72ZM3699.06 3603.84C3685.95 3616.95 3664.51 3616.95 3651.4 3603.84L3624.58 3577.02C3611.47 3563.92 3611.47 3542.47 3624.58 3529.37L3651.4 3502.55C3664.51 3489.44 3685.95 3489.44 3699.06 3502.55L3725.88 3529.37C3738.99 3542.47 3738.99 3563.92 3725.88 3577.02L3699.06 3603.84ZM3702.79 3659.39C3688.91 3645.57 3688.91 3622.92 3702.79 3609.05L3731.14 3580.75C3744.97 3566.88 3767.62 3566.88 3781.49 3580.75L3809.85 3609.05C3823.73 3622.87 3823.73 3645.52 3809.85 3659.39L3781.49 3687.75C3767.67 3701.62 3745.02 3701.62 3731.14 3687.75L3702.79 3659.39ZM3537.15 3604.28C3523.93 3617.49 3502.27 3617.49 3489.05 3604.28L3462.01 3577.24C3448.79 3564.03 3448.79 3542.36 3462.01 3529.15L3489.05 3502.11C3502.27 3488.89 3523.93 3488.89 3537.15 3502.11L3564.19 3529.15C3577.41 3542.36 3577.41 3564.03 3564.19 3577.24L3537.15 3604.28ZM3860.86 3603.13C3847.91 3616.07 3826.8 3616.07 3813.85 3603.13L3787.42 3576.69C3774.47 3563.75 3774.47 3542.64 3787.42 3529.7L3813.85 3503.26C3826.8 3490.32 3847.91 3490.32 3860.86 3503.26L3887.29 3529.7C3900.24 3542.64 3900.24 3563.75 3887.29 3576.69L3860.86 3603.13ZM4196.69 3655.94C4184.79 3644.04 4184.79 3624.51 4196.69 3612.61L4221.04 3588.26C4233 3576.36 4252.47 3576.36 4264.37 3588.26L4288.72 3612.61C4300.62 3624.51 4300.62 3644.04 4288.72 3655.94L4264.37 3680.29C4252.41 3692.19 4232.94 3692.19 4221.04 3680.29L4196.69 3655.94ZM3548.39 3655.77C3536.55 3643.93 3536.55 3624.57 3548.39 3612.72L3572.64 3588.48C3584.48 3576.64 3603.84 3576.64 3615.69 3588.48L3639.93 3612.72C3651.78 3624.57 3651.78 3643.93 3639.93 3655.77L3615.69 3680.01C3603.84 3691.86 3584.48 3691.86 3572.64 3680.01L3548.39 3655.77ZM3867.33 3658.3C3854.11 3645.08 3854.11 3623.42 3867.33 3610.2L3894.37 3583.16C3907.59 3569.95 3929.25 3569.95 3942.47 3583.16L3969.51 3610.2C3982.73 3623.42 3982.73 3645.08 3969.51 3658.3L3942.47 3685.33C3929.25 3698.55 3907.59 3698.55 3894.37 3685.33L3867.33 3658.3ZM3378.53 3659.39C3364.66 3645.57 3364.66 3622.92 3378.53 3609.05L3406.89 3580.75C3420.71 3566.88 3443.36 3566.88 3457.24 3580.75L3485.59 3609.05C3499.47 3622.87 3499.47 3645.52 3485.59 3659.39L3457.24 3687.75C3443.42 3701.62 3420.76 3701.62 3406.89 3687.75L3378.53 3659.39ZM4058.14 3681.93L4032.91 3656.71C4020.57 3644.37 4020.57 3624.19 4032.91 3611.85L4058.14 3586.62C4070.48 3574.28 4090.67 3574.28 4103.01 3586.62L4128.24 3611.85C4140.58 3624.19 4140.58 3644.37 4128.24 3656.71L4103.01 3681.93C4090.67 3694.27 4070.48 3694.27 4058.14 3681.93ZM4022.27 3601.65C4009.77 3614.2 3989.26 3614.2 3976.7 3601.65L3951.03 3575.98C3938.47 3563.48 3938.47 3542.97 3951.03 3530.41L3976.7 3504.74C3989.2 3492.18 4009.71 3492.18 4022.27 3504.74L4047.94 3530.41C4060.5 3542.91 4060.5 3563.42 4047.94 3575.98L4022.27 3601.65Z" fill="black"/>
</svg>
