<svg width="4685" height="3265" viewBox="0 0 4685 3265" fill="none" xmlns="http://www.w3.org/2000/svg">
<path d="M1033.81 1035.8C1008.27 1025.42 988.753 994.583 990.543 966.994L1011.2 653.62C1012.99 626.193 1032.19 589.679 1053.82 572.639L1237.48 428.042C1259.12 411.002 1292.79 413.112 1312.15 432.748L1617.97 741.903C1637.33 761.54 1651.32 800.002 1649.04 827.428L1626.59 1064.69C1624.31 1092.12 1605.77 1102.99 1572.26 1115.81C1572.26 1115.81 1372.66 1204.42 1350.7 1209.61C1328.74 1214.8 1323.21 1221.3 1276.2 1191.27C1229.18 1161.25 1033.81 1035.8 1033.81 1035.8ZM1372.66 1602.99C1354.93 1587.25 1352.16 1589.69 1342.73 1590.33C1333.13 1590.98 1243.66 1614.68 1243.66 1614.68C1228.7 1617.76 1220.24 1621.01 1217.47 1632.37L1192.09 1730.23C1189.33 1741.59 1192.42 1758.63 1199.25 1768.2L1306.29 1918.15C1313.12 1927.73 1326.95 1930.81 1337.2 1925.13L1423.9 1876.93C1434.15 1871.25 1444.56 1857.3 1447.33 1845.94L1477.1 1716.11C1479.7 1704.75 1473.68 1690.47 1463.59 1684.46C1463.59 1684.3 1390.23 1618.73 1372.66 1602.99ZM789.642 3086.45C813.88 3108.03 817.622 3104.63 830.636 3103.81C843.65 3102.84 966.305 3070.38 966.305 3070.38C986.801 3066.16 998.351 3061.62 1002.26 3046.2L1037.07 2912.15C1040.97 2896.58 1036.58 2873.21 1027.14 2860.22L880.414 2654.93C871.141 2641.95 851.946 2637.57 837.956 2645.36L719.205 2711.41C705.215 2719.2 690.9 2738.35 687.159 2753.93L646.328 2931.63C642.749 2947.21 651.045 2966.68 664.71 2974.96C665.035 2974.96 765.567 3064.87 789.642 3086.45ZM29.7991 1739.31C0.843443 1759.11 3.4462 1763.98 1.00612 1777.94C-1.43397 1791.89 1.33146 1928.54 1.33146 1928.54C0.518099 1951.1 2.3075 1964.4 17.5987 1972.36L149.689 2043.11C165.143 2051.23 190.845 2052.53 206.787 2046.03L460.556 1945.09C476.66 1938.76 486.095 1919.78 481.541 1903.22L442.499 1762.03C437.944 1745.48 421.514 1725.36 406.061 1717.73L229.561 1629.28C214.107 1621.49 191.333 1625.23 179.132 1637.4C179.132 1637.4 58.7548 1719.51 29.7991 1739.31ZM169.209 2112.57C112.762 2133.18 114.877 2142.11 104.954 2164.18C95.0308 2186.25 40.6982 2414.1 40.6982 2414.1C29.7991 2451.1 27.0337 2473.82 48.9945 2493.78L237.532 2667.59C259.493 2687.55 301.625 2700.7 331.069 2696.96L795.173 2638.05C824.617 2634.32 848.204 2607.06 847.879 2577.36L843.812 2326.63C843.324 2297.09 824.617 2257.01 802.331 2237.37L547.586 2015.36C525.3 1995.89 486.095 1992.32 460.556 2007.41C460.556 2007.25 225.657 2092.12 169.209 2112.57ZM1584.95 3133.68C1619.76 3156.23 1623.83 3151.36 1640.26 3147.63C1656.52 3143.9 1805.21 3079.31 1805.21 3079.31C1830.26 3069.9 1843.92 3062.11 1845.87 3041.66L1863.77 2865.74C1865.72 2845.46 1855.47 2816.73 1841.16 2802.12L1616.02 2571.03C1601.7 2556.42 1576.81 2554.64 1560.71 2567.13L1423.58 2673.43C1407.47 2685.93 1392.99 2712.87 1391.53 2733.32L1374.45 2965.71C1372.99 2986 1387.3 3009.2 1406.17 3016.99C1405.85 3016.83 1550.3 3111.12 1584.95 3133.68ZM2315.02 1282.96C2333.4 1294.81 2335.52 1292.22 2344.14 1290.27C2352.76 1288.32 2431.01 1254.24 2431.01 1254.24C2444.18 1249.37 2451.5 1245.15 2452.48 1234.44L2461.92 1141.78C2462.89 1131.07 2457.52 1115.97 2450.04 1108.35L2331.45 986.631C2323.97 978.841 2310.79 978.029 2302.33 984.683L2230.11 1040.67C2221.65 1047.33 2214 1061.44 2213.19 1072.16L2204.08 1194.52C2203.27 1205.23 2210.75 1217.4 2220.83 1221.46C2220.67 1221.46 2296.64 1271.12 2315.02 1282.96ZM2168.29 770.141C2213.03 803.085 2218.88 796.918 2241.17 793.348C2263.29 789.778 2467.61 715.288 2467.61 715.288C2501.93 704.74 2520.97 695.327 2525.19 668.225L2563.59 433.884C2567.81 406.782 2556.59 367.509 2538.53 346.737L2255.81 18.9187C2237.92 -1.85392 2204.73 -6.23564 2181.96 9.34382L1989.51 140.471C1966.9 155.888 1945.27 190.942 1941.53 218.044L1899.56 528.01C1895.98 555.274 1913.06 587.245 1937.78 599.254C1937.95 599.254 2123.56 737.197 2168.29 770.141ZM2727.88 2797.26C2721.87 2771.94 2717.8 2772.43 2708.85 2767.07C2699.9 2761.72 2604.25 2726.99 2604.25 2726.99C2588.8 2720.5 2579.2 2718.06 2569.44 2726.5L2485.01 2798.88C2475.42 2807.32 2467.61 2824.68 2467.77 2837.5L2470.05 3039.71C2470.21 3052.53 2480.79 3064.05 2493.47 3065.35L2601.98 3076.06C2614.83 3077.36 2633.05 3071.36 2642.48 3062.76L2750.98 2964.41C2760.42 2955.81 2764 2939.09 2758.79 2927.41C2758.63 2927.57 2733.9 2822.41 2727.88 2797.26ZM1974.22 2148.6C2005.13 2165.48 2008.22 2161.09 2021.89 2156.88C2035.39 2152.82 2156.9 2088.55 2156.9 2088.55C2177.4 2078.98 2188.63 2071.51 2188.79 2054.15L2192.53 1904.2C2192.85 1886.83 2182.28 1863.3 2169.27 1851.78L1963.81 1670.83C1950.8 1659.31 1929.65 1659.47 1916.8 1671.15L1807.65 1769.82C1794.8 1781.51 1784.22 1805.2 1784.38 1822.57L1784.87 2020.23C1784.87 2037.6 1798.54 2056.1 1814.97 2061.45C1815.13 2061.45 1943.32 2131.88 1974.22 2148.6ZM908.393 2273.23C935.397 2308.45 941.253 2305.04 959.147 2307.15C976.878 2309.26 1150.45 2297.58 1150.45 2297.58C1179.08 2297.09 1195.84 2294.17 1205.11 2274.21L1286.93 2103C1296.2 2083.04 1296.2 2050.58 1287.09 2030.62L1143.45 1716.27C1134.35 1696.31 1109.78 1685.6 1088.96 1692.41L912.135 1750.35C891.313 1757.16 866.912 1779.07 857.965 1799.2L756.62 2027.53C747.673 2047.49 753.854 2075.89 770.122 2090.66C769.796 2090.99 881.39 2238.02 908.393 2273.23ZM214.27 1145.35C170.999 1159.95 172.463 1166.77 164.492 1183.32C156.521 1199.87 110.973 1371.74 110.973 1371.74C102.026 1399.65 99.423 1416.85 115.69 1432.43L255.589 1567.94C271.856 1583.36 303.577 1594.23 326.026 1591.96L679.35 1556.09C701.799 1553.82 720.181 1533.53 720.506 1511.14L722.296 1320.78C722.459 1298.38 709.119 1267.55 692.527 1252.29L503.339 1078.65C486.746 1063.39 457.14 1059.98 437.456 1070.86C437.456 1071.02 257.541 1130.74 214.27 1145.35ZM3068.52 358.908C3047.05 313.793 3039.73 316.227 3020.53 309.898C3001.5 303.406 2807.92 276.467 2807.92 276.467C2776.36 270.3 2757.17 269.813 2742.36 289.612L2612.88 459.201C2598.07 479 2590.43 514.703 2595.79 538.721L2681.2 917.659C2686.57 941.677 2711.13 959.204 2735.69 956.445L2943.75 933.401C2968.31 930.642 3000.2 912.141 3014.51 892.018L3178.81 664.006C3193.29 644.045 3193.13 611.263 3178.65 591.464C3178.81 591.464 3089.99 404.024 3068.52 358.908ZM1674.58 1155.41C1635.54 1130.58 1630.98 1135.93 1612.77 1140.32C1594.55 1144.53 1428.95 1218.05 1428.95 1218.05C1401.13 1228.76 1385.67 1237.69 1383.88 1260.41L1365.18 1457.26C1363.23 1479.98 1374.94 1511.95 1391.04 1528.18L1644.81 1784.59C1660.92 1800.82 1688.73 1802.6 1706.79 1788.49L1859.21 1668.56C1877.27 1654.44 1893.21 1624.09 1894.68 1601.37L1911.92 1341.39C1913.38 1318.67 1897.28 1292.86 1876.13 1284.43C1875.81 1284.43 1713.62 1180.4 1674.58 1155.41ZM1084.73 1647.95C1127.84 1661.74 1130.77 1655.41 1147.03 1646.97C1163.14 1638.37 1301.57 1527.85 1301.57 1527.85C1325.32 1510.81 1337.52 1498.64 1333.62 1476.57L1302.22 1285.89C1298.32 1263.82 1279.45 1236.55 1260.25 1225.19L956.544 1045.38C937.349 1034.02 910.508 1039.21 897.006 1057.06L782.81 1208.31C769.308 1226.16 761.825 1258.62 766.055 1280.53L814.368 1530.61C818.598 1552.52 840.233 1572.81 862.52 1575.73C862.357 1575.73 1041.62 1633.99 1084.73 1647.95ZM1905.9 1247.91C1943.64 1272.09 1948.2 1266.74 1965.76 1262.52C1983.33 1258.46 2143.73 1187.22 2143.73 1187.22C2170.73 1176.83 2185.53 1168.23 2187.49 1146.16L2205.54 955.472C2207.33 933.401 2196.11 902.566 2180.49 886.825L1934.86 638.527C1919.24 622.785 1892.24 621.162 1874.83 634.794L1727.29 750.991C1709.88 764.623 1694.43 793.997 1692.96 816.068L1676.37 1067.77C1674.91 1089.84 1690.52 1114.67 1711.02 1122.95C1711.02 1122.95 1868.16 1223.89 1905.9 1247.91ZM1438.54 2482.42C1468.8 2520.4 1475.31 2516.5 1494.83 2518.45C1514.35 2520.4 1704.19 2503.52 1704.19 2503.52C1735.58 2502.38 1753.8 2498.65 1763.56 2476.74L1849.13 2287.35C1858.73 2265.28 1858.24 2229.58 1847.66 2208L1682.88 1866.87C1672.47 1845.29 1645.3 1834.09 1622.53 1842.04L1430.08 1909.55C1407.31 1917.5 1381.28 1942.17 1372.01 1964.4L1266.27 2217.08C1257 2239.32 1264.32 2270.31 1282.54 2285.89C1282.54 2285.73 1408.29 2444.45 1438.54 2482.42ZM1667.42 140.958C1632.45 118.725 1628.38 123.593 1612.11 127.488C1595.85 131.221 1447.82 196.947 1447.82 196.947C1422.93 206.521 1409.26 214.473 1407.47 234.759L1390.88 410.677C1389.09 430.963 1399.5 459.525 1413.98 474.131L1640.74 703.441C1655.06 718.047 1680.11 719.508 1696.05 706.849L1832.21 599.578C1848.31 586.92 1862.47 559.98 1863.93 539.532L1879.22 307.139C1880.52 286.691 1866.21 263.808 1847.18 256.181C1847.34 256.181 1702.4 163.191 1667.42 140.958ZM693.828 554.625C656.902 535.638 653.323 540.993 637.543 546.348C621.764 551.704 480.402 630.899 480.402 630.899C456.489 642.746 443.638 651.997 443.801 672.282L443.638 849.012C443.801 869.46 456.814 896.886 472.431 910.032L719.53 1117.27C735.147 1130.42 760.199 1129.6 775.002 1115.49L900.585 996.043C915.388 981.924 927.101 953.687 926.45 933.401L920.106 700.682C919.618 680.234 903.025 658.813 883.504 652.97C883.667 652.808 730.592 573.612 693.828 554.625ZM2199.85 1248.72C2164.88 1226.49 2160.81 1231.36 2144.54 1235.25C2128.27 1238.99 1980.24 1304.71 1980.24 1304.71C1955.35 1314.29 1941.69 1322.24 1939.9 1342.52L1923.31 1518.44C1921.52 1538.73 1931.93 1567.29 1946.41 1581.9L2173.17 1811.21C2187.49 1825.81 2212.54 1827.27 2228.48 1814.61L2364.64 1707.34C2380.74 1694.68 2394.89 1667.75 2396.36 1647.3L2411.65 1414.9C2412.95 1394.46 2398.64 1371.57 2379.6 1363.95C2379.77 1363.95 2234.82 1270.96 2199.85 1248.72ZM1236.02 2337.82C1206.57 2308.78 1201.53 2312.67 1184.77 2312.99C1168.02 2313.32 1009.58 2346.59 1009.58 2346.59C983.222 2350.65 968.094 2355.68 962.238 2375.15L909.044 2543.77C903.025 2563.24 907.254 2593.43 918.316 2610.63L1091.89 2882.13C1102.95 2899.33 1126.86 2905.99 1145.24 2897.06L1300.92 2820.63C1319.3 2811.54 1338.82 2788.17 1344.52 2768.53L1408.29 2544.58C1413.82 2524.94 1404.54 2499.46 1387.63 2488.1C1387.79 2488.1 1265.46 2366.87 1236.02 2337.82ZM742.467 1632.69C727.176 1609.16 723.272 1611.11 712.21 1608.84C701.148 1606.56 591.507 1605.59 591.507 1605.59C573.451 1604.45 562.714 1605.59 555.882 1617.6L496.181 1721.3C489.349 1733.31 487.722 1753.92 492.44 1766.9L567.594 1971.71C572.312 1984.69 587.278 1992.64 600.78 1989.4L714.976 1961.48C728.477 1958.24 744.745 1945.58 751.414 1933.41L826.244 1794.65C832.75 1782.48 830.31 1764.31 820.875 1754.24C820.713 1754.24 757.596 1656.22 742.467 1632.69ZM3624.7 2127.83C3612.34 2071.51 3603.39 2072.32 3583.54 2060.15C3563.7 2047.98 3353.04 1967.16 3353.04 1967.16C3319.04 1952.07 3297.73 1946.39 3275.93 1964.89L3085.76 2121.98C3063.97 2140.32 3046.07 2178.62 3045.75 2207.18L3042.82 2655.91C3042.66 2684.31 3065.59 2710.43 3093.9 2713.68L3334 2741.92C3362.31 2745.32 3403.14 2732.67 3424.45 2713.84L3668.94 2499.95C3690.42 2481.29 3698.88 2444.45 3687.65 2418.16C3687.98 2418.16 3637.06 2183.98 3624.7 2127.83ZM1996.83 2928.71C2036.53 2975.45 2044.5 2970.25 2069.22 2972.04C2093.95 2973.82 2332.43 2945.42 2332.43 2945.42C2371.96 2942.83 2394.89 2937.47 2406.12 2909.4L2506.81 2667.43C2518.2 2639.35 2516.09 2594.4 2502.1 2567.62L2281.67 2143.73C2267.68 2116.79 2233.04 2103.81 2204.73 2114.68L1964.79 2207.02C1936.48 2217.9 1904.44 2249.87 1893.54 2278.27L1769.74 2600.57C1758.84 2628.8 1769.26 2667.59 1792.68 2686.74C1792.68 2686.74 1957.14 2881.97 1996.83 2928.71ZM4165.91 1625.88C4161.35 1598.12 4156.96 1598.29 4147.69 1591.8C4138.42 1585.3 4037.89 1540.51 4037.89 1540.51C4021.78 1532.24 4011.37 1528.99 4000.31 1537.43L3903.52 1609C3892.46 1617.44 3882.7 1635.61 3881.88 1649.41L3868.38 1867.84C3867.57 1881.64 3878.14 1894.95 3891.81 1897.38L4008.12 1917.34C4021.78 1919.78 4041.95 1914.58 4053.01 1905.98L4177.78 1808.29C4188.68 1799.68 4193.89 1781.99 4189.01 1769.01C4189.01 1769.01 4170.3 1653.63 4165.91 1625.88ZM2812.96 2933.41C2784.49 2967.82 2789.37 2972.85 2791.33 2990.7C2793.28 3008.55 2844.85 3175.22 2844.85 3175.22C2851.84 3203.13 2858.67 3218.71 2880.31 3223.26L3067.22 3263.67C3088.85 3268.21 3120.9 3260.75 3138.31 3247.28L3413.71 3034.36C3431.12 3020.89 3436 2994.43 3424.61 2975.61L3327.01 2816.24C3315.46 2797.42 3288.29 2778.76 3266.49 2774.7L3018.91 2728.45C2997.27 2724.39 2970.75 2736.89 2960.02 2756.2C2960.02 2756.04 2841.43 2899.01 2812.96 2933.41ZM2612.06 949.629C2631.42 935.997 2629.63 932.752 2631.09 923.339C2632.56 913.926 2629.63 821.748 2629.63 821.748C2629.96 806.493 2628.65 797.567 2618.24 792.374L2528.61 745.798C2518.2 740.443 2500.79 739.793 2490.06 744.337L2319.74 814.607C2309 819.151 2302.82 831.81 2306.07 843.007L2333.57 937.945C2336.82 949.143 2348.04 962.45 2358.62 967.643L2478.35 1025.74C2488.92 1030.93 2504.05 1028.18 2512.34 1019.9C2512.34 1019.74 2592.87 963.261 2612.06 949.629ZM2566.19 1492.15C2544.55 1484.52 2542.93 1487.61 2534.63 1491.66C2526.33 1495.72 2454.59 1549.6 2454.59 1549.6C2442.39 1557.88 2435.89 1563.88 2437.51 1575.08L2450.53 1672.13C2452.15 1683.32 2461.26 1697.44 2470.86 1703.45L2621.82 1798.87C2631.42 1804.88 2645.08 1802.61 2652.08 1793.84L2712.11 1719.03C2719.26 1710.26 2723.49 1693.87 2721.7 1682.68L2700.88 1555.44C2699.09 1544.25 2688.36 1533.7 2677.29 1531.91C2677.62 1532.07 2587.82 1499.78 2566.19 1492.15ZM4372.34 2588.07C4400 2591.96 4401.13 2587.91 4410.08 2580.93C4419.03 2574.11 4491.42 2492.48 4491.42 2492.48C4504.11 2479.66 4510.12 2471.06 4505.57 2458.08L4466.53 2345.45C4461.81 2332.47 4447.5 2317.86 4434.64 2312.99L4231.47 2235.58C4218.62 2230.72 4202.84 2236.72 4196.65 2248.89L4143.14 2352.59C4136.79 2364.76 4135.65 2385.37 4140.53 2398.2L4196.17 2544.9C4201.05 2557.72 4216.34 2567.78 4230 2567.3C4229.84 2567.3 4344.85 2584.17 4372.34 2588.07ZM4047.48 1997.19C4029.43 1961.97 4023.73 1964.08 4008.44 1959.37C3993.15 1954.67 3839.26 1937.79 3839.26 1937.79C3814.05 1933.73 3798.92 1933.73 3787.7 1949.64L3688.95 2086.77C3677.73 2102.67 3672.52 2131.23 3677.24 2150.22L3753.53 2448.34C3758.41 2467.17 3778.1 2480.47 3797.62 2477.72L3961.76 2454.67C3981.11 2451.91 4006 2436.49 4016.9 2420.43L4141.83 2236.23C4152.73 2220 4151.92 2194.2 4140.04 2178.78C4140.21 2178.78 4065.54 2032.4 4047.48 1997.19ZM3232.66 1595.85C3222.25 1548.79 3214.76 1549.44 3198.17 1539.21C3181.58 1528.99 3005.08 1461.32 3005.08 1461.32C2976.61 1448.66 2958.72 1443.95 2940.5 1459.37L2781.24 1590.98C2763.02 1606.4 2747.89 1638.37 2747.73 1662.23L2745.29 2038.08C2745.13 2061.94 2764.49 2083.68 2788.07 2086.44L2989.14 2110.14C3012.89 2112.9 3047.05 2102.35 3064.94 2086.61L3269.75 1907.6C3287.8 1891.86 3294.8 1861.03 3285.53 1839.12C3285.69 1839.12 3243.07 1642.92 3232.66 1595.85ZM3327.66 1825C3336.28 1874.5 3344.09 1874.17 3360.84 1885.7C3377.6 1897.22 3558.33 1975.76 3558.33 1975.76C3587.28 1990.21 3605.83 1995.89 3625.51 1980.8L3797.46 1851.29C3817.14 1836.04 3834.38 1803.42 3835.68 1778.59L3855.86 1387.31C3857.16 1362.49 3838.12 1338.95 3813.56 1334.9L3605.34 1300.98C3580.78 1296.92 3544.83 1306.33 3525.31 1321.91L3303.58 1498.81C3284.06 1514.22 3275.28 1546.03 3284.06 1569.24C3283.9 1569.24 3319.04 1775.5 3327.66 1825ZM2546.99 2622.96C2556.27 2665.16 2562.93 2664.51 2577.74 2673.59C2592.54 2682.84 2750.33 2743.22 2750.33 2743.22C2775.71 2754.58 2791.81 2758.63 2808.08 2745L2950.42 2627.51C2966.69 2613.71 2980.19 2585.15 2980.35 2563.73L2982.63 2227.79C2982.79 2206.54 2965.55 2187.06 2944.4 2184.46L2764.65 2163.37C2743.5 2160.93 2712.92 2170.35 2696.98 2184.3L2513.97 2344.32C2497.87 2358.43 2491.52 2385.86 2499.98 2405.5C2499.66 2405.66 2537.72 2580.93 2546.99 2622.96ZM3525.14 3064.05C3536.04 3113.71 3543.85 3112.9 3561.42 3123.78C3578.82 3134.49 3764.76 3205.73 3764.76 3205.73C3794.69 3219.04 3813.56 3223.91 3832.76 3207.84L4000.47 3069.41C4019.67 3053.18 4035.61 3019.43 4035.77 2994.27L4038.37 2598.62C4038.54 2573.46 4018.2 2550.58 3993.15 2547.66L3781.35 2522.83C3756.46 2519.91 3720.51 2530.95 3701.48 2547.5L3485.78 2736.07C3466.91 2752.63 3459.42 2785.08 3469.18 2808.13C3469.35 2807.97 3514.08 3014.4 3525.14 3064.05ZM2969.45 1327.59C2979.38 1375.14 2986.86 1374.49 3003.45 1385.04C3020.04 1395.59 3197.19 1465.54 3197.19 1465.54C3225.66 1478.52 3243.72 1483.55 3262.26 1468.13L3424.12 1337.33C3442.67 1322.08 3458.12 1289.94 3458.61 1265.92L3465.12 887.312C3465.44 863.293 3446.41 841.222 3422.5 838.139L3220.13 812.173C3196.22 809.09 3161.73 819.476 3143.51 835.055L2935.29 1013.25C2917.07 1028.83 2909.59 1059.82 2918.7 1082.05C2918.54 1081.89 2959.37 1280.04 2969.45 1327.59ZM2895.6 1127.33C2895.44 1090.33 2889.74 1089.68 2879.01 1079.3C2868.27 1068.91 2746.75 989.714 2746.75 989.714C2727.56 975.595 2714.71 969.266 2698.6 977.867L2557.89 1050.9C2541.79 1059.5 2525.19 1081.08 2521.29 1098.93L2458.5 1380.66C2454.59 1398.51 2465.49 1417.99 2482.74 1423.83L2629.79 1473.98C2647.2 1479.82 2674.53 1477.38 2690.47 1468.62L2873.15 1367.19C2889.26 1358.27 2899.5 1336.36 2896.09 1318.34C2895.93 1318.51 2895.76 1164.33 2895.6 1127.33ZM4658.32 2107.7C4688.41 2079.47 4684.67 2074.27 4685 2057.72C4685.32 2041.17 4657.83 1882.45 4657.83 1882.45C4654.74 1856 4650.35 1840.9 4630.99 1834.25L4464.74 1775.18C4445.54 1768.52 4415.29 1771.61 4397.72 1781.83L4120.36 1944.28C4102.79 1954.67 4095.31 1978.2 4103.61 1996.86L4174.21 2154.28C4182.5 2172.78 4205.28 2193.23 4224.63 2199.39L4445.87 2270.96C4465.23 2277.29 4491.09 2269.02 4503.13 2252.46C4502.64 2252.79 4628.22 2135.94 4658.32 2107.7ZM3857.81 927.721C3852.28 894.128 3847.07 894.29 3835.68 886.5C3824.46 878.71 3702.62 824.344 3702.62 824.344C3683.1 814.283 3670.57 810.388 3657.23 820.45L3540.11 907.11C3526.61 917.172 3514.89 939.243 3513.76 956.121L3497.65 1220.65C3496.68 1237.36 3509.36 1253.43 3525.96 1256.35L3666.67 1280.69C3683.26 1283.61 3707.66 1277.45 3721 1267.06L3872.12 1148.75C3885.3 1138.37 3891.48 1116.95 3885.79 1101.2C3885.95 1101.04 3863.34 961.314 3857.81 927.721ZM2491.36 1772.58C2460.61 1750.84 2458.17 1752.46 2441.74 1757.81L2289.48 1813.48C2266.38 1821.92 2253.69 1831.01 2251.25 1846.42L2228.64 2005.79C2226.2 2024.13 2234.34 2050.58 2246.86 2064.37L2442.88 2282.32C2455.41 2296.12 2477.86 2298.71 2492.99 2287.84L2621.33 2196.31C2636.46 2185.44 2650.62 2161.58 2652.73 2143.08L2676.64 1932.76C2678.76 1914.26 2664.93 1895.92 2649.8 1885.05L2491.36 1772.58Z" fill="#0F69AF"/>
</svg>
