<svg viewBox="0 0 8000 8000" fill="none"
  xmlns="http://www.w3.org/2000/svg">
  <path fill-rule="evenodd" clip-rule="evenodd" d="M8000 0H0V8000H8000V0ZM3459.42 3734C3458.7 3745.03 3466.51 3757.37 3476.73 3761.52C3476.73 3761.52 3554.87 3811.7 3573.68 3823.71C3590.49 3834.44 3594.04 3833.51 3600.88 3831.7C3601.69 3831.49 3602.55 3831.26 3603.48 3831.04C3612.26 3828.97 3692.1 3793.52 3692.1 3793.52C3705.51 3788.4 3712.93 3784.05 3713.84 3773.08L3722.82 3678.17C3723.73 3667.2 3718.13 3651.82 3710.39 3643.96L3588.06 3520.3C3580.32 3512.44 3566.85 3511.6 3558.19 3518.42L3484.73 3576.26C3476.07 3583.07 3468.4 3597.68 3467.68 3608.65L3459.42 3734ZM3601.45 3983.23C3604.38 3982.95 3605.95 3982.8 3612.26 3988.4C3614.27 3990.2 3618.1 3993.62 3622.55 3997.6C3633.67 4007.55 3648.64 4020.94 3648.64 4020.98C3652.67 4023.39 3655.08 4029.1 3654.04 4033.64L3642.13 4085.57C3641.02 4090.12 3636.86 4095.7 3632.76 4097.97L3598.08 4117.25C3593.98 4119.52 3588.45 4118.29 3585.72 4114.46L3542.9 4054.48C3540.17 4050.65 3538.93 4043.83 3540.04 4039.29L3550.19 4000.15C3551.29 3995.6 3554.68 3994.3 3560.66 3993.07C3560.66 3993.07 3596.45 3983.59 3600.29 3983.33C3600.71 3983.31 3601.09 3983.27 3601.45 3983.23ZM3393.8 4588.86C3389.8 4589.23 3387.65 4589.43 3379.06 4581.78C3369.43 4573.15 3329.21 4537.18 3329.08 4537.18C3323.62 4533.87 3320.3 4526.08 3321.73 4519.85L3338.06 4448.77C3339.56 4442.54 3345.29 4434.88 3350.88 4431.76L3398.38 4405.34C3403.98 4402.23 3411.66 4403.98 3415.37 4409.17L3474.06 4491.29C3477.83 4496.48 3479.59 4505.83 3478.03 4512.06L3464.1 4565.68C3462.54 4571.85 3457.92 4573.67 3449.72 4575.35C3449.72 4575.35 3400.66 4588.34 3395.45 4588.73C3394.86 4588.76 3394.32 4588.81 3393.8 4588.86ZM3063.88 4056.61C3064.5 4052.28 3064.84 4049.95 3075.12 4042.93C3086.7 4035.01 3134.85 4002.16 3134.85 4002.16C3139.73 3997.29 3148.84 3995.8 3155.02 3998.91L3225.62 4034.29C3231.81 4037.34 3238.38 4045.39 3240.2 4052.01L3255.82 4108.49C3257.64 4115.11 3253.86 4122.71 3247.42 4125.24L3145.91 4165.61C3139.54 4168.21 3129.26 4167.69 3123.08 4164.45L3070.24 4136.14C3064.12 4132.96 3063.41 4127.64 3063.73 4118.62C3063.73 4118.62 3062.63 4063.96 3063.6 4058.38C3063.71 4057.75 3063.8 4057.16 3063.88 4056.61ZM3106.34 4210.16C3109.24 4203.21 3110.76 4199.58 3130.88 4192.23C3153.46 4184.05 3247.42 4150.1 3247.42 4150.16C3257.64 4144.13 3273.32 4145.56 3282.23 4153.34L3384.13 4242.15C3393.05 4250 3400.53 4266.04 3400.72 4277.85L3402.35 4378.14C3402.48 4390.02 3393.05 4400.93 3381.27 4402.42L3195.63 4425.99C3183.85 4427.48 3167 4422.22 3158.21 4414.24L3082.8 4344.71C3074.01 4336.73 3075.12 4327.64 3079.48 4312.84C3079.48 4312.84 3101.21 4221.7 3105.18 4212.87C3105.61 4211.91 3105.99 4211.01 3106.34 4210.16ZM3717.31 4606.74C3712.23 4608.04 3709.59 4608.71 3697.18 4600.67C3683.32 4591.65 3625.54 4553.93 3625.67 4554C3618.12 4550.88 3612.39 4541.6 3612.98 4533.48L3619.81 4440.53C3620.4 4432.35 3626.19 4421.57 3632.63 4416.57L3687.48 4374.05C3693.93 4369.06 3703.88 4369.77 3709.61 4375.61L3799.66 4468.05C3805.39 4473.89 3809.49 4485.38 3808.71 4493.5L3801.55 4563.86C3800.77 4572.04 3795.3 4575.16 3785.28 4578.92C3785.28 4578.92 3725.81 4604.76 3719.3 4606.25C3718.59 4606.42 3717.93 4606.58 3717.31 4606.74ZM3999.8 3863.57C3997.14 3864.24 3995.75 3864.6 3989.21 3860.39C3981.86 3855.65 3951.47 3835.78 3951.53 3835.78C3947.5 3834.16 3944.51 3829.29 3944.83 3825.01L3948.48 3776.06C3948.8 3771.78 3951.86 3766.13 3955.24 3763.47L3984.13 3741.07C3987.52 3738.41 3992.79 3738.74 3995.78 3741.85L4043.22 3790.54C4046.21 3793.59 4048.36 3799.63 4047.97 3803.91L4044.19 3840.98C4043.8 3845.26 4040.87 3846.95 4035.6 3848.9C4035.6 3848.9 4004.3 3862.53 4000.86 3863.31C4000.47 3863.39 4000.13 3863.48 3999.8 3863.57ZM3956.96 3665.02C3950.06 3666.32 3946.46 3667 3930.52 3655.26C3919.88 3647.42 3889.31 3624.74 3866.27 3607.63C3850.56 3595.97 3838.34 3586.9 3838.31 3586.9C3828.42 3582.1 3821.59 3569.31 3823.02 3558.4L3839.81 3434.42C3841.31 3423.58 3849.96 3409.56 3859.01 3403.39L3935.98 3350.94C3945.09 3344.71 3958.37 3346.46 3965.52 3354.77L4078.61 3485.89C4085.84 3494.2 4090.33 3509.91 4088.63 3520.75L4073.28 3614.49C4071.59 3625.33 4063.97 3629.1 4050.24 3633.32C4050.24 3633.32 3968.52 3663.11 3959.67 3664.54C3958.69 3664.69 3957.8 3664.86 3956.96 3665.02ZM4147.87 4454.68C4150.69 4456.26 4152.22 4457.11 4154.35 4466.1C4155.27 4469.93 4157.27 4478.38 4159.39 4487.38C4162.86 4502.06 4166.68 4518.2 4166.72 4518.16C4168.8 4522.84 4167.37 4529.52 4163.59 4532.96L4120.19 4572.3C4116.42 4575.74 4109.13 4578.14 4103.99 4577.63L4060.59 4573.34C4055.51 4572.82 4051.28 4568.21 4051.22 4563.08L4050.31 4482.2C4050.24 4477.07 4053.37 4470.13 4057.21 4466.75L4090.98 4437.8C4094.88 4434.42 4098.72 4435.4 4104.9 4437.99C4104.9 4437.99 4143.16 4451.89 4146.74 4454.03C4147.14 4454.27 4147.52 4454.48 4147.87 4454.68ZM3870.3 4210.49C3866.09 4211.92 3863.91 4212.66 3852.89 4206.64C3845.27 4202.52 3822.84 4190.22 3806.76 4181.4C3796.76 4175.92 3789.21 4171.78 3789.19 4171.78C3782.61 4169.64 3777.15 4162.24 3777.15 4155.29L3776.95 4076.23C3776.89 4069.28 3781.12 4059.8 3786.26 4055.13L3829.92 4015.66C3835.06 4010.99 3843.52 4010.92 3848.72 4015.53L3930.91 4087.91C3936.11 4092.52 3940.34 4101.93 3940.21 4108.88L3938.72 4168.86C3938.65 4175.81 3934.16 4178.79 3925.96 4182.62C3925.96 4182.62 3877.35 4208.33 3871.95 4209.95C3871.36 4210.13 3870.82 4210.32 3870.3 4210.49ZM3444.7 4269.84C3439.1 4269.33 3436.2 4269.07 3426.56 4256.49C3415.76 4242.41 3371.12 4183.59 3371.25 4183.46C3364.74 4177.56 3362.27 4166.2 3365.85 4158.21L3406.39 4066.88C3409.96 4058.83 3419.72 4050.07 3428.05 4047.34L3498.78 4024.17C3507.11 4021.44 3516.94 4025.72 3520.58 4033.71L3578.04 4159.45C3581.68 4167.43 3581.68 4180.41 3577.97 4188.4L3545.24 4256.88C3541.53 4264.87 3534.83 4266.04 3523.38 4266.23C3523.38 4266.23 3453.95 4270.9 3446.86 4270.06C3446.09 4269.97 3445.38 4269.9 3444.7 4269.84ZM3129.94 3818.48C3132.27 3813.27 3133.5 3810.54 3148.91 3805.34C3158 3802.27 3182.2 3794.21 3203.1 3787.25C3221.98 3780.97 3238.18 3775.57 3238.18 3775.54C3246.06 3771.19 3257.9 3772.56 3264.54 3778.66L3340.21 3848.12C3346.85 3854.22 3352.18 3866.55 3352.12 3875.51L3351.4 3951.66C3351.27 3960.61 3343.92 3968.73 3334.94 3969.64L3193.61 3983.98C3184.63 3984.89 3171.94 3980.54 3165.44 3974.38L3109.48 3920.17C3102.97 3913.94 3104.01 3907.06 3107.59 3895.89C3107.59 3895.89 3125.81 3827.15 3129 3820.53C3129.35 3819.8 3129.65 3819.12 3129.94 3818.48ZM4273.73 3471.88C4279.78 3473.7 4282.94 3474.65 4290.61 3490.76C4299.2 3508.81 4334.73 3583.79 4334.66 3583.79C4340.45 3591.71 4340.52 3604.82 4334.73 3612.8L4269.01 3704.01C4263.28 3712.06 4250.53 3719.46 4240.7 3720.56L4157.48 3729.78C4147.65 3730.88 4137.83 3723.87 4135.68 3714.26L4101.52 3562.69C4099.37 3553.08 4102.43 3538.8 4108.35 3530.88L4160.15 3463.04C4166.07 3455.13 4173.74 3455.32 4186.37 3457.79C4186.37 3457.79 4263.8 3468.56 4271.41 3471.16C4272.24 3471.43 4273 3471.66 4273.73 3471.88ZM3710.44 3802.78C3716.13 3801.26 3719.06 3800.47 3733.03 3809.36C3737.34 3812.12 3745.39 3817.28 3754.8 3823.31C3779.51 3839.15 3813.56 3860.97 3813.65 3860.97C3822.11 3864.35 3828.55 3874.67 3827.97 3883.76L3821.07 3987.75C3820.48 3996.84 3814.11 4008.98 3806.89 4014.62L3745.92 4062.59C3738.69 4068.24 3727.57 4067.53 3721.12 4061.04L3619.62 3958.47C3613.18 3951.98 3608.49 3939.19 3609.27 3930.1L3616.75 3851.36C3617.47 3842.27 3623.65 3838.7 3634.78 3834.42C3634.78 3834.42 3701.02 3805.01 3708.31 3803.33C3709.07 3803.14 3709.78 3802.95 3710.44 3802.78ZM3520.02 4007.07C3515.05 4009.83 3512.42 4011.28 3497.09 4006.38C3479.85 4000.8 3408.14 3977.49 3408.21 3977.49C3399.29 3976.32 3390.64 3968.21 3388.95 3959.45L3369.62 3859.41C3367.93 3850.65 3370.92 3837.67 3376.32 3830.53L3422 3770.03C3427.4 3762.88 3438.14 3760.81 3445.82 3765.35L3567.3 3837.28C3574.98 3841.82 3582.53 3852.73 3584.09 3861.55L3596.65 3937.83C3598.21 3946.66 3593.33 3951.53 3583.83 3958.34C3583.83 3958.34 3528.46 4002.55 3522.01 4005.99C3521.29 4006.36 3520.64 4006.73 3520.02 4007.07ZM3847.4 3852.75C3841.93 3854.22 3839.03 3855 3825.56 3846.36C3810.46 3836.76 3747.61 3796.38 3747.61 3796.38C3739.41 3793.07 3733.16 3783.14 3733.75 3774.31L3740.38 3673.63C3740.97 3664.8 3747.15 3653.05 3754.11 3647.6L3813.13 3601.12C3820.09 3595.66 3830.9 3596.31 3837.14 3602.61L3935.4 3701.93C3941.64 3708.23 3946.13 3720.56 3945.42 3729.39L3938.19 3805.66C3937.41 3814.49 3931.49 3817.93 3920.69 3822.09C3920.69 3822.09 3856.53 3850.58 3849.51 3852.21C3848.75 3852.39 3848.05 3852.57 3847.4 3852.75ZM3658.75 4354.38C3652.64 4353.94 3649.4 4353.71 3638.62 4340.17C3632.45 4332.43 3616.39 4312.17 3602.1 4294.16C3588.33 4276.8 3576.22 4261.53 3576.22 4261.56C3568.93 4255.33 3566 4242.93 3569.71 4234.03L3612 4132.96C3615.71 4124.07 3626.12 4114.2 3635.23 4111.02L3712.21 4084.02C3721.32 4080.84 3732.19 4085.31 3736.35 4093.95L3802.27 4230.4C3806.49 4239.03 3806.69 4253.31 3802.85 4262.14L3768.62 4337.9C3764.72 4346.66 3757.43 4348.15 3744.87 4348.61C3744.87 4348.61 3668.94 4355.36 3661.13 4354.58C3660.28 4354.49 3659.49 4354.44 3658.75 4354.38ZM3709.99 3397.7C3715.04 3396.34 3717.68 3395.64 3730.17 3403.58C3744.16 3412.48 3802.14 3449.67 3802.07 3449.67C3809.68 3452.72 3815.41 3461.88 3814.89 3470.06L3808.77 3563.01C3808.19 3571.19 3802.53 3581.97 3796.08 3587.03L3741.62 3629.94C3735.24 3635 3725.22 3634.42 3719.5 3628.58L3628.79 3536.85C3623 3531.01 3618.84 3519.59 3619.55 3511.47L3626.19 3441.1C3626.9 3432.99 3632.37 3429.81 3642.33 3425.98C3642.33 3425.98 3701.54 3399.69 3708.05 3398.2C3708.74 3398.03 3709.38 3397.86 3709.99 3397.7ZM3320.14 3565.05C3325 3563.24 3327.58 3562.29 3340.73 3569.05C3355.44 3576.65 3416.67 3608.32 3416.6 3608.39C3424.41 3610.73 3431.05 3619.29 3431.24 3627.47L3433.78 3720.56C3434.04 3728.67 3429.36 3739.97 3423.43 3745.62L3373.2 3793.39C3367.28 3799.04 3357.26 3799.37 3351.01 3794.11L3252.17 3711.21C3245.93 3705.95 3240.72 3694.98 3240.66 3686.8L3240.72 3616.11C3240.66 3608 3245.8 3604.3 3255.36 3599.56C3255.36 3599.56 3311.91 3567.88 3318.22 3565.74C3318.91 3565.5 3319.54 3565.27 3320.14 3565.05ZM3922.96 3840.8C3928.01 3839.45 3930.65 3838.75 3943.14 3846.69C3957.13 3855.58 4015.11 3892.78 4015.04 3892.78C4022.65 3895.83 4028.38 3904.98 4027.86 3913.16L4021.74 4006.12C4021.16 4014.3 4015.5 4025.07 4009.05 4030.14L3954.59 4073.05C3948.22 4078.11 3938.19 4077.52 3932.47 4071.68L3841.76 3979.96C3835.97 3974.12 3831.81 3962.69 3832.52 3954.58L3839.16 3884.21C3839.88 3876.1 3845.34 3872.91 3855.3 3869.08C3855.3 3869.08 3914.51 3842.79 3921.02 3841.3C3921.71 3841.13 3922.35 3840.96 3922.96 3840.8ZM3539.13 4272.32C3544.36 4272.09 3547.1 4271.96 3557.61 4282.33C3569.38 4293.95 3618.32 4342.44 3618.25 4342.44C3625.02 4346.98 3628.73 4357.18 3626.51 4365.03L3601.01 4454.61C3598.73 4462.47 3590.92 4471.81 3583.57 4475.45L3521.3 4506.02C3513.94 4509.6 3504.38 4506.93 3499.96 4500.05L3430.53 4391.45C3426.1 4384.57 3424.41 4372.5 3426.82 4364.71L3448.09 4297.26C3450.44 4289.47 3456.49 4287.46 3467.03 4285.83C3467.03 4285.83 3530.41 4272.53 3537.11 4272.4C3537.83 4272.38 3538.5 4272.35 3539.13 4272.32ZM3349.47 3990.99C3352.92 3991.6 3354.76 3991.92 3360.19 4000.28C3366.24 4009.69 3391.49 4048.9 3391.55 4048.9C3395.32 4052.92 3396.3 4060.19 3393.7 4065.06L3363.77 4120.56C3361.1 4125.43 3354.59 4130.49 3349.19 4131.79L3303.51 4142.96C3298.11 4144.26 3292.12 4141.08 3290.24 4135.88L3260.18 4053.96C3258.29 4048.77 3258.94 4040.52 3261.67 4035.72L3285.55 3994.24C3288.29 3989.44 3292.58 3988.98 3299.8 3989.44C3299.8 3989.44 3343.66 3989.83 3348.08 3990.73C3348.58 3990.84 3349.04 3990.92 3349.47 3990.99ZM4499.05 4172.7C4505.35 4176.33 4508.67 4178.24 4513.08 4198.33C4518.02 4220.79 4538.39 4314.46 4538.26 4314.46C4542.75 4324.98 4539.37 4339.71 4530.78 4347.18L4432.98 4432.74C4424.46 4440.27 4408.12 4445.33 4396.8 4443.97L4300.76 4432.67C4289.44 4431.37 4280.26 4420.92 4280.33 4409.56L4281.5 4230.07C4281.63 4218.65 4288.79 4203.33 4297.51 4195.99L4373.57 4133.16C4382.29 4125.76 4390.81 4128.03 4404.41 4134.06C4404.41 4134.06 4488.68 4166.39 4496.62 4171.26C4497.48 4171.79 4498.28 4172.25 4499.05 4172.7ZM3887.85 4535.85C3880.15 4535.51 3876.07 4535.33 3861.93 4518.68C3846.06 4499.99 3780.27 4421.9 3780.27 4421.9C3770.9 4414.24 3766.74 4398.72 3771.1 4387.43L3820.61 4258.51C3824.97 4247.15 3837.79 4234.36 3849.12 4230.01L3945.09 4193.07C3956.41 4188.72 3970.27 4193.92 3975.87 4204.69L4064.04 4374.25C4069.63 4384.96 4070.48 4402.94 4065.93 4414.17L4025.65 4510.96C4021.16 4522.19 4011.98 4524.33 3996.17 4525.37C3996.17 4525.37 3900.78 4536.73 3890.89 4536.02C3889.8 4535.94 3888.8 4535.89 3887.85 4535.85ZM4723.43 3984.7C4726.37 3986.64 4727.94 3987.67 4729.56 3997.55C4731.32 4008.65 4738.8 4054.8 4738.8 4054.8C4740.76 4060 4738.67 4067.07 4734.31 4070.51L4684.41 4109.59C4679.98 4113.03 4671.91 4115.11 4666.45 4114.14L4619.92 4106.15C4614.46 4105.18 4610.23 4099.86 4610.55 4094.34L4615.95 4006.96C4616.28 4001.45 4620.18 3994.17 4624.61 3990.8L4663.32 3962.17C4667.75 3958.8 4671.91 3960.09 4678.35 3963.41C4678.35 3963.41 4718.57 3981.32 4722.28 3983.92C4722.68 3984.2 4723.07 3984.46 4723.43 3984.7ZM4179.44 4541.26C4178.68 4535.74 4178.27 4532.79 4188.38 4520.57C4199.77 4506.8 4247.21 4449.61 4247.21 4449.68C4251.5 4441.95 4262.11 4436.96 4270.76 4438.58L4369.8 4457.08C4378.52 4458.7 4389.38 4466.17 4394 4473.7L4433.04 4537.44C4437.6 4544.97 4435.65 4555.55 4428.68 4560.94L4318.52 4646.11C4311.56 4651.5 4298.74 4654.48 4290.09 4652.67L4215.32 4636.5C4206.67 4634.69 4203.94 4628.45 4201.14 4617.29C4201.14 4617.29 4180.51 4550.62 4179.73 4543.48C4179.64 4542.68 4179.54 4541.95 4179.44 4541.26ZM4115.48 3717.71C4115.11 3720.64 4114.91 3722.2 4108.02 3727.05C4104.37 3729.65 4095.15 3736.13 4086.49 3742.22C4076.97 3748.91 4068.14 3755.13 4068.14 3755.16C4064.82 3758.47 4058.77 3759.57 4054.54 3757.5L4006.65 3734.26C4002.42 3732.18 3997.93 3726.86 3996.63 3722.38L3985.63 3684.4C3984.33 3679.92 3986.8 3674.86 3991.1 3673.04L4059.22 3644.93C4063.52 3643.12 4070.48 3643.38 4074.64 3645.52L4110.5 3664.15C4114.66 3666.23 4115.18 3669.8 4115.05 3675.9C4115.05 3675.9 4116.22 3712.77 4115.64 3716.54C4115.57 3716.95 4115.52 3717.34 4115.48 3717.71ZM4078.03 3943.37C4080.6 3942.03 4081.94 3941.33 4089.68 3944.06C4095.15 3945.99 4111.53 3951.87 4122.8 3955.91C4129.35 3958.26 4134.17 3959.99 4134.12 3959.96C4138.54 3960.68 4142.84 3964.9 4143.55 3969.38L4151.88 4020.27C4152.6 4024.75 4150.91 4031.31 4148.04 4034.81L4124.03 4064.74C4121.23 4068.24 4115.77 4069.15 4111.93 4066.75L4051.54 4028.58C4047.71 4026.18 4044.06 4020.53 4043.41 4016.05L4038.21 3977.23C4037.55 3972.75 4040.16 3970.35 4045.04 3967.04C4045.04 3967.04 4073.73 3945.49 4077.05 3943.87C4077.4 3943.69 4077.72 3943.53 4078.03 3943.37ZM4826.19 4380.41C4823.44 4382.67 4822.04 4383.82 4812.14 4382.43C4801.14 4380.87 4755.14 4374.12 4755.2 4374.12C4749.73 4374.31 4743.62 4370.29 4741.67 4365.16L4719.41 4306.48C4717.46 4301.35 4717.92 4293.11 4720.45 4288.24L4741.86 4246.76C4744.33 4241.89 4750.65 4239.49 4755.79 4241.43L4837.06 4272.4C4842.2 4274.35 4847.92 4280.19 4849.81 4285.38L4865.43 4330.43C4867.25 4335.62 4864.84 4339.06 4859.77 4344.19C4859.77 4344.19 4830.81 4376.85 4827.23 4379.57C4826.86 4379.87 4826.51 4380.15 4826.19 4380.41ZM4668.45 4131.49C4673.25 4132.83 4675.76 4133.52 4682.19 4146.07C4689.42 4160.16 4719.28 4218.71 4719.22 4218.71C4723.97 4224.88 4724.29 4235.2 4719.93 4241.69L4669.96 4315.37C4665.6 4321.8 4655.65 4327.96 4647.9 4329.07L4582.25 4338.29C4574.44 4339.39 4566.57 4334.07 4564.61 4326.54L4534.1 4207.29C4532.21 4199.69 4534.29 4188.27 4538.78 4181.91L4578.28 4127.05C4582.77 4120.69 4588.82 4120.69 4598.91 4122.32C4598.91 4122.32 4660.46 4129.07 4666.58 4130.95C4667.24 4131.15 4667.87 4131.33 4668.45 4131.49ZM4344.5 3964.09C4349.77 3967.14 4352.55 3968.76 4356.26 3985.54C4360.43 4004.37 4377.48 4082.85 4377.41 4082.85C4381.12 4091.61 4378.32 4103.94 4371.1 4110.24L4289.18 4181.84C4282.02 4188.14 4268.35 4192.36 4258.85 4191.25L4178.43 4181.78C4168.99 4180.67 4161.25 4171.98 4161.32 4162.43L4162.29 4012.09C4162.36 4002.55 4168.41 3989.76 4175.7 3983.59L4239.4 3930.95C4246.69 3924.78 4253.84 3926.66 4265.23 3931.73C4265.23 3931.73 4335.83 3958.8 4342.47 3962.89C4343.19 3963.33 4343.86 3963.72 4344.5 3964.09ZM4405.46 4100.1C4400.15 4096.66 4397.33 4094.84 4394.26 4077.2C4390.81 4057.4 4376.76 3974.9 4376.82 3974.9C4373.31 3965.61 4376.82 3952.89 4384.63 3946.72L4473.32 3875.97C4481.13 3869.73 4495.51 3865.97 4505.34 3867.59L4588.62 3881.16C4598.45 3882.78 4606.06 3892.19 4605.54 3902.13L4597.47 4058.63C4596.95 4068.57 4590.06 4081.61 4582.18 4087.72L4513.4 4139.52C4505.53 4145.56 4498.11 4143.28 4486.53 4137.51C4486.53 4137.51 4414.24 4106.09 4407.54 4101.48C4406.8 4100.97 4406.12 4100.53 4405.46 4100.1ZM4092.47 4415.56C4087.78 4412.86 4085.3 4411.43 4082 4396.38C4078.29 4379.57 4063.06 4309.46 4063.19 4309.4C4059.81 4301.54 4062.35 4290.57 4068.79 4284.93L4141.99 4220.92C4148.37 4215.34 4160.6 4211.57 4169.06 4212.55L4240.96 4220.99C4249.42 4222.02 4256.32 4229.81 4256.25 4238.32L4255.34 4372.69C4255.28 4381.26 4249.88 4392.68 4243.37 4398.2L4186.43 4445.2C4179.93 4450.65 4173.48 4449.03 4163.33 4444.49C4163.33 4444.49 4100.22 4420.34 4094.3 4416.64C4093.65 4416.24 4093.05 4415.89 4092.47 4415.56ZM4485.58 4595.41C4480.04 4592.19 4477.14 4590.5 4473.26 4572.82C4470.92 4562.35 4464.85 4534.45 4459.62 4510.42C4454.92 4488.87 4450.9 4470.42 4450.87 4470.45C4446.97 4461.23 4449.96 4448.25 4457.51 4441.63L4543.79 4366.2C4551.4 4359.58 4565.79 4355.16 4575.74 4356.33L4660.46 4366.26C4670.48 4367.43 4678.61 4376.59 4678.55 4386.65L4677.51 4544.91C4677.44 4554.97 4671.07 4568.47 4663.39 4574.96L4596.3 4630.34C4588.62 4636.76 4581.08 4634.81 4569.1 4629.49C4569.1 4629.49 4494.73 4600.99 4487.77 4596.71C4486.99 4596.23 4486.27 4595.81 4485.58 4595.41ZM4262.52 3899.96C4257.28 3896.82 4254.52 3895.17 4250.98 3878.24C4246.95 3859.22 4230.61 3779.96 4230.68 3780.02C4227.04 3771.13 4230.03 3758.73 4237.32 3752.5L4320.6 3681.22C4327.89 3674.99 4341.69 3670.84 4351.25 3672.07L4432.2 3682.46C4441.76 3683.69 4449.38 3692.52 4449.25 3702.12L4446.64 3853.57C4446.45 3863.18 4440.27 3876.03 4432.85 3882.13L4368.11 3934.45C4360.69 3940.62 4353.46 3938.61 4342.08 3933.41C4342.08 3933.41 4271.22 3905.44 4264.58 3901.22C4263.85 3900.75 4263.17 3900.35 4262.52 3899.96ZM4216.15 3780.17C4219.57 3783.31 4221.38 3784.96 4221.44 3798.13C4221.47 3804.5 4221.5 3819.56 4221.52 3834.64C4221.56 3854.59 4221.6 3874.57 4221.64 3874.54C4223 3881.74 4218.9 3890.51 4212.46 3894.08L4139.39 3934.65C4133.01 3938.15 4122.08 3939.13 4115.12 3936.79L4056.29 3916.73C4049.4 3914.39 4045.04 3906.6 4046.6 3899.46L4071.72 3786.77C4073.28 3779.63 4079.91 3771 4086.36 3767.56L4142.64 3738.35C4149.08 3734.91 4154.22 3737.44 4161.9 3743.09C4161.9 3743.09 4210.51 3774.76 4214.8 3778.92C4215.28 3779.38 4215.72 3779.79 4216.15 3780.17ZM4937.19 4172.31C4937.23 4177.47 4937.26 4180.21 4926.53 4190.28C4919.88 4196.52 4901.56 4213.59 4886.54 4227.58C4874.37 4238.92 4864.36 4248.24 4864.45 4248.18C4859.64 4254.81 4849.29 4258.12 4841.55 4255.58L4753.05 4226.96C4745.31 4224.49 4736.2 4216.31 4732.88 4208.91L4704.64 4145.94C4701.32 4138.48 4704.32 4129.07 4711.34 4124.91L4822.29 4059.93C4829.31 4055.84 4841.42 4054.61 4849.1 4057.27L4915.6 4080.9C4923.34 4083.56 4925.1 4089.6 4926.33 4100.18C4926.33 4100.18 4937.33 4163.67 4937.2 4170.29C4937.18 4171.01 4937.19 4171.67 4937.19 4172.31ZM4598.83 3702.7C4602.47 3705.05 4604.34 3706.27 4606.32 3718.29C4608.54 3731.73 4617.58 3787.62 4617.51 3787.68C4619.79 3793.98 4617.32 3802.55 4612.05 3806.7L4551.6 3854.02C4546.26 3858.18 4536.5 3860.65 4529.87 3859.48L4473.58 3849.74C4466.95 3848.57 4461.87 3842.15 4462.26 3835.46L4468.7 3729.65C4469.16 3722.9 4473.84 3714.07 4479.24 3710.04L4526.09 3675.38C4531.43 3671.35 4536.44 3672.91 4544.25 3676.94C4544.25 3676.94 4592.98 3698.68 4597.47 3701.8C4597.95 3702.13 4598.41 3702.42 4598.83 3702.7ZM4040.39 4050.17C4046.53 4048.16 4047.76 4047.75 4059.74 4056.23L4123.12 4101.22C4129.17 4105.57 4134.7 4112.9 4133.86 4120.3L4124.29 4204.43C4123.45 4211.83 4117.79 4221.38 4111.73 4225.72L4060.39 4262.34C4054.34 4266.69 4045.36 4265.65 4040.35 4260.13L3961.94 4172.95C3956.93 4167.43 3953.68 4156.85 3954.66 4149.51L3963.7 4085.77C3964.68 4079.6 3969.75 4075.97 3978.99 4072.59L4039.9 4050.33L4040.39 4050.17Z" fill="black"/>
</svg>
