<svg width="2295" height="2105" viewBox="0 0 2295 2105" fill="none" xmlns="http://www.w3.org/2000/svg">
<path d="M2076.38 2.08829L2236.74 0.417659C2255.55 0.208829 2259.52 10.3371 2245.62 22.9712L2166.23 94.9129C2152.33 107.547 2131.02 106.19 2118.8 91.8849L2064.47 28.4008C2052.25 14.096 2057.58 2.19271 2076.38 2.08829ZM2085.57 1646.2L1982.78 1607.26C1965.22 1600.57 1955.3 1609.87 1960.63 1627.82L2029.58 1858.79C2034.91 1876.75 2044.2 1876.96 2050.16 1859.1L2106.57 1690.58C2112.63 1672.83 2103.13 1652.88 2085.57 1646.2ZM2065.2 1878.42C2059.77 1896.38 2068.96 1904.11 2085.68 1895.65L2266.2 1804.6C2282.92 1796.14 2284.49 1779.85 2269.65 1768.37L2158.29 1682.54C2143.45 1671.05 2126.74 1676.38 2121.3 1694.34L2065.2 1878.42ZM37.7372 900.785L145.133 974.502C160.595 985.152 175.325 978.574 177.833 959.989L223.8 623.147C226.307 604.561 217.845 600.489 204.995 614.167L35.2299 794.596C8.58987 828.948 -4.36451 865.493 37.7372 900.785ZM32.5137 774.757L197.055 593.18C209.696 579.293 204.577 568.12 185.877 568.329L43.7965 570.209C24.9918 570.417 9.63458 585.975 9.63458 604.77V765.882C9.53011 784.676 19.8727 788.644 32.5137 774.757ZM153.7 1401.14L46.4083 1444.89C14.8581 1459.82 -3.42427 1471.83 42.8563 1504.93L291.288 1677.84C306.645 1688.59 313.227 1683.27 305.705 1666.04L198.831 1419.52C191.309 1402.29 171.042 1394.04 153.7 1401.14ZM2018.4 778.098C2035.01 769.432 2037.52 751.681 2023.83 738.734L1701.75 432.799C1688.17 419.851 1671.87 423.715 1665.6 441.465L1448.41 1050.83C1442.14 1068.48 1450.6 1075.78 1467.21 1067.12L2018.4 778.098ZM1773.94 944.118L1480.9 1083.41C1463.97 1091.45 1463.35 1105.75 1479.64 1115.04L1750.85 1270.83C1767.15 1280.23 1781.46 1272.5 1782.71 1253.81L1802.46 963.539C1803.71 944.744 1790.86 935.973 1773.94 944.118ZM1259 1352.38C1277.7 1354.26 1286.79 1341.83 1279.16 1324.6L1046.51 797.833C1038.88 780.709 1021.02 776.636 1006.81 788.853L471.291 1247.23C457.083 1259.45 460.635 1270.94 479.335 1272.92L1259 1352.38ZM1298.7 520.298L1509.52 732.365C1520.91 747.296 1535.12 744.999 1541.18 727.248L1645.86 421C1651.92 403.249 1641.89 391.973 1623.5 395.836L1311.45 485.946C1293.06 489.914 1287.42 505.367 1298.7 520.298ZM1211.57 493.046L999.287 446.79C980.586 445.537 968.886 459.425 973.273 477.593L1027.81 703.546C1032.3 721.819 1045.88 725.056 1058 710.751L1223.38 521.342C1235.6 507.038 1230.27 494.404 1211.57 493.046ZM948.827 485.633C944.335 467.36 926.888 459.007 909.86 467.047L680.651 574.907C663.622 582.843 664.04 595.268 681.382 602.264L978.393 723.385C995.735 730.485 1006.39 721.401 1001.9 703.128L948.827 485.633ZM1292.95 1303.3C1300.58 1320.43 1312.49 1320.22 1319.39 1302.78L1494.37 861.003C1501.27 843.566 1491.66 826.964 1473.17 824.249L1087.98 771.833C1069.39 769.014 1060.51 780.813 1068.13 797.937L1292.95 1303.3ZM1706.55 407.635L1837.67 533.246C1851.25 546.193 1872.04 544.94 1883.95 530.531L1982.57 410.454C1994.48 395.94 1988.83 384.142 1970.13 384.142H1716.06C1697.26 384.037 1692.97 394.687 1706.55 407.635ZM1807.26 1253.71C1806.01 1272.4 1818.02 1279.71 1834.01 1269.89L2069.17 1126.01C2085.16 1116.19 2085.47 1099.7 2069.9 1089.36L1857.72 948.19C1842.16 937.853 1828.26 944.64 1827.01 963.33L1807.26 1253.71ZM1818.44 1348.31L1916.33 1531.35C1925.21 1547.84 1940.99 1548.68 1951.33 1533.02L2022.16 1426.93C2032.61 1411.37 2026.55 1393.62 2008.79 1387.67L1834.74 1329.09C1816.98 1323.14 1809.67 1331.81 1818.44 1348.31ZM2057.99 1348.83L2096.23 1158.06C2099.89 1139.69 2089.86 1132.69 2073.87 1142.4L1838.71 1286.28C1822.73 1296.1 1824.19 1308.84 1842.05 1314.58L2018.92 1371.8C2036.68 1377.54 2054.23 1367.21 2057.99 1348.83ZM2100.1 1053.13L2082.13 804.097C2080.77 785.407 2066.14 777.367 2049.64 786.138L1866.08 884.288C1849.57 893.163 1848.53 909.139 1863.99 919.893L2074.71 1067.33C2089.96 1078.29 2101.45 1071.82 2100.1 1053.13ZM2062.07 701.249L2020.7 422.775C2017.98 404.189 2006.39 401.266 1995 416.197L1895.86 546.402C1884.47 561.333 1886.98 583.469 1901.29 595.477L2040.97 713.048C2055.28 725.16 2064.78 719.835 2062.07 701.249ZM2036.16 322.641L2113.36 167.063C2121.72 150.253 2113.36 134.382 2094.77 131.771L1837.56 95.435C1818.96 92.8246 1813.53 102.535 1825.55 116.944L1999.39 326.922C2011.19 341.332 2027.8 339.452 2036.16 322.641ZM1808.62 119.555C1796.71 105.146 1780.94 107.443 1773.73 124.776L1687.02 332.352C1679.81 349.685 1689.21 363.467 1708.02 362.945L1970.13 356.576C1988.94 356.158 1994.48 343.942 1982.46 329.428L1808.62 119.555ZM1730.16 102.848L1477.03 176.774C1459.06 181.995 1456.35 195.882 1470.97 207.576L1631.23 334.649C1645.96 346.343 1663.62 341.645 1670.62 324.208L1750.33 124.984C1757.22 107.547 1748.24 97.6277 1730.16 102.848ZM1457.91 217.078C1443.18 205.384 1424.07 209.456 1415.39 226.058L1301.94 441.465C1293.27 458.067 1301.1 468.195 1319.39 464.019L1611.69 373.074C1629.98 368.793 1632.9 355.845 1618.17 344.151L1457.91 217.078ZM1374.13 190.139L1108.77 161.007C1090.07 158.919 1083.7 169.778 1094.56 185.127L1243.23 441.987C1254.09 457.232 1270.08 456.188 1278.75 439.586L1392.2 224.178C1400.98 207.472 1392.83 192.227 1374.13 190.139ZM1079.42 189.617C1068.55 174.268 1054.76 176.356 1048.81 194.107L982.885 390.824C976.93 408.575 987.377 424.446 1006.08 426.012L1213.66 471.328C1232.36 472.894 1238.73 461.722 1227.87 446.373L1079.42 189.617ZM1008.17 162.574L810.821 199.745C792.434 203.191 786.898 218.018 798.703 232.636L929.709 395.523C941.514 410.141 956.036 407.53 962.095 389.78L1030.63 188.468C1036.79 170.718 1026.66 159.128 1008.17 162.574ZM787.315 242.973C775.51 228.355 761.093 230.965 755.243 248.82L660.697 536.274C654.846 554.129 663.935 562.169 680.86 554.129L908.815 446.895C925.844 438.959 930.023 420.373 918.322 405.755L787.315 242.973ZM658.503 615.525C641.056 608.529 622.46 617.613 617.237 635.572L443.502 1226.66C438.174 1244.62 445.487 1249.32 459.59 1236.9L984.243 778.203C998.346 765.882 995.63 750.011 978.288 743.119L658.503 615.525ZM579.836 596.521L285.647 572.192C266.946 570.626 262.036 580.754 274.573 594.642L497.827 839.494C510.468 853.381 525.929 850.249 532.093 832.498L602.507 631.5C608.67 613.854 598.537 598.087 579.836 596.521ZM484.141 912.375L225.68 1005.72C208.025 1012.09 204.159 1028.38 217.114 1042.06L396.803 1230.94C409.758 1244.52 424.279 1240.86 429.189 1222.7L507.438 933.676C512.139 915.612 501.692 906.006 484.141 912.375ZM194.443 1075.68L201.339 1343.19C201.861 1361.99 216.487 1382.97 233.933 1389.97L597.492 1535.63C614.939 1542.62 619.117 1536.67 606.894 1522.47L215.756 1067.54C203.637 1053.23 194.026 1056.89 194.443 1075.68ZM10.4703 1536.57L14.1268 1724.93C14.5447 1743.73 30.0064 1756.78 48.4977 1753.96L280.423 1719.29C299.019 1716.47 301.526 1705.51 286.169 1694.75L37.7372 1521.95C22.38 1511.19 10.0525 1517.77 10.4703 1536.57ZM27.708 1797.6L145.551 1871.63C161.431 1881.66 184.519 1878.21 196.846 1864.12L296.929 1749.36C309.257 1735.27 304.242 1726.29 285.751 1729.52L32.4092 1773.59C13.9179 1776.82 11.8285 1787.68 27.708 1797.6ZM224.113 1895.23L381.76 1915.28C400.355 1917.68 409.758 1905.36 402.549 1888.03L348.642 1758.03C341.434 1740.7 325.45 1737.98 313.018 1752.08L212.935 1865.26C200.398 1879.36 205.517 1892.83 224.113 1895.23ZM416.653 1880.4C424.07 1897.63 438.069 1898.68 447.785 1882.6L615.043 1608.51C624.863 1592.53 618.7 1573.32 601.462 1566.01L241.978 1412.21C224.74 1404.8 216.696 1412.94 224.009 1430.17L416.653 1880.4ZM638.862 1520.07C650.668 1534.69 672.502 1537.4 687.441 1526.02L897.846 1366.68C912.785 1355.41 909.755 1344.23 891.159 1342.04L486.962 1293.59C468.366 1291.4 462.725 1301.53 474.53 1316.04L638.862 1520.07ZM1235.29 1670.53C1247.3 1684.94 1258.9 1681.49 1261.09 1662.8L1290.24 1413.67C1292.43 1395.08 1278.96 1378.17 1260.25 1376.29L997.824 1348.83C979.124 1346.84 973.691 1357.08 985.706 1371.49L1235.29 1670.53ZM1307.16 1681.7L1529.37 1578.12C1546.4 1570.19 1547.65 1554.94 1532.3 1544.19L1344.04 1413.15C1328.68 1402.39 1314.06 1408.87 1311.55 1427.45L1280.63 1662.28C1278.22 1680.87 1290.13 1689.64 1307.16 1681.7ZM1544.31 1506.7L1433.47 1152.74C1427.83 1134.88 1417.38 1134.36 1410.17 1151.69L1335.89 1329.62C1328.68 1346.95 1334.95 1370.44 1349.79 1381.93L1527.49 1518.5C1542.33 1529.88 1549.95 1524.56 1544.31 1506.7ZM1563.74 1504.72C1569.28 1522.68 1583.8 1525.71 1596.13 1511.61L1750.54 1333.79C1762.86 1319.59 1759.63 1300.38 1743.33 1291.09L1475.36 1137.18C1459.06 1127.89 1450.29 1134.88 1455.82 1152.84L1563.74 1504.72ZM1620.16 1549.83L1887.18 1567.58C1905.88 1568.83 1913.72 1556.41 1904.53 1540.12L1800.26 1353.74C1791.07 1337.34 1773.42 1335.46 1760.98 1349.56L1608.67 1522.05C1596.23 1536.04 1601.46 1548.57 1620.16 1549.83ZM1778.95 1771.08C1766.52 1785.07 1770.59 1802.09 1788.04 1808.98L1988.52 1887.19C2005.97 1893.98 2016.21 1884.79 2011.19 1866.73L1944.96 1628.14C1939.94 1610.07 1925.63 1606.73 1913.09 1620.72L1778.95 1771.08ZM2104.17 1606.42L2063.22 1446.56C2058.52 1428.39 2046.4 1426.41 2036.06 1442.07L1969.51 1543.77C1959.27 1559.43 1965.01 1578.23 1982.36 1585.43L2081.08 1626.47C2098.42 1633.57 2108.87 1624.59 2104.17 1606.42ZM2101.04 1379.53L2274.46 1361.57C2293.16 1359.69 2298.9 1346.01 2287.31 1331.29L2138.54 1142.4C2126.94 1127.68 2114.62 1130.71 2111.17 1149.08L2073.35 1349.46C2069.9 1367.94 2082.34 1381.51 2101.04 1379.53ZM2120.36 713.048L2258.79 641.837C2284.7 626.801 2308.93 613.854 2262.76 575.116L2062.49 410.663C2047.96 398.76 2038.56 404.189 2041.49 422.671L2084.74 694.984C2087.66 713.57 2103.75 721.714 2120.36 713.048ZM2291.49 547.029L2289.4 301.863C2289.19 283.068 2274.98 273.775 2257.64 280.98L2070.11 360.022C2052.87 367.331 2050.58 382.993 2064.99 394.896L2265.26 559.349C2279.89 571.357 2291.7 565.823 2291.49 547.029ZM2261.19 217.705L2176.36 158.397C2147.53 134.904 2144.81 147.956 2132.9 169.256L2051.73 327.862C2043.16 344.568 2050.26 352.191 2067.5 344.777L2257.74 263.438C2297.86 245.479 2296.81 242.869 2261.19 217.705ZM1886.35 20.8829L1827.64 58.4722C1811.86 68.6004 1814.16 78.9375 1832.75 81.339L2094.66 115.691C2113.26 118.093 2118.06 108.905 2105.21 95.1218L2042.11 27.2522C2029.37 13.4695 2003.56 2.29712 1984.76 2.29712H1949.14C1930.33 2.40154 1902.12 10.6503 1886.35 20.8829ZM1690.26 18.0637L1751.58 56.3839C1767.46 66.3033 1793.37 66.1989 1809.25 56.0707L1867.86 18.377C1883.63 8.24876 1881.23 0 1862.42 0H1695.48C1676.68 0 1674.38 8.14434 1690.26 18.0637ZM1561.13 31.4288L1466.06 146.494C1454.15 160.903 1459.06 168.525 1477.03 163.2L1730.16 89.2745C1748.13 84.0538 1749.91 71.5241 1734.03 61.6047L1672.71 23.2845C1656.83 13.3651 1600.41 -14.5136 1561.13 31.4288ZM832.865 37.7981L786.48 159.859C779.794 177.401 789.405 188.886 807.896 185.44L1005.24 148.269C1023.73 144.823 1028.02 131.04 1014.75 117.675L928.351 30.2803C915.188 16.8108 891.055 5.95164 874.757 5.95164C858.356 5.95164 839.551 20.2564 832.865 37.7981ZM535.75 39.4687L623.192 523.326C626.535 541.808 634.37 542.434 640.534 524.684L811.553 38.1114C817.821 20.4653 807.478 5.95164 788.778 5.95164H563.748C544.943 5.95164 532.407 20.9873 535.75 39.4687ZM487.693 34.1436L261.618 524.162C253.783 541.181 262.663 556.008 281.363 557.157L576.493 574.385C595.194 575.534 607.73 561.333 604.178 542.852L508.378 36.6496C504.826 18.2726 495.528 17.124 487.693 34.1436ZM439.428 37.9025L279.065 150.357C263.708 161.112 251.171 185.336 251.171 204.026L251.589 476.444C251.589 495.239 257.753 496.492 265.379 479.263L453.74 49.4926C461.262 32.3686 454.785 27.1478 439.428 37.9025ZM236.754 612.079L192.25 963.747C189.847 982.333 202.383 992.357 220.039 985.988L478.082 893.059C495.737 886.689 500.021 869.983 487.589 855.992L263.603 603.83C251.171 589.734 239.053 593.493 236.754 612.079ZM33.6629 337.259L204.368 508.708C217.636 521.969 228.396 517.584 228.396 498.789V211.335C228.396 192.541 214.293 183.248 197.055 190.557L40.9758 256.965C-2.90192 277.012 4.72445 305.309 33.6629 337.259ZM6.50045 358.351L9.00775 511.527C9.32116 530.322 24.8873 545.671 43.6921 545.776L180.862 546.298C199.667 546.402 204.473 535.23 191.623 521.551L29.3796 349.058C16.4252 335.484 6.18704 339.557 6.50045 358.351ZM0.0232607 1102.51C-0.603564 1121.2 11.5151 1127.99 27.0812 1117.55L145.551 1037.99C161.117 1027.54 161.222 1010.21 145.865 999.562L35.1255 922.921C19.6638 912.271 6.50045 918.849 5.87363 937.539L0.0232607 1102.51ZM382.282 2067.83L407.355 1972.6C412.161 1954.43 400.878 1937.21 382.282 1934.28L226.516 1909.74C208.025 1906.82 202.383 1916.43 214.084 1931.15L323.883 2068.77C353.657 2102.39 368.596 2112.62 382.282 2067.83ZM635.206 2082.45L466.486 1961.12C451.233 1950.15 434.935 1956 430.13 1974.17L405.057 2069.39C400.251 2087.56 411.743 2102.39 430.548 2102.39H628.833C647.533 2102.39 650.459 2093.41 635.206 2082.45ZM699.142 1945.25L482.052 1930.52C463.351 1929.27 460.322 1937.31 475.47 1948.48L651.608 2078.58C683.471 2097.27 710.947 2121.71 720.454 2068.56L729.648 1981.58C731.528 1962.79 717.842 1946.5 699.142 1945.25ZM731.841 1901.91L656.309 1615.61C651.503 1597.44 639.594 1595.77 629.878 1611.74L462.62 1885.83C452.8 1901.81 460.217 1916.01 478.918 1917.26L706.559 1932.61C725.155 1933.86 736.543 1919.98 731.841 1901.91ZM1382.9 2064.07L1275.93 1754.58C1269.76 1736.83 1255.03 1734.12 1243.02 1748.63L1112.74 1905.46C1100.73 1919.87 1104.49 1938.98 1120.89 1947.96L1363.99 2079.94C1380.61 2089.02 1389.07 2081.82 1382.9 2064.07ZM1424.07 2048.82L1550.79 1613.94C1556.01 1595.98 1546.4 1587.63 1529.37 1595.56L1311.55 1696.95C1294.52 1704.88 1285.85 1725.77 1292.22 1743.41L1402.86 2049.35C1409.33 2067.1 1418.84 2066.89 1424.07 2048.82ZM1467.73 2057.07L1899.09 1612.48C1912.15 1599.01 1907.45 1587.42 1888.75 1586.79L1612.11 1576.66C1593.41 1575.93 1574.09 1590.24 1569.28 1608.4L1452.79 2048.62C1447.99 2066.78 1454.68 2070.54 1467.73 2057.07ZM1497.3 2086L1990.51 1930C2008.37 1924.36 2008.68 1914.23 1991.13 1907.55L1774.77 1824.86C1757.22 1818.17 1732.15 1823.6 1718.99 1837.07L1488.63 2072C1475.57 2085.37 1479.43 2091.63 1497.3 2086ZM1750.01 2075.97L1743.75 2065.64C1733.93 2049.66 1711.15 2040.78 1693.18 2046.01L1522.16 2095.5C1504.09 2100.72 1504.72 2105 1523.52 2105H1733.82C1752.52 2105 1759.83 2091.95 1750.01 2075.97ZM1852.29 2078.17L1995.83 1954.85C2010.04 1942.64 2007.22 1937.73 1989.57 1943.99L1778.43 2018.96C1760.77 2025.23 1753.46 2043.92 1762.13 2060.52L1768.09 2071.69C1798.59 2124.11 1828.79 2091.95 1852.29 2078.17ZM2010.04 1959.13L1872.35 2079.42C1858.25 2091.74 1862.01 2101.55 1880.81 2101.24L1981.1 2099.57C1999.91 2099.26 2017.15 2083.8 2019.44 2065.22L2031.35 1970.51C2033.86 1951.93 2024.25 1946.81 2010.04 1959.13ZM2294.41 1475.28C2294.41 1456.48 2284.9 1453.24 2273.31 1467.97L2156.61 1616.23C2145.02 1630.96 2148.05 1651.84 2163.41 1662.7L2266.52 1735.48C2281.87 1746.34 2294.41 1739.76 2294.41 1721.07V1475.28ZM2268.29 1380.68L2107.51 1395.71C2088.81 1397.49 2077.01 1413.88 2081.19 1432.15L2119.32 1597.65C2123.5 1615.92 2136.45 1618.85 2148.05 1604.12L2264.74 1455.85C2276.34 1441.13 2289.5 1417.43 2293.99 1403.33C2298.59 1389.13 2286.99 1378.9 2268.29 1380.68ZM911.636 1378.06L691.307 1544.5C680.651 1552.54 681.278 1568.73 692.665 1575.93L898.472 1706.03C908.397 1712.3 921.56 1705.4 921.978 1693.71L933.052 1389.24C933.47 1377.96 920.62 1371.28 911.636 1378.06ZM948.096 1391.01L936.813 1702.38C936.5 1711.36 943.917 1718.67 952.797 1718.25L1213.56 1705.72C1226.3 1705.09 1232.78 1690.06 1224.42 1680.45L968.259 1383.91C961.468 1375.98 948.514 1380.57 948.096 1391.01ZM957.812 1762.42L1058 1906.82C1066.67 1919.25 1084.85 1920.08 1094.46 1908.39L1230.17 1745.4C1238.73 1735.16 1231 1719.71 1217.63 1720.34L972.542 1732.45C957.603 1733.18 949.245 1750.09 957.812 1762.42ZM674.905 1615.09L746.781 1905.36C749.81 1917.58 765.586 1921.13 773.525 1911.31L897.323 1758.13C907.457 1745.6 904.323 1727.12 890.637 1718.56L697.888 1598.48C686.188 1591.18 671.666 1601.83 674.905 1615.09ZM913.516 1759.6L782.614 1923.94C776.555 1931.57 782.196 1942.84 792.017 1942.53L1024.57 1935.01C1039.72 1934.49 1048.39 1917.37 1039.61 1904.94L938.067 1760.33C932.216 1751.97 919.889 1751.56 913.516 1759.6ZM1093.41 699.265C1066.88 728.71 1067.4 744.372 1105.53 751.159L1488.84 802.427C1518.82 805.664 1525.51 782.901 1508.27 763.585L1283.76 532.933C1264.02 513.198 1252.52 515.495 1232.78 538.467L1093.41 699.265Z" fill="#0F69AF"/>
</svg>
