<svg viewBox="0 0 8000 8000" fill="none"
  xmlns="http://www.w3.org/2000/svg">
  <path fill-rule="evenodd" clip-rule="evenodd" d="M8000 0H0V8000H8000V0ZM3725.55 3905.6C3735.59 3903.87 3737.22 3901.7 3736.22 3890.99C3735.22 3880.32 3731.55 3861.04 3728.62 3850.44C3725.68 3839.76 3723.52 3837.7 3713.98 3836.26C3704.45 3834.83 3687.54 3834.03 3677.71 3834.36C3667.9 3834.69 3665.17 3836.16 3659.53 3844.5C3653.9 3852.8 3645.4 3868.01 3641.26 3876.78C3637.13 3885.52 3637.36 3887.86 3642.7 3891.99C3648.03 3896.16 3658.47 3902.13 3665.24 3905.37C3672 3908.6 3674.94 3909 3685.94 3908.77C3696.94 3908.54 3715.51 3907.34 3725.55 3905.6ZM3736.59 3666.93C3748.16 3668.94 3752.09 3672.94 3763.23 3694.48C3774.36 3716.03 3792.64 3755.05 3801.4 3777.1C3810.14 3799.14 3809.37 3804.14 3796.74 3809.85C3784.1 3815.52 3759.39 3821.89 3744.59 3825.49C3729.75 3829.09 3725.65 3830.06 3715.45 3830.09C3705.25 3830.13 3689.24 3829.19 3680.21 3828.26C3671.2 3827.32 3669.17 3826.36 3668.07 3823.39C3666.97 3820.45 3666.77 3815.52 3666.87 3810.58C3666.97 3805.65 3667.37 3800.68 3669.37 3778.43C3671.37 3756.18 3674.94 3716.63 3678.07 3694.82C3681.21 3673 3683.91 3668.97 3694.88 3666.93C3705.81 3664.9 3725.02 3664.93 3736.59 3666.93ZM3661.73 3910.44C3668.2 3915.64 3671.6 3920.81 3684.44 3944.29C3697.24 3967.77 3719.48 4009.56 3730.45 4032.67C3741.45 4055.88 3741.32 4060.69 3731.15 4067.96C3720.98 4075.23 3700.41 4084.13 3687.21 4085.33C3674.04 4086.53 3669.64 4083.13 3654.3 4055.58C3638.96 4028.07 3613.09 3977.31 3599.48 3948.93C3585.88 3920.54 3584.58 3914.57 3591.42 3909.27C3598.25 3903.97 3613.22 3899.36 3622.06 3897.03C3630.86 3894.73 3633.53 3894.69 3639.63 3897.33C3645.73 3899.96 3655.27 3905.23 3661.73 3910.44ZM3554.37 3913.04C3569.71 3917.37 3575.28 3922.88 3591.08 3951.26C3606.89 3979.64 3632.93 4030.9 3646.73 4059.65C3660.57 4088.4 3662.4 4094.54 3661.2 4100.01C3660 4105.48 3655.03 4110.21 3648.86 4112.72C3642.66 4115.22 3638.03 4115.58 3612.15 4115.12C3586.28 4114.65 3539.97 4113.42 3514.4 4109.58C3488.82 4105.75 3483.99 4099.31 3481.82 4067.12C3479.65 4034.94 3480.22 3977.01 3481.82 3945.26C3483.42 3913.51 3486.05 3907.94 3499.96 3906.73C3513.86 3905.53 3539.04 3908.7 3554.37 3913.04ZM3712.01 4231.15C3723.95 4246.12 3727.12 4250.93 3734.02 4265.27C3740.92 4279.61 3751.56 4303.39 3754.96 4316.26C3758.39 4329.17 3754.46 4331.3 3726.52 4333.27C3698.58 4335.24 3647.03 4336.27 3620.22 4333.27C3593.42 4330.27 3589.85 4326.27 3598.22 4299.15C3606.62 4272.04 3626.52 4222.71 3638.53 4196.83C3650.5 4170.92 3654.57 4168.51 3666.97 4179.82C3679.37 4191.13 3700.08 4216.21 3712.01 4231.15ZM3821.98 4117.75C3818.31 4130.19 3815.14 4135.5 3801.34 4153.51C3787.53 4171.52 3763.06 4202.23 3748.22 4217.97C3733.45 4233.68 3728.35 4234.38 3715.35 4222.14C3702.34 4209.9 3681.47 4184.62 3669.77 4170.18C3658.07 4155.74 3655.43 4152.4 3653.83 4146.87C3652.23 4141.33 3651.63 4133.63 3651.63 4128.86C3651.63 4124.09 3652.2 4122.19 3655.3 4118.32C3658.4 4114.45 3664.03 4108.58 3668.5 4104.75C3672.97 4100.91 3676.27 4099.18 3688.87 4093.91C3701.44 4088.64 3723.32 4079.9 3736.75 4074.96C3750.19 4070.03 3755.16 4068.93 3768.93 4067.06C3782.7 4065.19 3805.27 4062.55 3817.57 4062.29C3829.88 4062.02 3831.91 4064.12 3830.84 4074.96C3829.78 4085.77 3825.64 4105.31 3821.98 4117.75ZM3819.71 4215.97C3819.28 4231.78 3818.94 4237.42 3817.04 4254.19C3815.14 4270.97 3811.64 4298.85 3809.04 4314.19C3806.44 4329.57 3804.8 4332.5 3799.2 4334.21C3793.6 4335.91 3783.83 4336.01 3777.7 4334.21C3771.6 4332.41 3769.7 4330.1 3763.33 4316.66C3756.96 4303.22 3746.29 4279.01 3741.69 4264.07C3737.09 4249.13 3738.52 4243.46 3751.52 4225.85C3764.53 4208.24 3789.13 4178.69 3802.67 4163.74C3816.21 4148.8 3818.74 4148.44 3819.71 4161.28C3820.71 4174.12 3820.14 4200.13 3819.71 4215.97ZM3879.96 3666.97C3903.63 3668.47 3907.6 3671.1 3907.2 3685.08C3906.8 3699.05 3902.1 3724.4 3898.83 3739.41C3895.6 3754.42 3893.79 3759.09 3885.69 3770.49C3877.59 3781.9 3863.12 3799.91 3854.65 3809.45C3846.18 3818.99 3843.85 3820.45 3840.15 3818.89C3836.41 3817.32 3831.38 3812.82 3827.64 3808.25C3823.94 3803.68 3821.54 3799.04 3810.77 3777.16C3800 3755.25 3780.87 3716.13 3772.6 3694.52C3764.33 3672.9 3766.9 3668.84 3789.9 3666.97C3812.87 3665.1 3856.28 3665.47 3879.96 3666.97ZM3837.01 3827.26C3840.75 3831.39 3842.85 3834.63 3849.82 3848.54C3856.79 3862.44 3868.62 3886.99 3874.72 3900.86C3880.76 3914.77 3881.22 3918.11 3880.32 3923.28C3879.42 3928.45 3876.56 3935.25 3872.29 3938.19C3868.02 3941.12 3864.42 3940.89 3844.62 3935.12C3824.81 3929.38 3789.4 3918.24 3769.66 3911.07C3749.96 3903.9 3745.86 3900.66 3742.26 3890.03C3738.62 3879.39 3735.45 3861.38 3734.92 3850.94C3734.35 3840.53 3736.45 3837.66 3749.79 3832.73C3763.13 3827.76 3787.73 3820.72 3801.74 3817.12C3815.74 3813.52 3819.14 3813.35 3823.54 3815.75C3827.91 3818.15 3833.28 3823.16 3837.01 3827.26ZM3841.31 3942.96C3860.65 3950.49 3863.69 3954.76 3861.52 3971.1C3859.35 3987.41 3852.02 4015.76 3846.58 4031.3C3841.11 4046.85 3837.68 4049.75 3824.11 4053.08C3810.51 4056.42 3786.5 4059.55 3771.66 4058.22C3756.83 4056.89 3752.22 4053.62 3739.15 4031.04C3726.08 4008.42 3704.88 3967.24 3694.08 3944.39C3683.27 3921.58 3682.94 3917.07 3691.34 3914.54C3699.74 3911.97 3716.88 3911.37 3728.22 3911.57C3739.59 3911.77 3745.12 3912.77 3765.73 3918.67C3786.33 3924.61 3821.98 3935.42 3841.31 3942.96ZM4089.95 3827.06C4092.68 3840.5 4092.35 3843.8 4087.81 3847.9C4083.28 3852 4074.54 3856.94 4066.94 3860.34C4059.34 3863.78 4053 3865.78 4025.96 3874.28C3998.92 3882.79 3951.14 3897.43 3923.94 3903.6C3896.73 3909.8 3890.39 3909.04 3881.93 3896.53C3873.46 3884.02 3862.95 3860.14 3857.89 3845.97C3852.82 3831.76 3853.18 3827.26 3860.32 3815.98C3867.45 3804.71 3881.36 3786.7 3891.69 3776.63C3902.03 3766.56 3908.8 3764.46 3935.87 3762.85C3962.95 3761.29 4010.33 3760.22 4037 3760.89C4063.67 3761.55 4069.61 3763.92 4075.51 3776.93C4081.41 3789.94 4087.21 3813.58 4089.95 3827.06ZM4259.96 3735.24C4260.39 3733.27 4261.62 3732.47 4263.39 3732.57C4265.16 3732.67 4341.95 3772.86 4352.38 3783.63C4354.72 3786.63 4353.01 3788.4 4340.84 3797.24C4328.64 3806.05 4305.94 3821.42 4293.07 3827.59C4280.2 3833.76 4277.29 3832.69 4273.63 3816.68C4269.96 3800.71 4259.52 3737.24 4259.96 3735.24ZM4320.11 3664.47C4331.04 3665.77 4333.04 3668.64 4334.01 3684.64C4334.98 3700.65 4334.94 3729.77 4334.04 3745.14C4333.08 3760.49 4331.18 3762.12 4320.64 3757.25C4310.07 3752.38 4290.93 3740.71 4280.4 3733.1C4269.86 3725.5 4267.86 3722.87 4266.49 3712.93C4265.12 3702.95 4264.39 3685.95 4264.99 3676.57C4265.59 3667.2 4267.49 3665.47 4278.4 3664.47C4289.3 3663.47 4309.17 3663.17 4320.11 3664.47ZM4267.96 3818.75C4269.06 3835.43 4266.89 3840.13 4252.66 3851.9C4238.38 3863.64 4212.11 3882.42 4196.81 3891.79C4181.5 3901.13 4177.04 3901.17 4163.73 3893.19C4150.43 3885.19 4129.02 3868.71 4120.35 3857.51C4111.69 3846.3 4113.09 3842.07 4135.66 3824.36C4158.23 3806.65 4201.14 3776 4224.95 3760.55C4248.79 3745.11 4253.49 3744.91 4258.02 3759.15C4262.56 3773.39 4266.86 3802.08 4267.96 3818.75ZM4220.28 3666.93C4250.39 3667.97 4255.99 3669.74 4258.99 3678.44C4262.02 3687.15 4262.42 3702.72 4260.42 3712.89C4258.39 3723.07 4253.92 3728 4229.12 3747.08C4204.28 3766.16 4159.13 3798.97 4133.76 3815.22C4108.38 3831.49 4102.78 3832.83 4097.21 3821.35C4091.65 3809.88 4086.15 3786.03 4082.88 3771.59C4079.61 3757.19 4078.61 3752.15 4075.94 3737.41C4073.27 3722.63 4068.91 3698.15 4069.47 3684.54C4070.04 3670.94 4075.51 3668.2 4105.55 3666.93C4135.59 3665.67 4190.17 3665.93 4220.28 3666.93ZM4484.85 3812.82C4508.86 3821.02 4513.22 3832.26 4515.92 3889.23C4518.62 3946.19 4519.69 4048.85 4515.92 4102.64C4512.19 4156.44 4503.65 4161.44 4459.11 4136.2C4414.6 4110.95 4334.08 4055.25 4288.76 4023.37C4243.45 3991.48 4233.45 3984.24 4222.35 3970.9C4211.24 3957.56 4199.04 3938.39 4193.44 3926.38C4187.87 3914.34 4188.87 3909.5 4202.71 3898.03C4216.55 3886.56 4243.22 3868.48 4259.39 3857.54C4264.05 3854.39 4267.83 3851.84 4271.18 3849.57C4279.46 3843.98 4285.09 3840.17 4294.73 3833.59L4296.51 3832.38C4310.06 3823.14 4330.26 3809.36 4344.08 3802.24C4358.55 3794.77 4366.05 3794.57 4391.62 3797.04C4417.2 3799.51 4460.84 3804.61 4484.85 3812.82ZM4082.44 4158.47L4083.84 4160.14L4085.81 4162.48C4114.96 4197.14 4165.19 4256.85 4189.44 4289.98C4214.21 4323.83 4211.81 4330.04 4173.4 4333.24C4134.99 4336.47 4060.67 4336.14 4019.69 4333.24C3978.72 4330.3 3970.65 4327.1 3965.68 4306.12C3961.16 4287.05 3959.13 4253.83 3957.74 4231.23C3957.6 4228.98 3957.47 4226.83 3957.34 4224.81C3956.46 4211.16 3955.8 4203.45 3955.2 4196.52C3954.82 4192.15 3954.47 4188.09 3954.11 4183.06C3953.14 4170.01 3952.14 4150.34 3952.78 4139.06C3953.41 4127.79 3955.74 4124.89 3967.78 4121.99C3979.82 4119.09 4001.59 4116.18 4014.13 4114.75C4025.07 4113.53 4029 4113.4 4032.08 4113.3C4032.53 4113.28 4032.97 4113.27 4033.4 4113.25C4033.6 4113.24 4033.8 4113.23 4034.01 4113.22C4037.22 4113.08 4040.54 4112.94 4044.83 4115.95C4049.33 4119.1 4054.85 4125.67 4082.44 4158.47ZM4458.54 4145.97C4503.05 4178.02 4511.59 4188.12 4515.92 4213.84C4520.26 4239.59 4520.33 4280.81 4515.92 4303.42C4511.56 4326 4502.95 4330.17 4459.84 4333.27C4416.76 4336.37 4338.51 4337.41 4291.67 4333.27C4244.82 4329.14 4231.82 4323.53 4199.97 4289.38C4168.1 4255.23 4118.05 4193.59 4092.95 4157.77C4067.84 4121.92 4067.64 4111.92 4091.61 4089.9C4115.59 4067.89 4163.77 4033.91 4194.67 4017.93C4225.58 4001.92 4239.29 4003.96 4286.4 4031.94C4333.48 4059.92 4414 4113.92 4458.54 4145.97ZM3923.7 4109.75C3939.41 4121.39 3942.37 4125.52 3944.21 4137.46C3946.07 4149.44 3946.81 4169.18 3945.51 4180.52C3944.21 4191.86 3940.87 4194.9 3922.2 4201.67C3903.53 4208.44 3869.62 4218.51 3850.98 4222.01C3832.35 4225.51 3828.64 4224.15 3827.24 4209.9C3825.84 4195.66 3826.61 4169.08 3827.24 4153.24C3827.88 4137.4 3828.31 4132.29 3830.48 4118.72C3832.65 4105.11 3836.51 4083.07 3840.21 4071.83C3843.92 4060.62 3847.48 4060.22 3863.52 4069.59C3879.52 4078.96 3908 4098.11 3923.7 4109.75ZM4159.66 3900.86C4171.9 3911.74 4175.44 3916.14 4184.47 3928.18C4193.51 3940.22 4208.04 3959.9 4213.44 3972.8C4218.85 3985.68 4215.15 3991.78 4188.5 4011.83C4161.86 4031.87 4112.29 4065.79 4084.74 4084.3C4057.17 4102.81 4051.5 4106.15 4047 4107.71C4042.5 4109.28 4039.17 4109.15 4037.6 4105.51C4036.03 4101.88 4036.23 4094.77 4040.7 4058.02C4045.2 4021.27 4053.97 3954.83 4059.4 3917.77C4064.87 3880.72 4066.97 3873.05 4072.34 3867.05C4077.71 3861.04 4086.34 3856.74 4092.41 3855.07C4098.48 3853.37 4102.02 3854.37 4114.25 3863.51C4126.46 3872.68 4147.43 3889.99 4159.66 3900.86ZM4032.1 4058.32C4025.8 4094.81 4022.63 4102.01 4010.56 4106.71C3998.49 4111.45 3977.52 4113.65 3964.38 4113.95C3951.24 4114.22 3945.91 4112.72 3929.3 4103.21C3912.73 4093.71 3885.06 4075.86 3870.26 4063.82C3855.45 4051.78 3852.88 4047.05 3855.58 4030.5C3858.29 4013.96 3866.05 3986.01 3870.62 3969.94C3875.19 3953.89 3876.56 3949.69 3878.62 3944.22C3880.69 3938.75 3883.43 3932.02 3887.59 3927.61C3891.76 3923.21 3897.3 3921.18 3923.8 3912.54C3950.28 3903.9 3997.69 3888.69 4023.43 3883.89C4049.14 3879.09 4053.2 3884.66 4050.5 3920.34C4047.8 3956.03 4038.4 4021.83 4032.1 4058.32ZM3957.24 4307.32C3957.34 4327.84 3953.58 4331.54 3930.74 4333.27C3907.86 4335.01 3865.99 4334.77 3843.28 4333.27C3820.58 4331.77 3816.97 4328.97 3816.67 4314.16C3816.37 4299.35 3819.91 4272.37 3824.31 4256.86C3828.71 4241.35 3831.91 4237.79 3850.82 4230.92C3869.72 4224.04 3903.76 4214.01 3922.67 4210.37C3941.57 4206.74 3945.37 4209.47 3949.28 4229.48C3953.14 4249.49 3957.14 4286.81 3957.24 4307.32Z" fill="black"/>
</svg>
