<svg width="3284" height="2340" viewBox="0 0 3284 2340" fill="none" xmlns="http://www.w3.org/2000/svg">
<path fill-rule="evenodd" clip-rule="evenodd" d="M2778.18 371.016C2778.18 371.016 2770.88 411.316 2811.18 418.616L3153.18 480.716C3153.18 480.716 3193.48 488.016 3200.78 447.716L3262.08 110.216C3262.08 110.216 3269.38 69.9163 3229.08 62.6163L2887.08 0.516278C2887.08 0.516278 2846.78 -6.78372 2839.48 33.5163L2778.18 371.016ZM1371.88 260.717C1371.88 260.717 1406.78 258.417 1404.48 223.617L1392.18 33.7167C1392.18 33.7167 1389.88 -1.1833 1355.08 1.1167L1096.18 17.9167C1096.18 17.9167 1061.28 20.2167 1063.58 55.0167L1075.88 244.917C1075.88 244.917 1078.18 279.817 1112.98 277.517L1371.88 260.717ZM2460.58 645.414C2431.68 689.214 2387.98 660.314 2387.98 660.314L1908.18 343.814C1864.38 314.914 1893.28 271.214 1893.28 271.214L2038.08 51.7143C2066.98 7.91426 2110.68 36.8143 2110.68 36.8143L2590.48 353.314C2634.28 382.214 2605.38 425.914 2605.38 425.914L2460.58 645.414ZM2619.98 662.317C2619.98 662.317 2616.08 697.017 2650.78 700.917L2718.38 708.517C2718.38 708.517 2753.08 712.417 2756.98 677.717L2777.68 493.917C2777.68 493.917 2781.58 459.217 2746.88 455.317L2679.28 447.717C2679.28 447.717 2644.58 443.817 2640.68 478.517L2619.98 662.317ZM3252.58 751.914C3248.08 786.514 3213.48 782.014 3213.48 782.014L3109.58 768.514C3074.98 764.014 3079.48 729.414 3079.48 729.414L3104.08 540.714C3108.58 506.114 3143.18 510.614 3143.18 510.614L3247.08 524.114C3281.68 528.614 3277.18 563.214 3277.18 563.214L3252.58 751.914ZM2700.08 1038.32C2653.78 1013.82 2678.28 967.516 2678.28 967.516L2808.38 721.816C2832.88 675.516 2879.18 700.016 2879.18 700.016L3169.78 854.016C3216.08 878.516 3191.58 924.816 3191.58 924.816L3061.48 1170.42C3036.98 1216.72 2990.68 1192.22 2990.68 1192.22L2700.08 1038.32ZM2191.48 878.315C2191.48 878.315 2185.58 930.415 2237.68 936.215L2564.48 972.915C2564.48 972.915 2616.58 978.815 2622.38 926.715L2636.68 799.715C2636.68 799.715 2642.58 747.615 2590.48 741.815L2263.68 705.115C2263.68 705.115 2211.58 699.215 2205.78 751.315L2191.48 878.315ZM2247.88 1644.62C2198.98 1625.82 2217.68 1576.92 2217.68 1576.92L2422.88 1040.02C2441.68 991.117 2490.58 1009.82 2490.58 1009.82L2736.18 1103.72C2785.08 1122.52 2766.38 1171.42 2766.38 1171.42L2561.18 1708.32C2542.38 1757.22 2493.48 1738.52 2493.48 1738.52L2247.88 1644.62ZM1672.38 1352.41C1623.58 1333.31 1642.68 1284.51 1642.68 1284.51L1802.68 875.714C1821.78 826.914 1870.58 846.014 1870.58 846.014L2284.68 1008.21C2333.48 1027.31 2314.38 1076.11 2314.38 1076.11L2154.48 1484.81C2135.38 1533.61 2086.58 1514.51 2086.58 1514.51L1672.38 1352.41ZM2973.48 1576.62C2973.48 1576.62 3001.98 1596.82 3022.18 1568.42L3132.48 1413.32C3132.48 1413.32 3152.68 1384.82 3124.28 1364.62L2912.88 1214.32C2912.88 1214.32 2884.38 1194.12 2864.18 1222.52L2753.88 1377.62C2753.88 1377.62 2733.68 1406.12 2762.08 1426.32L2973.48 1576.62ZM152.978 702.817C152.978 702.817 113.678 777.017 187.878 816.317L817.778 1150.02C817.778 1150.02 891.978 1189.32 931.278 1115.12L1260.58 493.517C1260.58 493.517 1299.88 419.317 1225.68 380.017L595.778 46.317C595.778 46.317 521.578 7.01695 482.278 81.2169L152.978 702.817ZM1079.58 1245.02C1020.38 1224.12 1041.28 1164.82 1041.28 1164.82L1152.18 850.516C1173.08 791.316 1232.38 812.216 1232.38 812.216L1604.28 943.516C1663.48 964.417 1642.58 1023.72 1642.58 1023.72L1531.68 1338.02C1510.78 1397.22 1451.48 1376.32 1451.48 1376.32L1079.58 1245.02ZM730.277 1581.92C730.277 1581.92 723.677 1640.72 782.478 1647.32L896.978 1660.22C896.978 1660.22 955.778 1666.82 962.378 1608.02L997.378 1296.72C997.378 1296.72 1003.98 1237.92 945.177 1231.32L830.677 1218.42C830.677 1218.42 771.878 1211.82 765.277 1270.62L730.277 1581.92ZM1049.28 1419.32C1056.28 1367.42 1108.18 1374.42 1108.18 1374.42L1677.78 1451.32C1729.68 1458.32 1722.68 1510.22 1722.68 1510.22L1687.48 1770.82C1680.48 1822.72 1628.58 1815.72 1628.58 1815.72L1058.98 1738.82C1007.08 1731.82 1014.08 1679.92 1014.08 1679.92L1049.28 1419.32ZM959.678 2331.42C959.678 2331.42 1035.88 2352.92 1057.38 2276.72L1165.28 1894.22C1165.28 1894.22 1186.78 1818.02 1110.58 1796.52L274.378 1560.72C274.378 1560.72 198.178 1539.22 176.678 1615.42L68.6777 1997.82C68.6777 1997.82 47.1777 2074.02 123.378 2095.52L959.678 2331.42ZM683.178 1469.02C679.578 1517.62 630.978 1514.02 630.978 1514.02L97.8778 1474.12C49.2778 1470.52 52.8778 1421.92 52.8778 1421.92L71.0778 1178.02C74.6778 1129.42 123.278 1133.02 123.278 1133.02L656.378 1172.92C704.978 1176.52 701.378 1225.12 701.378 1225.12L683.178 1469.02ZM1700.78 1894.72C1700.78 1894.72 1676.58 1952.72 1734.58 1976.92L2098.48 2129.02C2098.48 2129.02 2156.48 2153.22 2180.68 2095.22L2309.18 1787.72C2309.18 1787.72 2333.38 1729.72 2275.38 1705.52L1911.48 1553.42C1911.48 1553.42 1853.48 1529.22 1829.28 1587.22L1700.78 1894.72ZM1222.98 2067.82C1188.28 2063.92 1192.18 2029.22 1192.18 2029.22L1212.88 1845.42C1216.78 1810.72 1251.48 1814.62 1251.48 1814.62L1319.08 1822.22C1353.78 1826.12 1349.88 1860.82 1349.88 1860.82L1329.18 2044.62C1325.28 2079.32 1290.58 2075.42 1290.58 2075.42L1222.98 2067.82ZM1394.08 1990.42C1394.08 1990.42 1385.68 2014.22 1409.48 2022.72L1559.08 2075.52C1559.08 2075.52 1582.88 2083.92 1591.38 2060.12L1635.98 1933.72C1635.98 1933.72 1644.38 1909.92 1620.58 1901.42L1470.98 1848.62C1470.98 1848.62 1447.18 1840.22 1438.68 1864.02L1394.08 1990.42ZM1228.08 2339.12C1175.68 2339.02 1175.78 2286.62 1175.78 2286.62L1176.08 2158.82C1176.18 2106.42 1228.58 2106.52 1228.58 2106.52L1557.38 2107.02C1609.78 2107.12 1609.68 2159.52 1609.68 2159.52L1609.48 2287.32C1609.38 2339.72 1556.98 2339.62 1556.98 2339.62L1228.08 2339.12ZM2079.38 817.416C2079.38 817.416 2113.98 821.916 2118.48 787.316L2143.08 598.616C2143.08 598.616 2147.58 564.016 2112.98 559.516L2009.08 546.016C2009.08 546.016 1974.48 541.516 1969.98 576.116L1945.38 764.816C1945.38 764.816 1940.88 799.416 1975.48 803.916L2079.38 817.416ZM1540.88 815.314C1488.48 818.014 1485.78 765.714 1485.78 765.714L1455.78 191.714C1453.08 139.314 1505.38 136.614 1505.38 136.614L1767.98 122.914C1820.38 120.214 1823.08 172.514 1823.08 172.514L1853.08 746.514C1855.78 798.914 1803.48 801.614 1803.48 801.614L1540.88 815.314ZM1271.18 753.817C1271.18 753.817 1267.28 788.517 1301.98 792.417L1369.58 800.017C1369.58 800.017 1404.28 803.917 1408.18 769.217L1428.88 585.417C1428.88 585.417 1432.78 550.717 1398.08 546.817L1330.48 539.217C1330.48 539.217 1295.78 535.317 1291.88 570.017L1271.18 753.817ZM277.578 379.413C271.378 427.713 223.077 421.413 223.077 421.413L78.2775 402.513C29.9775 396.313 36.2775 348.013 36.2775 348.013L70.4775 85.1134C76.6775 36.8134 124.977 43.1134 124.977 43.1134L269.777 62.0134C318.077 68.2134 311.777 116.513 311.777 116.513L277.578 379.413ZM25.8776 893.414C38.2776 852.714 78.8776 865.114 78.8776 865.114L294.078 930.614C334.778 943.014 322.378 983.614 322.378 983.614L298.278 1062.71C285.878 1103.41 245.278 1091.01 245.278 1091.01L30.0776 1025.51C-10.6224 1013.11 1.77763 972.514 1.77763 972.514L25.8776 893.414ZM1670.18 2266.91C1670.18 2266.91 1666.28 2301.61 1700.98 2305.51L1768.58 2313.11C1768.58 2313.11 1803.28 2317.01 1807.18 2282.31L1827.88 2098.51C1827.88 2098.51 1831.78 2063.81 1797.08 2059.91L1729.48 2052.31C1729.48 2052.31 1694.78 2048.42 1690.88 2083.11L1670.18 2266.91ZM1882.28 2151.42C1892.88 2118.12 1926.18 2128.82 1926.18 2128.82L2102.28 2185.42C2135.58 2196.02 2124.88 2229.32 2124.88 2229.32L2104.08 2294.12C2093.48 2327.42 2060.18 2316.72 2060.18 2316.72L1884.08 2260.12C1850.78 2249.52 1861.48 2216.22 1861.48 2216.22L1882.28 2151.42ZM2618.38 2066.71C2618.38 2066.71 2609.98 2139.11 2682.48 2147.51L3137.18 2200.01C3137.18 2200.01 3209.58 2208.41 3217.98 2135.91L3262.38 1751.71C3262.38 1751.71 3270.78 1679.31 3198.28 1670.91L2743.58 1618.41C2743.58 1618.41 2671.18 1610.01 2662.78 1682.51L2618.38 2066.71ZM2481.58 2250.32C2467.58 2300.82 2417.08 2286.82 2417.08 2286.82L2293.88 2252.72C2243.38 2238.72 2257.38 2188.22 2257.38 2188.22L2345.08 1871.32C2359.08 1820.82 2409.58 1834.82 2409.58 1834.82L2532.78 1868.92C2583.28 1882.92 2569.28 1933.42 2569.28 1933.42L2481.58 2250.32ZM2864.88 655.017C2847.28 651.917 2850.48 634.317 2850.48 634.317L2877.28 487.417C2880.38 469.817 2897.98 473.017 2897.98 473.017L3046.88 500.017C3064.48 503.117 3061.28 520.717 3061.28 520.717L3034.58 667.717C3031.48 685.317 3013.88 682.117 3013.88 682.117L2864.88 655.017ZM3125.18 1287.42C3125.18 1287.42 3121.28 1322.12 3155.98 1326.02L3223.58 1333.62C3223.58 1333.62 3258.28 1337.52 3262.18 1302.82L3282.98 1119.02C3282.98 1119.02 3286.88 1084.32 3252.18 1080.42L3184.58 1072.82C3184.58 1072.82 3149.88 1068.92 3145.98 1103.62L3125.18 1287.42ZM2531.28 252.714C2509.78 248.714 2513.68 227.214 2513.68 227.214L2546.58 46.8139C2550.48 25.3139 2571.98 29.2139 2571.98 29.2139L2754.68 62.4139C2776.18 66.4139 2772.28 87.9139 2772.28 87.9139L2739.48 268.314C2735.58 289.814 2714.08 285.914 2714.08 285.914L2531.28 252.714Z" fill="#0F69AF"/>
</svg>
