<svg viewBox="0 0 8000 8000" fill="none"
  xmlns="http://www.w3.org/2000/svg">
  <path fill-rule="evenodd" clip-rule="evenodd" d="M8000 0H0v8000h8000V0ZM4467.7 3699.4c-16.1-2.9-13.2-19-13.2-19l24.5-135c3-16.1 19-13.2 19-13.2l136.8 24.9c16.1 2.9 13.2 19 13.2 19l-24.5 135c-3 16.1-19 13.2-19 13.2l-136.8-24.9Zm-562.7-78c1 14-13 14.9-13 14.9l-103.6 6.7c-14 1-14.8-13-14.8-13l-5-76c-.9-14 13-14.8 13-14.8l103.6-6.8c14-.9 14.9 13 14.9 13l4.9 76Zm393.4 174.7s17.5 11.6 29-6l58-87.7s11.5-17.5-6-29l-192-126.7s-17.4-11.5-29 6l-57.9 87.8s-11.6 17.5 6 29l191.9 126.6Zm105.1 16.3c-13.9-1.6-12.3-15.5-12.3-15.5l8.3-73.5c1.5-13.9 15.4-12.3 15.4-12.3l27 3c14 1.6 12.4 15.5 12.4 15.5l-8.3 73.5c-1.6 13.9-15.4 12.3-15.4 12.3l-27-3Zm225 32.4s14 1.8 15.7-12l9.9-75.5s1.8-13.9-12-15.7l-41.6-5.3s-13.9-1.9-15.7 12l-9.8 75.5s-1.8 13.8 12 15.6l41.6 5.4Zm-214 74.2s-9.8 18.5 8.7 28.3l116.3 61.6s18.5 9.8 28.3-8.7l52-98.3s9.8-18.5-8.7-28.3L4495 3812s-18.5-9.8-28.3 8.7l-52 98.3Zm-176.2-12.5c-20.9-2.3-18.5-23.2-18.5-23.2l5.7-50.8c2.3-20.8 23.2-18.4 23.2-18.4l130.7 14.6c20.8 2.4 18.5 23.2 18.5 23.2l-5.8 50.8c-2.3 20.8-23.1 18.5-23.1 18.5l-130.7-14.7Zm-8 256.3s-7.5 19.5 12 27l98.3 37.6s19.5 7.5 27-12l82.1-214.8s7.5-19.6-12-27.1l-98.3-37.6s-19.5-7.5-27 12.1l-82.1 214.8Zm-230-117s-7.7 19.5 11.8 27.2l165.7 64.8s19.6 7.6 27.2-11.9l64-163.4s7.6-19.6-12-27.2l-165.6-64.9s-19.5-7.6-27.1 11.9l-64 163.5Zm551.8 113.6c-8.1 11.3-19.5 3.3-19.5 3.3l-84.6-60.2c-11.3-8-3.3-19.4-3.3-19.4l44.2-62c8-11.4 19.5-3.4 19.5-3.4l84.5 60.2c11.4 8 3.3 19.4 3.3 19.4l-44.1 62Zm-1133.8-300.9c-29.6-15.7-14-45.4-14-45.4l131.8-248.6c15.7-29.7 45.4-14 45.4-14l252 133.5c29.7 15.7 14 45.4 14 45.4l-131.8 248.7c-15.7 29.6-45.4 14-45.4 14l-252-133.6Zm341.4 139.4s-8.3 23.8 15.3 32.1l148.8 52.5s23.7 8.4 32-15.3l44.4-125.7s8.4-23.7-15.3-32l-148.8-52.6s-23.7-8.4-32 15.3l-44.4 125.7Zm-103.5 193c-23.5-2.6-20.9-26.1-20.9-26.1l14-124.6c2.6-23.5 26.2-20.8 26.2-20.8l45.8 5.1c23.5 2.7 20.8 26.2 20.8 26.2l-14 124.5c-2.6 23.5-26.1 20.9-26.1 20.9l-45.8-5.2Zm130.3-109.1s-20.8-2.8-23.6 18l-14 104.2s-2.9 20.7 17.9 23.5l227.8 30.8s20.8 2.8 23.6-18l14-104.2s2.9-20.8-17.9-23.6l-227.8-30.7Zm-20.3 360.9c-8.6 30.5-39.1 21.9-39.1 21.9l-334.5-94.4c-30.5-8.6-22-39-22-39l43.3-153c8.6-30.5 39-22 39-22l334.5 94.4c30.5 8.6 22 39 22 39l-43.3 153Zm-170.6-305s19.4 1.4 20.9-18l7.3-97.6s1.4-19.5-18-21l-213.3-15.9s-19.4-1.4-20.9 18l-7.3 97.6s-1.4 19.4 18 20.8l213.3 16Zm441.4 185c-23.2-9.6-13.5-32.8-13.5-32.8l51.4-123c9.7-23.2 32.9-13.5 32.9-13.5l145.6 60.8c23.2 9.7 13.5 32.9 13.5 32.9l-51.4 123c-9.7 23.2-33 13.5-33 13.5l-145.5-60.8Zm-217 21s-1.5 13.9 12.4 15.4l27 3s14 1.6 15.5-12.3l8.3-73.5s1.5-13.9-12.4-15.4l-27-3s-13.9-1.6-15.5 12.3l-8.2 73.5Zm87-2.6c-9.5-3.4-6.2-13-6.2-13l17.9-50.5c3.4-9.5 12.9-6.2 12.9-6.2l59.8 21.2c9.5 3.4 6.2 12.9 6.2 12.9l-17.8 50.6c-3.5 9.5-13 6.1-13 6.1l-59.8-21.1Zm-93.5 105.5s0 21 21 21l131.5.3s21 0 21-21v-51s.1-21-20.8-21l-131.6-.3s-21 0-21 21v51Zm377-599.7c-1.7 13.9-15.6 12-15.6 12l-41.5-5.3c-13.8-1.8-12-15.7-12-15.7l9.8-75.5c1.8-13.8 15.6-12 15.6-12l41.6 5.4c13.8 1.8 12 15.6 12 15.6l-9.8 75.5Zm-253-8.6s1 21 22 19.8l105-5.4s21-1.1 20-22l-12-229.7s-1.2-21-22.1-19.8l-105 5.5s-21 1-19.9 22l12 229.6ZM3864 3849c-13.9-1.6-12.3-15.5-12.3-15.5l8.3-73.5c1.5-13.9 15.4-12.3 15.4-12.3l27 3c14 1.6 12.3 15.5 12.3 15.5l-8.2 73.5c-1.6 13.9-15.5 12.3-15.5 12.3l-27-3Zm-431.6-148.4s19.3 2.5 21.8-16.8l13.7-105.2s2.5-19.3-16.8-21.8l-58-7.6s-19.2-2.5-21.7 16.9l-13.7 105.1s-2.5 19.3 16.8 21.8l58 7.6Zm-57.7 177.5s-16.2-5-21.1 11.3l-9.7 31.6s-5 16.3 11.3 21.2l86.1 26.2s16.3 5 21.2-11.3l9.7-31.7s5-16.2-11.4-21.2l-86-26.1Zm648.9 576.1c-13.9-1.6-12.3-15.4-12.3-15.4l8.3-73.6c1.5-13.8 15.4-12.3 15.4-12.3l27 3c14 1.6 12.3 15.5 12.3 15.5l-8.2 73.5c-1.6 14-15.5 12.4-15.5 12.4l-27-3Zm90-70.7s-13.3-4.3-17.5 9l-8.3 26s-4.3 13.3 9 17.6l70.5 22.6s13.3 4.3 17.5-9l8.3-26s4.3-13.3-9-17.5l-70.4-22.7Zm302.6 7.5c-29-3.4-25.6-32.3-25.6-32.3l17.7-153.7c3.4-29 32.3-25.6 32.3-25.6l182 21c29 3.3 25.5 32.3 25.5 32.3l-17.7 153.7c-3.4 29-32.3 25.6-32.3 25.6l-182-21Zm-106.2 55.7s20.2 5.6 25.8-14.6l35.1-126.7s5.6-20.2-14.6-25.8l-49.3-13.7s-20.2-5.6-25.8 14.6l-35 126.8s-5.6 20.2 14.6 25.8l49.2 13.6Zm173.4-661s-1.3 7 5.8 8.3l59.6 10.8s7 1.3 8.2-5.7l10.7-58.8s1.3-7-5.8-8.3l-59.5-10.8s-7-1.3-8.3 5.8l-10.7 58.7Zm122.2 276.7c-13.9-1.6-12.3-15.4-12.3-15.4l8.3-73.6c1.5-13.8 15.4-12.3 15.4-12.3l27 3c14 1.6 12.4 15.5 12.4 15.5l-8.3 73.5c-1.6 14-15.5 12.3-15.5 12.3l-27-3Zm-257-439.5s-1.5 8.6 7.1 10.2l73.1 13.3s8.6 1.5 10.2-7l13.1-72.2s1.6-8.6-7-10.2l-73.1-13.3s-8.6-1.6-10.2 7l-13.1 72.2Z" fill="currentColor"/>
</svg>
