<svg width="4690" height="3568" viewBox="0 0 4690 3568" fill="none" xmlns="http://www.w3.org/2000/svg">
<path d="M4655.99 2173.25C4674.7 2168.77 4690 2149.29 4690 2129.96V1757.93C4690 1738.6 4674.23 1722.83 4654.91 1722.83H4431.4C4412.07 1722.83 4396.31 1738.6 4396.31 1757.93V1859.37C4396.31 1878.69 4380.54 1893.54 4361.37 1892.3L4301.55 1888.74C4282.38 1887.66 4262.91 1871.27 4258.43 1852.56L4223.18 1705.51C4218.7 1686.8 4199.22 1671.34 4179.9 1671.34H3963.34C3944.02 1671.34 3926.86 1687.11 3925.16 1706.29L3900.27 1987.7C3898.57 2006.88 3912.95 2022.49 3932.27 2022.34L4173.87 2020.64C4193.19 2020.48 4216.69 2006.72 4226.12 1989.87L4256.26 1936.68C4265.69 1919.82 4289.34 1907.3 4308.51 1908.54L4363.54 1912.4C4382.7 1913.79 4398.47 1930.65 4398.47 1949.82V2054.19C4398.47 2073.52 4385.49 2098.11 4369.57 2109.08L4238.79 2198.61C4222.87 2209.44 4209.89 2202.63 4209.89 2183.3V2079.4C4209.89 2060.07 4194.12 2044.3 4174.8 2044.3H3918.98C3899.66 2044.3 3876.16 2058.06 3866.58 2074.76L3754.51 2271.13C3744.93 2287.83 3723.9 2293.09 3707.67 2282.57L3663 2253.81C3646.77 2243.45 3631.16 2219.18 3628.38 2200.16L3597.62 1991.88C3594.83 1972.86 3576.75 1957.24 3557.43 1957.24H3288C3268.68 1957.24 3244.1 1944.25 3233.13 1928.33L3187.53 1861.84C3176.71 1845.91 3181.96 1825.97 3199.27 1817.62L3304.85 1766.28C3322.16 1757.93 3337.62 1735.2 3339.32 1716.03L3364.21 1413.43C3365.75 1394.25 3356.79 1378.48 3344.27 1378.48C3331.75 1378.48 3324.48 1363.02 3328.04 1344L3359.57 1175.61C3363.12 1156.59 3381.67 1142.83 3400.84 1145L3538.1 1160C3557.27 1162.01 3572.88 1147.94 3572.88 1128.76V935.79C3572.88 916.462 3557.12 900.69 3537.79 900.69H3393.27C3373.95 900.69 3351.22 914.916 3342.72 932.079L3311.81 994.857C3303.3 1012.18 3283.21 1035.21 3267.44 1046.04L3179.8 1106.03C3163.88 1116.86 3145.79 1110.83 3139.61 1092.58L3089.06 942.439C3082.88 924.193 3062.17 909.195 3042.84 909.195H2729.83C2710.51 909.195 2694.74 924.967 2694.74 944.295V1237.31C2694.74 1256.64 2685.31 1278.75 2673.87 1286.63C2662.43 1294.52 2638.94 1293.9 2621.63 1285.4L2572.63 1261.28C2555.31 1252.77 2532.28 1232.67 2521.46 1216.9L2461.49 1129.23C2450.67 1113.3 2456.7 1095.21 2474.93 1089.02L2625.03 1038.46C2643.27 1032.28 2658.26 1011.56 2658.26 992.228V678.804C2658.26 659.475 2642.49 643.704 2623.17 643.704H2320.82C2301.5 643.704 2285.73 659.475 2285.73 678.804V868.992C2285.73 888.32 2294.7 917.081 2305.52 933.007L2499.98 1216.74C2510.95 1232.67 2506.62 1254.32 2490.55 1264.99L2467.05 1280.6C2450.98 1291.27 2422.38 1296.99 2403.37 1293.44L2223.75 1259.73C2204.74 1256.17 2189.28 1237.46 2189.28 1218.14V904.092C2189.28 884.764 2173.82 872.085 2154.96 875.95L1851.22 936.718C1832.37 940.429 1809.64 957.592 1800.83 974.756L1756.31 1061.19C1747.5 1078.35 1727.25 1101.39 1711.49 1112.37L1639.46 1162.16C1623.53 1173.14 1601.43 1169.27 1590.15 1153.66L1536.66 1079.44C1525.38 1063.82 1524.76 1037.69 1535.12 1021.45L1616.58 894.815C1626.93 878.579 1651.36 865.281 1670.52 865.281H1816.75C1836.08 865.281 1851.84 849.51 1851.84 830.181V628.087C1851.84 608.758 1836.54 589.276 1817.84 584.637L1755.7 569.484C1736.99 564.845 1717.36 545.981 1712.26 527.426L1684.59 428.466C1679.34 409.911 1689.23 387.49 1706.39 378.831L1826.49 317.6C1843.65 308.786 1859.57 286.056 1861.89 266.883L1889.56 34.9452C1891.88 15.7717 1877.96 0.154625 1858.64 0.154625L1490.75 0C1471.43 0 1458.76 15.4625 1462.31 34.4814L1516.1 312.497C1519.81 331.361 1537.59 352.081 1555.83 358.421L1618.74 380.377C1636.98 386.717 1656.15 407.128 1661.4 425.683L1689.69 525.725C1694.95 544.28 1688.15 570.721 1674.7 584.482L1634.51 625.613C1621.06 639.374 1594.47 647.724 1575.62 644.168L1432.17 617.263C1413.16 613.706 1400.17 595.151 1403.11 576.133L1459.37 218.949C1462.31 199.93 1449.02 183.849 1429.85 183.385L1018.68 172.871C999.359 172.407 984.983 187.715 986.683 206.888L991.475 263.79C993.176 282.964 980.655 306.467 963.806 315.899L797.792 408.674C780.944 418.106 767.032 410.065 766.877 390.737L766.104 307.085C765.95 287.757 750.029 271.985 730.707 271.985H427.121C407.799 271.985 396.515 287.139 401.925 305.694L506.727 661.331C512.137 679.886 532.077 697.977 551.09 701.843L634.406 718.388C653.264 722.099 660.684 738.798 650.946 755.343L577.213 879.816C567.321 896.361 543.67 908.112 524.503 905.793L272.391 875.177C253.223 872.858 242.558 885.846 248.741 904.247L376.111 1282.92C382.294 1301.17 403.007 1316.17 422.329 1316.17H621.422C640.744 1316.17 666.558 1328.38 678.769 1343.23L780.325 1466.62C792.537 1481.46 792.228 1505.58 779.552 1520.12L729.47 1577.79C716.795 1592.33 690.981 1600.99 672.123 1597.12L555.573 1572.85C536.715 1568.98 513.065 1552.13 503.172 1535.58L389.559 1346.47C379.666 1329.93 355.707 1316.48 336.385 1316.48H125.08C105.759 1316.48 87.3641 1332.09 84.118 1351.11L0.492724 1842.2C-2.75336 1861.22 10.3855 1876.84 29.7075 1876.84H408.263C427.584 1876.84 447.988 1861.68 453.553 1843.28L521.875 1618.92C527.44 1600.52 547.535 1588.62 566.393 1592.64L664.239 1613.2C683.097 1617.22 701.028 1635.93 704.12 1655.11L733.798 1837.1C736.89 1856.12 755.13 1871.74 774.452 1871.74H920.525C939.847 1871.74 958.087 1856.12 961.333 1837.1L1005.08 1570.84C1008.17 1551.82 1024.71 1528.78 1041.71 1519.81L1105.86 1485.79C1122.86 1476.82 1150.22 1477.91 1166.45 1488.27L1283.47 1562.64C1299.7 1573 1304.34 1594.65 1293.67 1610.57L1045.73 1982.91C1035.07 1998.99 1032.9 2026.36 1041.09 2043.99L1079.74 2127.64C1087.78 2145.11 1110.19 2159.49 1129.51 2159.49H1293.36C1312.68 2159.49 1337.26 2172.48 1348.24 2188.41L1442.06 2325.56C1452.88 2341.49 1452.11 2366.84 1440.21 2382L1394.61 2439.83C1382.71 2454.98 1361.84 2456.22 1348.24 2442.61L1102.92 2196.6C1089.32 2183 1071.39 2157.48 1063.2 2140.01L963.497 1927.71C955.305 1910.24 932.891 1896.01 913.569 1896.01H779.707C760.385 1896.01 742.918 1911.63 740.909 1930.8L703.347 2274.69C701.183 2293.86 715.249 2309.48 734.571 2309.48H968.598C987.92 2309.48 1011.26 2295.72 1020.54 2278.71L1053.46 2218.71C1062.73 2201.86 1081.44 2199.08 1095.2 2212.84L1340.82 2459C1354.42 2472.61 1369.26 2499.2 1373.74 2517.91L1394.76 2605.43C1399.24 2624.14 1418.72 2639.45 1438.04 2639.45H1810.11C1829.43 2639.45 1845.19 2623.68 1845.19 2604.35V2380.76C1845.19 2361.43 1829.43 2345.66 1810.11 2345.66H1708.7C1689.38 2345.66 1674.54 2329.89 1675.78 2310.72L1679.34 2250.88C1680.42 2231.55 1696.49 2211.14 1714.89 2205.42L1863.13 2159.18C1881.52 2153.46 1896.67 2132.9 1896.67 2113.72V1927.09C1896.67 1907.76 1910.12 1883.8 1926.66 1873.9L1990.65 1835.24C2007.19 1825.19 2028.52 1830.76 2037.95 1847.61L2156.2 2055.27C2165.78 2071.97 2189.13 2088.06 2208.29 2090.68L2360.7 2112.64C2379.72 2115.42 2399.04 2102.28 2403.52 2083.57L2435.21 1949.82C2439.69 1931.11 2458.4 1911.47 2476.94 1906.22L2576.95 1877.92C2595.5 1872.66 2621.94 1879.47 2635.69 1892.92L2676.81 1933.12C2690.57 1946.57 2698.91 1973.17 2695.36 1992.03L2668.46 2135.53C2664.91 2154.54 2646.36 2167.84 2627.35 2165.21L2208.6 2107.54C2189.43 2104.91 2175.52 2118.52 2177.53 2137.69L2219.89 2549.46C2221.9 2568.63 2239.21 2583.01 2258.37 2581.31L2315.26 2576.52C2334.43 2574.81 2357.92 2587.34 2367.35 2604.19L2460.1 2770.26C2469.52 2787.11 2461.49 2801.03 2442.17 2801.19L2358.54 2801.96C2339.22 2802.11 2323.45 2818.04 2323.45 2837.37V3140.9C2323.45 3160.23 2338.6 3171.51 2357.15 3166.1L2712.67 3061.27C2731.22 3055.85 2749.31 3035.91 2753.17 3016.89L2769.71 2933.54C2773.42 2914.68 2790.11 2907.26 2806.65 2917L2931.09 2990.76C2947.63 3000.65 2959.37 3024.31 2957.06 3043.48L2926.6 3295.68C2924.29 3314.85 2937.27 3325.52 2955.66 3319.33L3334.22 3191.92C3352.46 3185.74 3367.45 3165.02 3367.45 3145.69V2946.53C3367.45 2927.21 3379.66 2901.38 3394.5 2889.17L3517.85 2787.58C3532.69 2775.36 3556.81 2775.67 3571.34 2788.35L3628.99 2838.45C3643.52 2851.13 3652.18 2876.95 3648.32 2895.82L3624.05 3012.4C3620.18 3031.27 3603.33 3054.93 3586.8 3064.82L3397.75 3178.47C3381.21 3188.37 3367.76 3212.33 3367.76 3231.66V3442.88C3367.76 3462.21 3383.37 3480.61 3402.39 3483.86L3893.47 3567.51C3912.49 3570.75 3928.1 3557.61 3928.1 3538.28V3159.61C3928.1 3140.28 3912.95 3119.87 3894.55 3114.3L3670.27 3045.96C3651.87 3040.39 3639.97 3020.29 3643.99 3001.43L3664.55 2903.55C3668.57 2884.68 3687.27 2866.75 3706.44 2863.65L3888.37 2833.97C3907.38 2830.87 3923 2812.47 3923 2793.3V2647.18C3923 2627.85 3907.38 2609.61 3888.37 2606.36L3622.19 2562.6C3603.18 2559.51 3580.15 2542.96 3571.18 2525.95L3537.18 2461.78C3528.21 2444.78 3529.29 2417.41 3539.65 2401.17L3614 2284.12C3624.36 2267.88 3646 2263.25 3661.92 2273.91L4034.14 2521.93C4050.21 2532.6 4077.57 2534.77 4095.04 2526.57L4178.66 2487.92C4196.13 2479.88 4210.51 2457.45 4210.51 2438.13V2274.22C4210.51 2254.9 4223.49 2230.31 4239.41 2219.33L4376.52 2125.47C4392.44 2114.65 4417.79 2115.42 4432.94 2127.33L4490.75 2172.94C4505.9 2184.85 4507.14 2205.73 4493.53 2219.33L4247.6 2464.72C4234 2478.33 4208.5 2496.27 4191.03 2504.46L3978.8 2604.19C3961.33 2612.39 3947.11 2634.81 3947.11 2654.14V2788.04C3947.11 2807.37 3962.72 2824.84 3981.89 2826.85L4325.67 2864.43C4344.83 2866.59 4360.44 2852.52 4360.44 2833.19V2599.09C4360.44 2579.76 4346.69 2556.41 4329.68 2547.14L4269.71 2514.2C4252.86 2504.92 4250.08 2486.21 4263.84 2472.45L4509.92 2226.75C4523.52 2213.15 4550.11 2198.3 4568.81 2193.82L4655.99 2173.25ZM1134.77 1417.29C1132.91 1436.47 1117.45 1459.66 1100.45 1468.63L1033.06 1504.66C1016.05 1513.78 986.683 1518.11 967.671 1514.4L852.203 1491.82C833.345 1488.11 807.685 1472.96 795.474 1458.11L699.946 1343.07C687.58 1328.23 680.933 1300.71 685.107 1281.84L752.193 980.013C756.366 961.149 744.155 943.367 725.142 940.274L612.766 922.492C593.753 919.4 586.179 903.474 595.917 886.774L667.795 764.311C677.533 747.612 701.028 736.788 720.041 740.19L810.004 756.271C829.017 759.672 846.484 778.073 848.802 797.246L863.796 918.163C866.115 937.337 883.736 955.428 902.749 958.366L1141.1 995.939C1160.12 998.877 1174.18 1017.12 1172.33 1036.3L1134.77 1417.29ZM1103.7 969.962C1084.68 967.024 1066.75 948.933 1063.82 929.915L1046.66 814.719C1043.88 795.7 1025.95 777.145 1007.09 773.589L801.193 734.778C782.18 731.221 766.723 712.512 766.877 693.184L767.186 491.707C767.186 472.379 781.098 449.031 797.947 439.599L969.835 344.35C986.683 335.072 1001.99 343.113 1003.84 362.286L1041.09 746.375C1042.95 765.548 1060.11 783.33 1079.27 785.959L1312.68 816.884C1331.85 819.358 1351.02 806.215 1355.5 787.35L1385.02 662.877C1389.51 644.168 1408.67 631.643 1427.53 635.045L1566.34 660.558C1585.35 663.96 1602.51 682.515 1604.52 701.688L1617.04 821.213C1619.05 840.387 1611.63 868.992 1600.66 884.919L1518.89 1002.9C1507.91 1018.67 1483.33 1029.34 1464.32 1026.25L1103.7 969.962ZM2030.22 1762.42C2024.81 1780.97 2006.88 1804.32 1990.34 1814.37L1917.69 1858.75C1901.31 1868.8 1872.09 1875.6 1852.92 1873.9L1580.1 1849.78C1560.93 1848.08 1545.32 1862.46 1545.47 1881.79L1547.17 2123.46C1547.33 2142.79 1561.09 2166.3 1577.93 2175.73L1631.11 2205.88C1647.96 2215.31 1660.48 2238.97 1659.24 2258.14L1655.38 2313.19C1653.99 2332.36 1637.14 2348.13 1617.97 2348.13H1513.63C1494.31 2348.13 1469.73 2335.15 1458.76 2319.22L1369.26 2188.41C1358.44 2172.48 1365.24 2159.49 1384.56 2159.49H1488.59C1507.91 2159.49 1523.68 2143.72 1523.68 2124.39V1868.49C1523.68 1849.16 1509.92 1825.66 1493.23 1816.07L1296.92 1703.97C1280.22 1694.38 1274.97 1673.35 1285.48 1657.12L1314.23 1612.43C1324.59 1596.19 1348.85 1580.58 1367.87 1577.79L1576.08 1547.02C1595.09 1544.24 1610.7 1526.15 1610.7 1506.82V1453.78C1610.7 1434.46 1626.16 1421.62 1645.17 1425.18L1706.85 1436.78C1725.86 1440.33 1741.17 1459.04 1741.17 1478.37L1740.86 1528.62C1740.7 1547.95 1756.31 1565.58 1775.48 1567.9L1971.64 1591.25C1990.8 1593.56 2013.22 1609.65 2021.41 1627.12L2036.56 1659.44C2044.75 1676.91 2047.07 1706.29 2041.51 1724.84L2030.22 1762.42ZM2678.97 1715.87C2659.65 1715.87 2640.18 1731.18 2635.54 1749.89L2620.39 1812.05C2615.75 1830.76 2596.89 1850.4 2578.35 1855.5L2479.42 1883.18C2460.87 1888.43 2448.5 1877.15 2452.06 1858.13L2473.08 1744.48C2476.64 1725.46 2463.81 1708.76 2444.48 1707.06L2096.53 1678.14C2077.37 1676.6 2054.95 1660.98 2046.92 1643.35L2032.69 1612.43C2024.66 1594.96 2018.01 1564.8 2018.01 1545.48V1374.93C2018.01 1355.6 2002.4 1337.2 1983.39 1333.95L1865.29 1314C1846.28 1310.76 1821.08 1320.65 1809.49 1335.96L1762.34 1397.66C1750.59 1412.96 1725.55 1422.55 1706.54 1418.99L1644.87 1407.4C1625.85 1403.84 1610.4 1385.13 1610.4 1365.8V1237.31C1610.4 1217.98 1623.38 1193.4 1639.3 1182.42L1705.77 1136.8C1721.69 1125.98 1741.63 1131.24 1749.98 1148.55L1801.3 1254.16C1809.64 1271.48 1832.21 1288.18 1851.22 1291.27L2154.5 1339.36C2173.51 1342.45 2189.13 1329 2189.13 1309.83V1306.12C2189.13 1286.79 2204.58 1273.96 2223.6 1277.51L2391.93 1309.05C2410.94 1312.61 2424.7 1331.17 2422.53 1350.34L2407.54 1487.65C2405.53 1506.82 2419.6 1522.44 2438.76 1522.44H2631.52C2650.84 1522.44 2666.61 1506.67 2666.61 1487.34V1347.56C2666.61 1328.23 2676.81 1305.5 2689.18 1296.99C2701.54 1288.49 2727.51 1281.53 2746.83 1281.53H2919.96C2939.28 1281.53 2968.03 1272.56 2983.95 1261.74L3267.6 1067.22C3283.52 1056.24 3305.16 1060.57 3315.82 1076.65L3331.44 1100.16C3342.1 1116.24 3347.82 1144.84 3344.27 1163.86L3310.57 1343.54C3307.01 1362.56 3288.31 1378.02 3268.99 1378.02H2954.89C2935.57 1378.02 2922.89 1393.48 2926.76 1412.34L2987.51 1716.18C2991.22 1735.05 3008.37 1757.78 3025.53 1766.59L3111.94 1811.12C3129.1 1819.94 3152.13 1840.19 3163.1 1855.96L3212.88 1928.02C3223.85 1943.95 3219.99 1966.06 3204.38 1977.34L3130.18 2030.84C3114.57 2042.13 3088.44 2042.75 3072.21 2032.39L2945.62 1950.9C2929.39 1940.54 2916.09 1916.11 2916.09 1896.94V1750.66C2916.09 1731.34 2900.33 1715.56 2881 1715.56H2678.97V1715.87ZM2542.79 2801.19C2523.47 2801.19 2500.13 2787.27 2490.7 2770.42L2395.48 2598.47C2386.21 2581.62 2394.25 2566.31 2413.41 2564.46L2797.38 2527.19C2816.55 2525.33 2834.32 2508.17 2836.95 2489L2867.87 2255.51C2870.34 2236.34 2857.2 2217.17 2838.34 2212.68L2713.91 2183.15C2695.2 2178.67 2682.68 2159.49 2686.08 2140.63L2711.59 2001.77C2714.99 1982.76 2733.54 1965.59 2752.71 1963.58L2872.19 1951.06C2891.36 1949.05 2919.96 1956.47 2935.88 1967.45L3053.82 2049.24C3069.59 2060.22 3080.25 2084.81 3077.16 2103.83L3020.9 2464.57C3017.96 2483.59 2999.87 2501.52 2980.86 2504.46L2865.7 2521.62C2846.69 2524.41 2828.14 2542.34 2824.58 2561.21L2785.79 2767.17C2782.23 2786.19 2763.53 2801.65 2744.21 2801.5L2542.79 2801.19ZM3555.26 2535.08C3564.38 2552.09 3568.71 2581.46 3565 2600.48L3542.43 2715.99C3538.72 2734.85 3523.57 2760.52 3508.73 2772.73L3393.73 2868.29C3378.89 2880.66 3351.38 2887.31 3332.52 2883.14L3030.79 2816.03C3011.93 2811.85 2994.15 2824.07 2991.06 2843.09L2973.29 2955.5C2970.19 2974.52 2954.27 2982.1 2937.58 2972.36L2815.16 2900.46C2798.46 2890.71 2787.64 2867.21 2791.04 2848.19L2807.12 2758.2C2810.52 2739.18 2828.91 2721.71 2848.08 2719.39L2968.96 2704.39C2988.13 2702.07 3006.21 2684.44 3009.15 2665.43L3046.71 2426.99C3049.65 2407.97 3067.89 2393.9 3087.05 2395.76L3467.93 2433.33C3487.09 2435.19 3510.28 2450.65 3519.25 2467.66L3555.26 2535.08Z" fill="#0F69AF"/>
</svg>
