<svg viewBox="0 0 8000 8000" fill="none"
  xmlns="http://www.w3.org/2000/svg">
  <path fill-rule="evenodd" clip-rule="evenodd" d="M8000 0H0v8000h8000V0ZM4380 3788.5c-12.6 0-17.8 9-11.5 20l37.2 64.4a44 44 0 0 1 0 40l-47.6 82.3c-6.3 11-21.8 20-34.5 20h-95.1c-12.7 0-28.3-9-34.6-20l-47.5-82.4a44 44 0 0 1 0-39.9l47.5-82.4c6.4-11 22-20 34.6-20l189.3-.2c12.6 0 17.8-9 11.5-20l-70.5-122.4c-6.4-11-6.4-28.9 0-39.9l81-140.4a44 44 0 0 1 34.5-20h162.1c12.7 0 28.3 9 34.6 20l81 140.4c6.4 11 6.4 29 0 39.9l-81 140.4c-6.3 11-21.9 20-34.6 20l-256.4.2Zm-48 707.9 16 27.7a14 14 0 0 1-.3 13.5l-16 27.7a14.8 14.8 0 0 1-11.6 6.7h-32c-4.2 0-9.5-3-11.6-6.7l-31.9-55.1c-2-3.7-5.5-3.7-7.7 0l-23.7 41.1a14.8 14.8 0 0 1-11.6 6.7H4147c-4.3 0-9.5-3-11.6-6.7l-27.2-47.2a15 15 0 0 1 0-13.4l5.6-9.8.3-.6v-.2l42.5-74.1c3.1-5.5.6-10-5.8-10h-70.2a22 22 0 0 1-17.2-10l-4.8-8.5-.4-.6-2.3-4-39.2-68.5-17.7-29.4c-3.1-5.4-7.9-5.3-11 .1v.1l-20.7 35.9a15 15 0 0 1-11.7 6.8h-55c-4.2 0-9.5-3.1-11.7-6.8l-43.5-75.3c-2.1-3.7-5.6-3.7-7.8 0l-12.6 21.9-.3.6-1 1.6a10 10 0 0 1-8 4.6h-58.7c-2.9 0-4 2-2.6 4.6l8.5 14.7a10 10 0 0 1 0 9.2l-10.9 18.9a10 10 0 0 1-7.9 4.5h-43.7c-3 0-4.1 2-2.7 4.6l5 8.7 8.7 15 2.6 4.4a10 10 0 0 1 0 9.2l-18.7 32.3c-1.5 2.5-5 4.6-8 4.6h-37.2c-2.9 0-6.4-2.1-8-4.6l-4-7-.1-.3v-.1l-29.3-50.3c-2.2-3.7-5.7-3.7-7.9 0l-24 41.7a15.1 15.1 0 0 1-11.8 6.7H3510a15 15 0 0 1-11.8-6.8l-8.4-14.5-40.7-70.1c-3.2-5.5-7.5-5-10.7.4l-6.4 10.7-29 50.2a22 22 0 0 1-17.2 10H3315c-6.3 0-8.9 4.5-5.7 10l25.1 44 39.7 68.8c2.1 3.7 5.7 3.7 7.8 0l12.6-22a15 15 0 0 1 11.7-6.7h32.3c4.3 0 9.6 3 11.7 6.8l16.1 28a15 15 0 0 1 0 13.5l-16 28a15 15 0 0 1-11.8 6.7h-32.3c-4.2 0-9.5-3-11.7-6.7l-32.1-55.6c-2.2-3.7-5.7-3.7-7.8 0l-24 41.5a15 15 0 0 1-11.7 6.8h-55a15 15 0 0 1-11.7-6.8l-27.5-47.6a15 15 0 0 1 0-13.6l27.5-47.6a15 15 0 0 1 11.7-6.8h41.6c6.4 0 8.6-4.4 5.4-9.8l-28-48.8-36.6-62.4a22 22 0 0 1 0-20l40.5-70c3.2-5.5 11-10 17.3-10h80.8c6.3 0 14 4.5 17.2 10l64.1 110.8c3.2 5.5 8 5.3 11.2-.2l20.7-36c2.2-3.7 7.5-6.7 11.8-6.7h55.1c4.3 0 9.6 3 11.8 6.7l43.6 75.6c2.2 3.7 5.7 3.7 7.8 0l12.7-22a2.8 2.8 0 0 1 .2-.2l1.1-2c1.5-2.5 5-4.6 8-4.6H3709.2c3 0 4.2-2.1 2.7-4.6l-8.6-14.9a10 10 0 0 1 0-9.1l11-19c1.4-2.5 5-4.6 7.9-4.6l21.8.3 21.8-.1c3 0 4-2.2 2.5-4.7l-16-28a10 10 0 0 1 0-9.1l18.6-32.2a10 10 0 0 1 7.9-4.5h37.1c3 0 6.5 2 8 4.5l3.8 6.7 29.6 50.8c2 3.7 5.6 3.7 7.7 0l24-41.5a15 15 0 0 1 11.7-6.8h55c4.2 0 9.5 3 11.7 6.8l26 45 23 39.4c3.2 5.5 8.4 5.5 11.5 0l41.2-70.1 25.5-44.6c4.6-8 .9-14.5-8.4-14.5l-103-.1c-9.3 0-20.7-6.6-25.3-14.6l-59.2-102.5c-4.6-8-4.6-21.2 0-29.2l59.2-102.5c4.7-8 16-14.6 25.2-14.6h118.3c9.3 0 20.7 6.5 25.3 14.6l59 102.6c4.7 8 4.7 21.1 0 29.1l-93.3 162.3c-4.7 8-1.3 13.3 8 13.3h60.7a22.2 22.2 0 0 1 17.3 10l.3.6 40.3 69.8a22.1 22.1 0 0 1 0 19.8l-63.6 110.6c-3.1 5.5-.6 10 5.7 10h40.8c4.2 0 9.4 3 11.6 6.7l1.7 3v.1l.1.1 11.6 20 29.7 51.4c2.1 3.7 5.7 3.7 7.8 0l12.5-21.6c2-3.7 7.3-6.8 11.6-6.8h32c4.2 0 9.4 3 11.6 6.8Zm430.2-365.2 13.3 22.9c1.7 3 1.7 8 0 11l-13.2 23c-1.8 3-6 5.5-9.6 5.5H4700c-3.1 0-4.6 2-3.7 4.6l2.6 4.6 4.7 8.2 11.3 19.5 1.5 2.6c1.7 3.1 1.7 8 0 11.1l-1.6 2.8-19.4 33.6-1.5 2.6c-1.8 3.1-6.1 5.6-9.6 5.6h-45c-3.6 0-7.9-2.5-9.6-5.6l-1.4-2.3-39.2-67.2c-2.6-4.5-6.9-4.5-9.5 0l-29.1 50.2c-2.6 4.5-9 8.2-14.2 8.2h-1.6l-3.2.2h-57.4c-1 0-2 0-3.2-.3h-1.2c-5.2 0-11.6-3.6-14.2-8.1l-1.1-1.8-1.1-1.8-57.3-98.7c-3.8-6.5-10-6.5-13.8 0l-42.7 73.8a26.6 26.6 0 0 1-20.9 12H4221c-7.7 0-17-5.4-20.9-12l-48.8-84.7a26.8 26.8 0 0 1 0-24l48.8-84.7c3.8-6.6 13.3-12 20.9-12h97.7c7.7 0 17 5.4 20.9 12l77.4 133.8c3.2 5.4 8 6.4 11.8 2.8l26.8-46.4c2.6-4.5 9-8.2 14.2-8.2h66.6c5.2 0 11.6 3.7 14.2 8.2l52.7 91.1c2.6 4.5 7 4.5 9.5 0l15.3-26.4.2-.4.3-.3 1.1-2c1.8-3 6-5.5 9.6-5.5h71.2c3.5 0 5-2.6 3.2-5.6l-10.3-18c-1.8-3-1.8-8 0-11l13.2-22.9c1.8-3 6-5.6 9.6-5.6h26.4c3.5 0 7.9 2.5 9.6 5.6Z" fill="currentColor"/>
</svg>
