<svg viewBox="0 0 24 24" fill="none" xmlns="http://www.w3.org/2000/svg"><path fill-rule="evenodd" clip-rule="evenodd" d="M5.8479 4.3567C3.5695 4.6267 2 6.6095 2 8.904v6.3246c0 2.2324 1.493 4.1613 3.7098 4.424C7.3132 19.8425 9.4203 20 12 20c2.5797 0 4.6868-.1575 6.2902-.3475C20.5071 19.3898 22 17.4609 22 15.2285V8.9039c0-2.2944-1.5695-4.2772-3.8479-4.5472C16.5141 4.1627 14.4197 4 12 4c-2.4197 0-4.5141.1626-6.1521.3567ZM18.8432 16.313h-.1742l-.3387-.0058a.774.774 0 0 1-.7742-.7742v-.9387a.7431.7431 0 0 0-.7336-.7374c-.6231 0-1.0988.4467-1.5197.842a10.917 10.917 0 0 1-.2416.2225c-.0873.0772-.1716.1541-.2537.2289-.4734.4315-.8744.7969-1.3528.7969-.4891 0-.9047-.3821-1.3877-.8262-.0713-.0655-.1441-.1324-.2188-.1996-.08-.0704-.1614-.1467-.245-.225-.4214-.3947-.8963-.8395-1.5182-.8395a.743.743 0 0 0-.7336.7432v1.5484a.1568.1568 0 0 1-.1568.1568h-.507a.7742.7742 0 0 1-.7743-.7742v-4.3762a.1557.1557 0 0 1 .046-.1102A.1556.1556 0 0 1 8.0701 11h.989c.3447.007.6747.1407.9271.3755.0097.0174 1.2291 1.1613 1.2291 1.1613a3.2475 3.2475 0 0 0 4.4188.0678l1.6588-1.5485a.146.146 0 0 1 .1045-.0425h.8284a.774.774 0 0 1 .7742.7742v4.3685a.1568.1568 0 0 1-.1568.1567Z" fill="currentcolor"/></svg>