<svg viewBox="0 0 24 24" fill="none" xmlns="http://www.w3.org/2000/svg"><path fill-rule="evenodd" clip-rule="evenodd" d="M16 3.6663h2.6669c.7369 0 1.3331.7463 1.3331 1.6663V6.5a.5.5 0 0 1-.5.5h-15a.5.5 0 0 1-.5-.5V5.3326c0-.92.597-1.6663 1.3339-1.6663H8A2.6517 2.6517 0 0 1 10.4618 2h3.0776c1.0838 0 2.0583.66 2.4606 1.6663ZM5.55 8a.5.5 0 0 0-.4978.5474L6 18.5S6 22 12 22s6-3.5 6-3.5l.9479-9.9526A.5.5 0 0 0 18.4501 8H5.5499ZM11 17.5v-6a.5.5 0 0 0-.5-.5h-1a.5.5 0 0 0-.5.5v6a.5.5 0 0 0 .5.5h1a.5.5 0 0 0 .5-.5Zm4-6v6a.5.5 0 0 1-.5.5h-1a.5.5 0 0 1-.5-.5v-6a.5.5 0 0 1 .5-.5h1a.5.5 0 0 1 .5.5Z" fill="currentcolor"/></svg>