<svg viewBox="0 0 24 24" fill="none" xmlns="http://www.w3.org/2000/svg"><path fill-rule="evenodd" clip-rule="evenodd" d="M9.404 4.4239a.5713.5713 0 1 0 .808.808l1.616-1.616 1.6159 1.616a.5713.5713 0 0 0 .808-.808l-2.0199-2.02a.5713.5713 0 0 0-.808 0l-2.02 2.02ZM6.5878 9.9593c-.2721-.1726-.2707-.5702.0027-.7407l4.9268-3.0742a.4374.4374 0 0 1 .4631 0l4.9294 3.0741c.2734.1706.2749.5682.0027.7408l-4.9293 3.125a.4377.4377 0 0 1-.4687 0l-4.9267-3.125Zm-.3864 6.6733A.4374.4374 0 0 1 6 16.2643v-5.2186c0-.3449.3803-.5542.6717-.3697l4.5947 2.9097a.4375.4375 0 0 1 .2035.3696v5.2563c0 .346-.3826.5551-.6738.3683l-4.5947-2.9473Zm5.8278 2.579c0 .346.3825.5551.6737.3683l4.5948-2.9473a.4375.4375 0 0 0 .2013-.3683v-5.2186c0-.3449-.3803-.5542-.6717-.3697l-4.5947 2.9097a.4374.4374 0 0 0-.2034.3696v5.2563Zm-5.0298 1.2163a.5714.5714 0 0 1-.5714.5714H3.5713A.5714.5714 0 0 1 3 20.4279v-2.8566a.5714.5714 0 1 1 1.1427 0v2.2853H6.428a.5713.5713 0 0 1 .5714.5713Zm14-2.8567a.5713.5713 0 0 0-1.1427 0v2.2854h-2.2853a.5713.5713 0 1 0 0 1.1426h2.8567a.5713.5713 0 0 0 .5713-.5713v-2.8567Z" fill="currentcolor"/></svg>