<svg viewBox="0 0 24 24" fill="none" xmlns="http://www.w3.org/2000/svg"><path fill-rule="evenodd" clip-rule="evenodd" d="M14.9797 3.2527c1.8871.067 3.4925 1.355 3.7162 3.2434C18.8622 7.8991 19 9.7428 19 12c0 2.2572-.1378 4.101-.3041 5.5039-.2237 1.8883-1.8291 3.1764-3.7162 3.2434C14.8618 21.458 14.2442 22 13.5 22h-3c-.7462 0-1.3651-.5448-1.4806-1.2584-1.8904-.1175-3.4817-1.4554-3.7073-3.3585C5.1423 15.9499 5 14.1172 5 12s.1423-3.9499.3121-5.3831c.2256-1.9031 1.8168-3.241 3.7072-3.3585C9.135 2.5448 9.7538 2 10.5 2h3c.7442 0 1.3618.542 1.4797 1.2527ZM11.7511 16.874l4.2088-6.4232c.1117-.1703-.0231-.3859-.2415-.3859h-3.3803c-.1755 0-.309-.1448-.2767-.3018l.7057-3.46c.0569-.28-.3581-.4223-.5189-.1773l-4.2081 6.4231c-.1117.171.0231.3866.2415.3866h3.3803c.1755 0 .3083.1448.2767.3017l-.705 3.4601c-.0576.28.3574.4223.5175.1767Z" fill="currentcolor"/></svg>