<svg viewBox="0 0 24 24" fill="none" xmlns="http://www.w3.org/2000/svg"><path fill-rule="evenodd" clip-rule="evenodd" d="M18.9999 5h.4999a.5.5 0 0 0 .5-.5V4c0-.5523-.4476-1-.9999-1h-1.5a.5.5 0 0 0-.5.5v10.7505c-.8756-.2619-2.8039-.7505-5.0001-.7505-2.196 0-4.1242.4886-4.9999.7504V6.5a1 1 0 0 0-.2929-.7071L5.3384 4.4243c-.6248-.6249-1.638-.6249-2.2628 0a.4.4 0 0 0 0 .5657L5 6.9142V18h1c-1 0-1 .002-1 .002V18.0084l.0002.0096.0005.0228c.0006.0168.0015.0367.003.0594.003.0455.0085.1028.018.1701.0193.1346.0555.3109.1234.5147.137.4109.4007.9249.8978 1.4221C7.0465 21.2108 8.8458 22 12 22c3.1542 0 4.9534-.7892 5.9571-1.7929.4972-.4972.7609-1.0112.8979-1.4221a2.9563 2.9563 0 0 0 .1232-.5147 2.2186 2.2186 0 0 0 .0211-.2295l.0006-.0228.0001-.0096V18.002s0-.002-1-.002h1V5Zm-4.5001 3c.8285 0 1.5-.6716 1.5-1.5s-.6715-1.5-1.5-1.5c-.8284 0-1.5.6716-1.5 1.5s.6716 1.5 1.5 1.5Zm-1.5 2.5c0 .5523-.4477 1-1 1-.5522 0-1-.4477-1-1s.4478-1 1-1c.5523 0 1 .4477 1 1ZM14.5 18c.8284 0 1.5-.6716 1.5-1.5s-.6716-1.5-1.5-1.5-1.5.6716-1.5 1.5.6716 1.5 1.5 1.5Z" fill="currentcolor"/></svg>