<svg viewBox="0 0 24 24" fill="none" xmlns="http://www.w3.org/2000/svg"><path fill-rule="evenodd" clip-rule="evenodd" d="M20.5538 11.0212c.3773.0633 1.4462.4789 1.4462.9789v2.5c-.5 1-.9612 1.242-1.3071 1.242h-.8694a2.6077 2.6077 0 0 0-2.6081-2.6081 2.6081 2.6081 0 0 0-2.6081 2.6081H9.391a2.608 2.608 0 0 0-5.2162 0h-.8694a1.3038 1.3038 0 0 1-1.304-1.304c0-.1198-.0004-.235-.0008-.3464-.0036-1.1901-.0058-1.9287.4354-2.8271a.4347.4347 0 0 1 0-.8693H6v-.2302c0-.608.392-1.165 1-1.165s1 .557 1 1.165v.2302h2v-.2302c0-.3375.1209-.6594.3325-.879a.4348.4348 0 0 1 .2197-.1708A.905.905 0 0 1 11 9.0001c.6079 0 1 .557 1 1.165v.2302h3.6158l-.1108-.0944c-.6141-.5237-1.2564-1.0715-2.0632-1.5709-.3076-.1903-.4029-.6033-.1885-.8947.148-.2011.408-.2914.6389-.1963.9608.3959 1.8005 1.1483 2.7468 1.9963.276.2473.5612.5028.861.76l3.0538.6259Zm-13.771 2.9822a1.7392 1.7392 0 0 0-1.6064 1.0734 1.7387 1.7387 0 1 0 1.6064-1.0734Zm9.4666.293a1.7387 1.7387 0 1 1 1.932 2.8914 1.7387 1.7387 0 0 1-1.932-2.8914Z" fill="currentcolor"/></svg>