<svg viewBox="0 0 24 24" fill="none" xmlns="http://www.w3.org/2000/svg"><path fill-rule="evenodd" clip-rule="evenodd" d="M2 8.5414c0-1.4665 1.062-2.7106 2.5227-2.8408A50.895 50.895 0 0 1 9 5.5c2.1778 0 4.0592.1482 5.3213.2832.9722.104 1.6787.9334 1.6787 1.911v8.7442c0 .9178-.6286 1.6979-1.5404 1.8021-1.1211.1281-2.8961.2595-5.4596.2595-2.0347 0-3.5727-.0828-4.6812-.181C2.9476 18.1975 2 17.0343 2 15.6577V8.5414Zm15 2.1572a3 3 0 0 1 1.4565-2.5725l2.029-1.2174c.6665-.4 1.5145.0802 1.5145.8575v8.4676c0 .7773-.848 1.2574-1.5145.8575l-2.029-1.2174A3 3 0 0 1 17 13.3014v-2.6028ZM4 10c0-.5523.4477-1 1-1h4c.5523 0 1 .4477 1 1s-.4477 1-1 1H5c-.5523 0-1-.4477-1-1Zm0 4c0-.5523.4477-1 1-1h1c.5523 0 1 .4477 1 1s-.4477 1-1 1H5c-.5523 0-1-.4477-1-1Z" fill="currentcolor"/></svg>