<svg viewBox="0 0 24 24" fill="none" xmlns="http://www.w3.org/2000/svg"><path fill-rule="evenodd" clip-rule="evenodd" d="M2 9.4322C2 6.3166 2.203 3 11.9432 3c9.8417 0 10.1461 3.3166 10.0446 6.4322v2.1356c0 2.0656-.0892 4.2196-2.9878 5.4368V20c0 .5523-.4537.9455-.9438.6908-.4121-.2142-.9423-.5769-1.5562-1.1908-.6605-.6605-1.0302-1.2241-1.2371-1.648-.9364.0964-2.0031.148-3.2183.148-1.251 0-2.3464-.0531-3.3054-.1523-.2065.4244-.5764.9895-1.2392 1.6523-.614.6139-1.144.9766-1.5562 1.1908C5.4538 20.9455 5 20.5523 5 20v-2.9985c-2.8681-1.1997-3-3.3167-3-5.4337V9.4322ZM8.6655 7.709v4.0537a2.5281 2.5281 0 0 0-.1655-.0058c-.9666 0-1.7585.7301-1.7585 1.6215S7.5334 15 8.5 15c.9635 0 1.7585-.7186 1.7585-1.6216V9.1149l3.6391-.4742v2.1515a2.527 2.527 0 0 0-.1654-.0058c-.9636 0-1.7586.7186-1.7586 1.6215 0 .8885.7794 1.6216 1.7586 1.6216.9697 0 1.7678-.7158 1.7678-1.6216v-5.708a.5.5 0 0 0-.5852-.4927l-5.8345 1.009a.5.5 0 0 0-.4148.4928Z" fill="currentcolor"/></svg>