<svg viewBox="0 0 24 24" fill="none" xmlns="http://www.w3.org/2000/svg"><path fill-rule="evenodd" clip-rule="evenodd" d="M14.5 6V2.1917C13.7855 2.0732 12.9568 2 12 2c-2.867 0-4.7477.3288-5.8305.6093C5.436 2.7993 5 3.4785 5 4.2361v15.5278c0 .7576.4361 1.4368 1.1695 1.6268C7.2522 21.6712 9.1329 22 12 22c2.8671 0 4.7477-.3288 5.8305-.6093.7334-.19 1.1695-.8692 1.1695-1.6268V7.0719a.8783.8783 0 0 0-.0118-.143 10.458 10.458 0 0 0-.0807-.4289H15a.5.5 0 0 1-.5-.5Zm1-.5V2.403a9.682 9.682 0 0 1 .4584.1314c1.3917.437 2.2168 1.6014 2.6785 2.9656H15.5Zm.2005 3.7678a.75.75 0 1 0-1.401-.5356l-1.8671 4.8829-1.5333-1.6291-.8563-.9098-.4003 1.1835-1.353 4a.75.75 0 0 0 1.421.4806l.9526-2.8165 1.4966 1.5902.8196.8709.4271-1.117 2.2941-6Z" fill="currentcolor"/></svg>