<svg viewBox="0 0 24 24" fill="none" xmlns="http://www.w3.org/2000/svg"><path fill-rule="evenodd" clip-rule="evenodd" d="M11.0001 3c0-.5523-.4478-1-1-1H9c-.5523 0-1 .4477-1 1v.5a.5.5 0 0 0 .5.5H9v5.8727l-.9307.7747c-2.1121 1.758-3.3192 4.2376-3.2264 6.4857.047 1.1386.4323 2.2357 1.2315 3.1004.8008.8666 1.9459 1.423 3.3745 1.6079C10.235 21.9431 11.0843 22 12 22c.9158 0 1.765-.0569 2.5512-.1586 1.4286-.1848 2.5737-.7413 3.3745-1.6079.7992-.8647 1.1845-1.9618 1.2315-3.1004.0928-2.2481-1.1143-4.7277-3.2264-6.4857l-.9307-.7747V4H15.5a.5.5 0 0 0 .5-.5V3c0-.5523-.4477-1-.9999-1H14c-.5523 0-.9999.4477-.9999 1v7.8102l1.6512 1.3744c.6814.5671 1.2245 1.2078 1.6288 1.8683C15.2655 13.7978 13.7144 13.5 12 13.5s-3.2654.2977-4.28.5529c.4043-.6605.9474-1.3012 1.6288-1.8683L11 10.8102V3Zm3.25 14.5c.6903 0 1.25-.5596 1.25-1.25s-.5597-1.25-1.25-1.25c-.6904 0-1.25.5596-1.25 1.25s.5596 1.25 1.25 1.25Zm-2.25.5c0 .5523-.4478 1-1 1-.5523 0-1-.4477-1-1s.4477-1 1-1c.5522 0 1 .4477 1 1Z" fill="currentcolor"/></svg>