<svg viewBox="0 0 24 24" fill="none" xmlns="http://www.w3.org/2000/svg"><path fill-rule="evenodd" clip-rule="evenodd" d="M2.0688 6.7046A2.9742 2.9742 0 0 0 2 7.3423V16.5c0 1.4798.9864 2.7616 2.4495 2.9831C6.1375 19.7386 8.6766 20 12 20c3.3234 0 5.8625-.2614 7.5505-.5169C21.0136 19.2616 22 17.9798 22 16.5V7.3423c0-.2183-.0236-.4319-.0687-.6376l-9.4902 6.9019a.7501.7501 0 0 1-.8822 0l-9.4901-6.902Zm.7058-1.3414L12 12.0726l9.2254-6.7094a2.6424 2.6424 0 0 0-1.5245-.7964C17.9427 4.2967 15.268 4 12 4s-5.9427.2967-7.701.5668a2.6429 2.6429 0 0 0-1.5244.7964Z" fill="currentcolor"/></svg>