<svg viewBox="0 0 24 24" fill="none" xmlns="http://www.w3.org/2000/svg"><path fill-rule="evenodd" clip-rule="evenodd" d="M12 2C9.7909 2 8 3.7909 8 6v6c0 2.2091 1.7909 4 4 4 2.2091 0 4-1.7909 4-4V6c0-2.2091-1.7909-4-4-4Zm-6 8.25a.75.75 0 0 1 .75.75v3c0 1.7949 1.455 3.25 3.25 3.25h4c1.7949 0 3.25-1.4551 3.25-3.25v-3a.75.75 0 0 1 1.5 0v3c0 2.6234-2.1266 4.75-4.75 4.75h-1V21c0 .5523-.4477 1-1 1s-1-.4477-1-1v-2.25h-1c-2.6234 0-4.75-2.1266-4.75-4.75v-3a.75.75 0 0 1 .75-.75Z" fill="currentcolor"/></svg>