<svg viewBox="0 0 24 24" fill="none" xmlns="http://www.w3.org/2000/svg"><path fill-rule="evenodd" clip-rule="evenodd" d="m18.0314 4.6644-.2338-.2339.6628-.6628a.5.5 0 0 0 0-.7071l-.7071-.7071a.5.5 0 0 0-.7071 0l-.6628.6628-.3668-.3668c-.2191-.219-.5336-.3024-.8115-.1653-.6356.3135-1.9414 1.1265-3.9819 3.167-2.0405 2.0404-2.8535 3.3463-3.167 3.982-.137.2778-.0537.5923.1653.8114l2.0149 2.0148c.2191.2191.5336.3024.8114.1654.496-.2446 1.4-.7934 2.7427-1.9921 1.0894.6691 1.8177 1.8719 1.8177 3.2411 0 2.0952-1.7054 3.8007-3.8007 3.8007-1.2872 0-2.4519-.6599-3.1416-1.6746H11.55c.2484 0 .45-.224.45-.5v-1c0-.276-.2016-.5-.45-.5h-8.1c-.2484 0-.45.224-.45.5v1c0 .276.2016.5.45.5h2.889c.5008 1.2816 1.4397 2.3389 2.6182 3H7.75a.75.75 0 0 0-.75.75c0 1.2427 1.0074 2.25 2.25 2.25h5.5c1.2426 0 2.25-1.0073 2.25-2.25a.75.75 0 0 0-.75-.75h-1.5766c1.7935-1.0066 3.008-2.9272 3.008-5.1261 0-1.9241-.9299-3.6351-2.3639-4.7071 1.8303-1.8742 2.581-3.086 2.8793-3.6909.137-.2778.0537-.5923-.1654-.8114Z" fill="currentcolor"/></svg>