<svg viewBox="0 0 24 24" fill="none" xmlns="http://www.w3.org/2000/svg"><path fill-rule="evenodd" clip-rule="evenodd" d="M6 5.7363c0-1.6497 1.0202-3.134 2.6433-3.4287C9.5883 2.1359 10.7359 2 12 2s2.4116.136 3.3567.3076C16.9799 2.6023 18 4.0866 18 5.7363v12.5274c0 1.6497-1.0201 3.134-2.6433 3.4287C14.4116 21.8641 13.2641 22 12 22s-2.4116-.1359-3.3567-.3076C7.0202 21.3977 6 19.9134 6 18.2637V5.7363ZM7 7c0-1.1046.8954-2 2-2h6c1.1046 0 2 .8954 2 2v11c0 1.1046-.8954 2-2 2H9c-1.1046 0-2-.8954-2-2V7Zm5 10c-.5523 0-1 .4477-1 1s.4477 1 1 1 1-.4477 1-1-.4477-1-1-1Z" fill="currentcolor"/></svg>