<svg viewBox="0 0 24 24" fill="none" xmlns="http://www.w3.org/2000/svg"><path fill-rule="evenodd" clip-rule="evenodd" d="M14.5 2.1917V6a.5.5 0 0 0 .5.5h3.9075c.0299.1424.0568.2856.0807.429A.8783.8783 0 0 1 19 7.072v2.0264C18.0102 9.0405 16.7076 9 15 9c-3.8062 0-5.6003.2012-6.4034.3483C8.224 9.4167 8 9.7393 8 10.118v6.764c0 .3787.224.7014.5966.7696C9.3996 17.7988 11.1938 18 15 18c1.7076 0 3.0102-.0405 4-.0984v1.8623c0 .7576-.4361 1.4368-1.1695 1.6268C16.7477 21.6712 14.8671 22 12 22c-2.867 0-4.7477-.3288-5.8305-.6093C5.436 21.2007 5 20.5215 5 19.7639V4.236c0-.7575.4361-1.4367 1.1695-1.6267C7.2522 2.3288 9.1329 2 12 2c.9568 0 1.7855.0732 2.5.1917Zm1 .2112V5.5h3.1369c-.4617-1.3642-1.2868-2.5286-2.6785-2.9656a9.682 9.682 0 0 0-.4584-.1315Zm-4.6211 11.3598v1.5029H10V11h1.6641c.3203 0 .6015.0586.8437.1758.2442.1172.4317.2842.5625.501.1309.2148.1963.4599.1963.7353 0 .418-.1436.7481-.4307.9902-.2851.2403-.6806.3604-1.1865.3604h-.7705Zm0-.7119h.7852c.2324 0 .4091-.0547.5302-.1641.1231-.1094.1846-.2656.1846-.4687 0-.209-.0615-.378-.1846-.5069-.123-.1289-.2929-.1953-.5097-.1992h-.8057v1.3389Zm3.0875 2.2148V11h1.3125c.375 0 .7099.085 1.0049.2549.2968.168.5283.4082.6943.7207.166.3105.249.664.249 1.0605v.1963c0 .3965-.082.749-.2461 1.0576-.1621.3086-.3916.5479-.6884.7178-.2969.1699-.6319.2559-1.0049.2578h-1.3213Zm.8789-3.5537v2.8477h.4248c.3437 0 .6064-.1123.7881-.3369.1816-.2247.2744-.5459.2783-.9639v-.2256c0-.4336-.0898-.7617-.2695-.9844-.1797-.2246-.4424-.3369-.7881-.3369h-.4336Zm3.9957 1.8106h1.6875v-.709H18.841v-1.1016h1.8984V11h-2.7773v4.2656h.8789v-1.7431Z" fill="currentcolor"/></svg>