<svg viewBox="0 0 24 24" fill="none" xmlns="http://www.w3.org/2000/svg"><path fill-rule="evenodd" clip-rule="evenodd" d="M5.6192 15.1453a3.806 3.806 0 0 1 1.5674.3358c.4564.2056 1.0133.1824 1.3673-.1716L19.4353 4.4282c.4358-.4358.3698-1.1738-.227-1.3275A3.1966 3.1966 0 0 0 18.4098 3c-.5539 0-1.074.2154-1.4654.6068L5.5567 14.9944c-.0557.0557-.0163.1509.0625.1509Zm.3803 1.3126H5.154a.5.5 0 0 0-.485.3787l-.639 2.5557c-.0894.3571.0277.6916.2536.9168.2252.2259.5597.3428.916.2536l2.5565-.639a.5.5 0 0 0 .3787-.4851v-.8455c0-1.1772-.958-2.1352-2.1354-2.1352ZM21.5923 6.1824c0 .5542-.2154 1.0744-.6068 1.4658L9.5979 19.036c-.0557.0556-.1508.0162-.1508-.0625a3.806 3.806 0 0 0-.3358-1.5673c-.2057-.4565-.1826-1.0135.1715-1.3675L20.1635 5.1582c.4362-.4362 1.1748-.3697 1.3285.2276.0655.2546.1003.5216.1003.7966Z" fill="currentcolor"/></svg>