<svg viewBox="0 0 24 24" fill="none" xmlns="http://www.w3.org/2000/svg"><path fill-rule="evenodd" clip-rule="evenodd" d="m12.5792 12.4383-3.216-3.216a174.344 174.344 0 0 1 3.326-3.233c1.436-1.3595 3.7125-1.3217 5.1732.139 1.4679 1.4679 1.5144 3.7837.1435 5.255-1.0195 1.0942-2.1289 2.2598-3.1741 3.3077l-.88-.8801a1.001 1.001 0 0 0 .1917-.1501l3.1954-3.1954c.3905-.3905.3905-1.0237 0-1.4142-.3905-.3905-1.0237-.3905-1.4142 0l-3.1954 3.1954a1.001 1.001 0 0 0-.1501.1917Zm-1.2649-7.9015c2.2545-2.1343 5.7671-2.018 7.9623.1773 2.2065 2.2065 2.3197 5.7496.1925 8.0326-1.0527 1.1299-2.2085 2.3439-3.2983 3.4338-1.0874 1.0874-2.2973 2.2393-3.4235 3.2886-2.2832 2.1274-5.8264 2.0139-8.033-.1928-2.1953-2.1953-2.312-5.7078-.1775-7.9623a175.5116 175.5116 0 0 1 3.337-3.4309 175.9497 175.9497 0 0 1 3.4405-3.3463Zm.4929 11.4602c.3905-.3905.3905-1.0237 0-1.4142-.3905-.3905-1.0237-.3905-1.4142 0l-1.3516 1.3515c-.3905.3906-.3905 1.0237 0 1.4142.3906.3906 1.0237.3906 1.4143 0l1.3515-1.3515Z" fill="currentcolor"/></svg>