<svg viewBox="0 0 24 24" fill="none" xmlns="http://www.w3.org/2000/svg"><path d="M19.6466 3c-1.712-.0104-2.8936 1.2634-2.8936 1.2634l-3.5651 3.5652L6.6502 5.277C5 5 4 6 3.5 6.5l-.0688.0688c-.2231.2231-.1864.5945.0761.7695l6.0287 4.0208c-.0616.0616-1.1554 1.3859-2.489 2.8355-.0739.0803-.1867.1137-.2948.0974l-2.2331-1.0322a.8562.8562 0 0 0-.9088.1954l-.6619.6619c-.473.473-.3571 1.2682.2313 1.5866L6.5 17.5l1.7963 3.3203c.3183.5884 1.1136.7044 1.5866.2313l.6619-.6619a.8565.8565 0 0 0 .1954-.9088L9.708 17.2478c-.0164-.1081.017-.2209.0975-.2949 1.4495-1.3335 2.7738-2.4273 2.8354-2.4889l4.0208 6.0287c.175.2625.5464.2992.7695.0761L17.5 20.5c1-1 1.5-2.5 1.2229-3.1502l-2.5515-6.5377 3.5651-3.565s1.2739-1.1817 1.2634-2.8937c-.0046-.7516-.6017-1.3487-1.3533-1.3533Z" fill="currentcolor"/></svg>