<svg viewBox="0 0 24 24" fill="none" xmlns="http://www.w3.org/2000/svg"><path fill-rule="evenodd" clip-rule="evenodd" d="M7 2.7143V5.5S9 5 12 5s5 .5 5 .5V2.7143A.7145.7145 0 0 0 16.2857 2H7.7143A.7143.7143 0 0 0 7 2.7143Zm9.0652 12.7097A.5.5 0 0 0 15.571 15H8.429a.5.5 0 0 0-.4942.424l-.8655 5.6255c-.0393.2552.1226.4964.3761.5456C8.194 21.7401 9.8371 22 12 22c2.1629 0 3.806-.2599 4.5546-.4049.2535-.0492.4154-.2904.3761-.5456l-.8655-5.6255ZM22 15.5714V9.1429A2.1431 2.1431 0 0 0 19.8571 7S17.5767 6.5 12 6.5 4.1429 7 4.1429 7A2.1428 2.1428 0 0 0 2 9.1429v6.4285a2.143 2.143 0 0 0 2.1429 2.1429h1.385a.5.5 0 0 0 .479-.3564l.7645-2.5508a.7142.7142 0 0 1-.4857-.6642A.7142.7142 0 0 1 7 13.4286h10a.7143.7143 0 0 1 .7143.7143.714.714 0 0 1-.4857.6642l.7646 2.5508a.5.5 0 0 0 .4789.3564h1.385a2.1432 2.1432 0 0 0 1.5153-.6276A2.1432 2.1432 0 0 0 22 15.5714ZM6 9c-.5523 0-1 .4477-1 1s.4477 1 1 1 1-.4477 1-1-.4477-1-1-1Z" fill="currentcolor"/></svg>