<svg viewBox="0 0 24 24" fill="none" xmlns="http://www.w3.org/2000/svg"><path fill-rule="evenodd" clip-rule="evenodd" d="M8.318 9.0696c-1.406 1.4072-1.786 3.5039-.9677 5.3414.2154.4847-.002 1.0527-.4869 1.2689a.9609.9609 0 0 1-1.2688-.4869c-1.1443-2.5706-.6088-5.5073 1.3642-7.4819 1.9756-1.9734 4.9124-2.5087 7.4836-1.3648a.0853.0853 0 0 1 .0128.007c.0029.0019.0058.0037.0089.0053l-.2743-1.3169a.865.865 0 0 1 .6706-1.0234c.4686-.0973.9259.203 1.023.6702l.5943 2.8507a.864.864 0 0 1-.313.857l-2.2831 1.791a.8618.8618 0 0 1-.5338.1844.8644.8644 0 0 1-.681-.3313.8644.8644 0 0 1 .1468-1.2144l.9006-.707a.3056.3056 0 0 0-.0229-.0073.2315.2315 0 0 1-.0298-.0101c-1.839-.818-3.937-.4378-5.3435.9681Zm8.2526.1856c.4852-.2155 1.0534.0027 1.2684.4878 1.1431 2.5717.6069 5.5085-1.3653 7.4794-1.2845 1.2852-2.9767 1.9605-4.7105 1.9605-.8816 0-1.773-.1768-2.628-.5348l.2731 1.3104c.0973.468-.2033.9257-.6708 1.0236a.865.865 0 0 1-1.0228-.671l-.5941-2.8503a.864.864 0 0 1 .313-.8566l2.2835-1.7909c.3757-.2956.9195-.2293 1.2142.1462.2956.3763.2293.9201-.1462 1.2151l-.899.7048c1.8104.7538 3.8502.363 5.2276-1.0145 1.4063-1.4056 1.7861-3.5024.9692-5.3418-.2159-.4849.0026-1.0529.4877-1.268Z" fill="currentcolor"/></svg>