<svg viewBox="0 0 24 24" fill="none" xmlns="http://www.w3.org/2000/svg"><path fill-rule="evenodd" clip-rule="evenodd" d="M7.5 2C4.4626 2 2 4.4626 2 7.5S4.4626 13 7.5 13 13 10.5374 13 7.5 10.5374 2 7.5 2Zm-.6748 8.0224A2.6698 2.6698 0 0 1 6.1 9.7733c-.2285-.1208-.4219-.2655-.5801-.4342l.3164-.5246a.326.326 0 0 1 .1055-.1057.2608.2608 0 0 1 .145-.0453c.0527 0 .1066.0163.1615.049.055.0302.1143.068.178.1133a5.598 5.598 0 0 0 .2142.1397c.0769.0452.1648.083.2637.1132l.122-1.4269a4.8994 4.8994 0 0 1-.4714-.1774 1.4993 1.4993 0 0 1-.4219-.2756c-.1252-.1157-.2274-.263-.3065-.4416-.0769-.1787-.1153-.4027-.1153-.672 0-.1987.0351-.3925.1054-.5812a1.6054 1.6054 0 0 1 .3065-.5096c.1363-.151.3033-.2743.501-.37.1978-.0981.424-.1547.679-.1698l.0362-.419a.3274.3274 0 0 1 .0824-.1888c.0484-.0579.111-.0868.1879-.0868h.3757l-.0659.7436c.2373.0504.4417.1322.613.2454.1714.1107.3164.2303.435.3586l-.2504.419c-.0373.063-.0758.1095-.1154.1397-.0373.0277-.0823.0415-.135.0415-.0352 0-.0748-.0088-.1187-.0264a2.4882 2.4882 0 0 1-.145-.0642 7.1468 7.1468 0 0 0-.1714-.0868 1.3819 1.3819 0 0 0-.1912-.0793l-.1154 1.34c.1055.0353.211.0743.3164.117.1055.0404.2066.0882.3033.1435.0989.0529.19.1145.2735.185.0857.0705.1593.1535.2209.2491.0637.0957.1131.2064.1483.3322.0351.1233.0527.2642.0527.4228 0 .239-.0352.4643-.1055.6757-.0703.2088-.1736.3938-.3098.5549-.1362.161-.3032.2932-.501.3963-.1977.1007-.424.1623-.679.185l-.0395.4718a.3275.3275 0 0 1-.0823.1888c-.0484.0579-.111.0868-.188.0868h-.3757l.066-.7776Zm1.2458-1.608c0-.1435-.0406-.258-.122-.3436-.079-.0855-.1845-.1573-.3163-.2151l-.1055 1.2456c.3625-.073.5438-.302.5438-.687ZM6.6736 5.972c0 .1485.0406.2693.122.3624.0834.0906.1922.1674.3262.2303l.0989-1.14c-.1011.0176-.1868.044-.2571.0793-.0681.0327-.1241.073-.168.1208a.4637.4637 0 0 0-.0924.1623.5683.5683 0 0 0-.0296.185Zm9.9945 3.095-.0096-.0071C16.2744 9.1994 16 9.5677 16 10c0 .5523.4477 1 1 1s1-.4477 1-1-.4477-1-1-1a.999.999 0 0 0-.327.0547l-.0049.0122Zm3.1458-4.6639a8.3657 8.3657 0 0 0-1.8407 1.941c1.1365.9346 1.8721 2.343 2.0051 3.9032l1.1457.1432a1 1 0 0 1 .876.9923v2.2344a.9999.9999 0 0 1-.876.9923l-1.757.2196c-.5014 1.1246-1.2868 2.0757-2.3057 2.7053l.6705 1.1613c.4142.7175.1684 1.6348-.549 2.0491-.7175.4142-1.6349.1684-2.0491-.5491l-1.045-1.81a29.4202 29.4202 0 0 1-4.1223.0744L8.904 20.3003c-.4142.7174-1.3316.9632-2.049.549-.7175-.4142-.9633-1.3316-.549-2.049l.4326-.7494C4.4084 17.3279 3 15.0042 3 12.4514v-.2612C4.168 13.3111 5.7536 14 7.5001 14c3.5897 0 6.5-2.9103 6.5-6.5a6.482 6.482 0 0 0-.4719-2.436 42.168 42.168 0 0 1 1.699.1383c.0904.0091.1798.0205.2684.0341a3.055 3.055 0 0 1 .3744-.678c.8885-1.2156 2.5163-1.587 3.892-.9812.3413.1502.3484.5999.0519.826Z" fill="currentcolor"/></svg>