<svg viewBox="0 0 24 24" fill="none" xmlns="http://www.w3.org/2000/svg"><path fill-rule="evenodd" clip-rule="evenodd" d="M13.4831 15.6385c1.5224 1.0661 1.8939 3.1715.8275 4.6942-1.0655 1.5223-3.1706 1.8941-4.693.828-1.5223-1.0661-1.8936-3.1718-.8278-4.6938.1782-.2547.3873-.4738.6155-.6622.063-.2357.1389-.5179.2246-.8367l.1586-.5898-.8017.2153-.6249.1679c-.1887.2278-.4077.4369-.6621.6154-1.5221 1.0658-3.6278.6946-4.6939-.8278-1.0658-1.522-.6946-3.6277.8275-4.6935 1.5224-1.0661 3.628-.6949 4.6941.8275.0475.0681.0897.1389.1316.2093l.0057.0097 2.1603-.368c.7381-2.7249 1.5127-5.5587 1.8188-6.588.4642-1.5598 1.7166-1.766 2.4067-1.7539.2665.0047.437.2532.3923.5159L13.264 15.5012l.0125.0074c.0695.0414.1391.0828.2066.1299Zm-9.2285-1.9637c.5839.8333 1.737 1.0366 2.5707.453.8336-.5836 1.0366-1.737.453-2.5706-.5836-.8336-1.7368-1.0369-2.5707-.4531-.8336.5836-1.0369 1.7368-.453 2.5707Zm7.2482-2.1921a.8348.8348 0 1 0 1.1807 1.1806.8348.8348 0 0 0-1.1807-1.1806Zm-1.464 5.8581c-.5842.8336-.3809 1.9868.4527 2.5704.834.5839 1.9868.3809 2.5713-.4531.5833-.8339.3803-1.9867-.4536-2.5706-.8336-.5842-1.9871-.3806-2.5704.4533Zm11.9349-8.2257c.0122.6902-.1938 1.9429-1.7536 2.4071-.8252.2455-2.8122.7926-4.9724 1.38-.3523.0958-.6851-.2063-.6238-.5662l.3699-2.1728a.5001.5001 0 0 1 .409-.409l6.055-1.0313c.2627-.0447.5111.1258.5159.3922Z" fill="currentcolor"/></svg>