<svg viewBox="0 0 24 24" fill="none" xmlns="http://www.w3.org/2000/svg"><path fill-rule="evenodd" clip-rule="evenodd" d="M11.5268 21.7041a.9998.9998 0 0 0 1.0122-.0022l2.8744-1.6952c1.3976-.825 2.5543-1.9905 3.358-3.3834.8036-1.3929 1.2268-2.966 1.2286-4.5667V5.3877a.7644.7644 0 0 0-.1416-.4436.787.787 0 0 0-.375-.284l-7.1699-2.605a.7785.7785 0 0 0-.5758 0l-7.2408 2.965a.7863.7863 0 0 0-.36.2833A.7641.7641 0 0 0 4 5.7361v6.3205c.0052 1.6013.432 3.174 1.2392 4.5656.807 1.3916 1.967 2.5548 3.3672 3.3767l2.9204 1.7052ZM11.6042 6.75c-1.3807 0-2.5 1.1193-2.5 2.5v1.5h-.0285c-.5523 0-1 .4477-1 1v2.8785c0 .6846.4644 1.2792 1.1406 1.3864.7349.1165 1.7691.2351 2.9352.2351 1.166 0 2.2002-.1186 2.9351-.2351.6762-.1072 1.1406-.7018 1.1406-1.3864V11.75c0-.5523-.4477-1-1-1h-.0284v-1.5c0-1.3807-1.1193-2.5-2.5-2.5h-1.0946Zm2.5946 2.5v1.5h-4.0946v-1.5c0-.8284.6715-1.5 1.5-1.5h1.0946c.8285 0 1.5.6716 1.5 1.5Zm-2.0473 3a.5.5 0 0 1 .5.5v1a.5.5 0 0 1-1 0v-1a.5.5 0 0 1 .5-.5Z" fill="currentcolor"/></svg>