<svg viewBox="0 0 24 24" fill="none" xmlns="http://www.w3.org/2000/svg"><path fill-rule="evenodd" clip-rule="evenodd" d="M16.4351 2.7895c.3906-.3905 1.0237-.3905 1.4142 0l2.8285 2.8284c.3905.3905.3905 1.0237 0 1.4142-.3905.3905-1.0237.3905-1.4142 0l-.7746-.7745-.6585.6585 2.448 2.448a.5.5 0 0 1 0 .7072l-.7071.7071a.5.5 0 0 1-.7071 0l-.2596-.2596-7.0508 7.0422-.1887-.1889c.1884.1891.1878.1897.1872.1903l-.0019.002-.0039.0038-.0083.008-.0179.0168a1.355 1.355 0 0 1-.1513.1186 1.5591 1.5591 0 0 1-.3242.1664c-.2705.102-.6076.1495-1.0027.0896-.5898-.0894-1.2665-.4094-2.0614-1.0672L5.1212 19.76c-.3906.3906-1.0237.3906-1.4142 0-.3906-.3905-.3906-1.0236 0-1.4142l2.8592-2.8592c-.6605-.7969-.9816-1.4752-1.0712-2.0662-.0599-.395-.0124-.7322.0896-1.0027a1.566 1.566 0 0 1 .1664-.3242 1.3521 1.3521 0 0 1 .1186-.1513l.0168-.0179.008-.0083.0039-.0039.0019-.0019c.001-.001.0019-.0019.7084.7047l-.7066-.7066.0005-.0004 7.0499-7.0414-.4559-.456a.5.5 0 0 1 0-.707l.7071-.7071a.5.5 0 0 1 .7071 0l2.4801 2.48.6585-.6585-.6142-.6142c-.3905-.3905-.3905-1.0237 0-1.4142Zm-2.0685 3.4912-1.8369 1.8348 1.1894 1.1894a.5.5 0 0 1 0 .7072l-.7071.7071a.5001.5001 0 0 1-.7071 0l-1.1903-1.1904-.5863.5855 1.1359 1.1359a.5.5 0 0 1 0 .7071l-.7071.7071a.5.5 0 0 1-.7071 0l-1.1367-1.1367-1.6336 1.6315c.0436.1947.2515.7252 1.175 1.6487.924.9241 1.4546 1.1316 1.649 1.175l6.8868-6.8783-2.8239-2.8239Z" fill="currentcolor"/></svg>