<svg viewBox="0 0 24 24" fill="none" xmlns="http://www.w3.org/2000/svg"><path fill-rule="evenodd" clip-rule="evenodd" d="M5.2037 5.2185C3.2229 5.4665 2 7.2216 2 9.2178V17c0 .5523.4477 1 1 1h1v-.0008C4 16.3441 5.3428 15 7 15s3 1.3441 3 2.9992V18h4v-.0008C14 16.3441 15.3428 15 17 15s3 1.3441 3 2.9992V18h1c.5523 0 1-.4477 1-1v-2.1691a3 3 0 0 0-.4275-1.5434l-1.6986-2.831A3 3 0 0 0 17.3014 9H16V7.2443c0-.7985-.482-1.5082-1.2599-1.6883C13.6247 5.2977 11.7439 5 9 5c-1.5272 0-2.787.0922-3.7963.2185ZM16 10.6a.1.1 0 0 1 .1-.1h1.6756c.3666 0 .7038.2006.8788.5227l1.2654 2.3296a.1.1 0 0 1-.0879.1477H16.1a.1.1 0 0 1-.1-.1v-2.8ZM7 20c1.1048 0 2-.8961 2-2.0006C9 16.8961 8.1048 16 7 16s-2 .8961-2 1.9994C5 19.1039 5.8952 20 7 20Zm10 0c1.1048 0 2-.8961 2-2.0006C19 16.8961 18.1048 16 17 16s-2 .8961-2 1.9994C15 19.1039 15.8952 20 17 20Z" fill="currentcolor"/></svg>