<svg viewBox="0 0 24 24" fill="none" xmlns="http://www.w3.org/2000/svg"><path fill-rule="evenodd" clip-rule="evenodd" d="M20.3497 8c.229 0 .3292-.2727.1437-.4069-.7815-.5652-1.8946-1.1277-2.9626-1.2273-1.0977-.1025-2.2038-.1837-3.609-.2221 0-.0043-.4399-1.4515-.4399-1.4515S13 4 12 4s-1.4821.6922-1.4821.6922c-.0163.0815-.0895.3036-.1723.5548-.1123.341-.2423.7355-.2719.9052-.9097.0256-2.1354.094-3.596.2264-1.0698.1029-2.1844.6561-2.9668 1.215-.1866.1334-.087.4064.1424.4064h16.6964Zm1.2939 2.4298C21.5 10 21.1226 9.147 20.4179 9.0474c-5.518-.7846-11.1257-.7721-16.8274.0083-.709.0955-1.0905.9443-1.2386 1.3824C2.352 10.4381 2 11.5 2 14c0 2.2802.2928 3.3125.3442 3.4765l.005.0158a4.634 4.634 0 0 1 .01.0316c.1541.5019.5724 1.3014 1.2996 1.3668l5.9836.5189c.4869 0 .9182-.3072 1.0592-.7597l.2349-.7514c.3203-1.0171 1.8023-1.0171 2.1226 0l.2349.7514c.1409.4525.5723.7597 1.0592.7597l5.9835-.5189c.5211-.0457 1.0977-.959 1.3069-1.3907 0 0 .3564-.5.3564-3.5s-.3564-3.5702-.3564-3.5702Z" fill="currentcolor"/></svg>