<svg viewBox="0 0 24 24" fill="none" xmlns="http://www.w3.org/2000/svg"><path fill-rule="evenodd" clip-rule="evenodd" d="M12.0041 17.7019a1.2532 1.2532 0 0 0-.693.2118 1.2455 1.2455 0 0 0-.4584.5593 1.2397 1.2397 0 0 0-.0693.7186c.0488.2411.1681.4624.3431.636.1749.1736.3976.2916.6399.3393.2423.0476.4934.0227.7215-.0716a1.2484 1.2484 0 0 0 .5601-.4583 1.2405 1.2405 0 0 0 .2103-.6908 1.2437 1.2437 0 0 0-.3683-.8808 1.2558 1.2558 0 0 0-.8859-.3635Zm0-8.7235a10.1048 10.1048 0 0 0-3.8689.7515 10.0703 10.0703 0 0 0-3.2824 2.1733 1.197 1.197 0 0 0-.264.3901 1.1933 1.1933 0 0 0 .264 1.3125c.2288.227.5386.3545.8617.3545.323 0 .6328-.1275.8616-.3545 1.4327-1.4508 3.3848-2.2765 5.428-2.296 2.0356.0254 3.9786.8506 5.4058 2.296.2291.2265.5389.3536.8617.3536s.6326-.1271.8617-.3536c.113-.1114.2027-.244.2639-.3901a1.192 1.192 0 0 0 0-.9224 1.1966 1.1966 0 0 0-.2639-.3901 10.0701 10.0701 0 0 0-3.2722-2.169 10.1047 10.1047 0 0 0-3.857-.7558Zm0 4.3551a5.61 5.61 0 0 0-2.1956.4477 5.5906 5.5906 0 0 0-1.8426 1.2704 1.195 1.195 0 0 0-.3348.8292c0 .309.12.6061.3348.8291a1.1128 1.1128 0 0 0 .8095.3481 1.1127 1.1127 0 0 0 .8094-.3481 3.2683 3.2683 0 0 1 1.0969-.7885 3.281 3.281 0 0 1 2.6472 0 3.2688 3.2688 0 0 1 1.0968.7885 1.1154 1.1154 0 0 0 1.6167 0c.215-.2234.335-.5208.335-.8302 0-.3095-.12-.6069-.335-.8303a5.5889 5.5889 0 0 0-1.8428-1.2694 5.6087 5.6087 0 0 0-2.1955-.4465Zm9.6619-5.1832a13.2818 13.2818 0 0 0-4.4005-3.0685A13.332 13.332 0 0 0 12.0041 4c-1.8094 0-3.5998.3681-5.2613 1.0818a13.2827 13.2827 0 0 0-4.4006 3.0685A1.2392 1.2392 0 0 0 2 9.0049c0 .318.1225.624.3422.8547a1.135 1.135 0 0 0 .825.3544 1.135 1.135 0 0 0 .825-.3544c2.1392-2.2141 4.9855-3.3212 8.0053-3.3212 3.0197 0 5.8727 1.0938 8.0052 3.3212a1.137 1.137 0 0 0 .825.3533 1.1376 1.1376 0 0 0 .825-.3533A1.2437 1.2437 0 0 0 22 9.0076a1.2438 1.2438 0 0 0-.334-.8573Z" fill="currentcolor"/></svg>