<svg viewBox="0 0 24 24" fill="none" xmlns="http://www.w3.org/2000/svg"><path fill-rule="evenodd" clip-rule="evenodd" d="M14.5 2.1917V6a.5.5 0 0 0 .5.5h3.9075c.0299.1424.0568.2856.0807.429A.8783.8783 0 0 1 19 7.072v2.0264C18.0102 9.0405 16.7076 9 15 9c-3.8062 0-5.6003.2012-6.4034.3483C8.224 9.4167 8 9.7393 8 10.118v6.764c0 .3787.224.7014.5966.7696C9.3996 17.7988 11.1938 18 15 18c1.7076 0 3.0102-.0405 4-.0984v1.8623c0 .7576-.4361 1.4368-1.1695 1.6268C16.7477 21.6712 14.8671 22 12 22c-2.867 0-4.7477-.3288-5.8305-.6093C5.436 21.2007 5 20.5215 5 19.7639V4.236c0-.7575.4361-1.4367 1.1695-1.6267C7.2522 2.3288 9.1329 2 12 2c.9568 0 1.7855.0732 2.5.1917Zm1 .2112V5.5h3.1369c-.4617-1.3642-1.2868-2.5286-2.6785-2.9656a9.682 9.682 0 0 0-.4584-.1315Zm-4.4014 12.1567h2.1504v.706H10V14.75l2.1094-3.0381h-2.1065V11h3.1992v.5039l-2.1035 3.0557Zm3.735.706h-.8789V11h.8789v4.2656Zm1.7896 0v-1.5029h.7705c.5059 0 .9014-.1201 1.1865-.3604.2871-.2421.4307-.5722.4307-.9902 0-.2754-.0654-.5205-.1963-.7353-.1309-.2168-.3184-.3838-.5625-.501-.2422-.1172-.5234-.1758-.8438-.1758h-1.664v4.2656h.8789Zm.7851-2.2148h-.7851v-1.3389h.8057c.2168.0039.3867.0703.5097.1992.1231.1289.1846.2979.1846.5069 0 .2031-.0615.3593-.1846.4687-.1211.1094-.2978.1641-.5303.1641Z" fill="currentcolor"/></svg>