<svg viewBox="0 0 24 24" fill="none" xmlns="http://www.w3.org/2000/svg"><path fill-rule="evenodd" clip-rule="evenodd" d="M3 12c0 4.9706 4.0294 9 9 9s9-4.0294 9-9-4.0294-9-9-9-9 4.0294-9 9Zm9-10C6.4771 2 2 6.4771 2 12c0 5.5228 4.4771 10 10 10 5.5228 0 10-4.4772 10-10 0-5.5229-4.4772-10-10-10Zm-8 9.5C4 7.3579 7.3579 4 11.5 4h1c4.1421 0 7.5 3.3579 7.5 7.5v1c0 4.1421-3.3579 7.5-7.5 7.5h-1C7.3579 20 4 16.6421 4 12.5v-1ZM15 7c0 .5523-.4477 1-1 1s-1-.4477-1-1 .4477-1 1-1 1 .4477 1 1Zm-5.7548.7033c1.0937.0791 2.0081.899 2.2411 2.0093l.059.2812c.0577.2748.3193.4503.5844.392.265-.0584.4331-.3284.3755-.6033l-.059-.2811c-.3262-1.5545-1.6064-2.7023-3.1375-2.813l-.277-.02c-.2707-.0196-.5043.1918-.5218.472-.0175.2803.1877.5234.4584.543l.277.02Zm7.2217 1.2279a.4863.4863 0 0 1 .6346.2928l1.0473 2.9483c.0924.2602-.0418.551-.2998.6494a.486.486 0 0 1-.6345-.2929l-1.0473-2.9482c-.0925-.2602.0417-.551.2997-.6494ZM5 10.5a.5.5 0 0 1 .5-.5h3a.5.5 0 0 1 0 1h-3a.5.5 0 0 1-.5-.5Zm5.5 7.25a2.4999 2.4999 0 0 1 3 0l.2.15a.5.5 0 0 0 .6-.8l-.2-.15c-1.2444-.9333-2.9555-.9333-4.2 0l-.2.15a.5.5 0 0 0 .6.8l.2-.15Zm3.5248-4.9674a3.4998 3.4998 0 0 1-3.2071.8143l-.0452-.0112a.5.5 0 1 1 .2413-.9704l.0452.0112a2.5 2.5 0 0 0 2.2908-.5817l.1789-.1637a.5.5 0 0 1 .6751.7378l-.179.1637ZM16 16c.5523 0 1-.4477 1-1s-.4477-1-1-1-1 .4477-1 1 .4477 1 1 1Zm-8-2c0 .5523-.4477 1-1 1s-1-.4477-1-1 .4477-1 1-1 1 .4477 1 1Z" fill="currentcolor"/></svg>