<svg viewBox="0 0 4685 3265" xmlns="http://www.w3.org/2000/svg" fill="none"><path fill="#EB3C96" d="M1034 1036a74 74 0 01-43-69l20-313c2-28 21-64 43-81l183-145c22-17 56-15 75 5l306 309c19 20 33 58 31 85l-22 238c-3 27-21 38-55 51 0 0-199 88-221 94-22 5-28 11-75-19l-242-155zm339 567c-18-16-21-13-30-13-10 1-99 25-99 25-15 3-24 6-27 17l-25 98c-3 12 0 29 7 38l107 150c7 10 21 13 31 7l87-48c10-6 21-20 23-31l30-130c3-11-3-26-13-32l-91-81zM790 3086c24 22 28 19 41 18s135-34 135-34c21-4 32-8 36-24l35-134c4-15 0-39-10-52l-147-205c-9-13-28-17-42-10l-119 66c-14 8-28 27-32 43l-41 178c-3 15 5 35 19 43l125 111zM30 1739c-29 20-27 25-29 39s0 151 0 151c0 22 1 35 17 43l132 71c15 8 41 10 57 3l254-101c16-6 25-25 21-42l-40-141c-4-17-20-37-36-44l-176-89c-16-8-39-4-51 8L30 1739zm139 374c-56 20-54 29-64 51s-64 250-64 250c-11 37-14 60 8 80l189 174c21 20 64 33 93 29l464-59c30-4 53-31 53-61l-4-250c-1-30-19-70-42-90l-254-222a80 80 0 00-87-8l-292 106zm1416 1021c35 22 39 17 55 14 17-4 165-69 165-69 25-9 39-17 41-37l18-176c2-21-9-49-23-64l-225-231a43 43 0 00-55-4l-137 106a95 95 0 00-32 60l-18 233c-1 20 13 43 32 51l179 117zm730-1851c18 12 21 9 29 7 9-2 87-36 87-36 13-5 21-9 21-20l10-92c1-11-4-26-12-34l-119-121c-7-8-20-9-29-2l-72 56c-8 6-16 20-17 31l-9 123c-1 10 7 22 17 26l94 62zm-147-513c45 33 51 27 73 23 22-3 227-78 227-78 34-10 53-20 57-47l39-234c4-27-7-66-25-87L2256 19a57 57 0 00-74-10l-192 131c-23 16-45 51-48 78l-42 310c-4 27 13 59 38 71l230 171zm560 2027c-6-25-10-25-19-30s-105-40-105-40c-15-6-25-9-35 0l-84 72c-10 8-17 26-17 39l2 202c0 13 11 24 23 25l109 11c13 1 31-5 40-13l109-99c9-8 13-25 8-37l-31-130zm-754-648c31 16 34 12 48 8 13-4 135-68 135-68 20-10 32-17 32-35l4-150c0-17-11-41-24-52l-205-181a36 36 0 00-47 0l-109 99a81 81 0 00-24 53l1 197c0 18 14 36 30 41l159 88zM908 2273c27 35 33 32 51 34s191-9 191-9c29-1 46-4 55-24l82-171c9-20 9-52 0-72l-144-315c-9-20-33-30-54-24l-177 58c-21 7-45 29-54 49l-101 229c-9 19-3 48 13 63l138 182zM214 1145c-43 15-42 22-50 38-7 17-53 189-53 189-9 28-12 45 5 60l140 136c16 15 48 26 70 24l353-36c23-2 41-22 42-45l1-190c0-23-13-53-29-69l-190-173a61 61 0 00-66-8l-223 74zm2855-786c-22-45-29-43-48-49-19-7-213-34-213-34-32-6-51-6-66 14l-129 169c-15 20-23 56-17 80l85 379c6 24 30 41 55 38l208-23c24-2 56-21 71-41l164-228c14-20 14-53 0-73l-110-232zm-1394 796c-39-24-44-19-62-15-18 5-184 78-184 78-28 11-43 20-45 42l-19 197c-2 23 10 55 26 71l254 257c16 16 44 18 62 3l152-119c18-15 34-45 36-68l17-260c1-22-15-48-36-57l-201-129zm-590 493c43 14 46 7 62-1 16-9 155-119 155-119 23-17 36-29 32-51l-32-191c-4-22-23-49-42-61l-303-180c-20-11-46-6-60 12l-114 151c-14 18-21 51-17 73l48 250c5 22 26 42 49 45l222 72zm821-400c38 24 42 19 60 15 17-5 178-76 178-76 27-10 42-19 43-41l19-191c1-22-10-52-26-68l-245-248a46 46 0 00-60-4l-148 116c-17 14-33 43-34 65l-17 252c-1 22 15 47 35 55l195 125zm-467 1234c30 38 36 35 56 36 19 2 209-14 209-14 32-2 50-5 60-27l85-190c10-22 9-57-1-79l-165-341a50 50 0 00-60-25l-193 68c-23 8-49 32-58 54l-106 253c-9 22-2 53 17 69l156 196zm228-2341c-35-22-39-17-55-14-16 4-164 70-164 70-25 10-39 17-41 38l-16 176c-2 20 9 49 23 63l227 229c14 15 39 17 55 4l136-107c16-13 30-40 32-60l15-233c2-20-13-43-32-51l-180-115zM694 555c-37-19-41-14-56-9-16 6-158 85-158 85-24 12-36 21-36 41v177c0 20 13 48 28 61l248 207c15 13 40 13 55-2l126-119c14-14 26-42 25-63l-6-232c0-21-17-42-36-48l-190-98zm1506 694c-35-23-39-18-55-14-17 4-165 70-165 70-25 9-38 17-40 38l-17 175c-1 21 9 49 23 64l227 229c14 15 40 16 55 4l137-108c16-12 30-39 31-60l16-232c1-21-13-43-32-51l-180-115zm-964 1089c-29-29-34-25-51-25s-175 34-175 34c-27 4-42 9-48 28l-53 169c-6 19-2 49 9 67l174 271c11 17 35 24 53 15l156-76c18-9 38-33 44-52l63-224c6-20-3-46-20-57l-152-150zm-494-705c-15-24-19-22-30-24s-120-3-120-3c-19-2-29 0-36 12l-60 103c-7 12-8 33-4 46l76 205c4 13 19 21 33 17l114-28c13-3 30-15 36-28l75-138c7-13 4-31-5-41l-79-121zm2883 495c-13-56-22-56-41-68-20-12-231-93-231-93-34-15-55-21-77-2l-190 157c-22 18-40 57-40 85l-3 449c0 28 23 54 51 58l240 28c28 3 69-9 90-28l245-214c21-19 30-56 19-82l-63-290zm-1628 801c40 46 48 41 72 43 25 2 263-27 263-27 40-2 63-8 74-36l101-242c11-28 9-73-5-99l-220-424a63 63 0 00-77-29l-240 92c-29 11-61 43-71 71l-124 323c-11 28-1 67 23 86l204 242zm2169-1303c-5-28-9-28-18-34-10-7-110-51-110-51-16-9-27-12-38-4l-96 72c-12 8-21 27-22 40l-14 219c0 14 10 27 24 29l116 20c14 3 34-2 45-11l125-98c11-8 16-26 11-39l-23-143zM2813 2933c-29 35-24 40-22 58s54 184 54 184c7 28 14 44 35 48l187 41c22 4 54-3 71-17l276-213c17-13 22-40 11-58l-98-160c-12-19-39-37-61-41l-247-47c-22-4-48 9-59 28l-147 177zM2612 950c19-14 18-17 19-27 2-9-1-101-1-101 0-16-1-24-12-30l-89-46c-11-6-28-6-39-2l-170 71c-11 4-17 17-14 28l28 95c3 11 14 24 25 30l119 58c11 5 26 2 34-6l100-70zm-46 542c-21-7-23-4-31 0-9 4-80 58-80 58-13 8-19 14-17 25l13 97c1 11 10 25 20 31l151 96c9 6 23 4 30-5l60-75c7-9 11-25 10-36l-21-128c-2-11-13-21-24-23l-111-40zm1806 1096c28 4 29 0 38-7s81-89 81-89c13-12 19-21 15-34l-39-113c-5-13-19-27-32-32l-204-77c-12-5-28 1-34 13l-54 104c-6 12-7 32-2 45l55 147c5 13 20 23 34 22l142 21zm-325-591c-18-35-23-33-39-38-15-4-169-21-169-21-25-4-40-4-51 12l-99 137a89 89 0 00-12 63l77 298c4 19 24 32 44 30l164-23c19-3 44-19 55-35l125-184c11-16 10-42-2-57l-93-182zm-814-401c-11-47-18-47-35-57-16-10-193-78-193-78-28-12-46-17-64-2l-160 132c-18 15-33 47-33 71l-3 376c0 24 19 46 43 48l201 24c24 3 58-8 76-23l205-179c18-16 25-47 16-69l-53-243zm95 229c8 50 16 49 33 61 17 11 197 90 197 90 29 14 48 20 68 5l171-130c20-15 37-48 39-72l20-392c1-25-18-48-42-52l-209-34c-24-4-60 5-80 21l-221 177a66 66 0 00-20 70l44 256zm-781 798c9 42 16 42 31 51s172 69 172 69c26 12 42 16 58 2l142-117c17-14 30-43 30-64l3-336c0-21-17-41-39-44l-179-21c-21-2-52 7-68 21l-183 160a57 57 0 00-14 62l47 217zm978 441c11 50 19 49 36 60 18 10 204 82 204 82 30 13 49 18 68 2l167-139c20-16 36-50 36-75l2-395c1-26-20-48-45-51l-212-25c-25-3-60 8-80 25l-215 188a68 68 0 00-17 72l56 256zm-556-1736c10 47 18 46 34 57 17 11 194 81 194 81 29 13 47 18 65 2l162-131c19-15 34-47 35-71l6-379c0-24-19-46-42-49l-203-26c-24-3-58 7-76 23l-209 178a65 65 0 00-16 69l50 246zm-73-201c-1-37-6-37-17-48-11-10-132-89-132-89-19-14-32-21-48-12l-141 73c-16 9-33 30-37 48l-62 282c-4 18 6 37 24 43l147 50c17 6 45 3 60-5l183-102c16-9 27-31 23-49v-191zm1762 981c30-29 27-34 27-50 0-17-27-176-27-176-3-26-8-41-27-48l-166-59c-19-6-50-3-67 7l-278 162a42 42 0 00-16 53l70 157c9 19 31 39 51 45l221 72c19 6 45-2 57-19l155-144zM3858 928c-6-34-11-34-22-41-12-8-133-63-133-63-20-10-32-14-46-4l-117 87a76 76 0 00-26 49l-16 265c-1 16 11 32 28 35l141 25c16 3 41-4 54-14l151-118c13-11 19-32 14-48l-28-173zm-1367 845c-30-22-33-21-49-15l-153 55c-23 9-35 18-38 33l-22 160c-3 18 5 45 18 58l196 218c12 14 35 17 50 6l128-92c15-11 30-34 32-53l24-210c2-19-12-37-27-48l-159-112z"/></svg>
