<svg xmlns="http://www.w3.org/2000/svg" fill="none" viewBox="0 0 2597 1681"><path fill="#01884C" d="M640 568c2 27-2 33-27 37s-72 7-99 8c-28 1-35 0-52-9-17-8-43-23-56-33-14-10-14-16-4-38s32-60 46-81 21-24 45-25c25-1 67 1 91 5 24 3 29 8 37 35 7 27 16 75 19 101zm67-491c-28-54-38-64-67-69-28-5-76-5-104 0-27 5-34 16-42 70a5025 5025 0 00-28 289c0 13 0 25 3 32 3 8 8 10 31 13 22 2 62 4 88 4a950 950 0 00203-51c31-14 33-26 12-81-22-55-68-153-96-207zM510 702c-32-59-40-72-57-85-16-13-40-26-55-33-15-6-22-6-44 0-22 5-59 17-76 30-18 13-14 28 20 99s98 198 137 267c38 69 49 77 82 74s84-25 110-43c25-18 26-30-2-88-27-58-83-163-115-221zm-233 17c-40-71-54-85-92-95-38-11-101-19-136-16S8 625 4 704c-4 80-6 224 0 305 5 80 17 96 81 106s180 13 244 14c65 1 77 0 92-6 16-6 28-18 31-32s-2-29-36-101c-35-72-100-200-139-271zm357 785c-17-36-25-48-55-85s-82-100-113-128c-31-29-41-23-71 42s-79 188-100 256-12 78 55 85c67 8 195 5 265 0s80-10 71-42c-8-33-35-92-52-128zm168-279c35-45 43-59 52-90s19-80 22-107-2-32-33-31c-31 0-87 7-122 12-34 4-47 7-80 19l-120 48a164 164 0 00-84 61c-8 9-9 14-9 26s2 31 6 45 10 22 39 58c30 37 82 100 114 130 33 31 46 29 83-10s98-116 132-161zm40 251a1737 1737 0 007-232c-3-32-9-31-43 6-34 38-96 112-128 156-33 44-36 58-25 95 12 38 38 98 54 132 16 33 21 39 36 44 16 4 40 4 54 0 14-5 18-12 25-51l20-150zM1067 54c1-35-9-42-68-46-59-3-168-4-225 0-58 5-64 15-44 69a3222 3222 0 00138 285c9 11 22 22 31 26 10 4 15 0 37-23 21-24 57-69 77-98 20-28 25-40 33-77 8-38 20-101 21-136zM924 462c-18-34-23-43-32-53-10-10-23-23-34-29s-20-5-55 4-96 26-130 39c-33 12-38 19-37 45 2 26 10 71 19 98s19 35 68 53c50 18 138 45 188 60 49 14 58 15 69 7 10-7 18-24 20-37s1-21-14-56-45-96-62-131zm29 307c5-41-2-52-51-71-48-18-137-45-189-60-51-15-65-18-93-18-29-1-72 1-93 7-21 7-20 18 7 75s80 160 113 217c33 56 44 64 81 68 37 3 97-5 131-13 34-9 43-16 56-55 14-39 32-109 38-150zm566-308c11-10 12-19 5-52-7-34-21-93-36-126-15-32-30-38-96-40-67-1-186 1-253 5-68 4-85 9-111 35-26 25-60 70-78 98s-19 39-6 75c12 35 39 95 60 126 21 32 37 34 105 18a4102 4102 0 00357-108c19-9 41-21 53-31zm438-289c-4 0-7 2-8 7s25 164 34 204 16 42 49 27c32-15 89-54 119-76 31-22 35-26 29-34-26-27-218-127-223-128zm177-119c-2-40-7-48-35-51-27-3-77-2-104 0-27 3-32 7-34 30-1 24 1 66 4 91 4 25 9 32 35 51s74 48 101 60c26 12 31 8 33-30 2-39 2-111 0-151zm-203 418c35-30 41-41 38-83s-14-114-25-149c-11-36-23-35-83 3-59 39-166 116-223 160-56 44-60 55-38 83s75 69 108 89c34 20 45 20 83-4 38-23 104-70 140-99zm15-434c-7-22-21-26-96-29-76-2-212-3-287 0-75 4-89 10-90 44a1550 1550 0 0069 342c14 29 28 26 91-15 64-41 177-123 239-170 62-48 73-60 78-86 5-25 4-64-4-86zm643 527c-7-142-18-170-78-191-60-20-169-33-233-39-64-7-83-6-119 13-36 18-89 55-123 78l-89 60c-40 27-107 72-141 101-35 29-37 41-23 71s44 78 72 111c28 34 53 52 166 131 113 80 314 219 426 282 111 64 132 51 142-83 9-135 7-392 0-534zm-1080 677c-72-85-86-102-98-110-11-8-20-7-28-7-9 0-17 0-49 4-31 3-85 11-116 18-30 7-35 14-37 43-2 28 1 77 3 110 3 32 5 48 8 104 4 56 9 151 21 203 13 53 33 61 135 68 103 7 288 8 385 0 96-8 102-23 40-108s-192-239-264-325zm1080 135c-11-65-32-90-144-170-111-80-312-215-430-285s-152-75-229-35c-78 40-198 125-258 180s-59 80 3 169c63 90 188 244 268 329 80 86 112 100 229 110 117 11 313 8 421 0 107-8 129-18 140-74 11-57 11-160 0-224zm-1429-191c-5-30-12-41-52-70-39-29-110-77-150-100s-49-22-58 6a964 964 0 00-33 203c-1 40-3 106 0 142 4 35 13 39 59 30 47-9 132-34 179-51 46-17 55-24 58-53 3-28 1-77-3-107zm600-524c-22-30-31-41-62-68-30-27-83-70-113-93-31-23-40-26-55-21-15 4-37 15-50 30-14 15-19 34-32 126-14 93-36 259-47 351s-12 110-8 119 12 9 24 5c11-4 25-12 94-58 69-47 193-131 259-181 67-51 76-66 63-98-14-32-50-81-73-112zm-435 447c31-12 38-30 54-121s40-256 46-345c7-89-3-103-67-91-65 12-183 50-249 71-67 22-81 27-91 38s-17 28-22 42c-6 13-9 24-20 64-12 40-31 110-38 151-7 42 0 53 37 84 37 30 106 74 147 98 42 24 55 28 88 27s85-6 115-18zm-199 566c57-4 66-13 66-65 0-51-10-144-20-194s-19-57-66-48c-48 9-133 34-180 51s-55 26-66 65-20 106-19 143c0 37 9 44 66 48s162 5 219 0z"/></svg>
