<svg viewBox="0 0 24 24" fill="none" xmlns="http://www.w3.org/2000/svg"><path fill-rule="evenodd" clip-rule="evenodd" d="m16 4 2.739-1.0996c.2181-.0883.4714.007.565.2125l.6611 1.755c.0937.2062-.008.4448-.2261.5331L17 6.5c-.2182.0884-.4715-.0069-.5651-.2124l-.6611-1.755c-.0937-.2062.0074-.4449.2262-.5326Zm-2.5001-.5L9.4322 5.3169a.7128.7128 0 0 0-.374.937l1.187 2.766c.156.362.575.53.938.374l4.0667-1.8157c.363-.156.531-.575.375-.937l-1.187-2.766c-.156-.362-.576-.53-.938-.375ZM8.6317 15.7793c1.7728-.7529 3.8225.0688 4.5839 1.84a3.53 3.53 0 0 1 .1155.3077c.1382.0477.2842.0732.4331.0732.188 0 .3717-.0407.5401-.1156l6.6956-2.8844.0015-.0007c.6956-.3138 1.0184-1.1566.7198-1.8862l-.0007-.0018c-.3007-.7301-1.1074-1.0639-1.8029-.7548l-5.5867 2.3876c-.4658-.5876-1.0673-1.047-1.7611-1.3368l-.0015-.0007c-.6831-.2838-1.4093-.3842-2.1215-.3021L6.4999 4.4717l-.0014-.0033c-.1428-.344-.4108-.6216-.751-.7636a1.3184 1.3184 0 0 0-1.0533.0132l-1.4265.6396-.0028.0013c-.696.315-1.017 1.1577-.7188 1.8864.3.7333 1.1109 1.0657 1.8061.7548l.1626-.0729 3.8757 8.4581c.0599.1456.1417.2783.2412.3939Zm3.1651 2.7347c.5442 1.2682-.0424 2.7378-1.3106 3.283-1.2682.5442-2.7388-.0425-3.283-1.3106-.5442-1.2682.0424-2.7379 1.3106-3.2831 1.2682-.5442 2.7378.0425 3.283 1.3107Zm1.6037-9.22 5.5362-2.243c.3362-.1362.7246.0108.8689.3272l1.1405 2.5074c.1444.3174-.0114.6849-.3475.8203l-5.5353 2.2438c-.3352.1354-.7246-.0108-.8689-.3272l-1.1405-2.5083c-.1444-.3173.0114-.684.3466-.8202Z" fill="currentcolor"/></svg>