<svg viewBox="0 0 24 24" fill="none" xmlns="http://www.w3.org/2000/svg"><path fill-rule="evenodd" clip-rule="evenodd" d="M14.5 6V2.1917C13.7855 2.0732 12.9568 2 12 2c-2.867 0-4.7477.3288-5.8305.6093C5.436 2.7993 5 3.4785 5 4.2361v15.5278c0 .7576.4361 1.4368 1.1695 1.6268C7.2522 21.6712 9.1329 22 12 22c2.8671 0 4.7477-.3288 5.8305-.6093.7334-.19 1.1695-.8692 1.1695-1.6268V7.0719a.8783.8783 0 0 0-.0118-.143 10.458 10.458 0 0 0-.0807-.4289H15a.5.5 0 0 1-.5-.5Zm1-.5V2.403a9.682 9.682 0 0 1 .4584.1314c1.3917.437 2.2168 1.6014 2.6785 2.9656H15.5Zm-5.0996 3.7016c0-.4542.168-.9082.5979-1.0544.2432-.0827.571-.1472 1.0021-.1472.4311 0 .7589.0645 1.002.1472.43.1462.598.6002.598 1.0544V11.4h2.198c.4542 0 .9082.168 1.0544.5979.0827.2432.1472.571.1472 1.0021 0 .4311-.0645.7589-.1472 1.0021-.1462.4299-.6002.5979-1.0544.5979h-2.198v2.1984c0 .4542-.168.9082-.598 1.0544-.2431.0827-.5709.1472-1.002.1472-.4311 0-.7589-.0645-1.0021-.1472-.4299-.1462-.5979-.6002-.5979-1.0544V14.6H8.2016c-.4542 0-.9082-.168-1.0544-.5979C7.0645 13.7589 7 13.4311 7 13c0-.4311.0645-.7589.1472-1.0021.1462-.4299.6002-.5979 1.0544-.5979h2.1988V9.2016Z" fill="currentcolor"/></svg>