<svg viewBox="0 0 24 24" fill="none" xmlns="http://www.w3.org/2000/svg"><path fill-rule="evenodd" clip-rule="evenodd" d="M6.3971 4.6474C4.0183 4.7747 2.2096 6.6652 2.017 9H2v5.6635c0 2.4883 1.8344 4.567 4.3193 4.6967C7.8345 19.4393 9.7352 19.5 12 19.5c2.2648 0 4.1655-.0607 5.6807-.1398C20.1656 19.2305 22 17.1518 22 14.6635V9h-.017c-.1926-2.3348-2.0012-4.2253-4.3801-4.3526A105.3127 105.3127 0 0 0 12 4.5c-2.1571 0-4.0557.0646-5.6029.1474ZM10 15c0 .5523-.4477 1-1 1s-1-.4477-1-1 .4477-1 1-1 1 .4477 1 1Zm-4 1c.5523 0 1-.4477 1-1s-.4477-1-1-1-1 .4477-1 1 .4477 1 1 1Zm14-7H4v3h16V9Z" fill="currentcolor"/></svg>