<svg xmlns="http://www.w3.org/2000/svg" width="24" height="24" fill="none" viewBox="0 0 24 24"><path fill="currentcolor" fill-rule="evenodd" d="M11.695 4.08c.122-.08.203-.08.324-.08s.202.04.283.08c0 0 1.698.42 4.698 1.92 3 1.5 4.606 2.346 4.606 2.346l.04.04c.405.202.486.805.121 1.127l-.04.04c-.023.024-.033.033-.045.038-.009.003-.019.003-.036.003 0 .04-.04.04-.04.04h-.04l-9.264 4.306a.793.793 0 0 1-.607 0L2.433 9.634h-.041l-.04-.04c-.041 0-.081-.04-.122-.08l-.04-.04a.86.86 0 0 1-.12-.199l-.002-.003a.674.674 0 0 1 .122-.765c.023-.023.033-.033.044-.037.01-.003.02-.003.036-.003 0-.04.041-.04.041-.04l.001-.001c.04-.04.08-.08.12-.08C2.432 8.346 4 7.5 7 6c3-1.5 4.695-1.92 4.695-1.92ZM5 13.46a.3.3 0 0 1 .42-.275l6.152 2.708a1.115 1.115 0 0 0 .899 0l6.108-2.702a.3.3 0 0 1 .42.275L19 17.26c0 .402-.236.769-.61.945l-1.196.561-.021.01-2.344 1.04-2.342 1.082a1.116 1.116 0 0 1-.926.003l-2.387-1.082-2.347-1.042-.005-.003a.582.582 0 0 1-.016-.008l-1.196-.561A1.047 1.047 0 0 1 5 17.26v-3.8Z" clip-rule="evenodd"/></svg>