<svg viewBox="0 0 24 24" fill="none" xmlns="http://www.w3.org/2000/svg"><path fill-rule="evenodd" clip-rule="evenodd" d="M21.4776 8.8016A2.4922 2.4922 0 0 1 20.5 9c-.8179 0-1.5441-.3928-2.0002-1C17.1192 7.9999 16 6.8807 16 5.5c0-.3556.0742-.6938.208-1a2.4915 2.4915 0 0 1-.208-1c0-.2184.028-.4303.0806-.6322C14.8346 2.31 13.4535 2 12 2 6.4771 2 2 6.4771 2 12c0 5.5228 4.4771 10 10 10 5.5228 0 10-4.4772 10-10 0-1.1185-.1836-2.1941-.5224-3.1984Zm-9.124-4.1552a.5.5 0 0 1 .7071 0l1.2929 1.293a.5001.5001 0 0 1-.7072.707l-1.2928-1.2928a.5.5 0 0 1 0-.7072ZM15 12c0 1.6569-1.3431 3-3 3s-3-1.3431-3-3 1.3431-3 3-3 3 1.3431 3 3Zm-2 6.882a.5.5 0 1 0 .4472.8944l1.1056-.5528a.5.5 0 1 0-.4472-.8944L13 18.882Zm-8.7071-6.5891c-.3905-.3905-.3905-1.0237 0-1.4142l.5858-.5858c.3905-.3905 1.0237-.3905 1.4142 0 .3905.3905.3905 1.0237 0 1.4142l-.5858.5858c-.3905.3905-1.0237.3905-1.4142 0Zm13.7678 2.3535a.5001.5001 0 0 0-.7071.7072l1.2928 1.2928a.5.5 0 0 0 .7072-.7071l-1.2929-1.2929Zm.5945-4.8312c.515.1996.7706.7789.571 1.2938l-.2117.5462c-.1996.515-.7788.7706-1.2938.571-.5149-.1996-.7706-.7788-.571-1.2938l.2117-.5462c.1996-.515.7789-.7706 1.2938-.571ZM7.9902 7.5686a.5.5 0 1 0 .2589-.966L6.483 6.1294a.5.5 0 0 0-.2588.966l1.766.4732Zm1.3027 9.3101c.3905-.3905 1.0237-.3905 1.4142 0l.4142.4142c.3905.3905.3905 1.0237 0 1.4142-.3905.3905-1.0237.3905-1.4142 0l-.4142-.4142c-.3905-.3905-.3905-1.0237 0-1.4142ZM6 16.5a.5.5 0 0 0 1 0v-1a.5.5 0 0 0-1 0v1Z" fill="currentcolor"/></svg>