<svg xmlns="http://www.w3.org/2000/svg" fill="none" viewBox="0 0 2295 2105"><path fill="#E61E50" d="M2076 2l161-2c19 0 23 10 9 23l-80 72a33 33 0 01-47-3l-55-64c-12-14-6-26 12-26zm10 1644l-103-39c-18-6-28 3-22 21l69 231c5 18 14 18 20 0l57-168c6-18-4-38-21-45zm-21 232c-5 18 4 26 21 18l180-91c17-9 18-25 4-37l-112-85c-15-12-31-7-37 11l-56 184zM38 901l107 74c16 10 30 4 33-15l46-337c2-18-6-23-19-9L35 795c-26 34-39 70 3 106zm-5-126l164-182c13-14 8-25-11-25l-142 2c-19 0-34 16-34 35v161c0 19 10 23 23 9zm121 626l-108 44c-31 15-49 27-3 60l248 173c16 11 22 5 15-12l-107-246c-8-18-28-26-45-19zm1864-623c17-9 20-26 6-39l-322-306c-14-13-30-9-36 8l-218 610c-6 17 3 25 19 16l551-289zm-244 166l-293 139c-17 8-18 23-1 32l271 156c16 9 30 2 32-17l19-290c2-19-11-28-28-20zm-515 408c19 2 28-10 20-27l-232-527c-8-17-26-21-40-9l-536 458c-14 12-10 24 8 26l780 79zm40-832l211 212c11 15 25 13 31-5l105-306c6-18-4-29-22-25l-313 90c-18 4-24 19-12 34zm-87-27l-213-46c-18-1-30 12-26 31l55 226c4 18 18 21 30 7l165-190c13-14 7-27-11-28zm-263-7c-5-19-22-27-39-19L681 575c-17 8-17 20 0 27l297 121c18 7 28-2 24-20l-53-217zm344 817c8 17 19 17 26 0l175-442c7-17-2-34-21-37l-385-52c-19-3-27 9-20 26l225 505zm414-895l131 125c13 13 34 12 46-2l99-121c11-14 6-26-13-26h-254c-19 0-23 11-9 24zm100 846c-1 18 11 26 27 16l235-144c16-10 16-26 1-37l-212-141c-16-10-30-3-31 15l-20 291zm11 94l98 183c9 17 25 18 35 2l71-106c11-16 5-33-13-39l-174-59c-18-6-25 3-17 19zm240 1l38-191c4-18-6-25-22-16l-235 144c-16 10-15 23 3 29l177 57c18 6 35-5 39-23zm42-296l-18-249c-1-19-16-27-32-18l-184 98c-16 9-17 25-2 36l211 147c15 11 26 5 25-14zm-38-352l-41-278c-3-19-15-22-26-7l-99 130c-12 15-9 37 5 49l140 118c14 12 24 7 21-12zm-26-378l77-156c9-17 0-33-18-35l-257-37c-19-2-24 8-12 22l173 210c12 14 29 12 37-4zm-227-203c-12-15-28-13-35 5l-87 207c-7 18 2 31 21 31l262-6c19-1 24-13 12-28l-173-209zm-79-17l-253 74c-18 5-21 19-6 31l160 127c15 11 33 7 40-11l79-199c7-17-2-27-20-22zm-272 114c-15-12-34-8-43 9l-113 215c-9 17-1 27 17 23l293-91c18-4 21-17 6-29l-160-127zm-84-27l-265-29c-19-2-25 9-14 24l148 257c11 15 27 14 36-2l113-216c9-17 1-32-18-34zm-295 0c-10-16-24-14-30 4l-66 197c-6 18 4 33 23 35l208 45c18 2 25-9 14-25l-149-256zm-71-27l-197 37c-19 3-24 18-12 33l131 163c12 14 26 12 32-6l69-202c6-17-4-29-23-25zm-221 80c-11-15-26-12-32 6l-94 287c-6 18 3 26 20 18l228-107c17-8 21-27 9-41L787 243zM659 616c-18-7-37 2-42 20l-173 591c-6 18 1 22 16 10l524-459c14-12 12-28-6-35L659 616zm-79-19l-294-25c-19-1-24 9-11 23l223 244c12 14 28 11 34-7l71-200c6-18-4-34-23-35zm-96 315l-258 94c-18 6-22 22-9 36l180 189c13 14 27 10 32-8l78-289c5-18-5-28-23-22zm-290 164l7 267c1 19 15 40 33 47l363 146c18 7 22 1 10-14l-391-454c-12-15-22-11-22 8zM10 1537l4 188c1 19 16 32 34 29l232-35c19-3 22-13 6-24L38 1522c-16-11-28-4-28 15zm18 261l118 74c15 10 39 6 51-8l100-115c12-14 7-23-11-19l-254 44c-18 3-20 14-4 24zm196 97l158 20c18 3 28-10 21-27l-54-130c-8-17-24-20-36-6l-100 113c-13 14-7 28 11 30zm193-15c7 18 21 19 31 3l167-274c10-16 4-36-14-43l-359-154c-17-7-25 1-18 18l193 450zm222-360c12 15 34 17 48 6l211-159c15-12 12-23-7-25l-404-48c-19-3-24 8-12 22l164 204zm596 151c12 14 24 10 26-8l29-249c2-19-11-36-30-38l-262-27c-19-2-24 8-12 22l249 300zm72 11l222-104c17-8 19-23 3-34l-188-131c-15-11-30-4-32 14l-31 235c-3 19 9 28 26 20zm237-175l-111-354c-5-18-16-19-23-1l-74 178c-7 17-1 40 14 52l177 137c15 11 23 6 17-12zm20-2c5 18 20 21 32 7l155-178c12-14 9-34-8-43l-268-154c-16-9-25-2-19 16l108 352zm56 45l267 18c19 1 27-12 18-28l-105-186c-9-17-27-19-39-4l-152 172c-13 14-8 27 11 28zm159 221c-12 14-8 31 9 38l201 78c17 7 27-2 22-20l-66-239c-5-18-19-21-32-7l-134 150zm325-165l-41-159c-4-19-17-21-27-5l-66 102c-11 15-5 34 12 41l99 41c17 8 28-1 23-20zm-3-226l173-18c19-2 25-16 13-31l-148-189c-12-14-24-11-28 7l-38 200c-3 19 9 33 28 31zm19-667l139-71c26-15 50-28 4-67l-201-164c-14-12-23-7-21 12l44 272c3 19 19 27 35 18zm171-166l-2-245c0-19-14-28-31-21l-188 79c-17 7-19 23-5 35l200 164c15 12 27 7 26-12zm-30-329l-85-60c-28-23-31-10-43 11l-81 159c-9 17-2 24 16 17l190-82c40-18 39-20 3-45zM1886 21l-58 37c-16 11-14 21 5 23l262 35c18 2 23-7 10-21l-63-68a89 89 0 00-57-25h-36c-19 0-47 9-63 19zm-196-3l62 38c15 10 41 10 57 0l59-38c16-10 13-18-6-18h-167c-18 0-21 8-5 18zm-129 13l-95 115c-12 15-7 23 11 17l253-74c18-5 20-17 4-27l-61-39c-16-10-73-38-112 8zm-728 7l-47 122c-6 17 3 29 22 25l197-37c19-3 23-17 10-30l-87-88a88 88 0 00-53-24c-17 0-35 14-42 32zm-297 1l87 484c4 19 11 19 18 2L812 38c6-18-5-32-23-32H564c-19 0-32 15-28 33zm-48-5L262 524c-8 17 1 32 19 33l295 17c19 2 32-13 28-31L508 37c-3-19-12-20-20-3zm-49 4L279 150a74 74 0 00-28 54l1 272c0 19 6 20 13 3L454 49c7-17 1-22-15-11zM237 612l-45 352c-2 18 10 28 28 22l258-93c18-6 22-23 10-37L264 604c-13-14-25-11-27 8zM34 337l170 172c14 13 24 9 24-10V211c0-18-14-28-31-20L41 257c-44 20-36 48-7 80zM7 358l2 154c0 18 16 34 35 34h137c19 0 23-11 11-24L29 349c-13-14-23-9-22 9zm-7 745c-1 18 12 25 27 15l119-80c15-10 15-28 0-38L35 923c-15-11-28-4-29 15l-6 165zm382 965l25-95c5-19-6-36-25-39l-155-24c-19-3-25 6-13 21l110 138c30 33 45 44 58-1zm253 14l-169-121c-15-11-31-5-36 13l-25 95c-5 19 7 33 26 33h198c19 0 21-9 6-20zm64-137l-217-14c-19-2-22 6-7 17l177 131c31 18 59 43 68-10l10-87c2-19-12-35-31-37zm33-43l-76-286c-4-19-16-20-26-4l-167 274c-10 16-3 30 16 31l228 16c18 1 30-13 25-31zm651 162l-107-309c-6-18-21-21-33-6l-130 156c-12 15-9 34 8 43l243 132c17 9 25 2 19-16zm41-15l127-435c5-18-5-26-22-18l-217 101c-17 8-26 29-20 46l111 306c6 18 16 18 21 0zm44 8l431-445c13-13 8-25-10-25l-277-10c-19-1-38 13-43 31l-116 441c-5 18 2 22 15 8zm29 29l494-156c17-6 18-16 0-22l-216-83c-18-7-43-1-56 12l-230 235c-13 13-10 20 8 14zm253-10l-6-10a47 47 0 00-51-20l-171 50c-18 5-17 9 2 9h210c19 0 26-13 16-29zm102 2l144-123c14-12 11-17-6-11l-212 75c-17 6-25 25-16 42l6 11c31 52 61 20 84 6zm158-119l-138 120c-14 13-10 23 9 22l100-1c19-1 36-16 38-35l12-94c3-19-7-24-21-12zm284-484c0-19-9-22-21-7l-116 148c-12 15-9 36 6 47l104 72c15 11 27 5 27-14v-246zm-26-94l-160 15c-19 1-31 18-27 36l38 166c5 18 17 21 29 6l117-148c11-15 25-39 29-53 5-14-7-24-26-22zm-1356-3l-221 167c-10 8-10 24 2 31l205 130c10 6 24-1 24-12l11-305c0-11-12-18-21-11zm36 13l-11 311c0 9 7 17 16 16l261-12c12-1 19-16 10-26l-256-296c-7-8-19-3-20 7zm10 371l100 145c9 12 27 13 36 1l136-163c9-10 1-25-12-25l-245 12c-15 1-24 18-15 30zm-283-147l72 290c3 13 19 16 27 6l123-153c10-12 7-31-6-39l-193-121c-12-7-26 4-23 17zm239 145l-131 164c-6 8-1 19 9 19l233-8c15-1 23-18 15-30l-102-145c-6-8-18-8-24 0zm179-1061c-26 30-26 45 13 52l383 51c30 4 37-19 19-38l-224-231c-20-20-31-18-51 5l-140 161z"/></svg>
