<svg xmlns="http://www.w3.org/2000/svg" width="24" height="24" fill="none" viewBox="0 0 24 24"><path fill="currentcolor" fill-rule="evenodd" d="M7.462 3.901c1.305-1.304 3.382-1.804 6.063-1.511a.736.736 0 0 1 .651.651c.293 2.681-.207 4.758-1.511 6.063-.75.75-1.857 1.333-3.39 1.809l-.013.003v.22c-.022.856-.272 1.573-.764 2.126l-.117.125c-.975.974-2.16.542-2.804-.594a3.308 3.308 0 0 1-.42-1.303l-.005-.07-.067-.004a3.27 3.27 0 0 1-1.184-.354l-.125-.067c-1.137-.647-1.573-1.835-.598-2.81.608-.607 1.434-.894 2.45-.881h.02l.095-.295c.429-1.294.942-2.267 1.58-2.963l.14-.145Zm5.75 6.536c1.484-1.484 3.846-2.053 6.895-1.72.39.044.698.352.74.742.334 3.049-.235 5.41-1.718 6.895-.853.852-2.112 1.515-3.855 2.057l-.015.004v.25c-.025.973-.31 1.788-.868 2.418l-.134.142c-1.108 1.108-2.456.617-3.19-.675a3.762 3.762 0 0 1-.476-1.482l-.007-.08-.075-.005a3.718 3.718 0 0 1-1.347-.402l-.142-.077c-1.293-.736-1.789-2.086-.68-3.195.69-.69 1.63-1.017 2.786-1.002h.023l.108-.335c.487-1.473 1.072-2.579 1.798-3.37l.157-.165ZM10.561 4.52a.736.736 0 1 0-1.04 1.04.736.736 0 0 0 1.04-1.04Zm6.214 6.072a.837.837 0 1 0-1.183 1.183.837.837 0 0 0 1.183-1.184Z" clip-rule="evenodd"/></svg>