<svg xmlns="http://www.w3.org/2000/svg" width="24" height="24" fill="none" viewBox="0 0 24 24"><path fill="currentcolor" fill-rule="evenodd" d="M5.204 5.219C3.223 5.466 2 7.222 2 9.218V17a1 1 0 0 0 1 1h1a3 3 0 0 1 6 0h4a3 3 0 0 1 6 0h1a1 1 0 0 0 1-1v-2.17a3 3 0 0 0-.427-1.543l-1.7-2.83A3 3 0 0 0 17.302 9H16V7.244c0-.798-.482-1.508-1.26-1.688C13.625 5.298 11.744 5 9 5c-1.527 0-2.787.092-3.796.219ZM16 10.6a.1.1 0 0 1 .1-.1h1.676a1 1 0 0 1 .878.523l1.266 2.33a.1.1 0 0 1-.088.147H16.1a.1.1 0 0 1-.1-.1v-2.8ZM7 20a2 2 0 1 0 0-4 2 2 0 0 0 0 4Zm10 0a2 2 0 1 0 0-4 2 2 0 0 0 0 4Z" clip-rule="evenodd"/></svg>