<svg xmlns="http://www.w3.org/2000/svg" width="24" height="24" fill="none" viewBox="0 0 24 24"><rect width="14" height="2" x="1" y="6" fill="currentcolor" rx="1"/><rect width="14" height="2" x="1" y="11" fill="currentcolor" rx="1"/><rect width="14" height="2" x="1" y="16" fill="currentcolor" rx="1"/><path fill="currentcolor" fill-rule="evenodd" d="M18.757 9.454a.5.5 0 0 0-.757.43v4.233a.5.5 0 0 0 .757.429l3.528-2.117a.5.5 0 0 0 0-.858l-3.528-2.117Z" clip-rule="evenodd"/><path fill="currentcolor" fill-rule="evenodd" d="M18.757 9.454a.5.5 0 0 0-.757.43v4.233a.5.5 0 0 0 .757.429l3.528-2.117a.5.5 0 0 0 0-.858l-3.528-2.117Z" clip-rule="evenodd"/></svg>