<svg viewBox="0 0 24 24" fill="none" xmlns="http://www.w3.org/2000/svg"><path fill-rule="evenodd" clip-rule="evenodd" d="M18.5063 8.7436A.8725.8725 0 0 0 19.1248 9c.224 0 .448-.0858.6186-.2564a.874.874 0 0 0 0-1.2372l-5.2496-5.2498a.874.874 0 0 0-1.2372 0 .874.874 0 0 0 0 1.2372l5.2497 5.2498ZM2 11.4213c0-.5206.3965-.9534.9156-.9922C4.7633 10.2911 9.0163 10 12 10c2.9837 0 7.2367.2911 9.0844.4291.5192.0388.9156.4716.9156.9922V11.5c0 .5523-.4477 1-1 1h-.3l-1.4724 7.3619c-.1408.7038-.6478 1.2768-1.3457 1.4444-1.2241.294-3.3532.6937-5.882.6937-2.5288 0-4.6579-.3997-5.882-.6937-.6978-.1676-1.2048-.7406-1.3456-1.4444L3.3 12.5H3c-.5523 0-1-.4477-1-1v-.0787ZM4.8752 9c.224 0 .448-.0858.6185-.2564l5.2497-5.2498a.874.874 0 0 0 0-1.2372.874.874 0 0 0-1.2371 0L4.2565 7.5064a.874.874 0 0 0 0 1.2372A.8725.8725 0 0 0 4.8752 9ZM7.5 13a.5.5 0 0 0-.5.5v5a.5.5 0 0 0 .5.5h1a.5.5 0 0 0 .5-.5v-5a.5.5 0 0 0-.5-.5h-1Zm3.5.5a.5.5 0 0 1 .5-.5h1a.5.5 0 0 1 .5.5v5a.5.5 0 0 1-.5.5h-1a.5.5 0 0 1-.5-.5v-5Zm4.5-.5a.5.5 0 0 0-.5.5v5a.5.5 0 0 0 .5.5h1a.5.5 0 0 0 .5-.5v-5a.5.5 0 0 0-.5-.5h-1Z" fill="currentcolor"/></svg>