<svg xmlns="http://www.w3.org/2000/svg" width="24" height="24" fill="none" viewBox="0 0 24 24"><path fill="currentcolor" fill-rule="evenodd" d="M12 2C6.477 2 2 6.477 2 12s4.477 10 10 10 10-4.477 10-10S17.523 2 12 2Zm-3.418 8.459h-.796v1.095h.657a2.61 2.61 0 0 0-.007.186v.418h-.65v1.096h.75a5.9 5.9 0 0 0 .418 1.474c.2.442.451.82.757 1.135.31.314.672.56 1.089.737.42.172.894.259 1.42.259.633 0 1.197-.129 1.693-.385a3.066 3.066 0 0 0 1.202-1.142l-.903-.804a.433.433 0 0 0-.14-.1.379.379 0 0 0-.152-.026.341.341 0 0 0-.2.06c-.052.036-.108.08-.165.133l-.18.18a.978.978 0 0 1-.232.178c-.093.054-.206.1-.338.14a1.875 1.875 0 0 1-.479.053c-.415 0-.767-.155-1.055-.465-.288-.31-.49-.785-.604-1.427h1.899c.084 0 .159-.013.225-.04a.652.652 0 0 0 .18-.113.552.552 0 0 0 .112-.16.41.41 0 0 0 .04-.172v-.61h-2.562v-.419c0-.062.002-.124.006-.186h2.636c.084 0 .16-.013.226-.04.07-.03.13-.068.179-.112a.554.554 0 0 0 .113-.16.41.41 0 0 0 .04-.172v-.611h-3.054c.137-.576.351-1.01.644-1.301a1.457 1.457 0 0 1 1.068-.445c.253 0 .452.033.598.1.146.066.268.141.365.225.098.08.182.153.252.22.076.066.166.099.273.099.097 0 .174-.02.232-.06.062-.044.117-.093.166-.146l.757-.783a3.073 3.073 0 0 0-1.109-.99C13.497 7.126 12.955 7 12.326 7a3.471 3.471 0 0 0-2.403.943c-.323.3-.6.666-.83 1.095-.23.425-.4.899-.51 1.42Z" clip-rule="evenodd"/></svg>