<svg viewBox="0 0 24 24" fill="none" xmlns="http://www.w3.org/2000/svg"><path fill-rule="evenodd" clip-rule="evenodd" d="M19.8561 12.9675a7.8895 7.8895 0 0 1-.1261.9614h-9.5002a5.7902 5.7902 0 0 1-.1729-.9614h9.7992Zm-8.5215 3.1177a5.8188 5.8188 0 0 1-.6843-1.0552h8.7808a7.8258 7.8258 0 0 1-.4608 1.0552h-7.6357Zm4.5091 2.1443c-1.2358 0-2.3815-.3857-3.3234-1.0432h5.7468a7.9284 7.9284 0 0 1-.6755.7759 5.7687 5.7687 0 0 1-.5506.144 5.8446 5.8446 0 0 1-1.1973.1233Zm0-11.625c.6098 0 1.1968.0937 1.7479.2672.2137.2155.415.4433.6029.6822h-5.5357c.9147-.6003 2.009-.9494 3.1849-.9494Zm-5.1451 3.1057a5.825 5.825 0 0 1 .714-1.0552H18.92c.1839.3376.3438.69.4775 1.0552h-8.6989Zm-.6417 2.1562a5.7947 5.7947 0 0 1 .1989-1.0551h9.4554c.0712.344.1201.6963.1449 1.0551h-9.7992ZM21 12.417c0 4.9706-4.0294 9-9 9s-9-4.0294-9-9 4.0294-9 9-9 9 4.0294 9 9Z" fill="currentcolor"/></svg>