<svg class="ld-icon__svg" width="14" height="14" viewBox="0 0 14 14" fill="none">
  <path fill-rule="evenodd" clip-rule="evenodd" d="M7 14C10.866 14 14 10.866 14 7C14 3.13401 10.866 0 7 0C3.13401 0 0 3.13401 0 7C0 10.866 3.13401 14 7 14Z" fill="currentColor"></path>
  <path fill-rule="evenodd" clip-rule="evenodd" d="M7.18234 11.0254C6.79228 11.0254 6.48657 10.9147 6.26518 10.6933C6.0438 10.472 5.93311 10.1662 5.93311 9.77618V6.12335C5.93311 5.99685 6.0069 5.93359 6.15449 5.93359H6.89771C7.28776 5.93359 7.59348 6.04428 7.81487 6.26567C8.03625 6.48705 8.14694 6.79277 8.14694 7.18283V10.8357C8.14694 10.9622 8.07315 11.0254 7.92556 11.0254H7.18234Z" fill="var(--ld-icon-secondary-col)"></path>
  <ellipse cx="6.99977" cy="3.80007" rx="1.06667" ry="1.06667" fill="var(--ld-icon-secondary-col)"></ellipse>
</svg>
