<svg xmlns="http://www.w3.org/2000/svg" width="24" height="24" fill="none" viewBox="0 0 24 24"><path fill="currentcolor" fill-rule="evenodd" d="M20.554 11.021c.377.063 1.446.48 1.446.98v2.5c-.5 1-.961 1.241-1.307 1.241h-.87a2.608 2.608 0 1 0-5.216 0H9.391a2.608 2.608 0 0 0-5.216 0h-.87a1.304 1.304 0 0 1-1.304-1.304v-.346c-.004-1.19-.006-1.929.435-2.827a.435.435 0 0 1 0-.87H6v-.23C6 9.557 6.392 9 7 9s1 .557 1 1.165v.23h2v-.23c0-.337.12-.66.332-.879a.435.435 0 0 1 .22-.17A.905.905 0 0 1 11 9c.608 0 1 .557 1 1.165v.23h3.616l-.111-.094c-.614-.524-1.256-1.072-2.063-1.57a.624.624 0 0 1-.189-.896.542.542 0 0 1 .64-.196c.96.396 1.8 1.148 2.746 1.996.276.248.561.503.861.76l3.054.626ZM6.783 14.003a1.74 1.74 0 1 0 0 3.479 1.74 1.74 0 0 0 0-3.479Zm9.466.293a1.74 1.74 0 1 1 1.933 2.893 1.74 1.74 0 0 1-1.933-2.893Z" clip-rule="evenodd"/></svg>