<svg width="8000" height="8000" fill="none"
  xmlns="http://www.w3.org/2000/svg">
  <path d="m8000 747.252-111-1.96-7.4-.12c-113.26-1.84-330.44-5.369-548 4.857-77.56 3.591-155.2 8.914-232.86 14.239l-.01.001c-144.81 9.929-289.7 19.863-434.33 18.587-144.49-1.167-288.82-13.571-433.08-25.97l-.01-.001c-77.78-6.685-155.54-13.369-233.31-18.289-222-14.209-444-14.209-666.4.49-162.94 10.779-326.2 29.462-489.31 48.127-59.33 6.789-118.63 13.575-177.89 19.978-222.4 23.845-444.4 42.463-666.4 38.38-166.59-3.064-333.18-18.911-499.94-34.775l-.02-.002c-55.46-5.275-110.94-10.553-166.44-15.362-222.2-19.272-445-31.358-667.2-13.066-79.39 6.53-158.73 16.889-238.04 27.245h-.01c-142.85 18.652-285.6 37.291-428.35 33.51-97.1-2.643-194.2-15.691-291.34-28.743-124.94-16.789-249.94-33.585-375.06-28.256-140.85 6.108-281.94 40.238-422.965 74.352h-.004c-81.452 19.703-162.882 39.401-244.231 53.692-222.4 38.87-444.399 37.237-555.399 36.42L0 949.769V1544.6l111-28.91 1.938-.5h.002c111.631-28.91 332.348-86.07 553.46-88.18 155.1-1.48 310.493 24.01 465.77 49.49 67.18 11.02 134.33 22.04 201.43 30.86 222.4 29.07 444.4 33.97 666.4-.65 104.83-16.27 209.67-41.4 314.54-66.53 117.22-28.09 234.48-56.19 351.86-71.97 222.2-29.88 445-15.84 667.2 11.93 49.57 6.19 99.12 13.06 148.66 19.92l.02.01c172.7 23.94 345.21 47.86 517.72 42.78 94.83-2.79 189.65-14.34 284.51-25.89 127.21-15.5 254.49-31 381.89-25.39 124.74 5.5 249.67 31.28 374.57 57.06 97.59 20.14 195.17 40.27 292.63 50.73 222.4 24.01 444.4-2.12 666.4-31.19l31.55-4.17 8.98-1.19c208.49-27.61 417.01-55.23 625.87-45.11 149.97 7.39 300.22 34.34 450.37 61.28h.04c72.3 12.97 144.58 25.94 216.79 36.71 219.02 32.82 437.66 45.35 550.27 51.81l5.13.29 111 6.21V747.252ZM8000 6013l-111-29c-111-29-333-87-555.4-68.6-108.13 8.86-216.4 35.85-324.68 62.85-114.23 28.48-228.45 56.96-342.52 64.15-128.03 8.06-255.93-10.66-383.77-29.37-94.23-13.79-188.43-27.57-282.63-30.63-105.97-3.53-211.94 6.47-317.96 16.48-116.07 10.95-232.2 21.91-348.44 15.12-103.89-6.08-207.92-26.37-311.95-46.66h-.01c-118.46-23.1-236.94-46.21-355.24-48.34-165.29-2.97-330.36 34.93-495.37 72.82-57.02 13.09-114.02 26.18-171.03 37.58-222 44.2-444 63-666.4 28-87.59-13.8-175.27-35.95-262.98-58.11v-.01c-134.78-34.05-269.61-68.12-404.22-71.88-127.31-3.66-254.49 19.67-381.61 43h-.01c-94.95 17.43-189.87 34.84-284.78 41-178.73 11.43-357.47-16.93-536.41-45.33-43.32-6.88-86.65-13.76-129.99-20.07-222.2-32.4-445-49.6-667.2-41-219.111 8.47-437.833 42.38-550.403 59.83l-4.997.77L0 5983v1085.8l95.4 15.6c95.2 15.8 286 47 476.2 22.4 82.321-10.64 164.568-31.78 246.804-52.92l.032-.01c107.957-27.75 215.894-55.5 323.964-59.47 110.83-4.08 221.87 16.9 332.95 37.89h.01c79.55 15.03 159.11 30.06 238.64 35.91 142.99 10.5 286.09-8.71 429.13-27.92h.04c47.62-6.4 95.23-12.79 142.83-18.08 190.6-21.4 381.4-25.4 571.6 21.2 63.69 15.65 127.34 36.95 190.97 58.23v.01c126.59 42.35 253.12 84.68 379.83 82.56 116.2-2.08 232.63-41.71 349.1-81.35 74.16-25.24 148.35-50.49 222.5-66.05 144.23-30.27 288.57-23.89 432.69-17.53h.03c46.32 2.05 92.62 4.1 138.88 4.93 71.13 1.19 142.21-.46 213.27-2.11h.04c119.14-2.77 238.24-5.54 357.49 5.11 116.08 10.37 232.38 33.48 348.72 56.61h.02c74.28 14.76 148.59 29.53 222.86 40.99 190.6 29.4 381.4 36.6 572-5.4 63.39-13.97 126.8-33.38 190.2-52.79 127.24-38.95 254.45-77.89 381.4-72.82 132 5.27 263.81 58.22 395.69 111.2 58.35 23.44 116.71 46.88 175.11 66.2 188.33 62.38 377.24 81.82 473.36 91.71l2.84.29 95.4 9.6V6013Z" fill="currentColor"/>
</svg>
