<svg viewBox="0 0 24 24" fill="none" xmlns="http://www.w3.org/2000/svg"><path fill-rule="evenodd" clip-rule="evenodd" d="M9 2c-1.1046 0-2 .8954-2 2v1.6068c-1.366.0613-2.4622.1398-3.276.2106C2.7324 5.9035 2 6.7393 2 7.7346v9.7038c0 .9178.625 1.7116 1.5292 1.8689C5.2192 19.6012 8.2108 20 12 20s6.7807-.3988 8.4708-.6927C21.375 19.15 22 18.3562 22 17.4384V7.7346c0-.9953-.7324-1.831-1.724-1.9173-.8139-.0707-1.91-.1493-3.276-.2105V4c0-1.1046-.8954-2-2-2H9Zm0 2.5a.5.5 0 0 1 .5-.5h5a.5.5 0 0 1 .5.5v1a.5.5 0 0 1-.5.5h-5a.5.5 0 0 1-.5-.5v-1Zm1.0001 4.8284c0-.5304.2309-1.0398.7425-1.1799C11.047 8.0653 11.4583 8 12.0001 8c.5417 0 .953.0652 1.2575.1486.5116.14.7425.6494.7425 1.1798V11h1.6715c.5304 0 1.0398.2309 1.1798.7425.0834.3044.1486.7158.1486 1.2575 0 .5418-.0652.9531-.1486 1.2575-.14.5116-.6494.7425-1.1798.7425h-1.6715v1.6716c0 .5304-.2309 1.0398-.7425 1.1798-.3045.0834-.7158.1486-1.2575.1486-.5418 0-.9531-.0652-1.2575-.1486-.5116-.14-.7425-.6494-.7425-1.1798V15H8.3284c-.5304 0-1.0398-.2309-1.1799-.7425C7.0652 13.9531 7 13.5418 7 13c0-.5417.0652-.9531.1486-1.2575.14-.5116.6494-.7425 1.1798-.7425h1.6717V9.3284Z" fill="currentcolor"/></svg>