<svg xmlns="http://www.w3.org/2000/svg" width="24" height="24" fill="none" viewBox="0 0 24 24"><path fill="currentcolor" fill-rule="evenodd" d="M12.004 17.702a1.253 1.253 0 0 0-1.151.771 1.24 1.24 0 0 0 .274 1.355 1.251 1.251 0 0 0 2.131-.882 1.244 1.244 0 0 0-.775-1.15 1.256 1.256 0 0 0-.479-.094Zm0-8.724a10.105 10.105 0 0 0-7.151 2.925 1.197 1.197 0 0 0 0 1.703 1.224 1.224 0 0 0 1.723 0 7.732 7.732 0 0 1 5.428-2.296 7.733 7.733 0 0 1 5.406 2.296 1.226 1.226 0 0 0 1.987-.39 1.192 1.192 0 0 0-.264-1.313 10.105 10.105 0 0 0-7.13-2.925Zm0 4.356a5.61 5.61 0 0 0-4.038 1.718 1.195 1.195 0 0 0 0 1.658 1.113 1.113 0 0 0 1.619 0 3.268 3.268 0 0 1 2.42-1.067 3.281 3.281 0 0 1 2.42 1.067 1.112 1.112 0 0 0 1.617 0 1.197 1.197 0 0 0 0-1.66 5.589 5.589 0 0 0-4.038-1.716Zm9.662-5.184a13.282 13.282 0 0 0-4.4-3.068 13.332 13.332 0 0 0-10.523 0 13.283 13.283 0 0 0-4.4 3.068 1.24 1.24 0 0 0 0 1.71 1.135 1.135 0 0 0 1.65 0c2.138-2.215 4.985-3.322 8.005-3.322 3.02 0 5.872 1.094 8.005 3.322a1.137 1.137 0 0 0 1.65 0 1.244 1.244 0 0 0 .013-1.71Z" clip-rule="evenodd"/></svg>