<svg xmlns="http://www.w3.org/2000/svg" fill="none" viewBox="0 0 4690 3568"><path fill="#0F69AF" d="M4656 2173c19-4 34-24 34-43v-372c0-19-16-35-35-35h-224c-19 0-35 16-35 35v101c0 20-15 35-35 33l-59-3c-20-1-39-18-44-36l-35-147c-4-19-24-35-43-35h-217c-19 0-36 16-38 35l-25 282c-1 19 13 34 32 34l242-1c19-1 43-14 52-31l30-53c10-17 33-30 53-28l55 3c19 2 34 19 34 38v104c0 20-13 44-28 55l-131 90c-16 10-29 4-29-16v-104c0-19-16-35-35-35h-256c-19 0-43 14-52 31l-112 196a33 33 0 01-47 12l-45-29a88 88 0 01-35-54l-30-208c-3-19-21-35-41-35h-269c-19 0-44-13-55-29l-45-66c-11-16-6-36 11-44l106-52c17-8 33-31 34-50l25-303c2-19-7-35-20-35-12 0-20-15-16-34l32-168c3-19 22-33 41-31l137 15c19 2 35-12 35-31V936c0-20-16-35-35-35h-145c-19 0-42 14-50 31l-31 63c-9 17-29 40-45 51l-87 60c-16 11-34 5-40-13l-51-151c-6-18-27-33-46-33h-313c-19 0-35 16-35 35v293c0 20-10 42-21 50-12 8-35 7-52-2l-49-24c-18-8-41-28-52-44l-60-88c-10-16-4-34 14-40l150-51c18-6 33-26 33-46V679c0-20-16-35-35-35h-302c-19 0-35 15-35 35v190c0 19 9 48 20 64l194 284c11 16 7 37-9 48l-24 16c-16 10-45 16-64 12l-179-33c-19-4-35-23-35-42V904c0-19-15-32-34-28l-304 61c-19 3-41 21-50 38l-45 86c-8 17-29 40-45 51l-72 50c-15 11-38 7-49-8l-53-75a56 56 0 01-2-58l82-126c10-16 34-30 54-30h146c19 0 35-15 35-35V628c0-19-15-39-34-43l-62-16c-19-4-39-23-44-42l-27-99c-6-18 4-41 21-49l120-61c18-9 34-32 36-51l28-232c2-19-12-35-31-35h-368c-20 0-32 15-29 34l54 278c4 19 22 40 40 46l63 22c18 7 37 27 42 46l29 100c5 18-2 45-15 58l-40 42a73 73 0 01-59 18l-144-27c-19-3-32-22-29-41l56-357c3-19-10-35-29-36l-411-10c-20-1-34 15-32 34l4 57c2 19-10 42-27 52l-166 93c-17 9-31 1-31-18l-1-84c0-19-16-35-35-35H427c-19 0-30 15-25 34l105 355c5 19 25 37 44 41l83 16c19 4 27 21 17 37l-74 125a59 59 0 01-52 26l-253-31c-19-2-29 11-23 29l127 379c6 18 27 33 46 33h199c20 0 46 12 58 27l101 124c13 14 12 39 0 53l-51 58a67 67 0 01-57 19l-116-24c-19-4-43-21-53-37l-113-190a69 69 0 00-54-30H125c-19 0-38 16-41 35L0 1842c-3 19 10 35 30 35h378c20 0 40-15 46-34l68-224c5-18 26-30 44-26l98 20c19 4 37 23 40 42l30 182c3 19 21 35 40 35h147c19 0 37-16 40-35l44-266c3-19 20-42 37-51l64-34c17-9 44-8 60 2l117 75c17 10 21 32 11 48l-248 372a70 70 0 00-5 61l39 84c8 17 30 31 50 31h163c20 0 44 13 55 29l94 138c11 15 10 41-2 56l-45 58a30 30 0 01-47 3l-245-246c-14-14-32-40-40-57l-100-212c-8-18-30-32-49-32H780c-20 0-37 16-39 35l-38 344c-2 19 12 34 32 34h234c19 0 42-13 52-30l32-60c10-17 28-20 42-6l246 246c13 14 28 40 33 59l21 87c4 19 24 34 43 34h372c19 0 35-15 35-35v-223c0-20-16-35-35-35h-101c-20 0-34-16-33-35l3-60c1-19 17-40 36-46l148-46c19-6 34-26 34-45v-187c0-19 13-43 30-53l64-39c16-10 38-4 47 13l118 207c10 17 33 33 52 36l153 22c19 2 38-11 43-29l31-134c5-19 23-39 42-44l100-28c19-5 45 1 59 15l41 40c14 14 22 40 18 59l-27 144c-3 19-22 32-41 29l-418-57c-20-3-33 11-31 30l42 411c2 20 19 34 38 32l57-4c19-2 43 10 52 27l93 166c10 17 1 31-18 31l-83 1c-20 0-36 16-36 35v304c0 19 16 31 34 25l356-105c18-5 36-25 40-44l17-83c3-19 20-27 37-17l124 74c17 10 28 33 26 52l-30 253c-3 19 10 30 29 23l378-127c18-6 33-27 33-46v-199c0-20 13-46 28-58l123-101c15-13 39-12 53 0l58 50c15 13 23 39 19 58l-24 116c-4 19-21 43-37 53l-189 113a69 69 0 00-30 54v211c0 19 15 38 34 41l491 84c19 3 35-10 35-30v-378c0-20-15-40-33-46l-225-68c-18-6-30-26-26-45l21-97c4-19 22-37 41-40l182-30c19-3 35-22 35-41v-146c0-19-16-37-35-41l-266-43c-19-3-42-20-51-37l-34-64c-9-17-8-45 3-61l74-117c10-16 32-21 48-10l372 248c16 11 44 13 61 5l84-39c17-8 32-31 32-50v-164c0-19 12-44 28-55l138-94c15-10 41-10 56 2l58 46c15 12 16 33 3 46l-246 246c-14 13-39 31-57 39l-212 100c-18 8-32 31-32 50v134c0 19 16 37 35 39l344 37c19 3 34-11 34-31v-234c0-19-13-43-30-52l-60-33c-17-9-20-28-6-42l246-245c14-14 40-29 59-33l87-21zm-3521-756c-2 19-18 43-35 52l-67 36c-17 9-46 13-65 9l-116-22c-19-4-44-19-57-34l-95-115a81 81 0 01-15-61l67-302c4-19-8-37-27-40l-112-18c-19-3-27-19-17-35l72-123c10-16 33-27 52-24l90 16c19 4 36 22 39 41l15 121c2 19 20 37 39 40l238 38c19 3 33 21 31 40l-37 381zm-31-447c-19-3-37-21-40-40l-17-115c-3-19-21-38-40-41l-206-39c-19-4-34-22-34-42V492c0-20 14-43 31-52l172-96c17-9 32-1 34 18l37 384c2 20 19 37 38 40l234 31c19 2 38-11 43-30l29-124c5-19 24-31 43-28l138 26c19 3 37 22 39 41l12 119c2 19-5 48-16 64l-82 118a61 61 0 01-55 23l-360-56zm926 792c-5 19-23 42-40 52l-72 45c-17 10-46 17-65 15l-273-24c-19-2-35 12-35 32l2 241c0 20 14 43 31 53l53 30c17 9 29 33 28 52l-4 55c-1 19-18 35-37 35h-104c-20 0-44-13-55-29l-90-131c-11-16-4-29 16-29h104c19 0 35-15 35-35v-256c0-19-14-42-31-52l-196-112a33 33 0 01-12-47l29-45c11-16 35-31 54-34l208-31c19-3 35-21 35-40v-53c0-20 15-32 34-29l62 12c19 3 34 22 34 41v51c0 19 15 37 34 39l197 23c19 3 41 19 49 36l16 32c8 18 10 47 5 66l-12 37zm649-46c-19 0-39 15-43 34l-16 62c-4 19-23 38-42 44l-99 27c-18 5-30-6-27-25l21-114c4-19-9-35-29-37l-347-29c-20-1-42-17-50-35l-14-31c-8-17-15-47-15-67v-170c0-19-16-38-35-41l-118-20c-19-3-44 7-56 22l-47 62a63 63 0 01-55 21l-62-12c-19-3-35-22-35-41v-129c0-19 13-44 29-55l67-45c16-11 36-6 44 12l51 105c9 17 31 34 50 37l304 48c19 3 34-10 34-29v-4c0-19 16-32 35-28l168 31c19 4 33 22 31 41l-15 138c-2 19 12 34 31 34h193c19 0 35-15 35-35v-139c0-20 10-42 22-51 13-9 39-15 58-15h173c19 0 48-9 64-20l284-195c16-11 37-6 48 10l15 23c11 16 17 45 13 64l-33 180c-4 19-23 34-42 34h-314c-19 0-32 15-28 34l61 304c3 19 20 42 38 51l86 44c17 9 40 29 51 45l50 72c11 16 7 38-9 49l-74 54a56 56 0 01-58 1l-126-81a72 72 0 01-30-54v-146c0-20-16-35-35-35h-202zm-136 1085c-20 0-43-14-52-31l-96-172c-9-16-1-32 18-34l384-37c20-2 37-19 40-38l31-233c2-20-11-39-30-43l-124-30c-19-4-31-24-28-42l26-139c3-19 22-36 41-38l119-13c19-2 48 5 64 16l118 82c16 11 26 36 23 55l-56 361c-3 19-21 37-40 39l-115 18c-19 2-38 20-41 39l-39 206c-4 19-22 35-42 35l-201-1zm1012-266c9 17 14 46 10 65l-23 116c-3 19-18 45-33 57l-115 95a81 81 0 01-61 15l-302-67c-19-4-37 8-40 27l-18 113c-3 19-19 26-35 16l-123-72a54 54 0 01-24-52l16-90c4-19 22-36 41-39l121-15c19-2 37-20 40-39l38-238c3-19 21-33 40-31l381 37c19 2 42 18 51 35l36 67z"/></svg>
