<svg viewBox="0 0 8000 8000" fill="none"
  xmlns="http://www.w3.org/2000/svg">
  <path fill-rule="evenodd" clip-rule="evenodd" d="M8000 0H0v8000h8000V0ZM3725.6 3905.6c10-1.7 11.6-3.9 10.6-14.6s-4.6-30-7.6-40.6c-3-10.6-5-12.7-14.6-14.1-9.6-1.5-26.5-2.3-36.3-2-9.8.4-12.5 1.9-18.2 10.2a300.4 300.4 0 0 0-18.2 32.3c-4.2 8.7-4 11 1.4 15.2 5.3 4.2 15.8 10.1 22.5 13.4 6.8 3.2 9.7 3.6 20.7 3.4a333 333 0 0 0 39.7-3.2Zm11-238.7c11.6 2 15.5 6 26.6 27.6 11.2 21.5 29.4 60.6 38.2 82.6 8.7 22 8 27-4.7 32.8-12.6 5.6-37.3 12-52.1 15.6-14.8 3.6-19 4.6-29.2 4.6s-26.2-1-35.2-1.8c-9-1-11-2-12.1-5-1.1-2.9-1.3-7.8-1.2-12.7 0-5 .5-10 2.5-32.2 2-22.2 5.5-61.8 8.7-83.6 3.1-21.8 5.8-25.8 16.8-27.9 11-2 30.1-2 41.7 0Zm-74.9 243.5c6.5 5.2 9.9 10.4 22.7 33.9 12.8 23.5 35 65.3 46 88.4 11 23.2 11 28 .8 35.3a111.4 111.4 0 0 1-44 17.3c-13.2 1.2-17.6-2.2-32.9-29.7a2475.7 2475.7 0 0 1-54.8-106.7c-13.6-28.4-15-34.3-8-39.6 6.8-5.3 21.7-10 30.6-12.3 8.8-2.3 11.4-2.3 17.5.3 6.1 2.7 15.7 8 22.1 13.1Zm-107.3 2.6c15.3 4.4 20.9 9.9 36.7 38.3 15.8 28.3 41.8 79.6 55.6 108.3 13.9 28.8 15.7 35 14.5 40.4-1.2 5.5-6.2 10.2-12.3 12.7-6.2 2.5-10.9 2.9-36.8 2.4-25.8-.5-72.1-1.7-97.7-5.5-25.6-3.9-30.4-10.3-32.6-42.5-2.2-32.2-1.6-90 0-121.8 1.6-31.8 4.3-37.4 18.2-38.6 13.9-1.2 39 2 54.4 6.3Zm157.6 318.1c12 15 15.1 19.8 22 34.2a378 378 0 0 1 21 51c3.4 12.9-.5 15-28.5 17s-79.5 3-106.3 0c-26.8-3-30.3-7-22-34.2a1059 1059 0 0 1 40.3-102.3c12-25.9 16-28.3 28.5-17a565.9 565.9 0 0 1 45 51.3Zm110-113.4c-3.7 12.5-6.9 17.8-20.7 35.8-13.8 18-38.2 48.7-53 64.5-14.9 15.7-20 16.4-33 4.1a654.2 654.2 0 0 1-45.5-52c-11.7-14.4-14.4-17.7-16-23.2a73.6 73.6 0 0 1-2.2-18c0-4.8.6-6.7 3.7-10.6a65.4 65.4 0 0 1 33.6-24.4 1418 1418 0 0 1 47.8-19c13.5-4.9 18.5-6 32.2-7.8 13.8-2 36.4-4.5 48.7-4.8 12.3-.3 14.3 1.8 13.2 12.7-1 10.8-5.2 30.3-8.8 42.8Zm-2.3 98.3c-.4 15.8-.8 21.4-2.7 38.2-1.9 16.8-5.4 44.7-8 60-2.6 15.4-4.2 18.3-9.8 20a44.7 44.7 0 0 1-21.5 0c-6.1-1.8-8-4.1-14.4-17.5-6.3-13.5-17-37.7-21.6-52.6-4.6-15-3.2-20.6 9.8-38.3 13-17.6 37.6-47.1 51.2-62 13.5-15 16-15.4 17-2.5 1 12.8.4 38.8 0 54.7Zm60.3-549c23.6 1.5 27.6 4.1 27.2 18-.4 14-5.1 39.4-8.4 54.4-3.2 15-5 19.7-13.1 31a568.7 568.7 0 0 1-31 39c-8.5 9.6-10.8 11-14.5 9.5-3.8-1.6-8.8-6-12.6-10.7-3.7-4.5-6-9.2-16.8-31-10.8-22-30-61-38.2-82.7-8.3-21.6-5.7-25.7 17.3-27.5 23-1.9 66.4-1.5 90 0Zm-43 160.3c3.8 4 5.8 7.3 12.8 21.2 7 14 18.8 38.5 25 52.4 6 13.9 6.4 17.2 5.5 22.4-.9 5.1-3.7 12-8 14.9-4.3 3-7.9 2.7-27.7-3a1494 1494 0 0 1-75-24.1c-19.6-7.2-23.7-10.4-27.3-21a175.2 175.2 0 0 1-7.4-39.2c-.6-10.4 1.5-13.2 14.9-18.2 13.3-5 38-12 52-15.6 14-3.6 17.3-3.8 21.7-1.3 4.4 2.3 9.8 7.4 13.5 11.5Zm4.3 115.7c19.3 7.5 22.4 11.8 20.2 28.1a382.4 382.4 0 0 1-15 60.2c-5.4 15.5-8.8 18.4-22.4 21.8a195 195 0 0 1-52.4 5.1c-14.9-1.3-19.5-4.6-32.5-27.2-13.1-22.6-34.3-63.8-45.1-86.6-10.8-22.8-11.2-27.3-2.8-29.9 8.4-2.5 25.6-3.1 37-3 11.3.3 16.8 1.3 37.4 7.2 20.6 6 56.3 16.7 75.6 24.3Zm248.6-116c2.8 13.5 2.4 16.8-2 20.9-4.6 4.1-13.4 9-21 12.4a374 374 0 0 1-41 14c-27 8.5-74.8 23.1-102 29.3-27.2 6.2-33.5 5.4-42-7-8.4-12.6-19-36.5-24-50.6-5-14.2-4.7-18.7 2.4-30s21-29.3 31.4-39.4c10.3-10 17.1-12.1 44.2-13.8 27-1.5 74.4-2.6 101.1-2 26.7.8 32.6 3.1 38.5 16.1a287 287 0 0 1 14.4 50.2Zm170-91.8c.5-2 1.7-2.7 3.5-2.6 1.8 0 78.6 40.3 89 51 2.3 3 .6 4.8-11.6 13.6a413 413 0 0 1-47.7 30.4c-12.9 6.2-15.8 5-19.5-11-3.6-15.9-14-79.4-13.6-81.4Zm60.2-70.7c11 1.3 13 4.1 14 20.1.9 16 .8 45.2 0 60.5-1 15.4-3 17-13.5 12.2a310 310 0 0 1-40.2-24.2c-10.5-7.6-12.5-10.2-14-20.2-1.3-10-2-27-1.4-36.3.6-9.4 2.5-11.1 13.4-12.1s30.8-1.3 41.7 0Zm-52.1 154.3c1 16.6-1.1 21.3-15.3 33.1a623.2 623.2 0 0 1-55.9 39.9c-15.3 9.3-19.8 9.4-33 1.4-13.4-8-34.8-24.5-43.4-35.7-8.7-11.2-7.3-15.4 15.3-33.1a1569 1569 0 0 1 89.3-63.8c23.8-15.5 28.5-15.7 33-1.4 4.6 14.2 8.9 42.9 10 59.6Zm-47.7-151.9c30 1 35.7 2.8 38.7 11.5 3 8.8 3.4 24.3 1.4 34.5s-6.5 15.1-31.3 34.2c-24.8 19-70 51.9-95.3 68.1-25.4 16.3-31 17.6-36.6 6.2-5.5-11.5-11-35.4-14.3-49.8a618.5 618.5 0 0 1-7-34.2c-2.6-14.8-7-39.3-6.4-52.9.5-13.6 6-16.3 36-17.6 30-1.2 84.7-1 114.8 0Zm264.6 146c24 8.1 28.3 19.4 31 76.3 2.7 57 3.8 159.7 0 213.4-3.7 53.8-12.3 58.8-56.8 33.6-44.5-25.3-125-81-170.3-112.8-45.4-32-55.4-39.2-66.4-52.5a241 241 0 0 1-29-44.5c-5.5-12-4.5-16.9 9.3-28.4a905.8 905.8 0 0 1 56.7-40.5l11.8-8c8.3-5.5 13.9-9.3 23.5-16l1.8-1.1c13.6-9.3 33.8-23 47.6-30.2 14.4-7.4 22-7.6 47.5-5.2 25.6 2.5 69.2 7.6 93.3 15.8Zm-402.5 345.6 1.4 1.6 2 2.4c29.2 34.6 79.4 94.4 103.6 127.5 24.8 33.8 22.4 40-16 43.2-38.4 3.3-112.7 3-153.7 0-41-2.9-49-6.1-54-27-4.5-19.1-6.6-52.4-8-75l-.4-6.4a1141.2 1141.2 0 0 0-3.2-41.7c-1-13-2-32.8-1.3-44 .6-11.3 3-14.2 15-17.1a479.9 479.9 0 0 1 64.3-8.7h1.9c3.2-.2 6.5-.4 10.8 2.6 4.5 3.2 10 9.8 37.6 42.6Zm376.1-12.5c44.6 32 53 42.1 57.4 67.8 4.4 25.8 4.4 67 0 89.6-4.3 22.6-13 26.8-56 29.9a1303 1303 0 0 1-168.2 0c-46.9-4.2-59.9-9.8-91.7-44-31.9-34-82-95.7-107-131.5-25.2-35.9-25.4-45.9-1.4-67.9 24-22 72.2-56 103-72 31-16 44.7-14 91.8 14 47 28 127.6 82 172.1 114Zm-534.8-36.3c15.7 11.7 18.7 15.8 20.5 27.8 1.9 12 2.6 31.7 1.3 43-1.3 11.4-4.6 14.4-23.3 21.2a583.6 583.6 0 0 1-71.2 20.3c-18.7 3.5-22.4 2.1-23.8-12.1a527.3 527.3 0 0 1 3.3-91.2c2.2-13.6 6-35.6 9.7-46.9 3.7-11.2 7.3-11.6 23.3-2.2 16 9.4 44.5 28.5 60.2 40.2Zm236-208.8a144.3 144.3 0 0 1 24.8 27.3c9 12 23.5 31.7 29 44.6 5.4 12.9 1.6 19-25 39s-76.2 54-103.8 72.5c-27.5 18.5-33.2 21.8-37.7 23.4-4.5 1.6-7.8 1.4-9.4-2.2-1.6-3.6-1.4-10.7 3.1-47.5 4.5-36.7 13.3-103.2 18.7-140.2 5.5-37 7.6-44.8 13-50.8 5.3-6 14-10.3 20-12 6-1.6 9.6-.6 21.8 8.5a886.3 886.3 0 0 1 45.5 37.4ZM4032 4058.3c-6.3 36.5-9.5 43.7-21.5 48.4-12.1 4.8-33 7-46.2 7.3-13.2.2-18.5-1.3-35.1-10.8a543 543 0 0 1-59-39.4c-14.9-12-17.4-16.8-14.7-33.3a676.9 676.9 0 0 1 15-60.6c4.6-16 6-20.2 8-25.7 2-5.4 4.8-12.2 9-16.6 4.2-4.4 9.7-6.4 36.2-15 26.5-8.7 73.9-24 99.6-28.7 25.7-4.8 29.8.8 27.1 36.4a1865.9 1865.9 0 0 1-18.4 138Zm-74.9 249c.1 20.5-3.6 24.2-26.5 26a787.6 787.6 0 0 1-87.4 0c-22.7-1.5-26.3-4.3-26.6-19.1-.3-14.8 3.2-41.8 7.6-57.3 4.4-15.5 7.6-19.1 26.5-26 19-6.9 53-16.9 71.9-20.5 18.9-3.7 22.7-1 26.6 19a539 539 0 0 1 8 78Z" fill="currentColor"/>
</svg>
